<?xml version="1.0" encoding="UTF-8" standalone="no"?>
<!DOCTYPE svg PUBLIC "-//W3C//DTD SVG 1.1//EN"
 "http://www.w3.org/Graphics/SVG/1.1/DTD/svg11.dtd">
<!-- Generated by graphviz version 2.40.1 (20161225.0304)
 -->
<!-- Title: tcp_state Pages: 1 -->
<svg width="786pt" height="693pt"
 viewBox="0.00 0.00 786.23 693.20" xmlns="http://www.w3.org/2000/svg" xmlns:xlink="http://www.w3.org/1999/xlink">
<g id="graph0" class="graph" transform="scale(1 1) rotate(0) translate(4 689.1994)">
<title>tcp_state</title>
<polygon fill="#ffffff" stroke="transparent" points="-4,4 -4,-689.1994 782.2284,-689.1994 782.2284,4 -4,4"/>
<!-- CLOSED -->
<g id="node1" class="node">
<title>CLOSED</title>
<path fill="none" stroke="#000000" d="M380.0042,-648.6994C380.0042,-648.6994 426.4525,-648.6994 426.4525,-648.6994 432.4525,-648.6994 438.4525,-654.6994 438.4525,-660.6994 438.4525,-660.6994 438.4525,-672.6994 438.4525,-672.6994 438.4525,-678.6994 432.4525,-684.6994 426.4525,-684.6994 426.4525,-684.6994 380.0042,-684.6994 380.0042,-684.6994 374.0042,-684.6994 368.0042,-678.6994 368.0042,-672.6994 368.0042,-672.6994 368.0042,-660.6994 368.0042,-660.6994 368.0042,-654.6994 374.0042,-648.6994 380.0042,-648.6994"/>
<text text-anchor="middle" x="403.2284" y="-662.4994" font-family="Times,serif" font-size="14.00" fill="#000000">CLOSED</text>
</g>
<!-- LISTEN -->
<g id="node2" class="node">
<title>LISTEN</title>
<path fill="none" stroke="#000000" d="M123.1214,-556.0995C123.1214,-556.0995 163.3353,-556.0995 163.3353,-556.0995 169.3353,-556.0995 175.3353,-562.0995 175.3353,-568.0995 175.3353,-568.0995 175.3353,-580.0995 175.3353,-580.0995 175.3353,-586.0995 169.3353,-592.0995 163.3353,-592.0995 163.3353,-592.0995 123.1214,-592.0995 123.1214,-592.0995 117.1214,-592.0995 111.1214,-586.0995 111.1214,-580.0995 111.1214,-580.0995 111.1214,-568.0995 111.1214,-568.0995 111.1214,-562.0995 117.1214,-556.0995 123.1214,-556.0995"/>
<text text-anchor="middle" x="143.2284" y="-569.8995" font-family="Times,serif" font-size="14.00" fill="#000000">LISTEN</text>
</g>
<!-- CLOSED&#45;&gt;LISTEN -->
<g id="edge1" class="edge">
<title>CLOSED&#45;&gt;LISTEN</title>
<path fill="none" stroke="#000000" d="M367.8051,-664.1702C300.6824,-659.0237 160.325,-646.433 145.6131,-630.1994 138.8597,-622.7475 137.1621,-612.1912 137.5421,-602.2426"/>
<polygon fill="#000000" stroke="#000000" points="141.0283,-602.5554 138.5655,-592.2509 134.0647,-601.8422 141.0283,-602.5554"/>
<text text-anchor="middle" x="233.036" y="-618.9994" font-family="Times,serif" font-size="14.00" fill="#000000">appl:被动打开 send:&lt;nothing&gt;</text>
</g>
<!-- SYN_SENT -->
<g id="node4" class="node">
<title>SYN_SENT</title>
<path fill="none" stroke="#000000" d="M323.2249,-463.4996C323.2249,-463.4996 385.2318,-463.4996 385.2318,-463.4996 391.2318,-463.4996 397.2318,-469.4996 397.2318,-475.4996 397.2318,-475.4996 397.2318,-487.4996 397.2318,-487.4996 397.2318,-493.4996 391.2318,-499.4996 385.2318,-499.4996 385.2318,-499.4996 323.2249,-499.4996 323.2249,-499.4996 317.2249,-499.4996 311.2249,-493.4996 311.2249,-487.4996 311.2249,-487.4996 311.2249,-475.4996 311.2249,-475.4996 311.2249,-469.4996 317.2249,-463.4996 323.2249,-463.4996"/>
<text text-anchor="middle" x="354.2284" y="-477.2996" font-family="Times,serif" font-size="14.00" fill="#000000">SYN_SENT</text>
</g>
<!-- CLOSED&#45;&gt;SYN_SENT -->
<g id="edge2" class="edge">
<title>CLOSED&#45;&gt;SYN_SENT</title>
<path fill="none" stroke="#000000" d="M417.5476,-648.5403C433.3389,-626.156 454.7139,-587.2015 440.2284,-555.5995 430.7715,-534.9682 412.4208,-517.9042 395.0913,-505.3728"/>
<polygon fill="#000000" stroke="#000000" points="396.9281,-502.3879 386.7095,-499.5893 392.9526,-508.1494 396.9281,-502.3879"/>
<text text-anchor="middle" x="516.7542" y="-572.6994" font-family="Times,serif" font-size="14.00" fill="#000000">appl:主动打开 send:SYN</text>
</g>
<!-- SYN_RCVD -->
<g id="node3" class="node">
<title>SYN_RCVD</title>
<path fill="none" stroke="#000000" d="M127.2767,-370.8997C127.2767,-370.8997 193.18,-370.8997 193.18,-370.8997 199.18,-370.8997 205.18,-376.8997 205.18,-382.8997 205.18,-382.8997 205.18,-394.8997 205.18,-394.8997 205.18,-400.8997 199.18,-406.8997 193.18,-406.8997 193.18,-406.8997 127.2767,-406.8997 127.2767,-406.8997 121.2767,-406.8997 115.2767,-400.8997 115.2767,-394.8997 115.2767,-394.8997 115.2767,-382.8997 115.2767,-382.8997 115.2767,-376.8997 121.2767,-370.8997 127.2767,-370.8997"/>
<text text-anchor="middle" x="160.2284" y="-384.6997" font-family="Times,serif" font-size="14.00" fill="#000000">SYN_RCVD</text>
</g>
<!-- LISTEN&#45;&gt;SYN_RCVD -->
<g id="edge3" class="edge">
<title>LISTEN&#45;&gt;SYN_RCVD</title>
<path fill="none" stroke="#000000" d="M144.5159,-555.9966C146.1181,-533.9951 149.0236,-495.7479 152.1248,-462.9996 153.5496,-447.9539 155.3608,-431.2152 156.9094,-417.4591"/>
<polygon fill="#000000" stroke="#000000" points="160.4287,-417.4875 158.0826,-407.1557 153.4736,-416.6955 160.4287,-417.4875"/>
<text text-anchor="middle" x="226.2801" y="-477.2996" font-family="Times,serif" font-size="14.00" fill="#000000">recv:SYN send:SYN,ACK</text>
</g>
<!-- LISTEN&#45;&gt;SYN_SENT -->
<g id="edge4" class="edge">
<title>LISTEN&#45;&gt;SYN_SENT</title>
<path fill="none" stroke="#000000" d="M149.4255,-555.9653C154.75,-543.243 163.7237,-526.9626 177.1766,-517.9996 222.0765,-488.0848 244.7128,-512.3695 297.2284,-499.9996 298.51,-499.6977 299.8043,-499.3804 301.1068,-499.05"/>
<polygon fill="#000000" stroke="#000000" points="302.4562,-502.3097 311.1803,-496.298 300.6114,-495.5572 302.4562,-502.3097"/>
<text text-anchor="middle" x="248.7542" y="-526.3995" font-family="Times,serif" font-size="14.00" fill="#000000">appl:发送数据 send:SYN</text>
</g>
<!-- SYN_RCVD&#45;&gt;CLOSED -->
<g id="edge6" class="edge">
<title>SYN_RCVD&#45;&gt;CLOSED</title>
<path fill="none" stroke="#000000" d="M114.9606,-406.7385C59.7193,-431.4482 -22.921,-479.6616 6.5008,-537.5995 38.0856,-599.7967 68.5173,-604.15 133.2284,-630.1994 173.0053,-646.2116 291.8618,-657.8507 357.8382,-663.2798"/>
<polygon fill="#000000" stroke="#000000" points="357.7033,-666.7802 367.9528,-664.0976 358.2674,-659.803 357.7033,-666.7802"/>
<text text-anchor="middle" x="50.5921" y="-526.3995" font-family="Times,serif" font-size="14.00" fill="#000000">超时 send:RST</text>
</g>
<!-- SYN_RCVD&#45;&gt;LISTEN -->
<g id="edge5" class="edge">
<title>SYN_RCVD&#45;&gt;LISTEN</title>
<path fill="none" stroke="#000000" d="M135.1945,-407.1785C119.0881,-420.5846 99.5483,-440.3475 90.5731,-462.9996 78.7386,-492.8678 99.0226,-526.0197 117.7479,-548.2689"/>
<polygon fill="#000000" stroke="#000000" points="115.2762,-550.758 124.5137,-555.9464 120.528,-546.1299 115.2762,-550.758"/>
<text text-anchor="middle" x="117.056" y="-477.2996" font-family="Times,serif" font-size="14.00" fill="#000000">recv:RST</text>
</g>
<!-- ESTABLISHED -->
<g id="node5" class="node">
<title>ESTABLISHED</title>
<path fill="none" stroke="#000000" d="M348.7303,-278.2997C348.7303,-278.2997 433.7264,-278.2997 433.7264,-278.2997 439.7264,-278.2997 445.7264,-284.2997 445.7264,-290.2997 445.7264,-290.2997 445.7264,-302.2997 445.7264,-302.2997 445.7264,-308.2997 439.7264,-314.2997 433.7264,-314.2997 433.7264,-314.2997 348.7303,-314.2997 348.7303,-314.2997 342.7303,-314.2997 336.7303,-308.2997 336.7303,-302.2997 336.7303,-302.2997 336.7303,-290.2997 336.7303,-290.2997 336.7303,-284.2997 342.7303,-278.2997 348.7303,-278.2997"/>
<text text-anchor="middle" x="391.2284" y="-292.0997" font-family="Times,serif" font-size="14.00" fill="#000000">ESTABLISHED</text>
</g>
<!-- SYN_RCVD&#45;&gt;ESTABLISHED -->
<g id="edge8" class="edge">
<title>SYN_RCVD&#45;&gt;ESTABLISHED</title>
<path fill="none" stroke="#000000" d="M190.7083,-370.7777C211.6213,-358.869 240.2888,-343.5589 266.8475,-332.7997 285.9398,-325.0653 307.2808,-318.1954 326.8215,-312.5607"/>
<polygon fill="#000000" stroke="#000000" points="327.8798,-315.8987 336.5519,-309.8123 325.977,-309.1623 327.8798,-315.8987"/>
<text text-anchor="middle" x="326.4188" y="-341.1997" font-family="Times,serif" font-size="14.00" fill="#000000">recv:ACK send:&lt;无&gt;</text>
</g>
<!-- FIN_WAIT_1 -->
<g id="node6" class="node">
<title>FIN_WAIT_1</title>
<path fill="none" stroke="#000000" d="M218.9559,-185.6998C218.9559,-185.6998 289.5008,-185.6998 289.5008,-185.6998 295.5008,-185.6998 301.5008,-191.6998 301.5008,-197.6998 301.5008,-197.6998 301.5008,-209.6998 301.5008,-209.6998 301.5008,-215.6998 295.5008,-221.6998 289.5008,-221.6998 289.5008,-221.6998 218.9559,-221.6998 218.9559,-221.6998 212.9559,-221.6998 206.9559,-215.6998 206.9559,-209.6998 206.9559,-209.6998 206.9559,-197.6998 206.9559,-197.6998 206.9559,-191.6998 212.9559,-185.6998 218.9559,-185.6998"/>
<text text-anchor="middle" x="254.2284" y="-199.4998" font-family="Times,serif" font-size="14.00" fill="#000000">FIN_WAIT_1</text>
</g>
<!-- SYN_RCVD&#45;&gt;FIN_WAIT_1 -->
<g id="edge7" class="edge">
<title>SYN_RCVD&#45;&gt;FIN_WAIT_1</title>
<path fill="none" stroke="#000000" d="M169.4126,-370.8047C185.9793,-338.1649 220.9473,-269.2704 240.4126,-230.9197"/>
<polygon fill="#000000" stroke="#000000" points="243.6018,-232.3695 245.0068,-221.8682 237.3598,-229.2013 243.6018,-232.3695"/>
<text text-anchor="middle" x="272.0301" y="-294.8997" font-family="Times,serif" font-size="14.00" fill="#000000">appl:关闭 send:FIN</text>
</g>
<!-- SYN_SENT&#45;&gt;CLOSED -->
<g id="edge10" class="edge">
<title>SYN_SENT&#45;&gt;CLOSED</title>
<path fill="none" stroke="#000000" d="M345.172,-499.7971C335.3282,-522.3209 322.5308,-561.4161 334.7352,-592.5995 342.2233,-611.7322 357.2259,-628.8867 371.2861,-641.8599"/>
<polygon fill="#000000" stroke="#000000" points="369.1337,-644.6285 378.9467,-648.6231 373.7666,-639.3809 369.1337,-644.6285"/>
<text text-anchor="middle" x="384.9749" y="-572.6994" font-family="Times,serif" font-size="14.00" fill="#000000">appl:关闭 或超时</text>
</g>
<!-- SYN_SENT&#45;&gt;SYN_RCVD -->
<g id="edge9" class="edge">
<title>SYN_SENT&#45;&gt;SYN_RCVD</title>
<path fill="none" stroke="#000000" d="M311.1797,-466.7037C306.5012,-465.3427 301.7851,-464.0742 297.2284,-462.9996 244.9079,-450.6604 218.4003,-480.0287 177.6248,-444.9996 169.4452,-437.9727 165.0549,-427.1783 162.7189,-416.9282"/>
<polygon fill="#000000" stroke="#000000" points="166.1581,-416.2755 161.0035,-407.0191 159.2607,-417.4695 166.1581,-416.2755"/>
<text text-anchor="middle" x="282.0301" y="-433.7996" font-family="Times,serif" font-size="14.00" fill="#000000">recv:SYN send:SYN,ACK 同时打开</text>
</g>
<!-- SYN_SENT&#45;&gt;ESTABLISHED -->
<g id="edge11" class="edge">
<title>SYN_SENT&#45;&gt;ESTABLISHED</title>
<path fill="none" stroke="#000000" d="M375.2876,-463.2312C380.0899,-457.8806 384.5601,-451.661 387.2284,-444.9996 403.034,-405.5406 400.1688,-355.3523 396.1078,-324.5429"/>
<polygon fill="#000000" stroke="#000000" points="399.5506,-323.8961 394.6501,-314.5027 392.6233,-324.9019 399.5506,-323.8961"/>
<text text-anchor="middle" x="475.056" y="-384.6997" font-family="Times,serif" font-size="14.00" fill="#000000">recv:SYN,ACK send:ACK</text>
</g>
<!-- ESTABLISHED&#45;&gt;FIN_WAIT_1 -->
<g id="edge13" class="edge">
<title>ESTABLISHED&#45;&gt;FIN_WAIT_1</title>
<path fill="none" stroke="#000000" d="M348.0385,-278.113C337.1121,-272.802 325.6429,-266.5811 315.6248,-259.7997 302.5395,-250.9421 289.4218,-239.4054 278.6908,-229.099"/>
<polygon fill="#000000" stroke="#000000" points="280.9186,-226.3811 271.3332,-221.8676 276.0118,-231.3735 280.9186,-226.3811"/>
<text text-anchor="middle" x="371.0301" y="-248.5997" font-family="Times,serif" font-size="14.00" fill="#000000">appl:关闭 send:FIN</text>
</g>
<!-- CLOSE_WAIT -->
<g id="node10" class="node">
<title>CLOSE_WAIT</title>
<path fill="none" stroke="#000000" d="M450.0662,-185.6998C450.0662,-185.6998 528.3905,-185.6998 528.3905,-185.6998 534.3905,-185.6998 540.3905,-191.6998 540.3905,-197.6998 540.3905,-197.6998 540.3905,-209.6998 540.3905,-209.6998 540.3905,-215.6998 534.3905,-221.6998 528.3905,-221.6998 528.3905,-221.6998 450.0662,-221.6998 450.0662,-221.6998 444.0662,-221.6998 438.0662,-215.6998 438.0662,-209.6998 438.0662,-209.6998 438.0662,-197.6998 438.0662,-197.6998 438.0662,-191.6998 444.0662,-185.6998 450.0662,-185.6998"/>
<text text-anchor="middle" x="489.2284" y="-199.4998" font-family="Times,serif" font-size="14.00" fill="#000000">CLOSE_WAIT</text>
</g>
<!-- ESTABLISHED&#45;&gt;CLOSE_WAIT -->
<g id="edge12" class="edge">
<title>ESTABLISHED&#45;&gt;CLOSE_WAIT</title>
<path fill="none" stroke="#000000" d="M410.59,-278.005C425.3547,-264.0539 445.8702,-244.6688 462.2446,-229.1967"/>
<polygon fill="#000000" stroke="#000000" points="465.0422,-231.3686 469.9069,-221.9566 460.2346,-226.2806 465.0422,-231.3686"/>
<text text-anchor="middle" x="504.8026" y="-245.7998" font-family="Times,serif" font-size="14.00" fill="#000000">recv:FIN send:ACK</text>
</g>
<!-- FIN_WAIT_2 -->
<g id="node7" class="node">
<title>FIN_WAIT_2</title>
<path fill="none" stroke="#000000" d="M319.9559,-93.0999C319.9559,-93.0999 390.5008,-93.0999 390.5008,-93.0999 396.5008,-93.0999 402.5008,-99.0999 402.5008,-105.0999 402.5008,-105.0999 402.5008,-117.0999 402.5008,-117.0999 402.5008,-123.0999 396.5008,-129.0999 390.5008,-129.0999 390.5008,-129.0999 319.9559,-129.0999 319.9559,-129.0999 313.9559,-129.0999 307.9559,-123.0999 307.9559,-117.0999 307.9559,-117.0999 307.9559,-105.0999 307.9559,-105.0999 307.9559,-99.0999 313.9559,-93.0999 319.9559,-93.0999"/>
<text text-anchor="middle" x="355.2284" y="-106.8999" font-family="Times,serif" font-size="14.00" fill="#000000">FIN_WAIT_2</text>
</g>
<!-- FIN_WAIT_1&#45;&gt;FIN_WAIT_2 -->
<g id="edge18" class="edge">
<title>FIN_WAIT_1&#45;&gt;FIN_WAIT_2</title>
<path fill="none" stroke="#000000" d="M249.8156,-185.6337C248.0013,-173.7491 247.8581,-158.4451 255.6385,-147.5999 258.6056,-143.4641 277.587,-136.0921 298.196,-129.0509"/>
<polygon fill="#000000" stroke="#000000" points="299.3612,-132.3518 307.7279,-125.8519 297.1339,-125.7156 299.3612,-132.3518"/>
<text text-anchor="middle" x="307.5233" y="-155.9998" font-family="Times,serif" font-size="14.00" fill="#000000">recv:ACK send:无</text>
</g>
<!-- CLOSING -->
<g id="node8" class="node">
<title>CLOSING</title>
<path fill="none" stroke="#000000" d="M448.8939,-93.0999C448.8939,-93.0999 501.5628,-93.0999 501.5628,-93.0999 507.5628,-93.0999 513.5628,-99.0999 513.5628,-105.0999 513.5628,-105.0999 513.5628,-117.0999 513.5628,-117.0999 513.5628,-123.0999 507.5628,-129.0999 501.5628,-129.0999 501.5628,-129.0999 448.8939,-129.0999 448.8939,-129.0999 442.8939,-129.0999 436.8939,-123.0999 436.8939,-117.0999 436.8939,-117.0999 436.8939,-105.0999 436.8939,-105.0999 436.8939,-99.0999 442.8939,-93.0999 448.8939,-93.0999"/>
<text text-anchor="middle" x="475.2284" y="-106.8999" font-family="Times,serif" font-size="14.00" fill="#000000">CLOSING</text>
</g>
<!-- FIN_WAIT_1&#45;&gt;CLOSING -->
<g id="edge16" class="edge">
<title>FIN_WAIT_1&#45;&gt;CLOSING</title>
<path fill="none" stroke="#000000" d="M301.656,-190.7084C320.4209,-184.7197 341.8528,-176.7916 360.2284,-167.1998 373.3264,-160.3628 374.1963,-154.8329 387.0799,-147.5999 399.632,-140.5531 413.8204,-134.0843 427.0876,-128.6132"/>
<polygon fill="#000000" stroke="#000000" points="428.5747,-131.7877 436.5488,-124.8118 425.9649,-125.2924 428.5747,-131.7877"/>
<text text-anchor="middle" x="442.8026" y="-153.1999" font-family="Times,serif" font-size="14.00" fill="#000000">recv:FIN send:ACK</text>
</g>
<!-- TIME_WAIT -->
<g id="node9" class="node">
<title>TIME_WAIT</title>
<path fill="none" stroke="#000000" d="M381.1283,-.5C381.1283,-.5 449.3284,-.5 449.3284,-.5 455.3284,-.5 461.3284,-6.5 461.3284,-12.5 461.3284,-12.5 461.3284,-24.5 461.3284,-24.5 461.3284,-30.5 455.3284,-36.5 449.3284,-36.5 449.3284,-36.5 381.1283,-36.5 381.1283,-36.5 375.1283,-36.5 369.1283,-30.5 369.1283,-24.5 369.1283,-24.5 369.1283,-12.5 369.1283,-12.5 369.1283,-6.5 375.1283,-.5 381.1283,-.5"/>
<text text-anchor="middle" x="415.2284" y="-14.3" font-family="Times,serif" font-size="14.00" fill="#000000">TIME_WAIT</text>
</g>
<!-- FIN_WAIT_1&#45;&gt;TIME_WAIT -->
<g id="edge17" class="edge">
<title>FIN_WAIT_1&#45;&gt;TIME_WAIT</title>
<path fill="none" stroke="#000000" d="M216.8514,-185.5429C178.1175,-164.2594 126.6533,-127.4523 153.0213,-92.5999 177.8103,-59.8347 289.6841,-37.4175 359.0477,-26.391"/>
<polygon fill="#000000" stroke="#000000" points="359.6159,-29.8448 368.9578,-24.847 358.5381,-22.9283 359.6159,-29.8448"/>
<text text-anchor="middle" x="225.3319" y="-106.8999" font-family="Times,serif" font-size="14.00" fill="#000000">recv:FIN,ACK send:ACK</text>
</g>
<!-- FIN_WAIT_2&#45;&gt;TIME_WAIT -->
<g id="edge20" class="edge">
<title>FIN_WAIT_2&#45;&gt;TIME_WAIT</title>
<path fill="none" stroke="#000000" d="M345.4271,-93.0157C340.5738,-81.4151 337.0913,-66.4398 344.0799,-55 348.0605,-48.4841 353.6147,-43.0833 359.8826,-38.6191"/>
<polygon fill="#000000" stroke="#000000" points="362.1369,-41.3397 368.7915,-33.0955 358.4482,-35.3904 362.1369,-41.3397"/>
<text text-anchor="middle" x="399.8026" y="-60.6" font-family="Times,serif" font-size="14.00" fill="#000000">recv:FIN send:ACK</text>
</g>
<!-- CLOSING&#45;&gt;TIME_WAIT -->
<g id="edge19" class="edge">
<title>CLOSING&#45;&gt;TIME_WAIT</title>
<path fill="none" stroke="#000000" d="M473.7208,-92.9839C472.0594,-81.3702 468.5675,-66.3923 461.2284,-55 458.6058,-50.9291 455.3728,-47.1123 451.8461,-43.5954"/>
<polygon fill="#000000" stroke="#000000" points="454.0743,-40.8921 444.2963,-36.8125 449.396,-46.0993 454.0743,-40.8921"/>
<text text-anchor="middle" x="521.5233" y="-63.3999" font-family="Times,serif" font-size="14.00" fill="#000000">recv:ACK send:无</text>
</g>
<!-- TIME_WAIT&#45;&gt;CLOSED -->
<g id="edge21" class="edge">
<title>TIME_WAIT&#45;&gt;CLOSED</title>
<path fill="none" stroke="#000000" d="M461.5713,-20.6248C559.4315,-26.3778 778.2284,-46.4674 778.2284,-111.0999 778.2284,-574.0995 778.2284,-574.0995 778.2284,-574.0995 778.2284,-641.2959 548.4124,-660.033 448.5999,-665.0021"/>
<polygon fill="#000000" stroke="#000000" points="448.3309,-661.5108 438.5074,-665.4794 448.6617,-668.503 448.3309,-661.5108"/>
</g>
<!-- LAST_ACK -->
<g id="node11" class="node">
<title>LAST_ACK</title>
<path fill="none" stroke="#000000" d="M578.4491,-93.0999C578.4491,-93.0999 642.0076,-93.0999 642.0076,-93.0999 648.0076,-93.0999 654.0076,-99.0999 654.0076,-105.0999 654.0076,-105.0999 654.0076,-117.0999 654.0076,-117.0999 654.0076,-123.0999 648.0076,-129.0999 642.0076,-129.0999 642.0076,-129.0999 578.4491,-129.0999 578.4491,-129.0999 572.4491,-129.0999 566.4491,-123.0999 566.4491,-117.0999 566.4491,-117.0999 566.4491,-105.0999 566.4491,-105.0999 566.4491,-99.0999 572.4491,-93.0999 578.4491,-93.0999"/>
<text text-anchor="middle" x="610.2284" y="-106.8999" font-family="Times,serif" font-size="14.00" fill="#000000">LAST_ACK</text>
</g>
<!-- CLOSE_WAIT&#45;&gt;LAST_ACK -->
<g id="edge14" class="edge">
<title>CLOSE_WAIT&#45;&gt;LAST_ACK</title>
<path fill="none" stroke="#000000" d="M495.2734,-185.6811C500.1626,-173.5101 508.1367,-157.8521 519.6248,-147.5999 530.2135,-138.1505 543.5616,-130.9786 556.7335,-125.6049"/>
<polygon fill="#000000" stroke="#000000" points="558.1377,-128.8159 566.2516,-122.003 555.6601,-122.269 558.1377,-128.8159"/>
<text text-anchor="middle" x="575.0301" y="-155.9998" font-family="Times,serif" font-size="14.00" fill="#000000">appl:关闭 send:FIN</text>
</g>
<!-- LAST_ACK&#45;&gt;CLOSED -->
<g id="edge15" class="edge">
<title>LAST_ACK&#45;&gt;CLOSED</title>
<path fill="none" stroke="#000000" d="M621.9441,-129.1662C625.2932,-134.8938 628.7128,-141.3621 631.2284,-147.5999 640.8396,-171.4329 645.2284,-178.0019 645.2284,-203.6998 645.2284,-574.0995 645.2284,-574.0995 645.2284,-574.0995 645.2284,-615.7428 518.6506,-645.5857 448.5825,-658.9154"/>
<polygon fill="#000000" stroke="#000000" points="447.8658,-655.4886 438.6764,-660.7616 449.1484,-662.3701 447.8658,-655.4886"/>
<text text-anchor="middle" x="697.5233" y="-387.4996" font-family="Times,serif" font-size="14.00" fill="#000000">recv:ACK send:无</text>
</g>
</g>
</svg>
