<?xml version="1.0" encoding="UTF-8" standalone="no"?>
<!DOCTYPE svg PUBLIC "-//W3C//DTD SVG 1.1//EN"
 "http://www.w3.org/Graphics/SVG/1.1/DTD/svg11.dtd">
<!-- Generated by graphviz version 2.40.1 (20161225.0304)
 -->
<!-- Title: finite_state_machine Pages: 1 -->
<svg width="576pt" height="144pt"
 viewBox="0.00 0.00 576.00 143.52" xmlns="http://www.w3.org/2000/svg" xmlns:xlink="http://www.w3.org/1999/xlink">
<g id="graph0" class="graph" transform="scale(.4065 .4065) rotate(0) translate(4 349.1006)">
<title>finite_state_machine</title>
<polygon fill="#ffffff" stroke="transparent" points="-4,4 -4,-349.1006 1413.1351,-349.1006 1413.1351,4 -4,4"/>
<!-- SStart -->
<g id="node1" class="node">
<title>SStart</title>
<ellipse fill="none" stroke="#000000" cx="31.7275" cy="-263.2745" rx="31.9567" ry="31.9567"/>
<text text-anchor="middle" x="31.7275" y="-259.0745" font-family="Times,serif" font-size="14.00" fill="#000000">SStart</text>
</g>
<!-- AFindMiner -->
<g id="node3" class="node">
<title>AFindMiner</title>
<ellipse fill="none" stroke="#000000" cx="153.7792" cy="-263.2745" rx="54.1489" ry="54.1489"/>
<text text-anchor="middle" x="153.7792" y="-259.0745" font-family="Times,serif" font-size="14.00" fill="#000000">AFindMiner</text>
</g>
<!-- SStart&#45;&gt;AFindMiner -->
<g id="edge1" class="edge">
<title>SStart&#45;&gt;AFindMiner</title>
<path fill="none" stroke="#000000" d="M63.4766,-263.2745C71.3796,-263.2745 80.1411,-263.2745 89.0084,-263.2745"/>
<polygon fill="#000000" stroke="#000000" points="89.0248,-266.7746 99.0248,-263.2745 89.0248,-259.7746 89.0248,-266.7746"/>
</g>
<!-- SSetup -->
<g id="node2" class="node">
<title>SSetup</title>
<ellipse fill="none" stroke="#000000" cx="279.2724" cy="-263.2745" rx="35.3389" ry="35.3389"/>
<text text-anchor="middle" x="279.2724" y="-259.0745" font-family="Times,serif" font-size="14.00" fill="#000000">SSetup</text>
</g>
<!-- APreparePiece -->
<g id="node4" class="node">
<title>APreparePiece</title>
<ellipse fill="none" stroke="#000000" cx="413.091" cy="-263.2745" rx="62.7992" ry="62.7992"/>
<text text-anchor="middle" x="413.091" y="-259.0745" font-family="Times,serif" font-size="14.00" fill="#000000">APreparePiece</text>
</g>
<!-- SSetup&#45;&gt;APreparePiece -->
<g id="edge3" class="edge">
<title>SSetup&#45;&gt;APreparePiece</title>
<path fill="none" stroke="#000000" d="M314.782,-263.2745C322.6291,-263.2745 331.2214,-263.2745 339.9564,-263.2745"/>
<polygon fill="#000000" stroke="#000000" points="340.2401,-266.7746 350.2401,-263.2745 340.24,-259.7746 340.2401,-266.7746"/>
</g>
<!-- AFindMiner&#45;&gt;SSetup -->
<g id="edge2" class="edge">
<title>AFindMiner&#45;&gt;SSetup</title>
<path fill="none" stroke="#000000" d="M208.4573,-263.2745C216.9097,-263.2745 225.5607,-263.2745 233.7831,-263.2745"/>
<polygon fill="#000000" stroke="#000000" points="233.9216,-266.7746 243.9215,-263.2745 233.9215,-259.7746 233.9216,-266.7746"/>
</g>
<!-- SDealMaking -->
<g id="node5" class="node">
<title>SDealMaking</title>
<ellipse fill="none" stroke="#000000" cx="570.9699" cy="-263.2745" rx="59.4599" ry="59.4599"/>
<text text-anchor="middle" x="570.9699" y="-259.0745" font-family="Times,serif" font-size="14.00" fill="#000000">SDealMaking</text>
</g>
<!-- APreparePiece&#45;&gt;SDealMaking -->
<g id="edge4" class="edge">
<title>APreparePiece&#45;&gt;SDealMaking</title>
<path fill="none" stroke="#000000" d="M475.9425,-263.2745C484.3179,-263.2745 492.9456,-263.2745 501.4266,-263.2745"/>
<polygon fill="#000000" stroke="#000000" points="501.6719,-266.7746 511.6719,-263.2745 501.6718,-259.7746 501.6719,-266.7746"/>
</g>
<!-- ASendDealProposal -->
<g id="node6" class="node">
<title>ASendDealProposal</title>
<ellipse fill="none" stroke="#000000" cx="748.0255" cy="-263.2745" rx="81.6526" ry="81.6526"/>
<text text-anchor="middle" x="748.0255" y="-259.0745" font-family="Times,serif" font-size="14.00" fill="#000000">ASendDealProposal</text>
</g>
<!-- SDealMaking&#45;&gt;ASendDealProposal -->
<g id="edge5" class="edge">
<title>SDealMaking&#45;&gt;ASendDealProposal</title>
<path fill="none" stroke="#000000" d="M629.9269,-256.871C638.4053,-256.6651 647.2926,-256.551 656.2243,-256.5286"/>
<polygon fill="#000000" stroke="#000000" points="656.3032,-260.0286 666.308,-256.5423 656.3128,-253.0286 656.3032,-260.0286"/>
</g>
<!-- AGetAcceptedDeal -->
<g id="node7" class="node">
<title>AGetAcceptedDeal</title>
<ellipse fill="none" stroke="#000000" cx="748.0255" cy="-84.2745" rx="79.1867" ry="79.1867"/>
<text text-anchor="middle" x="748.0255" y="-80.0745" font-family="Times,serif" font-size="14.00" fill="#000000">AGetAcceptedDeal</text>
</g>
<!-- SDealMaking&#45;&gt;AGetAcceptedDeal -->
<g id="edge7" class="edge">
<title>SDealMaking&#45;&gt;AGetAcceptedDeal</title>
<path fill="none" stroke="#000000" d="M612.9296,-220.854C634.3374,-199.2111 660.8241,-172.4336 684.6575,-148.3384"/>
<polygon fill="#000000" stroke="#000000" points="687.4163,-150.5263 691.9603,-140.9554 682.4396,-145.6036 687.4163,-150.5263"/>
</g>
<!-- ASendDealProposal&#45;&gt;SDealMaking -->
<g id="edge6" class="edge">
<title>ASendDealProposal&#45;&gt;SDealMaking</title>
<path fill="none" stroke="#000000" d="M666.308,-270.0067C657.4902,-270.0528 648.5818,-270.0092 639.9354,-269.8758"/>
<polygon fill="#000000" stroke="#000000" points="639.9941,-266.3764 629.9269,-269.678 639.8557,-273.375 639.9941,-266.3764"/>
</g>
<!-- SDealMadeNotDone -->
<g id="node8" class="node">
<title>SDealMadeNotDone</title>
<ellipse fill="none" stroke="#000000" cx="950.1261" cy="-84.2745" rx="84.0496" ry="84.0496"/>
<text text-anchor="middle" x="950.1261" y="-80.0745" font-family="Times,serif" font-size="14.00" fill="#000000">SDealMadeNotDone</text>
</g>
<!-- AGetAcceptedDeal&#45;&gt;SDealMadeNotDone -->
<g id="edge8" class="edge">
<title>AGetAcceptedDeal&#45;&gt;SDealMadeNotDone</title>
<path fill="none" stroke="#000000" d="M827.6109,-84.2745C836.7774,-84.2745 846.1909,-84.2745 855.5305,-84.2745"/>
<polygon fill="#000000" stroke="#000000" points="855.6209,-87.7746 865.6209,-84.2745 855.6208,-80.7746 855.6209,-87.7746"/>
</g>
<!-- APostDealOnChain -->
<g id="node9" class="node">
<title>APostDealOnChain</title>
<ellipse fill="none" stroke="#000000" cx="1150.7586" cy="-84.2745" rx="80.2162" ry="80.2162"/>
<text text-anchor="middle" x="1150.7586" y="-80.0745" font-family="Times,serif" font-size="14.00" fill="#000000">APostDealOnChain</text>
</g>
<!-- SDealMadeNotDone&#45;&gt;APostDealOnChain -->
<g id="edge9" class="edge">
<title>SDealMadeNotDone&#45;&gt;APostDealOnChain</title>
<path fill="none" stroke="#000000" stroke-dasharray="5,2" d="M1034.6309,-84.2745C1043.0059,-84.2745 1051.5317,-84.2745 1059.9668,-84.2745"/>
<polygon fill="#000000" stroke="#000000" points="1060.1947,-87.7746 1070.1947,-84.2745 1060.1947,-80.7746 1060.1947,-87.7746"/>
</g>
<!-- SDealMadeDone -->
<g id="node10" class="node">
<title>SDealMadeDone</title>
<ellipse fill="none" stroke="#000000" cx="1338.1258" cy="-84.2745" rx="71.0186" ry="71.0186"/>
<text text-anchor="middle" x="1338.1258" y="-80.0745" font-family="Times,serif" font-size="14.00" fill="#000000">SDealMadeDone</text>
</g>
<!-- APostDealOnChain&#45;&gt;SDealMadeDone -->
<g id="edge10" class="edge">
<title>APostDealOnChain&#45;&gt;SDealMadeDone</title>
<path fill="none" stroke="#000000" stroke-dasharray="5,2" d="M1230.2192,-70.9137C1239.5215,-70.7303 1249.0154,-70.7281 1258.3224,-70.9071"/>
<polygon fill="#000000" stroke="#000000" points="1258.2409,-74.406 1268.3301,-71.1724 1258.4264,-67.4085 1258.2409,-74.406"/>
</g>
<!-- APostDealOnChain&#45;&gt;SDealMadeDone -->
<g id="edge12" class="edge">
<title>APostDealOnChain&#45;&gt;SDealMadeDone</title>
<path fill="none" stroke="#000000" d="M1230.2192,-97.6352C1239.5215,-97.8186 1249.0154,-97.8209 1258.3224,-97.6419"/>
<polygon fill="#000000" stroke="#000000" points="1258.4264,-101.1405 1268.3301,-97.3766 1258.2409,-94.1429 1258.4264,-101.1405"/>
</g>
<!-- SDealMadeDone&#45;&gt;APostDealOnChain -->
<g id="edge11" class="edge">
<title>SDealMadeDone&#45;&gt;APostDealOnChain</title>
<path fill="none" stroke="#000000" d="M1267.09,-84.2745C1258.6875,-84.2745 1250.0266,-84.2745 1241.4,-84.2745"/>
<polygon fill="#000000" stroke="#000000" points="1241.3066,-80.7746 1231.3066,-84.2745 1241.3065,-87.7746 1241.3066,-80.7746"/>
</g>
</g>
</svg>
