<?xml version="1.0" encoding="UTF-8" standalone="no"?>
<!DOCTYPE svg PUBLIC "-//W3C//DTD SVG 1.1//EN"
 "http://www.w3.org/Graphics/SVG/1.1/DTD/svg11.dtd">
<!-- Generated by graphviz version 5.0.0 (20220707.1540)
 -->
<!-- Title: sector Pages: 1 -->
<svg width="277pt" height="620pt"
 viewBox="0.00 0.00 276.62 620.00" xmlns="http://www.w3.org/2000/svg" xmlns:xlink="http://www.w3.org/1999/xlink">
<g id="graph0" class="graph" transform="scale(1 1) rotate(0) translate(4 616)">
<title>sector</title>
<polygon fill="white" stroke="transparent" points="-4,4 -4,-616 272.62,-616 272.62,4 -4,4"/>
<!-- INIT -->
<g id="node1" class="node">
<title>INIT</title>
<polygon fill="#d6d6d6" stroke="#d6d6d6" points="211.51,-612 157.51,-612 157.51,-576 211.51,-576 211.51,-612"/>
<text text-anchor="middle" x="184.51" y="-589.8" font-family="monospace" font-size="14.00">INIT</text>
</g>
<!-- init2boot -->
<g id="node6" class="node">
<title>init2boot</title>
<text text-anchor="middle" x="139.51" y="-517.8" font-family="Times,serif" font-size="14.00">init2boot</text>
</g>
<!-- INIT&#45;&gt;init2boot -->
<g id="edge1" class="edge">
<title>INIT&#45;&gt;init2boot</title>
<path fill="none" stroke="black" d="M173.38,-575.7C166.41,-564.85 157.45,-550.92 150.5,-540.1"/>
</g>
<!-- follow2init -->
<g id="node12" class="node">
<title>follow2init</title>
<text text-anchor="middle" x="229.51" y="-517.8" font-family="Times,serif" font-size="14.00" fill="red">follow2init</text>
</g>
<!-- INIT&#45;&gt;follow2init -->
<g id="edge12" class="edge">
<title>INIT&#45;&gt;follow2init</title>
<path fill="none" stroke="red" d="M201.17,-567.08C206.96,-558.08 213.3,-548.21 218.51,-540.1"/>
<polygon fill="red" stroke="red" points="198.09,-565.39 195.63,-575.7 203.98,-569.18 198.09,-565.39"/>
</g>
<!-- BOOTSTRAP -->
<g id="node2" class="node">
<title>BOOTSTRAP</title>
<polygon fill="#d6d6d6" stroke="#d6d6d6" points="188.19,-468 90.82,-468 90.82,-432 188.19,-432 188.19,-468"/>
<text text-anchor="middle" x="139.51" y="-445.8" font-family="monospace" font-size="14.00">BOOTSTRAP</text>
</g>
<!-- boot2check -->
<g id="node7" class="node">
<title>boot2check</title>
<text text-anchor="middle" x="105.51" y="-373.8" font-family="Times,serif" font-size="14.00">boot2check</text>
</g>
<!-- BOOTSTRAP&#45;&gt;boot2check -->
<g id="edge2" class="edge">
<title>BOOTSTRAP&#45;&gt;boot2check</title>
<path fill="none" stroke="black" d="M131.1,-431.7C125.83,-420.85 119.07,-406.92 113.81,-396.1"/>
</g>
<!-- boot2catch -->
<g id="node8" class="node">
<title>boot2catch</title>
<text text-anchor="middle" x="205.51" y="-301.8" font-family="Times,serif" font-size="14.00">boot2catch</text>
</g>
<!-- BOOTSTRAP&#45;&gt;boot2catch -->
<g id="edge3" class="edge">
<title>BOOTSTRAP&#45;&gt;boot2catch</title>
<path fill="none" stroke="black" d="M147.47,-431.87C160.15,-404.58 184.81,-351.52 197.52,-324.19"/>
</g>
<!-- SYNC_CHECKPOINT -->
<g id="node3" class="node">
<title>SYNC_CHECKPOINT</title>
<polygon fill="#d6d6d6" stroke="#d6d6d6" points="149.02,-324 -0.01,-324 -0.01,-288 149.02,-288 149.02,-324"/>
<text text-anchor="middle" x="74.51" y="-301.8" font-family="monospace" font-size="14.00">SYNC_CHECKPOINT</text>
</g>
<!-- check2catch -->
<g id="node9" class="node">
<title>check2catch</title>
<text text-anchor="middle" x="104.51" y="-229.8" font-family="Times,serif" font-size="14.00">check2catch</text>
</g>
<!-- SYNC_CHECKPOINT&#45;&gt;check2catch -->
<g id="edge4" class="edge">
<title>SYNC_CHECKPOINT&#45;&gt;check2catch</title>
<path fill="none" stroke="black" d="M81.92,-287.7C86.57,-276.85 92.54,-262.92 97.18,-252.1"/>
</g>
<!-- CHAIN_CATCHUP -->
<g id="node4" class="node">
<title>CHAIN_CATCHUP</title>
<polygon fill="#d6d6d6" stroke="#d6d6d6" points="205.68,-180 73.33,-180 73.33,-144 205.68,-144 205.68,-180"/>
<text text-anchor="middle" x="139.51" y="-157.8" font-family="monospace" font-size="14.00">CHAIN_CATCHUP</text>
</g>
<!-- catch2follow -->
<g id="node10" class="node">
<title>catch2follow</title>
<text text-anchor="middle" x="86.51" y="-85.8" font-family="Times,serif" font-size="14.00">catch2follow</text>
</g>
<!-- CHAIN_CATCHUP&#45;&gt;catch2follow -->
<g id="edge5" class="edge">
<title>CHAIN_CATCHUP&#45;&gt;catch2follow</title>
<path fill="none" stroke="black" d="M126.41,-143.7C118.19,-132.85 107.64,-118.92 99.46,-108.1"/>
</g>
<!-- follow2catch -->
<g id="node11" class="node">
<title>follow2catch</title>
<text text-anchor="middle" x="193.51" y="-85.8" font-family="Times,serif" font-size="14.00" fill="red">follow2catch</text>
</g>
<!-- CHAIN_CATCHUP&#45;&gt;follow2catch -->
<g id="edge11" class="edge">
<title>CHAIN_CATCHUP&#45;&gt;follow2catch</title>
<path fill="none" stroke="red" d="M159.07,-135.64C166.13,-126.49 173.93,-116.38 180.31,-108.1"/>
<polygon fill="red" stroke="red" points="156.19,-133.64 152.86,-143.7 161.73,-137.92 156.19,-133.64"/>
</g>
<!-- CHAIN_FOLLOW -->
<g id="node5" class="node">
<title>CHAIN_FOLLOW</title>
<polygon fill="#43cd80" stroke="#43cd80" points="149.16,-36 23.85,-36 23.85,0 149.16,0 149.16,-36"/>
<text text-anchor="middle" x="86.51" y="-13.8" font-family="monospace" font-size="14.00">CHAIN_FOLLOW</text>
</g>
<!-- init2boot&#45;&gt;BOOTSTRAP -->
<g id="edge6" class="edge">
<title>init2boot&#45;&gt;BOOTSTRAP</title>
<path fill="none" stroke="black" d="M139.51,-503.7C139.51,-495.98 139.51,-486.71 139.51,-478.11"/>
<polygon fill="black" stroke="black" points="143.01,-478.1 139.51,-468.1 136.01,-478.1 143.01,-478.1"/>
</g>
<!-- boot2check&#45;&gt;SYNC_CHECKPOINT -->
<g id="edge7" class="edge">
<title>boot2check&#45;&gt;SYNC_CHECKPOINT</title>
<path fill="none" stroke="black" d="M97.84,-359.7C94.32,-351.73 90.05,-342.1 86.14,-333.26"/>
<polygon fill="black" stroke="black" points="89.33,-331.83 82.08,-324.1 82.93,-334.67 89.33,-331.83"/>
</g>
<!-- boot2catch&#45;&gt;CHAIN_CATCHUP -->
<g id="edge8" class="edge">
<title>boot2catch&#45;&gt;CHAIN_CATCHUP</title>
<path fill="none" stroke="black" d="M197.55,-287.87C186.15,-263.35 165.09,-218.03 151.71,-189.26"/>
<polygon fill="black" stroke="black" points="154.89,-187.78 147.5,-180.19 148.54,-190.73 154.89,-187.78"/>
</g>
<!-- check2catch&#45;&gt;CHAIN_CATCHUP -->
<g id="edge9" class="edge">
<title>check2catch&#45;&gt;CHAIN_CATCHUP</title>
<path fill="none" stroke="black" d="M113.16,-215.7C117.14,-207.73 121.96,-198.1 126.37,-189.26"/>
<polygon fill="black" stroke="black" points="129.61,-190.61 130.95,-180.1 123.35,-187.48 129.61,-190.61"/>
</g>
<!-- catch2follow&#45;&gt;CHAIN_FOLLOW -->
<g id="edge10" class="edge">
<title>catch2follow&#45;&gt;CHAIN_FOLLOW</title>
<path fill="none" stroke="black" d="M86.51,-71.7C86.51,-63.98 86.51,-54.71 86.51,-46.11"/>
<polygon fill="black" stroke="black" points="90.01,-46.1 86.51,-36.1 83.01,-46.1 90.01,-46.1"/>
</g>
<!-- follow2catch&#45;&gt;CHAIN_FOLLOW -->
<g id="edge13" class="edge">
<title>follow2catch&#45;&gt;CHAIN_FOLLOW</title>
<path fill="none" stroke="red" d="M167.33,-71.88C150.75,-61.03 129.38,-47.05 112.78,-36.19"/>
</g>
</g>
</svg>
