<?xml version="1.0" encoding="UTF-8" standalone="no"?>
<!DOCTYPE svg PUBLIC "-//W3C//DTD SVG 1.1//EN"
 "http://www.w3.org/Graphics/SVG/1.1/DTD/svg11.dtd">
<!-- Generated by graphviz version 5.0.0 (20220707.1540)
 -->
<!-- Title: G Pages: 1 -->
<svg width="287pt" height="110pt"
 viewBox="0.00 0.00 287.41 109.60" xmlns="http://www.w3.org/2000/svg" xmlns:xlink="http://www.w3.org/1999/xlink">
<g id="graph0" class="graph" transform="scale(1 1) rotate(0) translate(4 105.6)">
<title>G</title>
<polygon fill="white" stroke="transparent" points="-4,4 -4,-105.6 283.41,-105.6 283.41,4 -4,4"/>
<!-- B1 -->
<g id="node1" class="node">
<title>B1</title>
<polygon fill="#00cd00" stroke="#00cd00" points="74.49,-71.4 -0.16,-71.4 -0.16,-30.2 74.49,-30.2 74.49,-71.4"/>
<text text-anchor="middle" x="37.16" y="-55" font-family="Times,serif" font-size="14.00">B1</text>
<text text-anchor="middle" x="37.16" y="-38.2" font-family="Times,serif" font-size="14.00">MinerAny</text>
</g>
<!-- B2 -->
<g id="node2" class="node">
<title>B2</title>
<polygon fill="#00cd00" stroke="#00cd00" points="184.81,-101.4 110.16,-101.4 110.16,-60.2 184.81,-60.2 184.81,-101.4"/>
<text text-anchor="middle" x="147.49" y="-85" font-family="Times,serif" font-size="14.00">B2</text>
<text text-anchor="middle" x="147.49" y="-68.2" font-family="Times,serif" font-size="14.00">MinerAny</text>
</g>
<!-- B2&#45;&gt;B1 -->
<g id="edge2" class="edge">
<title>B2&#45;&gt;B1</title>
<path fill="none" stroke="black" d="M110.11,-70.73C101.9,-68.45 93.07,-66.01 84.5,-63.63"/>
<polygon fill="black" stroke="black" points="85.19,-60.19 74.62,-60.9 83.33,-66.94 85.19,-60.19"/>
</g>
<!-- B3 -->
<g id="node3" class="node">
<title>B3</title>
<polygon fill="#00cd00" stroke="#00cd00" points="184.81,-41.4 110.16,-41.4 110.16,-0.2 184.81,-0.2 184.81,-41.4"/>
<text text-anchor="middle" x="147.49" y="-25" font-family="Times,serif" font-size="14.00">B3</text>
<text text-anchor="middle" x="147.49" y="-8.2" font-family="Times,serif" font-size="14.00">MinerAny</text>
</g>
<!-- B3&#45;&gt;B1 -->
<g id="edge4" class="edge">
<title>B3&#45;&gt;B1</title>
<path fill="none" stroke="black" d="M110.11,-30.87C101.9,-33.15 93.07,-35.59 84.5,-37.97"/>
<polygon fill="black" stroke="black" points="83.33,-34.66 74.62,-40.7 85.19,-41.41 83.33,-34.66"/>
</g>
<!-- B4 -->
<g id="node4" class="node">
<title>B4</title>
<polygon fill="pink" stroke="pink" points="279.3,-101.4 220.77,-101.4 220.77,-60.2 279.3,-60.2 279.3,-101.4"/>
<text text-anchor="middle" x="250.03" y="-85" font-family="Times,serif" font-size="14.00">B4</text>
<text text-anchor="middle" x="250.03" y="-68.2" font-family="Times,serif" font-size="14.00">MinerE</text>
</g>
<!-- B4&#45;&gt;B2 -->
<g id="edge1" class="edge">
<title>B4&#45;&gt;B2</title>
<path fill="none" stroke="black" d="M220.76,-80.8C212.74,-80.8 203.8,-80.8 195.01,-80.8"/>
<polygon fill="black" stroke="black" points="194.82,-77.3 184.82,-80.8 194.82,-84.3 194.82,-77.3"/>
</g>
<!-- B5 -->
<g id="node5" class="node">
<title>B5</title>
<polygon fill="pink" stroke="pink" points="279.3,-41.4 220.77,-41.4 220.77,-0.2 279.3,-0.2 279.3,-41.4"/>
<text text-anchor="middle" x="250.03" y="-25" font-family="Times,serif" font-size="14.00">B5</text>
<text text-anchor="middle" x="250.03" y="-8.2" font-family="Times,serif" font-size="14.00">MinerE</text>
</g>
<!-- B5&#45;&gt;B3 -->
<g id="edge3" class="edge">
<title>B5&#45;&gt;B3</title>
<path fill="none" stroke="black" d="M220.76,-20.8C212.74,-20.8 203.8,-20.8 195.01,-20.8"/>
<polygon fill="black" stroke="black" points="194.82,-17.3 184.82,-20.8 194.82,-24.3 194.82,-17.3"/>
</g>
</g>
</svg>
