<?xml version="1.0" encoding="UTF-8" standalone="no"?>
<!DOCTYPE svg PUBLIC "-//W3C//DTD SVG 1.1//EN"
 "http://www.w3.org/Graphics/SVG/1.1/DTD/svg11.dtd">
<!-- Generated by graphviz version 5.0.0 (20220707.1540)
 -->
<!-- Title: G Pages: 1 -->
<svg width="398pt" height="110pt"
 viewBox="0.00 0.00 397.74 109.60" xmlns="http://www.w3.org/2000/svg" xmlns:xlink="http://www.w3.org/1999/xlink">
<g id="graph0" class="graph" transform="scale(1 1) rotate(0) translate(4 105.6)">
<title>G</title>
<polygon fill="white" stroke="transparent" points="-4,4 -4,-105.6 393.74,-105.6 393.74,4 -4,4"/>
<!-- B1 -->
<g id="node1" class="node">
<title>B1</title>
<polygon fill="#00cd00" stroke="#00cd00" points="74.49,-71.4 -0.16,-71.4 -0.16,-30.2 74.49,-30.2 74.49,-71.4"/>
<text text-anchor="middle" x="37.16" y="-55" font-family="Times,serif" font-size="14.00">B1</text>
<text text-anchor="middle" x="37.16" y="-38.2" font-family="Times,serif" font-size="14.00">MinerAny</text>
</g>
<!-- B2 -->
<g id="node2" class="node">
<title>B2</title>
<polygon fill="#00cd00" stroke="#00cd00" points="184.81,-101.4 110.16,-101.4 110.16,-60.2 184.81,-60.2 184.81,-101.4"/>
<text text-anchor="middle" x="147.49" y="-85" font-family="Times,serif" font-size="14.00">B2</text>
<text text-anchor="middle" x="147.49" y="-68.2" font-family="Times,serif" font-size="14.00">MinerAny</text>
</g>
<!-- B2&#45;&gt;B1 -->
<g id="edge3" class="edge">
<title>B2&#45;&gt;B1</title>
<path fill="none" stroke="black" d="M110.11,-70.73C101.9,-68.45 93.07,-66.01 84.5,-63.63"/>
<polygon fill="black" stroke="black" points="85.19,-60.19 74.62,-60.9 83.33,-66.94 85.19,-60.19"/>
</g>
<!-- B3 -->
<g id="node3" class="node">
<title>B3</title>
<polygon fill="pink" stroke="pink" points="176.75,-41.4 118.22,-41.4 118.22,-0.2 176.75,-0.2 176.75,-41.4"/>
<text text-anchor="middle" x="147.49" y="-25" font-family="Times,serif" font-size="14.00">B3</text>
<text text-anchor="middle" x="147.49" y="-8.2" font-family="Times,serif" font-size="14.00">MinerE</text>
</g>
<!-- B3&#45;&gt;B1 -->
<g id="edge4" class="edge">
<title>B3&#45;&gt;B1</title>
<path fill="none" stroke="black" d="M118.03,-28.68C107.75,-31.53 95.86,-34.82 84.45,-37.98"/>
<polygon fill="black" stroke="black" points="83.3,-34.67 74.6,-40.71 85.17,-41.41 83.3,-34.67"/>
</g>
<!-- B4 -->
<g id="node4" class="node">
<title>B4</title>
<polygon fill="pink" stroke="pink" points="389.62,-101.4 331.09,-101.4 331.09,-60.2 389.62,-60.2 389.62,-101.4"/>
<text text-anchor="middle" x="360.36" y="-85" font-family="Times,serif" font-size="14.00">B4</text>
<text text-anchor="middle" x="360.36" y="-68.2" font-family="Times,serif" font-size="14.00">MinerE</text>
</g>
<!-- B4Null -->
<g id="node6" class="node">
<title>B4Null</title>
<polygon fill="none" stroke="gray" stroke-dasharray="5,2" points="284.81,-98.8 230.81,-98.8 230.81,-62.8 284.81,-62.8 284.81,-98.8"/>
</g>
<!-- B4&#45;&gt;B4Null -->
<g id="edge1" class="edge">
<title>B4&#45;&gt;B4Null</title>
<path fill="none" stroke="black" d="M331.08,-80.8C319.94,-80.8 307,-80.8 295.18,-80.8"/>
<polygon fill="black" stroke="black" points="295.15,-77.3 285.15,-80.8 295.15,-84.3 295.15,-77.3"/>
</g>
<!-- B5 -->
<g id="node5" class="node">
<title>B5</title>
<polygon fill="#00cd00" stroke="#00cd00" points="295.14,-43.4 220.49,-43.4 220.49,-2.2 295.14,-2.2 295.14,-43.4"/>
<text text-anchor="middle" x="257.81" y="-27" font-family="Times,serif" font-size="14.00">B5</text>
<text text-anchor="middle" x="257.81" y="-10.2" font-family="Times,serif" font-size="14.00">MinerAny</text>
</g>
<!-- B5&#45;&gt;B2 -->
<g id="edge6" class="edge">
<title>B5&#45;&gt;B2</title>
<path fill="none" stroke="black" d="M220.44,-42.27C211.95,-46.82 202.81,-51.71 193.99,-56.44"/>
<polygon fill="black" stroke="black" points="192.11,-53.47 184.95,-61.28 195.41,-59.64 192.11,-53.47"/>
</g>
<!-- B5&#45;&gt;B3 -->
<g id="edge5" class="edge">
<title>B5&#45;&gt;B3</title>
<path fill="none" stroke="black" d="M220.44,-22.13C209.73,-21.93 197.97,-21.71 187.12,-21.51"/>
<polygon fill="black" stroke="black" points="187.12,-18.01 177.06,-21.33 186.99,-25.01 187.12,-18.01"/>
</g>
<!-- B4Null&#45;&gt;B2 -->
<g id="edge2" class="edge">
<title>B4Null&#45;&gt;B2</title>
<path fill="none" stroke="black" d="M230.59,-80.8C219.83,-80.8 207.04,-80.8 194.8,-80.8"/>
<polygon fill="black" stroke="black" points="194.7,-77.3 184.7,-80.8 194.7,-84.3 194.7,-77.3"/>
</g>
</g>
</svg>
