<?xml version="1.0" encoding="UTF-8" standalone="no"?>
<!DOCTYPE svg PUBLIC "-//W3C//DTD SVG 1.1//EN"
 "http://www.w3.org/Graphics/SVG/1.1/DTD/svg11.dtd">
<!-- Generated by graphviz version 5.0.0 (20220707.1540)
 -->
<!-- Title: G Pages: 1 -->
<svg width="382pt" height="74pt"
 viewBox="0.00 0.00 382.18 73.60" xmlns="http://www.w3.org/2000/svg" xmlns:xlink="http://www.w3.org/1999/xlink">
<g id="graph0" class="graph" transform="scale(1 1) rotate(0) translate(4 69.6)">
<title>G</title>
<polygon fill="white" stroke="transparent" points="-4,4 -4,-69.6 378.18,-69.6 378.18,4 -4,4"/>
<!-- B1 -->
<g id="node1" class="node">
<title>B1</title>
<polygon fill="#00cd00" stroke="#00cd00" points="74.49,-65.4 -0.16,-65.4 -0.16,-24.2 74.49,-24.2 74.49,-65.4"/>
<text text-anchor="middle" x="37.16" y="-49" font-family="Times,serif" font-size="14.00">B1</text>
<text text-anchor="middle" x="37.16" y="-32.2" font-family="Times,serif" font-size="14.00">MinerAny</text>
</g>
<!-- B2 -->
<g id="node2" class="node">
<title>B2</title>
<polygon fill="#00cd00" stroke="#00cd00" points="184.81,-65.4 110.16,-65.4 110.16,-24.2 184.81,-24.2 184.81,-65.4"/>
<text text-anchor="middle" x="147.49" y="-49" font-family="Times,serif" font-size="14.00">B2</text>
<text text-anchor="middle" x="147.49" y="-32.2" font-family="Times,serif" font-size="14.00">MinerAny</text>
</g>
<!-- B2&#45;&gt;B1 -->
<g id="edge1" class="edge">
<title>B2&#45;&gt;B1</title>
<path fill="none" stroke="black" d="M110.11,-44.8C101.99,-44.8 93.26,-44.8 84.78,-44.8"/>
<polygon fill="black" stroke="black" points="84.62,-41.3 74.62,-44.8 84.62,-48.3 84.62,-41.3"/>
</g>
<!-- B3 -->
<g id="node3" class="node">
<title>B3</title>
<polygon fill="pink" stroke="pink" points="279.3,-41.4 220.77,-41.4 220.77,-0.2 279.3,-0.2 279.3,-41.4"/>
<text text-anchor="middle" x="250.03" y="-25" font-family="Times,serif" font-size="14.00">B3</text>
<text text-anchor="middle" x="250.03" y="-8.2" font-family="Times,serif" font-size="14.00">MinerE</text>
</g>
<!-- B3&#45;&gt;B2 -->
<g id="edge2" class="edge">
<title>B3&#45;&gt;B2</title>
<path fill="none" stroke="black" d="M220.76,-27.55C212.65,-29.48 203.6,-31.64 194.72,-33.76"/>
<polygon fill="black" stroke="black" points="193.73,-30.4 184.82,-36.13 195.36,-37.21 193.73,-30.4"/>
</g>
<!-- B4 -->
<g id="node4" class="node">
<title>B4</title>
<polygon fill="pink" stroke="pink" points="374.06,-65.4 315.53,-65.4 315.53,-24.2 374.06,-24.2 374.06,-65.4"/>
<text text-anchor="middle" x="344.8" y="-49" font-family="Times,serif" font-size="14.00">B4</text>
<text text-anchor="middle" x="344.8" y="-32.2" font-family="Times,serif" font-size="14.00">MinerE</text>
</g>
<!-- B4&#45;&gt;B2 -->
<g id="edge3" class="edge">
<title>B4&#45;&gt;B2</title>
<path fill="none" stroke="black" d="M315.31,-48.03C304.14,-49.14 291.19,-50.25 279.41,-50.8 253.32,-52.01 246.74,-51.88 220.65,-50.8 212.34,-50.46 203.52,-49.89 194.99,-49.24"/>
<polygon fill="black" stroke="black" points="195.04,-45.73 184.79,-48.41 194.47,-52.71 195.04,-45.73"/>
</g>
<!-- B4&#45;&gt;B3 -->
</g>
</svg>
