<?xml version="1.0" encoding="UTF-8" standalone="no"?>
<!DOCTYPE svg PUBLIC "-//W3C//DTD SVG 1.1//EN"
 "http://www.w3.org/Graphics/SVG/1.1/DTD/svg11.dtd">
<!-- Generated by graphviz version 2.40.1 (20161225.0304)
 -->
<!-- Title: Filecoin Pages: 1 -->
<svg width="1500pt" height="1462pt"
 viewBox="0.00 0.00 1500.00 1462.42" xmlns="http://www.w3.org/2000/svg" xmlns:xlink="http://www.w3.org/1999/xlink">
<g id="graph0" class="graph" transform="scale(1 1) rotate(0) translate(4 1458.4242)">
<title>Filecoin</title>
<polygon fill="#ffffff" stroke="transparent" points="-4,4 -4,-1458.4242 1496,-1458.4242 1496,4 -4,4"/>
<g id="clust1" class="cluster">
<title>cluster_blockchain_subgroup</title>
<polygon fill="#e0ffff" stroke="#e0ffff" points="603,-515.5232 603,-1037.0403 972,-1037.0403 972,-515.5232 603,-515.5232"/>
</g>
<g id="clust2" class="cluster">
<title>cluster_blockchain</title>
<polygon fill="#d3d3d3" stroke="#d3d3d3" points="611,-850.4512 611,-1004.772 791,-1004.772 791,-850.4512 611,-850.4512"/>
<text text-anchor="middle" x="701" y="-989.572" font-family="Times,serif" font-size="14.00" fill="#000000">Blockchain</text>
</g>
<g id="clust4" class="cluster">
<title>cluster_vm</title>
<polygon fill="#d3d3d3" stroke="#d3d3d3" points="747,-629.7915 747,-833.4512 964,-833.4512 964,-629.7915 747,-629.7915"/>
<text text-anchor="middle" x="855.5" y="-818.2512" font-family="Times,serif" font-size="14.00" fill="#000000">Filecoin VM</text>
</g>
<g id="clust7" class="cluster">
<title>cluster_messagepool</title>
<polygon fill="#d3d3d3" stroke="#d3d3d3" points="611,-523.5232 611,-717.3447 739,-717.3447 739,-523.5232 611,-523.5232"/>
<text text-anchor="middle" x="675" y="-702.1447" font-family="Times,serif" font-size="14.00" fill="#000000">Message Pool</text>
</g>
<g id="clust9" class="cluster">
<title>cluster_storagepowerconsensus</title>
<polygon fill="#d3d3d3" stroke="#d3d3d3" points="803,-850.4512 803,-1029.0403 964,-1029.0403 964,-850.4512 803,-850.4512"/>
<text text-anchor="middle" x="883.5" y="-1013.8403" font-family="Times,serif" font-size="14.00" fill="#000000">Storage Power Consensus</text>
</g>
<g id="clust12" class="cluster">
<title>cluster_markets</title>
<polygon fill="#e6e6fa" stroke="#e6e6fa" points="8,-902.4512 8,-1298.8875 524,-1298.8875 524,-902.4512 8,-902.4512"/>
</g>
<g id="clust13" class="cluster">
<title>cluster_storagemarket</title>
<polygon fill="#d3d3d3" stroke="#d3d3d3" points="16,-1064.9749 16,-1290.8875 254,-1290.8875 254,-1064.9749 16,-1064.9749"/>
<text text-anchor="middle" x="135" y="-1275.6875" font-family="Times,serif" font-size="14.00" fill="#000000">Storage Market</text>
</g>
<g id="clust18" class="cluster">
<title>cluster_retrievalmarket</title>
<polygon fill="#d3d3d3" stroke="#d3d3d3" points="262,-1063.0403 262,-1168.3509 516,-1168.3509 516,-1063.0403 262,-1063.0403"/>
<text text-anchor="middle" x="389" y="-1153.1509" font-family="Times,serif" font-size="14.00" fill="#000000">Retrieval Market</text>
</g>
<g id="clust21" class="cluster">
<title>cluster_datatransfers</title>
<polygon fill="#d3d3d3" stroke="#d3d3d3" points="190,-910.4512 190,-1025.0928 510,-1025.0928 510,-910.4512 190,-910.4512"/>
<text text-anchor="middle" x="350" y="-1009.8928" font-family="Times,serif" font-size="14.00" fill="#000000">Data Transfers</text>
</g>
<g id="clust24" class="cluster">
<title>cluster_storageminerprocess</title>
<polygon fill="#bfefff" stroke="#bfefff" points="532,-1070.6956 532,-1446.4242 1101,-1446.4242 1101,-1070.6956 532,-1070.6956"/>
</g>
<g id="clust25" class="cluster">
<title>cluster_storagemining</title>
<polygon fill="#d3d3d3" stroke="#d3d3d3" points="648,-1315.8875 648,-1438.4242 896,-1438.4242 896,-1315.8875 648,-1315.8875"/>
<text text-anchor="middle" x="772" y="-1423.2242" font-family="Times,serif" font-size="14.00" fill="#000000">Storage Mining</text>
</g>
<g id="clust28" class="cluster">
<title>cluster_sectorindexer</title>
<polygon fill="#d3d3d3" stroke="#d3d3d3" points="540,-1078.6956 540,-1152.6956 756,-1152.6956 756,-1078.6956 540,-1078.6956"/>
<text text-anchor="middle" x="648" y="-1137.4956" font-family="Times,serif" font-size="14.00" fill="#000000">Sector Indexer</text>
</g>
<g id="clust30" class="cluster">
<title>cluster_filproofs_subsystem</title>
<polygon fill="#d3d3d3" stroke="#d3d3d3" points="764,-1078.6956 764,-1152.6956 1093,-1152.6956 1093,-1078.6956 764,-1078.6956"/>
<text text-anchor="middle" x="928.5" y="-1137.4956" font-family="Times,serif" font-size="14.00" fill="#000000">Storage Proofs</text>
</g>
<g id="clust32" class="cluster">
<title>cluster_systems</title>
<polygon fill="none" stroke="#000000" points="996,-112 996,-732.3447 1484,-732.3447 1484,-112 996,-112"/>
</g>
<g id="clust33" class="cluster">
<title>cluster_clock</title>
<polygon fill="#d3d3d3" stroke="#d3d3d3" points="1172,-308.1484 1172,-491.2549 1476,-491.2549 1476,-308.1484 1172,-308.1484"/>
<text text-anchor="middle" x="1324" y="-476.0549" font-family="Times,serif" font-size="14.00" fill="#000000">Clock</text>
</g>
<g id="clust37" class="cluster">
<title>cluster_repository</title>
<polygon fill="#d3d3d3" stroke="#d3d3d3" points="1004,-120 1004,-279.8242 1283,-279.8242 1283,-120 1004,-120"/>
<text text-anchor="middle" x="1143.5" y="-264.6242" font-family="Times,serif" font-size="14.00" fill="#000000">Repository</text>
</g>
<g id="clust39" class="cluster">
<title>cluster_filproofs_lib</title>
<polygon fill="#d3d3d3" stroke="#d3d3d3" points="1208,-523.5232 1208,-724.3447 1476,-724.3447 1476,-523.5232 1208,-523.5232"/>
<text text-anchor="middle" x="1342" y="-709.1447" font-family="Times,serif" font-size="14.00" fill="#000000">Filecoin Proofs</text>
</g>
<g id="clust41" class="cluster">
<title>cluster_payments</title>
<polygon fill="#d3d3d3" stroke="#d3d3d3" points="1004,-499.2549 1004,-621.7915 1200,-621.7915 1200,-499.2549 1004,-499.2549"/>
<text text-anchor="middle" x="1102" y="-606.5915" font-family="Times,serif" font-size="14.00" fill="#000000">Payments</text>
</g>
<g id="clust44" class="cluster">
<title>cluster_net</title>
<polygon fill="#e0ffff" stroke="#e0ffff" points="417,-8 417,-390.1484 869,-390.1484 869,-8 417,-8"/>
</g>
<g id="clust45" class="cluster">
<title>cluster_network</title>
<polygon fill="#d3d3d3" stroke="#d3d3d3" points="676,-308.1484 676,-382.1484 840,-382.1484 840,-308.1484 676,-308.1484"/>
<text text-anchor="middle" x="758" y="-366.9484" font-family="Times,serif" font-size="14.00" fill="#000000">Network Interface</text>
</g>
<g id="clust48" class="cluster">
<title>cluster_ipfs</title>
<polygon fill="#d3d3d3" stroke="#d3d3d3" points="425,-185.5 425,-300.1484 597,-300.1484 597,-185.5 425,-185.5"/>
<text text-anchor="middle" x="511" y="-284.9484" font-family="Times,serif" font-size="14.00" fill="#000000">IPFS</text>
</g>
<g id="clust50" class="cluster">
<title>cluster_libp2p</title>
<polygon fill="#d3d3d3" stroke="#d3d3d3" points="605,-16 605,-298.9966 861,-298.9966 861,-16 605,-16"/>
<text text-anchor="middle" x="733" y="-283.7966" font-family="Times,serif" font-size="14.00" fill="#000000">libp2p</text>
</g>
<!-- Chain -->
<g id="node1" class="node">
<title>Chain</title>
<polygon fill="none" stroke="#000000" points="783,-974.772 729,-974.772 729,-938.772 783,-938.772 783,-974.772"/>
<text text-anchor="middle" x="756" y="-952.572" font-family="Times,serif" font-size="14.00" fill="#000000">Chain</text>
</g>
<!-- Block Producer -->
<g id="node3" class="node">
<title>Block Producer</title>
<polygon fill="none" stroke="#000000" points="743.9806,-894.4512 640.0194,-894.4512 640.0194,-858.4512 743.9806,-858.4512 743.9806,-894.4512"/>
<text text-anchor="middle" x="692" y="-872.2512" font-family="Times,serif" font-size="14.00" fill="#000000">Block Producer</text>
</g>
<!-- Chain&#45;&gt;Block Producer -->
<!-- VM Interpreter -->
<g id="node4" class="node">
<title>VM Interpreter</title>
<polygon fill="none" stroke="#000000" points="955.628,-789.898 854.372,-789.898 854.372,-753.898 955.628,-753.898 955.628,-789.898"/>
<text text-anchor="middle" x="905" y="-767.698" font-family="Times,serif" font-size="14.00" fill="#000000">VM Interpreter</text>
</g>
<!-- Chain&#45;&gt;VM Interpreter -->
<g id="edge26" class="edge">
<title>Chain&#45;&gt;VM Interpreter</title>
<path fill="none" stroke="#000000" d="M790.9989,-859.2695C793.4905,-856.1492 796.1538,-853.1932 799,-850.4512 812.2476,-837.6882 823.0171,-842.7133 836.9021,-837.9378"/>
<polygon fill="#000000" stroke="#000000" points="838.5793,-841.0132 846,-833.4512 835.4832,-834.735 838.5793,-841.0132"/>
</g>
<!-- IPLD DagStore -->
<g id="node35" class="node">
<title>IPLD DagStore</title>
<polygon fill="none" stroke="#000000" points="1115.9875,-249.8242 1012.0125,-249.8242 1012.0125,-213.8242 1115.9875,-213.8242 1115.9875,-249.8242"/>
<text text-anchor="middle" x="1064" y="-227.6242" font-family="Times,serif" font-size="14.00" fill="#000000">IPLD DagStore</text>
</g>
<!-- Chain&#45;&gt;IPLD DagStore -->
<g id="edge33" class="edge">
<title>Chain&#45;&gt;IPLD DagStore</title>
<path fill="none" stroke="#000000" d="M790.9968,-907.4958C793.5394,-905.5891 796.2085,-903.8841 799,-902.4512 815.7241,-893.8662 953.1622,-905.9939 968,-894.4512 987.2531,-879.4735 984,-866.344 984,-841.9512 984,-841.9512 984,-841.9512 984,-429.7016 984,-379.5123 1006.3943,-327.04 1027.486,-288.75"/>
<polygon fill="#000000" stroke="#000000" points="1030.6569,-290.2524 1032.5214,-279.8229 1024.5599,-286.8134 1030.6569,-290.2524"/>
</g>
<!-- Block Syncer -->
<g id="node2" class="node">
<title>Block Syncer</title>
<polygon fill="none" stroke="#000000" points="710.8176,-974.772 619.1824,-974.772 619.1824,-938.772 710.8176,-938.772 710.8176,-974.772"/>
<text text-anchor="middle" x="665" y="-952.572" font-family="Times,serif" font-size="14.00" fill="#000000">Block Syncer</text>
</g>
<!-- Gossipsub -->
<g id="node51" class="node">
<title>Gossipsub</title>
<polygon fill="none" stroke="#000000" points="775.3455,-269.1697 700.6545,-269.1697 700.6545,-194.4787 775.3455,-194.4787 775.3455,-269.1697"/>
<polyline fill="none" stroke="#000000" points="712.6545,-269.1697 700.6545,-257.1697 "/>
<polyline fill="none" stroke="#000000" points="700.6545,-206.4787 712.6545,-194.4787 "/>
<polyline fill="none" stroke="#000000" points="763.3455,-194.4787 775.3455,-206.4787 "/>
<polyline fill="none" stroke="#000000" points="775.3455,-257.1697 763.3455,-269.1697 "/>
<text text-anchor="middle" x="738" y="-227.6242" font-family="Times,serif" font-size="14.00" fill="#000000">Gossipsub</text>
</g>
<!-- Block Syncer&#45;&gt;Gossipsub -->
<g id="edge37" class="edge">
<title>Block Syncer&#45;&gt;Gossipsub</title>
<path fill="none" stroke="#000000" d="M611.0039,-899.9605C599.6341,-882.6566 591,-862.6891 591,-841.9512 591,-841.9512 591,-841.9512 591,-429.7016 591,-371.1155 595.9372,-344.35 642,-308.1484 656.9295,-296.4151 668.7592,-307.4112 684.5288,-303.1643"/>
<polygon fill="#000000" stroke="#000000" points="686.0725,-306.3075 693.7398,-298.9956 683.1862,-299.9302 686.0725,-306.3075"/>
</g>
<!-- Message Storage -->
<g id="node8" class="node">
<title>Message Storage</title>
<polygon fill="none" stroke="#000000" points="730.7522,-687.3447 619.2478,-687.3447 619.2478,-651.3447 730.7522,-651.3447 730.7522,-687.3447"/>
<text text-anchor="middle" x="675" y="-665.1447" font-family="Times,serif" font-size="14.00" fill="#000000">Message Storage</text>
</g>
<!-- Block Producer&#45;&gt;Message Storage -->
<g id="edge41" class="edge">
<title>Block Producer&#45;&gt;Message Storage</title>
<path fill="none" stroke="#000000" d="M690.5211,-858.4341C688.1486,-829.5303 683.3907,-771.5668 679.7648,-727.3933"/>
<polygon fill="#000000" stroke="#000000" points="683.2462,-727.0221 678.9398,-717.3419 676.2697,-727.5948 683.2462,-727.0221"/>
</g>
<!-- Messages -->
<g id="node5" class="node">
<title>Messages</title>
<polygon fill="none" stroke="#000000" points="949.4359,-687.3447 878.5641,-687.3447 878.5641,-651.3447 949.4359,-651.3447 949.4359,-687.3447"/>
<text text-anchor="middle" x="914" y="-665.1447" font-family="Times,serif" font-size="14.00" fill="#000000">Messages</text>
</g>
<!-- VM Interpreter&#45;&gt;Messages -->
<!-- Init Actor -->
<g id="node6" class="node">
<title>Init Actor</title>
<polygon fill="none" stroke="#000000" points="832.7718,-760.4658 832.7718,-783.3301 811.2314,-799.4977 780.7686,-799.4977 759.2282,-783.3301 759.2282,-760.4658 780.7686,-744.2982 811.2314,-744.2982 832.7718,-760.4658"/>
<polygon fill="none" stroke="#000000" points="836.7859,-758.4655 836.7859,-785.3304 812.5722,-803.5045 779.4278,-803.5045 755.2141,-785.3304 755.2141,-758.4655 779.4278,-740.2914 812.5722,-740.2914 836.7859,-758.4655"/>
<text text-anchor="middle" x="796" y="-774.698" font-family="Times,serif" font-size="14.00" fill="#000000">Init</text>
<text text-anchor="middle" x="796" y="-760.698" font-family="Times,serif" font-size="14.00" fill="#000000">Actor</text>
</g>
<!-- Account Actor -->
<g id="node7" class="node">
<title>Account Actor</title>
<polygon fill="none" stroke="#000000" points="856.5875,-657.9126 856.5875,-680.7769 828.1256,-696.9445 787.8744,-696.9445 759.4125,-680.7769 759.4125,-657.9126 787.8744,-641.745 828.1256,-641.745 856.5875,-657.9126"/>
<polygon fill="none" stroke="#000000" points="860.591,-655.5795 860.591,-683.1099 829.1826,-700.9512 786.8174,-700.9512 755.409,-683.1099 755.409,-655.5795 786.8174,-637.7382 829.1826,-637.7382 860.591,-655.5795"/>
<text text-anchor="middle" x="808" y="-672.1447" font-family="Times,serif" font-size="14.00" fill="#000000">Account</text>
<text text-anchor="middle" x="808" y="-658.1447" font-family="Times,serif" font-size="14.00" fill="#000000">Actor</text>
</g>
<!-- Init Actor&#45;&gt;Account Actor -->
<!-- Message Syncer -->
<g id="node9" class="node">
<title>Message Syncer</title>
<polygon fill="none" stroke="#000000" points="728.8629,-567.5232 621.1371,-567.5232 621.1371,-531.5232 728.8629,-531.5232 728.8629,-567.5232"/>
<text text-anchor="middle" x="675" y="-545.3232" font-family="Times,serif" font-size="14.00" fill="#000000">Message Syncer</text>
</g>
<!-- Message Storage&#45;&gt;Message Syncer -->
<!-- Filecoin Network Node -->
<g id="node44" class="node">
<title>Filecoin Network Node</title>
<polygon fill="none" stroke="#000000" points="832.1935,-352.1484 683.8065,-352.1484 683.8065,-316.1484 832.1935,-316.1484 832.1935,-352.1484"/>
<text text-anchor="middle" x="758" y="-329.9484" font-family="Times,serif" font-size="14.00" fill="#000000">Filecoin Network Node</text>
</g>
<!-- Message Syncer&#45;&gt;Filecoin Network Node -->
<!-- Message Syncer&#45;&gt;Gossipsub -->
<g id="edge38" class="edge">
<title>Message Syncer&#45;&gt;Gossipsub</title>
<path fill="none" stroke="#000000" d="M665.827,-523.5244C650.8691,-476.1171 627.136,-374.414 672,-308.1484 675.3545,-303.1937 679.419,-303.657 684.1554,-302.9509"/>
<polygon fill="#000000" stroke="#000000" points="685.5829,-306.1472 693.3984,-298.9939 682.8279,-299.712 685.5829,-306.1472"/>
</g>
<!-- Expected Consensus -->
<g id="node10" class="node">
<title>Expected Consensus</title>
<polygon fill="none" stroke="#000000" points="955.9804,-894.4512 824.0196,-894.4512 824.0196,-858.4512 955.9804,-858.4512 955.9804,-894.4512"/>
<text text-anchor="middle" x="890" y="-872.2512" font-family="Times,serif" font-size="14.00" fill="#000000">Expected Consensus</text>
</g>
<!-- Storage Power Actor -->
<g id="node11" class="node">
<title>Storage Power Actor</title>
<polygon fill="none" stroke="#000000" points="942.9564,-941.0071 942.9564,-972.5368 916.6215,-994.8317 879.3785,-994.8317 853.0436,-972.5368 853.0436,-941.0071 879.3785,-918.7122 916.6215,-918.7122 942.9564,-941.0071"/>
<polygon fill="none" stroke="#000000" points="946.9545,-939.1686 946.9545,-974.3753 918.0923,-998.8099 877.9077,-998.8099 849.0455,-974.3753 849.0455,-939.1686 877.9077,-914.734 918.0923,-914.734 946.9545,-939.1686"/>
<text text-anchor="middle" x="898" y="-966.572" font-family="Times,serif" font-size="14.00" fill="#000000">Storage</text>
<text text-anchor="middle" x="898" y="-952.572" font-family="Times,serif" font-size="14.00" fill="#000000">Power</text>
<text text-anchor="middle" x="898" y="-938.572" font-family="Times,serif" font-size="14.00" fill="#000000">Actor</text>
</g>
<!-- Storage Power Actor&#45;&gt;Expected Consensus -->
<!-- Storage Provider -->
<g id="node12" class="node">
<title>Storage Provider</title>
<polygon fill="none" stroke="#000000" points="246.2142,-1122.6956 181.7858,-1122.6956 181.7858,-1086.6956 246.2142,-1086.6956 246.2142,-1122.6956"/>
<text text-anchor="middle" x="214" y="-1107.4956" font-family="Times,serif" font-size="14.00" fill="#000000">Storage</text>
<text text-anchor="middle" x="214" y="-1093.4956" font-family="Times,serif" font-size="14.00" fill="#000000">Provider</text>
</g>
<!-- Storage Provider&#45;&gt;Chain -->
<g id="edge28" class="edge">
<title>Storage Provider&#45;&gt;Chain</title>
<path fill="none" stroke="#000000" d="M253.9693,-1064.9769C255.2948,-1064.2755 256.6392,-1063.6271 258,-1063.0403 305.2121,-1042.6817 677.6444,-1066.1859 720,-1037.0403 728.4151,-1031.2497 734.8905,-1023.0059 739.8651,-1013.9859"/>
<polygon fill="#000000" stroke="#000000" points="743.122,-1015.2922 744.3559,-1004.7694 736.8293,-1012.226 743.122,-1015.2922"/>
</g>
<!-- Data Transfers -->
<g id="node19" class="node">
<title>Data Transfers</title>
<polygon fill="none" stroke="#000000" points="502.0586,-974.772 403.9414,-974.772 403.9414,-938.772 502.0586,-938.772 502.0586,-974.772"/>
<text text-anchor="middle" x="453" y="-952.572" font-family="Times,serif" font-size="14.00" fill="#000000">Data Transfers</text>
</g>
<!-- Storage Provider&#45;&gt;Data Transfers -->
<g id="edge35" class="edge">
<title>Storage Provider&#45;&gt;Data Transfers</title>
<path fill="none" stroke="#000000" d="M253.9974,-1065.2623C255.3172,-1064.473 256.6524,-1063.7296 258,-1063.0403 313.177,-1034.8183 342.6997,-1070.2919 395,-1037.0403 397.4994,-1035.4512 399.9251,-1033.7125 402.2757,-1031.8515"/>
<polygon fill="#000000" stroke="#000000" points="404.7693,-1034.3198 409.9761,-1025.0926 400.1516,-1029.0589 404.7693,-1034.3198"/>
</g>
<!-- Storage Client -->
<g id="node13" class="node">
<title>Storage Client</title>
<polygon fill="none" stroke="#000000" points="82.2661,-1122.6956 23.7339,-1122.6956 23.7339,-1086.6956 82.2661,-1086.6956 82.2661,-1122.6956"/>
<text text-anchor="middle" x="53" y="-1107.4956" font-family="Times,serif" font-size="14.00" fill="#000000">Storage</text>
<text text-anchor="middle" x="53" y="-1093.4956" font-family="Times,serif" font-size="14.00" fill="#000000">Client</text>
</g>
<!-- Storage Deal Protocol -->
<g id="node14" class="node">
<title>Storage Deal Protocol</title>
<polygon fill="none" stroke="#000000" points="163.943,-1136.6385 100.057,-1136.6385 100.057,-1072.7526 163.943,-1072.7526 163.943,-1136.6385"/>
<polyline fill="none" stroke="#000000" points="112.057,-1136.6385 100.057,-1124.6385 "/>
<polyline fill="none" stroke="#000000" points="100.057,-1084.7526 112.057,-1072.7526 "/>
<polyline fill="none" stroke="#000000" points="151.943,-1072.7526 163.943,-1084.7526 "/>
<polyline fill="none" stroke="#000000" points="163.943,-1124.6385 151.943,-1136.6385 "/>
<text text-anchor="middle" x="132" y="-1114.4956" font-family="Times,serif" font-size="14.00" fill="#000000">Storage</text>
<text text-anchor="middle" x="132" y="-1100.4956" font-family="Times,serif" font-size="14.00" fill="#000000">Deal</text>
<text text-anchor="middle" x="132" y="-1086.4956" font-family="Times,serif" font-size="14.00" fill="#000000">Protocol</text>
</g>
<!-- Storage Market Actor -->
<g id="node15" class="node">
<title>Storage Market Actor</title>
<polygon fill="none" stroke="#000000" points="176.9564,-1202.8543 176.9564,-1234.3841 150.6215,-1256.6789 113.3785,-1256.6789 87.0436,-1234.3841 87.0436,-1202.8543 113.3785,-1180.5594 150.6215,-1180.5594 176.9564,-1202.8543"/>
<polygon fill="none" stroke="#000000" points="180.9545,-1201.0158 180.9545,-1236.2226 152.0923,-1260.6571 111.9077,-1260.6571 83.0455,-1236.2226 83.0455,-1201.0158 111.9077,-1176.5812 152.0923,-1176.5812 180.9545,-1201.0158"/>
<text text-anchor="middle" x="132" y="-1228.4192" font-family="Times,serif" font-size="14.00" fill="#000000">Storage</text>
<text text-anchor="middle" x="132" y="-1214.4192" font-family="Times,serif" font-size="14.00" fill="#000000">Market</text>
<text text-anchor="middle" x="132" y="-1200.4192" font-family="Times,serif" font-size="14.00" fill="#000000">Actor</text>
</g>
<!-- Storage Market Actor&#45;&gt;Storage Provider -->
<!-- Storage Market Actor&#45;&gt;Storage Client -->
<!-- Storage Market Actor&#45;&gt;Storage Deal Protocol -->
<!-- Retrieval Provider -->
<g id="node16" class="node">
<title>Retrieval Provider</title>
<polygon fill="none" stroke="#000000" points="507.8113,-1122.6956 440.1887,-1122.6956 440.1887,-1086.6956 507.8113,-1086.6956 507.8113,-1122.6956"/>
<text text-anchor="middle" x="474" y="-1107.4956" font-family="Times,serif" font-size="14.00" fill="#000000">Retrieval</text>
<text text-anchor="middle" x="474" y="-1093.4956" font-family="Times,serif" font-size="14.00" fill="#000000">Provider</text>
</g>
<!-- Retrieval Provider&#45;&gt;Chain -->
<g id="edge29" class="edge">
<title>Retrieval Provider&#45;&gt;Chain</title>
<path fill="none" stroke="#000000" d="M515.9961,-1072.8978C522.4484,-1069.0889 529.2242,-1065.6371 536,-1063.0403 613.1205,-1033.4841 653.9915,-1086.6792 720,-1037.0403 728.0347,-1030.9981 734.3176,-1022.7565 739.2184,-1013.8458"/>
<polygon fill="#000000" stroke="#000000" points="742.4093,-1015.2881 743.6722,-1004.7688 736.125,-1012.2046 742.4093,-1015.2881"/>
</g>
<!-- Retrieval Provider&#45;&gt;Data Transfers -->
<g id="edge36" class="edge">
<title>Retrieval Provider&#45;&gt;Data Transfers</title>
<path fill="none" stroke="#000000" d="M468.0866,-1063.042C466.8442,-1054.2905 465.4952,-1044.7878 464.1319,-1035.1847"/>
<polygon fill="#000000" stroke="#000000" points="467.5697,-1034.4991 462.6988,-1025.0903 460.6392,-1035.483 467.5697,-1034.4991"/>
</g>
<!-- Retrieval Client -->
<g id="node17" class="node">
<title>Retrieval Client</title>
<polygon fill="none" stroke="#000000" points="422.8113,-1122.6956 355.1887,-1122.6956 355.1887,-1086.6956 422.8113,-1086.6956 422.8113,-1122.6956"/>
<text text-anchor="middle" x="389" y="-1107.4956" font-family="Times,serif" font-size="14.00" fill="#000000">Retrieval</text>
<text text-anchor="middle" x="389" y="-1093.4956" font-family="Times,serif" font-size="14.00" fill="#000000">Client</text>
</g>
<!-- Retrieval Deal Protocol -->
<g id="node18" class="node">
<title>Retrieval Deal Protocol</title>
<polygon fill="none" stroke="#000000" points="337.8113,-1138.5068 270.1887,-1138.5068 270.1887,-1070.8843 337.8113,-1070.8843 337.8113,-1138.5068"/>
<polyline fill="none" stroke="#000000" points="282.1887,-1138.5068 270.1887,-1126.5068 "/>
<polyline fill="none" stroke="#000000" points="270.1887,-1082.8843 282.1887,-1070.8843 "/>
<polyline fill="none" stroke="#000000" points="325.8113,-1070.8843 337.8113,-1082.8843 "/>
<polyline fill="none" stroke="#000000" points="337.8113,-1126.5068 325.8113,-1138.5068 "/>
<text text-anchor="middle" x="304" y="-1114.4956" font-family="Times,serif" font-size="14.00" fill="#000000">Retrieval</text>
<text text-anchor="middle" x="304" y="-1100.4956" font-family="Times,serif" font-size="14.00" fill="#000000">Deal</text>
<text text-anchor="middle" x="304" y="-1086.4956" font-family="Times,serif" font-size="14.00" fill="#000000">Protocol</text>
</g>
<!-- Disk2 -->
<g id="node53" class="node">
<title>Disk2</title>
<path fill="none" stroke="#000000" d="M541.9216,-791.9455C541.9216,-794.4037 511.9262,-796.4005 475,-796.4005 438.0738,-796.4005 408.0784,-794.4037 408.0784,-791.9455 408.0784,-791.9455 408.0784,-751.8505 408.0784,-751.8505 408.0784,-749.3923 438.0738,-747.3955 475,-747.3955 511.9262,-747.3955 541.9216,-749.3923 541.9216,-751.8505 541.9216,-751.8505 541.9216,-791.9455 541.9216,-791.9455"/>
<path fill="none" stroke="#000000" d="M541.9216,-791.9455C541.9216,-789.4873 511.9262,-787.4905 475,-787.4905 438.0738,-787.4905 408.0784,-789.4873 408.0784,-791.9455"/>
<text text-anchor="middle" x="475" y="-774.698" font-family="Times,serif" font-size="14.00" fill="#000000">Data Storage System</text>
<text text-anchor="middle" x="475" y="-760.698" font-family="Times,serif" font-size="14.00" fill="#000000">(Disks, etc)</text>
</g>
<!-- Data Transfers&#45;&gt;Disk2 -->
<g id="edge44" class="edge">
<title>Data Transfers&#45;&gt;Disk2</title>
<path fill="none" stroke="#000000" d="M455.1495,-938.7089C458.7843,-908.1645 466.2038,-845.8154 470.871,-806.5955"/>
<polygon fill="#000000" stroke="#000000" points="474.374,-806.7772 472.0803,-796.4336 467.423,-805.9499 474.374,-806.7772"/>
</g>
<!-- DT Scheduler -->
<g id="node20" class="node">
<title>DT Scheduler</title>
<polygon fill="none" stroke="#000000" points="385.8956,-974.772 292.1044,-974.772 292.1044,-938.772 385.8956,-938.772 385.8956,-974.772"/>
<text text-anchor="middle" x="339" y="-952.572" font-family="Times,serif" font-size="14.00" fill="#000000">DT Scheduler</text>
</g>
<!-- AuthSwap -->
<g id="node21" class="node">
<title>AuthSwap</title>
<polygon fill="none" stroke="#000000" points="274.1424,-994.9144 197.8576,-994.9144 197.8576,-918.6295 274.1424,-918.6295 274.1424,-994.9144"/>
<polyline fill="none" stroke="#000000" points="209.8576,-994.9144 197.8576,-982.9144 "/>
<polyline fill="none" stroke="#000000" points="197.8576,-930.6295 209.8576,-918.6295 "/>
<polyline fill="none" stroke="#000000" points="262.1424,-918.6295 274.1424,-930.6295 "/>
<polyline fill="none" stroke="#000000" points="274.1424,-982.9144 262.1424,-994.9144 "/>
<text text-anchor="middle" x="236" y="-973.572" font-family="Times,serif" font-size="14.00" fill="#000000">data</text>
<text text-anchor="middle" x="236" y="-959.572" font-family="Times,serif" font-size="14.00" fill="#000000">transfer</text>
<text text-anchor="middle" x="236" y="-945.572" font-family="Times,serif" font-size="14.00" fill="#000000">protocol</text>
<text text-anchor="middle" x="236" y="-931.572" font-family="Times,serif" font-size="14.00" fill="#000000">(unnamed)</text>
</g>
<!-- Graphsync -->
<g id="node45" class="node">
<title>Graphsync</title>
<polygon fill="none" stroke="#000000" points="589.1492,-269.9735 512.8508,-269.9735 512.8508,-193.675 589.1492,-193.675 589.1492,-269.9735"/>
<polyline fill="none" stroke="#000000" points="524.8508,-269.9735 512.8508,-257.9735 "/>
<polyline fill="none" stroke="#000000" points="512.8508,-205.675 524.8508,-193.675 "/>
<polyline fill="none" stroke="#000000" points="577.1492,-193.675 589.1492,-205.675 "/>
<polyline fill="none" stroke="#000000" points="589.1492,-257.9735 577.1492,-269.9735 "/>
<text text-anchor="middle" x="551" y="-227.6242" font-family="Times,serif" font-size="14.00" fill="#000000">Graphsync</text>
</g>
<!-- AuthSwap&#45;&gt;Graphsync -->
<g id="edge34" class="edge">
<title>AuthSwap&#45;&gt;Graphsync</title>
<path fill="none" stroke="#000000" d="M274.2675,-910.4531C287.0005,-890.5994 298,-866.3791 298,-841.9512 298,-841.9512 298,-841.9512 298,-429.7016 298,-321.5453 425.9644,-375.0365 504,-300.1484 510.7131,-293.7061 517.0321,-286.1623 522.728,-278.4837"/>
<polygon fill="#000000" stroke="#000000" points="525.7143,-280.3235 528.6534,-270.1444 520.0081,-276.2689 525.7143,-280.3235"/>
</g>
<!-- Mining Scheduler -->
<g id="node22" class="node">
<title>Mining Scheduler</title>
<polygon fill="none" stroke="#000000" points="888.2074,-1384.1559 771.7926,-1384.1559 771.7926,-1348.1559 888.2074,-1348.1559 888.2074,-1384.1559"/>
<text text-anchor="middle" x="830" y="-1361.9559" font-family="Times,serif" font-size="14.00" fill="#000000">Mining Scheduler</text>
</g>
<!-- Sector Builder -->
<g id="node25" class="node">
<title>Sector Builder</title>
<polygon fill="none" stroke="#000000" points="645.7591,-1122.6956 548.2409,-1122.6956 548.2409,-1086.6956 645.7591,-1086.6956 645.7591,-1122.6956"/>
<text text-anchor="middle" x="597" y="-1100.4956" font-family="Times,serif" font-size="14.00" fill="#000000">Sector Builder</text>
</g>
<!-- Mining Scheduler&#45;&gt;Sector Builder -->
<g id="edge31" class="edge">
<title>Mining Scheduler&#45;&gt;Sector Builder</title>
<path fill="none" stroke="#000000" d="M785.2041,-1315.8882C745.5481,-1271.3884 687.7537,-1206.5345 646.689,-1160.4539"/>
<polygon fill="#000000" stroke="#000000" points="649.0389,-1157.8301 639.7728,-1152.6929 643.8129,-1162.4872 649.0389,-1157.8301"/>
</g>
<!-- Pledge Prover -->
<g id="node28" class="node">
<title>Pledge Prover</title>
<polygon fill="none" stroke="#000000" points="986.4278,-1122.6956 891.5722,-1122.6956 891.5722,-1086.6956 986.4278,-1086.6956 986.4278,-1122.6956"/>
<text text-anchor="middle" x="939" y="-1100.4956" font-family="Times,serif" font-size="14.00" fill="#000000">Pledge Prover</text>
</g>
<!-- Mining Scheduler&#45;&gt;Pledge Prover -->
<g id="edge30" class="edge">
<title>Mining Scheduler&#45;&gt;Pledge Prover</title>
<path fill="none" stroke="#000000" d="M850.9553,-1315.89C869.2638,-1271.973 895.8374,-1208.2305 914.9962,-1162.2741"/>
<polygon fill="#000000" stroke="#000000" points="918.3719,-1163.2724 918.9893,-1152.6956 911.9108,-1160.5788 918.3719,-1163.2724"/>
</g>
<!-- Storage Miner Actor -->
<g id="node23" class="node">
<title>Storage Miner Actor</title>
<polygon fill="none" stroke="#000000" points="749.9564,-1350.391 749.9564,-1381.9207 723.6215,-1404.2156 686.3785,-1404.2156 660.0436,-1381.9207 660.0436,-1350.391 686.3785,-1328.0961 723.6215,-1328.0961 749.9564,-1350.391"/>
<polygon fill="none" stroke="#000000" points="753.9545,-1348.5525 753.9545,-1383.7593 725.0923,-1408.1938 684.9077,-1408.1938 656.0455,-1383.7593 656.0455,-1348.5525 684.9077,-1324.1179 725.0923,-1324.1179 753.9545,-1348.5525"/>
<text text-anchor="middle" x="705" y="-1375.9559" font-family="Times,serif" font-size="14.00" fill="#000000">Storage</text>
<text text-anchor="middle" x="705" y="-1361.9559" font-family="Times,serif" font-size="14.00" fill="#000000">Miner</text>
<text text-anchor="middle" x="705" y="-1347.9559" font-family="Times,serif" font-size="14.00" fill="#000000">Actor</text>
</g>
<!-- Sector Store -->
<g id="node24" class="node">
<title>Sector Store</title>
<polygon fill="none" stroke="#000000" points="748.3176,-1122.6956 663.6824,-1122.6956 663.6824,-1086.6956 748.3176,-1086.6956 748.3176,-1122.6956"/>
<text text-anchor="middle" x="706" y="-1100.4956" font-family="Times,serif" font-size="14.00" fill="#000000">Sector Store</text>
</g>
<!-- Sector Store&#45;&gt;Disk2 -->
<g id="edge45" class="edge">
<title>Sector Store&#45;&gt;Disk2</title>
<path fill="none" stroke="#000000" d="M688.2201,-1086.3068C679.0713,-1077.919 667.2765,-1068.632 655,-1063.0403 634.0709,-1053.5076 553,-1068.5382 553,-1045.5403 553,-1045.5403 553,-1045.5403 553,-876.4512 553,-847.9362 534.1304,-822.1782 514.9533,-803.3634"/>
<polygon fill="#000000" stroke="#000000" points="517.3182,-800.7829 507.6271,-796.5011 512.5328,-805.8918 517.3182,-800.7829"/>
</g>
<!-- Seal Prover -->
<g id="node26" class="node">
<title>Seal Prover</title>
<polygon fill="none" stroke="#000000" points="1085.4278,-1122.6956 1004.5722,-1122.6956 1004.5722,-1086.6956 1085.4278,-1086.6956 1085.4278,-1122.6956"/>
<text text-anchor="middle" x="1045" y="-1100.4956" font-family="Times,serif" font-size="14.00" fill="#000000">Seal Prover</text>
</g>
<!-- PoSt Generator -->
<g id="node27" class="node">
<title>PoSt Generator</title>
<polygon fill="none" stroke="#000000" points="873.9278,-1122.6956 772.0722,-1122.6956 772.0722,-1086.6956 873.9278,-1086.6956 873.9278,-1122.6956"/>
<text text-anchor="middle" x="823" y="-1100.4956" font-family="Times,serif" font-size="14.00" fill="#000000">PoSt Generator</text>
</g>
<!-- PoSt Generator&#45;&gt;Chain -->
<g id="edge32" class="edge">
<title>PoSt Generator&#45;&gt;Chain</title>
<path fill="none" stroke="#000000" d="M811.225,-1078.6985C803.1347,-1060.8366 792.0718,-1036.4119 781.9718,-1014.1128"/>
<polygon fill="#000000" stroke="#000000" points="785.0529,-1012.4323 777.7388,-1004.7672 778.6765,-1015.3204 785.0529,-1012.4323"/>
</g>
<!-- Pledge Prover&#45;&gt;Storage Power Actor -->
<g id="edge27" class="edge">
<title>Pledge Prover&#45;&gt;Storage Power Actor</title>
<path fill="none" stroke="#000000" d="M931.7944,-1078.6987C928.6565,-1067.3772 924.7877,-1053.4191 920.8013,-1039.0368"/>
<polygon fill="#000000" stroke="#000000" points="924.0735,-1037.7382 918.0295,-1029.0364 917.3278,-1039.608 924.0735,-1037.7382"/>
</g>
<!-- ZigZag&#45;Porep -->
<g id="node37" class="node">
<title>ZigZag&#45;Porep</title>
<polygon fill="none" stroke="#000000" points="1468.0324,-687.3447 1373.9676,-687.3447 1373.9676,-651.3447 1468.0324,-651.3447 1468.0324,-687.3447"/>
<text text-anchor="middle" x="1421" y="-665.1447" font-family="Times,serif" font-size="14.00" fill="#000000">ZigZag&#45;Porep</text>
</g>
<!-- Pledge Prover&#45;&gt;ZigZag&#45;Porep -->
<g id="edge42" class="edge">
<title>Pledge Prover&#45;&gt;ZigZag&#45;Porep</title>
<path fill="none" stroke="#000000" d="M968.1164,-1078.6984C976.5673,-1072.52 986.1804,-1066.6733 996,-1063.0403 1019.5175,-1054.3394 1221,-1070.6158 1221,-1045.5403 1221,-1045.5403 1221,-1045.5403 1221,-841.9512 1221,-761.5208 1306.0064,-787.0148 1365,-732.3447 1365.3456,-732.0245 1365.6914,-731.7023 1366.0373,-731.3783"/>
<polygon fill="#000000" stroke="#000000" points="1368.5522,-733.815 1373.2964,-724.3417 1363.68,-728.7887 1368.5522,-733.815"/>
</g>
<!-- Wall Clock -->
<g id="node29" class="node">
<title>Wall Clock</title>
<polygon fill="none" stroke="#000000" points="1467.5342,-447.7016 1388.4658,-447.7016 1388.4658,-411.7016 1467.5342,-411.7016 1467.5342,-447.7016"/>
<text text-anchor="middle" x="1428" y="-425.5016" font-family="Times,serif" font-size="14.00" fill="#000000">Wall Clock</text>
</g>
<!-- NTP -->
<g id="node30" class="node">
<title>NTP</title>
<polygon fill="none" stroke="#000000" points="1330,-352.1484 1276,-352.1484 1276,-316.1484 1330,-316.1484 1330,-352.1484"/>
<text text-anchor="middle" x="1303" y="-329.9484" font-family="Times,serif" font-size="14.00" fill="#000000">NTP</text>
</g>
<!-- Wall Clock&#45;&gt;NTP -->
<g id="edge9" class="edge">
<title>Wall Clock&#45;&gt;NTP</title>
<path fill="none" stroke="#000000" d="M1404.1942,-411.5039C1384.5585,-396.4938 1356.522,-375.062 1334.9371,-358.562"/>
<polygon fill="#000000" stroke="#000000" points="1336.7874,-355.5709 1326.7171,-352.2784 1332.5362,-361.1322 1336.7874,-355.5709"/>
</g>
<!-- Config -->
<g id="node33" class="node">
<title>Config</title>
<polygon fill="none" stroke="#000000" points="1275.1242,-249.8242 1220.8758,-249.8242 1220.8758,-213.8242 1275.1242,-213.8242 1275.1242,-249.8242"/>
<text text-anchor="middle" x="1248" y="-227.6242" font-family="Times,serif" font-size="14.00" fill="#000000">Config</text>
</g>
<!-- NTP&#45;&gt;Config -->
<!-- Switch -->
<g id="node48" class="node">
<title>Switch</title>
<polygon fill="none" stroke="#000000" points="853.3898,-104 798.6102,-104 798.6102,-68 853.3898,-68 853.3898,-104"/>
<text text-anchor="middle" x="826" y="-81.8" font-family="Times,serif" font-size="14.00" fill="#000000">Switch</text>
</g>
<!-- NTP&#45;&gt;Switch -->
<g id="edge40" class="edge">
<title>NTP&#45;&gt;Switch</title>
<path fill="none" stroke="#000000" d="M1310.6924,-308.15C1322.7108,-261.5129 1339.5045,-163.6938 1287,-112 1271.9876,-97.2194 970.686,-89.1798 863.4708,-86.7782"/>
<polygon fill="#000000" stroke="#000000" points="871.2724,-83.963 861,-86.557 870.6479,-90.9351 871.2724,-83.963"/>
</g>
<!-- Round Clock -->
<g id="node31" class="node">
<title>Round Clock</title>
<polygon fill="none" stroke="#000000" points="1370.2797,-447.7016 1279.7203,-447.7016 1279.7203,-411.7016 1370.2797,-411.7016 1370.2797,-447.7016"/>
<text text-anchor="middle" x="1325" y="-425.5016" font-family="Times,serif" font-size="14.00" fill="#000000">Round Clock</text>
</g>
<!-- Cron Actor -->
<g id="node32" class="node">
<title>Cron Actor</title>
<polygon fill="none" stroke="#000000" points="1257.7718,-418.2695 1257.7718,-441.1338 1236.2314,-457.3014 1205.7686,-457.3014 1184.2282,-441.1338 1184.2282,-418.2695 1205.7686,-402.1019 1236.2314,-402.1019 1257.7718,-418.2695"/>
<polygon fill="none" stroke="#000000" points="1261.7859,-416.2692 1261.7859,-443.1341 1237.5722,-461.3081 1204.4278,-461.3081 1180.2141,-443.1341 1180.2141,-416.2692 1204.4278,-398.0951 1237.5722,-398.0951 1261.7859,-416.2692"/>
<text text-anchor="middle" x="1221" y="-432.5016" font-family="Times,serif" font-size="14.00" fill="#000000">Cron</text>
<text text-anchor="middle" x="1221" y="-418.5016" font-family="Times,serif" font-size="14.00" fill="#000000">Actor</text>
</g>
<!-- Local Storage -->
<g id="node36" class="node">
<title>Local Storage</title>
<path fill="none" stroke="#000000" d="M1215.1349,-172.7975C1215.1349,-175.2557 1194.0083,-177.2525 1168,-177.2525 1141.9917,-177.2525 1120.8651,-175.2557 1120.8651,-172.7975 1120.8651,-172.7975 1120.8651,-132.7025 1120.8651,-132.7025 1120.8651,-130.2443 1141.9917,-128.2475 1168,-128.2475 1194.0083,-128.2475 1215.1349,-130.2443 1215.1349,-132.7025 1215.1349,-132.7025 1215.1349,-172.7975 1215.1349,-172.7975"/>
<path fill="none" stroke="#000000" d="M1215.1349,-172.7975C1215.1349,-170.3393 1194.0083,-168.3425 1168,-168.3425 1141.9917,-168.3425 1120.8651,-170.3393 1120.8651,-172.7975"/>
<text text-anchor="middle" x="1168" y="-155.55" font-family="Times,serif" font-size="14.00" fill="#000000">Local Storage</text>
<text text-anchor="middle" x="1168" y="-141.55" font-family="Times,serif" font-size="14.00" fill="#000000">(Disk)</text>
</g>
<!-- Config&#45;&gt;Local Storage -->
<g id="edge11" class="edge">
<title>Config&#45;&gt;Local Storage</title>
<path fill="none" stroke="#000000" d="M1235.2474,-213.8025C1228.5159,-204.8507 1219.8339,-194.1325 1211,-185.5 1210.2282,-184.7458 1209.4389,-183.9932 1208.6354,-183.2437"/>
<polygon fill="#000000" stroke="#000000" points="1210.9218,-180.5936 1201.1014,-176.6174 1206.2988,-185.8498 1210.9218,-180.5936"/>
</g>
<!-- KeyStore -->
<g id="node34" class="node">
<title>KeyStore</title>
<polygon fill="none" stroke="#000000" points="1202.3761,-249.8242 1133.6239,-249.8242 1133.6239,-213.8242 1202.3761,-213.8242 1202.3761,-249.8242"/>
<text text-anchor="middle" x="1168" y="-227.6242" font-family="Times,serif" font-size="14.00" fill="#000000">KeyStore</text>
</g>
<!-- KeyStore&#45;&gt;Local Storage -->
<g id="edge12" class="edge">
<title>KeyStore&#45;&gt;Local Storage</title>
<path fill="none" stroke="#000000" d="M1168,-213.4843C1168,-205.7453 1168,-196.4681 1168,-187.5212"/>
<polygon fill="#000000" stroke="#000000" points="1171.5001,-187.282 1168,-177.2821 1164.5001,-187.2821 1171.5001,-187.282"/>
</g>
<!-- IPLD DagStore&#45;&gt;Local Storage -->
<g id="edge10" class="edge">
<title>IPLD DagStore&#45;&gt;Local Storage</title>
<path fill="none" stroke="#000000" d="M1087.8597,-213.683C1099.7786,-204.6207 1114.5202,-193.4123 1128.0969,-183.0895"/>
<polygon fill="#000000" stroke="#000000" points="1130.5221,-185.6423 1136.3641,-176.8037 1126.2854,-180.0701 1130.5221,-185.6423"/>
</g>
<!-- Rational PoSt -->
<g id="node38" class="node">
<title>Rational PoSt</title>
<polygon fill="none" stroke="#000000" points="1467.8973,-567.5232 1374.1027,-567.5232 1374.1027,-531.5232 1467.8973,-531.5232 1467.8973,-567.5232"/>
<text text-anchor="middle" x="1421" y="-545.3232" font-family="Times,serif" font-size="14.00" fill="#000000">Rational PoSt</text>
</g>
<!-- ZigZag&#45;Porep&#45;&gt;Rational PoSt -->
<!-- Piece Inclusion Proofs -->
<g id="node39" class="node">
<title>Piece Inclusion Proofs</title>
<polygon fill="none" stroke="#000000" points="1356.1036,-694.3447 1287.8964,-694.3447 1287.8964,-644.3447 1356.1036,-644.3447 1356.1036,-694.3447"/>
<text text-anchor="middle" x="1322" y="-679.1447" font-family="Times,serif" font-size="14.00" fill="#000000">Piece</text>
<text text-anchor="middle" x="1322" y="-665.1447" font-family="Times,serif" font-size="14.00" fill="#000000">Inclusion</text>
<text text-anchor="middle" x="1322" y="-651.1447" font-family="Times,serif" font-size="14.00" fill="#000000">Proofs</text>
</g>
<!-- VRFs -->
<g id="node40" class="node">
<title>VRFs</title>
<polygon fill="none" stroke="#000000" points="1270,-687.3447 1216,-687.3447 1216,-651.3447 1270,-651.3447 1270,-687.3447"/>
<text text-anchor="middle" x="1243" y="-665.1447" font-family="Times,serif" font-size="14.00" fill="#000000">VRFs</text>
</g>
<!-- VDFs -->
<g id="node41" class="node">
<title>VDFs</title>
<polygon fill="none" stroke="#000000" points="1270,-567.5232 1216,-567.5232 1216,-531.5232 1270,-531.5232 1270,-567.5232"/>
<text text-anchor="middle" x="1243" y="-545.3232" font-family="Times,serif" font-size="14.00" fill="#000000">VDFs</text>
</g>
<!-- VRFs&#45;&gt;VDFs -->
<!-- VDFs&#45;&gt;Cron Actor -->
<!-- Wallet -->
<g id="node42" class="node">
<title>Wallet</title>
<polygon fill="none" stroke="#000000" points="1192,-567.5232 1138,-567.5232 1138,-531.5232 1192,-531.5232 1192,-567.5232"/>
<text text-anchor="middle" x="1165" y="-545.3232" font-family="Times,serif" font-size="14.00" fill="#000000">Wallet</text>
</g>
<!-- Wallet&#45;&gt;KeyStore -->
<g id="edge43" class="edge">
<title>Wallet&#45;&gt;KeyStore</title>
<path fill="none" stroke="#000000" d="M1165.1743,-531.0691C1165.6767,-477.8639 1167.1305,-323.9038 1167.7333,-260.07"/>
<polygon fill="#000000" stroke="#000000" points="1171.2343,-259.9659 1167.829,-249.9333 1164.2346,-259.8998 1171.2343,-259.9659"/>
</g>
<!-- Payment Channel Actor -->
<g id="node43" class="node">
<title>Payment Channel Actor</title>
<polygon fill="none" stroke="#000000" points="1115.9701,-533.7583 1115.9701,-565.2881 1086.6983,-587.5829 1045.3017,-587.5829 1016.0299,-565.2881 1016.0299,-533.7583 1045.3017,-511.4634 1086.6983,-511.4634 1115.9701,-533.7583"/>
<polygon fill="none" stroke="#000000" points="1119.9883,-531.7996 1119.9883,-567.2468 1088.0651,-591.5611 1043.9349,-591.5611 1012.0117,-567.2468 1012.0117,-531.7996 1043.9349,-507.4852 1088.0651,-507.4852 1119.9883,-531.7996"/>
<text text-anchor="middle" x="1066" y="-559.3232" font-family="Times,serif" font-size="14.00" fill="#000000">Payment</text>
<text text-anchor="middle" x="1066" y="-545.3232" font-family="Times,serif" font-size="14.00" fill="#000000">Channel</text>
<text text-anchor="middle" x="1066" y="-531.3232" font-family="Times,serif" font-size="14.00" fill="#000000">Actor</text>
</g>
<!-- Filecoin Network Node&#45;&gt;Gossipsub -->
<!-- p2p.Node -->
<g id="node47" class="node">
<title>p2p.Node</title>
<polygon fill="none" stroke="#000000" points="728.3244,-170.75 657.6756,-170.75 657.6756,-134.75 728.3244,-134.75 728.3244,-170.75"/>
<text text-anchor="middle" x="693" y="-148.55" font-family="Times,serif" font-size="14.00" fill="#000000">p2p.Node</text>
</g>
<!-- Graphsync&#45;&gt;p2p.Node -->
<g id="edge19" class="edge">
<title>Graphsync&#45;&gt;p2p.Node</title>
<path fill="none" stroke="#000000" d="M589.3635,-193.5518C593.1475,-190.6287 597.0526,-187.8911 601,-185.5 615.2746,-176.8534 632.1742,-170.0141 647.5696,-164.8707"/>
<polygon fill="#000000" stroke="#000000" points="648.9589,-168.1016 657.4265,-161.7337 646.836,-161.4312 648.9589,-168.1016"/>
</g>
<!-- Bitswap -->
<g id="node46" class="node">
<title>Bitswap</title>
<polygon fill="none" stroke="#000000" points="494.8897,-262.714 433.1103,-262.714 433.1103,-200.9345 494.8897,-200.9345 494.8897,-262.714"/>
<polyline fill="none" stroke="#000000" points="445.1103,-262.714 433.1103,-250.714 "/>
<polyline fill="none" stroke="#000000" points="433.1103,-212.9345 445.1103,-200.9345 "/>
<polyline fill="none" stroke="#000000" points="482.8897,-200.9345 494.8897,-212.9345 "/>
<polyline fill="none" stroke="#000000" points="494.8897,-250.714 482.8897,-262.714 "/>
<text text-anchor="middle" x="464" y="-227.6242" font-family="Times,serif" font-size="14.00" fill="#000000">Bitswap</text>
</g>
<!-- Bitswap&#45;&gt;p2p.Node -->
<g id="edge20" class="edge">
<title>Bitswap&#45;&gt;p2p.Node</title>
<path fill="none" stroke="#000000" d="M485.5295,-200.7473C490.9279,-194.8779 497.1571,-189.3732 504,-185.5 527.895,-171.9751 599.4262,-162.2855 647.3101,-157.102"/>
<polygon fill="#000000" stroke="#000000" points="647.8625,-160.5633 657.4405,-156.034 647.1286,-153.6018 647.8625,-160.5633"/>
</g>
<!-- p2p.Node&#45;&gt;Switch -->
<g id="edge22" class="edge">
<title>p2p.Node&#45;&gt;Switch</title>
<path fill="none" stroke="#000000" d="M728.6416,-134.8622C747.3358,-125.48 770.2104,-113.9997 789.0888,-104.525"/>
<polygon fill="#000000" stroke="#000000" points="790.9081,-107.528 798.2757,-99.9143 787.7682,-101.2718 790.9081,-107.528"/>
</g>
<!-- Switch&#45;&gt;KeyStore -->
<g id="edge39" class="edge">
<title>Switch&#45;&gt;KeyStore</title>
<path fill="none" stroke="#000000" d="M853.5597,-90.4206C908.7658,-100.2512 1035.2955,-127.7586 1125,-185.5 1133.4023,-190.9084 1141.2678,-198.3306 1147.9153,-205.6496"/>
<polygon fill="#000000" stroke="#000000" points="1145.4466,-208.147 1154.6183,-213.4508 1150.7559,-203.5851 1145.4466,-208.147"/>
</g>
<!-- Conn -->
<g id="node49" class="node">
<title>Conn</title>
<polygon fill="none" stroke="#000000" points="853,-60 799,-60 799,-24 853,-24 853,-60"/>
<text text-anchor="middle" x="826" y="-37.8" font-family="Times,serif" font-size="14.00" fill="#000000">Conn</text>
</g>
<!-- Switch&#45;&gt;Conn -->
<g id="edge23" class="edge">
<title>Switch&#45;&gt;Conn</title>
<path fill="none" stroke="#000000" d="M826,-67.8495C826,-67.6897 826,-67.5296 826,-67.3693"/>
<polygon fill="#000000" stroke="#000000" points="829.5001,-70.1088 826,-60.1088 822.5001,-70.1089 829.5001,-70.1088"/>
</g>
<!-- Identify -->
<g id="node50" class="node">
<title>Identify</title>
<polygon fill="none" stroke="#000000" points="853.3182,-262.1424 792.6818,-262.1424 792.6818,-201.506 853.3182,-201.506 853.3182,-262.1424"/>
<polyline fill="none" stroke="#000000" points="804.6818,-262.1424 792.6818,-250.1424 "/>
<polyline fill="none" stroke="#000000" points="792.6818,-213.506 804.6818,-201.506 "/>
<polyline fill="none" stroke="#000000" points="841.3182,-201.506 853.3182,-213.506 "/>
<polyline fill="none" stroke="#000000" points="853.3182,-250.1424 841.3182,-262.1424 "/>
<text text-anchor="middle" x="823" y="-227.6242" font-family="Times,serif" font-size="14.00" fill="#000000">Identify</text>
</g>
<!-- Identify&#45;&gt;p2p.Node -->
<g id="edge17" class="edge">
<title>Identify&#45;&gt;p2p.Node</title>
<path fill="none" stroke="#000000" d="M801.5729,-201.6151C796.3366,-195.6917 790.3844,-189.9455 784,-185.5 770.436,-176.0553 753.8484,-169.0317 738.5679,-163.9637"/>
<polygon fill="#000000" stroke="#000000" points="739.3485,-160.5411 728.7601,-160.9099 737.2675,-167.2246 739.3485,-160.5411"/>
</g>
<!-- Gossipsub&#45;&gt;p2p.Node -->
<g id="edge18" class="edge">
<title>Gossipsub&#45;&gt;p2p.Node</title>
<path fill="none" stroke="#000000" d="M716.8177,-194.6026C713.9838,-189.6229 711.122,-184.5941 708.4129,-179.8336"/>
<polygon fill="#000000" stroke="#000000" points="711.4268,-178.0532 703.4388,-171.0931 705.3429,-181.5154 711.4268,-178.0532"/>
</g>
<!-- Bootstrap List -->
<g id="node52" class="node">
<title>Bootstrap List</title>
<polygon fill="none" stroke="#000000" points="683.4428,-267.267 612.5572,-267.267 612.5572,-196.3814 683.4428,-196.3814 683.4428,-267.267"/>
<polyline fill="none" stroke="#000000" points="624.5572,-267.267 612.5572,-255.267 "/>
<polyline fill="none" stroke="#000000" points="612.5572,-208.3814 624.5572,-196.3814 "/>
<polyline fill="none" stroke="#000000" points="671.4428,-196.3814 683.4428,-208.3814 "/>
<polyline fill="none" stroke="#000000" points="683.4428,-255.267 671.4428,-267.267 "/>
<text text-anchor="middle" x="648" y="-234.6242" font-family="Times,serif" font-size="14.00" fill="#000000">Bootstrap</text>
<text text-anchor="middle" x="648" y="-220.6242" font-family="Times,serif" font-size="14.00" fill="#000000">List</text>
</g>
<!-- Bootstrap List&#45;&gt;p2p.Node -->
<g id="edge21" class="edge">
<title>Bootstrap List&#45;&gt;p2p.Node</title>
<path fill="none" stroke="#000000" d="M668.1309,-196.4502C671.369,-190.7601 674.6734,-184.9536 677.7716,-179.5094"/>
<polygon fill="#000000" stroke="#000000" points="680.8389,-181.1959 682.7431,-170.7735 674.7551,-177.7336 680.8389,-181.1959"/>
</g>
</g>
</svg>
