<?xml version="1.0" encoding="UTF-8" standalone="no"?>
<!DOCTYPE svg PUBLIC "-//W3C//DTD SVG 1.1//EN"
 "http://www.w3.org/Graphics/SVG/1.1/DTD/svg11.dtd">
<!-- Generated by graphviz version 2.40.1 (20161225.0304)
 -->
<!-- Title: %3 Pages: 1 -->
<svg width="393pt" height="232pt"
 viewBox="0.00 0.00 393.00 232.00" xmlns="http://www.w3.org/2000/svg" xmlns:xlink="http://www.w3.org/1999/xlink">
<g id="graph0" class="graph" transform="scale(1 1) rotate(0) translate(4 228)">
<title>%3</title>
<polygon fill="#ffffff" stroke="transparent" points="-4,4 -4,-228 389,-228 389,4 -4,4"/>
<g id="clust1" class="cluster">
<title>cluster_01</title>
<polygon fill="none" stroke="#000000" points="8,-8 8,-216 377,-216 377,-8 8,-8"/>
<text text-anchor="middle" x="192.5" y="-200.8" font-family="Times,serif" font-size="14.00" fill="#000000">Legend</text>
</g>
<!-- key -->
<g id="node1" class="node">
<title>key</title>
<text text-anchor="start" x="152.4619" y="-168.8" font-family="Times,serif" font-size="14.00" fill="#000000">sm.PrecommitSector</text>
<text text-anchor="start" x="168" y="-150.8" font-family="Times,serif" font-size="14.00" fill="#000000">sm.CommitSector</text>
<text text-anchor="start" x="88.6621" y="-132.8" font-family="Times,serif" font-size="14.00" fill="#000000">sm.SubmitPoSt &#45; ActivateSector</text>
<text text-anchor="start" x="82.8721" y="-114.8" font-family="Times,serif" font-size="14.00" fill="#000000">sm.DeclareFaults &#45; sm.FailSector</text>
<text text-anchor="start" x="94.5137" y="-96.8" font-family="Times,serif" font-size="14.00" fill="#000000">sm.CronAction &#45; sm.FailSector</text>
<text text-anchor="start" x="168.793" y="-78.8" font-family="Times,serif" font-size="14.00" fill="#000000">sm.RecoverFaults</text>
<text text-anchor="start" x="34.2412" y="-60.8" font-family="Times,serif" font-size="14.00" fill="#000000">sm.SubmitPoSt &#45; Expiration &#45; ClearSector</text>
<text text-anchor="start" x="26.0811" y="-42.8" font-family="Times,serif" font-size="14.00" fill="#000000">sm.SubmitPoSt &#45; MaxFCount &#45; ClearSector</text>
<text text-anchor="start" x="26.4878" y="-24.8" font-family="Times,serif" font-size="14.00" fill="#000000">sm.CronAction &#45; MaxFCount &#45; ClearSector</text>
</g>
<!-- key2 -->
<g id="node2" class="node">
<title>key2</title>
<text text-anchor="start" x="340.75" y="-168.8" font-family="Times,serif" font-size="14.00" fill="#000000"> </text>
<text text-anchor="start" x="340.75" y="-150.8" font-family="Times,serif" font-size="14.00" fill="#000000"> </text>
<text text-anchor="start" x="340.75" y="-132.8" font-family="Times,serif" font-size="14.00" fill="#000000"> </text>
<text text-anchor="start" x="340.75" y="-114.8" font-family="Times,serif" font-size="14.00" fill="#000000"> </text>
<text text-anchor="start" x="340.75" y="-96.8" font-family="Times,serif" font-size="14.00" fill="#000000"> </text>
<text text-anchor="start" x="340.75" y="-78.8" font-family="Times,serif" font-size="14.00" fill="#000000"> </text>
<text text-anchor="start" x="340.75" y="-60.8" font-family="Times,serif" font-size="14.00" fill="#000000"> </text>
<text text-anchor="start" x="340.75" y="-42.8" font-family="Times,serif" font-size="14.00" fill="#000000"> </text>
<text text-anchor="start" x="340.75" y="-24.8" font-family="Times,serif" font-size="14.00" fill="#000000"> </text>
</g>
<!-- key&#45;&gt;key2 -->
<g id="edge1" class="edge">
<title>key:e&#45;&gt;key2:w</title>
<path fill="none" stroke="#c0c0c0" d="M271.5,-173C297.75,-173 306.7734,-173 328.7168,-173"/>
<polygon fill="#c0c0c0" stroke="#c0c0c0" points="329,-176.5001 339,-173 329,-169.5001 329,-176.5001"/>
</g>
<!-- key&#45;&gt;key2 -->
<g id="edge2" class="edge">
<title>key:e&#45;&gt;key2:w</title>
<path fill="none" stroke="#000000" d="M271.5,-155C297.75,-155 306.7734,-155 328.7168,-155"/>
<polygon fill="#000000" stroke="#000000" points="329,-158.5001 339,-155 329,-151.5001 329,-158.5001"/>
</g>
<!-- key&#45;&gt;key2 -->
<g id="edge3" class="edge">
<title>key:e&#45;&gt;key2:w</title>
<path fill="none" stroke="#00ff00" d="M271.5,-137C297.75,-137 306.7734,-137 328.7168,-137"/>
<polygon fill="#00ff00" stroke="#00ff00" points="329,-140.5001 339,-137 329,-133.5001 329,-140.5001"/>
</g>
<!-- key&#45;&gt;key2 -->
<g id="edge4" class="edge">
<title>key:e&#45;&gt;key2:w</title>
<path fill="none" stroke="#ffa500" d="M271.5,-119C297.75,-119 306.7734,-119 328.7168,-119"/>
<polygon fill="#ffa500" stroke="#ffa500" points="329,-122.5001 339,-119 329,-115.5001 329,-122.5001"/>
</g>
<!-- key&#45;&gt;key2 -->
<g id="edge5" class="edge">
<title>key:e&#45;&gt;key2:w</title>
<path fill="none" stroke="#ff0000" d="M271.5,-101C297.75,-101 306.7734,-101 328.7168,-101"/>
<polygon fill="#ff0000" stroke="#ff0000" points="329,-104.5001 339,-101 329,-97.5001 329,-104.5001"/>
</g>
<!-- key&#45;&gt;key2 -->
<g id="edge6" class="edge">
<title>key:e&#45;&gt;key2:w</title>
<path fill="none" stroke="#00ffff" d="M271.5,-83C297.75,-83 306.7734,-83 328.7168,-83"/>
<polygon fill="#00ffff" stroke="#00ffff" points="329,-86.5001 339,-83 329,-79.5001 329,-86.5001"/>
</g>
<!-- key&#45;&gt;key2 -->
<g id="edge7" class="edge">
<title>key:e&#45;&gt;key2:w</title>
<path fill="none" stroke="#0000ff" d="M271.5,-65C297.75,-65 306.7734,-65 328.7168,-65"/>
<polygon fill="#0000ff" stroke="#0000ff" points="329,-68.5001 339,-65 329,-61.5001 329,-68.5001"/>
</g>
<!-- key&#45;&gt;key2 -->
<g id="edge8" class="edge">
<title>key:e&#45;&gt;key2:w</title>
<path fill="none" stroke="#ff00ff" d="M271.5,-47C297.75,-47 306.7734,-47 328.7168,-47"/>
<polygon fill="#ff00ff" stroke="#ff00ff" points="329,-50.5001 339,-47 329,-43.5001 329,-50.5001"/>
</g>
<!-- key&#45;&gt;key2 -->
<g id="edge9" class="edge">
<title>key:e&#45;&gt;key2:w</title>
<path fill="none" stroke="#a020f0" d="M271.5,-29C297.75,-29 306.7734,-29 328.7168,-29"/>
<polygon fill="#a020f0" stroke="#a020f0" points="329,-32.5001 339,-29 329,-25.5001 329,-32.5001"/>
</g>
</g>
</svg>
