<?xml version="1.0" encoding="UTF-8" standalone="no"?>
<!DOCTYPE svg PUBLIC "-//W3C//DTD SVG 1.1//EN"
 "http://www.w3.org/Graphics/SVG/1.1/DTD/svg11.dtd">
<!-- Generated by graphviz version 5.0.0 (20220707.1540)
 -->
<!-- Pages: 1 -->
<svg width="2993pt" height="980pt"
 viewBox="0.00 0.00 2993.03 980.00" xmlns="http://www.w3.org/2000/svg" xmlns:xlink="http://www.w3.org/1999/xlink">
<g id="graph0" class="graph" transform="scale(1 1) rotate(0) translate(4 976)">
<polygon fill="white" stroke="transparent" points="-4,4 -4,-976 2989.03,-976 2989.03,4 -4,4"/>
<!-- 69 -->
<g id="node1" class="node">
<title>69</title>
<ellipse fill="none" stroke="black" cx="646.2" cy="-18" rx="154.1" ry="18"/>
<text text-anchor="middle" x="646.2" y="-13.8" font-family="Times,serif" font-size="14.00">ACTORS&#45;MESSAGES&#45;FRACTION</text>
</g>
<!-- 68 -->
<g id="node2" class="node">
<title>68</title>
<ellipse fill="none" stroke="black" cx="547.2" cy="-90" rx="159.84" ry="18"/>
<text text-anchor="middle" x="547.2" y="-85.8" font-family="Times,serif" font-size="14.00">ACTORS&#45;MESSAGES&#45;PER&#45;BLOCK</text>
</g>
<!-- 68&#45;&gt;69 -->
<g id="edge1" class="edge">
<title>68&#45;&gt;69</title>
<path fill="none" stroke="black" d="M571.16,-72.05C584.05,-62.94 600.12,-51.58 614.08,-41.71"/>
<polygon fill="black" stroke="black" points="616.31,-44.42 622.45,-35.79 612.27,-38.7 616.31,-44.42"/>
</g>
<!-- 62 -->
<g id="node3" class="node">
<title>62</title>
<ellipse fill="none" stroke="black" cx="818.2" cy="-162" rx="61.46" ry="18"/>
<text text-anchor="middle" x="818.2" y="-157.8" font-family="Times,serif" font-size="14.00">MESSAGES</text>
</g>
<!-- 62&#45;&gt;69 -->
<g id="edge2" class="edge">
<title>62&#45;&gt;69</title>
<path fill="none" stroke="black" d="M798.02,-144.86C785.27,-134.53 768.56,-120.72 754.2,-108 736.78,-92.57 733.94,-87.04 716.2,-72 704.01,-61.67 690.07,-50.91 677.85,-41.81"/>
<polygon fill="black" stroke="black" points="679.84,-38.93 669.71,-35.8 675.68,-44.56 679.84,-38.93"/>
</g>
<!-- 62&#45;&gt;68 -->
<g id="edge3" class="edge">
<title>62&#45;&gt;68</title>
<path fill="none" stroke="black" d="M773.75,-149.52C731.46,-138.6 667.16,-121.99 617.85,-109.25"/>
<polygon fill="black" stroke="black" points="618.44,-105.79 607.88,-106.68 616.69,-112.57 618.44,-105.79"/>
</g>
<!-- 66 -->
<g id="node5" class="node">
<title>66</title>
<ellipse fill="none" stroke="black" cx="1027.2" cy="-90" rx="134.38" ry="18"/>
<text text-anchor="middle" x="1027.2" y="-85.8" font-family="Times,serif" font-size="14.00">TX&#45;MESSAGES&#45;PER&#45;BLOCK</text>
</g>
<!-- 62&#45;&gt;66 -->
<g id="edge7" class="edge">
<title>62&#45;&gt;66</title>
<path fill="none" stroke="black" d="M853.98,-147.17C884.4,-136.5 928.63,-121.62 964.82,-109.86"/>
<polygon fill="black" stroke="black" points="966.36,-113.04 974.8,-106.63 964.2,-106.38 966.36,-113.04"/>
</g>
<!-- 64 -->
<g id="node7" class="node">
<title>64</title>
<ellipse fill="none" stroke="black" cx="819.2" cy="-90" rx="55.65" ry="18"/>
<text text-anchor="middle" x="819.2" y="-85.8" font-family="Times,serif" font-size="14.00">RECEIPTS</text>
</g>
<!-- 62&#45;&gt;64 -->
<g id="edge10" class="edge">
<title>62&#45;&gt;64</title>
<path fill="none" stroke="black" d="M818.44,-143.7C818.55,-135.98 818.69,-126.71 818.81,-118.11"/>
<polygon fill="black" stroke="black" points="822.31,-118.15 818.95,-108.1 815.31,-118.05 822.31,-118.15"/>
</g>
<!-- 63 -->
<g id="node8" class="node">
<title>63</title>
<ellipse fill="none" stroke="black" cx="1520.2" cy="-90" rx="85.16" ry="18"/>
<text text-anchor="middle" x="1520.2" y="-85.8" font-family="Times,serif" font-size="14.00">MESSAGES&#45;SIZE</text>
</g>
<!-- 62&#45;&gt;63 -->
<g id="edge12" class="edge">
<title>62&#45;&gt;63</title>
<path fill="none" stroke="black" d="M862.3,-149.35C871.16,-147.32 880.44,-145.41 889.2,-144 1078.7,-113.53 1303.21,-99.97 1426.84,-94.43"/>
<polygon fill="black" stroke="black" points="1427.19,-97.92 1437.03,-93.98 1426.88,-90.92 1427.19,-97.92"/>
</g>
<!-- 67 -->
<g id="node4" class="node">
<title>67</title>
<ellipse fill="none" stroke="black" cx="1027.2" cy="-162" rx="129.15" ry="18"/>
<text text-anchor="middle" x="1027.2" y="-157.8" font-family="Times,serif" font-size="14.00">TX&#45;MESSAGES&#45;FRACTION</text>
</g>
<!-- 67&#45;&gt;66 -->
<g id="edge6" class="edge">
<title>67&#45;&gt;66</title>
<path fill="none" stroke="black" d="M1027.2,-143.7C1027.2,-135.98 1027.2,-126.71 1027.2,-118.11"/>
<polygon fill="black" stroke="black" points="1030.7,-118.1 1027.2,-108.1 1023.7,-118.1 1030.7,-118.1"/>
</g>
<!-- 66&#45;&gt;62 -->
<g id="edge5" class="edge">
<title>66&#45;&gt;62</title>
<path fill="none" stroke="black" d="M984.58,-107.21C951.33,-118.79 905.11,-134.26 869.78,-145.63"/>
<polygon fill="black" stroke="black" points="868.58,-142.34 860.12,-148.73 870.71,-149.01 868.58,-142.34"/>
</g>
<!-- 65 -->
<g id="node6" class="node">
<title>65</title>
<ellipse fill="none" stroke="black" cx="907.2" cy="-18" rx="79.35" ry="18"/>
<text text-anchor="middle" x="907.2" y="-13.8" font-family="Times,serif" font-size="14.00">RECEIPTS&#45;SIZE</text>
</g>
<!-- 64&#45;&gt;65 -->
<g id="edge9" class="edge">
<title>64&#45;&gt;65</title>
<path fill="none" stroke="black" d="M839.17,-73.12C850.73,-63.92 865.49,-52.18 878.3,-41.98"/>
<polygon fill="black" stroke="black" points="880.74,-44.52 886.39,-35.55 876.38,-39.04 880.74,-44.52"/>
</g>
<!-- 61 -->
<g id="node9" class="node">
<title>61</title>
<ellipse fill="none" stroke="black" cx="818.2" cy="-234" rx="147.16" ry="18"/>
<text text-anchor="middle" x="818.2" y="-229.8" font-family="Times,serif" font-size="14.00">PROOF&#45;MESSAGES&#45;FRACTION</text>
</g>
<!-- 61&#45;&gt;62 -->
<g id="edge13" class="edge">
<title>61&#45;&gt;62</title>
<path fill="none" stroke="black" d="M818.2,-215.7C818.2,-207.98 818.2,-198.71 818.2,-190.11"/>
<polygon fill="black" stroke="black" points="821.7,-190.1 818.2,-180.1 814.7,-190.1 821.7,-190.1"/>
</g>
<!-- 60 -->
<g id="node10" class="node">
<title>60</title>
<ellipse fill="none" stroke="black" cx="470.2" cy="-234" rx="182.41" ry="18"/>
<text text-anchor="middle" x="470.2" y="-229.8" font-family="Times,serif" font-size="14.00">AVG&#45;PROOFS&#45;MESSAGES&#45;PER&#45;BLOCK</text>
</g>
<!-- 60&#45;&gt;62 -->
<g id="edge4" class="edge">
<title>60&#45;&gt;62</title>
<path fill="none" stroke="black" d="M546.57,-217.64C610.59,-204.76 700.68,-186.64 759.26,-174.86"/>
<polygon fill="black" stroke="black" points="759.98,-178.28 769.09,-172.88 758.6,-171.42 759.98,-178.28"/>
</g>
<!-- 59 -->
<g id="node11" class="node">
<title>59</title>
<ellipse fill="none" stroke="black" cx="823.2" cy="-306" rx="174.88" ry="18"/>
<text text-anchor="middle" x="823.2" y="-301.8" font-family="Times,serif" font-size="14.00">AVG&#45;POSTS&#45;MESSAGES&#45;PER&#45;BLOCK</text>
</g>
<!-- 59&#45;&gt;60 -->
<g id="edge15" class="edge">
<title>59&#45;&gt;60</title>
<path fill="none" stroke="black" d="M746.6,-289.81C690.92,-278.77 615.45,-263.8 557.44,-252.3"/>
<polygon fill="black" stroke="black" points="558.05,-248.85 547.56,-250.34 556.68,-255.72 558.05,-248.85"/>
</g>
<!-- 58 -->
<g id="node12" class="node">
<title>58</title>
<ellipse fill="none" stroke="black" cx="455.2" cy="-306" rx="175.44" ry="18"/>
<text text-anchor="middle" x="455.2" y="-301.8" font-family="Times,serif" font-size="14.00">AVG&#45;SEALS&#45;MESSAGES&#45;PER&#45;BLOCK</text>
</g>
<!-- 58&#45;&gt;60 -->
<g id="edge14" class="edge">
<title>58&#45;&gt;60</title>
<path fill="none" stroke="black" d="M458.9,-287.7C460.56,-279.98 462.54,-270.71 464.39,-262.11"/>
<polygon fill="black" stroke="black" points="467.86,-262.62 466.53,-252.1 461.01,-261.15 467.86,-262.62"/>
</g>
<!-- 56 -->
<g id="node13" class="node">
<title>56</title>
<ellipse fill="none" stroke="black" cx="710.2" cy="-378" rx="160.96" ry="18"/>
<text text-anchor="middle" x="710.2" y="-373.8" font-family="Times,serif" font-size="14.00">ALL&#45;POST&#45;MESSAGES&#45;PER&#45;YEAR</text>
</g>
<!-- 56&#45;&gt;59 -->
<g id="edge16" class="edge">
<title>56&#45;&gt;59</title>
<path fill="none" stroke="black" d="M737.26,-360.23C752.25,-350.95 771.06,-339.29 787.27,-329.26"/>
<polygon fill="black" stroke="black" points="789.3,-332.11 795.96,-323.87 785.62,-326.16 789.3,-332.11"/>
</g>
<!-- 57 -->
<g id="node14" class="node">
<title>57</title>
<ellipse fill="none" stroke="black" cx="602.2" cy="-450" rx="47.55" ry="18"/>
<text text-anchor="middle" x="602.2" y="-445.8" font-family="Times,serif" font-size="14.00">MINERS</text>
</g>
<!-- 57&#45;&gt;56 -->
<g id="edge20" class="edge">
<title>57&#45;&gt;56</title>
<path fill="none" stroke="black" d="M625.1,-434.15C639.73,-424.67 658.98,-412.2 675.46,-401.51"/>
<polygon fill="black" stroke="black" points="677.81,-404.17 684.29,-395.79 674,-398.29 677.81,-404.17"/>
</g>
<!-- 55 -->
<g id="node15" class="node">
<title>55</title>
<ellipse fill="none" stroke="black" cx="131.2" cy="-306" rx="131.39" ry="18"/>
<text text-anchor="middle" x="131.2" y="-301.8" font-family="Times,serif" font-size="14.00">ALL&#45;SEAL&#45;SIZE&#45;PER&#45;YEAR</text>
</g>
<!-- 54 -->
<g id="node16" class="node">
<title>54</title>
<ellipse fill="none" stroke="black" cx="224.2" cy="-378" rx="161.01" ry="18"/>
<text text-anchor="middle" x="224.2" y="-373.8" font-family="Times,serif" font-size="14.00">ALL&#45;SEAL&#45;MESSAGES&#45;PER&#45;YEAR</text>
</g>
<!-- 54&#45;&gt;58 -->
<g id="edge18" class="edge">
<title>54&#45;&gt;58</title>
<path fill="none" stroke="black" d="M277.19,-360.94C311.28,-350.61 355.77,-337.13 391.74,-326.23"/>
<polygon fill="black" stroke="black" points="393.09,-329.48 401.65,-323.23 391.06,-322.78 393.09,-329.48"/>
</g>
<!-- 54&#45;&gt;55 -->
<g id="edge23" class="edge">
<title>54&#45;&gt;55</title>
<path fill="none" stroke="black" d="M201.68,-360.05C189.69,-351.03 174.76,-339.79 161.74,-329.99"/>
<polygon fill="black" stroke="black" points="163.6,-327.01 153.5,-323.79 159.39,-332.6 163.6,-327.01"/>
</g>
<!-- 53 -->
<g id="node17" class="node">
<title>53</title>
<ellipse fill="none" stroke="black" cx="447.2" cy="-450" rx="89.82" ry="18"/>
<text text-anchor="middle" x="447.2" y="-445.8" font-family="Times,serif" font-size="14.00">SECTORS&#45;COUNT</text>
</g>
<!-- 53&#45;&gt;56 -->
<g id="edge22" class="edge">
<title>53&#45;&gt;56</title>
<path fill="none" stroke="black" d="M498.84,-435.25C539.45,-424.44 596.42,-409.28 640.97,-397.42"/>
<polygon fill="black" stroke="black" points="642.1,-400.75 650.86,-394.79 640.3,-393.98 642.1,-400.75"/>
</g>
<!-- 53&#45;&gt;54 -->
<g id="edge25" class="edge">
<title>53&#45;&gt;54</title>
<path fill="none" stroke="black" d="M400.99,-434.5C367.38,-423.95 321.55,-409.56 284.97,-398.08"/>
<polygon fill="black" stroke="black" points="285.99,-394.73 275.4,-395.07 283.9,-401.41 285.99,-394.73"/>
</g>
<!-- 52 -->
<g id="node18" class="node">
<title>52</title>
<ellipse fill="none" stroke="black" cx="429.2" cy="-522" rx="158.63" ry="18"/>
<text text-anchor="middle" x="429.2" y="-517.8" font-family="Times,serif" font-size="14.00">STORAGE&#45;NETWORK&#45;CAPACITY</text>
</g>
<!-- 52&#45;&gt;53 -->
<g id="edge26" class="edge">
<title>52&#45;&gt;53</title>
<path fill="none" stroke="black" d="M433.65,-503.7C435.65,-495.9 438.07,-486.51 440.3,-477.83"/>
<polygon fill="black" stroke="black" points="443.7,-478.66 442.8,-468.1 436.92,-476.92 443.7,-478.66"/>
</g>
<!-- 48 -->
<g id="node19" class="node">
<title>48</title>
<ellipse fill="none" stroke="black" cx="819.2" cy="-522" rx="139.04" ry="18"/>
<text text-anchor="middle" x="819.2" y="-517.8" font-family="Times,serif" font-size="14.00">PROVING&#45;PERIOD&#45;SECONDS</text>
</g>
<!-- 51 -->
<g id="node20" class="node">
<title>51</title>
<ellipse fill="none" stroke="black" cx="819.2" cy="-450" rx="151.74" ry="18"/>
<text text-anchor="middle" x="819.2" y="-445.8" font-family="Times,serif" font-size="14.00">POSTS&#45;PER&#45;SECTOR&#45;PER&#45;YEAR</text>
</g>
<!-- 48&#45;&gt;51 -->
<g id="edge29" class="edge">
<title>48&#45;&gt;51</title>
<path fill="none" stroke="black" d="M819.2,-503.7C819.2,-495.98 819.2,-486.71 819.2,-478.11"/>
<polygon fill="black" stroke="black" points="822.7,-478.1 819.2,-468.1 815.7,-478.1 822.7,-478.1"/>
</g>
<!-- 51&#45;&gt;56 -->
<g id="edge21" class="edge">
<title>51&#45;&gt;56</title>
<path fill="none" stroke="black" d="M793.09,-432.23C778.77,-423.04 760.82,-411.51 745.29,-401.54"/>
<polygon fill="black" stroke="black" points="746.78,-398.33 736.47,-395.87 742.99,-404.22 746.78,-398.33"/>
</g>
<!-- 50 -->
<g id="node21" class="node">
<title>50</title>
<ellipse fill="none" stroke="black" cx="187.2" cy="-450" rx="152.29" ry="18"/>
<text text-anchor="middle" x="187.2" y="-445.8" font-family="Times,serif" font-size="14.00">SEALS&#45;PER&#45;SECTOR&#45;PER&#45;YEAR</text>
</g>
<!-- 50&#45;&gt;54 -->
<g id="edge24" class="edge">
<title>50&#45;&gt;54</title>
<path fill="none" stroke="black" d="M196.34,-431.7C200.6,-423.64 205.75,-413.89 210.46,-404.98"/>
<polygon fill="black" stroke="black" points="213.58,-406.58 215.16,-396.1 207.39,-403.31 213.58,-406.58"/>
</g>
<!-- 49 -->
<g id="node22" class="node">
<title>49</title>
<ellipse fill="none" stroke="black" cx="187.2" cy="-522" rx="47.54" ry="18"/>
<text text-anchor="middle" x="187.2" y="-517.8" font-family="Times,serif" font-size="14.00">RESEAL</text>
</g>
<!-- 49&#45;&gt;50 -->
<g id="edge31" class="edge">
<title>49&#45;&gt;50</title>
<path fill="none" stroke="black" d="M187.2,-503.7C187.2,-495.98 187.2,-486.71 187.2,-478.11"/>
<polygon fill="black" stroke="black" points="190.7,-478.1 187.2,-468.1 183.7,-478.1 190.7,-478.1"/>
</g>
<!-- 47 -->
<g id="node23" class="node">
<title>47</title>
<ellipse fill="none" stroke="black" cx="819.2" cy="-594" rx="128" ry="18"/>
<text text-anchor="middle" x="819.2" y="-589.8" font-family="Times,serif" font-size="14.00">PROVING&#45;PERIOD&#45;HOURS</text>
</g>
<!-- 47&#45;&gt;48 -->
<g id="edge32" class="edge">
<title>47&#45;&gt;48</title>
<path fill="none" stroke="black" d="M819.2,-575.7C819.2,-567.98 819.2,-558.71 819.2,-550.11"/>
<polygon fill="black" stroke="black" points="822.7,-550.1 819.2,-540.1 815.7,-550.1 822.7,-550.1"/>
</g>
<!-- 46 -->
<g id="node24" class="node">
<title>46</title>
<ellipse fill="none" stroke="black" cx="1251.2" cy="-162" rx="76.47" ry="18"/>
<text text-anchor="middle" x="1251.2" y="-157.8" font-family="Times,serif" font-size="14.00">MAX&#45;TICKETS</text>
</g>
<!-- 45 -->
<g id="node25" class="node">
<title>45</title>
<ellipse fill="none" stroke="black" cx="1120.2" cy="-234" rx="137.19" ry="18"/>
<text text-anchor="middle" x="1120.2" y="-229.8" font-family="Times,serif" font-size="14.00">ONE&#45;BLOCK&#45;IN&#45;TEN&#45;YEARS</text>
</g>
<!-- 45&#45;&gt;46 -->
<g id="edge33" class="edge">
<title>45&#45;&gt;46</title>
<path fill="none" stroke="black" d="M1151.24,-216.41C1169.66,-206.57 1193.16,-194.01 1212.75,-183.54"/>
<polygon fill="black" stroke="black" points="1214.55,-186.55 1221.72,-178.75 1211.25,-180.37 1214.55,-186.55"/>
</g>
<!-- 44 -->
<g id="node26" class="node">
<title>44</title>
<ellipse fill="none" stroke="black" cx="1135.2" cy="-306" rx="119.31" ry="18"/>
<text text-anchor="middle" x="1135.2" y="-301.8" font-family="Times,serif" font-size="14.00">BLOCKS&#45;IN&#45;TEN&#45;YEARS</text>
</g>
<!-- 44&#45;&gt;45 -->
<g id="edge34" class="edge">
<title>44&#45;&gt;45</title>
<path fill="none" stroke="black" d="M1131.49,-287.7C1129.84,-279.98 1127.85,-270.71 1126.01,-262.11"/>
<polygon fill="black" stroke="black" points="1129.38,-261.15 1123.86,-252.1 1122.53,-262.62 1129.38,-261.15"/>
</g>
<!-- 41 -->
<g id="node27" class="node">
<title>41</title>
<ellipse fill="none" stroke="black" cx="1135.2" cy="-378" rx="102.47" ry="18"/>
<text text-anchor="middle" x="1135.2" y="-373.8" font-family="Times,serif" font-size="14.00">BLOCKS&#45;IN&#45;A&#45;YEAR</text>
</g>
<!-- 41&#45;&gt;59 -->
<g id="edge17" class="edge">
<title>41&#45;&gt;59</title>
<path fill="none" stroke="black" d="M1074.67,-363.42C1025.54,-352.4 955.88,-336.77 902.33,-324.75"/>
<polygon fill="black" stroke="black" points="903.05,-321.33 892.53,-322.56 901.52,-328.16 903.05,-321.33"/>
</g>
<!-- 41&#45;&gt;58 -->
<g id="edge19" class="edge">
<title>41&#45;&gt;58</title>
<path fill="none" stroke="black" d="M1049.42,-368.17C932.12,-356.09 720.7,-334.33 584.24,-320.28"/>
<polygon fill="black" stroke="black" points="584.44,-316.79 574.13,-319.24 583.72,-323.75 584.44,-316.79"/>
</g>
<!-- 41&#45;&gt;44 -->
<g id="edge35" class="edge">
<title>41&#45;&gt;44</title>
<path fill="none" stroke="black" d="M1135.2,-359.7C1135.2,-351.98 1135.2,-342.71 1135.2,-334.11"/>
<polygon fill="black" stroke="black" points="1138.7,-334.1 1135.2,-324.1 1131.7,-334.1 1138.7,-334.1"/>
</g>
<!-- 43 -->
<g id="node28" class="node">
<title>43</title>
<ellipse fill="none" stroke="black" cx="1135.2" cy="-450" rx="146.51" ry="18"/>
<text text-anchor="middle" x="1135.2" y="-445.8" font-family="Times,serif" font-size="14.00">EXPECTED&#45;WINNING&#45;MINERS</text>
</g>
<!-- 43&#45;&gt;41 -->
<g id="edge36" class="edge">
<title>43&#45;&gt;41</title>
<path fill="none" stroke="black" d="M1135.2,-431.7C1135.2,-423.98 1135.2,-414.71 1135.2,-406.11"/>
<polygon fill="black" stroke="black" points="1138.7,-406.1 1135.2,-396.1 1131.7,-406.1 1138.7,-406.1"/>
</g>
<!-- 42 -->
<g id="node29" class="node">
<title>42</title>
<ellipse fill="none" stroke="black" cx="1192.2" cy="-522" rx="97.9" ry="18"/>
<text text-anchor="middle" x="1192.2" y="-517.8" font-family="Times,serif" font-size="14.00">YEAR&#45;IN&#45;SECONDS</text>
</g>
<!-- 42&#45;&gt;51 -->
<g id="edge30" class="edge">
<title>42&#45;&gt;51</title>
<path fill="none" stroke="black" d="M1126.37,-508.65C1065.3,-497.19 973.97,-480.05 906.77,-467.43"/>
<polygon fill="black" stroke="black" points="907.09,-463.93 896.62,-465.53 905.8,-470.81 907.09,-463.93"/>
</g>
<!-- 42&#45;&gt;41 -->
<g id="edge37" class="edge">
<title>42&#45;&gt;41</title>
<path fill="none" stroke="black" d="M1242.36,-506.45C1261.07,-498.32 1280.38,-486.06 1291.2,-468 1299.42,-454.27 1300.51,-445.01 1291.2,-432 1276.56,-411.56 1253.58,-398.91 1229.72,-391.11"/>
<polygon fill="black" stroke="black" points="1230.41,-387.66 1219.82,-388.15 1228.4,-394.37 1230.41,-387.66"/>
</g>
<!-- 40 -->
<g id="node30" class="node">
<title>40</title>
<ellipse fill="none" stroke="black" cx="1195.2" cy="-882" rx="50.97" ry="18"/>
<text text-anchor="middle" x="1195.2" y="-877.8" font-family="Times,serif" font-size="14.00">TICKETS</text>
</g>
<!-- 39 -->
<g id="node31" class="node">
<title>39</title>
<ellipse fill="none" stroke="black" cx="1195.2" cy="-954" rx="74.74" ry="18"/>
<text text-anchor="middle" x="1195.2" y="-949.8" font-family="Times,serif" font-size="14.00">AVG&#45;TICKETS</text>
</g>
<!-- 39&#45;&gt;40 -->
<g id="edge39" class="edge">
<title>39&#45;&gt;40</title>
<path fill="none" stroke="black" d="M1195.2,-935.7C1195.2,-927.98 1195.2,-918.71 1195.2,-910.11"/>
<polygon fill="black" stroke="black" points="1198.7,-910.1 1195.2,-900.1 1191.7,-910.1 1198.7,-910.1"/>
</g>
<!-- 36 -->
<g id="node32" class="node">
<title>36</title>
<ellipse fill="none" stroke="black" cx="2641.2" cy="-450" rx="122.73" ry="18"/>
<text text-anchor="middle" x="2641.2" y="-445.8" font-family="Times,serif" font-size="14.00">POST&#45;CHALLENGE&#45;TIME</text>
</g>
<!-- 38 -->
<g id="node33" class="node">
<title>38</title>
<ellipse fill="none" stroke="black" cx="2641.2" cy="-378" rx="137.23" ry="18"/>
<text text-anchor="middle" x="2641.2" y="-373.8" font-family="Times,serif" font-size="14.00">POST&#45;CHALLENGE&#45;BLOCKS</text>
</g>
<!-- 36&#45;&gt;38 -->
<g id="edge40" class="edge">
<title>36&#45;&gt;38</title>
<path fill="none" stroke="black" d="M2641.2,-431.7C2641.2,-423.98 2641.2,-414.71 2641.2,-406.11"/>
<polygon fill="black" stroke="black" points="2644.7,-406.1 2641.2,-396.1 2637.7,-406.1 2644.7,-406.1"/>
</g>
<!-- 37 -->
<g id="node34" class="node">
<title>37</title>
<ellipse fill="none" stroke="black" cx="2020.2" cy="-450" rx="70.66" ry="18"/>
<text text-anchor="middle" x="2020.2" y="-445.8" font-family="Times,serif" font-size="14.00">BLOCK&#45;TIME</text>
</g>
<!-- 37&#45;&gt;41 -->
<g id="edge38" class="edge">
<title>37&#45;&gt;41</title>
<path fill="none" stroke="black" d="M1953.68,-443.74C1800.01,-431.58 1419.54,-401.49 1236.61,-387.02"/>
<polygon fill="black" stroke="black" points="1236.69,-383.52 1226.45,-386.22 1236.14,-390.5 1236.69,-383.52"/>
</g>
<!-- 37&#45;&gt;38 -->
<g id="edge41" class="edge">
<title>37&#45;&gt;38</title>
<path fill="none" stroke="black" d="M2083.59,-442.02C2174.68,-431.98 2347.83,-412.8 2495.2,-396 2507.3,-394.62 2519.97,-393.16 2532.57,-391.71"/>
<polygon fill="black" stroke="black" points="2533.11,-395.17 2542.64,-390.54 2532.31,-388.21 2533.11,-395.17"/>
</g>
<!-- 35 -->
<g id="node35" class="node">
<title>35</title>
<ellipse fill="none" stroke="black" cx="2641.2" cy="-522" rx="132" ry="18"/>
<text text-anchor="middle" x="2641.2" y="-517.8" font-family="Times,serif" font-size="14.00">POST&#45;CHALLENGE&#45;HOURS</text>
</g>
<!-- 35&#45;&gt;36 -->
<g id="edge42" class="edge">
<title>35&#45;&gt;36</title>
<path fill="none" stroke="black" d="M2641.2,-503.7C2641.2,-495.98 2641.2,-486.71 2641.2,-478.11"/>
<polygon fill="black" stroke="black" points="2644.7,-478.1 2641.2,-468.1 2637.7,-478.1 2644.7,-478.1"/>
</g>
<!-- 33 -->
<g id="node36" class="node">
<title>33</title>
<ellipse fill="none" stroke="black" cx="923.2" cy="-666" rx="88.06" ry="18"/>
<text text-anchor="middle" x="923.2" y="-661.8" font-family="Times,serif" font-size="14.00">ENCODING&#45;TIME</text>
</g>
<!-- 34 -->
<g id="node37" class="node">
<title>34</title>
<ellipse fill="none" stroke="black" cx="1103.2" cy="-738" rx="83.43" ry="18"/>
<text text-anchor="middle" x="1103.2" y="-733.8" font-family="Times,serif" font-size="14.00">KDF&#45;HASH&#45;SIZE</text>
</g>
<!-- 34&#45;&gt;33 -->
<g id="edge43" class="edge">
<title>34&#45;&gt;33</title>
<path fill="none" stroke="black" d="M1064.58,-721.98C1037.48,-711.44 1001.03,-697.27 971.93,-685.95"/>
<polygon fill="black" stroke="black" points="972.96,-682.6 962.37,-682.23 970.42,-689.12 972.96,-682.6"/>
</g>
<!-- 32 -->
<g id="node38" class="node">
<title>32</title>
<ellipse fill="none" stroke="black" cx="923.2" cy="-738" rx="78.76" ry="18"/>
<text text-anchor="middle" x="923.2" y="-733.8" font-family="Times,serif" font-size="14.00">KDF&#45;CONTENT</text>
</g>
<!-- 32&#45;&gt;33 -->
<g id="edge45" class="edge">
<title>32&#45;&gt;33</title>
<path fill="none" stroke="black" d="M923.2,-719.7C923.2,-711.98 923.2,-702.71 923.2,-694.11"/>
<polygon fill="black" stroke="black" points="926.7,-694.1 923.2,-684.1 919.7,-694.1 926.7,-694.1"/>
</g>
<!-- 31 -->
<g id="node39" class="node">
<title>31</title>
<ellipse fill="none" stroke="black" cx="727.2" cy="-666" rx="43.46" ry="18"/>
<text text-anchor="middle" x="727.2" y="-661.8" font-family="Times,serif" font-size="14.00">NODES</text>
</g>
<!-- 30 -->
<g id="node40" class="node">
<title>30</title>
<ellipse fill="none" stroke="black" cx="765.2" cy="-738" rx="61.41" ry="18"/>
<text text-anchor="middle" x="765.2" y="-733.8" font-family="Times,serif" font-size="14.00">NODE&#45;SIZE</text>
</g>
<!-- 30&#45;&gt;33 -->
<g id="edge44" class="edge">
<title>30&#45;&gt;33</title>
<path fill="none" stroke="black" d="M797.55,-722.67C821.03,-712.26 853.07,-698.07 878.92,-686.61"/>
<polygon fill="black" stroke="black" points="880.42,-689.78 888.14,-682.53 877.58,-683.38 880.42,-689.78"/>
</g>
<!-- 30&#45;&gt;31 -->
<g id="edge48" class="edge">
<title>30&#45;&gt;31</title>
<path fill="none" stroke="black" d="M756,-720.05C751.56,-711.89 746.15,-701.91 741.22,-692.82"/>
<polygon fill="black" stroke="black" points="744.16,-690.91 736.31,-683.79 738.01,-694.25 744.16,-690.91"/>
</g>
<!-- 29 -->
<g id="node41" class="node">
<title>29</title>
<ellipse fill="none" stroke="black" cx="614.2" cy="-810" rx="91.52" ry="18"/>
<text text-anchor="middle" x="614.2" y="-805.8" font-family="Times,serif" font-size="14.00">SECTOR&#45;SIZE&#45;GIB</text>
</g>
<!-- 28 -->
<g id="node42" class="node">
<title>28</title>
<ellipse fill="none" stroke="black" cx="614.2" cy="-738" rx="71.82" ry="18"/>
<text text-anchor="middle" x="614.2" y="-733.8" font-family="Times,serif" font-size="14.00">SECTOR&#45;SIZE</text>
</g>
<!-- 29&#45;&gt;28 -->
<g id="edge49" class="edge">
<title>29&#45;&gt;28</title>
<path fill="none" stroke="black" d="M614.2,-791.7C614.2,-783.98 614.2,-774.71 614.2,-766.11"/>
<polygon fill="black" stroke="black" points="617.7,-766.1 614.2,-756.1 610.7,-766.1 617.7,-766.1"/>
</g>
<!-- 28&#45;&gt;53 -->
<g id="edge27" class="edge">
<title>28&#45;&gt;53</title>
<path fill="none" stroke="black" d="M618.66,-719.9C628.48,-678.14 647.28,-569.61 597.2,-504 586.4,-489.85 548.45,-476.52 513.43,-466.76"/>
<polygon fill="black" stroke="black" points="514.23,-463.35 503.66,-464.11 512.39,-470.11 514.23,-463.35"/>
</g>
<!-- 28&#45;&gt;31 -->
<g id="edge47" class="edge">
<title>28&#45;&gt;31</title>
<path fill="none" stroke="black" d="M639.84,-721.12C656.25,-710.95 677.68,-697.68 695.2,-686.82"/>
<polygon fill="black" stroke="black" points="697.3,-689.63 703.96,-681.39 693.62,-683.68 697.3,-689.63"/>
</g>
<!-- 27 -->
<g id="node43" class="node">
<title>27</title>
<ellipse fill="none" stroke="black" cx="1022.2" cy="-882" rx="103.69" ry="18"/>
<text text-anchor="middle" x="1022.2" y="-877.8" font-family="Times,serif" font-size="14.00">DEGREE&#45;EXPANDER</text>
</g>
<!-- 26 -->
<g id="node44" class="node">
<title>26</title>
<ellipse fill="none" stroke="black" cx="923.2" cy="-810" rx="49.24" ry="18"/>
<text text-anchor="middle" x="923.2" y="-805.8" font-family="Times,serif" font-size="14.00">DEGREE</text>
</g>
<!-- 27&#45;&gt;26 -->
<g id="edge51" class="edge">
<title>27&#45;&gt;26</title>
<path fill="none" stroke="black" d="M998.74,-864.41C985.06,-854.75 967.69,-842.46 953.05,-832.11"/>
<polygon fill="black" stroke="black" points="954.98,-829.19 944.8,-826.27 950.94,-834.91 954.98,-829.19"/>
</g>
<!-- 26&#45;&gt;32 -->
<g id="edge46" class="edge">
<title>26&#45;&gt;32</title>
<path fill="none" stroke="black" d="M923.2,-791.7C923.2,-783.98 923.2,-774.71 923.2,-766.11"/>
<polygon fill="black" stroke="black" points="926.7,-766.1 923.2,-756.1 919.7,-766.1 926.7,-766.1"/>
</g>
<!-- 25 -->
<g id="node45" class="node">
<title>25</title>
<ellipse fill="none" stroke="black" cx="823.2" cy="-882" rx="77.04" ry="18"/>
<text text-anchor="middle" x="823.2" y="-877.8" font-family="Times,serif" font-size="14.00">DEGREE&#45;BASE</text>
</g>
<!-- 25&#45;&gt;26 -->
<g id="edge52" class="edge">
<title>25&#45;&gt;26</title>
<path fill="none" stroke="black" d="M846.39,-864.76C860.28,-855.04 878.09,-842.57 893.06,-832.09"/>
<polygon fill="black" stroke="black" points="895.31,-834.79 901.5,-826.19 891.3,-829.06 895.31,-834.79"/>
</g>
<!-- 23 -->
<g id="node46" class="node">
<title>23</title>
<ellipse fill="none" stroke="black" cx="2259.2" cy="-162" rx="98.48" ry="18"/>
<text text-anchor="middle" x="2259.2" y="-157.8" font-family="Times,serif" font-size="14.00">MESSAGE&#45;RECEIPT</text>
</g>
<!-- 23&#45;&gt;65 -->
<g id="edge8" class="edge">
<title>23&#45;&gt;65</title>
<path fill="none" stroke="black" d="M2187.31,-149.59C2068.37,-131.05 1822.99,-94.21 1614.2,-72 1390.83,-48.24 1126.64,-31.42 993.34,-23.72"/>
<polygon fill="black" stroke="black" points="993.38,-20.22 983.19,-23.14 992.97,-27.21 993.38,-20.22"/>
</g>
<!-- 24 -->
<g id="node47" class="node">
<title>24</title>
<ellipse fill="none" stroke="black" cx="1913.2" cy="-234" rx="58.58" ry="18"/>
<text text-anchor="middle" x="1913.2" y="-229.8" font-family="Times,serif" font-size="14.00">GAS&#45;USED</text>
</g>
<!-- 24&#45;&gt;23 -->
<g id="edge53" class="edge">
<title>24&#45;&gt;23</title>
<path fill="none" stroke="black" d="M1956.35,-221.64C1964.27,-219.67 1972.46,-217.71 1980.2,-216 2047.4,-201.11 2124.29,-186.69 2180.31,-176.67"/>
<polygon fill="black" stroke="black" points="2180.93,-180.11 2190.16,-174.91 2179.7,-173.22 2180.93,-180.11"/>
</g>
<!-- 22 -->
<g id="node48" class="node">
<title>22</title>
<ellipse fill="none" stroke="black" cx="2735.2" cy="-234" rx="49.83" ry="18"/>
<text text-anchor="middle" x="2735.2" y="-229.8" font-family="Times,serif" font-size="14.00">RETURN</text>
</g>
<!-- 22&#45;&gt;23 -->
<g id="edge56" class="edge">
<title>22&#45;&gt;23</title>
<path fill="none" stroke="black" d="M2699.22,-221.49C2691.98,-219.45 2684.39,-217.5 2677.2,-216 2568.99,-193.43 2442.89,-179.04 2357.72,-171.04"/>
<polygon fill="black" stroke="black" points="2357.82,-167.53 2347.54,-170.09 2357.17,-174.5 2357.82,-167.53"/>
</g>
<!-- 21 -->
<g id="node49" class="node">
<title>21</title>
<ellipse fill="none" stroke="black" cx="2605.2" cy="-234" rx="62.56" ry="18"/>
<text text-anchor="middle" x="2605.2" y="-229.8" font-family="Times,serif" font-size="14.00">EXIT&#45;CODE</text>
</g>
<!-- 21&#45;&gt;23 -->
<g id="edge55" class="edge">
<title>21&#45;&gt;23</title>
<path fill="none" stroke="black" d="M2559.43,-221.73C2551.05,-219.75 2542.37,-217.77 2534.2,-216 2467.76,-201.65 2391.87,-187.17 2336.67,-176.98"/>
<polygon fill="black" stroke="black" points="2337.08,-173.49 2326.61,-175.13 2335.81,-180.38 2337.08,-173.49"/>
</g>
<!-- 20 -->
<g id="node50" class="node">
<title>20</title>
<ellipse fill="none" stroke="black" cx="2621.2" cy="-306" rx="123.92" ry="18"/>
<text text-anchor="middle" x="2621.2" y="-301.8" font-family="Times,serif" font-size="14.00">MESSAGE&#45;RECEIPTS&#45;CID</text>
</g>
<!-- 12 -->
<g id="node51" class="node">
<title>12</title>
<ellipse fill="none" stroke="black" cx="1705.2" cy="-162" rx="79.92" ry="18"/>
<text text-anchor="middle" x="1705.2" y="-157.8" font-family="Times,serif" font-size="14.00">MESSAGE&#45;SIZE</text>
</g>
<!-- 12&#45;&gt;63 -->
<g id="edge11" class="edge">
<title>12&#45;&gt;63</title>
<path fill="none" stroke="black" d="M1665.96,-146.15C1637.73,-135.47 1599.45,-120.99 1569.21,-109.54"/>
<polygon fill="black" stroke="black" points="1570.28,-106.21 1559.69,-105.94 1567.81,-112.76 1570.28,-106.21"/>
</g>
<!-- 19 -->
<g id="node52" class="node">
<title>19</title>
<ellipse fill="none" stroke="black" cx="1469.2" cy="-234" rx="88.08" ry="18"/>
<text text-anchor="middle" x="1469.2" y="-229.8" font-family="Times,serif" font-size="14.00">ACTOR&#45;METHOD</text>
</g>
<!-- 19&#45;&gt;12 -->
<g id="edge60" class="edge">
<title>19&#45;&gt;12</title>
<path fill="none" stroke="black" d="M1516.95,-218.83C1555.15,-207.5 1608.79,-191.59 1649.05,-179.65"/>
<polygon fill="black" stroke="black" points="1650.12,-182.99 1658.72,-176.79 1648.13,-176.27 1650.12,-182.99"/>
</g>
<!-- 18 -->
<g id="node53" class="node">
<title>18</title>
<ellipse fill="none" stroke="black" cx="1636.2" cy="-234" rx="60.27" ry="18"/>
<text text-anchor="middle" x="1636.2" y="-229.8" font-family="Times,serif" font-size="14.00">GAS&#45;LIMIT</text>
</g>
<!-- 18&#45;&gt;12 -->
<g id="edge62" class="edge">
<title>18&#45;&gt;12</title>
<path fill="none" stroke="black" d="M1652.55,-216.41C1661.1,-207.73 1671.74,-196.95 1681.2,-187.34"/>
<polygon fill="black" stroke="black" points="1683.96,-189.54 1688.48,-179.96 1678.97,-184.62 1683.96,-189.54"/>
</g>
<!-- 17 -->
<g id="node54" class="node">
<title>17</title>
<ellipse fill="none" stroke="black" cx="1775.2" cy="-234" rx="60.88" ry="18"/>
<text text-anchor="middle" x="1775.2" y="-229.8" font-family="Times,serif" font-size="14.00">GAS&#45;PRICE</text>
</g>
<!-- 17&#45;&gt;12 -->
<g id="edge64" class="edge">
<title>17&#45;&gt;12</title>
<path fill="none" stroke="black" d="M1758.61,-216.41C1749.84,-207.65 1738.93,-196.73 1729.25,-187.06"/>
<polygon fill="black" stroke="black" points="1731.7,-184.55 1722.15,-179.96 1726.75,-189.5 1731.7,-184.55"/>
</g>
<!-- 16 -->
<g id="node55" class="node">
<title>16</title>
<ellipse fill="none" stroke="black" cx="1319.2" cy="-234" rx="43.51" ry="18"/>
<text text-anchor="middle" x="1319.2" y="-229.8" font-family="Times,serif" font-size="14.00">VALUE</text>
</g>
<!-- 16&#45;&gt;12 -->
<g id="edge66" class="edge">
<title>16&#45;&gt;12</title>
<path fill="none" stroke="black" d="M1351.49,-221.78C1358.28,-219.66 1365.43,-217.61 1372.2,-216 1457.77,-195.59 1557.64,-180.88 1625.52,-172.21"/>
<polygon fill="black" stroke="black" points="1626.23,-175.65 1635.71,-170.92 1625.35,-168.7 1626.23,-175.65"/>
</g>
<!-- 15 -->
<g id="node56" class="node">
<title>15</title>
<ellipse fill="none" stroke="black" cx="1636.2" cy="-306" rx="27.84" ry="18"/>
<text text-anchor="middle" x="1636.2" y="-301.8" font-family="Times,serif" font-size="14.00">U64</text>
</g>
<!-- 15&#45;&gt;24 -->
<g id="edge54" class="edge">
<title>15&#45;&gt;24</title>
<path fill="none" stroke="black" d="M1661.76,-298.54C1706.45,-287.25 1799.69,-263.68 1859.21,-248.64"/>
<polygon fill="black" stroke="black" points="1860.35,-251.96 1869.19,-246.12 1858.64,-245.18 1860.35,-251.96"/>
</g>
<!-- 15&#45;&gt;19 -->
<g id="edge61" class="edge">
<title>15&#45;&gt;19</title>
<path fill="none" stroke="black" d="M1613.33,-295.41C1588.31,-284.93 1547.54,-267.84 1515.74,-254.51"/>
<polygon fill="black" stroke="black" points="1516.76,-251.14 1506.18,-250.5 1514.05,-257.6 1516.76,-251.14"/>
</g>
<!-- 15&#45;&gt;18 -->
<g id="edge63" class="edge">
<title>15&#45;&gt;18</title>
<path fill="none" stroke="black" d="M1636.2,-287.7C1636.2,-279.98 1636.2,-270.71 1636.2,-262.11"/>
<polygon fill="black" stroke="black" points="1639.7,-262.1 1636.2,-252.1 1632.7,-262.1 1639.7,-262.1"/>
</g>
<!-- 15&#45;&gt;17 -->
<g id="edge65" class="edge">
<title>15&#45;&gt;17</title>
<path fill="none" stroke="black" d="M1657.61,-294.22C1678.64,-283.63 1711.18,-267.24 1736.7,-254.39"/>
<polygon fill="black" stroke="black" points="1738.4,-257.45 1745.75,-249.83 1735.25,-251.2 1738.4,-257.45"/>
</g>
<!-- 15&#45;&gt;16 -->
<g id="edge67" class="edge">
<title>15&#45;&gt;16</title>
<path fill="none" stroke="black" d="M1609.74,-300.7C1561.94,-292.71 1458.16,-274.34 1372.2,-252 1368.77,-251.11 1365.24,-250.13 1361.71,-249.1"/>
<polygon fill="black" stroke="black" points="1362.41,-245.65 1351.82,-246.1 1360.38,-252.35 1362.41,-245.65"/>
</g>
<!-- 14 -->
<g id="node57" class="node">
<title>14</title>
<ellipse fill="none" stroke="black" cx="2432.2" cy="-234" rx="92.68" ry="18"/>
<text text-anchor="middle" x="2432.2" y="-229.8" font-family="Times,serif" font-size="14.00">MESSAGE&#45;NONCE</text>
</g>
<!-- 14&#45;&gt;12 -->
<g id="edge68" class="edge">
<title>14&#45;&gt;12</title>
<path fill="none" stroke="black" d="M2366.47,-221.25C2354.43,-219.32 2341.95,-217.48 2330.2,-216 2138.59,-191.95 1912.54,-175.79 1791.7,-168.13"/>
<polygon fill="black" stroke="black" points="1791.61,-164.61 1781.41,-167.48 1791.17,-171.6 1791.61,-164.61"/>
</g>
<!-- 13 -->
<g id="node58" class="node">
<title>13</title>
<ellipse fill="none" stroke="black" cx="2432.2" cy="-306" rx="47.53" ry="18"/>
<text text-anchor="middle" x="2432.2" y="-301.8" font-family="Times,serif" font-size="14.00">VARINT</text>
</g>
<!-- 13&#45;&gt;22 -->
<g id="edge57" class="edge">
<title>13&#45;&gt;22</title>
<path fill="none" stroke="black" d="M2467.29,-293.72C2474.18,-291.68 2481.39,-289.68 2488.2,-288 2571.23,-267.55 2594.07,-272.05 2677.2,-252 2680.99,-251.09 2684.91,-250.08 2688.83,-249.02"/>
<polygon fill="black" stroke="black" points="2689.82,-252.38 2698.52,-246.33 2687.95,-245.63 2689.82,-252.38"/>
</g>
<!-- 13&#45;&gt;21 -->
<g id="edge58" class="edge">
<title>13&#45;&gt;21</title>
<path fill="none" stroke="black" d="M2463.53,-292.32C2490.76,-281.3 2530.53,-265.21 2561,-252.88"/>
<polygon fill="black" stroke="black" points="2562.58,-256.02 2570.54,-249.02 2559.95,-249.53 2562.58,-256.02"/>
</g>
<!-- 13&#45;&gt;14 -->
<g id="edge69" class="edge">
<title>13&#45;&gt;14</title>
<path fill="none" stroke="black" d="M2432.2,-287.7C2432.2,-279.98 2432.2,-270.71 2432.2,-262.11"/>
<polygon fill="black" stroke="black" points="2435.7,-262.1 2432.2,-252.1 2428.7,-262.1 2435.7,-262.1"/>
</g>
<!-- 11 -->
<g id="node59" class="node">
<title>11</title>
<ellipse fill="none" stroke="black" cx="2075.2" cy="-234" rx="85.76" ry="18"/>
<text text-anchor="middle" x="2075.2" y="-229.8" font-family="Times,serif" font-size="14.00">FROM&#45;ADDRESS</text>
</g>
<!-- 11&#45;&gt;12 -->
<g id="edge70" class="edge">
<title>11&#45;&gt;12</title>
<path fill="none" stroke="black" d="M2013.68,-221.36C1947.58,-208.86 1842.77,-189.03 1773.98,-176.01"/>
<polygon fill="black" stroke="black" points="1774.58,-172.56 1764.1,-174.14 1773.28,-179.44 1774.58,-172.56"/>
</g>
<!-- 10 -->
<g id="node60" class="node">
<title>10</title>
<ellipse fill="none" stroke="black" cx="2250.2" cy="-234" rx="71.26" ry="18"/>
<text text-anchor="middle" x="2250.2" y="-229.8" font-family="Times,serif" font-size="14.00">TO&#45;ADDRESS</text>
</g>
<!-- 10&#45;&gt;12 -->
<g id="edge71" class="edge">
<title>10&#45;&gt;12</title>
<path fill="none" stroke="black" d="M2199.12,-221.38C2189.54,-219.42 2179.59,-217.53 2170.2,-216 2037.44,-194.38 1881.93,-178.56 1788.61,-170.08"/>
<polygon fill="black" stroke="black" points="1788.66,-166.57 1778.38,-169.15 1788.03,-173.54 1788.66,-166.57"/>
</g>
<!-- 9 -->
<g id="node61" class="node">
<title>9</title>
<ellipse fill="none" stroke="black" cx="2874.2" cy="-306" rx="110.66" ry="18"/>
<text text-anchor="middle" x="2874.2" y="-301.8" font-family="Times,serif" font-size="14.00">MESSAGES&#45;ROOT&#45;CID</text>
</g>
<!-- 8 -->
<g id="node62" class="node">
<title>8</title>
<ellipse fill="none" stroke="black" cx="2250.2" cy="-306" rx="78.78" ry="18"/>
<text text-anchor="middle" x="2250.2" y="-301.8" font-family="Times,serif" font-size="14.00">ADDRESS&#45;SIZE</text>
</g>
<!-- 8&#45;&gt;11 -->
<g id="edge72" class="edge">
<title>8&#45;&gt;11</title>
<path fill="none" stroke="black" d="M2212.65,-289.98C2186.31,-279.44 2150.87,-265.27 2122.58,-253.95"/>
<polygon fill="black" stroke="black" points="2123.86,-250.7 2113.28,-250.23 2121.27,-257.2 2123.86,-250.7"/>
</g>
<!-- 8&#45;&gt;10 -->
<g id="edge73" class="edge">
<title>8&#45;&gt;10</title>
<path fill="none" stroke="black" d="M2250.2,-287.7C2250.2,-279.98 2250.2,-270.71 2250.2,-262.11"/>
<polygon fill="black" stroke="black" points="2253.7,-262.1 2250.2,-252.1 2246.7,-262.1 2253.7,-262.1"/>
</g>
<!-- 7 -->
<g id="node63" class="node">
<title>7</title>
<ellipse fill="none" stroke="black" cx="2435.2" cy="-378" rx="51.04" ry="18"/>
<text text-anchor="middle" x="2435.2" y="-373.8" font-family="Times,serif" font-size="14.00">CID&#45;SIZE</text>
</g>
<!-- 7&#45;&gt;20 -->
<g id="edge59" class="edge">
<title>7&#45;&gt;20</title>
<path fill="none" stroke="black" d="M2468.88,-364.32C2496.77,-353.83 2536.88,-338.73 2568.94,-326.67"/>
<polygon fill="black" stroke="black" points="2570.48,-329.83 2578.61,-323.03 2568.02,-323.27 2570.48,-329.83"/>
</g>
<!-- 7&#45;&gt;9 -->
<g id="edge74" class="edge">
<title>7&#45;&gt;9</title>
<path fill="none" stroke="black" d="M2472.45,-365.59C2479.93,-363.54 2487.78,-361.56 2495.2,-360 2608.93,-336.1 2639.11,-340.15 2754.2,-324 2763.81,-322.65 2773.85,-321.24 2783.86,-319.82"/>
<polygon fill="black" stroke="black" points="2784.43,-323.28 2793.84,-318.41 2783.45,-316.35 2784.43,-323.28"/>
</g>
<!-- 7&#45;&gt;8 -->
<g id="edge75" class="edge">
<title>7&#45;&gt;8</title>
<path fill="none" stroke="black" d="M2401.69,-364.32C2373.01,-353.47 2331.33,-337.7 2298.95,-325.45"/>
<polygon fill="black" stroke="black" points="2299.81,-322.03 2289.22,-321.77 2297.33,-328.58 2299.81,-322.03"/>
</g>
<!-- 6 -->
<g id="node64" class="node">
<title>6</title>
<ellipse fill="none" stroke="black" cx="432.2" cy="-594" rx="27.25" ry="18"/>
<text text-anchor="middle" x="432.2" y="-589.8" font-family="Times,serif" font-size="14.00">EIX</text>
</g>
<!-- 6&#45;&gt;52 -->
<g id="edge28" class="edge">
<title>6&#45;&gt;52</title>
<path fill="none" stroke="black" d="M431.46,-575.7C431.12,-567.98 430.73,-558.71 430.36,-550.11"/>
<polygon fill="black" stroke="black" points="433.85,-549.95 429.93,-540.1 426.86,-550.25 433.85,-549.95"/>
</g>
<!-- 5 -->
<g id="node65" class="node">
<title>5</title>
<ellipse fill="none" stroke="black" cx="438.2" cy="-666" rx="27" ry="18"/>
<text text-anchor="middle" x="438.2" y="-661.8" font-family="Times,serif" font-size="14.00">PIB</text>
</g>
<!-- 5&#45;&gt;6 -->
<g id="edge76" class="edge">
<title>5&#45;&gt;6</title>
<path fill="none" stroke="black" d="M436.71,-647.7C436.05,-639.98 435.26,-630.71 434.52,-622.11"/>
<polygon fill="black" stroke="black" points="438,-621.77 433.66,-612.1 431.03,-622.37 438,-621.77"/>
</g>
<!-- 4 -->
<g id="node66" class="node">
<title>4</title>
<ellipse fill="none" stroke="black" cx="450.2" cy="-738" rx="27" ry="18"/>
<text text-anchor="middle" x="450.2" y="-733.8" font-family="Times,serif" font-size="14.00">TIB</text>
</g>
<!-- 4&#45;&gt;5 -->
<g id="edge77" class="edge">
<title>4&#45;&gt;5</title>
<path fill="none" stroke="black" d="M447.29,-720.05C445.97,-712.35 444.37,-703.03 442.89,-694.36"/>
<polygon fill="black" stroke="black" points="446.3,-693.54 441.16,-684.28 439.4,-694.72 446.3,-693.54"/>
</g>
<!-- 3 -->
<g id="node67" class="node">
<title>3</title>
<ellipse fill="none" stroke="black" cx="475.2" cy="-810" rx="27.84" ry="18"/>
<text text-anchor="middle" x="475.2" y="-805.8" font-family="Times,serif" font-size="14.00">GIB</text>
</g>
<!-- 3&#45;&gt;28 -->
<g id="edge50" class="edge">
<title>3&#45;&gt;28</title>
<path fill="none" stroke="black" d="M496.61,-798.22C517.36,-787.76 549.34,-771.66 574.71,-758.88"/>
<polygon fill="black" stroke="black" points="576.37,-761.97 583.73,-754.34 573.22,-755.72 576.37,-761.97"/>
</g>
<!-- 3&#45;&gt;4 -->
<g id="edge78" class="edge">
<title>3&#45;&gt;4</title>
<path fill="none" stroke="black" d="M469.27,-792.41C466.42,-784.42 462.93,-774.64 459.71,-765.64"/>
<polygon fill="black" stroke="black" points="462.91,-764.2 456.25,-755.96 456.32,-766.55 462.91,-764.2"/>
</g>
<!-- 2 -->
<g id="node68" class="node">
<title>2</title>
<ellipse fill="none" stroke="black" cx="475.2" cy="-882" rx="29.06" ry="18"/>
<text text-anchor="middle" x="475.2" y="-877.8" font-family="Times,serif" font-size="14.00">MIB</text>
</g>
<!-- 2&#45;&gt;3 -->
<g id="edge79" class="edge">
<title>2&#45;&gt;3</title>
<path fill="none" stroke="black" d="M475.2,-863.7C475.2,-855.98 475.2,-846.71 475.2,-838.11"/>
<polygon fill="black" stroke="black" points="478.7,-838.1 475.2,-828.1 471.7,-838.1 478.7,-838.1"/>
</g>
<!-- 1 -->
<g id="node69" class="node">
<title>1</title>
<ellipse fill="none" stroke="black" cx="475.2" cy="-954" rx="27.84" ry="18"/>
<text text-anchor="middle" x="475.2" y="-949.8" font-family="Times,serif" font-size="14.00">KIB</text>
</g>
<!-- 1&#45;&gt;2 -->
<g id="edge80" class="edge">
<title>1&#45;&gt;2</title>
<path fill="none" stroke="black" d="M475.2,-935.7C475.2,-927.98 475.2,-918.71 475.2,-910.11"/>
<polygon fill="black" stroke="black" points="478.7,-910.1 475.2,-900.1 471.7,-910.1 478.7,-910.1"/>
</g>
</g>
</svg>
