<?xml version="1.0" encoding="UTF-8" standalone="no"?>
<!DOCTYPE svg PUBLIC "-//W3C//DTD SVG 1.1//EN"
 "http://www.w3.org/Graphics/SVG/1.1/DTD/svg11.dtd">
<!-- Generated by graphviz version 2.40.1 (20161225.0304)
 -->
<!-- Title: G Pages: 1 -->
<svg width="274pt" height="98pt"
 viewBox="0.00 0.00 274.20 98.00" xmlns="http://www.w3.org/2000/svg" xmlns:xlink="http://www.w3.org/1999/xlink">
<g id="graph0" class="graph" transform="scale(1 1) rotate(0) translate(4 94)">
<title>G</title>
<polygon fill="#ffffff" stroke="transparent" points="-4,4 -4,-94 270.2002,-94 270.2002,4 -4,4"/>
<!-- B1 -->
<g id="node1" class="node">
<title>B1</title>
<polygon fill="#00cd00" stroke="#00cd00" points="74.487,-63 -.1628,-63 -.1628,-27 74.487,-27 74.487,-63"/>
<text text-anchor="middle" x="37.1621" y="-47.8" font-family="Times,serif" font-size="14.00" fill="#000000">B1</text>
<text text-anchor="middle" x="37.1621" y="-33.8" font-family="Times,serif" font-size="14.00" fill="#000000">MinerAny</text>
</g>
<!-- B2 -->
<g id="node2" class="node">
<title>B2</title>
<polygon fill="#00cd00" stroke="#00cd00" points="170.8114,-90 110.1612,-90 110.1612,-54 170.8114,-54 170.8114,-90"/>
<text text-anchor="middle" x="140.4863" y="-74.8" font-family="Times,serif" font-size="14.00" fill="#000000">B2</text>
<text text-anchor="middle" x="140.4863" y="-60.8" font-family="Times,serif" font-size="14.00" fill="#000000">MinerA</text>
</g>
<!-- B2&#45;&gt;B1 -->
<g id="edge2" class="edge">
<title>B2&#45;&gt;B1</title>
<path fill="none" stroke="#000000" d="M110.3229,-64.1179C102.1866,-61.9918 93.1845,-59.6394 84.3575,-57.3328"/>
<polygon fill="#000000" stroke="#000000" points="85.0816,-53.9045 74.5216,-54.7625 83.3118,-60.6771 85.0816,-53.9045"/>
</g>
<!-- B3 -->
<g id="node3" class="node">
<title>B3</title>
<polygon fill="#00cd00" stroke="#00cd00" points="170.0398,-36 110.9329,-36 110.9329,0 170.0398,0 170.0398,-36"/>
<text text-anchor="middle" x="140.4863" y="-20.8" font-family="Times,serif" font-size="14.00" fill="#000000">B3</text>
<text text-anchor="middle" x="140.4863" y="-6.8" font-family="Times,serif" font-size="14.00" fill="#000000">MinerB</text>
</g>
<!-- B3&#45;&gt;B1 -->
<g id="edge4" class="edge">
<title>B3&#45;&gt;B1</title>
<path fill="none" stroke="#000000" d="M110.8778,-25.7371C102.5571,-27.9114 93.2968,-30.3313 84.227,-32.7013"/>
<polygon fill="#000000" stroke="#000000" points="83.3038,-29.325 74.5136,-35.2396 85.0736,-36.0975 83.3038,-29.325"/>
</g>
<!-- B4 -->
<g id="node4" class="node">
<title>B4</title>
<polygon fill="#ffc0cb" stroke="#ffc0cb" points="265.9777,-90 206.8709,-90 206.8709,-54 265.9777,-54 265.9777,-90"/>
<text text-anchor="middle" x="236.4243" y="-74.8" font-family="Times,serif" font-size="14.00" fill="#000000">B4</text>
<text text-anchor="middle" x="236.4243" y="-60.8" font-family="Times,serif" font-size="14.00" fill="#000000">MinerC</text>
</g>
<!-- B4&#45;&gt;B2 -->
<g id="edge1" class="edge">
<title>B4&#45;&gt;B2</title>
<path fill="none" stroke="#000000" d="M206.8569,-72C198.626,-72 189.5431,-72 180.8075,-72"/>
<polygon fill="#000000" stroke="#000000" points="180.7841,-68.5001 170.7841,-72 180.784,-75.5001 180.7841,-68.5001"/>
</g>
<!-- B5 -->
<g id="node5" class="node">
<title>B5</title>
<polygon fill="#ffc0cb" stroke="#ffc0cb" points="265.9777,-36 206.8709,-36 206.8709,0 265.9777,0 265.9777,-36"/>
<text text-anchor="middle" x="236.4243" y="-20.8" font-family="Times,serif" font-size="14.00" fill="#000000">B5</text>
<text text-anchor="middle" x="236.4243" y="-6.8" font-family="Times,serif" font-size="14.00" fill="#000000">MinerC</text>
</g>
<!-- B5&#45;&gt;B3 -->
<g id="edge3" class="edge">
<title>B5&#45;&gt;B3</title>
<path fill="none" stroke="#000000" d="M206.8569,-18C198.4677,-18 189.1934,-18 180.3039,-18"/>
<polygon fill="#000000" stroke="#000000" points="180.1213,-14.5001 170.1212,-18 180.1212,-21.5001 180.1213,-14.5001"/>
</g>
</g>
</svg>
