<?xml version="1.0" encoding="UTF-8" standalone="no"?>
<!DOCTYPE svg PUBLIC "-//W3C//DTD SVG 1.1//EN"
 "http://www.w3.org/Graphics/SVG/1.1/DTD/svg11.dtd">
<!-- Generated by graphviz version 2.40.1 (20161225.0304)
 -->
<!-- Title: G Pages: 1 -->
<svg width="370pt" height="67pt"
 viewBox="0.00 0.00 369.75 67.00" xmlns="http://www.w3.org/2000/svg" xmlns:xlink="http://www.w3.org/1999/xlink">
<g id="graph0" class="graph" transform="scale(1 1) rotate(0) translate(4 63)">
<title>G</title>
<polygon fill="#ffffff" stroke="transparent" points="-4,4 -4,-63 365.752,-63 365.752,4 -4,4"/>
<!-- B1 -->
<g id="node1" class="node">
<title>B1</title>
<polygon fill="#00cd00" stroke="#00cd00" points="74.487,-59 -.1628,-59 -.1628,-23 74.487,-23 74.487,-59"/>
<text text-anchor="middle" x="37.1621" y="-43.8" font-family="Times,serif" font-size="14.00" fill="#000000">B1</text>
<text text-anchor="middle" x="37.1621" y="-29.8" font-family="Times,serif" font-size="14.00" fill="#000000">MinerAny</text>
</g>
<!-- B2 -->
<g id="node2" class="node">
<title>B2</title>
<polygon fill="#00cd00" stroke="#00cd00" points="170.8114,-59 110.1612,-59 110.1612,-23 170.8114,-23 170.8114,-59"/>
<text text-anchor="middle" x="140.4863" y="-43.8" font-family="Times,serif" font-size="14.00" fill="#000000">B2</text>
<text text-anchor="middle" x="140.4863" y="-29.8" font-family="Times,serif" font-size="14.00" fill="#000000">MinerA</text>
</g>
<!-- B2&#45;&gt;B1 -->
<g id="edge1" class="edge">
<title>B2&#45;&gt;B1</title>
<path fill="none" stroke="#000000" d="M110.3229,-41C102.2741,-41 93.378,-41 84.6423,-41"/>
<polygon fill="#000000" stroke="#000000" points="84.5216,-37.5001 74.5216,-41 84.5215,-44.5001 84.5216,-37.5001"/>
</g>
<!-- B3 -->
<g id="node3" class="node">
<title>B3</title>
<polygon fill="#ffc0cb" stroke="#ffc0cb" points="265.9777,-36 206.8709,-36 206.8709,0 265.9777,0 265.9777,-36"/>
<text text-anchor="middle" x="236.4243" y="-20.8" font-family="Times,serif" font-size="14.00" fill="#000000">B3</text>
<text text-anchor="middle" x="236.4243" y="-6.8" font-family="Times,serif" font-size="14.00" fill="#000000">MinerB</text>
</g>
<!-- B3&#45;&gt;B2 -->
<g id="edge2" class="edge">
<title>B3&#45;&gt;B2</title>
<path fill="none" stroke="#000000" d="M206.8569,-25.0884C198.5365,-27.0831 189.3455,-29.2866 180.5228,-31.4017"/>
<polygon fill="#000000" stroke="#000000" points="179.6925,-28.0015 170.7841,-33.7365 181.3245,-34.8086 179.6925,-28.0015"/>
</g>
<!-- B4 -->
<g id="node4" class="node">
<title>B4</title>
<polygon fill="#ffc0cb" stroke="#ffc0cb" points="361.5295,-59 302.4226,-59 302.4226,-23 361.5295,-23 361.5295,-59"/>
<text text-anchor="middle" x="331.9761" y="-43.8" font-family="Times,serif" font-size="14.00" fill="#000000">B4</text>
<text text-anchor="middle" x="331.9761" y="-29.8" font-family="Times,serif" font-size="14.00" fill="#000000">MinerB</text>
</g>
<!-- B4&#45;&gt;B2 -->
<g id="edge3" class="edge">
<title>B4&#45;&gt;B2</title>
<path fill="none" stroke="#000000" d="M302.1969,-43.1951C290.9268,-43.9248 277.9785,-44.6422 266.2002,-45 239.745,-45.8037 233.1038,-45.799 206.6484,-45 198.3075,-44.7481 189.3832,-44.3179 180.8753,-43.8307"/>
<polygon fill="#000000" stroke="#000000" points="180.9653,-40.3298 170.7712,-43.2163 180.5403,-47.3169 180.9653,-40.3298"/>
</g>
<!-- B4&#45;&gt;B3 -->
</g>
</svg>
