<?xml version="1.0" encoding="UTF-8" standalone="no"?>
<!DOCTYPE svg PUBLIC "-//W3C//DTD SVG 1.1//EN"
 "http://www.w3.org/Graphics/SVG/1.1/DTD/svg11.dtd">
<!-- Generated by graphviz version 2.40.1 (20161225.0304)
 -->
<!-- Title: %3 Pages: 1 -->
<svg width="475pt" height="142pt"
 viewBox="0.00 0.00 475.00 142.00" xmlns="http://www.w3.org/2000/svg" xmlns:xlink="http://www.w3.org/1999/xlink">
<g id="graph0" class="graph" transform="scale(1 1) rotate(0) translate(4 138)">
<title>%3</title>
<polygon fill="#ffffff" stroke="transparent" points="-4,4 -4,-138 471,-138 471,4 -4,4"/>
<g id="clust1" class="cluster">
<title>cluster_01</title>
<polygon fill="none" stroke="#000000" points="8,-8 8,-126 459,-126 459,-8 8,-8"/>
<text text-anchor="middle" x="233.5" y="-110.8" font-family="Times,serif" font-size="14.00" fill="#000000">Legend</text>
</g>
<!-- key -->
<g id="node1" class="node">
<title>key</title>
<text text-anchor="start" x="101.4756" y="-78.8" font-family="Times,serif" font-size="14.00" fill="#000000">OnSurprisePoStChallenge: OK &#45; Challenged</text>
<text text-anchor="start" x="79.6963" y="-60.8" font-family="Times,serif" font-size="14.00" fill="#000000">OnMinerSurprisePoStSuccess: Challenged &#45; OK</text>
<text text-anchor="start" x="64.9307" y="-42.8" font-family="Times,serif" font-size="14.00" fill="#000000">OnMinerSurprisePoStSuccess: DetectedFault &#45; OK</text>
<text text-anchor="start" x="26.2808" y="-24.8" font-family="Times,serif" font-size="14.00" fill="#000000">OnMinerSurprisePoStFailure: Challenged &#45; DetectedFault</text>
</g>
<!-- key2 -->
<g id="node2" class="node">
<title>key2</title>
<text text-anchor="start" x="422.75" y="-78.8" font-family="Times,serif" font-size="14.00" fill="#000000"> </text>
<text text-anchor="start" x="422.75" y="-60.8" font-family="Times,serif" font-size="14.00" fill="#000000"> </text>
<text text-anchor="start" x="422.75" y="-42.8" font-family="Times,serif" font-size="14.00" fill="#000000"> </text>
<text text-anchor="start" x="422.75" y="-24.8" font-family="Times,serif" font-size="14.00" fill="#000000"> </text>
</g>
<!-- key&#45;&gt;key2 -->
<g id="edge1" class="edge">
<title>key:e&#45;&gt;key2:w</title>
<path fill="none" stroke="#000000" d="M353.5,-83C379.75,-83 388.7734,-83 410.7168,-83"/>
<polygon fill="#000000" stroke="#000000" points="411,-86.5001 421,-83 411,-79.5001 411,-86.5001"/>
</g>
<!-- key&#45;&gt;key2 -->
<g id="edge2" class="edge">
<title>key:e&#45;&gt;key2:w</title>
<path fill="none" stroke="#0000ff" d="M353.5,-65C379.75,-65 388.7734,-65 410.7168,-65"/>
<polygon fill="#0000ff" stroke="#0000ff" points="411,-68.5001 421,-65 411,-61.5001 411,-68.5001"/>
</g>
<!-- key&#45;&gt;key2 -->
<g id="edge3" class="edge">
<title>key:e&#45;&gt;key2:w</title>
<path fill="none" stroke="#00ff00" d="M353.5,-47C379.75,-47 388.7734,-47 410.7168,-47"/>
<polygon fill="#00ff00" stroke="#00ff00" points="411,-50.5001 421,-47 411,-43.5001 411,-50.5001"/>
</g>
<!-- key&#45;&gt;key2 -->
<g id="edge4" class="edge">
<title>key:e&#45;&gt;key2:w</title>
<path fill="none" stroke="#ff0000" d="M353.5,-29C379.75,-29 388.7734,-29 410.7168,-29"/>
<polygon fill="#ff0000" stroke="#ff0000" points="411,-32.5001 421,-29 411,-25.5001 411,-32.5001"/>
</g>
</g>
</svg>
