<?xml version="1.0" encoding="UTF-8" standalone="no"?>
<!DOCTYPE svg PUBLIC "-//W3C//DTD SVG 1.1//EN"
 "http://www.w3.org/Graphics/SVG/1.1/DTD/svg11.dtd">
<!-- Generated by graphviz version 2.40.1 (20161225.0304)
 -->
<!-- Title: sectoRecovering Pages: 1 -->
<svg width="374pt" height="560pt"
 viewBox="0.00 0.00 374.00 560.00" xmlns="http://www.w3.org/2000/svg" xmlns:xlink="http://www.w3.org/1999/xlink">
<g id="graph0" class="graph" transform="scale(1 1) rotate(0) translate(4 556)">
<title>sectoRecovering</title>
<polygon fill="#ffffff" stroke="transparent" points="-4,4 -4,-556 370,-556 370,4 -4,4"/>
<g id="clust1" class="cluster">
<title>cluster_0</title>
<polygon fill="#e5e5e5" stroke="#e5e5e5" points="8,-94 8,-350 356,-350 356,-94 8,-94"/>
<text text-anchor="middle" x="182" y="-334.8" font-family="Times,serif" font-size="14.00" fill="#000000">Proving Set</text>
</g>
<g id="clust2" class="cluster">
<title>cluster_1</title>
<polygon fill="#cccccc" stroke="#cccccc" points="16,-196 16,-320 348,-320 348,-196 16,-196"/>
<text text-anchor="middle" x="182" y="-304.8" font-family="Times,serif" font-size="14.00" fill="#000000">Not Counted for Power</text>
</g>
<!-- Cleared -->
<g id="node1" class="node">
<title>Cleared</title>
<ellipse fill="none" stroke="#000000" cx="67" cy="-505" rx="43" ry="43"/>
<ellipse fill="none" stroke="#000000" cx="67" cy="-505" rx="47" ry="47"/>
<text text-anchor="middle" x="67" y="-500.8" font-family="Times,serif" font-size="14.00" fill="#000000">Cleared</text>
</g>
<!-- Precommitted -->
<g id="node2" class="node">
<title>Precommitted</title>
<ellipse fill="none" stroke="#000000" cx="67" cy="-401" rx="43" ry="43"/>
<text text-anchor="middle" x="67" y="-396.8" font-family="Times,serif" font-size="14.00" fill="#000000">Precommitted</text>
</g>
<!-- Cleared&#45;&gt;Precommitted -->
<g id="edge1" class="edge">
<title>Cleared&#45;&gt;Precommitted</title>
<path fill="none" stroke="#c0c0c0" stroke-width="2" d="M52.6667,-459.989C52.6667,-459.989 52.6667,-451.8225 52.6667,-451.8225"/>
<polygon fill="#c0c0c0" stroke="#c0c0c0" stroke-width="2" points="56.1668,-451.8225 52.6667,-441.8225 49.1668,-451.8226 56.1668,-451.8225"/>
</g>
<!-- Precommitted&#45;&gt;Cleared -->
<g id="edge5" class="edge">
<title>Precommitted&#45;&gt;Cleared</title>
<path fill="none" stroke="#0000ff" stroke-width="2" d="M81.3333,-441.8051C83.3333,-441.8051 83.3333,-450.1884 81.3333,-450.1884"/>
<path fill="none" stroke="#ffffff" stroke-width="2" d="M81.3333,-441.8051C81.3333,-441.8051 81.3333,-450.1884 81.3333,-450.1884"/>
<path fill="none" stroke="#a020f0" stroke-width="2" d="M81.3333,-441.8051C79.3333,-441.8051 79.3333,-450.1884 81.3333,-450.1884"/>
<polygon fill="#0000ff" stroke="#0000ff" stroke-width="2" points="77.8334,-450.1884 81.3333,-460.1884 84.8334,-450.1885 77.8334,-450.1884"/>
</g>
<!-- Committed -->
<g id="node3" class="node">
<title>Committed</title>
<ellipse fill="none" stroke="#000000" cx="67" cy="-247" rx="43" ry="43"/>
<text text-anchor="middle" x="67" y="-242.8" font-family="Times,serif" font-size="14.00" fill="#000000">Committed</text>
</g>
<!-- Precommitted&#45;&gt;Committed -->
<g id="edge2" class="edge">
<title>Precommitted&#45;&gt;Committed</title>
<path fill="none" stroke="#000000" stroke-width="2" d="M67,-357.6926C67,-357.6926 67,-300.2489 67,-300.2489"/>
<polygon fill="#000000" stroke="#000000" stroke-width="2" points="70.5001,-300.2489 67,-290.2489 63.5001,-300.2489 70.5001,-300.2489"/>
</g>
<!-- Active -->
<g id="node4" class="node">
<title>Active</title>
<ellipse fill="none" stroke="#000000" cx="63" cy="-145" rx="43" ry="43"/>
<text text-anchor="middle" x="63" y="-154.8" font-family="Times,serif" font-size="14.00" fill="#000000">Active</text>
<text text-anchor="middle" x="63" y="-140.8" font-family="Times,serif" font-size="14.00" fill="#000000">(Counted</text>
<text text-anchor="middle" x="63" y="-126.8" font-family="Times,serif" font-size="14.00" fill="#000000">for Power)</text>
</g>
<!-- Committed&#45;&gt;Active -->
<g id="edge3" class="edge">
<title>Committed&#45;&gt;Active</title>
<path fill="none" stroke="#00ff00" stroke-width="2" d="M51.3333,-206.6869C51.3333,-206.6869 51.3333,-196.6942 51.3333,-196.6942"/>
<polygon fill="#00ff00" stroke="#00ff00" stroke-width="2" points="54.8334,-196.6942 51.3333,-186.6942 47.8334,-196.6942 54.8334,-196.6942"/>
</g>
<!-- Failing -->
<g id="node6" class="node">
<title>Failing</title>
<ellipse fill="none" stroke="#000000" cx="323" cy="-43" rx="43" ry="43"/>
<text text-anchor="middle" x="323" y="-38.8" font-family="Times,serif" font-size="14.00" fill="#000000">Failing</text>
</g>
<!-- Committed&#45;&gt;Failing -->
<g id="edge10" class="edge">
<title>Committed&#45;&gt;Failing</title>
<path fill="none" stroke="#ff0000" stroke-width="2" d="M76.6667,-205.3542C76.6667,-199.8132 76.6667,-196 78.6667,-196 78.6667,-194 304,-194 304,-196 302,-196 302,-91.6084 304,-91.6084"/>
<path fill="none" stroke="#e5e5e5" stroke-width="2" d="M78.6667,-205.3542C78.6667,-199.8132 78.6667,-196 78.6667,-196 78.6667,-196 304,-196 304,-196 304,-196 304,-91.6084 304,-91.6084"/>
<path fill="none" stroke="#ffa500" stroke-width="2" d="M80.6667,-205.3542C80.6667,-199.8132 80.6667,-196 78.6667,-196 78.6667,-198 304,-198 304,-196 306,-196 306,-91.6084 304,-91.6084"/>
<polygon fill="#ff0000" stroke="#ff0000" stroke-width="2" points="307.5001,-91.6083 304,-81.6084 300.5001,-91.6084 307.5001,-91.6083"/>
</g>
<!-- Active&#45;&gt;Cleared -->
<g id="edge8" class="edge">
<title>Active&#45;&gt;Cleared</title>
<path fill="none" stroke="#0000ff" stroke-width="2" d="M19.9721,-145C9.8782,-145 2,-145 2,-145 2,-145 2,-505 2,-505 2,-505 9.7615,-505 9.7615,-505"/>
<polygon fill="#0000ff" stroke="#0000ff" stroke-width="2" points="9.7616,-508.5001 19.7615,-505 9.7615,-501.5001 9.7616,-508.5001"/>
</g>
<!-- Active&#45;&gt;Failing -->
<g id="edge6" class="edge">
<title>Active&#45;&gt;Failing</title>
<path fill="none" stroke="#ff0000" stroke-width="2" d="M103.4135,-128C169.1548,-128 292,-128 292,-130 290,-130 290,-82.9405 292,-82.9405"/>
<path fill="none" stroke="#e5e5e5" stroke-width="2" d="M103.4135,-130C169.1548,-130 292,-130 292,-130 292,-130 292,-82.9405 292,-82.9405"/>
<path fill="none" stroke="#ffa500" stroke-width="2" d="M103.4135,-132C169.1548,-132 292,-132 292,-130 294,-130 294,-82.9405 292,-82.9405"/>
<polygon fill="#ff0000" stroke="#ff0000" stroke-width="2" points="295.5001,-82.9404 292,-72.9405 288.5001,-82.9405 295.5001,-82.9404"/>
</g>
<!-- Recovering -->
<g id="node5" class="node">
<title>Recovering</title>
<ellipse fill="none" stroke="#000000" cx="297" cy="-247" rx="43" ry="43"/>
<text text-anchor="middle" x="297" y="-242.8" font-family="Times,serif" font-size="14.00" fill="#000000">Recovering</text>
</g>
<!-- Recovering&#45;&gt;Active -->
<g id="edge4" class="edge">
<title>Recovering&#45;&gt;Active</title>
<path fill="none" stroke="#00ff00" stroke-width="2" d="M267,-215.7267C267,-190.433 267,-159 267,-159 267,-159 113.7921,-159 113.7921,-159"/>
<polygon fill="#00ff00" stroke="#00ff00" stroke-width="2" points="113.7922,-155.5001 103.7921,-159 113.7921,-162.5001 113.7922,-155.5001"/>
</g>
<!-- Recovering&#45;&gt;Failing -->
<g id="edge11" class="edge">
<title>Recovering&#45;&gt;Failing</title>
<path fill="none" stroke="#ff0000" stroke-width="2" d="M328,-216.8991C326,-216.8991 326,-96.045 328,-96.045"/>
<path fill="none" stroke="#e5e5e5" stroke-width="2" d="M328,-216.8991C328,-216.8991 328,-96.045 328,-96.045"/>
<path fill="none" stroke="#ffa500" stroke-width="2" d="M328,-216.8991C330,-216.8991 330,-96.045 328,-96.045"/>
<polygon fill="#ff0000" stroke="#ff0000" stroke-width="2" points="331.5001,-96.045 328,-86.045 324.5001,-96.045 331.5001,-96.045"/>
</g>
<!-- Failing&#45;&gt;Cleared -->
<g id="edge9" class="edge">
<title>Failing&#45;&gt;Cleared</title>
<path fill="none" stroke="#ff00ff" stroke-width="2" d="M357,-74.0305C357,-177.6166 357,-505 353,-505 353,-509 124.2271,-509 124.2271,-505"/>
<path fill="none" stroke="#ffffff" stroke-width="2" d="M355,-74.0305C355,-177.6166 355,-505 353,-505 353,-507 124.2271,-507 124.2271,-505"/>
<path fill="none" stroke="#a020f0" stroke-width="2" d="M353,-74.0305C353,-177.6166 353,-505 353,-505 353,-505 124.2271,-505 124.2271,-505"/>
<path fill="none" stroke="#ffffff" stroke-width="2" d="M351,-74.0305C351,-177.6166 351,-505 353,-505 353,-503 124.2271,-503 124.2271,-505"/>
<path fill="none" stroke="#0000ff" stroke-width="2" d="M349,-74.0305C349,-177.6166 349,-505 353,-505 353,-501 124.2271,-501 124.2271,-505"/>
<polygon fill="#ff00ff" stroke="#ff00ff" stroke-width="2" points="124.2271,-501.5001 114.2271,-505 124.227,-508.5001 124.2271,-501.5001"/>
</g>
<!-- Failing&#45;&gt;Recovering -->
<g id="edge7" class="edge">
<title>Failing&#45;&gt;Recovering</title>
<path fill="none" stroke="#00ffff" stroke-width="2" d="M316,-85.7651C316,-85.7651 316,-198.425 316,-198.425"/>
<polygon fill="#00ffff" stroke="#00ffff" stroke-width="2" points="312.5001,-198.4249 316,-208.425 319.5001,-198.425 312.5001,-198.4249"/>
</g>
</g>
</svg>
