<?xml version="1.0" encoding="UTF-8" standalone="no"?><!DOCTYPE svg PUBLIC "-//W3C//DTD SVG 1.1//EN" "http://www.w3.org/Graphics/SVG/1.1/DTD/svg11.dtd"><!-- Generated by graphviz version 2.40.1 (20161225.0304)
 --><!-- Title: %0 Pages: 1 --><svg xmlns="http://www.w3.org/2000/svg" xmlns:xlink="http://www.w3.org/1999/xlink" width="443pt" height="213pt" viewBox="0.00 0.00 443.00 213.00">
<g id="graph0" class="graph" transform="scale(1 1) rotate(0) translate(4 209)">
<title>%0</title>
<polygon fill="#ffffff" stroke="transparent" points="-4,4 -4,-209 439,-209 439,4 -4,4"/>
<g id="clust1" class="cluster">
<title>cluster_01</title>
<polygon fill="none" stroke="#000000" points="8,-8 8,-197 427,-197 427,-8 8,-8"/>
<text text-anchor="middle" x="217.5" y="-180.4" font-family="Times,serif" font-size="14.00" fill="#000000">Legend</text>
</g>
<!-- key -->
<g id="node1" class="node">
<title>key</title>
<text text-anchor="start" x="92.0406" y="-145.4" font-family="Times,serif" font-size="14.00" fill="#000000">SectorPreCommit: Cleared - PreCommit</text>
<text text-anchor="start" x="68.704" y="-125.4" font-family="Times,serif" font-size="14.00" fill="#000000">PreCommitExpiration: PreCommit - Cleared</text>
<text text-anchor="start" x="84.2552" y="-105.4" font-family="Times,serif" font-size="14.00" fill="#000000">SectorProveCommit: PreCommit - Active</text>
<text text-anchor="start" x="26.2415" y="-85.4" font-family="Times,serif" font-size="14.00" fill="#000000">TemporaryFaultEffectiveBegin: Active - TempFault</text>
<text text-anchor="start" x="36.8722" y="-65.4" font-family="Times,serif" font-size="14.00" fill="#000000">TemporaryFaultEffectiveEnd: TempFault - Active</text>
<text text-anchor="start" x="124.7376" y="-45.4" font-family="Times,serif" font-size="14.00" fill="#000000">SectorExpiration: Active - Cleared</text>
<text text-anchor="start" x="117.7544" y="-25.4" font-family="Times,serif" font-size="14.00" fill="#000000">UserTerminateion: Active - Cleared</text>
</g>
<!-- key2 -->
<g id="node2" class="node">
<title>key2</title>
<text text-anchor="start" x="387.9197" y="-145.4" font-family="Times,serif" font-size="14.00" fill="#000000"> </text>
<text text-anchor="start" x="387.9197" y="-125.4" font-family="Times,serif" font-size="14.00" fill="#000000"> </text>
<text text-anchor="start" x="387.9197" y="-105.4" font-family="Times,serif" font-size="14.00" fill="#000000"> </text>
<text text-anchor="start" x="387.9197" y="-85.4" font-family="Times,serif" font-size="14.00" fill="#000000"> </text>
<text text-anchor="start" x="387.9197" y="-65.4" font-family="Times,serif" font-size="14.00" fill="#000000"> </text>
<text text-anchor="start" x="387.9197" y="-45.4" font-family="Times,serif" font-size="14.00" fill="#000000"> </text>
<text text-anchor="start" x="387.9197" y="-25.4" font-family="Times,serif" font-size="14.00" fill="#000000"> </text>
</g>
<!-- key&#45;&gt;key2 -->
<g id="edge1" class="edge">
<title>key:e-&gt;key2:w</title>
<path fill="none" stroke="#000000" d="M321.5,-150C346.4714,-150 355.1284,-150 375.8937,-150"/>
<polygon fill="#000000" stroke="#000000" points="376,-153.5001 386,-150 376,-146.5001 376,-153.5001"/>
</g>
<!-- key&#45;&gt;key2 -->
<g id="edge2" class="edge">
<title>key:e-&gt;key2:w</title>
<path fill="none" stroke="#c0c0c0" d="M321.5,-130C346.4714,-130 355.1284,-130 375.8937,-130"/>
<polygon fill="#c0c0c0" stroke="#c0c0c0" points="376,-133.5001 386,-130 376,-126.5001 376,-133.5001"/>
</g>
<!-- key&#45;&gt;key2 -->
<g id="edge3" class="edge">
<title>key:e-&gt;key2:w</title>
<path fill="none" stroke="#00ff00" d="M321.5,-110C346.4714,-110 355.1284,-110 375.8937,-110"/>
<polygon fill="#00ff00" stroke="#00ff00" points="376,-113.5001 386,-110 376,-106.5001 376,-113.5001"/>
</g>
<!-- key&#45;&gt;key2 -->
<g id="edge4" class="edge">
<title>key:e-&gt;key2:w</title>
<path fill="none" stroke="#ffa500" d="M321.5,-90C346.4714,-90 355.1284,-90 375.8937,-90"/>
<polygon fill="#ffa500" stroke="#ffa500" points="376,-93.5001 386,-90 376,-86.5001 376,-93.5001"/>
</g>
<!-- key&#45;&gt;key2 -->
<g id="edge5" class="edge">
<title>key:e-&gt;key2:w</title>
<path fill="none" stroke="#00ffff" d="M321.5,-70C346.4714,-70 355.1284,-70 375.8937,-70"/>
<polygon fill="#00ffff" stroke="#00ffff" points="376,-73.5001 386,-70 376,-66.5001 376,-73.5001"/>
</g>
<!-- key&#45;&gt;key2 -->
<g id="edge6" class="edge">
<title>key:e-&gt;key2:w</title>
<path fill="none" stroke="#0000ff" d="M321.5,-50C346.4714,-50 355.1284,-50 375.8937,-50"/>
<polygon fill="#0000ff" stroke="#0000ff" points="376,-53.5001 386,-50 376,-46.5001 376,-53.5001"/>
</g>
<!-- key&#45;&gt;key2 -->
<g id="edge7" class="edge">
<title>key:e-&gt;key2:w</title>
<path fill="none" stroke="#a020f0" d="M321.5,-30C346.4714,-30 355.1284,-30 375.8937,-30"/>
<polygon fill="#a020f0" stroke="#a020f0" points="376,-33.5001 386,-30 376,-26.5001 376,-33.5001"/>
</g>
</g>
</svg>