<?xml version="1.0" encoding="UTF-8" standalone="no"?>
<!DOCTYPE svg PUBLIC "-//W3C//DTD SVG 1.1//EN"
 "http://www.w3.org/Graphics/SVG/1.1/DTD/svg11.dtd">
<!-- Generated by graphviz version 2.40.1 (20161225.0304)
 -->
<!-- Title: %3 Pages: 1 -->
<svg width="410pt" height="196pt"
 viewBox="0.00 0.00 410.00 196.00" xmlns="http://www.w3.org/2000/svg" xmlns:xlink="http://www.w3.org/1999/xlink">
<g id="graph0" class="graph" transform="scale(1 1) rotate(0) translate(4 192)">
<title>%3</title>
<polygon fill="#ffffff" stroke="transparent" points="-4,4 -4,-192 406,-192 406,4 -4,4"/>
<g id="clust1" class="cluster">
<title>cluster_01</title>
<polygon fill="none" stroke="#000000" points="8,-8 8,-180 394,-180 394,-8 8,-8"/>
<text text-anchor="middle" x="201" y="-164.8" font-family="Times,serif" font-size="14.00" fill="#000000">Legend</text>
</g>
<!-- key -->
<g id="node1" class="node">
<title>key</title>
<text text-anchor="start" x="184.5" y="-132.8" font-family="Times,serif" font-size="14.00" fill="#000000">sm.CommitSector</text>
<text text-anchor="start" x="99.7139" y="-114.8" font-family="Times,serif" font-size="14.00" fill="#000000">sm.SubmitPoSt &#45; ActivateSectors</text>
<text text-anchor="start" x="188.417" y="-96.8" font-family="Times,serif" font-size="14.00" fill="#000000">sm.DeclareFaults</text>
<text text-anchor="start" x="185.293" y="-78.8" font-family="Times,serif" font-size="14.00" fill="#000000">sm.RecoverFaults</text>
<text text-anchor="start" x="108.3955" y="-60.8" font-family="Times,serif" font-size="14.00" fill="#000000">ca.CronTick &#45; sm.SpottedFaults</text>
<text text-anchor="start" x="36.0645" y="-42.8" font-family="Times,serif" font-size="14.00" fill="#000000">sm.SubmitPoSt/ca.CronTick &#45; ExpireSectors</text>
<text text-anchor="start" x="25.9634" y="-24.8" font-family="Times,serif" font-size="14.00" fill="#000000">sm.SubmitPoSt/ca.CronTick &#45; MaxFaultCount</text>
</g>
<!-- key2 -->
<g id="node2" class="node">
<title>key2</title>
<text text-anchor="start" x="357.75" y="-132.8" font-family="Times,serif" font-size="14.00" fill="#000000"> </text>
<text text-anchor="start" x="357.75" y="-114.8" font-family="Times,serif" font-size="14.00" fill="#000000"> </text>
<text text-anchor="start" x="357.75" y="-96.8" font-family="Times,serif" font-size="14.00" fill="#000000"> </text>
<text text-anchor="start" x="357.75" y="-78.8" font-family="Times,serif" font-size="14.00" fill="#000000"> </text>
<text text-anchor="start" x="357.75" y="-60.8" font-family="Times,serif" font-size="14.00" fill="#000000"> </text>
<text text-anchor="start" x="357.75" y="-42.8" font-family="Times,serif" font-size="14.00" fill="#000000"> </text>
<text text-anchor="start" x="357.75" y="-24.8" font-family="Times,serif" font-size="14.00" fill="#000000"> </text>
</g>
<!-- key&#45;&gt;key2 -->
<g id="edge1" class="edge">
<title>key:e&#45;&gt;key2:w</title>
<path fill="none" stroke="#000000" d="M288,-137C314.5625,-137 323.6155,-137 345.9375,-137"/>
<polygon fill="#000000" stroke="#000000" points="346,-140.5001 356,-137 346,-133.5001 346,-140.5001"/>
</g>
<!-- key&#45;&gt;key2 -->
<g id="edge2" class="edge">
<title>key:e&#45;&gt;key2:w</title>
<path fill="none" stroke="#00ff00" d="M288,-119C314.5625,-119 323.6155,-119 345.9375,-119"/>
<polygon fill="#00ff00" stroke="#00ff00" points="346,-122.5001 356,-119 346,-115.5001 346,-122.5001"/>
</g>
<!-- key&#45;&gt;key2 -->
<g id="edge3" class="edge">
<title>key:e&#45;&gt;key2:w</title>
<path fill="none" stroke="#0000ff" d="M288,-101C314.5625,-101 323.6155,-101 345.9375,-101"/>
<polygon fill="#0000ff" stroke="#0000ff" points="346,-104.5001 356,-101 346,-97.5001 346,-104.5001"/>
</g>
<!-- key&#45;&gt;key2 -->
<g id="edge4" class="edge">
<title>key:e&#45;&gt;key2:w</title>
<path fill="none" stroke="#00ffff" d="M288,-83C314.5625,-83 323.6155,-83 345.9375,-83"/>
<polygon fill="#00ffff" stroke="#00ffff" points="346,-86.5001 356,-83 346,-79.5001 346,-86.5001"/>
</g>
<!-- key&#45;&gt;key2 -->
<g id="edge5" class="edge">
<title>key:e&#45;&gt;key2:w</title>
<path fill="none" stroke="#ff0000" d="M288,-65C314.5625,-65 323.6155,-65 345.9375,-65"/>
<polygon fill="#ff0000" stroke="#ff0000" points="346,-68.5001 356,-65 346,-61.5001 346,-68.5001"/>
</g>
<!-- key&#45;&gt;key2 -->
<g id="edge6" class="edge">
<title>key:e&#45;&gt;key2:w</title>
<path fill="none" stroke="#ffd700" d="M288,-47C314.5625,-47 323.6155,-47 345.9375,-47"/>
<polygon fill="#ffd700" stroke="#ffd700" points="346,-50.5001 356,-47 346,-43.5001 346,-50.5001"/>
</g>
<!-- key&#45;&gt;key2 -->
<g id="edge7" class="edge">
<title>key:e&#45;&gt;key2:w</title>
<path fill="none" stroke="#ff00ff" d="M288,-29C314.5625,-29 323.6155,-29 345.9375,-29"/>
<polygon fill="#ff00ff" stroke="#ff00ff" points="346,-32.5001 356,-29 346,-25.5001 346,-32.5001"/>
</g>
</g>
</svg>
