<?xml version="1.0" encoding="UTF-8" standalone="no"?><!DOCTYPE svg PUBLIC "-//W3C//DTD SVG 1.1//EN" "http://www.w3.org/Graphics/SVG/1.1/DTD/svg11.dtd"><!-- Generated by graphviz version 2.40.1 (20161225.0304)
 --><!-- Title: FilecoinNode Pages: 1 --><svg xmlns="http://www.w3.org/2000/svg" xmlns:xlink="http://www.w3.org/1999/xlink" width="1933pt" height="1061pt" viewBox="0.00 0.00 1933.45 1060.60">
<g id="graph0" class="graph" transform="scale(1 1) rotate(0) translate(4 1056.6)">
<title>FilecoinNode</title>
<polygon fill="#ffffff" stroke="transparent" points="-4,4 -4,-1056.6 1929.4502,-1056.6 1929.4502,4 -4,4"/>
<g id="clust1" class="cluster">
<title>cluster_MinerNode</title>
<polygon fill="none" stroke="#000000" points="8,-8 8,-1044.6 1381,-1044.6 1381,-8 8,-8"/>
</g>
<g id="clust2" class="cluster">
<title>cluster_SPC</title>
<polygon fill="none" stroke="#000000" points="1083,-711.8 1083,-1036.6 1237,-1036.6 1237,-711.8 1083,-711.8"/>
</g>
<g id="clust3" class="cluster">
<title>cluster_SMS</title>
<polygon fill="none" stroke="#000000" points="16,-16 16,-874.8 1075,-874.8 1075,-16 16,-16"/>
</g>
<g id="clust4" class="cluster">
<title>cluster_proving</title>
<polygon fill="none" stroke="#000000" points="24,-24 24,-450 649,-450 649,-24 24,-24"/>
</g>
<g id="clust5" class="cluster">
<title>cluster_indexer</title>
<polygon fill="none" stroke="#000000" points="657,-211 657,-652.8 1067,-652.8 1067,-211 657,-211"/>
</g>
<!-- StorageProvider -->
<g id="node1" class="node">
<title>StorageProvider</title>
<ellipse fill="none" stroke="#000000" cx="569" cy="-1010.6" rx="73.5753" ry="18"/>
<text text-anchor="middle" x="569" y="-1006.4" font-family="Times,serif" font-size="14.00" fill="#000000">StorageProvider</text>
</g>
<!-- SMS -->
<g id="node6" class="node">
<title>SMS</title>
<ellipse fill="none" stroke="#000000" cx="734" cy="-848.8" rx="30.215" ry="18"/>
<text text-anchor="middle" x="734" y="-844.6" font-family="Times,serif" font-size="14.00" fill="#000000">SMS</text>
</g>
<!-- StorageProvider&#45;&gt;SMS -->
<g id="edge3" class="edge">
<title>StorageProvider-&gt;SMS</title>
<path fill="none" stroke="#000000" d="M569.6714,-992.4383C571.4707,-969.1475 577.883,-928.789 600.3842,-903.8 624.7844,-876.702 664.5549,-862.6445 694.3736,-855.5551"/>
<polygon fill="#000000" stroke="#000000" points="695.4535,-858.9011 704.4642,-853.3282 693.9449,-852.0656 695.4535,-858.9011"/>
<text text-anchor="middle" x="666.3079" y="-917.6" font-family="Times,serif" font-size="14.00" fill="#000000">1.1 HandleStorageDeal</text>
</g>
<!-- FilecoinNode -->
<g id="node2" class="node">
<title>FilecoinNode</title>
<ellipse fill="none" stroke="#000000" cx="1309" cy="-1010.6" rx="63.7025" ry="18"/>
<text text-anchor="middle" x="1309" y="-1006.4" font-family="Times,serif" font-size="14.00" fill="#000000">FilecoinNode</text>
</g>
<!-- Blockchain -->
<g id="node15" class="node">
<title>Blockchain</title>
<ellipse fill="none" stroke="#000000" cx="1568" cy="-921.8" rx="55.0362" ry="18"/>
<text text-anchor="middle" x="1568" y="-917.6" font-family="Times,serif" font-size="14.00" fill="#000000">Blockchain</text>
</g>
<!-- FilecoinNode&#45;&gt;Blockchain -->
<g id="edge6" class="edge">
<title>FilecoinNode-&gt;Blockchain</title>
<path fill="none" stroke="#000000" d="M1280.968,-994.248C1266.4063,-983.7279 1253.674,-969.825 1264.3576,-957.8 1279.9427,-940.258 1418.846,-929.7745 1503.2876,-924.9673"/>
<polygon fill="#000000" stroke="#000000" points="1503.5137,-928.4603 1513.3034,-924.4091 1503.1241,-921.4711 1503.5137,-928.4603"/>
<text text-anchor="middle" x="1333.8212" y="-962" font-family="Times,serif" font-size="14.00" fill="#000000">1.4 PublishStorageDeals</text>
</g>
<!-- FilecoinNode&#45;&gt;Blockchain -->
<g id="edge9" class="edge">
<title>FilecoinNode-&gt;Blockchain</title>
<path fill="none" stroke="#000000" d="M1351.2782,-996.9546C1367.5701,-991.0024 1386.0765,-983.3703 1402,-974.6 1412.9879,-968.5481 1413.3405,-963.1638 1424.6802,-957.8 1450.7967,-945.4467 1481.6697,-936.9955 1508.0607,-931.4037"/>
<polygon fill="#000000" stroke="#000000" points="1508.8331,-934.8184 1517.9366,-929.3985 1507.4401,-927.9584 1508.8331,-934.8184"/>
<text text-anchor="middle" x="1485.6599" y="-962" font-family="Times,serif" font-size="14.00" fill="#000000">1.7 PreCommitSector</text>
</g>
<!-- FilecoinNode&#45;&gt;Blockchain -->
<g id="edge10" class="edge">
<title>FilecoinNode-&gt;Blockchain</title>
<path fill="none" stroke="#000000" d="M1372.0675,-1007.912C1432.9393,-1004.1225 1519.6439,-995.198 1546,-974.6 1553.8721,-968.4477 1558.9547,-958.976 1562.2244,-949.7443"/>
<polygon fill="#000000" stroke="#000000" points="1565.6295,-950.5715 1565.1071,-939.9895 1558.9165,-948.5876 1565.6295,-950.5715"/>
<text text-anchor="middle" x="1614.3787" y="-962" font-family="Times,serif" font-size="14.00" fill="#000000">1.8 GetRandomness</text>
</g>
<!-- FilecoinNode&#45;&gt;Blockchain -->
<g id="edge12" class="edge">
<title>FilecoinNode-&gt;Blockchain</title>
<path fill="none" stroke="#000000" d="M1372.4596,-1008.9044C1471.8756,-1005.5852 1655.114,-996.538 1675,-974.6 1694.1202,-953.5069 1661.8728,-939.844 1627.9006,-931.7128"/>
<polygon fill="#000000" stroke="#000000" points="1628.36,-928.2293 1617.8375,-929.4647 1626.8338,-935.0609 1628.36,-928.2293"/>
<text text-anchor="middle" x="1751.1599" y="-962" font-family="Times,serif" font-size="14.00" fill="#000000">1.10 ProveCommitSector</text>
</g>
<!-- FilecoinNode&#45;&gt;Blockchain -->
<g id="edge21" class="edge">
<title>FilecoinNode-&gt;Blockchain</title>
<path fill="none" stroke="#000000" d="M1372.2079,-1008.4747C1506.7976,-1003.6416 1810.7337,-990.9663 1826,-974.6 1831.0931,-969.14 1830.9014,-963.4327 1826,-957.8 1813.426,-943.3497 1704.4998,-932.2588 1632.258,-926.4095"/>
<polygon fill="#000000" stroke="#000000" points="1632.1273,-922.8882 1621.8814,-925.5848 1631.5726,-929.8662 1632.1273,-922.8882"/>
<text text-anchor="middle" x="1877.2251" y="-962" font-family="Times,serif" font-size="14.00" fill="#000000">2.9 PublishBlock</text>
</g>
<!-- Clock -->
<g id="node3" class="node">
<title>Clock</title>
<ellipse fill="none" stroke="#000000" cx="736" cy="-1010.6" rx="34.2084" ry="18"/>
<text text-anchor="middle" x="736" y="-1006.4" font-family="Times,serif" font-size="14.00" fill="#000000">Clock</text>
</g>
<!-- Clock&#45;&gt;SMS -->
<g id="edge13" class="edge">
<title>Clock-&gt;SMS</title>
<path fill="none" stroke="#000000" d="M735.7745,-992.354C735.4294,-964.4351 734.7672,-910.8651 734.3566,-877.6464"/>
<polygon fill="#000000" stroke="#000000" points="737.8512,-877.1835 734.2278,-867.2276 730.8517,-877.2701 737.8512,-877.1835"/>
<text text-anchor="middle" x="786.9355" y="-917.6" font-family="Times,serif" font-size="14.00" fill="#000000">2.1 OnNewRound</text>
</g>
<!-- SPC -->
<g id="node4" class="node">
<title>SPC</title>
<ellipse fill="none" stroke="#000000" cx="1119" cy="-1010.6" rx="28.4283" ry="18"/>
<text text-anchor="middle" x="1119" y="-1006.4" font-family="Times,serif" font-size="14.00" fill="#000000">SPC</text>
</g>
<!-- BlockProducer -->
<g id="node5" class="node">
<title>BlockProducer</title>
<ellipse fill="none" stroke="#000000" cx="1160" cy="-737.8" rx="68.9216" ry="18"/>
<text text-anchor="middle" x="1160" y="-733.6" font-family="Times,serif" font-size="14.00" fill="#000000">BlockProducer</text>
</g>
<!-- SPC&#45;&gt;BlockProducer -->
<g id="edge20" class="edge">
<title>SPC-&gt;BlockProducer</title>
<path fill="none" stroke="#000000" d="M1119.6438,-992.5748C1120.2285,-974.6359 1121,-946.3187 1121,-921.8 1121,-921.8 1121,-921.8 1121,-793.3 1121,-782.2338 1126.2547,-771.8137 1132.9066,-763.0565"/>
<polygon fill="#000000" stroke="#000000" points="1135.7734,-765.088 1139.5862,-755.203 1130.4412,-760.5528 1135.7734,-765.088"/>
<text text-anchor="middle" x="1173.479" y="-844.6" font-family="Times,serif" font-size="14.00" fill="#000000">2.8 GenerateBlock</text>
</g>
<!-- SPC&#45;&gt;SMS -->
<g id="edge17" class="edge">
<title>SPC-&gt;SMS</title>
<path fill="none" stroke="#000000" d="M1104.6542,-995.0219C1078.5571,-966.8335 1024.9891,-909.717 1014,-903.8 973.0102,-881.7293 841.2886,-862.4209 774.152,-853.7148"/>
<polygon fill="#000000" stroke="#000000" points="774.3188,-850.2077 763.9553,-852.4098 773.4301,-857.151 774.3188,-850.2077"/>
<text text-anchor="middle" x="1082.4888" y="-917.6" font-family="Times,serif" font-size="14.00" fill="#000000">2.5 Elected</text>
</g>
<!-- SMS&#45;&gt;SPC -->
<g id="edge16" class="edge">
<title>SMS-&gt;SPC</title>
<path fill="none" stroke="#000000" d="M763.7486,-853.0796C800.4909,-858.8994 860.2036,-870.2702 877,-884.8 896.9969,-902.0985 879.9256,-922.2221 899.6774,-939.8 964.2935,-997.3044 1007.1145,-959.4293 1087,-992.6 1087.7064,-992.8933 1088.4169,-993.1987 1089.1296,-993.5144"/>
<polygon fill="#000000" stroke="#000000" points="1087.8396,-996.7803 1098.3578,-998.0524 1090.9287,-990.4987 1087.8396,-996.7803"/>
<text text-anchor="middle" x="957.1613" y="-917.6" font-family="Times,serif" font-size="14.00" fill="#000000">2.4 TryElectionPoSt</text>
</g>
<!-- StorageProving -->
<g id="node8" class="node">
<title>StorageProving</title>
<ellipse fill="none" stroke="#000000" cx="324" cy="-424" rx="71.2288" ry="18"/>
<text text-anchor="middle" x="324" y="-419.8" font-family="Times,serif" font-size="14.00" fill="#000000">StorageProving</text>
</g>
<!-- SMS&#45;&gt;StorageProving -->
<g id="edge14" class="edge">
<title>SMS-&gt;StorageProving</title>
<path fill="none" stroke="#000000" d="M703.9582,-845.125C638.5361,-836.7147 489,-815.1062 489,-793.3 489,-793.3 489,-793.3 489,-479.5 489,-458.4968 440.3637,-443.9404 395.9027,-435.0215"/>
<polygon fill="#000000" stroke="#000000" points="396.3912,-431.5513 385.9094,-433.0943 395.0656,-438.4247 396.3912,-431.5513"/>
<text text-anchor="middle" x="569.0891" y="-622.6" font-family="Times,serif" font-size="14.00" fill="#000000">2.2 GeneratePoStCandidates</text>
</g>
<!-- SMS&#45;&gt;StorageProving -->
<g id="edge18" class="edge">
<title>SMS-&gt;StorageProving</title>
<path fill="none" stroke="#000000" d="M703.5183,-847.8775C608.4998,-844.6012 324,-831.5942 324,-793.3 324,-793.3 324,-793.3 324,-479.5 324,-470.7318 324,-461.1843 324,-452.5196"/>
<polygon fill="#000000" stroke="#000000" points="327.5001,-452.5 324,-442.5 320.5001,-452.5 327.5001,-452.5"/>
<text text-anchor="middle" x="388.5379" y="-622.6" font-family="Times,serif" font-size="14.00" fill="#000000">2.6 GeneratePoStProof</text>
</g>
<!-- SectorIndexer -->
<g id="node11" class="node">
<title>SectorIndexer</title>
<ellipse fill="none" stroke="#000000" cx="734" cy="-626.8" rx="65.3878" ry="18"/>
<text text-anchor="middle" x="734" y="-622.6" font-family="Times,serif" font-size="14.00" fill="#000000">SectorIndexer</text>
</g>
<!-- SMS&#45;&gt;SectorIndexer -->
<g id="edge4" class="edge">
<title>SMS-&gt;SectorIndexer</title>
<path fill="none" stroke="#000000" d="M734,-830.3C734,-819.5083 734,-805.6333 734,-793.3 734,-793.3 734,-793.3 734,-682.3 734,-673.5318 734,-663.9843 734,-655.3196"/>
<polygon fill="#000000" stroke="#000000" points="737.5001,-655.3 734,-645.3 730.5001,-655.3 737.5001,-655.3"/>
<text text-anchor="middle" x="782.9804" y="-733.6" font-family="Times,serif" font-size="14.00" fill="#000000">1.2 AddNewDeal</text>
</g>
<!-- MiningScheduler -->
<g id="node7" class="node">
<title>MiningScheduler</title>
<ellipse fill="none" stroke="#000000" cx="356" cy="-848.8" rx="78.1714" ry="18"/>
<text text-anchor="middle" x="356" y="-844.6" font-family="Times,serif" font-size="14.00" fill="#000000">MiningScheduler</text>
</g>
<!-- SectorSealer -->
<g id="node9" class="node">
<title>SectorSealer</title>
<ellipse fill="none" stroke="#000000" cx="130" cy="-50" rx="59.6646" ry="18"/>
<text text-anchor="middle" x="130" y="-45.8" font-family="Times,serif" font-size="14.00" fill="#000000">SectorSealer</text>
</g>
<!-- StorageProving&#45;&gt;SectorSealer -->
<g id="edge8" class="edge">
<title>StorageProving-&gt;SectorSealer</title>
<path fill="none" stroke="#000000" d="M258.0215,-417.104C176.9452,-407.717 50,-389.6433 50,-368.5 50,-368.5 50,-368.5 50,-105.5 50,-88.2606 62.6963,-75.9487 77.9731,-67.3743"/>
<polygon fill="#000000" stroke="#000000" points="79.822,-70.3624 87.1896,-62.7486 76.682,-64.1062 79.822,-70.3624"/>
<text text-anchor="middle" x="90.4327" y="-232.8" font-family="Times,serif" font-size="14.00" fill="#000000">1.6 SealSector</text>
</g>
<!-- StorageProving&#45;&gt;SectorSealer -->
<g id="edge11" class="edge">
<title>StorageProving-&gt;SectorSealer</title>
<path fill="none" stroke="#000000" d="M273.8926,-411.201C227.9454,-398.7353 167,-380.0278 167,-368.5 167,-368.5 167,-368.5 167,-105.5 167,-94.4426 161.8526,-83.9126 155.3977,-75.0549"/>
<polygon fill="#000000" stroke="#000000" points="157.9604,-72.659 148.9336,-67.1123 152.5312,-77.0776 157.9604,-72.659"/>
<text text-anchor="middle" x="223.3689" y="-232.8" font-family="Times,serif" font-size="14.00" fill="#000000">1.9 CreateSealProof</text>
</g>
<!-- PoStGenerator -->
<g id="node10" class="node">
<title>PoStGenerator</title>
<ellipse fill="none" stroke="#000000" cx="414" cy="-50" rx="67.7741" ry="18"/>
<text text-anchor="middle" x="414" y="-45.8" font-family="Times,serif" font-size="14.00" fill="#000000">PoStGenerator</text>
</g>
<!-- StorageProving&#45;&gt;PoStGenerator -->
<g id="edge15" class="edge">
<title>StorageProving-&gt;PoStGenerator</title>
<path fill="none" stroke="#000000" d="M320,-405.5956C318,-394.8358 316,-380.9608 316,-368.5 316,-368.5 316,-368.5 316,-105.5 316,-85.5882 331.5077,-72.7356 350.1853,-64.4769"/>
<polygon fill="#000000" stroke="#000000" points="351.5369,-67.7063 359.5549,-60.7809 348.9682,-61.1946 351.5369,-67.7063"/>
<text text-anchor="middle" x="396.0891" y="-232.8" font-family="Times,serif" font-size="14.00" fill="#000000">2.3 GeneratePoStCandidates</text>
</g>
<!-- StorageProving&#45;&gt;PoStGenerator -->
<g id="edge19" class="edge">
<title>StorageProving-&gt;PoStGenerator</title>
<path fill="none" stroke="#000000" d="M389.7533,-417.0687C443.967,-409.4657 512,-394.7042 512,-368.5 512,-368.5 512,-368.5 512,-105.5 512,-85.5882 496.4923,-72.7356 477.8147,-64.4769"/>
<polygon fill="#000000" stroke="#000000" points="479.0318,-61.1946 468.4451,-60.7809 476.4631,-67.7063 479.0318,-61.1946"/>
<text text-anchor="middle" x="576.5379" y="-232.8" font-family="Times,serif" font-size="14.00" fill="#000000">2.7 GeneratePoStProof</text>
</g>
<!-- SectorIndexer&#45;&gt;StorageProving -->
<g id="edge7" class="edge">
<title>SectorIndexer-&gt;StorageProving</title>
<path fill="none" stroke="#000000" d="M689.4311,-613.5656C642.0884,-599.1857 574,-577.4376 574,-571.3 574,-571.3 574,-571.3 574,-479.5 574,-470.553 575.6501,-465.9854 569,-460 556.5384,-448.7839 468.2949,-437.8699 401.2511,-431.0544"/>
<polygon fill="#000000" stroke="#000000" points="401.4061,-427.5525 391.1068,-430.0377 400.7079,-434.5176 401.4061,-427.5525"/>
<text text-anchor="middle" x="614.4327" y="-521.2" font-family="Times,serif" font-size="14.00" fill="#000000">1.5 SealSector</text>
</g>
<!-- SectorIndex -->
<g id="node12" class="node">
<title>SectorIndex</title>
<ellipse fill="none" stroke="#000000" cx="723" cy="-237" rx="57.8849" ry="18"/>
<text text-anchor="middle" x="723" y="-232.8" font-family="Times,serif" font-size="14.00" fill="#000000">SectorIndex</text>
</g>
<!-- SectorIndexer&#45;&gt;SectorIndex -->
<g id="edge1" class="edge">
<title>SectorIndexer-&gt;SectorIndex</title>
<path fill="none" stroke="#000000" d="M730.5,-608.3733C728.75,-597.606 727,-583.731 727,-571.3 727,-571.3 727,-571.3 727,-292.5 727,-283.709 726.4946,-274.155 725.843,-265.4912"/>
<polygon fill="#000000" stroke="#000000" points="729.3265,-265.1472 725,-255.476 722.3512,-265.7344 729.3265,-265.1472"/>
</g>
<!-- SectorStore -->
<g id="node13" class="node">
<title>SectorStore</title>
<ellipse fill="none" stroke="#000000" cx="855" cy="-237" rx="56.1744" ry="18"/>
<text text-anchor="middle" x="855" y="-232.8" font-family="Times,serif" font-size="14.00" fill="#000000">SectorStore</text>
</g>
<!-- SectorIndexer&#45;&gt;SectorStore -->
<g id="edge2" class="edge">
<title>SectorIndexer-&gt;SectorStore</title>
<path fill="none" stroke="#000000" d="M771.7302,-612.0714C787.8389,-603.0959 803,-589.7481 803,-571.3 803,-571.3 803,-571.3 803,-292.5 803,-279.5808 810.5961,-268.4298 819.9818,-259.5825"/>
<polygon fill="#000000" stroke="#000000" points="822.4026,-262.1191 827.7816,-252.9913 817.8845,-256.7725 822.4026,-262.1191"/>
</g>
<!-- SectorBuilder -->
<g id="node14" class="node">
<title>SectorBuilder</title>
<ellipse fill="none" stroke="#000000" cx="994" cy="-237" rx="64.8428" ry="18"/>
<text text-anchor="middle" x="994" y="-232.8" font-family="Times,serif" font-size="14.00" fill="#000000">SectorBuilder</text>
</g>
<!-- SectorIndexer&#45;&gt;SectorBuilder -->
<g id="edge5" class="edge">
<title>SectorIndexer-&gt;SectorBuilder</title>
<path fill="none" stroke="#000000" d="M794.2627,-619.5682C845.9019,-611.6348 912,-596.5487 912,-571.3 912,-571.3 912,-571.3 912,-292.5 912,-275.3996 924.3816,-263.2088 939.5222,-254.6941"/>
<polygon fill="#000000" stroke="#000000" points="941.3155,-257.7101 948.6829,-250.0962 938.1754,-251.4539 941.3155,-257.7101"/>
<text text-anchor="middle" x="951.2644" y="-419.8" font-family="Times,serif" font-size="14.00" fill="#000000">1.3 StageDeal</text>
</g>
</g>
</svg>