<?xml version="1.0" encoding="UTF-8" standalone="no"?>
<!DOCTYPE svg PUBLIC "-//W3C//DTD SVG 1.1//EN"
 "http://www.w3.org/Graphics/SVG/1.1/DTD/svg11.dtd">
<!-- Generated by graphviz version 2.40.1 (20161225.0304)
 -->
<!-- Title: %3 Pages: 1 -->
<svg width="440pt" height="196pt"
 viewBox="0.00 0.00 440.00 196.00" xmlns="http://www.w3.org/2000/svg" xmlns:xlink="http://www.w3.org/1999/xlink">
<g id="graph0" class="graph" transform="scale(1 1) rotate(0) translate(4 192)">
<title>%3</title>
<polygon fill="#ffffff" stroke="transparent" points="-4,4 -4,-192 436,-192 436,4 -4,4"/>
<g id="clust1" class="cluster">
<title>cluster_01</title>
<polygon fill="none" stroke="#000000" points="8,-8 8,-180 424,-180 424,-8 8,-8"/>
<text text-anchor="middle" x="216" y="-164.8" font-family="Times,serif" font-size="14.00" fill="#000000">Legend</text>
</g>
<!-- key -->
<g id="node1" class="node">
<title>key</title>
<text text-anchor="start" x="88.5342" y="-132.8" font-family="Times,serif" font-size="14.00" fill="#000000">SectorPreCommit: Cleared &#45; PreCommit</text>
<text text-anchor="start" x="65.2031" y="-114.8" font-family="Times,serif" font-size="14.00" fill="#000000">PreCommitExpiration: PreCommit &#45; Cleared</text>
<text text-anchor="start" x="81.5137" y="-96.8" font-family="Times,serif" font-size="14.00" fill="#000000">SectorProveCommit: PreCommit &#45; Active</text>
<text text-anchor="start" x="25.8491" y="-78.8" font-family="Times,serif" font-size="14.00" fill="#000000">TemporaryFaultEffectiveBegin: Active &#45; TempFault</text>
<text text-anchor="start" x="36.5879" y="-60.8" font-family="Times,serif" font-size="14.00" fill="#000000">TemporaryFaultEffectiveEnd: TempFault &#45; Active</text>
<text text-anchor="start" x="122.0029" y="-42.8" font-family="Times,serif" font-size="14.00" fill="#000000">SectorExpiration: Active &#45; Cleared</text>
<text text-anchor="start" x="115.9941" y="-24.8" font-family="Times,serif" font-size="14.00" fill="#000000">UserTerminateion: Active &#45; Cleared</text>
</g>
<!-- key2 -->
<g id="node2" class="node">
<title>key2</title>
<text text-anchor="start" x="387.75" y="-132.8" font-family="Times,serif" font-size="14.00" fill="#000000"> </text>
<text text-anchor="start" x="387.75" y="-114.8" font-family="Times,serif" font-size="14.00" fill="#000000"> </text>
<text text-anchor="start" x="387.75" y="-96.8" font-family="Times,serif" font-size="14.00" fill="#000000"> </text>
<text text-anchor="start" x="387.75" y="-78.8" font-family="Times,serif" font-size="14.00" fill="#000000"> </text>
<text text-anchor="start" x="387.75" y="-60.8" font-family="Times,serif" font-size="14.00" fill="#000000"> </text>
<text text-anchor="start" x="387.75" y="-42.8" font-family="Times,serif" font-size="14.00" fill="#000000"> </text>
<text text-anchor="start" x="387.75" y="-24.8" font-family="Times,serif" font-size="14.00" fill="#000000"> </text>
</g>
<!-- key&#45;&gt;key2 -->
<g id="edge1" class="edge">
<title>key:e&#45;&gt;key2:w</title>
<path fill="none" stroke="#000000" d="M318,-137C344.5625,-137 353.6155,-137 375.9375,-137"/>
<polygon fill="#000000" stroke="#000000" points="376,-140.5001 386,-137 376,-133.5001 376,-140.5001"/>
</g>
<!-- key&#45;&gt;key2 -->
<g id="edge2" class="edge">
<title>key:e&#45;&gt;key2:w</title>
<path fill="none" stroke="#c0c0c0" d="M318,-119C344.5625,-119 353.6155,-119 375.9375,-119"/>
<polygon fill="#c0c0c0" stroke="#c0c0c0" points="376,-122.5001 386,-119 376,-115.5001 376,-122.5001"/>
</g>
<!-- key&#45;&gt;key2 -->
<g id="edge3" class="edge">
<title>key:e&#45;&gt;key2:w</title>
<path fill="none" stroke="#00ff00" d="M318,-101C344.5625,-101 353.6155,-101 375.9375,-101"/>
<polygon fill="#00ff00" stroke="#00ff00" points="376,-104.5001 386,-101 376,-97.5001 376,-104.5001"/>
</g>
<!-- key&#45;&gt;key2 -->
<g id="edge4" class="edge">
<title>key:e&#45;&gt;key2:w</title>
<path fill="none" stroke="#ffa500" d="M318,-83C344.5625,-83 353.6155,-83 375.9375,-83"/>
<polygon fill="#ffa500" stroke="#ffa500" points="376,-86.5001 386,-83 376,-79.5001 376,-86.5001"/>
</g>
<!-- key&#45;&gt;key2 -->
<g id="edge5" class="edge">
<title>key:e&#45;&gt;key2:w</title>
<path fill="none" stroke="#00ffff" d="M318,-65C344.5625,-65 353.6155,-65 375.9375,-65"/>
<polygon fill="#00ffff" stroke="#00ffff" points="376,-68.5001 386,-65 376,-61.5001 376,-68.5001"/>
</g>
<!-- key&#45;&gt;key2 -->
<g id="edge6" class="edge">
<title>key:e&#45;&gt;key2:w</title>
<path fill="none" stroke="#0000ff" d="M318,-47C344.5625,-47 353.6155,-47 375.9375,-47"/>
<polygon fill="#0000ff" stroke="#0000ff" points="376,-50.5001 386,-47 376,-43.5001 376,-50.5001"/>
</g>
<!-- key&#45;&gt;key2 -->
<g id="edge7" class="edge">
<title>key:e&#45;&gt;key2:w</title>
<path fill="none" stroke="#a020f0" d="M318,-29C344.5625,-29 353.6155,-29 375.9375,-29"/>
<polygon fill="#a020f0" stroke="#a020f0" points="376,-32.5001 386,-29 376,-25.5001 376,-32.5001"/>
</g>
</g>
</svg>
