<?xml version="1.0" encoding="UTF-8" standalone="no"?>
<!DOCTYPE svg PUBLIC "-//W3C//DTD SVG 1.1//EN"
 "http://www.w3.org/Graphics/SVG/1.1/DTD/svg11.dtd">
<!-- Generated by graphviz version 2.40.1 (20161225.0304)
 -->
<!-- Title: G Pages: 1 -->
<svg width="625pt" height="800pt"
 viewBox="0.00 0.00 625.24 800.00" xmlns="http://www.w3.org/2000/svg" xmlns:xlink="http://www.w3.org/1999/xlink">
<g id="graph0" class="graph" transform="scale(1 1) rotate(0) translate(4 796)">
<title>G</title>
<polygon fill="#ffffff" stroke="transparent" points="-4,4 -4,-796 621.2397,-796 621.2397,4 -4,4"/>
<!-- .md -->
<g id="node1" class="node">
<title>.md</title>
<polygon fill="#ffffe0" stroke="#000000" points="65.2397,-468 11.2397,-468 11.2397,-432 65.2397,-432 65.2397,-468"/>
<text text-anchor="middle" x="38.2397" y="-445.8" font-family="Times,serif" font-size="14.00" fill="#000000">.md</text>
</g>
<!-- make pdf -->
<g id="node16" class="node">
<title>make pdf</title>
<text text-anchor="middle" x="34.2397" y="-229.8" font-family="Times,serif" font-size="14.00" fill="#000000">make pdf</text>
</g>
<!-- .md&#45;&gt;make pdf -->
<g id="edge19" class="edge">
<title>.md&#45;&gt;make pdf</title>
<path fill="none" stroke="#000000" d="M37.9056,-431.9555C37.21,-394.3938 35.6019,-307.5541 34.7659,-262.4103"/>
<polygon fill="#000000" stroke="#000000" points="38.2604,-262.0785 34.5758,-252.1451 31.2616,-262.2082 38.2604,-262.0785"/>
</g>
<!-- hugo build -->
<g id="node18" class="node">
<title>hugo build</title>
<polygon fill="none" stroke="#000000" points="491.5196,-360 414.9599,-360 414.9599,-324 491.5196,-324 491.5196,-360"/>
<text text-anchor="middle" x="453.2397" y="-337.8" font-family="Times,serif" font-size="14.00" fill="#000000">hugo build</text>
</g>
<!-- .md&#45;&gt;hugo build -->
<g id="edge3" class="edge">
<title>.md&#45;&gt;hugo build</title>
<path fill="none" stroke="#000000" d="M65.4391,-442.8998C78.1392,-439.5857 93.4624,-435.5889 107.2397,-432 213.6464,-404.2818 338.4771,-371.8268 405.276,-354.4647"/>
<polygon fill="#000000" stroke="#000000" points="406.2961,-357.8159 415.0941,-351.9129 404.5352,-351.041 406.2961,-357.8159"/>
</g>
<!-- .ipld -->
<g id="node2" class="node">
<title>.ipld</title>
<polygon fill="#ffffe0" stroke="#000000" points="551.2397,-684 497.2397,-684 497.2397,-648 551.2397,-648 551.2397,-684"/>
<text text-anchor="middle" x="524.2397" y="-661.8" font-family="Times,serif" font-size="14.00" fill="#000000">.ipld</text>
</g>
<!-- bin/codeGen -->
<g id="node12" class="node">
<title>bin/codeGen</title>
<text text-anchor="middle" x="524.2397" y="-553.8" font-family="Times,serif" font-size="14.00" fill="#000000">bin/codeGen</text>
</g>
<!-- .ipld&#45;&gt;bin/codeGen -->
<g id="edge11" class="edge">
<title>.ipld&#45;&gt;bin/codeGen</title>
<path fill="none" stroke="#000000" d="M524.2397,-647.6793C524.2397,-630.821 524.2397,-605.5651 524.2397,-586.147"/>
<polygon fill="#000000" stroke="#000000" points="527.7398,-586.0501 524.2397,-576.0502 520.7398,-586.0502 527.7398,-586.0501"/>
</g>
<!-- .go -->
<g id="node3" class="node">
<title>.go</title>
<polygon fill="#ffffe0" stroke="#000000" points="551.2397,-468 497.2397,-468 497.2397,-432 551.2397,-432 551.2397,-468"/>
<text text-anchor="middle" x="524.2397" y="-445.8" font-family="Times,serif" font-size="14.00" fill="#000000">.go</text>
</g>
<!-- go test -->
<g id="node14" class="node">
<title>go test</title>
<text text-anchor="middle" x="590.2397" y="-337.8" font-family="Times,serif" font-size="14.00" fill="#000000">go test</text>
</g>
<!-- .go&#45;&gt;go test -->
<g id="edge13" class="edge">
<title>.go&#45;&gt;go test</title>
<path fill="none" stroke="#000000" d="M535.4357,-431.6793C545.9765,-414.4307 561.8895,-388.3914 573.857,-368.8081"/>
<polygon fill="#000000" stroke="#000000" points="576.981,-370.4081 579.2091,-360.0502 571.0081,-366.7579 576.981,-370.4081"/>
</g>
<!-- .go&#45;&gt;hugo build -->
<g id="edge15" class="edge">
<title>.go&#45;&gt;hugo build</title>
<path fill="none" stroke="#000000" d="M512.1956,-431.6793C500.8049,-414.3527 483.5827,-388.1555 470.6891,-368.5427"/>
<polygon fill="#000000" stroke="#000000" points="473.524,-366.4835 465.1061,-360.0502 467.6748,-370.3289 473.524,-366.4835"/>
</g>
<!-- .orient -->
<g id="node4" class="node">
<title>.orient</title>
<polygon fill="#ffffe0" stroke="#000000" points="197.2397,-792 143.2397,-792 143.2397,-756 197.2397,-756 197.2397,-792"/>
<text text-anchor="middle" x="170.2397" y="-769.8" font-family="Times,serif" font-size="14.00" fill="#000000">.orient</text>
</g>
<!-- orient -->
<g id="node11" class="node">
<title>orient</title>
<text text-anchor="middle" x="170.2397" y="-661.8" font-family="Times,serif" font-size="14.00" fill="#000000">orient</text>
</g>
<!-- .orient&#45;&gt;orient -->
<g id="edge5" class="edge">
<title>.orient&#45;&gt;orient</title>
<path fill="none" stroke="#000000" d="M170.2397,-755.6793C170.2397,-738.821 170.2397,-713.5651 170.2397,-694.147"/>
<polygon fill="#000000" stroke="#000000" points="173.7398,-694.0501 170.2397,-684.0502 166.7398,-694.0502 173.7398,-694.0501"/>
</g>
<!-- .org -->
<g id="node5" class="node">
<title>.org</title>
<polygon fill="#ffffe0" stroke="#000000" points="65.2397,-684 11.2397,-684 11.2397,-648 65.2397,-648 65.2397,-684"/>
<text text-anchor="middle" x="38.2397" y="-661.8" font-family="Times,serif" font-size="14.00" fill="#000000">.org</text>
</g>
<!-- &lt;emacs&gt; -->
<g id="node17" class="node">
<title>&lt;emacs&gt;</title>
<polygon fill="none" stroke="#000000" points="71.5106,-576 4.9688,-576 4.9688,-540 71.5106,-540 71.5106,-576"/>
<text text-anchor="middle" x="38.2397" y="-553.8" font-family="Times,serif" font-size="14.00" fill="#000000">&lt;emacs&gt;</text>
</g>
<!-- .org&#45;&gt;&lt;emacs&gt; -->
<g id="edge1" class="edge">
<title>.org&#45;&gt;&lt;emacs&gt;</title>
<path fill="none" stroke="#000000" d="M38.2397,-647.6793C38.2397,-630.821 38.2397,-605.5651 38.2397,-586.147"/>
<polygon fill="#000000" stroke="#000000" points="41.7398,-586.0501 38.2397,-576.0502 34.7398,-586.0502 41.7398,-586.0501"/>
</g>
<!-- .dot -->
<g id="node6" class="node">
<title>.dot</title>
<polygon fill="#ffffe0" stroke="#000000" points="197.2397,-576 143.2397,-576 143.2397,-540 197.2397,-540 197.2397,-576"/>
<text text-anchor="middle" x="170.2397" y="-553.8" font-family="Times,serif" font-size="14.00" fill="#000000">.dot</text>
</g>
<!-- dot -->
<g id="node10" class="node">
<title>dot</title>
<text text-anchor="middle" x="170.2397" y="-445.8" font-family="Times,serif" font-size="14.00" fill="#000000">dot</text>
</g>
<!-- .dot&#45;&gt;dot -->
<g id="edge9" class="edge">
<title>.dot&#45;&gt;dot</title>
<path fill="none" stroke="#000000" d="M170.2397,-539.6793C170.2397,-522.821 170.2397,-497.5651 170.2397,-478.147"/>
<polygon fill="#000000" stroke="#000000" points="173.7398,-478.0501 170.2397,-468.0502 166.7398,-478.0502 173.7398,-478.0501"/>
</g>
<!-- [website] -->
<g id="node7" class="node">
<title>[website]</title>
<polygon fill="#000000" stroke="#000000" points="282.3296,-36 214.1498,-36 214.1498,0 282.3296,0 282.3296,-36"/>
<text text-anchor="middle" x="248.2397" y="-13.8" font-family="Times,serif" font-size="14.00" fill="#000000">[website]</text>
</g>
<!-- spec.pdf -->
<g id="node8" class="node">
<title>spec.pdf</title>
<polygon fill="#000000" stroke="#000000" points="65.7778,-144 2.7016,-144 2.7016,-108 65.7778,-108 65.7778,-144"/>
<text text-anchor="middle" x="34.2397" y="-121.8" font-family="Times,serif" font-size="14.00" fill="#000000">spec.pdf</text>
</g>
<!-- emacs -->
<g id="node9" class="node">
<title>emacs</title>
<text text-anchor="middle" x="296.2397" y="-769.8" font-family="Times,serif" font-size="14.00" fill="#000000">emacs</text>
</g>
<!-- .svg -->
<g id="node20" class="node">
<title>.svg</title>
<polygon fill="none" stroke="#000000" points="197.2397,-360 143.2397,-360 143.2397,-324 197.2397,-324 197.2397,-360"/>
<text text-anchor="middle" x="170.2397" y="-337.8" font-family="Times,serif" font-size="14.00" fill="#000000">.svg</text>
</g>
<!-- dot&#45;&gt;.svg -->
<g id="edge10" class="edge">
<title>dot&#45;&gt;.svg</title>
<path fill="none" stroke="#000000" d="M170.2397,-431.6793C170.2397,-414.821 170.2397,-389.5651 170.2397,-370.147"/>
<polygon fill="#000000" stroke="#000000" points="173.7398,-370.0501 170.2397,-360.0502 166.7398,-370.0502 173.7398,-370.0501"/>
</g>
<!-- orient&#45;&gt;.dot -->
<g id="edge7" class="edge">
<title>orient&#45;&gt;.dot</title>
<path fill="none" stroke="#000000" d="M170.2397,-647.6793C170.2397,-630.821 170.2397,-605.5651 170.2397,-586.147"/>
<polygon fill="#000000" stroke="#000000" points="173.7398,-586.0501 170.2397,-576.0502 166.7398,-586.0502 173.7398,-586.0501"/>
</g>
<!-- orient&#45;&gt;&lt;emacs&gt; -->
<g id="edge6" class="edge">
<title>orient&#45;&gt;&lt;emacs&gt;</title>
<path fill="none" stroke="#000000" d="M148.1459,-647.9232C126.2542,-630.0118 92.5677,-602.4501 68.2593,-582.5614"/>
<polygon fill="#000000" stroke="#000000" points="70.3616,-579.7593 60.4057,-576.1357 65.9289,-585.177 70.3616,-579.7593"/>
</g>
<!-- .html -->
<g id="node19" class="node">
<title>.html</title>
<polygon fill="none" stroke="#000000" points="340.2397,-252 286.2397,-252 286.2397,-216 340.2397,-216 340.2397,-252"/>
<text text-anchor="middle" x="313.2397" y="-229.8" font-family="Times,serif" font-size="14.00" fill="#000000">.html</text>
</g>
<!-- orient&#45;&gt;.html -->
<g id="edge8" class="edge">
<title>orient&#45;&gt;.html</title>
<path fill="none" stroke="#000000" d="M186.0118,-647.965C200.3617,-630.6426 221.1005,-603.1645 233.2397,-576 282.3065,-466.2015 303.2527,-322.5954 310.2844,-262.4416"/>
<polygon fill="#000000" stroke="#000000" points="313.7958,-262.5371 311.4391,-252.2077 306.8399,-261.7522 313.7958,-262.5371"/>
</g>
<!-- bin/codeGen&#45;&gt;.go -->
<g id="edge12" class="edge">
<title>bin/codeGen&#45;&gt;.go</title>
<path fill="none" stroke="#000000" d="M524.2397,-539.6793C524.2397,-522.821 524.2397,-497.5651 524.2397,-478.147"/>
<polygon fill="#000000" stroke="#000000" points="527.7398,-478.0501 524.2397,-468.0502 520.7398,-478.0502 527.7398,-478.0501"/>
</g>
<!-- hugo -->
<g id="node13" class="node">
<title>hugo</title>
<text text-anchor="middle" x="422.2397" y="-769.8" font-family="Times,serif" font-size="14.00" fill="#000000">hugo</text>
</g>
<!-- [ok] -->
<g id="node21" class="node">
<title>[ok]</title>
<polygon fill="none" stroke="#000000" points="617.2397,-252 563.2397,-252 563.2397,-216 617.2397,-216 617.2397,-252"/>
<text text-anchor="middle" x="590.2397" y="-229.8" font-family="Times,serif" font-size="14.00" fill="#000000">[ok]</text>
</g>
<!-- go test&#45;&gt;[ok] -->
<g id="edge14" class="edge">
<title>go test&#45;&gt;[ok]</title>
<path fill="none" stroke="#000000" d="M590.2397,-323.6793C590.2397,-306.821 590.2397,-281.5651 590.2397,-262.147"/>
<polygon fill="#000000" stroke="#000000" points="593.7398,-262.0501 590.2397,-252.0502 586.7398,-262.0502 593.7398,-262.0501"/>
</g>
<!-- make website -->
<g id="node15" class="node">
<title>make website</title>
<text text-anchor="middle" x="248.2397" y="-121.8" font-family="Times,serif" font-size="14.00" fill="#000000">make website</text>
</g>
<!-- make website&#45;&gt;[website] -->
<g id="edge17" class="edge">
<title>make website&#45;&gt;[website]</title>
<path fill="none" stroke="#000000" d="M248.2397,-107.6793C248.2397,-90.821 248.2397,-65.5651 248.2397,-46.147"/>
<polygon fill="#000000" stroke="#000000" points="251.7398,-46.0501 248.2397,-36.0502 244.7398,-46.0502 251.7398,-46.0501"/>
</g>
<!-- make pdf&#45;&gt;spec.pdf -->
<g id="edge20" class="edge">
<title>make pdf&#45;&gt;spec.pdf</title>
<path fill="none" stroke="#000000" d="M34.2397,-215.6793C34.2397,-198.821 34.2397,-173.5651 34.2397,-154.147"/>
<polygon fill="#000000" stroke="#000000" points="37.7398,-154.0501 34.2397,-144.0502 30.7398,-154.0502 37.7398,-154.0501"/>
</g>
<!-- &lt;emacs&gt;&#45;&gt;.md -->
<g id="edge2" class="edge">
<title>&lt;emacs&gt;&#45;&gt;.md</title>
<path fill="none" stroke="#000000" d="M38.2397,-539.6793C38.2397,-522.821 38.2397,-497.5651 38.2397,-478.147"/>
<polygon fill="#000000" stroke="#000000" points="41.7398,-478.0501 38.2397,-468.0502 34.7398,-478.0502 41.7398,-478.0501"/>
</g>
<!-- hugo build&#45;&gt;.html -->
<g id="edge4" class="edge">
<title>hugo build&#45;&gt;.html</title>
<path fill="none" stroke="#000000" d="M429.8069,-323.9232C406.4874,-305.9339 370.5494,-278.2103 344.7429,-258.3024"/>
<polygon fill="#000000" stroke="#000000" points="346.8047,-255.4726 336.749,-252.1357 342.5291,-261.0151 346.8047,-255.4726"/>
</g>
<!-- .html&#45;&gt;make website -->
<g id="edge16" class="edge">
<title>.html&#45;&gt;make website</title>
<path fill="none" stroke="#000000" d="M302.2134,-215.6793C291.8323,-198.4307 276.1605,-172.3914 264.3742,-152.8081"/>
<polygon fill="#000000" stroke="#000000" points="267.2587,-150.8133 259.1033,-144.0502 261.2612,-154.4229 267.2587,-150.8133"/>
</g>
<!-- .svg&#45;&gt;make website -->
<g id="edge18" class="edge">
<title>.svg&#45;&gt;make website</title>
<path fill="none" stroke="#000000" d="M176.7558,-323.9555C190.4058,-286.1556 222.077,-198.4506 238.2888,-153.5564"/>
<polygon fill="#000000" stroke="#000000" points="241.5828,-154.7394 241.6874,-144.1451 234.9989,-152.3618 241.5828,-154.7394"/>
</g>
<!-- .svg&#45;&gt;make pdf -->
<g id="edge21" class="edge">
<title>.svg&#45;&gt;make pdf</title>
<path fill="none" stroke="#000000" d="M147.4764,-323.9232C124.9213,-306.0118 90.214,-278.4501 65.169,-258.5614"/>
<polygon fill="#000000" stroke="#000000" points="67.0851,-255.6137 57.0774,-252.1357 62.7319,-261.0955 67.0851,-255.6137"/>
</g>
</g>
</svg>
