<?xml version="1.0" encoding="UTF-8" standalone="no"?>
<!DOCTYPE svg PUBLIC "-//W3C//DTD SVG 1.1//EN"
 "http://www.w3.org/Graphics/SVG/1.1/DTD/svg11.dtd">
<!-- Generated by graphviz version 2.40.1 (20161225.0304)
 -->
<!-- Title: G Pages: 1 -->
<svg width="398pt" height="98pt"
 viewBox="0.00 0.00 397.74 98.00" xmlns="http://www.w3.org/2000/svg" xmlns:xlink="http://www.w3.org/1999/xlink">
<g id="graph0" class="graph" transform="scale(1 1) rotate(0) translate(4 94)">
<title>G</title>
<polygon fill="#ffffff" stroke="transparent" points="-4,4 -4,-94 393.7383,-94 393.7383,4 -4,4"/>
<!-- B1 -->
<g id="node1" class="node">
<title>B1</title>
<polygon fill="#00cd00" stroke="#00cd00" points="74.487,-63 -.1628,-63 -.1628,-27 74.487,-27 74.487,-63"/>
<text text-anchor="middle" x="37.1621" y="-47.8" font-family="Times,serif" font-size="14.00" fill="#000000">B1</text>
<text text-anchor="middle" x="37.1621" y="-33.8" font-family="Times,serif" font-size="14.00" fill="#000000">MinerAny</text>
</g>
<!-- B2 -->
<g id="node2" class="node">
<title>B2</title>
<polygon fill="#00cd00" stroke="#00cd00" points="184.8113,-90 110.1614,-90 110.1614,-54 184.8113,-54 184.8113,-90"/>
<text text-anchor="middle" x="147.4863" y="-74.8" font-family="Times,serif" font-size="14.00" fill="#000000">B2</text>
<text text-anchor="middle" x="147.4863" y="-60.8" font-family="Times,serif" font-size="14.00" fill="#000000">MinerAny</text>
</g>
<!-- B2&#45;&gt;B1 -->
<g id="edge3" class="edge">
<title>B2&#45;&gt;B1</title>
<path fill="none" stroke="#000000" d="M110.1356,-62.859C101.8684,-60.8358 93.0034,-58.6662 84.4008,-56.5609"/>
<polygon fill="#000000" stroke="#000000" points="85.0198,-53.1091 74.4744,-54.1316 83.3557,-59.9085 85.0198,-53.1091"/>
</g>
<!-- B3 -->
<g id="node3" class="node">
<title>B3</title>
<polygon fill="#ffc0cb" stroke="#ffc0cb" points="176.7524,-36 118.2202,-36 118.2202,0 176.7524,0 176.7524,-36"/>
<text text-anchor="middle" x="147.4863" y="-20.8" font-family="Times,serif" font-size="14.00" fill="#000000">B3</text>
<text text-anchor="middle" x="147.4863" y="-6.8" font-family="Times,serif" font-size="14.00" fill="#000000">MinerE</text>
</g>
<!-- B3&#45;&gt;B1 -->
<g id="edge4" class="edge">
<title>B3&#45;&gt;B1</title>
<path fill="none" stroke="#000000" d="M118.2111,-25.1646C107.8427,-27.7021 95.8963,-30.6258 84.4165,-33.4353"/>
<polygon fill="#000000" stroke="#000000" points="83.3809,-30.0853 74.4996,-35.8623 85.045,-36.8847 83.3809,-30.0853"/>
</g>
<!-- B4 -->
<g id="node4" class="node">
<title>B4</title>
<polygon fill="#ffc0cb" stroke="#ffc0cb" points="389.6216,-90 331.0894,-90 331.0894,-54 389.6216,-54 389.6216,-90"/>
<text text-anchor="middle" x="360.3555" y="-74.8" font-family="Times,serif" font-size="14.00" fill="#000000">B4</text>
<text text-anchor="middle" x="360.3555" y="-60.8" font-family="Times,serif" font-size="14.00" fill="#000000">MinerE</text>
</g>
<!-- B4Null -->
<g id="node6" class="node">
<title>B4Null</title>
<polygon fill="none" stroke="#c0c0c0" stroke-dasharray="5,2" points="284.8105,-90 230.8105,-90 230.8105,-54 284.8105,-54 284.8105,-90"/>
</g>
<!-- B4&#45;&gt;B4Null -->
<g id="edge1" class="edge">
<title>B4&#45;&gt;B4Null</title>
<path fill="none" stroke="#000000" d="M330.9702,-72C319.8012,-72 306.9264,-72 295.1206,-72"/>
<polygon fill="#000000" stroke="#000000" points="295.0909,-68.5001 285.0908,-72 295.0908,-75.5001 295.0909,-68.5001"/>
</g>
<!-- B5 -->
<g id="node5" class="node">
<title>B5</title>
<polygon fill="#00cd00" stroke="#00cd00" points="295.1355,-36 220.4856,-36 220.4856,0 295.1355,0 295.1355,-36"/>
<text text-anchor="middle" x="257.8105" y="-20.8" font-family="Times,serif" font-size="14.00" fill="#000000">B5</text>
<text text-anchor="middle" x="257.8105" y="-6.8" font-family="Times,serif" font-size="14.00" fill="#000000">MinerAny</text>
</g>
<!-- B5&#45;&gt;B2 -->
<g id="edge6" class="edge">
<title>B5&#45;&gt;B2</title>
<path fill="none" stroke="#000000" d="M220.7673,-36.1314C212.1258,-40.3612 202.8169,-44.9175 193.8287,-49.317"/>
<polygon fill="#000000" stroke="#000000" points="192.0627,-46.2845 184.6196,-53.8245 195.1402,-52.5718 192.0627,-46.2845"/>
</g>
<!-- B5&#45;&gt;B3 -->
<g id="edge5" class="edge">
<title>B5&#45;&gt;B3</title>
<path fill="none" stroke="#000000" d="M220.4598,-18C209.659,-18 197.8376,-18 186.9145,-18"/>
<polygon fill="#000000" stroke="#000000" points="186.7797,-14.5001 176.7796,-18 186.7796,-21.5001 186.7797,-14.5001"/>
</g>
<!-- B4Null&#45;&gt;B2 -->
<g id="edge2" class="edge">
<title>B4Null&#45;&gt;B2</title>
<path fill="none" stroke="#000000" d="M230.5394,-72C219.7716,-72 207.0798,-72 194.9018,-72"/>
<polygon fill="#000000" stroke="#000000" points="194.8467,-68.5001 184.8467,-72 194.8467,-75.5001 194.8467,-68.5001"/>
</g>
</g>
</svg>
