<?xml version="1.0" encoding="UTF-8" standalone="no"?>
<!DOCTYPE svg PUBLIC "-//W3C//DTD SVG 1.1//EN"
 "http://www.w3.org/Graphics/SVG/1.1/DTD/svg11.dtd">
<!-- Generated by graphviz version 2.40.1 (20161225.0304)
 -->
<!-- Title: Filecoin Pages: 1 -->
<svg width="1890pt" height="1395pt"
 viewBox="0.00 0.00 1890.00 1394.98" xmlns="http://www.w3.org/2000/svg" xmlns:xlink="http://www.w3.org/1999/xlink">
<g id="graph0" class="graph" transform="scale(1 1) rotate(0) translate(4 1390.978)">
<title>Filecoin</title>
<polygon fill="#ffffff" stroke="transparent" points="-4,4 -4,-1390.978 1886,-1390.978 1886,4 -4,4"/>
<g id="clust1" class="cluster">
<title>cluster_blockchain_subgroup</title>
<polygon fill="#e0ffff" stroke="#e0ffff" points="910,-367.3984 910,-979.1839 1378,-979.1839 1378,-367.3984 910,-367.3984"/>
</g>
<g id="clust2" class="cluster">
<title>cluster_blockchain</title>
<polygon fill="#d3d3d3" stroke="#d3d3d3" points="918,-738.3264 918,-946.9155 1098,-946.9155 1098,-738.3264 918,-738.3264"/>
<text text-anchor="middle" x="1008" y="-931.7155" font-family="Times,serif" font-size="14.00" fill="#000000">Blockchain</text>
</g>
<g id="clust4" class="cluster">
<title>cluster_vm</title>
<polygon fill="#d3d3d3" stroke="#d3d3d3" points="1054,-465.3984 1054,-654.0581 1370,-654.0581 1370,-465.3984 1054,-465.3984"/>
<text text-anchor="middle" x="1212" y="-638.8581" font-family="Times,serif" font-size="14.00" fill="#000000">Filecoin VM</text>
</g>
<g id="clust7" class="cluster">
<title>cluster_messagepool</title>
<polygon fill="#d3d3d3" stroke="#d3d3d3" points="918,-375.3984 918,-552.9516 1046,-552.9516 1046,-375.3984 918,-375.3984"/>
<text text-anchor="middle" x="982" y="-537.7516" font-family="Times,serif" font-size="14.00" fill="#000000">Message Pool</text>
</g>
<g id="clust9" class="cluster">
<title>cluster_storagepowerconsensus</title>
<polygon fill="#d3d3d3" stroke="#d3d3d3" points="1194,-738.3264 1194,-971.1839 1355,-971.1839 1355,-738.3264 1194,-738.3264"/>
<text text-anchor="middle" x="1274.5" y="-955.9839" font-family="Times,serif" font-size="14.00" fill="#000000">Storage Power Consensus</text>
</g>
<g id="clust12" class="cluster">
<title>cluster_markets</title>
<polygon fill="#e6e6fa" stroke="#e6e6fa" points="326,-1005.1839 326,-1231.4413 842,-1231.4413 842,-1005.1839 326,-1005.1839"/>
</g>
<g id="clust13" class="cluster">
<title>cluster_storagemarket</title>
<polygon fill="#d3d3d3" stroke="#d3d3d3" points="596,-1013.1839 596,-1223.4413 834,-1223.4413 834,-1013.1839 596,-1013.1839"/>
<text text-anchor="middle" x="715" y="-1208.2413" font-family="Times,serif" font-size="14.00" fill="#000000">Storage Market</text>
</g>
<g id="clust18" class="cluster">
<title>cluster_retrievalmarket</title>
<polygon fill="#d3d3d3" stroke="#d3d3d3" points="334,-1109.5177 334,-1214.8282 588,-1214.8282 588,-1109.5177 334,-1109.5177"/>
<text text-anchor="middle" x="461" y="-1199.6282" font-family="Times,serif" font-size="14.00" fill="#000000">Retrieval Market</text>
</g>
<g id="clust21" class="cluster">
<title>cluster_filesdata</title>
<polygon fill="#e6e6fa" stroke="#e6e6fa" points="480,-360.6484 480,-975.2363 880,-975.2363 880,-360.6484 480,-360.6484"/>
</g>
<g id="clust22" class="cluster">
<title>cluster_pieces</title>
<polygon fill="#d3d3d3" stroke="#d3d3d3" points="488,-852.5947 488,-967.2363 872,-967.2363 872,-852.5947 488,-852.5947"/>
<text text-anchor="middle" x="680" y="-952.0363" font-family="Times,serif" font-size="14.00" fill="#000000">Data Transfers</text>
</g>
<g id="clust28" class="cluster">
<title>cluster_files</title>
<polygon fill="#d3d3d3" stroke="#d3d3d3" points="722,-368.6484 722,-640.5049 872,-640.5049 872,-368.6484 722,-368.6484"/>
<text text-anchor="middle" x="797" y="-625.3049" font-family="Times,serif" font-size="14.00" fill="#000000">Local File Storage</text>
</g>
<g id="clust30" class="cluster">
<title>cluster_storageminerprocess</title>
<polygon fill="#bfefff" stroke="#bfefff" points="872,-1018.9046 872,-1378.978 1441,-1378.978 1441,-1018.9046 872,-1018.9046"/>
</g>
<g id="clust31" class="cluster">
<title>cluster_storagemining</title>
<polygon fill="#d3d3d3" stroke="#d3d3d3" points="988,-1248.4413 988,-1370.978 1236,-1370.978 1236,-1248.4413 988,-1248.4413"/>
<text text-anchor="middle" x="1112" y="-1355.778" font-family="Times,serif" font-size="14.00" fill="#000000">Storage Mining</text>
</g>
<g id="clust34" class="cluster">
<title>cluster_sectorindexer</title>
<polygon fill="#d3d3d3" stroke="#d3d3d3" points="880,-1026.9046 880,-1100.9046 1096,-1100.9046 1096,-1026.9046 880,-1026.9046"/>
<text text-anchor="middle" x="988" y="-1085.7046" font-family="Times,serif" font-size="14.00" fill="#000000">Sector Indexer</text>
</g>
<g id="clust36" class="cluster">
<title>cluster_filproofs_subsystem</title>
<polygon fill="#d3d3d3" stroke="#d3d3d3" points="1104,-1026.9046 1104,-1100.9046 1433,-1100.9046 1433,-1026.9046 1104,-1026.9046"/>
<text text-anchor="middle" x="1268.5" y="-1085.7046" font-family="Times,serif" font-size="14.00" fill="#000000">Storage Proving</text>
</g>
<g id="clust38" class="cluster">
<title>cluster_systems</title>
<polygon fill="none" stroke="#000000" points="1386,-360.6484 1386,-844.5947 1874,-844.5947 1874,-360.6484 1386,-360.6484"/>
</g>
<g id="clust39" class="cluster">
<title>cluster_repository</title>
<polygon fill="#d3d3d3" stroke="#d3d3d3" points="1394,-368.6484 1394,-552.9516 1673,-552.9516 1673,-368.6484 1394,-368.6484"/>
<text text-anchor="middle" x="1533.5" y="-537.7516" font-family="Times,serif" font-size="14.00" fill="#000000">Repository</text>
</g>
<g id="clust41" class="cluster">
<title>cluster_filproofs_lib</title>
<polygon fill="#d3d3d3" stroke="#d3d3d3" points="1394,-662.0581 1394,-819.3264 1662,-819.3264 1662,-662.0581 1394,-662.0581"/>
<text text-anchor="middle" x="1528" y="-804.1264" font-family="Times,serif" font-size="14.00" fill="#000000">Filecoin Proofs</text>
</g>
<g id="clust43" class="cluster">
<title>cluster_payments</title>
<polygon fill="#d3d3d3" stroke="#d3d3d3" points="1670,-714.0581 1670,-836.5947 1866,-836.5947 1866,-714.0581 1670,-714.0581"/>
<text text-anchor="middle" x="1768" y="-821.3947" font-family="Times,serif" font-size="14.00" fill="#000000">Payments</text>
</g>
<g id="clust46" class="cluster">
<title>cluster_net</title>
<polygon fill="#e0ffff" stroke="#e0ffff" points="8,-8 8,-457.3984 472,-457.3984 472,-8 8,-8"/>
</g>
<g id="clust47" class="cluster">
<title>cluster_clock</title>
<polygon fill="#d3d3d3" stroke="#d3d3d3" points="196,-278.6484 196,-449.3984 292,-449.3984 292,-278.6484 196,-278.6484"/>
<text text-anchor="middle" x="244" y="-434.1984" font-family="Times,serif" font-size="14.00" fill="#000000">Clock</text>
</g>
<g id="clust50" class="cluster">
<title>cluster_network</title>
<polygon fill="#d3d3d3" stroke="#d3d3d3" points="300,-278.6484 300,-352.6484 464,-352.6484 464,-278.6484 300,-278.6484"/>
<text text-anchor="middle" x="382" y="-337.4484" font-family="Times,serif" font-size="14.00" fill="#000000">Network Interface</text>
</g>
<g id="clust53" class="cluster">
<title>cluster_ipfs</title>
<polygon fill="#d3d3d3" stroke="#d3d3d3" points="16,-156 16,-270.6484 188,-270.6484 188,-156 16,-156"/>
<text text-anchor="middle" x="102" y="-255.4484" font-family="Times,serif" font-size="14.00" fill="#000000">IPFS</text>
</g>
<g id="clust55" class="cluster">
<title>cluster_libp2p</title>
<polygon fill="#d3d3d3" stroke="#d3d3d3" points="196,-16 196,-269.4966 452,-269.4966 452,-16 196,-16"/>
<text text-anchor="middle" x="324" y="-254.2966" font-family="Times,serif" font-size="14.00" fill="#000000">libp2p</text>
</g>
<!-- Chain -->
<g id="node1" class="node">
<title>Chain</title>
<polygon fill="none" stroke="#000000" points="1090,-916.9155 1036,-916.9155 1036,-880.9155 1090,-880.9155 1090,-916.9155"/>
<text text-anchor="middle" x="1063" y="-894.7155" font-family="Times,serif" font-size="14.00" fill="#000000">Chain</text>
</g>
<!-- Block Producer -->
<g id="node2" class="node">
<title>Block Producer</title>
<polygon fill="none" stroke="#000000" points="1075.9806,-782.3264 972.0194,-782.3264 972.0194,-746.3264 1075.9806,-746.3264 1075.9806,-782.3264"/>
<text text-anchor="middle" x="1024" y="-760.1264" font-family="Times,serif" font-size="14.00" fill="#000000">Block Producer</text>
</g>
<!-- Chain&#45;&gt;Block Producer -->
<!-- VM Interpreter -->
<g id="node4" class="node">
<title>VM Interpreter</title>
<polygon fill="none" stroke="#000000" points="1163.628,-610.5049 1062.372,-610.5049 1062.372,-574.5049 1163.628,-574.5049 1163.628,-610.5049"/>
<text text-anchor="middle" x="1113" y="-588.3049" font-family="Times,serif" font-size="14.00" fill="#000000">VM Interpreter</text>
</g>
<!-- Chain&#45;&gt;VM Interpreter -->
<g id="edge27" class="edge">
<title>Chain&#45;&gt;VM Interpreter</title>
<path fill="none" stroke="#000000" d="M1097.9968,-779.8055C1104.4846,-738.6576 1108.1676,-697.5127 1110.258,-664.3106"/>
<polygon fill="#000000" stroke="#000000" points="1113.768,-664.2457 1110.8691,-654.0552 1106.7804,-663.8293 1113.768,-664.2457"/>
</g>
<!-- IPLD DagStore -->
<g id="node35" class="node">
<title>IPLD DagStore</title>
<polygon fill="none" stroke="#000000" points="1505.9875,-522.9516 1402.0125,-522.9516 1402.0125,-486.9516 1505.9875,-486.9516 1505.9875,-522.9516"/>
<text text-anchor="middle" x="1454" y="-500.7516" font-family="Times,serif" font-size="14.00" fill="#000000">IPLD DagStore</text>
</g>
<!-- Chain&#45;&gt;IPLD DagStore -->
<g id="edge34" class="edge">
<title>Chain&#45;&gt;IPLD DagStore</title>
<path fill="none" stroke="#000000" d="M1097.9965,-882.8913C1123.0501,-872.2357 1157.8915,-859.054 1190,-852.5947 1208.4296,-848.8873 1344.9283,-857.06 1359,-844.5947 1389.7984,-817.3123 1378.7271,-701.6282 1390,-662.0581 1399.67,-628.1145 1414.3111,-591.523 1427.1501,-562.2007"/>
<polygon fill="#000000" stroke="#000000" points="1430.3984,-563.5093 1431.2467,-552.9485 1423.9977,-560.6752 1430.3984,-563.5093"/>
</g>
<!-- Message Storage -->
<g id="node9" class="node">
<title>Message Storage</title>
<polygon fill="none" stroke="#000000" points="1037.7522,-522.9516 926.2478,-522.9516 926.2478,-486.9516 1037.7522,-486.9516 1037.7522,-522.9516"/>
<text text-anchor="middle" x="982" y="-500.7516" font-family="Times,serif" font-size="14.00" fill="#000000">Message Storage</text>
</g>
<!-- Block Producer&#45;&gt;Message Storage -->
<g id="edge42" class="edge">
<title>Block Producer&#45;&gt;Message Storage</title>
<path fill="none" stroke="#000000" d="M1021.0466,-746.0877C1014.986,-708.6595 1000.9169,-621.7747 991.4291,-563.182"/>
<polygon fill="#000000" stroke="#000000" points="994.826,-562.2628 989.7724,-552.9509 987.916,-563.3818 994.826,-562.2628"/>
</g>
<!-- Block Syncer -->
<g id="node3" class="node">
<title>Block Syncer</title>
<polygon fill="none" stroke="#000000" points="1017.8176,-916.9155 926.1824,-916.9155 926.1824,-880.9155 1017.8176,-880.9155 1017.8176,-916.9155"/>
<text text-anchor="middle" x="972" y="-894.7155" font-family="Times,serif" font-size="14.00" fill="#000000">Block Syncer</text>
</g>
<!-- Gossipsub -->
<g id="node53" class="node">
<title>Gossipsub</title>
<polygon fill="none" stroke="#000000" points="444.3455,-239.6697 369.6545,-239.6697 369.6545,-164.9787 444.3455,-164.9787 444.3455,-239.6697"/>
<polyline fill="none" stroke="#000000" points="381.6545,-239.6697 369.6545,-227.6697 "/>
<polyline fill="none" stroke="#000000" points="369.6545,-176.9787 381.6545,-164.9787 "/>
<polyline fill="none" stroke="#000000" points="432.3455,-164.9787 444.3455,-176.9787 "/>
<polyline fill="none" stroke="#000000" points="444.3455,-227.6697 432.3455,-239.6697 "/>
<text text-anchor="middle" x="407" y="-198.1242" font-family="Times,serif" font-size="14.00" fill="#000000">Gossipsub</text>
</g>
<!-- Block Syncer&#45;&gt;Gossipsub -->
<g id="edge38" class="edge">
<title>Block Syncer&#45;&gt;Gossipsub</title>
<path fill="none" stroke="#000000" d="M944.3528,-738.3305C917.125,-581.0354 879.1513,-364.3084 876,-360.6484 819.5739,-295.1151 562.0013,-234.7689 454.4245,-211.957"/>
<polygon fill="#000000" stroke="#000000" points="462.5561,-211.7736 452,-210.8676 459.6871,-218.1588 462.5561,-211.7736"/>
</g>
<!-- Messages -->
<g id="node5" class="node">
<title>Messages</title>
<polygon fill="none" stroke="#000000" points="1148.4359,-522.9516 1077.5641,-522.9516 1077.5641,-486.9516 1148.4359,-486.9516 1148.4359,-522.9516"/>
<text text-anchor="middle" x="1113" y="-500.7516" font-family="Times,serif" font-size="14.00" fill="#000000">Messages</text>
</g>
<!-- VM Interpreter&#45;&gt;Messages -->
<!-- Init Actor -->
<g id="node6" class="node">
<title>Init Actor</title>
<polygon fill="none" stroke="#000000" points="1258.7718,-581.0727 1258.7718,-603.937 1237.2314,-620.1046 1206.7686,-620.1046 1185.2282,-603.937 1185.2282,-581.0727 1206.7686,-564.9051 1237.2314,-564.9051 1258.7718,-581.0727"/>
<polygon fill="none" stroke="#000000" points="1262.7859,-579.0724 1262.7859,-605.9373 1238.5722,-624.1114 1205.4278,-624.1114 1181.2141,-605.9373 1181.2141,-579.0724 1205.4278,-560.8983 1238.5722,-560.8983 1262.7859,-579.0724"/>
<text text-anchor="middle" x="1222" y="-595.3049" font-family="Times,serif" font-size="14.00" fill="#000000">Init</text>
<text text-anchor="middle" x="1222" y="-581.3049" font-family="Times,serif" font-size="14.00" fill="#000000">Actor</text>
</g>
<!-- Account Actor -->
<g id="node7" class="node">
<title>Account Actor</title>
<polygon fill="none" stroke="#000000" points="1270.5875,-493.5195 1270.5875,-516.3838 1242.1256,-532.5514 1201.8744,-532.5514 1173.4125,-516.3838 1173.4125,-493.5195 1201.8744,-477.3519 1242.1256,-477.3519 1270.5875,-493.5195"/>
<polygon fill="none" stroke="#000000" points="1274.591,-491.1864 1274.591,-518.7168 1243.1826,-536.5581 1200.8174,-536.5581 1169.409,-518.7168 1169.409,-491.1864 1200.8174,-473.3451 1243.1826,-473.3451 1274.591,-491.1864"/>
<text text-anchor="middle" x="1222" y="-507.7516" font-family="Times,serif" font-size="14.00" fill="#000000">Account</text>
<text text-anchor="middle" x="1222" y="-493.7516" font-family="Times,serif" font-size="14.00" fill="#000000">Actor</text>
</g>
<!-- Init Actor&#45;&gt;Account Actor -->
<!-- Cron Actor -->
<g id="node8" class="node">
<title>Cron Actor</title>
<polygon fill="none" stroke="#000000" points="1357.7718,-581.0727 1357.7718,-603.937 1336.2314,-620.1046 1305.7686,-620.1046 1284.2282,-603.937 1284.2282,-581.0727 1305.7686,-564.9051 1336.2314,-564.9051 1357.7718,-581.0727"/>
<polygon fill="none" stroke="#000000" points="1361.7859,-579.0724 1361.7859,-605.9373 1337.5722,-624.1114 1304.4278,-624.1114 1280.2141,-605.9373 1280.2141,-579.0724 1304.4278,-560.8983 1337.5722,-560.8983 1361.7859,-579.0724"/>
<text text-anchor="middle" x="1321" y="-595.3049" font-family="Times,serif" font-size="14.00" fill="#000000">Cron</text>
<text text-anchor="middle" x="1321" y="-581.3049" font-family="Times,serif" font-size="14.00" fill="#000000">Actor</text>
</g>
<!-- Message Syncer -->
<g id="node10" class="node">
<title>Message Syncer</title>
<polygon fill="none" stroke="#000000" points="1033.8629,-419.3984 926.1371,-419.3984 926.1371,-383.3984 1033.8629,-383.3984 1033.8629,-419.3984"/>
<text text-anchor="middle" x="980" y="-397.1984" font-family="Times,serif" font-size="14.00" fill="#000000">Message Syncer</text>
</g>
<!-- Message Storage&#45;&gt;Message Syncer -->
<!-- Filecoin Network Node -->
<g id="node46" class="node">
<title>Filecoin Network Node</title>
<polygon fill="none" stroke="#000000" points="456.1935,-322.6484 307.8065,-322.6484 307.8065,-286.6484 456.1935,-286.6484 456.1935,-322.6484"/>
<text text-anchor="middle" x="382" y="-300.4484" font-family="Times,serif" font-size="14.00" fill="#000000">Filecoin Network Node</text>
</g>
<!-- Message Syncer&#45;&gt;Filecoin Network Node -->
<!-- Message Syncer&#45;&gt;Gossipsub -->
<g id="edge39" class="edge">
<title>Message Syncer&#45;&gt;Gossipsub</title>
<path fill="none" stroke="#000000" d="M973.0996,-375.3989C964.0663,-346.7931 945.3183,-301.8092 912,-278.6484 838.3828,-227.4743 565.9444,-209.5223 454.7399,-204.2385"/>
<polygon fill="#000000" stroke="#000000" points="462.4494,-202.0166 452,-203.766 461.2597,-208.9148 462.4494,-202.0166"/>
</g>
<!-- Expected Consensus -->
<g id="node11" class="node">
<title>Expected Consensus</title>
<polygon fill="none" stroke="#000000" points="1344.9804,-782.3264 1213.0196,-782.3264 1213.0196,-746.3264 1344.9804,-746.3264 1344.9804,-782.3264"/>
<text text-anchor="middle" x="1279" y="-760.1264" font-family="Times,serif" font-size="14.00" fill="#000000">Expected Consensus</text>
</g>
<!-- Storage Power Actor -->
<g id="node12" class="node">
<title>Storage Power Actor</title>
<polygon fill="none" stroke="#000000" points="1323.9564,-883.1507 1323.9564,-914.6804 1297.6215,-936.9753 1260.3785,-936.9753 1234.0436,-914.6804 1234.0436,-883.1507 1260.3785,-860.8558 1297.6215,-860.8558 1323.9564,-883.1507"/>
<polygon fill="none" stroke="#000000" points="1327.9545,-881.3122 1327.9545,-916.5189 1299.0923,-940.9535 1258.9077,-940.9535 1230.0455,-916.5189 1230.0455,-881.3122 1258.9077,-856.8776 1299.0923,-856.8776 1327.9545,-881.3122"/>
<text text-anchor="middle" x="1279" y="-908.7155" font-family="Times,serif" font-size="14.00" fill="#000000">Storage</text>
<text text-anchor="middle" x="1279" y="-894.7155" font-family="Times,serif" font-size="14.00" fill="#000000">Power</text>
<text text-anchor="middle" x="1279" y="-880.7155" font-family="Times,serif" font-size="14.00" fill="#000000">Actor</text>
</g>
<!-- Storage Power Actor&#45;&gt;Expected Consensus -->
<!-- Storage Provider -->
<g id="node13" class="node">
<title>Storage Provider</title>
<polygon fill="none" stroke="#000000" points="750.2142,-1070.9046 685.7858,-1070.9046 685.7858,-1034.9046 750.2142,-1034.9046 750.2142,-1070.9046"/>
<text text-anchor="middle" x="718" y="-1055.7046" font-family="Times,serif" font-size="14.00" fill="#000000">Storage</text>
<text text-anchor="middle" x="718" y="-1041.7046" font-family="Times,serif" font-size="14.00" fill="#000000">Provider</text>
</g>
<!-- Storage Provider&#45;&gt;Chain -->
<g id="edge29" class="edge">
<title>Storage Provider&#45;&gt;Chain</title>
<path fill="none" stroke="#000000" d="M748.2188,-1013.1879C751.6132,-1010.1851 755.22,-1007.4489 759,-1005.1839 790.6338,-986.2286 803.4364,-991.9906 840,-987.1839 860.6194,-984.4732 1009.7885,-990.8574 1027,-979.1839 1035.4762,-973.4349 1041.982,-965.1899 1046.9681,-956.1511"/>
<polygon fill="#000000" stroke="#000000" points="1050.2361,-957.4341 1051.4642,-946.9107 1043.9416,-954.3714 1050.2361,-957.4341"/>
</g>
<!-- Data Transfers -->
<g id="node20" class="node">
<title>Data Transfers</title>
<polygon fill="none" stroke="#000000" points="864.0586,-916.9155 765.9414,-916.9155 765.9414,-880.9155 864.0586,-880.9155 864.0586,-916.9155"/>
<text text-anchor="middle" x="815" y="-894.7155" font-family="Times,serif" font-size="14.00" fill="#000000">Data Transfers</text>
</g>
<!-- Storage Provider&#45;&gt;Data Transfers -->
<g id="edge36" class="edge">
<title>Storage Provider&#45;&gt;Data Transfers</title>
<path fill="none" stroke="#000000" d="M743.0192,-1013.1863C760.3118,-985.734 782.8536,-949.9485 798.0677,-925.7959"/>
<polygon fill="#000000" stroke="#000000" points="801.1384,-927.4878 803.5069,-917.161 795.2155,-923.7568 801.1384,-927.4878"/>
</g>
<!-- Storage Client -->
<g id="node14" class="node">
<title>Storage Client</title>
<polygon fill="none" stroke="#000000" points="826.2661,-1070.9046 767.7339,-1070.9046 767.7339,-1034.9046 826.2661,-1034.9046 826.2661,-1070.9046"/>
<text text-anchor="middle" x="797" y="-1055.7046" font-family="Times,serif" font-size="14.00" fill="#000000">Storage</text>
<text text-anchor="middle" x="797" y="-1041.7046" font-family="Times,serif" font-size="14.00" fill="#000000">Client</text>
</g>
<!-- Storage Deal Protocol -->
<g id="node15" class="node">
<title>Storage Deal Protocol</title>
<polygon fill="none" stroke="#000000" points="667.943,-1084.8475 604.057,-1084.8475 604.057,-1020.9616 667.943,-1020.9616 667.943,-1084.8475"/>
<polyline fill="none" stroke="#000000" points="616.057,-1084.8475 604.057,-1072.8475 "/>
<polyline fill="none" stroke="#000000" points="604.057,-1032.9616 616.057,-1020.9616 "/>
<polyline fill="none" stroke="#000000" points="655.943,-1020.9616 667.943,-1032.9616 "/>
<polyline fill="none" stroke="#000000" points="667.943,-1072.8475 655.943,-1084.8475 "/>
<text text-anchor="middle" x="636" y="-1062.7046" font-family="Times,serif" font-size="14.00" fill="#000000">Storage</text>
<text text-anchor="middle" x="636" y="-1048.7046" font-family="Times,serif" font-size="14.00" fill="#000000">Deal</text>
<text text-anchor="middle" x="636" y="-1034.7046" font-family="Times,serif" font-size="14.00" fill="#000000">Protocol</text>
</g>
<!-- Storage Market Actor -->
<g id="node16" class="node">
<title>Storage Market Actor</title>
<polygon fill="none" stroke="#000000" points="762.9564,-1135.4081 762.9564,-1166.9378 736.6215,-1189.2327 699.3785,-1189.2327 673.0436,-1166.9378 673.0436,-1135.4081 699.3785,-1113.1132 736.6215,-1113.1132 762.9564,-1135.4081"/>
<polygon fill="none" stroke="#000000" points="766.9545,-1133.5696 766.9545,-1168.7763 738.0923,-1193.2109 697.9077,-1193.2109 669.0455,-1168.7763 669.0455,-1133.5696 697.9077,-1109.135 738.0923,-1109.135 766.9545,-1133.5696"/>
<text text-anchor="middle" x="718" y="-1160.9729" font-family="Times,serif" font-size="14.00" fill="#000000">Storage</text>
<text text-anchor="middle" x="718" y="-1146.9729" font-family="Times,serif" font-size="14.00" fill="#000000">Market</text>
<text text-anchor="middle" x="718" y="-1132.9729" font-family="Times,serif" font-size="14.00" fill="#000000">Actor</text>
</g>
<!-- Storage Market Actor&#45;&gt;Storage Provider -->
<!-- Storage Market Actor&#45;&gt;Storage Client -->
<!-- Storage Market Actor&#45;&gt;Storage Deal Protocol -->
<!-- Retrieval Provider -->
<g id="node17" class="node">
<title>Retrieval Provider</title>
<polygon fill="none" stroke="#000000" points="579.8113,-1169.1729 512.1887,-1169.1729 512.1887,-1133.1729 579.8113,-1133.1729 579.8113,-1169.1729"/>
<text text-anchor="middle" x="546" y="-1153.9729" font-family="Times,serif" font-size="14.00" fill="#000000">Retrieval</text>
<text text-anchor="middle" x="546" y="-1139.9729" font-family="Times,serif" font-size="14.00" fill="#000000">Provider</text>
</g>
<!-- Retrieval Provider&#45;&gt;Chain -->
<g id="edge30" class="edge">
<title>Retrieval Provider&#45;&gt;Chain</title>
<path fill="none" stroke="#000000" d="M587.9982,-1110.7267C589.3158,-1110.0658 590.6505,-1109.4559 592,-1108.9046 617.3167,-1098.5622 815.6268,-1116.6317 838,-1100.9046 875.4463,-1074.582 840.4577,-1034.0257 876,-1005.1839 928.8788,-962.2739 973.1965,-1020.9285 1027,-979.1839 1034.8976,-973.0564 1041.11,-964.8155 1045.9827,-955.9423"/>
<polygon fill="#000000" stroke="#000000" points="1049.1506,-957.4316 1050.4217,-946.9133 1042.8687,-954.3432 1049.1506,-957.4316"/>
</g>
<!-- Retrieval Provider&#45;&gt;Data Transfers -->
<g id="edge37" class="edge">
<title>Retrieval Provider&#45;&gt;Data Transfers</title>
<path fill="none" stroke="#000000" d="M547.6664,-1109.5179C551.3368,-1076.2338 561.9977,-1031.0198 592,-1005.1839 648.2548,-956.7411 693.7367,-1018.0306 757,-979.1839 777.3364,-966.6964 792.671,-944.1526 802.4492,-926.1289"/>
<polygon fill="#000000" stroke="#000000" points="805.5845,-927.6854 807.0532,-917.1928 799.3618,-924.4794 805.5845,-927.6854"/>
</g>
<!-- Retrieval Client -->
<g id="node18" class="node">
<title>Retrieval Client</title>
<polygon fill="none" stroke="#000000" points="494.8113,-1169.1729 427.1887,-1169.1729 427.1887,-1133.1729 494.8113,-1133.1729 494.8113,-1169.1729"/>
<text text-anchor="middle" x="461" y="-1153.9729" font-family="Times,serif" font-size="14.00" fill="#000000">Retrieval</text>
<text text-anchor="middle" x="461" y="-1139.9729" font-family="Times,serif" font-size="14.00" fill="#000000">Client</text>
</g>
<!-- Retrieval Deal Protocol -->
<g id="node19" class="node">
<title>Retrieval Deal Protocol</title>
<polygon fill="none" stroke="#000000" points="409.8113,-1184.9842 342.1887,-1184.9842 342.1887,-1117.3617 409.8113,-1117.3617 409.8113,-1184.9842"/>
<polyline fill="none" stroke="#000000" points="354.1887,-1184.9842 342.1887,-1172.9842 "/>
<polyline fill="none" stroke="#000000" points="342.1887,-1129.3617 354.1887,-1117.3617 "/>
<polyline fill="none" stroke="#000000" points="397.8113,-1117.3617 409.8113,-1129.3617 "/>
<polyline fill="none" stroke="#000000" points="409.8113,-1172.9842 397.8113,-1184.9842 "/>
<text text-anchor="middle" x="376" y="-1160.9729" font-family="Times,serif" font-size="14.00" fill="#000000">Retrieval</text>
<text text-anchor="middle" x="376" y="-1146.9729" font-family="Times,serif" font-size="14.00" fill="#000000">Deal</text>
<text text-anchor="middle" x="376" y="-1132.9729" font-family="Times,serif" font-size="14.00" fill="#000000">Protocol</text>
</g>
<!-- PieceStore -->
<g id="node24" class="node">
<title>PieceStore</title>
<polygon fill="none" stroke="#000000" points="852.8693,-610.5049 777.1307,-610.5049 777.1307,-574.5049 852.8693,-574.5049 852.8693,-610.5049"/>
<text text-anchor="middle" x="815" y="-588.3049" font-family="Times,serif" font-size="14.00" fill="#000000">PieceStore</text>
</g>
<!-- Data Transfers&#45;&gt;PieceStore -->
<g id="edge45" class="edge">
<title>Data Transfers&#45;&gt;PieceStore</title>
<path fill="none" stroke="#000000" d="M815,-880.6658C815,-829.2545 815,-682.9436 815,-620.8869"/>
<polygon fill="#000000" stroke="#000000" points="818.5001,-620.659 815,-610.659 811.5001,-620.659 818.5001,-620.659"/>
</g>
<!-- Data Transfers Scheduler -->
<g id="node21" class="node">
<title>Data Transfers Scheduler</title>
<polygon fill="none" stroke="#000000" points="747.5388,-916.9155 590.4612,-916.9155 590.4612,-880.9155 747.5388,-880.9155 747.5388,-916.9155"/>
<text text-anchor="middle" x="669" y="-894.7155" font-family="Times,serif" font-size="14.00" fill="#000000">Data Transfers Scheduler</text>
</g>
<!-- AuthSwap -->
<g id="node22" class="node">
<title>AuthSwap</title>
<polygon fill="none" stroke="#000000" points="572.1424,-937.058 495.8576,-937.058 495.8576,-860.7731 572.1424,-860.7731 572.1424,-937.058"/>
<polyline fill="none" stroke="#000000" points="507.8576,-937.058 495.8576,-925.058 "/>
<polyline fill="none" stroke="#000000" points="495.8576,-872.7731 507.8576,-860.7731 "/>
<polyline fill="none" stroke="#000000" points="560.1424,-860.7731 572.1424,-872.7731 "/>
<polyline fill="none" stroke="#000000" points="572.1424,-925.058 560.1424,-937.058 "/>
<text text-anchor="middle" x="534" y="-915.7155" font-family="Times,serif" font-size="14.00" fill="#000000">data</text>
<text text-anchor="middle" x="534" y="-901.7155" font-family="Times,serif" font-size="14.00" fill="#000000">transfer</text>
<text text-anchor="middle" x="534" y="-887.7155" font-family="Times,serif" font-size="14.00" fill="#000000">protocol</text>
<text text-anchor="middle" x="534" y="-873.7155" font-family="Times,serif" font-size="14.00" fill="#000000">(unnamed)</text>
</g>
<!-- Graphsync -->
<g id="node47" class="node">
<title>Graphsync</title>
<polygon fill="none" stroke="#000000" points="180.1492,-240.4735 103.8508,-240.4735 103.8508,-164.175 180.1492,-164.175 180.1492,-240.4735"/>
<polyline fill="none" stroke="#000000" points="115.8508,-240.4735 103.8508,-228.4735 "/>
<polyline fill="none" stroke="#000000" points="103.8508,-176.175 115.8508,-164.175 "/>
<polyline fill="none" stroke="#000000" points="168.1492,-164.175 180.1492,-176.175 "/>
<polyline fill="none" stroke="#000000" points="180.1492,-228.4735 168.1492,-240.4735 "/>
<text text-anchor="middle" x="142" y="-198.1242" font-family="Times,serif" font-size="14.00" fill="#000000">Graphsync</text>
</g>
<!-- AuthSwap&#45;&gt;Graphsync -->
<g id="edge35" class="edge">
<title>AuthSwap&#45;&gt;Graphsync</title>
<path fill="none" stroke="#000000" d="M495.6307,-895.4153C400.0558,-884.3823 159,-841.3599 159,-688.0581 159,-688.0581 159,-688.0581 159,-401.3984 159,-349.8644 153.2745,-291.0977 148.4689,-250.8495"/>
<polygon fill="#000000" stroke="#000000" points="151.9254,-250.2789 147.2393,-240.7768 144.9769,-251.1272 151.9254,-250.2789"/>
</g>
<!-- FileStore -->
<g id="node23" class="node">
<title>FileStore</title>
<polygon fill="none" stroke="#000000" points="839.8319,-522.9516 772.1681,-522.9516 772.1681,-486.9516 839.8319,-486.9516 839.8319,-522.9516"/>
<text text-anchor="middle" x="806" y="-500.7516" font-family="Times,serif" font-size="14.00" fill="#000000">FileStore</text>
</g>
<!-- Disk2 -->
<g id="node25" class="node">
<title>Disk2</title>
<path fill="none" stroke="#000000" d="M863.9216,-421.4459C863.9216,-423.9041 833.9262,-425.9009 797,-425.9009 760.0738,-425.9009 730.0784,-423.9041 730.0784,-421.4459 730.0784,-421.4459 730.0784,-381.3509 730.0784,-381.3509 730.0784,-378.8927 760.0738,-376.8959 797,-376.8959 833.9262,-376.8959 863.9216,-378.8927 863.9216,-381.3509 863.9216,-381.3509 863.9216,-421.4459 863.9216,-421.4459"/>
<path fill="none" stroke="#000000" d="M863.9216,-421.4459C863.9216,-418.9877 833.9262,-416.9909 797,-416.9909 760.0738,-416.9909 730.0784,-418.9877 730.0784,-421.4459"/>
<text text-anchor="middle" x="797" y="-404.1984" font-family="Times,serif" font-size="14.00" fill="#000000">Data Storage System</text>
<text text-anchor="middle" x="797" y="-390.1984" font-family="Times,serif" font-size="14.00" fill="#000000">(Disks, etc)</text>
</g>
<!-- FileStore&#45;&gt;Disk2 -->
<g id="edge10" class="edge">
<title>FileStore&#45;&gt;Disk2</title>
<path fill="none" stroke="#000000" d="M804.4323,-486.9141C803.2228,-472.9978 801.5128,-453.322 800.0378,-436.3515"/>
<polygon fill="#000000" stroke="#000000" points="803.5092,-435.8696 799.1564,-426.2102 796.5355,-436.4758 803.5092,-435.8696"/>
</g>
<!-- PieceStore&#45;&gt;FileStore -->
<g id="edge9" class="edge">
<title>PieceStore&#45;&gt;FileStore</title>
<path fill="none" stroke="#000000" d="M813.1352,-574.3638C811.9164,-562.5071 810.2994,-546.7766 808.9129,-533.2888"/>
<polygon fill="#000000" stroke="#000000" points="812.3667,-532.6591 807.8624,-523.0695 805.4034,-533.375 812.3667,-532.6591"/>
</g>
<!-- Mining Scheduler -->
<g id="node26" class="node">
<title>Mining Scheduler</title>
<polygon fill="none" stroke="#000000" points="1228.2074,-1316.7096 1111.7926,-1316.7096 1111.7926,-1280.7096 1228.2074,-1280.7096 1228.2074,-1316.7096"/>
<text text-anchor="middle" x="1170" y="-1294.5096" font-family="Times,serif" font-size="14.00" fill="#000000">Mining Scheduler</text>
</g>
<!-- Sector Builder -->
<g id="node29" class="node">
<title>Sector Builder</title>
<polygon fill="none" stroke="#000000" points="985.7591,-1070.9046 888.2409,-1070.9046 888.2409,-1034.9046 985.7591,-1034.9046 985.7591,-1070.9046"/>
<text text-anchor="middle" x="937" y="-1048.7046" font-family="Times,serif" font-size="14.00" fill="#000000">Sector Builder</text>
</g>
<!-- Mining Scheduler&#45;&gt;Sector Builder -->
<g id="edge32" class="edge">
<title>Mining Scheduler&#45;&gt;Sector Builder</title>
<path fill="none" stroke="#000000" d="M1122.3539,-1248.445C1083.6931,-1207.6595 1029.2541,-1150.2287 989.3756,-1108.1586"/>
<polygon fill="#000000" stroke="#000000" points="991.9153,-1105.7503 982.4956,-1100.9005 986.835,-1110.5659 991.9153,-1105.7503"/>
</g>
<!-- Pledge Prover -->
<g id="node32" class="node">
<title>Pledge Prover</title>
<polygon fill="none" stroke="#000000" points="1326.4278,-1070.9046 1231.5722,-1070.9046 1231.5722,-1034.9046 1326.4278,-1034.9046 1326.4278,-1070.9046"/>
<text text-anchor="middle" x="1279" y="-1048.7046" font-family="Times,serif" font-size="14.00" fill="#000000">Pledge Prover</text>
</g>
<!-- Mining Scheduler&#45;&gt;Pledge Prover -->
<g id="edge31" class="edge">
<title>Mining Scheduler&#45;&gt;Pledge Prover</title>
<path fill="none" stroke="#000000" d="M1192.291,-1248.4414C1210.0864,-1208.3111 1235.0271,-1152.0676 1253.5942,-1110.197"/>
<polygon fill="#000000" stroke="#000000" points="1256.8615,-1111.4628 1257.7158,-1100.9024 1250.4625,-1108.6251 1256.8615,-1111.4628"/>
</g>
<!-- Storage Miner Actor -->
<g id="node27" class="node">
<title>Storage Miner Actor</title>
<polygon fill="none" stroke="#000000" points="1089.9564,-1282.9448 1089.9564,-1314.4745 1063.6215,-1336.7694 1026.3785,-1336.7694 1000.0436,-1314.4745 1000.0436,-1282.9448 1026.3785,-1260.6499 1063.6215,-1260.6499 1089.9564,-1282.9448"/>
<polygon fill="none" stroke="#000000" points="1093.9545,-1281.1063 1093.9545,-1316.313 1065.0923,-1340.7476 1024.9077,-1340.7476 996.0455,-1316.313 996.0455,-1281.1063 1024.9077,-1256.6717 1065.0923,-1256.6717 1093.9545,-1281.1063"/>
<text text-anchor="middle" x="1045" y="-1308.5096" font-family="Times,serif" font-size="14.00" fill="#000000">Storage</text>
<text text-anchor="middle" x="1045" y="-1294.5096" font-family="Times,serif" font-size="14.00" fill="#000000">Miner</text>
<text text-anchor="middle" x="1045" y="-1280.5096" font-family="Times,serif" font-size="14.00" fill="#000000">Actor</text>
</g>
<!-- Sector Store -->
<g id="node28" class="node">
<title>Sector Store</title>
<polygon fill="none" stroke="#000000" points="1088.3176,-1070.9046 1003.6824,-1070.9046 1003.6824,-1034.9046 1088.3176,-1034.9046 1088.3176,-1070.9046"/>
<text text-anchor="middle" x="1046" y="-1048.7046" font-family="Times,serif" font-size="14.00" fill="#000000">Sector Store</text>
</g>
<!-- Sector Store&#45;&gt;PieceStore -->
<g id="edge46" class="edge">
<title>Sector Store&#45;&gt;PieceStore</title>
<path fill="none" stroke="#000000" d="M1030.0922,-1034.4746C1020.7321,-1024.6073 1008.1716,-1012.9261 995,-1005.1839 962.4047,-986.0246 939.9217,-1006.7083 914,-979.1839 901.3582,-965.7605 841.2879,-707.2956 821.4064,-620.5888"/>
<polygon fill="#000000" stroke="#000000" points="824.7782,-619.6328 819.1348,-610.6661 817.9547,-621.195 824.7782,-619.6328"/>
</g>
<!-- Seal Prover -->
<g id="node30" class="node">
<title>Seal Prover</title>
<polygon fill="none" stroke="#000000" points="1425.4278,-1070.9046 1344.5722,-1070.9046 1344.5722,-1034.9046 1425.4278,-1034.9046 1425.4278,-1070.9046"/>
<text text-anchor="middle" x="1385" y="-1048.7046" font-family="Times,serif" font-size="14.00" fill="#000000">Seal Prover</text>
</g>
<!-- PoSt Generator -->
<g id="node31" class="node">
<title>PoSt Generator</title>
<polygon fill="none" stroke="#000000" points="1213.9278,-1070.9046 1112.0722,-1070.9046 1112.0722,-1034.9046 1213.9278,-1034.9046 1213.9278,-1070.9046"/>
<text text-anchor="middle" x="1163" y="-1048.7046" font-family="Times,serif" font-size="14.00" fill="#000000">PoSt Generator</text>
</g>
<!-- PoSt Generator&#45;&gt;Chain -->
<g id="edge33" class="edge">
<title>PoSt Generator&#45;&gt;Chain</title>
<path fill="none" stroke="#000000" d="M1146.1169,-1026.9065C1133.4416,-1007.3879 1115.6065,-979.9239 1099.7058,-955.4384"/>
<polygon fill="#000000" stroke="#000000" points="1102.5516,-953.3943 1094.1699,-946.9138 1096.6809,-957.2068 1102.5516,-953.3943"/>
</g>
<!-- Pledge Prover&#45;&gt;Storage Power Actor -->
<g id="edge28" class="edge">
<title>Pledge Prover&#45;&gt;Storage Power Actor</title>
<path fill="none" stroke="#000000" d="M1279,-1026.9058C1279,-1014.1169 1279,-997.917 1279,-981.379"/>
<polygon fill="#000000" stroke="#000000" points="1282.5001,-981.1823 1279,-971.1823 1275.5001,-981.1824 1282.5001,-981.1823"/>
</g>
<!-- ZigZag&#45;Porep -->
<g id="node37" class="node">
<title>ZigZag&#45;Porep</title>
<polygon fill="none" stroke="#000000" points="1654.0324,-782.3264 1559.9676,-782.3264 1559.9676,-746.3264 1654.0324,-746.3264 1654.0324,-782.3264"/>
<text text-anchor="middle" x="1607" y="-760.1264" font-family="Times,serif" font-size="14.00" fill="#000000">ZigZag&#45;Porep</text>
</g>
<!-- Pledge Prover&#45;&gt;ZigZag&#45;Porep -->
<g id="edge43" class="edge">
<title>Pledge Prover&#45;&gt;ZigZag&#45;Porep</title>
<path fill="none" stroke="#000000" d="M1309.4188,-1026.9066C1317.9412,-1019.7686 1327.2647,-1012.0941 1336,-1005.1839 1429.5389,-931.1876 1468.0407,-930.2844 1551,-844.5947 1556.1125,-839.314 1561.0962,-833.526 1565.8486,-827.553"/>
<polygon fill="#000000" stroke="#000000" points="1568.8553,-829.3846 1572.1761,-819.3236 1563.306,-825.1177 1568.8553,-829.3846"/>
</g>
<!-- Config -->
<g id="node33" class="node">
<title>Config</title>
<polygon fill="none" stroke="#000000" points="1578.1242,-522.9516 1523.8758,-522.9516 1523.8758,-486.9516 1578.1242,-486.9516 1578.1242,-522.9516"/>
<text text-anchor="middle" x="1551" y="-500.7516" font-family="Times,serif" font-size="14.00" fill="#000000">Config</text>
</g>
<!-- Local Storage -->
<g id="node36" class="node">
<title>Local Storage</title>
<path fill="none" stroke="#000000" d="M1598.1349,-421.4459C1598.1349,-423.9041 1577.0083,-425.9009 1551,-425.9009 1524.9917,-425.9009 1503.8651,-423.9041 1503.8651,-421.4459 1503.8651,-421.4459 1503.8651,-381.3509 1503.8651,-381.3509 1503.8651,-378.8927 1524.9917,-376.8959 1551,-376.8959 1577.0083,-376.8959 1598.1349,-378.8927 1598.1349,-381.3509 1598.1349,-381.3509 1598.1349,-421.4459 1598.1349,-421.4459"/>
<path fill="none" stroke="#000000" d="M1598.1349,-421.4459C1598.1349,-418.9877 1577.0083,-416.9909 1551,-416.9909 1524.9917,-416.9909 1503.8651,-418.9877 1503.8651,-421.4459"/>
<text text-anchor="middle" x="1551" y="-404.1984" font-family="Times,serif" font-size="14.00" fill="#000000">Local Storage</text>
<text text-anchor="middle" x="1551" y="-390.1984" font-family="Times,serif" font-size="14.00" fill="#000000">(Disk)</text>
</g>
<!-- Config&#45;&gt;Local Storage -->
<g id="edge12" class="edge">
<title>Config&#45;&gt;Local Storage</title>
<path fill="none" stroke="#000000" d="M1551,-486.9141C1551,-472.9978 1551,-453.322 1551,-436.3515"/>
<polygon fill="#000000" stroke="#000000" points="1554.5001,-436.2102 1551,-426.2102 1547.5001,-436.2103 1554.5001,-436.2102"/>
</g>
<!-- KeyStore -->
<g id="node34" class="node">
<title>KeyStore</title>
<polygon fill="none" stroke="#000000" points="1665.3761,-522.9516 1596.6239,-522.9516 1596.6239,-486.9516 1665.3761,-486.9516 1665.3761,-522.9516"/>
<text text-anchor="middle" x="1631" y="-500.7516" font-family="Times,serif" font-size="14.00" fill="#000000">KeyStore</text>
</g>
<!-- KeyStore&#45;&gt;Local Storage -->
<g id="edge13" class="edge">
<title>KeyStore&#45;&gt;Local Storage</title>
<path fill="none" stroke="#000000" d="M1617.0651,-486.9141C1605.9084,-472.4727 1589.96,-451.8288 1576.528,-434.4423"/>
<polygon fill="#000000" stroke="#000000" points="1579.0517,-431.984 1570.1684,-426.2102 1573.5122,-436.2636 1579.0517,-431.984"/>
</g>
<!-- IPLD DagStore&#45;&gt;Local Storage -->
<g id="edge11" class="edge">
<title>IPLD DagStore&#45;&gt;Local Storage</title>
<path fill="none" stroke="#000000" d="M1470.8961,-486.9141C1484.5466,-472.3414 1504.1131,-451.453 1520.4907,-433.969"/>
<polygon fill="#000000" stroke="#000000" points="1523.4764,-435.9012 1527.7584,-426.2102 1518.3676,-431.1158 1523.4764,-435.9012"/>
</g>
<!-- Rational PoSt -->
<g id="node38" class="node">
<title>Rational PoSt</title>
<polygon fill="none" stroke="#000000" points="1653.8973,-706.0581 1560.1027,-706.0581 1560.1027,-670.0581 1653.8973,-670.0581 1653.8973,-706.0581"/>
<text text-anchor="middle" x="1607" y="-683.8581" font-family="Times,serif" font-size="14.00" fill="#000000">Rational PoSt</text>
</g>
<!-- ZigZag&#45;Porep&#45;&gt;Rational PoSt -->
<!-- Piece Inclusion Proofs -->
<g id="node39" class="node">
<title>Piece Inclusion Proofs</title>
<polygon fill="none" stroke="#000000" points="1542.1036,-789.3264 1473.8964,-789.3264 1473.8964,-739.3264 1542.1036,-739.3264 1542.1036,-789.3264"/>
<text text-anchor="middle" x="1508" y="-774.1264" font-family="Times,serif" font-size="14.00" fill="#000000">Piece</text>
<text text-anchor="middle" x="1508" y="-760.1264" font-family="Times,serif" font-size="14.00" fill="#000000">Inclusion</text>
<text text-anchor="middle" x="1508" y="-746.1264" font-family="Times,serif" font-size="14.00" fill="#000000">Proofs</text>
</g>
<!-- VRFs -->
<g id="node40" class="node">
<title>VRFs</title>
<polygon fill="none" stroke="#000000" points="1456,-782.3264 1402,-782.3264 1402,-746.3264 1456,-746.3264 1456,-782.3264"/>
<text text-anchor="middle" x="1429" y="-760.1264" font-family="Times,serif" font-size="14.00" fill="#000000">VRFs</text>
</g>
<!-- VDFs -->
<g id="node41" class="node">
<title>VDFs</title>
<polygon fill="none" stroke="#000000" points="1456,-706.0581 1402,-706.0581 1402,-670.0581 1456,-670.0581 1456,-706.0581"/>
<text text-anchor="middle" x="1429" y="-683.8581" font-family="Times,serif" font-size="14.00" fill="#000000">VDFs</text>
</g>
<!-- VRFs&#45;&gt;VDFs -->
<!-- VDFs&#45;&gt;Cron Actor -->
<!-- Wallet -->
<g id="node42" class="node">
<title>Wallet</title>
<polygon fill="none" stroke="#000000" points="1858,-782.3264 1804,-782.3264 1804,-746.3264 1858,-746.3264 1858,-782.3264"/>
<text text-anchor="middle" x="1831" y="-760.1264" font-family="Times,serif" font-size="14.00" fill="#000000">Wallet</text>
</g>
<!-- Wallet&#45;&gt;KeyStore -->
<g id="edge44" class="edge">
<title>Wallet&#45;&gt;KeyStore</title>
<path fill="none" stroke="#000000" d="M1818.192,-746.0391C1811.3995,-736.4441 1802.8553,-724.5364 1795,-714.0581 1744.8775,-647.1982 1683.5885,-570.2773 1652.0218,-530.9976"/>
<polygon fill="#000000" stroke="#000000" points="1654.7472,-528.8016 1645.7516,-523.2042 1649.2932,-533.1896 1654.7472,-528.8016"/>
</g>
<!-- Payment Channel Actor -->
<g id="node43" class="node">
<title>Payment Channel Actor</title>
<polygon fill="none" stroke="#000000" points="1781.9701,-748.5615 1781.9701,-780.0913 1752.6983,-802.3862 1711.3017,-802.3862 1682.0299,-780.0913 1682.0299,-748.5615 1711.3017,-726.2666 1752.6983,-726.2666 1781.9701,-748.5615"/>
<polygon fill="none" stroke="#000000" points="1785.9883,-746.6028 1785.9883,-782.05 1754.0651,-806.3644 1709.9349,-806.3644 1678.0117,-782.05 1678.0117,-746.6028 1709.9349,-722.2885 1754.0651,-722.2885 1785.9883,-746.6028"/>
<text text-anchor="middle" x="1732" y="-774.1264" font-family="Times,serif" font-size="14.00" fill="#000000">Payment</text>
<text text-anchor="middle" x="1732" y="-760.1264" font-family="Times,serif" font-size="14.00" fill="#000000">Channel</text>
<text text-anchor="middle" x="1732" y="-746.1264" font-family="Times,serif" font-size="14.00" fill="#000000">Actor</text>
</g>
<!-- Wall Clock -->
<g id="node44" class="node">
<title>Wall Clock</title>
<polygon fill="none" stroke="#000000" points="283.5342,-419.3984 204.4658,-419.3984 204.4658,-383.3984 283.5342,-383.3984 283.5342,-419.3984"/>
<text text-anchor="middle" x="244" y="-397.1984" font-family="Times,serif" font-size="14.00" fill="#000000">Wall Clock</text>
</g>
<!-- NTP -->
<g id="node45" class="node">
<title>NTP</title>
<polygon fill="none" stroke="#000000" points="277,-322.6484 223,-322.6484 223,-286.6484 277,-286.6484 277,-322.6484"/>
<text text-anchor="middle" x="250" y="-300.4484" font-family="Times,serif" font-size="14.00" fill="#000000">NTP</text>
</g>
<!-- Wall Clock&#45;&gt;NTP -->
<g id="edge17" class="edge">
<title>Wall Clock&#45;&gt;NTP</title>
<path fill="none" stroke="#000000" d="M245.1286,-383.2005C246.0085,-369.0113 247.2461,-349.0547 248.2537,-332.8078"/>
<polygon fill="#000000" stroke="#000000" points="251.7507,-332.9623 248.8765,-322.7648 244.7642,-332.5289 251.7507,-332.9623"/>
</g>
<!-- Switch -->
<g id="node50" class="node">
<title>Switch</title>
<polygon fill="none" stroke="#000000" points="444.3898,-104 389.6102,-104 389.6102,-68 444.3898,-68 444.3898,-104"/>
<text text-anchor="middle" x="417" y="-81.8" font-family="Times,serif" font-size="14.00" fill="#000000">Switch</text>
</g>
<!-- NTP&#45;&gt;Switch -->
<g id="edge41" class="edge">
<title>NTP&#45;&gt;Switch</title>
<path fill="none" stroke="#000000" d="M291.9958,-279.9388C293.3303,-279.4681 294.6667,-279.0357 296,-278.6484 312.7738,-273.7763 440.9673,-283.3099 453,-270.6484 482.1,-240.0279 472.6068,-193.2159 456.0891,-154.3891"/>
<polygon fill="#000000" stroke="#000000" points="459.2679,-152.9239 451.9973,-145.2175 452.8753,-155.7759 459.2679,-152.9239"/>
</g>
<!-- Filecoin Network Node&#45;&gt;Gossipsub -->
<!-- p2p.Node -->
<g id="node49" class="node">
<title>p2p.Node</title>
<polygon fill="none" stroke="#000000" points="313.3244,-148 242.6756,-148 242.6756,-112 313.3244,-112 313.3244,-148"/>
<text text-anchor="middle" x="278" y="-125.8" font-family="Times,serif" font-size="14.00" fill="#000000">p2p.Node</text>
</g>
<!-- Graphsync&#45;&gt;p2p.Node -->
<g id="edge20" class="edge">
<title>Graphsync&#45;&gt;p2p.Node</title>
<path fill="none" stroke="#000000" d="M179.9484,-164.0663C183.8492,-161.1028 187.8933,-158.3537 192,-156 204.5233,-148.8226 219.2302,-143.4368 232.9056,-139.4853"/>
<polygon fill="#000000" stroke="#000000" points="233.8944,-142.8437 242.6352,-136.8562 232.0684,-136.086 233.8944,-142.8437"/>
</g>
<!-- Bitswap -->
<g id="node48" class="node">
<title>Bitswap</title>
<polygon fill="none" stroke="#000000" points="85.8897,-233.214 24.1103,-233.214 24.1103,-171.4345 85.8897,-171.4345 85.8897,-233.214"/>
<polyline fill="none" stroke="#000000" points="36.1103,-233.214 24.1103,-221.214 "/>
<polyline fill="none" stroke="#000000" points="24.1103,-183.4345 36.1103,-171.4345 "/>
<polyline fill="none" stroke="#000000" points="73.8897,-171.4345 85.8897,-183.4345 "/>
<polyline fill="none" stroke="#000000" points="85.8897,-221.214 73.8897,-233.214 "/>
<text text-anchor="middle" x="55" y="-198.1242" font-family="Times,serif" font-size="14.00" fill="#000000">Bitswap</text>
</g>
<!-- Bitswap&#45;&gt;p2p.Node -->
<g id="edge21" class="edge">
<title>Bitswap&#45;&gt;p2p.Node</title>
<path fill="none" stroke="#000000" d="M76.4413,-171.0887C81.8452,-165.2291 88.0989,-159.7686 95,-156 117.9763,-143.453 186.001,-136.3381 232.3183,-132.8278"/>
<polygon fill="#000000" stroke="#000000" points="232.7062,-136.3089 242.4259,-132.0924 232.1982,-129.3274 232.7062,-136.3089"/>
</g>
<!-- p2p.Node&#45;&gt;Switch -->
<g id="edge23" class="edge">
<title>p2p.Node&#45;&gt;Switch</title>
<path fill="none" stroke="#000000" d="M313.4352,-118.7831C333.7574,-112.3502 359.2421,-104.2831 379.8455,-97.7611"/>
<polygon fill="#000000" stroke="#000000" points="381.0463,-101.0523 389.5238,-94.6975 378.9338,-94.3786 381.0463,-101.0523"/>
</g>
<!-- Switch&#45;&gt;KeyStore -->
<g id="edge40" class="edge">
<title>Switch&#45;&gt;KeyStore</title>
<path fill="none" stroke="#000000" d="M444.5688,-87.1585C624.8265,-94.9095 1628,-140.8091 1628,-202.3242 1628,-304.6484 1628,-304.6484 1628,-304.6484 1628,-366.0031 1629.4246,-437.9172 1630.3104,-476.701"/>
<polygon fill="#000000" stroke="#000000" points="1626.8119,-476.8096 1630.5444,-486.7252 1633.81,-476.6463 1626.8119,-476.8096"/>
</g>
<!-- Conn -->
<g id="node51" class="node">
<title>Conn</title>
<polygon fill="none" stroke="#000000" points="444,-60 390,-60 390,-24 444,-24 444,-60"/>
<text text-anchor="middle" x="417" y="-37.8" font-family="Times,serif" font-size="14.00" fill="#000000">Conn</text>
</g>
<!-- Switch&#45;&gt;Conn -->
<g id="edge24" class="edge">
<title>Switch&#45;&gt;Conn</title>
<path fill="none" stroke="#000000" d="M417,-67.8495C417,-67.6897 417,-67.5296 417,-67.3693"/>
<polygon fill="#000000" stroke="#000000" points="420.5001,-70.1088 417,-60.1088 413.5001,-70.1089 420.5001,-70.1088"/>
</g>
<!-- Identify -->
<g id="node52" class="node">
<title>Identify</title>
<polygon fill="none" stroke="#000000" points="264.3182,-232.6424 203.6818,-232.6424 203.6818,-172.006 264.3182,-172.006 264.3182,-232.6424"/>
<polyline fill="none" stroke="#000000" points="215.6818,-232.6424 203.6818,-220.6424 "/>
<polyline fill="none" stroke="#000000" points="203.6818,-184.006 215.6818,-172.006 "/>
<polyline fill="none" stroke="#000000" points="252.3182,-172.006 264.3182,-184.006 "/>
<polyline fill="none" stroke="#000000" points="264.3182,-220.6424 252.3182,-232.6424 "/>
<text text-anchor="middle" x="234" y="-198.1242" font-family="Times,serif" font-size="14.00" fill="#000000">Identify</text>
</g>
<!-- Identify&#45;&gt;p2p.Node -->
<g id="edge18" class="edge">
<title>Identify&#45;&gt;p2p.Node</title>
<path fill="none" stroke="#000000" d="M252.405,-172.0713C255.3899,-167.165 258.4655,-162.1096 261.4039,-157.2795"/>
<polygon fill="#000000" stroke="#000000" points="264.6185,-158.7297 266.8258,-148.3673 258.6382,-155.0915 264.6185,-158.7297"/>
</g>
<!-- Gossipsub&#45;&gt;p2p.Node -->
<g id="edge19" class="edge">
<title>Gossipsub&#45;&gt;p2p.Node</title>
<path fill="none" stroke="#000000" d="M373.3765,-164.9648C369.4166,-161.6592 365.2613,-158.5906 361,-156 349.5971,-149.0677 336.1757,-143.8231 323.4884,-139.9272"/>
<polygon fill="#000000" stroke="#000000" points="324.0999,-136.4621 313.5234,-137.0854 322.1801,-143.1937 324.0999,-136.4621"/>
</g>
<!-- Bootstrap List -->
<g id="node54" class="node">
<title>Bootstrap List</title>
<polygon fill="none" stroke="#000000" points="352.4428,-237.767 281.5572,-237.767 281.5572,-166.8814 352.4428,-166.8814 352.4428,-237.767"/>
<polyline fill="none" stroke="#000000" points="293.5572,-237.767 281.5572,-225.767 "/>
<polyline fill="none" stroke="#000000" points="281.5572,-178.8814 293.5572,-166.8814 "/>
<polyline fill="none" stroke="#000000" points="340.4428,-166.8814 352.4428,-178.8814 "/>
<polyline fill="none" stroke="#000000" points="352.4428,-225.767 340.4428,-237.767 "/>
<text text-anchor="middle" x="317" y="-205.1242" font-family="Times,serif" font-size="14.00" fill="#000000">Bootstrap</text>
<text text-anchor="middle" x="317" y="-191.1242" font-family="Times,serif" font-size="14.00" fill="#000000">List</text>
</g>
<!-- Bootstrap List&#45;&gt;p2p.Node -->
<g id="edge22" class="edge">
<title>Bootstrap List&#45;&gt;p2p.Node</title>
<path fill="none" stroke="#000000" d="M297.957,-167.0096C296.2168,-163.7824 294.4717,-160.5462 292.7772,-157.4039"/>
<polygon fill="#000000" stroke="#000000" points="295.7282,-155.5021 287.9012,-148.3615 289.5669,-158.8246 295.7282,-155.5021"/>
</g>
</g>
</svg>
