<?xml version="1.0" encoding="UTF-8" standalone="no"?>
<!DOCTYPE svg PUBLIC "-//W3C//DTD SVG 1.1//EN"
 "http://www.w3.org/Graphics/SVG/1.1/DTD/svg11.dtd">
<!-- Generated by graphviz version 2.40.1 (20161225.0304)
 -->
<!-- Title: Filecoin Pages: 1 -->
<svg width="1555pt" height="1414pt"
 viewBox="0.00 0.00 1555.00 1413.76" xmlns="http://www.w3.org/2000/svg" xmlns:xlink="http://www.w3.org/1999/xlink">
<g id="graph0" class="graph" transform="scale(1 1) rotate(0) translate(4 1409.7646)">
<title>Filecoin</title>
<polygon fill="#ffffff" stroke="transparent" points="-4,4 -4,-1409.7646 1551,-1409.7646 1551,4 -4,4"/>
<g id="clust1" class="cluster">
<title>cluster_blockchain_subgroup</title>
<polygon fill="#e0ffff" stroke="#e0ffff" points="575,-367.3984 575,-988.3807 1043,-988.3807 1043,-367.3984 575,-367.3984"/>
</g>
<g id="clust2" class="cluster">
<title>cluster_blockchain</title>
<polygon fill="#d3d3d3" stroke="#d3d3d3" points="583,-739.5232 583,-956.1123 763,-956.1123 763,-739.5232 583,-739.5232"/>
<text text-anchor="middle" x="673" y="-940.9123" font-family="Times,serif" font-size="14.00" fill="#000000">Blockchain</text>
</g>
<g id="clust4" class="cluster">
<title>cluster_vm</title>
<polygon fill="#d3d3d3" stroke="#d3d3d3" points="719,-465.3984 719,-655.2549 1035,-655.2549 1035,-465.3984 719,-465.3984"/>
<text text-anchor="middle" x="877" y="-640.0549" font-family="Times,serif" font-size="14.00" fill="#000000">Filecoin VM</text>
</g>
<g id="clust7" class="cluster">
<title>cluster_messagepool</title>
<polygon fill="#d3d3d3" stroke="#d3d3d3" points="583,-375.3984 583,-552.9516 711,-552.9516 711,-375.3984 583,-375.3984"/>
<text text-anchor="middle" x="647" y="-537.7516" font-family="Times,serif" font-size="14.00" fill="#000000">Message Pool</text>
</g>
<g id="clust9" class="cluster">
<title>cluster_storagepowerconsensus</title>
<polygon fill="#d3d3d3" stroke="#d3d3d3" points="859,-739.5232 859,-980.3807 1020,-980.3807 1020,-739.5232 859,-739.5232"/>
<text text-anchor="middle" x="939.5" y="-965.1807" font-family="Times,serif" font-size="14.00" fill="#000000">Storage Power Consensus</text>
</g>
<g id="clust12" class="cluster">
<title>cluster_markets</title>
<polygon fill="#e6e6fa" stroke="#e6e6fa" points="8,-853.7915 8,-1250.2279 524,-1250.2279 524,-853.7915 8,-853.7915"/>
</g>
<g id="clust13" class="cluster">
<title>cluster_storagemarket</title>
<polygon fill="#d3d3d3" stroke="#d3d3d3" points="16,-1016.3153 16,-1242.2279 254,-1242.2279 254,-1016.3153 16,-1016.3153"/>
<text text-anchor="middle" x="135" y="-1227.0279" font-family="Times,serif" font-size="14.00" fill="#000000">Storage Market</text>
</g>
<g id="clust18" class="cluster">
<title>cluster_retrievalmarket</title>
<polygon fill="#d3d3d3" stroke="#d3d3d3" points="262,-1014.3807 262,-1119.6912 516,-1119.6912 516,-1014.3807 262,-1014.3807"/>
<text text-anchor="middle" x="389" y="-1104.4912" font-family="Times,serif" font-size="14.00" fill="#000000">Retrieval Market</text>
</g>
<g id="clust21" class="cluster">
<title>cluster_datatransfers</title>
<polygon fill="#d3d3d3" stroke="#d3d3d3" points="121,-861.7915 121,-976.4331 505,-976.4331 505,-861.7915 121,-861.7915"/>
<text text-anchor="middle" x="313" y="-961.2331" font-family="Times,serif" font-size="14.00" fill="#000000">Data Transfers</text>
</g>
<g id="clust24" class="cluster">
<title>cluster_storageminerprocess</title>
<polygon fill="#bfefff" stroke="#bfefff" points="532,-1022.036 532,-1397.7646 1101,-1397.7646 1101,-1022.036 532,-1022.036"/>
</g>
<g id="clust25" class="cluster">
<title>cluster_storagemining</title>
<polygon fill="#d3d3d3" stroke="#d3d3d3" points="648,-1267.2279 648,-1389.7646 896,-1389.7646 896,-1267.2279 648,-1267.2279"/>
<text text-anchor="middle" x="772" y="-1374.5646" font-family="Times,serif" font-size="14.00" fill="#000000">Storage Mining</text>
</g>
<g id="clust28" class="cluster">
<title>cluster_sectorindexer</title>
<polygon fill="#d3d3d3" stroke="#d3d3d3" points="540,-1030.036 540,-1104.036 756,-1104.036 756,-1030.036 540,-1030.036"/>
<text text-anchor="middle" x="648" y="-1088.836" font-family="Times,serif" font-size="14.00" fill="#000000">Sector Indexer</text>
</g>
<g id="clust30" class="cluster">
<title>cluster_filproofs_subsystem</title>
<polygon fill="#d3d3d3" stroke="#d3d3d3" points="764,-1030.036 764,-1104.036 1093,-1104.036 1093,-1030.036 764,-1030.036"/>
<text text-anchor="middle" x="928.5" y="-1088.836" font-family="Times,serif" font-size="14.00" fill="#000000">Storage Proving</text>
</g>
<g id="clust32" class="cluster">
<title>cluster_systems</title>
<polygon fill="none" stroke="#000000" points="1051,-360.6484 1051,-845.7915 1539,-845.7915 1539,-360.6484 1051,-360.6484"/>
</g>
<g id="clust33" class="cluster">
<title>cluster_repository</title>
<polygon fill="#d3d3d3" stroke="#d3d3d3" points="1059,-368.6484 1059,-552.9516 1338,-552.9516 1338,-368.6484 1059,-368.6484"/>
<text text-anchor="middle" x="1198.5" y="-537.7516" font-family="Times,serif" font-size="14.00" fill="#000000">Repository</text>
</g>
<g id="clust35" class="cluster">
<title>cluster_filproofs_lib</title>
<polygon fill="#d3d3d3" stroke="#d3d3d3" points="1059,-663.2549 1059,-820.5232 1327,-820.5232 1327,-663.2549 1059,-663.2549"/>
<text text-anchor="middle" x="1193" y="-805.3232" font-family="Times,serif" font-size="14.00" fill="#000000">Filecoin Proofs</text>
</g>
<g id="clust37" class="cluster">
<title>cluster_payments</title>
<polygon fill="#d3d3d3" stroke="#d3d3d3" points="1335,-715.2549 1335,-837.7915 1531,-837.7915 1531,-715.2549 1335,-715.2549"/>
<text text-anchor="middle" x="1433" y="-822.5915" font-family="Times,serif" font-size="14.00" fill="#000000">Payments</text>
</g>
<g id="clust40" class="cluster">
<title>cluster_net</title>
<polygon fill="#e0ffff" stroke="#e0ffff" points="95,-8 95,-457.3984 559,-457.3984 559,-8 95,-8"/>
</g>
<g id="clust41" class="cluster">
<title>cluster_clock</title>
<polygon fill="#d3d3d3" stroke="#d3d3d3" points="275,-278.6484 275,-449.3984 371,-449.3984 371,-278.6484 275,-278.6484"/>
<text text-anchor="middle" x="323" y="-434.1984" font-family="Times,serif" font-size="14.00" fill="#000000">Clock</text>
</g>
<g id="clust44" class="cluster">
<title>cluster_network</title>
<polygon fill="#d3d3d3" stroke="#d3d3d3" points="379,-278.6484 379,-352.6484 543,-352.6484 543,-278.6484 379,-278.6484"/>
<text text-anchor="middle" x="461" y="-337.4484" font-family="Times,serif" font-size="14.00" fill="#000000">Network Interface</text>
</g>
<g id="clust47" class="cluster">
<title>cluster_ipfs</title>
<polygon fill="#d3d3d3" stroke="#d3d3d3" points="103,-156 103,-270.6484 275,-270.6484 275,-156 103,-156"/>
<text text-anchor="middle" x="189" y="-255.4484" font-family="Times,serif" font-size="14.00" fill="#000000">IPFS</text>
</g>
<g id="clust49" class="cluster">
<title>cluster_libp2p</title>
<polygon fill="#d3d3d3" stroke="#d3d3d3" points="283,-16 283,-269.4966 539,-269.4966 539,-16 283,-16"/>
<text text-anchor="middle" x="411" y="-254.2966" font-family="Times,serif" font-size="14.00" fill="#000000">libp2p</text>
</g>
<g id="clust52" class="cluster">
<title>cluster_libp2p</title>
<polygon fill="#d3d3d3" stroke="#d3d3d3" points="394,-560.9516 394,-648.4516 544,-648.4516 544,-560.9516 394,-560.9516"/>
<text text-anchor="middle" x="469" y="-633.2516" font-family="Times,serif" font-size="14.00" fill="#000000">File Storage</text>
</g>
<!-- Chain -->
<g id="node1" class="node">
<title>Chain</title>
<polygon fill="none" stroke="#000000" points="755,-926.1123 701,-926.1123 701,-890.1123 755,-890.1123 755,-926.1123"/>
<text text-anchor="middle" x="728" y="-903.9123" font-family="Times,serif" font-size="14.00" fill="#000000">Chain</text>
</g>
<!-- Block Producer -->
<g id="node2" class="node">
<title>Block Producer</title>
<polygon fill="none" stroke="#000000" points="740.9806,-783.5232 637.0194,-783.5232 637.0194,-747.5232 740.9806,-747.5232 740.9806,-783.5232"/>
<text text-anchor="middle" x="689" y="-761.3232" font-family="Times,serif" font-size="14.00" fill="#000000">Block Producer</text>
</g>
<!-- Chain&#45;&gt;Block Producer -->
<!-- VM Interpreter -->
<g id="node4" class="node">
<title>VM Interpreter</title>
<polygon fill="none" stroke="#000000" points="828.628,-611.7016 727.372,-611.7016 727.372,-575.7016 828.628,-575.7016 828.628,-611.7016"/>
<text text-anchor="middle" x="778" y="-589.5016" font-family="Times,serif" font-size="14.00" fill="#000000">VM Interpreter</text>
</g>
<!-- Chain&#45;&gt;VM Interpreter -->
<g id="edge25" class="edge">
<title>Chain&#45;&gt;VM Interpreter</title>
<path fill="none" stroke="#000000" d="M762.9989,-774.4247C768.623,-735.4259 772.177,-696.8891 774.4044,-665.4845"/>
<polygon fill="#000000" stroke="#000000" points="777.9136,-665.4663 775.1012,-655.2516 770.9298,-664.9907 777.9136,-665.4663"/>
</g>
<!-- IPLD DagStore -->
<g id="node32" class="node">
<title>IPLD DagStore</title>
<polygon fill="none" stroke="#000000" points="1170.9875,-522.9516 1067.0125,-522.9516 1067.0125,-486.9516 1170.9875,-486.9516 1170.9875,-522.9516"/>
<text text-anchor="middle" x="1119" y="-500.7516" font-family="Times,serif" font-size="14.00" fill="#000000">IPLD DagStore</text>
</g>
<!-- Chain&#45;&gt;IPLD DagStore -->
<g id="edge32" class="edge">
<title>Chain&#45;&gt;IPLD DagStore</title>
<path fill="none" stroke="#000000" d="M762.9978,-889.1092C787.8822,-876.6172 822.5215,-861.2503 855,-853.7915 873.3219,-849.5839 1009.9283,-858.2568 1024,-845.7915 1054.7984,-818.5091 1043.7794,-702.8398 1055,-663.2549 1064.7284,-628.9341 1079.4524,-591.9005 1092.3258,-562.288"/>
<polygon fill="#000000" stroke="#000000" points="1095.6117,-563.5102 1096.4318,-552.9471 1089.2035,-560.6933 1095.6117,-563.5102"/>
</g>
<!-- Message Storage -->
<g id="node9" class="node">
<title>Message Storage</title>
<polygon fill="none" stroke="#000000" points="702.7522,-522.9516 591.2478,-522.9516 591.2478,-486.9516 702.7522,-486.9516 702.7522,-522.9516"/>
<text text-anchor="middle" x="647" y="-500.7516" font-family="Times,serif" font-size="14.00" fill="#000000">Message Storage</text>
</g>
<!-- Block Producer&#45;&gt;Message Storage -->
<g id="edge40" class="edge">
<title>Block Producer&#45;&gt;Message Storage</title>
<path fill="none" stroke="#000000" d="M686.0466,-747.2003C679.9657,-709.4738 665.8228,-621.7299 656.3342,-562.8617"/>
<polygon fill="#000000" stroke="#000000" points="659.7834,-562.2657 654.7366,-552.9501 652.8726,-563.3797 659.7834,-562.2657"/>
</g>
<!-- Block Syncer -->
<g id="node3" class="node">
<title>Block Syncer</title>
<polygon fill="none" stroke="#000000" points="682.8176,-926.1123 591.1824,-926.1123 591.1824,-890.1123 682.8176,-890.1123 682.8176,-926.1123"/>
<text text-anchor="middle" x="637" y="-903.9123" font-family="Times,serif" font-size="14.00" fill="#000000">Block Syncer</text>
</g>
<!-- Gossipsub -->
<g id="node50" class="node">
<title>Gossipsub</title>
<polygon fill="none" stroke="#000000" points="531.3455,-239.6697 456.6545,-239.6697 456.6545,-164.9787 531.3455,-164.9787 531.3455,-239.6697"/>
<polyline fill="none" stroke="#000000" points="468.6545,-239.6697 456.6545,-227.6697 "/>
<polyline fill="none" stroke="#000000" points="456.6545,-176.9787 468.6545,-164.9787 "/>
<polyline fill="none" stroke="#000000" points="519.3455,-164.9787 531.3455,-176.9787 "/>
<polyline fill="none" stroke="#000000" points="531.3455,-227.6697 519.3455,-239.6697 "/>
<text text-anchor="middle" x="494" y="-198.1242" font-family="Times,serif" font-size="14.00" fill="#000000">Gossipsub</text>
</g>
<!-- Block Syncer&#45;&gt;Gossipsub -->
<g id="edge36" class="edge">
<title>Block Syncer&#45;&gt;Gossipsub</title>
<path fill="none" stroke="#000000" d="M607.85,-739.5279C598.0896,-680.593 587.5313,-613.9294 579,-552.9516 561.9934,-431.3962 590.4157,-393.4527 547,-278.6484 545.9691,-275.9224 544.8197,-273.201 543.5738,-270.4972"/>
<polygon fill="#000000" stroke="#000000" points="546.6149,-268.754 538.9971,-261.3906 540.3604,-271.8974 546.6149,-268.754"/>
</g>
<!-- Messages -->
<g id="node5" class="node">
<title>Messages</title>
<polygon fill="none" stroke="#000000" points="813.4359,-522.9516 742.5641,-522.9516 742.5641,-486.9516 813.4359,-486.9516 813.4359,-522.9516"/>
<text text-anchor="middle" x="778" y="-500.7516" font-family="Times,serif" font-size="14.00" fill="#000000">Messages</text>
</g>
<!-- VM Interpreter&#45;&gt;Messages -->
<!-- Init Actor -->
<g id="node6" class="node">
<title>Init Actor</title>
<polygon fill="none" stroke="#000000" points="923.7718,-582.2695 923.7718,-605.1338 902.2314,-621.3014 871.7686,-621.3014 850.2282,-605.1338 850.2282,-582.2695 871.7686,-566.1019 902.2314,-566.1019 923.7718,-582.2695"/>
<polygon fill="none" stroke="#000000" points="927.7859,-580.2692 927.7859,-607.1341 903.5722,-625.3081 870.4278,-625.3081 846.2141,-607.1341 846.2141,-580.2692 870.4278,-562.0951 903.5722,-562.0951 927.7859,-580.2692"/>
<text text-anchor="middle" x="887" y="-596.5016" font-family="Times,serif" font-size="14.00" fill="#000000">Init</text>
<text text-anchor="middle" x="887" y="-582.5016" font-family="Times,serif" font-size="14.00" fill="#000000">Actor</text>
</g>
<!-- Account Actor -->
<g id="node7" class="node">
<title>Account Actor</title>
<polygon fill="none" stroke="#000000" points="935.5875,-493.5195 935.5875,-516.3838 907.1256,-532.5514 866.8744,-532.5514 838.4125,-516.3838 838.4125,-493.5195 866.8744,-477.3519 907.1256,-477.3519 935.5875,-493.5195"/>
<polygon fill="none" stroke="#000000" points="939.591,-491.1864 939.591,-518.7168 908.1826,-536.5581 865.8174,-536.5581 834.409,-518.7168 834.409,-491.1864 865.8174,-473.3451 908.1826,-473.3451 939.591,-491.1864"/>
<text text-anchor="middle" x="887" y="-507.7516" font-family="Times,serif" font-size="14.00" fill="#000000">Account</text>
<text text-anchor="middle" x="887" y="-493.7516" font-family="Times,serif" font-size="14.00" fill="#000000">Actor</text>
</g>
<!-- Init Actor&#45;&gt;Account Actor -->
<!-- Cron Actor -->
<g id="node8" class="node">
<title>Cron Actor</title>
<polygon fill="none" stroke="#000000" points="1022.7718,-582.2695 1022.7718,-605.1338 1001.2314,-621.3014 970.7686,-621.3014 949.2282,-605.1338 949.2282,-582.2695 970.7686,-566.1019 1001.2314,-566.1019 1022.7718,-582.2695"/>
<polygon fill="none" stroke="#000000" points="1026.7859,-580.2692 1026.7859,-607.1341 1002.5722,-625.3081 969.4278,-625.3081 945.2141,-607.1341 945.2141,-580.2692 969.4278,-562.0951 1002.5722,-562.0951 1026.7859,-580.2692"/>
<text text-anchor="middle" x="986" y="-596.5016" font-family="Times,serif" font-size="14.00" fill="#000000">Cron</text>
<text text-anchor="middle" x="986" y="-582.5016" font-family="Times,serif" font-size="14.00" fill="#000000">Actor</text>
</g>
<!-- Message Syncer -->
<g id="node10" class="node">
<title>Message Syncer</title>
<polygon fill="none" stroke="#000000" points="698.8629,-419.3984 591.1371,-419.3984 591.1371,-383.3984 698.8629,-383.3984 698.8629,-419.3984"/>
<text text-anchor="middle" x="645" y="-397.1984" font-family="Times,serif" font-size="14.00" fill="#000000">Message Syncer</text>
</g>
<!-- Message Storage&#45;&gt;Message Syncer -->
<!-- Filecoin Network Node -->
<g id="node43" class="node">
<title>Filecoin Network Node</title>
<polygon fill="none" stroke="#000000" points="535.1935,-322.6484 386.8065,-322.6484 386.8065,-286.6484 535.1935,-286.6484 535.1935,-322.6484"/>
<text text-anchor="middle" x="461" y="-300.4484" font-family="Times,serif" font-size="14.00" fill="#000000">Filecoin Network Node</text>
</g>
<!-- Message Syncer&#45;&gt;Filecoin Network Node -->
<!-- Message Syncer&#45;&gt;Gossipsub -->
<g id="edge37" class="edge">
<title>Message Syncer&#45;&gt;Gossipsub</title>
<path fill="none" stroke="#000000" d="M633.6146,-375.4031C621.5957,-349.4906 601.0761,-309.2522 577,-278.6484 567.9889,-267.1942 557.1995,-255.9473 546.4282,-245.7557"/>
<polygon fill="#000000" stroke="#000000" points="548.7131,-243.1014 538.9961,-238.879 543.9591,-248.2395 548.7131,-243.1014"/>
</g>
<!-- Expected Consensus -->
<g id="node11" class="node">
<title>Expected Consensus</title>
<polygon fill="none" stroke="#000000" points="1004.9804,-783.5232 873.0196,-783.5232 873.0196,-747.5232 1004.9804,-747.5232 1004.9804,-783.5232"/>
<text text-anchor="middle" x="939" y="-761.3232" font-family="Times,serif" font-size="14.00" fill="#000000">Expected Consensus</text>
</g>
<!-- Storage Power Actor -->
<g id="node12" class="node">
<title>Storage Power Actor</title>
<polygon fill="none" stroke="#000000" points="983.9564,-892.3475 983.9564,-923.8772 957.6215,-946.1721 920.3785,-946.1721 894.0436,-923.8772 894.0436,-892.3475 920.3785,-870.0526 957.6215,-870.0526 983.9564,-892.3475"/>
<polygon fill="none" stroke="#000000" points="987.9545,-890.509 987.9545,-925.7157 959.0923,-950.1503 918.9077,-950.1503 890.0455,-925.7157 890.0455,-890.509 918.9077,-866.0744 959.0923,-866.0744 987.9545,-890.509"/>
<text text-anchor="middle" x="939" y="-917.9123" font-family="Times,serif" font-size="14.00" fill="#000000">Storage</text>
<text text-anchor="middle" x="939" y="-903.9123" font-family="Times,serif" font-size="14.00" fill="#000000">Power</text>
<text text-anchor="middle" x="939" y="-889.9123" font-family="Times,serif" font-size="14.00" fill="#000000">Actor</text>
</g>
<!-- Storage Power Actor&#45;&gt;Expected Consensus -->
<!-- Storage Provider -->
<g id="node13" class="node">
<title>Storage Provider</title>
<polygon fill="none" stroke="#000000" points="88.2142,-1074.036 23.7858,-1074.036 23.7858,-1038.036 88.2142,-1038.036 88.2142,-1074.036"/>
<text text-anchor="middle" x="56" y="-1058.836" font-family="Times,serif" font-size="14.00" fill="#000000">Storage</text>
<text text-anchor="middle" x="56" y="-1044.836" font-family="Times,serif" font-size="14.00" fill="#000000">Provider</text>
</g>
<!-- Storage Provider&#45;&gt;Chain -->
<g id="edge27" class="edge">
<title>Storage Provider&#45;&gt;Chain</title>
<path fill="none" stroke="#000000" d="M93.1099,-1016.3193C94.3854,-1015.6157 95.6827,-1014.9666 97,-1014.3807 112.1158,-1007.6576 678.3128,-997.6731 692,-988.3807 700.472,-982.6289 706.9757,-974.3841 711.9609,-965.3467"/>
<polygon fill="#000000" stroke="#000000" points="715.2282,-966.6313 716.4567,-956.108 708.9338,-963.5683 715.2282,-966.6313"/>
</g>
<!-- Data Transfers -->
<g id="node20" class="node">
<title>Data Transfers</title>
<polygon fill="none" stroke="#000000" points="497.0586,-926.1123 398.9414,-926.1123 398.9414,-890.1123 497.0586,-890.1123 497.0586,-926.1123"/>
<text text-anchor="middle" x="448" y="-903.9123" font-family="Times,serif" font-size="14.00" fill="#000000">Data Transfers</text>
</g>
<!-- Storage Provider&#45;&gt;Data Transfers -->
<g id="edge34" class="edge">
<title>Storage Provider&#45;&gt;Data Transfers</title>
<path fill="none" stroke="#000000" d="M93.2865,-1016.3174C94.506,-1015.6213 95.7445,-1014.9732 97,-1014.3807 215.2307,-958.5877 276.3388,-1052.9755 390,-988.3807 392.8706,-986.7493 395.6369,-984.911 398.2984,-982.9059"/>
<polygon fill="#000000" stroke="#000000" points="400.5848,-985.5561 405.968,-976.4308 396.0692,-980.2074 400.5848,-985.5561"/>
</g>
<!-- Storage Client -->
<g id="node14" class="node">
<title>Storage Client</title>
<polygon fill="none" stroke="#000000" points="164.2661,-1074.036 105.7339,-1074.036 105.7339,-1038.036 164.2661,-1038.036 164.2661,-1074.036"/>
<text text-anchor="middle" x="135" y="-1058.836" font-family="Times,serif" font-size="14.00" fill="#000000">Storage</text>
<text text-anchor="middle" x="135" y="-1044.836" font-family="Times,serif" font-size="14.00" fill="#000000">Client</text>
</g>
<!-- Storage Deal Protocol -->
<g id="node15" class="node">
<title>Storage Deal Protocol</title>
<polygon fill="none" stroke="#000000" points="245.943,-1087.9789 182.057,-1087.9789 182.057,-1024.093 245.943,-1024.093 245.943,-1087.9789"/>
<polyline fill="none" stroke="#000000" points="194.057,-1087.9789 182.057,-1075.9789 "/>
<polyline fill="none" stroke="#000000" points="182.057,-1036.093 194.057,-1024.093 "/>
<polyline fill="none" stroke="#000000" points="233.943,-1024.093 245.943,-1036.093 "/>
<polyline fill="none" stroke="#000000" points="245.943,-1075.9789 233.943,-1087.9789 "/>
<text text-anchor="middle" x="214" y="-1065.836" font-family="Times,serif" font-size="14.00" fill="#000000">Storage</text>
<text text-anchor="middle" x="214" y="-1051.836" font-family="Times,serif" font-size="14.00" fill="#000000">Deal</text>
<text text-anchor="middle" x="214" y="-1037.836" font-family="Times,serif" font-size="14.00" fill="#000000">Protocol</text>
</g>
<!-- Storage Market Actor -->
<g id="node16" class="node">
<title>Storage Market Actor</title>
<polygon fill="none" stroke="#000000" points="179.9564,-1154.1947 179.9564,-1185.7244 153.6215,-1208.0193 116.3785,-1208.0193 90.0436,-1185.7244 90.0436,-1154.1947 116.3785,-1131.8998 153.6215,-1131.8998 179.9564,-1154.1947"/>
<polygon fill="none" stroke="#000000" points="183.9545,-1152.3562 183.9545,-1187.5629 155.0923,-1211.9975 114.9077,-1211.9975 86.0455,-1187.5629 86.0455,-1152.3562 114.9077,-1127.9216 155.0923,-1127.9216 183.9545,-1152.3562"/>
<text text-anchor="middle" x="135" y="-1179.7596" font-family="Times,serif" font-size="14.00" fill="#000000">Storage</text>
<text text-anchor="middle" x="135" y="-1165.7596" font-family="Times,serif" font-size="14.00" fill="#000000">Market</text>
<text text-anchor="middle" x="135" y="-1151.7596" font-family="Times,serif" font-size="14.00" fill="#000000">Actor</text>
</g>
<!-- Storage Market Actor&#45;&gt;Storage Provider -->
<!-- Storage Market Actor&#45;&gt;Storage Client -->
<!-- Storage Market Actor&#45;&gt;Storage Deal Protocol -->
<!-- Retrieval Provider -->
<g id="node17" class="node">
<title>Retrieval Provider</title>
<polygon fill="none" stroke="#000000" points="507.8113,-1074.036 440.1887,-1074.036 440.1887,-1038.036 507.8113,-1038.036 507.8113,-1074.036"/>
<text text-anchor="middle" x="474" y="-1058.836" font-family="Times,serif" font-size="14.00" fill="#000000">Retrieval</text>
<text text-anchor="middle" x="474" y="-1044.836" font-family="Times,serif" font-size="14.00" fill="#000000">Provider</text>
</g>
<!-- Retrieval Provider&#45;&gt;Chain -->
<g id="edge28" class="edge">
<title>Retrieval Provider&#45;&gt;Chain</title>
<path fill="none" stroke="#000000" d="M515.9963,-1024.4271C522.4577,-1020.5817 529.2361,-1017.0695 536,-1014.3807 601.318,-988.4153 636.35,-1031.3192 692,-988.3807 699.9223,-982.268 706.1475,-974.0266 711.0253,-965.1465"/>
<polygon fill="#000000" stroke="#000000" points="714.1975,-966.6272 715.467,-956.1087 707.9151,-963.5396 714.1975,-966.6272"/>
</g>
<!-- Retrieval Provider&#45;&gt;Data Transfers -->
<g id="edge35" class="edge">
<title>Retrieval Provider&#45;&gt;Data Transfers</title>
<path fill="none" stroke="#000000" d="M466.6787,-1014.3824C465.1405,-1005.6308 463.4702,-996.1282 461.7823,-986.5251"/>
<polygon fill="#000000" stroke="#000000" points="465.1864,-985.6738 460.0081,-976.4307 458.2921,-986.8856 465.1864,-985.6738"/>
</g>
<!-- Retrieval Client -->
<g id="node18" class="node">
<title>Retrieval Client</title>
<polygon fill="none" stroke="#000000" points="422.8113,-1074.036 355.1887,-1074.036 355.1887,-1038.036 422.8113,-1038.036 422.8113,-1074.036"/>
<text text-anchor="middle" x="389" y="-1058.836" font-family="Times,serif" font-size="14.00" fill="#000000">Retrieval</text>
<text text-anchor="middle" x="389" y="-1044.836" font-family="Times,serif" font-size="14.00" fill="#000000">Client</text>
</g>
<!-- Retrieval Deal Protocol -->
<g id="node19" class="node">
<title>Retrieval Deal Protocol</title>
<polygon fill="none" stroke="#000000" points="337.8113,-1089.8472 270.1887,-1089.8472 270.1887,-1022.2247 337.8113,-1022.2247 337.8113,-1089.8472"/>
<polyline fill="none" stroke="#000000" points="282.1887,-1089.8472 270.1887,-1077.8472 "/>
<polyline fill="none" stroke="#000000" points="270.1887,-1034.2247 282.1887,-1022.2247 "/>
<polyline fill="none" stroke="#000000" points="325.8113,-1022.2247 337.8113,-1034.2247 "/>
<polyline fill="none" stroke="#000000" points="337.8113,-1077.8472 325.8113,-1089.8472 "/>
<text text-anchor="middle" x="304" y="-1065.836" font-family="Times,serif" font-size="14.00" fill="#000000">Retrieval</text>
<text text-anchor="middle" x="304" y="-1051.836" font-family="Times,serif" font-size="14.00" fill="#000000">Deal</text>
<text text-anchor="middle" x="304" y="-1037.836" font-family="Times,serif" font-size="14.00" fill="#000000">Protocol</text>
</g>
<!-- Disk2 -->
<g id="node52" class="node">
<title>Disk2</title>
<path fill="none" stroke="#000000" d="M535.9216,-613.7491C535.9216,-616.2073 505.9262,-618.2041 469,-618.2041 432.0738,-618.2041 402.0784,-616.2073 402.0784,-613.7491 402.0784,-613.7491 402.0784,-573.6541 402.0784,-573.6541 402.0784,-571.1959 432.0738,-569.1991 469,-569.1991 505.9262,-569.1991 535.9216,-571.1959 535.9216,-573.6541 535.9216,-573.6541 535.9216,-613.7491 535.9216,-613.7491"/>
<path fill="none" stroke="#000000" d="M535.9216,-613.7491C535.9216,-611.2909 505.9262,-609.2941 469,-609.2941 432.0738,-609.2941 402.0784,-611.2909 402.0784,-613.7491"/>
<text text-anchor="middle" x="469" y="-596.5016" font-family="Times,serif" font-size="14.00" fill="#000000">Data Storage System</text>
<text text-anchor="middle" x="469" y="-582.5016" font-family="Times,serif" font-size="14.00" fill="#000000">(Disks, etc)</text>
</g>
<!-- Data Transfers&#45;&gt;Disk2 -->
<g id="edge43" class="edge">
<title>Data Transfers&#45;&gt;Disk2</title>
<path fill="none" stroke="#000000" d="M449.2198,-889.8493C452.6183,-838.9676 462.2357,-694.9756 466.687,-628.3324"/>
<polygon fill="#000000" stroke="#000000" points="470.1809,-628.5379 467.3552,-618.3269 463.1965,-628.0713 470.1809,-628.5379"/>
</g>
<!-- Data Transfers Scheduler -->
<g id="node21" class="node">
<title>Data Transfers Scheduler</title>
<polygon fill="none" stroke="#000000" points="380.5388,-926.1123 223.4612,-926.1123 223.4612,-890.1123 380.5388,-890.1123 380.5388,-926.1123"/>
<text text-anchor="middle" x="302" y="-903.9123" font-family="Times,serif" font-size="14.00" fill="#000000">Data Transfers Scheduler</text>
</g>
<!-- AuthSwap -->
<g id="node22" class="node">
<title>AuthSwap</title>
<polygon fill="none" stroke="#000000" points="205.1424,-946.2548 128.8576,-946.2548 128.8576,-869.9699 205.1424,-869.9699 205.1424,-946.2548"/>
<polyline fill="none" stroke="#000000" points="140.8576,-946.2548 128.8576,-934.2548 "/>
<polyline fill="none" stroke="#000000" points="128.8576,-881.9699 140.8576,-869.9699 "/>
<polyline fill="none" stroke="#000000" points="193.1424,-869.9699 205.1424,-881.9699 "/>
<polyline fill="none" stroke="#000000" points="205.1424,-934.2548 193.1424,-946.2548 "/>
<text text-anchor="middle" x="167" y="-924.9123" font-family="Times,serif" font-size="14.00" fill="#000000">data</text>
<text text-anchor="middle" x="167" y="-910.9123" font-family="Times,serif" font-size="14.00" fill="#000000">transfer</text>
<text text-anchor="middle" x="167" y="-896.9123" font-family="Times,serif" font-size="14.00" fill="#000000">protocol</text>
<text text-anchor="middle" x="167" y="-882.9123" font-family="Times,serif" font-size="14.00" fill="#000000">(unnamed)</text>
</g>
<!-- Graphsync -->
<g id="node44" class="node">
<title>Graphsync</title>
<polygon fill="none" stroke="#000000" points="267.1492,-240.4735 190.8508,-240.4735 190.8508,-164.175 267.1492,-164.175 267.1492,-240.4735"/>
<polyline fill="none" stroke="#000000" points="202.8508,-240.4735 190.8508,-228.4735 "/>
<polyline fill="none" stroke="#000000" points="190.8508,-176.175 202.8508,-164.175 "/>
<polyline fill="none" stroke="#000000" points="255.1492,-164.175 267.1492,-176.175 "/>
<polyline fill="none" stroke="#000000" points="267.1492,-228.4735 255.1492,-240.4735 "/>
<text text-anchor="middle" x="229" y="-198.1242" font-family="Times,serif" font-size="14.00" fill="#000000">Graphsync</text>
</g>
<!-- AuthSwap&#45;&gt;Graphsync -->
<g id="edge33" class="edge">
<title>AuthSwap&#45;&gt;Graphsync</title>
<path fill="none" stroke="#000000" d="M177.419,-861.7948C186.4234,-817.6801 198,-749.2895 198,-689.2549 198,-689.2549 198,-689.2549 198,-401.3984 198,-349.3222 208.4851,-290.4858 217.2595,-250.366"/>
<polygon fill="#000000" stroke="#000000" points="220.6801,-251.1076 219.446,-240.5848 213.8487,-249.5804 220.6801,-251.1076"/>
</g>
<!-- Mining Scheduler -->
<g id="node23" class="node">
<title>Mining Scheduler</title>
<polygon fill="none" stroke="#000000" points="888.2074,-1335.4963 771.7926,-1335.4963 771.7926,-1299.4963 888.2074,-1299.4963 888.2074,-1335.4963"/>
<text text-anchor="middle" x="830" y="-1313.2963" font-family="Times,serif" font-size="14.00" fill="#000000">Mining Scheduler</text>
</g>
<!-- Sector Builder -->
<g id="node26" class="node">
<title>Sector Builder</title>
<polygon fill="none" stroke="#000000" points="645.7591,-1074.036 548.2409,-1074.036 548.2409,-1038.036 645.7591,-1038.036 645.7591,-1074.036"/>
<text text-anchor="middle" x="597" y="-1051.836" font-family="Times,serif" font-size="14.00" fill="#000000">Sector Builder</text>
</g>
<!-- Mining Scheduler&#45;&gt;Sector Builder -->
<g id="edge30" class="edge">
<title>Mining Scheduler&#45;&gt;Sector Builder</title>
<path fill="none" stroke="#000000" d="M785.2041,-1267.2286C745.5481,-1222.7288 687.7537,-1157.8749 646.689,-1111.7943"/>
<polygon fill="#000000" stroke="#000000" points="649.0389,-1109.1705 639.7728,-1104.0333 643.8129,-1113.8276 649.0389,-1109.1705"/>
</g>
<!-- Pledge Prover -->
<g id="node29" class="node">
<title>Pledge Prover</title>
<polygon fill="none" stroke="#000000" points="986.4278,-1074.036 891.5722,-1074.036 891.5722,-1038.036 986.4278,-1038.036 986.4278,-1074.036"/>
<text text-anchor="middle" x="939" y="-1051.836" font-family="Times,serif" font-size="14.00" fill="#000000">Pledge Prover</text>
</g>
<!-- Mining Scheduler&#45;&gt;Pledge Prover -->
<g id="edge29" class="edge">
<title>Mining Scheduler&#45;&gt;Pledge Prover</title>
<path fill="none" stroke="#000000" d="M850.9553,-1267.2304C869.2638,-1223.3133 895.8374,-1159.5708 914.9962,-1113.6144"/>
<polygon fill="#000000" stroke="#000000" points="918.3719,-1114.6128 918.9893,-1104.0359 911.9108,-1111.9192 918.3719,-1114.6128"/>
</g>
<!-- Storage Miner Actor -->
<g id="node24" class="node">
<title>Storage Miner Actor</title>
<polygon fill="none" stroke="#000000" points="749.9564,-1301.7314 749.9564,-1333.2611 723.6215,-1355.556 686.3785,-1355.556 660.0436,-1333.2611 660.0436,-1301.7314 686.3785,-1279.4365 723.6215,-1279.4365 749.9564,-1301.7314"/>
<polygon fill="none" stroke="#000000" points="753.9545,-1299.8929 753.9545,-1335.0996 725.0923,-1359.5342 684.9077,-1359.5342 656.0455,-1335.0996 656.0455,-1299.8929 684.9077,-1275.4583 725.0923,-1275.4583 753.9545,-1299.8929"/>
<text text-anchor="middle" x="705" y="-1327.2963" font-family="Times,serif" font-size="14.00" fill="#000000">Storage</text>
<text text-anchor="middle" x="705" y="-1313.2963" font-family="Times,serif" font-size="14.00" fill="#000000">Miner</text>
<text text-anchor="middle" x="705" y="-1299.2963" font-family="Times,serif" font-size="14.00" fill="#000000">Actor</text>
</g>
<!-- Sector Store -->
<g id="node25" class="node">
<title>Sector Store</title>
<polygon fill="none" stroke="#000000" points="748.3176,-1074.036 663.6824,-1074.036 663.6824,-1038.036 748.3176,-1038.036 748.3176,-1074.036"/>
<text text-anchor="middle" x="706" y="-1051.836" font-family="Times,serif" font-size="14.00" fill="#000000">Sector Store</text>
</g>
<!-- Sector Store&#45;&gt;Disk2 -->
<g id="edge44" class="edge">
<title>Sector Store&#45;&gt;Disk2</title>
<path fill="none" stroke="#000000" d="M686.848,-1037.6487C677.7511,-1029.6645 666.3917,-1020.7117 655,-1014.3807 623.7955,-997.0385 603.5033,-1014.3433 579,-988.3807 529.0266,-935.4312 488.6369,-714.7876 474.4589,-628.5032"/>
<polygon fill="#000000" stroke="#000000" points="477.8808,-627.7394 472.8229,-618.4298 470.9714,-628.8616 477.8808,-627.7394"/>
</g>
<!-- Seal Prover -->
<g id="node27" class="node">
<title>Seal Prover</title>
<polygon fill="none" stroke="#000000" points="1085.4278,-1074.036 1004.5722,-1074.036 1004.5722,-1038.036 1085.4278,-1038.036 1085.4278,-1074.036"/>
<text text-anchor="middle" x="1045" y="-1051.836" font-family="Times,serif" font-size="14.00" fill="#000000">Seal Prover</text>
</g>
<!-- PoSt Generator -->
<g id="node28" class="node">
<title>PoSt Generator</title>
<polygon fill="none" stroke="#000000" points="873.9278,-1074.036 772.0722,-1074.036 772.0722,-1038.036 873.9278,-1038.036 873.9278,-1074.036"/>
<text text-anchor="middle" x="823" y="-1051.836" font-family="Times,serif" font-size="14.00" fill="#000000">PoSt Generator</text>
</g>
<!-- PoSt Generator&#45;&gt;Chain -->
<g id="edge31" class="edge">
<title>PoSt Generator&#45;&gt;Chain</title>
<path fill="none" stroke="#000000" d="M806.3036,-1030.0381C794.7163,-1011.9957 778.8288,-987.2574 764.3917,-964.7775"/>
<polygon fill="#000000" stroke="#000000" points="767.174,-962.6328 758.8252,-956.1099 761.284,-966.4155 767.174,-962.6328"/>
</g>
<!-- Pledge Prover&#45;&gt;Storage Power Actor -->
<g id="edge26" class="edge">
<title>Pledge Prover&#45;&gt;Storage Power Actor</title>
<path fill="none" stroke="#000000" d="M939,-1030.0402C939,-1018.8498 939,-1005.0834 939,-990.8775"/>
<polygon fill="#000000" stroke="#000000" points="942.5001,-990.3799 939,-980.3799 935.5001,-990.3799 942.5001,-990.3799"/>
</g>
<!-- ZigZag&#45;Porep -->
<g id="node34" class="node">
<title>ZigZag&#45;Porep</title>
<polygon fill="none" stroke="#000000" points="1319.0324,-783.5232 1224.9676,-783.5232 1224.9676,-747.5232 1319.0324,-747.5232 1319.0324,-783.5232"/>
<text text-anchor="middle" x="1272" y="-761.3232" font-family="Times,serif" font-size="14.00" fill="#000000">ZigZag&#45;Porep</text>
</g>
<!-- Pledge Prover&#45;&gt;ZigZag&#45;Porep -->
<g id="edge41" class="edge">
<title>Pledge Prover&#45;&gt;ZigZag&#45;Porep</title>
<path fill="none" stroke="#000000" d="M974.5221,-1030.0363C1044.5738,-978.6243 1195.5425,-867.086 1216,-845.7915 1221.083,-840.5006 1226.0444,-834.711 1230.7807,-828.7413"/>
<polygon fill="#000000" stroke="#000000" points="1233.7789,-830.5834 1237.09,-820.5193 1228.2255,-826.3219 1233.7789,-830.5834"/>
</g>
<!-- Config -->
<g id="node30" class="node">
<title>Config</title>
<polygon fill="none" stroke="#000000" points="1243.1242,-522.9516 1188.8758,-522.9516 1188.8758,-486.9516 1243.1242,-486.9516 1243.1242,-522.9516"/>
<text text-anchor="middle" x="1216" y="-500.7516" font-family="Times,serif" font-size="14.00" fill="#000000">Config</text>
</g>
<!-- Local Storage -->
<g id="node33" class="node">
<title>Local Storage</title>
<path fill="none" stroke="#000000" d="M1263.1349,-421.4459C1263.1349,-423.9041 1242.0083,-425.9009 1216,-425.9009 1189.9917,-425.9009 1168.8651,-423.9041 1168.8651,-421.4459 1168.8651,-421.4459 1168.8651,-381.3509 1168.8651,-381.3509 1168.8651,-378.8927 1189.9917,-376.8959 1216,-376.8959 1242.0083,-376.8959 1263.1349,-378.8927 1263.1349,-381.3509 1263.1349,-381.3509 1263.1349,-421.4459 1263.1349,-421.4459"/>
<path fill="none" stroke="#000000" d="M1263.1349,-421.4459C1263.1349,-418.9877 1242.0083,-416.9909 1216,-416.9909 1189.9917,-416.9909 1168.8651,-418.9877 1168.8651,-421.4459"/>
<text text-anchor="middle" x="1216" y="-404.1984" font-family="Times,serif" font-size="14.00" fill="#000000">Local Storage</text>
<text text-anchor="middle" x="1216" y="-390.1984" font-family="Times,serif" font-size="14.00" fill="#000000">(Disk)</text>
</g>
<!-- Config&#45;&gt;Local Storage -->
<g id="edge10" class="edge">
<title>Config&#45;&gt;Local Storage</title>
<path fill="none" stroke="#000000" d="M1216,-486.9141C1216,-472.9978 1216,-453.322 1216,-436.3515"/>
<polygon fill="#000000" stroke="#000000" points="1219.5001,-436.2102 1216,-426.2102 1212.5001,-436.2103 1219.5001,-436.2102"/>
</g>
<!-- KeyStore -->
<g id="node31" class="node">
<title>KeyStore</title>
<polygon fill="none" stroke="#000000" points="1330.3761,-522.9516 1261.6239,-522.9516 1261.6239,-486.9516 1330.3761,-486.9516 1330.3761,-522.9516"/>
<text text-anchor="middle" x="1296" y="-500.7516" font-family="Times,serif" font-size="14.00" fill="#000000">KeyStore</text>
</g>
<!-- KeyStore&#45;&gt;Local Storage -->
<g id="edge11" class="edge">
<title>KeyStore&#45;&gt;Local Storage</title>
<path fill="none" stroke="#000000" d="M1282.0651,-486.9141C1270.9084,-472.4727 1254.96,-451.8288 1241.528,-434.4423"/>
<polygon fill="#000000" stroke="#000000" points="1244.0517,-431.984 1235.1684,-426.2102 1238.5122,-436.2636 1244.0517,-431.984"/>
</g>
<!-- IPLD DagStore&#45;&gt;Local Storage -->
<g id="edge9" class="edge">
<title>IPLD DagStore&#45;&gt;Local Storage</title>
<path fill="none" stroke="#000000" d="M1135.8961,-486.9141C1149.5466,-472.3414 1169.1131,-451.453 1185.4907,-433.969"/>
<polygon fill="#000000" stroke="#000000" points="1188.4764,-435.9012 1192.7584,-426.2102 1183.3676,-431.1158 1188.4764,-435.9012"/>
</g>
<!-- Rational PoSt -->
<g id="node35" class="node">
<title>Rational PoSt</title>
<polygon fill="none" stroke="#000000" points="1318.8973,-707.2549 1225.1027,-707.2549 1225.1027,-671.2549 1318.8973,-671.2549 1318.8973,-707.2549"/>
<text text-anchor="middle" x="1272" y="-685.0549" font-family="Times,serif" font-size="14.00" fill="#000000">Rational PoSt</text>
</g>
<!-- ZigZag&#45;Porep&#45;&gt;Rational PoSt -->
<!-- Piece Inclusion Proofs -->
<g id="node36" class="node">
<title>Piece Inclusion Proofs</title>
<polygon fill="none" stroke="#000000" points="1207.1036,-790.5232 1138.8964,-790.5232 1138.8964,-740.5232 1207.1036,-740.5232 1207.1036,-790.5232"/>
<text text-anchor="middle" x="1173" y="-775.3232" font-family="Times,serif" font-size="14.00" fill="#000000">Piece</text>
<text text-anchor="middle" x="1173" y="-761.3232" font-family="Times,serif" font-size="14.00" fill="#000000">Inclusion</text>
<text text-anchor="middle" x="1173" y="-747.3232" font-family="Times,serif" font-size="14.00" fill="#000000">Proofs</text>
</g>
<!-- VRFs -->
<g id="node37" class="node">
<title>VRFs</title>
<polygon fill="none" stroke="#000000" points="1121,-783.5232 1067,-783.5232 1067,-747.5232 1121,-747.5232 1121,-783.5232"/>
<text text-anchor="middle" x="1094" y="-761.3232" font-family="Times,serif" font-size="14.00" fill="#000000">VRFs</text>
</g>
<!-- VDFs -->
<g id="node38" class="node">
<title>VDFs</title>
<polygon fill="none" stroke="#000000" points="1121,-707.2549 1067,-707.2549 1067,-671.2549 1121,-671.2549 1121,-707.2549"/>
<text text-anchor="middle" x="1094" y="-685.0549" font-family="Times,serif" font-size="14.00" fill="#000000">VDFs</text>
</g>
<!-- VRFs&#45;&gt;VDFs -->
<!-- VDFs&#45;&gt;Cron Actor -->
<!-- Wallet -->
<g id="node39" class="node">
<title>Wallet</title>
<polygon fill="none" stroke="#000000" points="1523,-783.5232 1469,-783.5232 1469,-747.5232 1523,-747.5232 1523,-783.5232"/>
<text text-anchor="middle" x="1496" y="-761.3232" font-family="Times,serif" font-size="14.00" fill="#000000">Wallet</text>
</g>
<!-- Wallet&#45;&gt;KeyStore -->
<g id="edge42" class="edge">
<title>Wallet&#45;&gt;KeyStore</title>
<path fill="none" stroke="#000000" d="M1483.1801,-747.2448C1476.3843,-737.6523 1467.8408,-725.7441 1460,-715.2549 1409.6632,-647.9152 1348.2231,-570.2966 1316.7567,-530.8613"/>
<polygon fill="#000000" stroke="#000000" points="1319.4877,-528.6722 1310.5119,-523.0432 1314.0183,-533.041 1319.4877,-528.6722"/>
</g>
<!-- Payment Channel Actor -->
<g id="node40" class="node">
<title>Payment Channel Actor</title>
<polygon fill="none" stroke="#000000" points="1446.9701,-749.7583 1446.9701,-781.2881 1417.6983,-803.5829 1376.3017,-803.5829 1347.0299,-781.2881 1347.0299,-749.7583 1376.3017,-727.4634 1417.6983,-727.4634 1446.9701,-749.7583"/>
<polygon fill="none" stroke="#000000" points="1450.9883,-747.7996 1450.9883,-783.2468 1419.0651,-807.5611 1374.9349,-807.5611 1343.0117,-783.2468 1343.0117,-747.7996 1374.9349,-723.4852 1419.0651,-723.4852 1450.9883,-747.7996"/>
<text text-anchor="middle" x="1397" y="-775.3232" font-family="Times,serif" font-size="14.00" fill="#000000">Payment</text>
<text text-anchor="middle" x="1397" y="-761.3232" font-family="Times,serif" font-size="14.00" fill="#000000">Channel</text>
<text text-anchor="middle" x="1397" y="-747.3232" font-family="Times,serif" font-size="14.00" fill="#000000">Actor</text>
</g>
<!-- Wall Clock -->
<g id="node41" class="node">
<title>Wall Clock</title>
<polygon fill="none" stroke="#000000" points="362.5342,-419.3984 283.4658,-419.3984 283.4658,-383.3984 362.5342,-383.3984 362.5342,-419.3984"/>
<text text-anchor="middle" x="323" y="-397.1984" font-family="Times,serif" font-size="14.00" fill="#000000">Wall Clock</text>
</g>
<!-- NTP -->
<g id="node42" class="node">
<title>NTP</title>
<polygon fill="none" stroke="#000000" points="356,-322.6484 302,-322.6484 302,-286.6484 356,-286.6484 356,-322.6484"/>
<text text-anchor="middle" x="329" y="-300.4484" font-family="Times,serif" font-size="14.00" fill="#000000">NTP</text>
</g>
<!-- Wall Clock&#45;&gt;NTP -->
<g id="edge15" class="edge">
<title>Wall Clock&#45;&gt;NTP</title>
<path fill="none" stroke="#000000" d="M324.1286,-383.2005C325.0085,-369.0113 326.2461,-349.0547 327.2537,-332.8078"/>
<polygon fill="#000000" stroke="#000000" points="330.7507,-332.9623 327.8765,-322.7648 323.7642,-332.5289 330.7507,-332.9623"/>
</g>
<!-- Switch -->
<g id="node47" class="node">
<title>Switch</title>
<polygon fill="none" stroke="#000000" points="531.3898,-104 476.6102,-104 476.6102,-68 531.3898,-68 531.3898,-104"/>
<text text-anchor="middle" x="504" y="-81.8" font-family="Times,serif" font-size="14.00" fill="#000000">Switch</text>
</g>
<!-- NTP&#45;&gt;Switch -->
<g id="edge39" class="edge">
<title>NTP&#45;&gt;Switch</title>
<path fill="none" stroke="#000000" d="M370.9992,-279.9328C372.3325,-279.464 373.6678,-279.0336 375,-278.6484 392.6327,-273.5504 527.3393,-283.9378 540,-270.6484 569.1516,-240.0492 559.635,-193.2068 543.0931,-154.36"/>
<polygon fill="#000000" stroke="#000000" points="546.2688,-152.8876 538.9955,-145.1837 539.8771,-155.7418 546.2688,-152.8876"/>
</g>
<!-- Filecoin Network Node&#45;&gt;Gossipsub -->
<!-- p2p.Node -->
<g id="node46" class="node">
<title>p2p.Node</title>
<polygon fill="none" stroke="#000000" points="400.3244,-148 329.6756,-148 329.6756,-112 400.3244,-112 400.3244,-148"/>
<text text-anchor="middle" x="365" y="-125.8" font-family="Times,serif" font-size="14.00" fill="#000000">p2p.Node</text>
</g>
<!-- Graphsync&#45;&gt;p2p.Node -->
<g id="edge18" class="edge">
<title>Graphsync&#45;&gt;p2p.Node</title>
<path fill="none" stroke="#000000" d="M266.9484,-164.0663C270.8492,-161.1028 274.8933,-158.3537 279,-156 291.5233,-148.8226 306.2302,-143.4368 319.9056,-139.4853"/>
<polygon fill="#000000" stroke="#000000" points="320.8944,-142.8437 329.6352,-136.8562 319.0684,-136.086 320.8944,-142.8437"/>
</g>
<!-- Bitswap -->
<g id="node45" class="node">
<title>Bitswap</title>
<polygon fill="none" stroke="#000000" points="172.8897,-233.214 111.1103,-233.214 111.1103,-171.4345 172.8897,-171.4345 172.8897,-233.214"/>
<polyline fill="none" stroke="#000000" points="123.1103,-233.214 111.1103,-221.214 "/>
<polyline fill="none" stroke="#000000" points="111.1103,-183.4345 123.1103,-171.4345 "/>
<polyline fill="none" stroke="#000000" points="160.8897,-171.4345 172.8897,-183.4345 "/>
<polyline fill="none" stroke="#000000" points="172.8897,-221.214 160.8897,-233.214 "/>
<text text-anchor="middle" x="142" y="-198.1242" font-family="Times,serif" font-size="14.00" fill="#000000">Bitswap</text>
</g>
<!-- Bitswap&#45;&gt;p2p.Node -->
<g id="edge19" class="edge">
<title>Bitswap&#45;&gt;p2p.Node</title>
<path fill="none" stroke="#000000" d="M163.4413,-171.0887C168.8452,-165.2291 175.0989,-159.7686 182,-156 204.9763,-143.453 273.001,-136.3381 319.3183,-132.8278"/>
<polygon fill="#000000" stroke="#000000" points="319.7062,-136.3089 329.4259,-132.0924 319.1982,-129.3274 319.7062,-136.3089"/>
</g>
<!-- p2p.Node&#45;&gt;Switch -->
<g id="edge21" class="edge">
<title>p2p.Node&#45;&gt;Switch</title>
<path fill="none" stroke="#000000" d="M400.4352,-118.7831C420.7574,-112.3502 446.2421,-104.2831 466.8455,-97.7611"/>
<polygon fill="#000000" stroke="#000000" points="468.0463,-101.0523 476.5238,-94.6975 465.9338,-94.3786 468.0463,-101.0523"/>
</g>
<!-- Switch&#45;&gt;KeyStore -->
<g id="edge38" class="edge">
<title>Switch&#45;&gt;KeyStore</title>
<path fill="none" stroke="#000000" d="M531.6183,-87.0955C671.2657,-92.9921 1293,-123.6617 1293,-202.3242 1293,-304.6484 1293,-304.6484 1293,-304.6484 1293,-366.0031 1294.4246,-437.9172 1295.3104,-476.701"/>
<polygon fill="#000000" stroke="#000000" points="1291.8119,-476.8096 1295.5444,-486.7252 1298.81,-476.6463 1291.8119,-476.8096"/>
</g>
<!-- Conn -->
<g id="node48" class="node">
<title>Conn</title>
<polygon fill="none" stroke="#000000" points="531,-60 477,-60 477,-24 531,-24 531,-60"/>
<text text-anchor="middle" x="504" y="-37.8" font-family="Times,serif" font-size="14.00" fill="#000000">Conn</text>
</g>
<!-- Switch&#45;&gt;Conn -->
<g id="edge22" class="edge">
<title>Switch&#45;&gt;Conn</title>
<path fill="none" stroke="#000000" d="M504,-67.8495C504,-67.6897 504,-67.5296 504,-67.3693"/>
<polygon fill="#000000" stroke="#000000" points="507.5001,-70.1088 504,-60.1088 500.5001,-70.1089 507.5001,-70.1088"/>
</g>
<!-- Identify -->
<g id="node49" class="node">
<title>Identify</title>
<polygon fill="none" stroke="#000000" points="351.3182,-232.6424 290.6818,-232.6424 290.6818,-172.006 351.3182,-172.006 351.3182,-232.6424"/>
<polyline fill="none" stroke="#000000" points="302.6818,-232.6424 290.6818,-220.6424 "/>
<polyline fill="none" stroke="#000000" points="290.6818,-184.006 302.6818,-172.006 "/>
<polyline fill="none" stroke="#000000" points="339.3182,-172.006 351.3182,-184.006 "/>
<polyline fill="none" stroke="#000000" points="351.3182,-220.6424 339.3182,-232.6424 "/>
<text text-anchor="middle" x="321" y="-198.1242" font-family="Times,serif" font-size="14.00" fill="#000000">Identify</text>
</g>
<!-- Identify&#45;&gt;p2p.Node -->
<g id="edge16" class="edge">
<title>Identify&#45;&gt;p2p.Node</title>
<path fill="none" stroke="#000000" d="M339.405,-172.0713C342.3899,-167.165 345.4655,-162.1096 348.4039,-157.2795"/>
<polygon fill="#000000" stroke="#000000" points="351.6185,-158.7297 353.8258,-148.3673 345.6382,-155.0915 351.6185,-158.7297"/>
</g>
<!-- Gossipsub&#45;&gt;p2p.Node -->
<g id="edge17" class="edge">
<title>Gossipsub&#45;&gt;p2p.Node</title>
<path fill="none" stroke="#000000" d="M460.3765,-164.9648C456.4166,-161.6592 452.2613,-158.5906 448,-156 436.5971,-149.0677 423.1757,-143.8231 410.4884,-139.9272"/>
<polygon fill="#000000" stroke="#000000" points="411.0999,-136.4621 400.5234,-137.0854 409.1801,-143.1937 411.0999,-136.4621"/>
</g>
<!-- Bootstrap List -->
<g id="node51" class="node">
<title>Bootstrap List</title>
<polygon fill="none" stroke="#000000" points="439.4428,-237.767 368.5572,-237.767 368.5572,-166.8814 439.4428,-166.8814 439.4428,-237.767"/>
<polyline fill="none" stroke="#000000" points="380.5572,-237.767 368.5572,-225.767 "/>
<polyline fill="none" stroke="#000000" points="368.5572,-178.8814 380.5572,-166.8814 "/>
<polyline fill="none" stroke="#000000" points="427.4428,-166.8814 439.4428,-178.8814 "/>
<polyline fill="none" stroke="#000000" points="439.4428,-225.767 427.4428,-237.767 "/>
<text text-anchor="middle" x="404" y="-205.1242" font-family="Times,serif" font-size="14.00" fill="#000000">Bootstrap</text>
<text text-anchor="middle" x="404" y="-191.1242" font-family="Times,serif" font-size="14.00" fill="#000000">List</text>
</g>
<!-- Bootstrap List&#45;&gt;p2p.Node -->
<g id="edge20" class="edge">
<title>Bootstrap List&#45;&gt;p2p.Node</title>
<path fill="none" stroke="#000000" d="M384.957,-167.0096C383.2168,-163.7824 381.4717,-160.5462 379.7772,-157.4039"/>
<polygon fill="#000000" stroke="#000000" points="382.7282,-155.5021 374.9012,-148.3615 376.5669,-158.8246 382.7282,-155.5021"/>
</g>
</g>
</svg>
