<svg version="1" xmlns="http://www.w3.org/2000/svg" width="933.333" height="933.333" viewBox="0 0 700.000000 700.000000"><path d="M326 .6c-2.5.2-9 .9-14.5 1.4C163.7 17.7 41.5 127.4 8.6 274.2-3.3 327.4-2.5 383.1 11 435.7c28.5 110.7 109.4 201.2 216.1 241.6 87.3 33.1 186 29.6 269.4-9.7 19.3-9.1 29.3-14.7 46.5-26.1 82.9-55 138.1-141.3 153-239.2 13.1-86.8-8.3-178.5-58.8-251.1C588.4 80.9 516.8 31.4 434 10.6c-14-3.5-31.9-6.8-47.5-8.6C377.3.9 334.1-.1 326 .6zm170 113c9.6 3.2 18.4 9.3 23.8 16.4 3.4 4.4 3.4 4.6 3 12.6-.6 12.3-4.8 17.7-13.8 17.7-6.5 0-10.7-3.1-22.4-16.1-12.8-14.3-17.2-17.2-26.1-17.2-9.1 0-15.9 4.4-25.6 16.6-12.4 15.6-15.7 24-31.4 80.3-5.2 18.7-11.1 39.3-13 45.7-2 6.4-3.5 11.8-3.3 11.9.2.2 21 3.3 46.3 7 25.3 3.6 46.8 6.8 47.8 7.1 1.2.4 1.6 1.2 1.2 2.5-.4 1.1-1.9 6.7-3.5 12.5-1.5 5.8-3 10.7-3.2 10.9-.2.2-21-2.7-46.3-6.5-25.2-3.8-46-6.8-46.1-6.7-.6.5-10.5 55-10.1 55.4.3.2 22.4 3.5 49.1 7.2 26.8 3.8 49 7.1 49.3 7.5.9.9-6 25.6-7.2 25.6-.5-.1-22.4-3.1-48.5-6.9-26.1-3.8-47.8-6.5-48.3-6.2-.4.4-3.8 12.8-7.6 27.7-5.4 20.9-9.3 33.4-17.6 55.9-21.7 58.7-28.7 72.1-46.4 88.7-13.5 12.6-29.9 20.3-50.2 23.4-22.5 3.4-42.1-1.1-55.5-12.9-8.4-7.4-10.4-15.9-5.8-24.9 4.3-8.5 7.8-10 18.3-7.7 5.7 1.2 9.4 4.7 16.5 15.7 7.8 12.1 14.2 16.6 23.6 16.6 8.4 0 14.7-3.3 22.9-11.9 12.3-13 19.1-27.2 26.5-55 11.9-44.9 27.6-112.6 27.6-119 0-3.8-.3-4.3-2.7-4.8-1.6-.3-21.9-3.3-45.3-6.8-23.4-3.4-42.9-6.6-43.4-7-.8-.7.3-13.2 2-22.6.6-3.1.8-3.3 4.3-2.7 44.2 6.6 91.7 13.1 92.2 12.6 1.1-1.3 12.1-52.3 11.4-53-.3-.4-22.5-4.1-49.2-8.4-26.6-4.2-48.7-7.9-49-8.1-.4-.5 2.6-26.8 3.1-27.4.2-.2 23.4 2.8 51.6 6.7 28.3 3.8 51.4 6.9 51.5 6.7.1-.1 2.8-8.8 5.9-19.2 11.2-37.1 12.8-42.1 16.8-53 14-37.9 37.9-68.6 63.4-81.3 13.8-6.9 25.2-9.3 42.9-8.8 9.9.3 13.5.9 20.5 3.2z"/></svg>