<?xml version="1.0" encoding="UTF-8" standalone="no"?>
<!DOCTYPE svg PUBLIC "-//W3C//DTD SVG 1.1//EN"
 "http://www.w3.org/Graphics/SVG/1.1/DTD/svg11.dtd">
<!-- Generated by graphviz version 2.40.1 (20161225.0304)
 -->
<!-- Title: G Pages: 1 -->
<svg width="287pt" height="98pt"
 viewBox="0.00 0.00 287.41 98.00" xmlns="http://www.w3.org/2000/svg" xmlns:xlink="http://www.w3.org/1999/xlink">
<g id="graph0" class="graph" transform="scale(1 1) rotate(0) translate(4 94)">
<title>G</title>
<polygon fill="#ffffff" stroke="transparent" points="-4,4 -4,-94 283.4141,-94 283.4141,4 -4,4"/>
<!-- B1 -->
<g id="node1" class="node">
<title>B1</title>
<polygon fill="#00cd00" stroke="#00cd00" points="74.487,-63 -.1628,-63 -.1628,-27 74.487,-27 74.487,-63"/>
<text text-anchor="middle" x="37.1621" y="-47.8" font-family="Times,serif" font-size="14.00" fill="#000000">B1</text>
<text text-anchor="middle" x="37.1621" y="-33.8" font-family="Times,serif" font-size="14.00" fill="#000000">MinerAny</text>
</g>
<!-- B2 -->
<g id="node2" class="node">
<title>B2</title>
<polygon fill="#00cd00" stroke="#00cd00" points="184.8113,-90 110.1614,-90 110.1614,-54 184.8113,-54 184.8113,-90"/>
<text text-anchor="middle" x="147.4863" y="-74.8" font-family="Times,serif" font-size="14.00" fill="#000000">B2</text>
<text text-anchor="middle" x="147.4863" y="-60.8" font-family="Times,serif" font-size="14.00" fill="#000000">MinerAny</text>
</g>
<!-- B2&#45;&gt;B1 -->
<g id="edge2" class="edge">
<title>B2&#45;&gt;B1</title>
<path fill="none" stroke="#000000" d="M110.1356,-62.859C101.8684,-60.8358 93.0034,-58.6662 84.4008,-56.5609"/>
<polygon fill="#000000" stroke="#000000" points="85.0198,-53.1091 74.4744,-54.1316 83.3557,-59.9085 85.0198,-53.1091"/>
</g>
<!-- B3 -->
<g id="node3" class="node">
<title>B3</title>
<polygon fill="#00cd00" stroke="#00cd00" points="184.8113,-36 110.1614,-36 110.1614,0 184.8113,0 184.8113,-36"/>
<text text-anchor="middle" x="147.4863" y="-20.8" font-family="Times,serif" font-size="14.00" fill="#000000">B3</text>
<text text-anchor="middle" x="147.4863" y="-6.8" font-family="Times,serif" font-size="14.00" fill="#000000">MinerAny</text>
</g>
<!-- B3&#45;&gt;B1 -->
<g id="edge4" class="edge">
<title>B3&#45;&gt;B1</title>
<path fill="none" stroke="#000000" d="M110.1356,-27.141C101.8684,-29.1642 93.0034,-31.3338 84.4008,-33.4391"/>
<polygon fill="#000000" stroke="#000000" points="83.3557,-30.0915 74.4744,-35.8684 85.0198,-36.8909 83.3557,-30.0915"/>
</g>
<!-- B4 -->
<g id="node4" class="node">
<title>B4</title>
<polygon fill="#ffc0cb" stroke="#ffc0cb" points="279.2973,-90 220.7652,-90 220.7652,-54 279.2973,-54 279.2973,-90"/>
<text text-anchor="middle" x="250.0313" y="-74.8" font-family="Times,serif" font-size="14.00" fill="#000000">B4</text>
<text text-anchor="middle" x="250.0313" y="-60.8" font-family="Times,serif" font-size="14.00" fill="#000000">MinerE</text>
</g>
<!-- B4&#45;&gt;B2 -->
<g id="edge1" class="edge">
<title>B4&#45;&gt;B2</title>
<path fill="none" stroke="#000000" d="M220.646,-72C212.6489,-72 203.7772,-72 195.0496,-72"/>
<polygon fill="#000000" stroke="#000000" points="194.9314,-68.5001 184.9313,-72 194.9313,-75.5001 194.9314,-68.5001"/>
</g>
<!-- B5 -->
<g id="node5" class="node">
<title>B5</title>
<polygon fill="#ffc0cb" stroke="#ffc0cb" points="279.2973,-36 220.7652,-36 220.7652,0 279.2973,0 279.2973,-36"/>
<text text-anchor="middle" x="250.0313" y="-20.8" font-family="Times,serif" font-size="14.00" fill="#000000">B5</text>
<text text-anchor="middle" x="250.0313" y="-6.8" font-family="Times,serif" font-size="14.00" fill="#000000">MinerE</text>
</g>
<!-- B5&#45;&gt;B3 -->
<g id="edge3" class="edge">
<title>B5&#45;&gt;B3</title>
<path fill="none" stroke="#000000" d="M220.646,-18C212.6489,-18 203.7772,-18 195.0496,-18"/>
<polygon fill="#000000" stroke="#000000" points="194.9314,-14.5001 184.9313,-18 194.9313,-21.5001 194.9314,-14.5001"/>
</g>
</g>
</svg>
