<?xml version="1.0" encoding="UTF-8" standalone="no"?>
<!DOCTYPE svg PUBLIC "-//W3C//DTD SVG 1.1//EN"
 "http://www.w3.org/Graphics/SVG/1.1/DTD/svg11.dtd">
<!-- Generated by graphviz version 2.40.1 (20161225.0304)
 -->
<!-- Title: G Pages: 1 -->
<svg width="382pt" height="67pt"
 viewBox="0.00 0.00 382.18 67.00" xmlns="http://www.w3.org/2000/svg" xmlns:xlink="http://www.w3.org/1999/xlink">
<g id="graph0" class="graph" transform="scale(1 1) rotate(0) translate(4 63)">
<title>G</title>
<polygon fill="#ffffff" stroke="transparent" points="-4,4 -4,-63 378.1797,-63 378.1797,4 -4,4"/>
<!-- B1 -->
<g id="node1" class="node">
<title>B1</title>
<polygon fill="#00cd00" stroke="#00cd00" points="74.487,-59 -.1628,-59 -.1628,-23 74.487,-23 74.487,-59"/>
<text text-anchor="middle" x="37.1621" y="-43.8" font-family="Times,serif" font-size="14.00" fill="#000000">B1</text>
<text text-anchor="middle" x="37.1621" y="-29.8" font-family="Times,serif" font-size="14.00" fill="#000000">MinerAny</text>
</g>
<!-- B2 -->
<g id="node2" class="node">
<title>B2</title>
<polygon fill="#00cd00" stroke="#00cd00" points="184.8113,-59 110.1614,-59 110.1614,-23 184.8113,-23 184.8113,-59"/>
<text text-anchor="middle" x="147.4863" y="-43.8" font-family="Times,serif" font-size="14.00" fill="#000000">B2</text>
<text text-anchor="middle" x="147.4863" y="-29.8" font-family="Times,serif" font-size="14.00" fill="#000000">MinerAny</text>
</g>
<!-- B2&#45;&gt;B1 -->
<g id="edge1" class="edge">
<title>B2&#45;&gt;B1</title>
<path fill="none" stroke="#000000" d="M110.1356,-41C101.9583,-41 93.196,-41 84.6815,-41"/>
<polygon fill="#000000" stroke="#000000" points="84.4744,-37.5001 74.4744,-41 84.4744,-44.5001 84.4744,-37.5001"/>
</g>
<!-- B3 -->
<g id="node3" class="node">
<title>B3</title>
<polygon fill="#ffc0cb" stroke="#ffc0cb" points="279.2973,-36 220.7652,-36 220.7652,0 279.2973,0 279.2973,-36"/>
<text text-anchor="middle" x="250.0313" y="-20.8" font-family="Times,serif" font-size="14.00" fill="#000000">B3</text>
<text text-anchor="middle" x="250.0313" y="-6.8" font-family="Times,serif" font-size="14.00" fill="#000000">MinerE</text>
</g>
<!-- B3&#45;&gt;B2 -->
<g id="edge2" class="edge">
<title>B3&#45;&gt;B2</title>
<path fill="none" stroke="#000000" d="M220.646,-24.5909C212.5619,-26.4041 203.5842,-28.4177 194.765,-30.3958"/>
<polygon fill="#000000" stroke="#000000" points="193.9229,-26.9976 184.9313,-32.6014 195.4549,-33.8279 193.9229,-26.9976"/>
</g>
<!-- B4 -->
<g id="node4" class="node">
<title>B4</title>
<polygon fill="#ffc0cb" stroke="#ffc0cb" points="374.063,-59 315.5308,-59 315.5308,-23 374.063,-23 374.063,-59"/>
<text text-anchor="middle" x="344.7969" y="-43.8" font-family="Times,serif" font-size="14.00" fill="#000000">B4</text>
<text text-anchor="middle" x="344.7969" y="-29.8" font-family="Times,serif" font-size="14.00" fill="#000000">MinerE</text>
</g>
<!-- B4&#45;&gt;B2 -->
<g id="edge3" class="edge">
<title>B4&#45;&gt;B2</title>
<path fill="none" stroke="#000000" d="M315.5217,-43.1738C304.2431,-43.9108 291.2358,-44.6387 279.4141,-45 253.3082,-45.7978 246.7568,-45.7132 220.6484,-45 212.3314,-44.7728 203.4885,-44.4006 194.9313,-43.9723"/>
<polygon fill="#000000" stroke="#000000" points="194.8613,-40.4637 184.6896,-43.4281 194.4898,-47.4539 194.8613,-40.4637"/>
</g>
<!-- B4&#45;&gt;B3 -->
</g>
</svg>
