<?xml version="1.0" encoding="UTF-8" standalone="no"?>
<!DOCTYPE svg PUBLIC "-//W3C//DTD SVG 1.1//EN"
 "http://www.w3.org/Graphics/SVG/1.1/DTD/svg11.dtd">
<!-- Generated by graphviz version 2.40.1 (20161225.0304)
 -->
<!-- Title: miner_post Pages: 1 -->
<svg width="183pt" height="342pt"
 viewBox="0.00 0.00 183.00 342.00" xmlns="http://www.w3.org/2000/svg" xmlns:xlink="http://www.w3.org/1999/xlink">
<g id="graph0" class="graph" transform="scale(1 1) rotate(0) translate(4 338)">
<title>miner_post</title>
<polygon fill="#ffffff" stroke="transparent" points="-4,4 -4,-338 179,-338 179,4 -4,4"/>
<g id="clust1" class="cluster">
<title>cluster_0</title>
<polygon fill="#e5e5e5" stroke="#e5e5e5" points="8,-8 8,-132 167,-132 167,-8 8,-8"/>
<text text-anchor="middle" x="87.5" y="-116.8" font-family="Times,serif" font-size="14.00" fill="#000000">Lose power on all sectors</text>
</g>
<!-- OK -->
<g id="node1" class="node">
<title>OK</title>
<ellipse fill="none" stroke="#000000" cx="87" cy="-287" rx="43" ry="43"/>
<ellipse fill="none" stroke="#000000" cx="87" cy="-287" rx="47" ry="47"/>
<text text-anchor="middle" x="87" y="-282.8" font-family="Times,serif" font-size="14.00" fill="#000000">OK</text>
</g>
<!-- Challenged -->
<g id="node2" class="node">
<title>Challenged</title>
<ellipse fill="none" stroke="#000000" cx="87" cy="-183" rx="43" ry="43"/>
<text text-anchor="middle" x="87" y="-178.8" font-family="Times,serif" font-size="14.00" fill="#000000">Challenged</text>
</g>
<!-- OK&#45;&gt;Challenged -->
<g id="edge4" class="edge">
<title>OK&#45;&gt;Challenged</title>
<path fill="none" stroke="#000000" stroke-width="2" d="M72.6667,-241.989C72.6667,-241.989 72.6667,-233.8225 72.6667,-233.8225"/>
<polygon fill="#000000" stroke="#000000" stroke-width="2" points="76.1668,-233.8225 72.6667,-223.8225 69.1668,-233.8226 76.1668,-233.8225"/>
</g>
<!-- Challenged&#45;&gt;OK -->
<g id="edge5" class="edge">
<title>Challenged&#45;&gt;OK</title>
<path fill="none" stroke="#0000ff" stroke-width="2" d="M101.3333,-223.8051C101.3333,-223.8051 101.3333,-232.1884 101.3333,-232.1884"/>
<polygon fill="#0000ff" stroke="#0000ff" stroke-width="2" points="97.8334,-232.1884 101.3333,-242.1884 104.8334,-232.1885 97.8334,-232.1884"/>
</g>
<!-- DetectedFault -->
<g id="node3" class="node">
<title>DetectedFault</title>
<ellipse fill="none" stroke="#000000" cx="87" cy="-59" rx="43" ry="43"/>
<text text-anchor="middle" x="87" y="-54.8" font-family="Times,serif" font-size="14.00" fill="#000000">DetectedFault</text>
</g>
<!-- Challenged&#45;&gt;DetectedFault -->
<g id="edge1" class="edge">
<title>Challenged&#45;&gt;DetectedFault</title>
<path fill="none" stroke="#ff0000" stroke-width="2" d="M72.6667,-142.3978C72.6667,-142.3978 72.6667,-109.6935 72.6667,-109.6935"/>
<polygon fill="#ff0000" stroke="#ff0000" stroke-width="2" points="76.1668,-109.6934 72.6667,-99.6935 69.1668,-109.6935 76.1668,-109.6934"/>
</g>
<!-- Challenged&#45;&gt;DetectedFault -->
<!-- DetectedFault&#45;&gt;OK -->
<g id="edge3" class="edge">
<title>DetectedFault&#45;&gt;OK</title>
<path fill="none" stroke="#00ff00" stroke-width="2" d="M43.6441,-59C31.7208,-59 22,-59 22,-59 22,-59 22,-287 22,-287 22,-287 29.7615,-287 29.7615,-287"/>
<polygon fill="#00ff00" stroke="#00ff00" stroke-width="2" points="29.7616,-290.5001 39.7615,-287 29.7615,-283.5001 29.7616,-290.5001"/>
</g>
</g>
</svg>
