<?xml version="1.0" encoding="UTF-8" standalone="no"?><!DOCTYPE svg PUBLIC "-//W3C//DTD SVG 1.1//EN" "http://www.w3.org/Graphics/SVG/1.1/DTD/svg11.dtd"><!-- Generated by graphviz version 2.40.1 (20161225.0304)
 --><!-- Title: %0 Pages: 1 --><svg xmlns="http://www.w3.org/2000/svg" xmlns:xlink="http://www.w3.org/1999/xlink" width="475pt" height="153pt" viewBox="0.00 0.00 475.00 153.00">
<g id="graph0" class="graph" transform="scale(1 1) rotate(0) translate(4 149)">
<title>%0</title>
<polygon fill="#ffffff" stroke="transparent" points="-4,4 -4,-149 471,-149 471,4 -4,4"/>
<g id="clust1" class="cluster">
<title>cluster_01</title>
<polygon fill="none" stroke="#000000" points="8,-8 8,-137 459,-137 459,-8 8,-8"/>
<text text-anchor="middle" x="233.5" y="-120.4" font-family="Times,serif" font-size="14.00" fill="#000000">Legend</text>
</g>
<!-- key -->
<g id="node1" class="node">
<title>key</title>
<text text-anchor="start" x="101.4964" y="-85.4" font-family="Times,serif" font-size="14.00" fill="#000000">OnSurprisePoStChallenge: OK - Challenged</text>
<text text-anchor="start" x="79.732" y="-65.4" font-family="Times,serif" font-size="14.00" fill="#000000">OnMinerSurprisePoStSuccess: Challenged - OK</text>
<text text-anchor="start" x="64.969" y="-45.4" font-family="Times,serif" font-size="14.00" fill="#000000">OnMinerSurprisePoStSuccess: DetectedFault - OK</text>
<text text-anchor="start" x="26.2913" y="-25.4" font-family="Times,serif" font-size="14.00" fill="#000000">OnMinerSurprisePoStFailure: Challenged - DetectedFault</text>
</g>
<!-- key2 -->
<g id="node2" class="node">
<title>key2</title>
<text text-anchor="start" x="419.9197" y="-85.4" font-family="Times,serif" font-size="14.00" fill="#000000"> </text>
<text text-anchor="start" x="419.9197" y="-65.4" font-family="Times,serif" font-size="14.00" fill="#000000"> </text>
<text text-anchor="start" x="419.9197" y="-45.4" font-family="Times,serif" font-size="14.00" fill="#000000"> </text>
<text text-anchor="start" x="419.9197" y="-25.4" font-family="Times,serif" font-size="14.00" fill="#000000"> </text>
</g>
<!-- key&#45;&gt;key2 -->
<g id="edge1" class="edge">
<title>key:e-&gt;key2:w</title>
<path fill="none" stroke="#000000" d="M353.5,-90C378.4714,-90 387.1284,-90 407.8937,-90"/>
<polygon fill="#000000" stroke="#000000" points="408,-93.5001 418,-90 408,-86.5001 408,-93.5001"/>
</g>
<!-- key&#45;&gt;key2 -->
<g id="edge2" class="edge">
<title>key:e-&gt;key2:w</title>
<path fill="none" stroke="#0000ff" d="M353.5,-70C378.4714,-70 387.1284,-70 407.8937,-70"/>
<polygon fill="#0000ff" stroke="#0000ff" points="408,-73.5001 418,-70 408,-66.5001 408,-73.5001"/>
</g>
<!-- key&#45;&gt;key2 -->
<g id="edge3" class="edge">
<title>key:e-&gt;key2:w</title>
<path fill="none" stroke="#00ff00" d="M353.5,-50C378.4714,-50 387.1284,-50 407.8937,-50"/>
<polygon fill="#00ff00" stroke="#00ff00" points="408,-53.5001 418,-50 408,-46.5001 408,-53.5001"/>
</g>
<!-- key&#45;&gt;key2 -->
<g id="edge4" class="edge">
<title>key:e-&gt;key2:w</title>
<path fill="none" stroke="#ff0000" d="M353.5,-30C378.4714,-30 387.1284,-30 407.8937,-30"/>
<polygon fill="#ff0000" stroke="#ff0000" points="408,-33.5001 418,-30 408,-26.5001 408,-33.5001"/>
</g>
</g>
</svg>