<?xml version="1.0" encoding="UTF-8" standalone="no"?>
<!DOCTYPE svg PUBLIC "-//W3C//DTD SVG 1.1//EN"
 "http://www.w3.org/Graphics/SVG/1.1/DTD/svg11.dtd">
<!-- Generated by graphviz version 2.40.1 (20161225.0304)
 -->
<!-- Title: mining_cycle Pages: 1 -->
<svg width="482pt" height="514pt"
 viewBox="0.00 0.00 482.15 514.00" xmlns="http://www.w3.org/2000/svg" xmlns:xlink="http://www.w3.org/1999/xlink">
<g id="graph0" class="graph" transform="scale(1 1) rotate(0) translate(4 510)">
<title>mining_cycle</title>
<polygon fill="#ffffff" stroke="transparent" points="-4,4 -4,-510 478.1538,-510 478.1538,4 -4,4"/>
<g id="clust1" class="cluster">
<title>cluster_local</title>
<polygon fill="none" stroke="#000000" points="60.9224,-8 60.9224,-268 258.9224,-268 258.9224,-8 60.9224,-8"/>
<text text-anchor="middle" x="159.9224" y="-252.8" font-family="Times,serif" font-size="14.00" fill="#000000">Storage Miner</text>
<text text-anchor="middle" x="159.9224" y="-238.8" font-family="Times,serif" font-size="14.00" fill="#000000">(off chain)</text>
</g>
<g id="clust2" class="cluster">
<title>cluster_local_mining</title>
<polygon fill="#add8e6" stroke="#add8e6" points="68.9224,-16 68.9224,-224 250.9224,-224 250.9224,-16 68.9224,-16"/>
<text text-anchor="middle" x="159.9224" y="-208.8" font-family="Times,serif" font-size="14.00" fill="#000000">Mining</text>
</g>
<g id="clust5" class="cluster">
<title>cluster_chain</title>
<polygon fill="none" stroke="#0000ff" points="183.9224,-312 183.9224,-498 339.9224,-498 339.9224,-312 183.9224,-312"/>
<text text-anchor="middle" x="261.9224" y="-482.8" font-family="Times,serif" font-size="14.00" fill="#000000">Storage Miner Actor</text>
<text text-anchor="middle" x="261.9224" y="-468.8" font-family="Times,serif" font-size="14.00" fill="#000000">(on chain)</text>
</g>
<!-- ActiveL -->
<g id="node1" class="node">
<title>ActiveL</title>
<ellipse fill="none" stroke="#000000" cx="115.9224" cy="-176" rx="39.1627" ry="18"/>
<text text-anchor="middle" x="115.9224" y="-171.8" font-family="Times,serif" font-size="14.00" fill="#000000">ActiveL</text>
</g>
<!-- ChallengedL -->
<g id="node2" class="node">
<title>ChallengedL</title>
<ellipse fill="none" stroke="#000000" cx="132.9224" cy="-42" rx="55.5682" ry="18"/>
<text text-anchor="middle" x="132.9224" y="-37.8" font-family="Times,serif" font-size="14.00" fill="#000000">ChallengedL</text>
</g>
<!-- ActiveL&#45;&gt;ChallengedL -->
<!-- ActiveL&#45;&gt;ChallengedL -->
<g id="edge2" class="edge">
<title>ActiveL&#45;&gt;ChallengedL</title>
<path fill="none" stroke="#ff0000" d="M115.217,-157.943C115.0515,-152.3526 114.9224,-146.1724 114.9224,-140.5 114.9224,-140.5 114.9224,-140.5 114.9224,-77.5 114.9224,-74.6819 115.3792,-71.8608 116.1472,-69.1092"/>
<polygon fill="#ff0000" stroke="#ff0000" points="119.499,-70.1586 120.0323,-59.5771 113.0167,-67.5165 119.499,-70.1586"/>
<text text-anchor="middle" x="178.6846" y="-111.8" font-family="Times,serif" font-size="14.00" fill="#ff0000">Chain issues challenge</text>
<text text-anchor="middle" x="178.6846" y="-97.8" font-family="Times,serif" font-size="14.00" fill="#ff0000">(implicit)</text>
</g>
<!-- ActiveC -->
<g id="node4" class="node">
<title>ActiveC</title>
<ellipse fill="none" stroke="#000000" cx="231.9224" cy="-338" rx="39.6558" ry="18"/>
<text text-anchor="middle" x="231.9224" y="-333.8" font-family="Times,serif" font-size="14.00" fill="#000000">ActiveC</text>
</g>
<!-- ActiveL&#45;&gt;ActiveC -->
<g id="edge6" class="edge">
<title>ActiveL&#45;&gt;ActiveC</title>
<path fill="none" stroke="#0000ff" d="M107.942,-193.714C97.0529,-220.8829 81.7206,-272.9487 108.0981,-304 115.2162,-312.3793 146.2644,-309.3006 156.9224,-312 168.4948,-314.931 180.823,-318.8554 192.0705,-322.7653"/>
<polygon fill="#0000ff" stroke="#0000ff" points="191.0356,-326.1121 201.6303,-326.1723 193.3856,-319.5183 191.0356,-326.1121"/>
<text text-anchor="middle" x="163.3345" y="-292.8" font-family="Times,serif" font-size="14.00" fill="#0000ff">Add Sectors</text>
<text text-anchor="middle" x="163.3345" y="-278.8" font-family="Times,serif" font-size="14.00" fill="#0000ff">(sm.CommitSector)</text>
</g>
<!-- ProducePost -->
<g id="node6" class="node">
<title>ProducePost</title>
<text text-anchor="middle" x="73.9224" y="-340.8" font-family="Times,serif" font-size="14.00" fill="#0000ff">Produce &amp; submit PoSt</text>
<text text-anchor="middle" x="73.9224" y="-326.8" font-family="Times,serif" font-size="14.00" fill="#0000ff">(sm.SubmitPost)</text>
</g>
<!-- ChallengedL&#45;&gt;ProducePost -->
<g id="edge7" class="edge">
<title>ChallengedL&#45;&gt;ProducePost</title>
<path fill="none" stroke="#0000ff" d="M88.4627,-52.9052C68.3138,-59.1877 48.9224,-67.7632 48.9224,-77.5 48.9224,-176 48.9224,-176 48.9224,-176 48.9224,-228.6472 61.9782,-289.8043 69.2201,-319.6778"/>
</g>
<!-- OwnerAccountC -->
<g id="node3" class="node">
<title>OwnerAccountC</title>
<ellipse fill="none" stroke="#000000" cx="261.9224" cy="-436" rx="70.0582" ry="18"/>
<text text-anchor="middle" x="261.9224" y="-431.8" font-family="Times,serif" font-size="14.00" fill="#000000">OwnerAccountC</text>
</g>
<!-- OwnerAccountC&#45;&gt;ActiveC -->
<!-- OwnerAccountC&#45;&gt;ActiveC -->
<g id="edge4" class="edge">
<title>OwnerAccountC&#45;&gt;ActiveC</title>
<path fill="none" stroke="#0000ff" d="M251.215,-417.927C248.4278,-412.6158 245.6586,-406.6991 243.6909,-401 239.8383,-389.8416 237.1577,-377.1116 235.3394,-366.0291"/>
<polygon fill="#0000ff" stroke="#0000ff" points="238.7829,-365.39 233.8501,-356.0135 231.859,-366.4196 238.7829,-365.39"/>
<text text-anchor="middle" x="294.0381" y="-389.8" font-family="Times,serif" font-size="14.00" fill="#0000ff">Create Miner</text>
<text text-anchor="middle" x="294.0381" y="-375.8" font-family="Times,serif" font-size="14.00" fill="#0000ff">(spa.CreateMiner)</text>
</g>
<!-- ActiveC&#45;&gt;ActiveL -->
<g id="edge10" class="edge">
<title>ActiveC&#45;&gt;ActiveL</title>
<path fill="none" stroke="#000000" d="M230.9382,-319.9296C229.5874,-307.012 226.4035,-289.5832 218.9224,-276 201.1459,-243.724 169.5489,-215.3754 146.0233,-197.1827"/>
<polygon fill="#000000" stroke="#000000" points="147.853,-194.1788 137.7618,-190.9512 143.6377,-199.7673 147.853,-194.1788"/>
<text text-anchor="middle" x="268.5449" y="-285.8" font-family="Times,serif" font-size="14.00" fill="#000000">Miner Created</text>
</g>
<!-- OwnerAccL -->
<g id="node5" class="node">
<title>OwnerAccL</title>
<text text-anchor="middle" x="392.9224" y="-431.8" font-family="Times,serif" font-size="14.00" fill="#0000ff">OwnerAccL</text>
</g>
<!-- OwnerAccL&#45;&gt;ActiveC -->
<g id="edge5" class="edge">
<title>OwnerAccL&#45;&gt;ActiveC</title>
<path fill="none" stroke="#0000ff" d="M383.5343,-417.7465C375.3828,-403.6124 362.3196,-384.5548 345.9224,-373 326.4182,-359.2558 301.3709,-350.7931 279.7242,-345.6421"/>
<polygon fill="#0000ff" stroke="#0000ff" points="280.2503,-342.1741 269.7309,-343.4362 278.7414,-349.0095 280.2503,-342.1741"/>
<text text-anchor="middle" x="423.0381" y="-389.8" font-family="Times,serif" font-size="14.00" fill="#0000ff">Create Miner</text>
<text text-anchor="middle" x="423.0381" y="-375.8" font-family="Times,serif" font-size="14.00" fill="#0000ff">(spa.CreateMiner)</text>
</g>
<!-- ProducePost&#45;&gt;ActiveL -->
<g id="edge8" class="edge">
<title>ProducePost&#45;&gt;ActiveL</title>
<path fill="none" stroke="#0000ff" d="M77.7841,-319.7654C80.4691,-307.3827 84.2181,-290.657 87.9224,-276 94.1293,-251.4403 101.9577,-223.7156 107.7578,-203.6987"/>
<polygon fill="#0000ff" stroke="#0000ff" points="111.149,-204.5713 110.5866,-193.9914 104.4286,-202.6128 111.149,-204.5713"/>
</g>
<!-- ProducePost&#45;&gt;ActiveC -->
<g id="edge9" class="edge">
<title>ProducePost&#45;&gt;ActiveC</title>
<path fill="none" stroke="#0000ff" d="M147.9849,-338C159.3967,-338 170.8084,-338 182.2202,-338"/>
<polygon fill="#0000ff" stroke="#0000ff" points="182.2488,-341.5001 192.2488,-338 182.2487,-334.5001 182.2488,-341.5001"/>
</g>
</g>
</svg>
