<?xml version="1.0" encoding="UTF-8" standalone="no"?>
<!DOCTYPE svg PUBLIC "-//W3C//DTD SVG 1.1//EN"
 "http://www.w3.org/Graphics/SVG/1.1/DTD/svg11.dtd">
<!-- Generated by graphviz version 2.40.1 (20161225.0304)
 -->
<!-- Title: sector Pages: 1 -->
<svg width="387pt" height="719pt"
 viewBox="0.00 0.00 387.00 719.00" xmlns="http://www.w3.org/2000/svg" xmlns:xlink="http://www.w3.org/1999/xlink">
<g id="graph0" class="graph" transform="scale(1 1) rotate(0) translate(4 715)">
<title>sector</title>
<polygon fill="#ffffff" stroke="transparent" points="-4,4 -4,-715 383,-715 383,4 -4,4"/>
<g id="clust1" class="cluster">
<title>cluster_chain</title>
<polygon fill="none" stroke="#c0c0c0" stroke-width="2" points="8,-8 8,-703 371,-703 371,-8 8,-8"/>
<text text-anchor="middle" x="189.5" y="-687.8" font-family="Times,serif" font-size="14.00" fill="#000000">Sector States in StorageMinerActor</text>
<text text-anchor="middle" x="189.5" y="-673.8" font-family="Times,serif" font-size="14.00" fill="#000000">(on chain)</text>
</g>
<g id="clust2" class="cluster">
<title>cluster_postproving</title>
<polygon fill="#e0eeee" stroke="#e0eeee" points="16,-361 16,-659 191,-659 191,-361 16,-361"/>
<text text-anchor="middle" x="103.5" y="-643.8" font-family="Times,serif" font-size="14.00" fill="#000000">must be proved in post</text>
</g>
<g id="clust3" class="cluster">
<title>cluster_nopowerC1</title>
<polygon fill="#d3d3d3" stroke="#d3d3d3" points="24,-555 24,-629 183,-629 183,-555 24,-555"/>
<text text-anchor="middle" x="103.5" y="-613.8" font-family="Times,serif" font-size="14.00" fill="#000000">Does not count for power</text>
</g>
<g id="clust4" class="cluster">
<title>cluster_powerC</title>
<polygon fill="#43cd80" stroke="#43cd80" points="55,-369 55,-443 168,-443 168,-369 55,-369"/>
<text text-anchor="middle" x="111.5" y="-427.8" font-family="Times,serif" font-size="14.00" fill="#000000">Counts for power</text>
</g>
<g id="clust5" class="cluster">
<title>cluster_nopowerC2</title>
<polygon fill="#d3d3d3" stroke="#d3d3d3" points="28,-16 28,-241 363,-241 363,-16 28,-16"/>
<text text-anchor="middle" x="195.5" y="-225.8" font-family="Times,serif" font-size="14.00" fill="#000000">Does not count for power</text>
</g>
<!-- CommittedC -->
<g id="node1" class="node">
<title>CommittedC</title>
<ellipse fill="none" stroke="#000000" cx="130" cy="-581" rx="45.4441" ry="18"/>
<text text-anchor="middle" x="130" y="-576.8" font-family="Times,serif" font-size="14.00" fill="#000000">Unproven</text>
</g>
<!-- ActiveC -->
<g id="node2" class="node">
<title>ActiveC</title>
<ellipse fill="none" stroke="#000000" cx="119" cy="-395" rx="33.8596" ry="18"/>
<text text-anchor="middle" x="119" y="-390.8" font-family="Times,serif" font-size="14.00" fill="#000000">Active</text>
</g>
<!-- CommittedC&#45;&gt;ActiveC -->
<g id="edge3" class="edge">
<title>CommittedC&#45;&gt;ActiveC</title>
<path fill="none" stroke="#0000ff" d="M135.8397,-562.8269C135.8397,-562.8269 135.8397,-420.8445 135.8397,-420.8445"/>
<polygon fill="#0000ff" stroke="#0000ff" points="139.3398,-420.8444 135.8397,-410.8445 132.3398,-420.8445 139.3398,-420.8444"/>
<text text-anchor="middle" x="102.1221" y="-508.8" font-family="Times,serif" font-size="14.00" fill="#0000ff">1st PoSt</text>
<text text-anchor="middle" x="102.1221" y="-494.8" font-family="Times,serif" font-size="14.00" fill="#0000ff">(sm.SubmitPost </text>
<text text-anchor="middle" x="102.1221" y="-480.8" font-family="Times,serif" font-size="14.00" fill="#0000ff">&#45;&gt;sm.ActivateSector)</text>
</g>
<!-- CommittedC&#45;&gt;ActiveC -->
<!-- CommittedC&#45;&gt;ActiveC -->
<!-- FaultsDeclared -->
<g id="node5" class="node">
<title>FaultsDeclared</title>
<polygon fill="none" stroke="#0000ff" points="309.4073,-319 186.5927,-319 186.5927,-283 309.4073,-283 309.4073,-319"/>
<text text-anchor="middle" x="248" y="-303.8" font-family="Times,serif" font-size="14.00" fill="#0000ff">Fault Declared</text>
<text text-anchor="middle" x="248" y="-289.8" font-family="Times,serif" font-size="14.00" fill="#0000ff">(sm.DeclareFaults)</text>
</g>
<!-- CommittedC&#45;&gt;FaultsDeclared -->
<g id="edge4" class="edge">
<title>CommittedC&#45;&gt;FaultsDeclared</title>
<path fill="none" stroke="#0000ff" d="M173.018,-587C216.9426,-587 278.7268,-587 278.7268,-587 278.7268,-587 278.7268,-382.4489 278.7268,-319.3257"/>
</g>
<!-- FaultSpotted -->
<g id="node6" class="node">
<title>FaultSpotted</title>
<polygon fill="none" stroke="#ff00ff" points="168.6753,-326 53.3247,-326 53.3247,-276 168.6753,-276 168.6753,-326"/>
<text text-anchor="middle" x="111" y="-310.8" font-family="Times,serif" font-size="14.00" fill="#ff00ff">Fault Spotted</text>
<text text-anchor="middle" x="111" y="-296.8" font-family="Times,serif" font-size="14.00" fill="#ff00ff">(sma.CronTick </text>
<text text-anchor="middle" x="111" y="-282.8" font-family="Times,serif" font-size="14.00" fill="#ff00ff">&#45;&gt; sm.PostFailed)</text>
</g>
<!-- CommittedC&#45;&gt;FaultSpotted -->
<g id="edge9" class="edge">
<title>CommittedC&#45;&gt;FaultSpotted</title>
<path fill="none" stroke="#ff00ff" d="M160.7584,-567.495C160.7584,-523.4712 160.7584,-383.6459 160.7584,-326.1061"/>
</g>
<!-- ExpiredC -->
<g id="node4" class="node">
<title>ExpiredC</title>
<ellipse fill="none" stroke="#000000" cx="196" cy="-42" rx="37.7092" ry="18"/>
<text text-anchor="middle" x="196" y="-37.8" font-family="Times,serif" font-size="14.00" fill="#000000">Deleted</text>
</g>
<!-- ActiveC&#45;&gt;ExpiredC -->
<g id="edge8" class="edge">
<title>ActiveC&#45;&gt;ExpiredC</title>
<path fill="none" stroke="#0000ff" d="M148.3768,-386C163.6489,-386 179.1635,-386 179.1635,-386 179.1635,-386 179.1635,-68.1304 179.1635,-68.1304"/>
<polygon fill="#0000ff" stroke="#0000ff" points="182.6636,-68.1304 179.1635,-58.1304 175.6636,-68.1305 182.6636,-68.1304"/>
<text text-anchor="middle" x="95.0244" y="-202.8" font-family="Times,serif" font-size="14.00" fill="#0000ff">Expiry epoch reached</text>
<text text-anchor="middle" x="95.0244" y="-188.8" font-family="Times,serif" font-size="14.00" fill="#0000ff">(sm.SubmitPost </text>
<text text-anchor="middle" x="95.0244" y="-174.8" font-family="Times,serif" font-size="14.00" fill="#0000ff">&#45;&gt; sm.ExpireSectors)</text>
</g>
<!-- ActiveC&#45;&gt;FaultsDeclared -->
<g id="edge5" class="edge">
<title>ActiveC&#45;&gt;FaultsDeclared</title>
<path fill="none" stroke="#0000ff" d="M148.2721,-404C186.3325,-404 248,-404 248,-404 248,-404 248,-349.0408 248,-319.4143"/>
</g>
<!-- ActiveC&#45;&gt;FaultsDeclared -->
<!-- ActiveC&#45;&gt;FaultSpotted -->
<g id="edge10" class="edge">
<title>ActiveC&#45;&gt;FaultSpotted</title>
<path fill="none" stroke="#ff00ff" d="M107.7736,-377.759C107.7736,-363.3424 107.7736,-342.58 107.7736,-326.283"/>
</g>
<!-- ActiveC&#45;&gt;FaultSpotted -->
<!-- FaultedC -->
<g id="node3" class="node">
<title>FaultedC</title>
<ellipse fill="none" stroke="#000000" cx="248" cy="-193" rx="36.7663" ry="18"/>
<text text-anchor="middle" x="248" y="-188.8" font-family="Times,serif" font-size="14.00" fill="#000000">Faulted</text>
</g>
<!-- FaultedC&#45;&gt;CommittedC -->
<g id="edge7" class="edge">
<title>FaultedC&#45;&gt;CommittedC</title>
<path fill="none" stroke="#0000ff" d="M216.1908,-202C199.6541,-202 182.8549,-202 182.8549,-202 182.8549,-202 182.8549,-575 182.8549,-575 182.8549,-575 181.8855,-575 181.8855,-575"/>
<polygon fill="#0000ff" stroke="#0000ff" points="183.1606,-571.5001 173.1605,-575 183.1605,-578.5001 183.1606,-571.5001"/>
<text text-anchor="middle" x="315.8706" y="-397.8" font-family="Times,serif" font-size="14.00" fill="#0000ff">Recover</text>
<text text-anchor="middle" x="315.8706" y="-383.8" font-family="Times,serif" font-size="14.00" fill="#0000ff">(sm.SubmitPost)</text>
</g>
<!-- FaultedC&#45;&gt;ExpiredC -->
<g id="edge1" class="edge">
<title>FaultedC&#45;&gt;ExpiredC</title>
<path fill="none" stroke="#ff00ff" d="M229.157,-177.4091C229.157,-177.4091 229.157,-60.8317 229.157,-60.8317"/>
<polygon fill="#ff00ff" stroke="#ff00ff" points="232.6571,-60.8316 229.157,-50.8317 225.6571,-60.8317 232.6571,-60.8316"/>
<text text-anchor="middle" x="115.0244" y="-125.8" font-family="Times,serif" font-size="14.00" fill="#ff00ff">Expiry epoch reached</text>
<text text-anchor="middle" x="115.0244" y="-111.8" font-family="Times,serif" font-size="14.00" fill="#ff00ff">(sma.CronTick </text>
<text text-anchor="middle" x="115.0244" y="-97.8" font-family="Times,serif" font-size="14.00" fill="#ff00ff">&#45;&gt; sm.ExpireSectors)</text>
</g>
<!-- FaultedC&#45;&gt;ExpiredC -->
<g id="edge2" class="edge">
<title>FaultedC&#45;&gt;ExpiredC</title>
<path fill="none" stroke="#ff00ff" d="M215.8146,-184.0065C215.8146,-184.0065 215.8146,-67.6439 215.8146,-67.6439"/>
<polygon fill="#ff00ff" stroke="#ff00ff" points="219.3147,-67.6438 215.8146,-57.6439 212.3147,-67.6439 219.3147,-67.6438"/>
<text text-anchor="middle" x="273.4893" y="-125.8" font-family="Times,serif" font-size="14.00" fill="#ff00ff">Faulted 3+ times</text>
<text text-anchor="middle" x="273.4893" y="-111.8" font-family="Times,serif" font-size="14.00" fill="#ff00ff">(sma.CronTick </text>
<text text-anchor="middle" x="273.4893" y="-97.8" font-family="Times,serif" font-size="14.00" fill="#ff00ff">&#45;&gt; sm.SectorCleanup)</text>
</g>
<!-- FaultedC&#45;&gt;ExpiredC -->
<!-- FaultedC&#45;&gt;ExpiredC -->
<!-- FaultsDeclared&#45;&gt;FaultedC -->
<g id="edge6" class="edge">
<title>FaultsDeclared&#45;&gt;FaultedC</title>
<path fill="none" stroke="#0000ff" d="M235.789,-282.6793C235.789,-282.6793 235.789,-219.9845 235.789,-219.9845"/>
<polygon fill="#0000ff" stroke="#0000ff" points="239.2891,-219.9845 235.789,-209.9845 232.2891,-219.9845 239.2891,-219.9845"/>
</g>
<!-- FaultsDeclared&#45;&gt;FaultedC -->
<!-- FaultSpotted&#45;&gt;FaultedC -->
<g id="edge11" class="edge">
<title>FaultSpotted&#45;&gt;FaultedC</title>
<path fill="none" stroke="#ff00ff" d="M161.8762,-275.9006C161.8762,-241.5221 161.8762,-184 161.8762,-184 161.8762,-184 205.9307,-184 205.9307,-184"/>
<polygon fill="#ff00ff" stroke="#ff00ff" points="205.9307,-187.5001 215.9307,-184 205.9306,-180.5001 205.9307,-187.5001"/>
</g>
<!-- FaultSpotted&#45;&gt;FaultedC -->
</g>
</svg>
