<?xml version="1.0" encoding="UTF-8" standalone="no"?>
<!DOCTYPE svg PUBLIC "-//W3C//DTD SVG 1.1//EN"
 "http://www.w3.org/Graphics/SVG/1.1/DTD/svg11.dtd">
<!-- Generated by graphviz version 2.40.1 (20161225.0304)
 -->
<!-- Title: sector Pages: 1 -->
<svg width="389pt" height="708pt"
 viewBox="0.00 0.00 389.00 708.00" xmlns="http://www.w3.org/2000/svg" xmlns:xlink="http://www.w3.org/1999/xlink">
<g id="graph0" class="graph" transform="scale(1 1) rotate(0) translate(4 704)">
<title>sector</title>
<polygon fill="#ffffff" stroke="transparent" points="-4,4 -4,-704 385,-704 385,4 -4,4"/>
<g id="clust1" class="cluster">
<title>cluster_local</title>
<polygon fill="none" stroke="#c0c0c0" stroke-width="2" points="8,-8 8,-692 373,-692 373,-8 8,-8"/>
<text text-anchor="middle" x="190.5" y="-676.8" font-family="Times,serif" font-size="14.00" fill="#000000">Sector States in Storage Miner</text>
<text text-anchor="middle" x="190.5" y="-662.8" font-family="Times,serif" font-size="14.00" fill="#000000">(off chain)</text>
</g>
<g id="clust2" class="cluster">
<title>cluster_power</title>
<polygon fill="#43cd80" stroke="#43cd80" points="109,-246 109,-298 312,-298 312,-246 109,-246"/>
</g>
<!-- Empty -->
<g id="node1" class="node">
<title>Empty</title>
<ellipse fill="none" stroke="#000000" cx="52" cy="-630" rx="33.877" ry="18"/>
<text text-anchor="middle" x="52" y="-625.8" font-family="Times,serif" font-size="14.00" fill="#000000">Empty</text>
</g>
<!-- Packing -->
<g id="node2" class="node">
<title>Packing</title>
<ellipse fill="none" stroke="#000000" cx="57" cy="-546" rx="38.6955" ry="18"/>
<text text-anchor="middle" x="57" y="-541.8" font-family="Times,serif" font-size="14.00" fill="#000000">Packing</text>
</g>
<!-- Empty&#45;&gt;Packing -->
<!-- Empty&#45;&gt;Packing -->
<g id="edge6" class="edge">
<title>Empty&#45;&gt;Packing</title>
<path fill="none" stroke="#000000" d="M54.2845,-611.8343C54.5598,-609.2089 54.8102,-606.5375 55,-604 55.7264,-594.291 56.1893,-583.6476 56.4842,-574.1586"/>
<polygon fill="#000000" stroke="#000000" points="59.986,-574.1359 56.7509,-564.0471 52.9884,-573.9513 59.986,-574.1359"/>
<text text-anchor="middle" x="83.019" y="-583.8" font-family="Times,serif" font-size="14.00" fill="#000000">Add Deal</text>
</g>
<!-- Packing&#45;&gt;Packing -->
<g id="edge11" class="edge">
<title>Packing&#45;&gt;Packing</title>
<path fill="none" stroke="#000000" d="M94.2857,-550.8604C105.1682,-550.6924 113.5976,-549.0723 113.5976,-546 113.5976,-543.9838 109.9674,-542.593 104.3959,-541.8276"/>
<polygon fill="#000000" stroke="#000000" points="104.5003,-538.3267 94.2857,-541.1396 104.025,-545.3106 104.5003,-538.3267"/>
<text text-anchor="middle" x="140.6167" y="-541.8" font-family="Times,serif" font-size="14.00" fill="#000000">Add Deal</text>
</g>
<!-- Unsealed -->
<g id="node3" class="node">
<title>Unsealed</title>
<ellipse fill="none" stroke="#000000" cx="75" cy="-462" rx="43.0215" ry="18"/>
<text text-anchor="middle" x="75" y="-457.8" font-family="Times,serif" font-size="14.00" fill="#000000">Unsealed</text>
</g>
<!-- Packing&#45;&gt;Unsealed -->
<!-- Packing&#45;&gt;Unsealed -->
<g id="edge7" class="edge">
<title>Packing&#45;&gt;Unsealed</title>
<path fill="none" stroke="#000000" d="M61.249,-527.8285C61.8465,-525.2039 62.4455,-522.5343 63,-520 65.1467,-510.1888 67.4022,-499.4213 69.3708,-489.8555"/>
<polygon fill="#000000" stroke="#000000" points="72.8017,-490.5477 71.3758,-480.0492 65.9435,-489.1454 72.8017,-490.5477"/>
<text text-anchor="middle" x="102.7725" y="-499.8" font-family="Times,serif" font-size="14.00" fill="#000000">Sector is full</text>
</g>
<!-- Sealed -->
<g id="node4" class="node">
<title>Sealed</title>
<ellipse fill="none" stroke="#000000" cx="60" cy="-378" rx="33.8596" ry="18"/>
<text text-anchor="middle" x="60" y="-373.8" font-family="Times,serif" font-size="14.00" fill="#000000">Sealed</text>
</g>
<!-- Unsealed&#45;&gt;Sealed -->
<!-- Unsealed&#45;&gt;Sealed -->
<g id="edge8" class="edge">
<title>Unsealed&#45;&gt;Sealed</title>
<path fill="none" stroke="#000000" d="M72.5396,-443.9147C71.1636,-434.325 69.3103,-422.1754 66.25,-405.9219"/>
<polygon fill="#000000" stroke="#000000" points="69.6402,-405.0186 64.3032,-395.8662 62.7678,-406.3492 69.6402,-405.0186"/>
<text text-anchor="middle" x="81.0518" y="-415.8" font-family="Times,serif" font-size="14.00" fill="#000000">Seal</text>
</g>
<!-- NotProving -->
<g id="node5" class="node">
<title>NotProving</title>
<ellipse fill="none" stroke="#000000" cx="70" cy="-149" rx="53.6803" ry="18"/>
<text text-anchor="middle" x="70" y="-144.8" font-family="Times,serif" font-size="14.00" fill="#000000">Not Proving</text>
</g>
<!-- Sealed&#45;&gt;NotProving -->
<!-- Proving -->
<g id="node7" class="node">
<title>Proving</title>
<ellipse fill="none" stroke="#000000" cx="155" cy="-272" rx="38.2284" ry="18"/>
<text text-anchor="middle" x="155" y="-267.8" font-family="Times,serif" font-size="14.00" fill="#000000">Proving</text>
</g>
<!-- Sealed&#45;&gt;Proving -->
<g id="edge14" class="edge">
<title>Sealed&#45;&gt;Proving</title>
<path fill="none" stroke="#0000ff" d="M74.8438,-361.4375C90.5074,-343.9601 115.3538,-316.2368 133.233,-296.2874"/>
<polygon fill="#0000ff" stroke="#0000ff" points="135.8793,-298.5789 139.947,-288.796 130.6664,-293.907 135.8793,-298.5789"/>
<text text-anchor="middle" x="171.4121" y="-331.8" font-family="Times,serif" font-size="14.00" fill="#0000ff">Commit Sector</text>
<text text-anchor="middle" x="171.4121" y="-317.8" font-family="Times,serif" font-size="14.00" fill="#0000ff">(sm.CommitSector)</text>
</g>
<!-- NotProving&#45;&gt;NotProving -->
<g id="edge15" class="edge">
<title>NotProving&#45;&gt;NotProving</title>
<path fill="none" stroke="#0000ff" d="M123.0748,-151.5249C133.864,-151.2498 141.5901,-150.4082 141.5901,-149 141.5901,-148.0979 138.4193,-147.4283 133.3037,-146.9912"/>
<polygon fill="#0000ff" stroke="#0000ff" points="133.2385,-143.4835 123.0748,-146.4751 132.8857,-150.4746 133.2385,-143.4835"/>
<text text-anchor="middle" x="195.0437" y="-151.8" font-family="Times,serif" font-size="14.00" fill="#0000ff">Fault Declared</text>
<text text-anchor="middle" x="195.0437" y="-137.8" font-family="Times,serif" font-size="14.00" fill="#0000ff">(sm.DeclareFaults)</text>
</g>
<!-- NotProving&#45;&gt;NotProving -->
<g id="edge16" class="edge">
<title>NotProving&#45;&gt;NotProving</title>
<path fill="none" stroke="#ff00ff" d="M122.3581,-153.4328C176.2345,-155.3585 248.4973,-153.8809 248.4973,-149 248.4973,-144.4242 184.9851,-142.8395 132.6533,-144.246"/>
<polygon fill="#ff00ff" stroke="#ff00ff" points="132.2441,-140.757 122.3581,-144.5672 132.4625,-147.7536 132.2441,-140.757"/>
<text text-anchor="middle" x="298.3347" y="-158.8" font-family="Times,serif" font-size="14.00" fill="#ff00ff">Fault Spotted</text>
<text text-anchor="middle" x="298.3347" y="-144.8" font-family="Times,serif" font-size="14.00" fill="#ff00ff">(sma.CronTick </text>
<text text-anchor="middle" x="298.3347" y="-130.8" font-family="Times,serif" font-size="14.00" fill="#ff00ff">&#45;&gt; sm.PostFailed)</text>
</g>
<!-- Deleted -->
<g id="node6" class="node">
<title>Deleted</title>
<ellipse fill="none" stroke="#000000" cx="80" cy="-34" rx="37.7092" ry="18"/>
<text text-anchor="middle" x="80" y="-29.8" font-family="Times,serif" font-size="14.00" fill="#000000">Deleted</text>
</g>
<!-- NotProving&#45;&gt;Deleted -->
<!-- NotProving&#45;&gt;Deleted -->
<g id="edge10" class="edge">
<title>NotProving&#45;&gt;Deleted</title>
<path fill="none" stroke="#000000" d="M71.5845,-130.7779C73.1864,-112.3567 75.6841,-83.6329 77.5429,-62.2569"/>
<polygon fill="#000000" stroke="#000000" points="81.0433,-62.4025 78.4229,-52.1368 74.0697,-61.796 81.0433,-62.4025"/>
<text text-anchor="middle" x="133.3398" y="-99.8" font-family="Times,serif" font-size="14.00" fill="#000000">Give up on recovery</text>
<text text-anchor="middle" x="133.3398" y="-85.8" font-family="Times,serif" font-size="14.00" fill="#000000">or</text>
<text text-anchor="middle" x="133.3398" y="-71.8" font-family="Times,serif" font-size="14.00" fill="#000000">Expiry</text>
</g>
<!-- NotProving&#45;&gt;Proving -->
<g id="edge13" class="edge">
<title>NotProving&#45;&gt;Proving</title>
<path fill="none" stroke="#0000ff" d="M60.8712,-167.0109C53.4243,-184.5177 46.092,-211.025 59.2588,-229 74.0625,-249.2096 90.2326,-235.549 113,-246 116.858,-247.7709 120.7943,-249.8291 124.6344,-251.9972"/>
<polygon fill="#0000ff" stroke="#0000ff" points="122.9538,-255.0698 133.3379,-257.1722 126.5313,-249.0531 122.9538,-255.0698"/>
<text text-anchor="middle" x="105.8706" y="-210.8" font-family="Times,serif" font-size="14.00" fill="#0000ff">Recover</text>
<text text-anchor="middle" x="105.8706" y="-196.8" font-family="Times,serif" font-size="14.00" fill="#0000ff">(sm.SubmitPost)</text>
</g>
<!-- Proving&#45;&gt;NotProving -->
<g id="edge9" class="edge">
<title>Proving&#45;&gt;NotProving</title>
<path fill="none" stroke="#000000" d="M160.9075,-254.1285C165.8155,-235.7324 170.0947,-207.0088 157,-187 149.592,-175.6804 137.991,-167.7131 125.6473,-162.1121"/>
<polygon fill="#000000" stroke="#000000" points="126.7038,-158.7644 116.1203,-158.2739 124.0879,-165.2573 126.7038,-158.7644"/>
<text text-anchor="middle" x="211.8638" y="-217.8" font-family="Times,serif" font-size="14.00" fill="#000000">Lost data</text>
<text text-anchor="middle" x="211.8638" y="-203.8" font-family="Times,serif" font-size="14.00" fill="#000000">or</text>
<text text-anchor="middle" x="211.8638" y="-189.8" font-family="Times,serif" font-size="14.00" fill="#000000">Stopped Proving</text>
</g>
<!-- Proving&#45;&gt;Proving -->
<g id="edge12" class="edge">
<title>Proving&#45;&gt;Proving</title>
<path fill="none" stroke="#0000ff" d="M190.8893,-278.3715C202.1949,-278.2742 211.114,-276.1504 211.114,-272 211.114,-269.2115 207.0878,-267.3377 201.0166,-266.3788"/>
<polygon fill="#0000ff" stroke="#0000ff" points="201.1206,-262.877 190.8893,-265.6285 200.6033,-269.8579 201.1206,-262.877"/>
<text text-anchor="middle" x="257.9846" y="-274.8" font-family="Times,serif" font-size="14.00" fill="#0000ff">Produce Post</text>
<text text-anchor="middle" x="257.9846" y="-260.8" font-family="Times,serif" font-size="14.00" fill="#0000ff">(sm.SubmitPost)</text>
</g>
</g>
</svg>
