<?xml version="1.0" encoding="UTF-8" standalone="no"?>
<!DOCTYPE svg PUBLIC "-//W3C//DTD SVG 1.1//EN"
 "http://www.w3.org/Graphics/SVG/1.1/DTD/svg11.dtd">
<!-- Generated by graphviz version 2.40.1 (20161225.0304)
 -->
<!-- Title: sector Pages: 1 -->
<svg width="1103pt" height="1163pt"
 viewBox="0.00 0.00 1102.93 1163.00" xmlns="http://www.w3.org/2000/svg" xmlns:xlink="http://www.w3.org/1999/xlink">
<g id="graph0" class="graph" transform="scale(1 1) rotate(0) translate(4 1159)">
<title>sector</title>
<polygon fill="#ffffff" stroke="transparent" points="-4,4 -4,-1159 1098.9323,-1159 1098.9323,4 -4,4"/>
<g id="clust1" class="cluster">
<title>cluster_local</title>
<polygon fill="none" stroke="#c0c0c0" stroke-width="2" points="599,-276 599,-1147 877,-1147 877,-276 599,-276"/>
<text text-anchor="middle" x="738" y="-1131.8" font-family="Times,serif" font-size="14.00" fill="#000000">Sector States in Storage Miner</text>
<text text-anchor="middle" x="738" y="-1117.8" font-family="Times,serif" font-size="14.00" fill="#000000">(off chain)</text>
</g>
<g id="clust2" class="cluster">
<title>cluster_power</title>
<polygon fill="#43cd80" stroke="#43cd80" points="607,-561 607,-613 810,-613 810,-561 607,-561"/>
</g>
<g id="clust3" class="cluster">
<title>cluster_chain</title>
<polygon fill="none" stroke="#c0c0c0" stroke-width="2" points="8,-8 8,-1019 371,-1019 371,-8 8,-8"/>
<text text-anchor="middle" x="189.5" y="-1003.8" font-family="Times,serif" font-size="14.00" fill="#000000">Sector States in StorageMinerActor</text>
<text text-anchor="middle" x="189.5" y="-989.8" font-family="Times,serif" font-size="14.00" fill="#000000">(on chain)</text>
</g>
<g id="clust4" class="cluster">
<title>cluster_postproving</title>
<polygon fill="#e0eeee" stroke="#e0eeee" points="126,-403 126,-975 301,-975 301,-403 126,-403"/>
<text text-anchor="middle" x="213.5" y="-959.8" font-family="Times,serif" font-size="14.00" fill="#000000">must be proved in post</text>
</g>
<g id="clust5" class="cluster">
<title>cluster_nopowerC1</title>
<polygon fill="#d3d3d3" stroke="#d3d3d3" points="134,-871 134,-945 293,-945 293,-871 134,-871"/>
<text text-anchor="middle" x="213.5" y="-929.8" font-family="Times,serif" font-size="14.00" fill="#000000">Does not count for power</text>
</g>
<g id="clust6" class="cluster">
<title>cluster_powerC</title>
<polygon fill="#43cd80" stroke="#43cd80" points="145,-411 145,-485 258,-485 258,-411 145,-411"/>
<text text-anchor="middle" x="201.5" y="-469.8" font-family="Times,serif" font-size="14.00" fill="#000000">Counts for power</text>
</g>
<g id="clust8" class="cluster">
<title>cluster_nopowerC2</title>
<polygon fill="#d3d3d3" stroke="#d3d3d3" points="28,-16 28,-241 363,-241 363,-16 28,-16"/>
<text text-anchor="middle" x="195.5" y="-225.8" font-family="Times,serif" font-size="14.00" fill="#000000">Does not count for power</text>
</g>
<!-- Empty -->
<g id="node1" class="node">
<title>Empty</title>
<ellipse fill="none" stroke="#000000" cx="659" cy="-1085" rx="33.877" ry="18"/>
<text text-anchor="middle" x="659" y="-1080.8" font-family="Times,serif" font-size="14.00" fill="#000000">Empty</text>
</g>
<!-- Packing -->
<g id="node2" class="node">
<title>Packing</title>
<ellipse fill="none" stroke="#000000" cx="658" cy="-897" rx="38.6955" ry="18"/>
<text text-anchor="middle" x="658" y="-892.8" font-family="Times,serif" font-size="14.00" fill="#000000">Packing</text>
</g>
<!-- Empty&#45;&gt;Packing -->
<!-- Empty&#45;&gt;Packing -->
<g id="edge6" class="edge">
<title>Empty&#45;&gt;Packing</title>
<path fill="none" stroke="#000000" d="M659,-1066.9738C659,-1066.9738 659,-925.2479 659,-925.2479"/>
<polygon fill="#000000" stroke="#000000" points="662.5001,-925.2479 659,-915.2479 655.5001,-925.2479 662.5001,-925.2479"/>
<text text-anchor="middle" x="703.019" y="-1038.8" font-family="Times,serif" font-size="14.00" fill="#000000">Add Deal</text>
</g>
<!-- Packing&#45;&gt;Packing -->
<g id="edge28" class="edge">
<title>Packing&#45;&gt;Packing</title>
<path fill="none" stroke="#000000" d="M642.156,-913.8053C642.156,-940.843 642.156,-991 642.156,-991 642.156,-991 613.6958,-991 613.6958,-991 613.6958,-991 613.6958,-851 613.6958,-851 613.6958,-851 638.0545,-851 638.0545,-851 638.0545,-851 638.0545,-871.4265 638.0545,-871.4265"/>
<polygon fill="#000000" stroke="#000000" points="634.5546,-871.4265 638.0545,-881.4265 641.5546,-871.4265 634.5546,-871.4265"/>
</g>
<!-- Unsealed -->
<g id="node3" class="node">
<title>Unsealed</title>
<ellipse fill="none" stroke="#000000" cx="651" cy="-805" rx="43.0215" ry="18"/>
<text text-anchor="middle" x="651" y="-800.8" font-family="Times,serif" font-size="14.00" fill="#000000">Unsealed</text>
</g>
<!-- Packing&#45;&gt;Unsealed -->
<!-- Packing&#45;&gt;Unsealed -->
<g id="edge7" class="edge">
<title>Packing&#45;&gt;Unsealed</title>
<path fill="none" stroke="#000000" d="M656.7065,-878.8238C656.7065,-878.8238 656.7065,-833.1385 656.7065,-833.1385"/>
<polygon fill="#000000" stroke="#000000" points="660.2066,-833.1384 656.7065,-823.1385 653.2066,-833.1385 660.2066,-833.1384"/>
<text text-anchor="middle" x="704.7725" y="-842.8" font-family="Times,serif" font-size="14.00" fill="#000000">Sector is full</text>
</g>
<!-- Sealed -->
<g id="node4" class="node">
<title>Sealed</title>
<ellipse fill="none" stroke="#000000" cx="679" cy="-700" rx="33.8596" ry="18"/>
<text text-anchor="middle" x="679" y="-695.8" font-family="Times,serif" font-size="14.00" fill="#000000">Sealed</text>
</g>
<!-- Unsealed&#45;&gt;Sealed -->
<!-- Unsealed&#45;&gt;Sealed -->
<g id="edge8" class="edge">
<title>Unsealed&#45;&gt;Sealed</title>
<path fill="none" stroke="#000000" d="M677.7807,-790.8392C677.7807,-790.8392 677.7807,-728.1548 677.7807,-728.1548"/>
<polygon fill="#000000" stroke="#000000" points="681.2808,-728.1547 677.7807,-718.1548 674.2808,-728.1548 681.2808,-728.1547"/>
<text text-anchor="middle" x="695.0518" y="-751.8" font-family="Times,serif" font-size="14.00" fill="#000000">Seal</text>
</g>
<!-- NotProving -->
<g id="node5" class="node">
<title>NotProving</title>
<ellipse fill="none" stroke="#000000" cx="661" cy="-437" rx="53.6803" ry="18"/>
<text text-anchor="middle" x="661" y="-432.8" font-family="Times,serif" font-size="14.00" fill="#000000">Not Proving</text>
</g>
<!-- Sealed&#45;&gt;NotProving -->
<!-- Proving -->
<g id="node7" class="node">
<title>Proving</title>
<ellipse fill="none" stroke="#000000" cx="653" cy="-587" rx="38.2284" ry="18"/>
<text text-anchor="middle" x="653" y="-582.8" font-family="Times,serif" font-size="14.00" fill="#000000">Proving</text>
</g>
<!-- Sealed&#45;&gt;Proving -->
<g id="edge9" class="edge">
<title>Sealed&#45;&gt;Proving</title>
<path fill="none" stroke="#000000" d="M660.5851,-684.7603C660.5851,-684.7603 660.5851,-614.9754 660.5851,-614.9754"/>
<polygon fill="#000000" stroke="#000000" points="664.0852,-614.9754 660.5851,-604.9754 657.0852,-614.9755 664.0852,-614.9754"/>
<text text-anchor="middle" x="725.4121" y="-646.8" font-family="Times,serif" font-size="14.00" fill="#000000">Commit</text>
<text text-anchor="middle" x="725.4121" y="-632.8" font-family="Times,serif" font-size="14.00" fill="#000000">(sm.CommitSector)</text>
</g>
<!-- CommittedC -->
<g id="node8" class="node">
<title>CommittedC</title>
<ellipse fill="none" stroke="#000000" cx="212" cy="-897" rx="45.4441" ry="18"/>
<text text-anchor="middle" x="212" y="-892.8" font-family="Times,serif" font-size="14.00" fill="#000000">Unproven</text>
</g>
<!-- Sealed&#45;&gt;CommittedC -->
<g id="edge31" class="edge">
<title>Sealed&#45;&gt;CommittedC</title>
<path fill="none" stroke="#0000ff" stroke-dasharray="5,2" d="M645.0633,-700C598.0901,-700 518.9774,-700 518.9774,-700 518.9774,-700 518.9774,-907 518.9774,-907 518.9774,-907 259.9493,-907 259.9493,-907"/>
<polygon fill="#0000ff" stroke="#0000ff" points="259.9494,-903.5001 249.9493,-907 259.9493,-910.5001 259.9494,-903.5001"/>
<text text-anchor="middle" x="498.4121" y="-807.8" font-family="Times,serif" font-size="14.00" fill="#0000ff">Commit Sector</text>
<text text-anchor="middle" x="498.4121" y="-793.8" font-family="Times,serif" font-size="14.00" fill="#0000ff">(sm.CommitSector)</text>
</g>
<!-- Deleted -->
<g id="node6" class="node">
<title>Deleted</title>
<ellipse fill="none" stroke="#000000" cx="698" cy="-302" rx="37.7092" ry="18"/>
<text text-anchor="middle" x="698" y="-297.8" font-family="Times,serif" font-size="14.00" fill="#000000">Deleted</text>
</g>
<!-- NotProving&#45;&gt;Deleted -->
<!-- NotProving&#45;&gt;Deleted -->
<g id="edge11" class="edge">
<title>NotProving&#45;&gt;Deleted</title>
<path fill="none" stroke="#000000" d="M696.5252,-423.3126C696.5252,-423.3126 696.5252,-330.433 696.5252,-330.433"/>
<polygon fill="#000000" stroke="#000000" points="700.0253,-330.433 696.5252,-320.433 693.0253,-330.4331 700.0253,-330.433"/>
<text text-anchor="middle" x="755.3398" y="-374.8" font-family="Times,serif" font-size="14.00" fill="#000000">Give up on recovery</text>
<text text-anchor="middle" x="755.3398" y="-360.8" font-family="Times,serif" font-size="14.00" fill="#000000">or</text>
<text text-anchor="middle" x="755.3398" y="-346.8" font-family="Times,serif" font-size="14.00" fill="#000000">Expiry</text>
</g>
<!-- NotProving&#45;&gt;Proving -->
<g id="edge30" class="edge">
<title>NotProving&#45;&gt;Proving</title>
<path fill="none" stroke="#0000ff" d="M660.6228,-455.0935C660.6228,-455.0935 660.6228,-559.3081 660.6228,-559.3081"/>
<polygon fill="#0000ff" stroke="#0000ff" points="657.1229,-559.3081 660.6228,-569.3081 664.1229,-559.3081 657.1229,-559.3081"/>
<text text-anchor="middle" x="801.8706" y="-525.8" font-family="Times,serif" font-size="14.00" fill="#0000ff">Recover</text>
<text text-anchor="middle" x="801.8706" y="-511.8" font-family="Times,serif" font-size="14.00" fill="#0000ff">(sm.SubmitPost)</text>
</g>
<!-- FaultsDeclared -->
<g id="node13" class="node">
<title>FaultsDeclared</title>
<polygon fill="none" stroke="#0000ff" points="209.4073,-320 86.5927,-320 86.5927,-284 209.4073,-284 209.4073,-320"/>
<text text-anchor="middle" x="148" y="-304.8" font-family="Times,serif" font-size="14.00" fill="#0000ff">Fault Declared</text>
<text text-anchor="middle" x="148" y="-290.8" font-family="Times,serif" font-size="14.00" fill="#0000ff">(sm.DeclareFaults)</text>
</g>
<!-- NotProving&#45;&gt;FaultsDeclared -->
<g id="edge37" class="edge">
<title>NotProving&#45;&gt;FaultsDeclared</title>
<path fill="none" stroke="#0000ff" stroke-dasharray="5,2" d="M620.6563,-424.812C620.6563,-414.3682 620.6563,-401 620.6563,-401 620.6563,-401 201.6704,-401 201.6704,-401 201.6704,-401 201.6704,-348.7386 201.6704,-320.1581"/>
</g>
<!-- FaultSpotted -->
<g id="node14" class="node">
<title>FaultSpotted</title>
<polygon fill="none" stroke="#ff00ff" points="342.6753,-327 227.3247,-327 227.3247,-277 342.6753,-277 342.6753,-327"/>
<text text-anchor="middle" x="285" y="-311.8" font-family="Times,serif" font-size="14.00" fill="#ff00ff">Fault Spotted</text>
<text text-anchor="middle" x="285" y="-297.8" font-family="Times,serif" font-size="14.00" fill="#ff00ff">(sma.CronTick </text>
<text text-anchor="middle" x="285" y="-283.8" font-family="Times,serif" font-size="14.00" fill="#ff00ff">&#45;&gt; sm.PostFailed)</text>
</g>
<!-- NotProving&#45;&gt;FaultSpotted -->
<g id="edge41" class="edge">
<title>NotProving&#45;&gt;FaultSpotted</title>
<path fill="none" stroke="#ff00ff" stroke-dasharray="5,2" d="M647.1491,-419.1875C647.1491,-387.125 647.1491,-323 647.1491,-323 647.1491,-323 445.0286,-323 342.7841,-323"/>
</g>
<!-- split_________________3 -->
<!-- NotProving&#45;&gt;split_________________3 -->
<!-- Proving&#45;&gt;NotProving -->
<g id="edge10" class="edge">
<title>Proving&#45;&gt;NotProving</title>
<path fill="none" stroke="#000000" d="M645.3772,-569.204C645.3772,-569.204 645.3772,-464.3099 645.3772,-464.3099"/>
<polygon fill="#000000" stroke="#000000" points="648.8773,-464.3099 645.3772,-454.3099 641.8773,-464.3099 648.8773,-464.3099"/>
<text text-anchor="middle" x="671.8638" y="-532.8" font-family="Times,serif" font-size="14.00" fill="#000000">Lost data</text>
<text text-anchor="middle" x="671.8638" y="-518.8" font-family="Times,serif" font-size="14.00" fill="#000000">or</text>
<text text-anchor="middle" x="671.8638" y="-504.8" font-family="Times,serif" font-size="14.00" fill="#000000">Stopped Proving</text>
</g>
<!-- Proving&#45;&gt;Proving -->
<g id="edge29" class="edge">
<title>Proving&#45;&gt;Proving</title>
<path fill="none" stroke="#0000ff" d="M675.8496,-601.4825C675.8496,-617.1748 675.8496,-640 675.8496,-640 675.8496,-640 698.3024,-640 698.3024,-640 698.3024,-640 698.3024,-555 698.3024,-555 698.3024,-555 675.8684,-555 675.8684,-555 675.8684,-555 675.8684,-562.498 675.8684,-562.498"/>
<polygon fill="#0000ff" stroke="#0000ff" points="672.3685,-562.498 675.8684,-572.498 679.3685,-562.4981 672.3685,-562.498"/>
</g>
<!-- FirstPost -->
<g id="node10" class="node">
<title>FirstPost</title>
<text text-anchor="middle" x="212" y="-709.8" font-family="Times,serif" font-size="14.00" fill="#0000ff">1st PoSt</text>
<text text-anchor="middle" x="212" y="-695.8" font-family="Times,serif" font-size="14.00" fill="#0000ff">(sm.SubmitPost </text>
<text text-anchor="middle" x="212" y="-681.8" font-family="Times,serif" font-size="14.00" fill="#0000ff">&#45;&gt;sm.ActivateSector)</text>
</g>
<!-- Proving&#45;&gt;FirstPost -->
<g id="edge33" class="edge">
<title>Proving&#45;&gt;FirstPost</title>
<path fill="none" stroke="#0000ff" stroke-dasharray="5,2" d="M630.1033,-601.6207C630.1033,-627.3443 630.1033,-678 630.1033,-678 630.1033,-678 399.1879,-678 280.5731,-678"/>
</g>
<!-- split_________________2 -->
<!-- Proving&#45;&gt;split_________________2 -->
<!-- CommittedC&#45;&gt;Proving -->
<g id="edge34" class="edge">
<title>CommittedC&#45;&gt;Proving</title>
<path fill="none" stroke="#0000ff" stroke-dasharray="5,2" d="M256.8608,-900C325.5761,-900 449.0226,-900 449.0226,-900 449.0226,-900 449.0226,-587 449.0226,-587 449.0226,-587 604.6334,-587 604.6334,-587"/>
<polygon fill="#0000ff" stroke="#0000ff" points="604.6334,-590.5001 614.6334,-587 604.6334,-583.5001 604.6334,-590.5001"/>
<text text-anchor="middle" x="398.7622" y="-758.8" font-family="Times,serif" font-size="14.00" fill="#0000ff">Commit Sector</text>
<text text-anchor="middle" x="398.7622" y="-744.8" font-family="Times,serif" font-size="14.00" fill="#0000ff">(wait for commit)</text>
</g>
<!-- CommittedC&#45;&gt;FirstPost -->
<!-- CommittedC&#45;&gt;FirstPost -->
<!-- CommittedC&#45;&gt;FirstPost -->
<g id="edge32" class="edge">
<title>CommittedC&#45;&gt;FirstPost</title>
<path fill="none" stroke="#0000ff" d="M234.736,-881.2117C234.736,-847.1555 234.736,-766.5449 234.736,-725.2859"/>
</g>
<!-- CommittedC&#45;&gt;FaultsDeclared -->
<g id="edge38" class="edge">
<title>CommittedC&#45;&gt;FaultsDeclared</title>
<path fill="none" stroke="#0000ff" d="M166.4402,-897C141.3364,-897 115.2122,-897 115.2122,-897 115.2122,-897 115.2122,-419.8491 115.2122,-320.132"/>
</g>
<!-- CommittedC&#45;&gt;FaultSpotted -->
<g id="edge15" class="edge">
<title>CommittedC&#45;&gt;FaultSpotted</title>
<path fill="none" stroke="#ff00ff" d="M248.1959,-886C276.6396,-886 311.4797,-886 311.4797,-886 311.4797,-886 311.4797,-438.875 311.4797,-327.0938"/>
</g>
<!-- ActiveC -->
<g id="node9" class="node">
<title>ActiveC</title>
<ellipse fill="none" stroke="#000000" cx="212" cy="-437" rx="33.8596" ry="18"/>
<text text-anchor="middle" x="212" y="-432.8" font-family="Times,serif" font-size="14.00" fill="#000000">Active</text>
</g>
<!-- ExpiredC -->
<g id="node12" class="node">
<title>ExpiredC</title>
<ellipse fill="none" stroke="#000000" cx="227" cy="-42" rx="37.7092" ry="18"/>
<text text-anchor="middle" x="227" y="-37.8" font-family="Times,serif" font-size="14.00" fill="#000000">Deleted</text>
</g>
<!-- ActiveC&#45;&gt;ExpiredC -->
<g id="edge35" class="edge">
<title>ActiveC&#45;&gt;ExpiredC</title>
<path fill="none" stroke="#0000ff" d="M218.3081,-419.2603C218.3081,-419.2603 218.3081,-69.6908 218.3081,-69.6908"/>
<polygon fill="#0000ff" stroke="#0000ff" points="221.8082,-69.6908 218.3081,-59.6908 214.8082,-69.6908 221.8082,-69.6908"/>
<text text-anchor="middle" x="103.0244" y="-202.8" font-family="Times,serif" font-size="14.00" fill="#0000ff">Expiry epoch reached</text>
<text text-anchor="middle" x="103.0244" y="-188.8" font-family="Times,serif" font-size="14.00" fill="#0000ff">(sm.SubmitPost </text>
<text text-anchor="middle" x="103.0244" y="-174.8" font-family="Times,serif" font-size="14.00" fill="#0000ff">&#45;&gt; sm.ExpireSectors)</text>
</g>
<!-- ActiveC&#45;&gt;FaultsDeclared -->
<!-- ActiveC&#45;&gt;FaultsDeclared -->
<g id="edge39" class="edge">
<title>ActiveC&#45;&gt;FaultsDeclared</title>
<path fill="none" stroke="#0000ff" d="M186.1039,-425.49C186.1039,-402.0251 186.1039,-348.4959 186.1039,-320.2418"/>
</g>
<!-- ActiveC&#45;&gt;FaultSpotted -->
<g id="edge16" class="edge">
<title>ActiveC&#45;&gt;FaultSpotted</title>
<path fill="none" stroke="#ff00ff" d="M239.5071,-426.4068C239.5071,-405.1487 239.5071,-356.782 239.5071,-327.0071"/>
</g>
<!-- ActiveC&#45;&gt;FaultSpotted -->
<!-- FirstPost&#45;&gt;ActiveC -->
<g id="edge14" class="edge">
<title>FirstPost&#45;&gt;ActiveC</title>
<path fill="none" stroke="#0000ff" d="M191.7924,-674.7825C191.7924,-674.7825 191.7924,-461.4294 191.7924,-461.4294"/>
<polygon fill="#0000ff" stroke="#0000ff" points="195.2925,-461.4294 191.7924,-451.4294 188.2925,-461.4294 195.2925,-461.4294"/>
</g>
<!-- FirstPost&#45;&gt;ActiveC -->
<!-- FirstPost&#45;&gt;ActiveC -->
<!-- FaultedC -->
<g id="node11" class="node">
<title>FaultedC</title>
<ellipse fill="none" stroke="#000000" cx="285" cy="-193" rx="36.7663" ry="18"/>
<text text-anchor="middle" x="285" y="-188.8" font-family="Times,serif" font-size="14.00" fill="#000000">Faulted</text>
</g>
<!-- FaultedC&#45;&gt;CommittedC -->
<g id="edge36" class="edge">
<title>FaultedC&#45;&gt;CommittedC</title>
<path fill="none" stroke="#0000ff" d="M316.7706,-202C337.5836,-202 360.9526,-202 360.9526,-202 360.9526,-202 360.9526,-893 360.9526,-893 360.9526,-893 266.6907,-893 266.6907,-893"/>
<polygon fill="#0000ff" stroke="#0000ff" points="266.6907,-889.5001 256.6907,-893 266.6906,-896.5001 266.6907,-889.5001"/>
<text text-anchor="middle" x="307.8706" y="-589.8" font-family="Times,serif" font-size="14.00" fill="#0000ff">Recover</text>
<text text-anchor="middle" x="307.8706" y="-575.8" font-family="Times,serif" font-size="14.00" fill="#0000ff">(sm.SubmitPost)</text>
</g>
<!-- FaultedC&#45;&gt;ExpiredC -->
<g id="edge12" class="edge">
<title>FaultedC&#45;&gt;ExpiredC</title>
<path fill="none" stroke="#ff00ff" d="M258.1095,-180.643C258.1095,-180.643 258.1095,-62.4795 258.1095,-62.4795"/>
<polygon fill="#ff00ff" stroke="#ff00ff" points="261.6096,-62.4794 258.1095,-52.4795 254.6096,-62.4795 261.6096,-62.4794"/>
<text text-anchor="middle" x="115.0244" y="-125.8" font-family="Times,serif" font-size="14.00" fill="#ff00ff">Expiry epoch reached</text>
<text text-anchor="middle" x="115.0244" y="-111.8" font-family="Times,serif" font-size="14.00" fill="#ff00ff">(sma.CronTick </text>
<text text-anchor="middle" x="115.0244" y="-97.8" font-family="Times,serif" font-size="14.00" fill="#ff00ff">&#45;&gt; sm.ExpireSectors)</text>
</g>
<!-- FaultedC&#45;&gt;ExpiredC -->
<g id="edge13" class="edge">
<title>FaultedC&#45;&gt;ExpiredC</title>
<path fill="none" stroke="#ff00ff" d="M254.862,-182.6212C254.862,-182.6212 254.862,-64.1077 254.862,-64.1077"/>
<polygon fill="#ff00ff" stroke="#ff00ff" points="258.3621,-64.1076 254.862,-54.1077 251.3621,-64.1077 258.3621,-64.1076"/>
<text text-anchor="middle" x="273.4893" y="-125.8" font-family="Times,serif" font-size="14.00" fill="#ff00ff">Faulted 3+ times</text>
<text text-anchor="middle" x="273.4893" y="-111.8" font-family="Times,serif" font-size="14.00" fill="#ff00ff">(sma.CronTick </text>
<text text-anchor="middle" x="273.4893" y="-97.8" font-family="Times,serif" font-size="14.00" fill="#ff00ff">&#45;&gt; sm.SectorCleanup)</text>
</g>
<!-- FaultedC&#45;&gt;ExpiredC -->
<!-- FaultedC&#45;&gt;ExpiredC -->
<!-- split_________________4 -->
<!-- FaultedC&#45;&gt;split_________________4 -->
<!-- FaultsDeclared&#45;&gt;FaultedC -->
<!-- FaultsDeclared&#45;&gt;FaultedC -->
<g id="edge40" class="edge">
<title>FaultsDeclared&#45;&gt;FaultedC</title>
<path fill="none" stroke="#0000ff" d="M202.7676,-283.5857C202.7676,-253.9592 202.7676,-199 202.7676,-199 202.7676,-199 240.1261,-199 240.1261,-199"/>
<polygon fill="#0000ff" stroke="#0000ff" points="240.1261,-202.5001 250.1261,-199 240.126,-195.5001 240.1261,-202.5001"/>
</g>
<!-- FaultSpotted&#45;&gt;FaultedC -->
<g id="edge17" class="edge">
<title>FaultSpotted&#45;&gt;FaultedC</title>
<path fill="none" stroke="#ff00ff" d="M297.211,-276.9932C297.211,-276.9932 297.211,-220.0884 297.211,-220.0884"/>
<polygon fill="#ff00ff" stroke="#ff00ff" points="300.7111,-220.0883 297.211,-210.0884 293.7111,-220.0884 300.7111,-220.0883"/>
</g>
<!-- FaultSpotted&#45;&gt;FaultedC -->
<!-- split_________________2&#45;&gt;ActiveC -->
<!-- split_________________3&#45;&gt;FaultedC -->
<!-- split_________________4&#45;&gt;Deleted -->
</g>
</svg>
