<?xml version="1.0" encoding="UTF-8" standalone="no"?><!DOCTYPE svg PUBLIC "-//W3C//DTD SVG 1.1//EN" "http://www.w3.org/Graphics/SVG/1.1/DTD/svg11.dtd"><!-- Generated by graphviz version 2.40.1 (20161225.0304)
 --><!-- Title: sector_state Pages: 1 --><svg xmlns="http://www.w3.org/2000/svg" xmlns:xlink="http://www.w3.org/1999/xlink" width="225pt" height="431pt" viewBox="0.00 0.00 225.00 430.80">
<g id="graph0" class="graph" transform="scale(1 1) rotate(0) translate(4 426.8)">
<title>sector_state</title>
<polygon fill="#ffffff" stroke="transparent" points="-4,4 -4,-426.8 221,-426.8 221,4 -4,4"/>
<g id="clust1" class="cluster">
<title>cluster_0</title>
<polygon fill="#e5e5e5" stroke="#e5e5e5" points="8,-94 8,-220.8 209,-220.8 209,-94 8,-94"/>
<text text-anchor="middle" x="108.5" y="-204.2" font-family="Times,serif" font-size="14.00" fill="#000000">Proving Set (Counted for Power)</text>
</g>
<!-- Cleared -->
<g id="node1" class="node">
<title>Cleared</title>
<ellipse fill="none" stroke="#000000" cx="108" cy="-375.8" rx="43" ry="43"/>
<ellipse fill="none" stroke="#000000" cx="108" cy="-375.8" rx="47" ry="47"/>
<text text-anchor="middle" x="108" y="-371.6" font-family="Times,serif" font-size="14.00" fill="#000000">Cleared</text>
</g>
<!-- PreCommit -->
<g id="node2" class="node">
<title>PreCommit</title>
<ellipse fill="none" stroke="#000000" cx="108" cy="-271.8" rx="43" ry="43"/>
<text text-anchor="middle" x="108" y="-267.6" font-family="Times,serif" font-size="14.00" fill="#000000">PreCommit</text>
</g>
<!-- Cleared&#45;&gt;PreCommit -->
<g id="edge1" class="edge">
<title>Cleared-&gt;PreCommit</title>
<path fill="none" stroke="#000000" stroke-width="2" d="M122.3333,-330.789C122.3333,-330.789 122.3333,-322.6225 122.3333,-322.6225"/>
<polygon fill="#000000" stroke="#000000" stroke-width="2" points="125.8334,-322.6225 122.3333,-312.6225 118.8334,-322.6226 125.8334,-322.6225"/>
</g>
<!-- PreCommit&#45;&gt;Cleared -->
<g id="edge3" class="edge">
<title>PreCommit-&gt;Cleared</title>
<path fill="none" stroke="#c0c0c0" stroke-width="2" d="M93.6667,-312.6051C93.6667,-312.6051 93.6667,-320.9884 93.6667,-320.9884"/>
<polygon fill="#c0c0c0" stroke="#c0c0c0" stroke-width="2" points="90.1668,-320.9884 93.6667,-330.9884 97.1668,-320.9885 90.1668,-320.9884"/>
</g>
<!-- Active -->
<g id="node3" class="node">
<title>Active</title>
<ellipse fill="none" stroke="#000000" cx="108" cy="-145" rx="43" ry="43"/>
<text text-anchor="middle" x="108" y="-140.8" font-family="Times,serif" font-size="14.00" fill="#000000">Active</text>
</g>
<!-- PreCommit&#45;&gt;Active -->
<g id="edge2" class="edge">
<title>PreCommit-&gt;Active</title>
<path fill="none" stroke="#00ff00" stroke-width="2" d="M122.3333,-230.9817C122.3333,-230.9817 122.3333,-195.7418 122.3333,-195.7418"/>
<polygon fill="#00ff00" stroke="#00ff00" stroke-width="2" points="125.8334,-195.7418 122.3333,-185.7418 118.8334,-195.7418 125.8334,-195.7418"/>
</g>
<!-- PreCommit&#45;&gt;Active -->
<!-- Active&#45;&gt;Cleared -->
<g id="edge7" class="edge">
<title>Active-&gt;Cleared</title>
<path fill="none" stroke="#0000ff" stroke-width="2" d="M64.6441,-147C52.7208,-147 43,-147 43,-145 45,-145 45,-375 43,-375 43,-373 50.7615,-373 50.7615,-375"/>
<path fill="none" stroke="#ffffff" stroke-width="2" d="M64.6441,-145C52.7208,-145 43,-145 43,-145 43,-145 43,-375 43,-375 43,-375 50.7615,-375 50.7615,-375"/>
<path fill="none" stroke="#a020f0" stroke-width="2" d="M64.6441,-143C52.7208,-143 43,-143 43,-145 41,-145 41,-375 43,-375 43,-377 50.7615,-377 50.7615,-375"/>
<polygon fill="#0000ff" stroke="#0000ff" stroke-width="2" points="50.7616,-378.5001 60.7615,-375 50.7615,-371.5001 50.7616,-378.5001"/>
</g>
<!-- TempFault -->
<g id="node4" class="node">
<title>TempFault</title>
<ellipse fill="none" stroke="#000000" cx="108" cy="-43" rx="43" ry="43"/>
<text text-anchor="middle" x="108" y="-38.8" font-family="Times,serif" font-size="14.00" fill="#000000">TempFault</text>
</g>
<!-- Active&#45;&gt;TempFault -->
<g id="edge4" class="edge">
<title>Active-&gt;TempFault</title>
<path fill="none" stroke="#ffa500" stroke-width="2" d="M93.6667,-104.3938C93.6667,-104.3938 93.6667,-93.7998 93.6667,-93.7998"/>
<polygon fill="#ffa500" stroke="#ffa500" stroke-width="2" points="97.1668,-93.7998 93.6667,-83.7998 90.1668,-93.7999 97.1668,-93.7998"/>
</g>
<!-- TempFault&#45;&gt;Active -->
<g id="edge5" class="edge">
<title>TempFault-&gt;Active</title>
<path fill="none" stroke="#00ffff" stroke-width="2" d="M122.3333,-83.6062C122.3333,-83.6062 122.3333,-94.2002 122.3333,-94.2002"/>
<polygon fill="#00ffff" stroke="#00ffff" stroke-width="2" points="118.8334,-94.2001 122.3333,-104.2002 125.8334,-94.2002 118.8334,-94.2001"/>
</g>
</g>
</svg>