<?xml version="1.0" encoding="UTF-8" standalone="no"?>
<!DOCTYPE svg PUBLIC "-//W3C//DTD SVG 1.1//EN"
 "http://www.w3.org/Graphics/SVG/1.1/DTD/svg11.dtd">
<!-- Generated by graphviz version 2.40.1 (20161225.0304)
 -->
<!-- Title: sector Pages: 1 -->
<svg width="395pt" height="855pt"
 viewBox="0.00 0.00 395.00 855.00" xmlns="http://www.w3.org/2000/svg" xmlns:xlink="http://www.w3.org/1999/xlink">
<g id="graph0" class="graph" transform="scale(1 1) rotate(0) translate(4 851)">
<title>sector</title>
<polygon fill="#ffffff" stroke="transparent" points="-4,4 -4,-851 391,-851 391,4 -4,4"/>
<g id="clust1" class="cluster">
<title>cluster_chain</title>
<polygon fill="none" stroke="#c0c0c0" stroke-width="2" points="8,-8 8,-839 379,-839 379,-8 8,-8"/>
<text text-anchor="middle" x="193.5" y="-823.8" font-family="Times,serif" font-size="14.00" fill="#000000">Sector States in StorageMinerActor</text>
<text text-anchor="middle" x="193.5" y="-809.8" font-family="Times,serif" font-size="14.00" fill="#000000">(on chain)</text>
</g>
<g id="clust2" class="cluster">
<title>cluster_postproving</title>
<polygon fill="#e0eeee" stroke="#e0eeee" points="16,-388 16,-795 358,-795 358,-388 16,-388"/>
<text text-anchor="middle" x="187" y="-779.8" font-family="Times,serif" font-size="14.00" fill="#000000">Proving Set</text>
</g>
<g id="clust3" class="cluster">
<title>cluster_nopowerC1</title>
<polygon fill="#d3d3d3" stroke="#d3d3d3" points="24,-691 24,-765 183,-765 183,-691 24,-691"/>
<text text-anchor="middle" x="103.5" y="-749.8" font-family="Times,serif" font-size="14.00" fill="#000000">Does not count for power</text>
</g>
<g id="clust4" class="cluster">
<title>cluster_nopowerC2</title>
<polygon fill="#d3d3d3" stroke="#d3d3d3" points="191,-691 191,-765 350,-765 350,-691 191,-691"/>
<text text-anchor="middle" x="270.5" y="-749.8" font-family="Times,serif" font-size="14.00" fill="#000000">Does not count for power</text>
</g>
<g id="clust5" class="cluster">
<title>cluster_activate</title>
<polygon fill="#e0eeee" stroke="#e0eeee" points="88,-554 88,-620 214,-620 214,-554 88,-554"/>
</g>
<g id="clust6" class="cluster">
<title>cluster_powerC</title>
<polygon fill="#43cd80" stroke="#43cd80" points="69,-396 69,-470 182,-470 182,-396 69,-396"/>
<text text-anchor="middle" x="125.5" y="-454.8" font-family="Times,serif" font-size="14.00" fill="#000000">Counts for power</text>
</g>
<g id="clust7" class="cluster">
<title>cluster_nopowerC2</title>
<polygon fill="#d3d3d3" stroke="#d3d3d3" points="16,-16 16,-268 371,-268 371,-16 16,-16"/>
<text text-anchor="middle" x="193.5" y="-252.8" font-family="Times,serif" font-size="14.00" fill="#000000">Does not count for power</text>
</g>
<g id="clust8" class="cluster">
<title>cluster_expire_by_post</title>
<polygon fill="#d3d3d3" stroke="#d3d3d3" points="40,-172 40,-238 192,-238 192,-172 40,-172"/>
</g>
<!-- CommittedC -->
<g id="node1" class="node">
<title>CommittedC</title>
<ellipse fill="none" stroke="#000000" cx="82" cy="-717" rx="49.805" ry="18"/>
<text text-anchor="middle" x="82" y="-712.8" font-family="Times,serif" font-size="14.00" fill="#000000">Committed</text>
</g>
<!-- FirstPoSt -->
<g id="node3" class="node">
<title>FirstPoSt</title>
<polygon fill="none" stroke="#006400" points="205.7415,-612 96.2585,-612 96.2585,-562 205.7415,-562 205.7415,-612"/>
<text text-anchor="middle" x="151" y="-596.8" font-family="Times,serif" font-size="14.00" fill="#006400">1st PoSt</text>
<text text-anchor="middle" x="151" y="-582.8" font-family="Times,serif" font-size="14.00" fill="#006400">(sm.SubmitPost)</text>
<text text-anchor="middle" x="151" y="-568.8" font-family="Times,serif" font-size="14.00" fill="#006400">ActivateSectors</text>
</g>
<!-- CommittedC&#45;&gt;FirstPoSt -->
<g id="edge3" class="edge">
<title>CommittedC&#45;&gt;FirstPoSt</title>
<path fill="none" stroke="#006400" d="M114.0159,-703.0877C114.0159,-681.4724 114.0159,-639.4954 114.0159,-612.3836"/>
</g>
<!-- ActiveC -->
<g id="node4" class="node">
<title>ActiveC</title>
<ellipse fill="none" stroke="#000000" cx="120" cy="-422" rx="33.8596" ry="18"/>
<text text-anchor="middle" x="120" y="-417.8" font-family="Times,serif" font-size="14.00" fill="#000000">Active</text>
</g>
<!-- CommittedC&#45;&gt;ActiveC -->
<!-- CommittedC&#45;&gt;ActiveC -->
<!-- ExpireByPost -->
<g id="node7" class="node">
<title>ExpireByPost</title>
<polygon fill="none" stroke="#ffa500" points="183.5889,-230 48.4111,-230 48.4111,-180 183.5889,-180 183.5889,-230"/>
<text text-anchor="middle" x="116" y="-214.8" font-family="Times,serif" font-size="14.00" fill="#ffa500">Expiration Reached</text>
<text text-anchor="middle" x="116" y="-200.8" font-family="Times,serif" font-size="14.00" fill="#ffa500">(sma.CronTick </text>
<text text-anchor="middle" x="116" y="-186.8" font-family="Times,serif" font-size="14.00" fill="#ffa500">&#45;&gt; sm.ExpireSectors)</text>
</g>
<!-- CommittedC&#45;&gt;ExpireByPost -->
<g id="edge13" class="edge">
<title>CommittedC&#45;&gt;ExpireByPost</title>
<path fill="none" stroke="#ffa500" d="M93.6772,-699.1865C93.6772,-644.0694 93.6772,-480 93.6772,-480 93.6772,-480 170.999,-480 170.999,-480 170.999,-480 170.999,-298.457 170.999,-230.3784"/>
</g>
<!-- FaultsDeclared -->
<g id="node8" class="node">
<title>FaultsDeclared</title>
<polygon fill="none" stroke="#0000ff" points="158.4073,-346 35.5927,-346 35.5927,-310 158.4073,-310 158.4073,-346"/>
<text text-anchor="middle" x="97" y="-330.8" font-family="Times,serif" font-size="14.00" fill="#0000ff">Fault Declared</text>
<text text-anchor="middle" x="97" y="-316.8" font-family="Times,serif" font-size="14.00" fill="#0000ff">(sm.DeclareFaults)</text>
</g>
<!-- CommittedC&#45;&gt;FaultsDeclared -->
<g id="edge7" class="edge">
<title>CommittedC&#45;&gt;FaultsDeclared</title>
<path fill="none" stroke="#0000ff" d="M52.4712,-702.2257C52.4712,-641.7175 52.4712,-412.8893 52.4712,-346.2892"/>
</g>
<!-- FaultSpotted -->
<g id="node9" class="node">
<title>FaultSpotted</title>
<polygon fill="none" stroke="#ff00ff" points="311.6753,-353 196.3247,-353 196.3247,-303 311.6753,-303 311.6753,-353"/>
<text text-anchor="middle" x="254" y="-337.8" font-family="Times,serif" font-size="14.00" fill="#ff00ff">Fault Spotted</text>
<text text-anchor="middle" x="254" y="-323.8" font-family="Times,serif" font-size="14.00" fill="#ff00ff">(ca.CronTick </text>
<text text-anchor="middle" x="254" y="-309.8" font-family="Times,serif" font-size="14.00" fill="#ff00ff">&#45;&gt; sm.PostFailed)</text>
</g>
<!-- CommittedC&#45;&gt;FaultSpotted -->
<g id="edge15" class="edge">
<title>CommittedC&#45;&gt;FaultSpotted</title>
<path fill="none" stroke="#ff00ff" d="M69.3959,-699.2506C69.3959,-625.7412 69.3959,-349 69.3959,-349 69.3959,-349 141.9583,-349 196.0966,-349"/>
</g>
<!-- RecoveringC -->
<g id="node2" class="node">
<title>RecoveringC</title>
<ellipse fill="none" stroke="#000000" cx="250" cy="-717" rx="50.7397" ry="18"/>
<text text-anchor="middle" x="250" y="-712.8" font-family="Times,serif" font-size="14.00" fill="#000000">Recovering</text>
</g>
<!-- RecoveringC&#45;&gt;FirstPoSt -->
<g id="edge4" class="edge">
<title>RecoveringC&#45;&gt;FirstPoSt</title>
<path fill="none" stroke="#006400" d="M198.9065,-717C181.1147,-717 165.5164,-717 165.5164,-717 165.5164,-717 165.5164,-649.8418 165.5164,-612.0653"/>
</g>
<!-- RecoveringC&#45;&gt;ExpireByPost -->
<g id="edge12" class="edge">
<title>RecoveringC&#45;&gt;ExpireByPost</title>
<path fill="none" stroke="#ffa500" d="M229.6204,-700.2892C229.6204,-652.8909 229.6204,-521 229.6204,-521 229.6204,-521 177.2717,-521 177.2717,-521 177.2717,-521 177.2717,-304.8008 177.2717,-230.0601"/>
</g>
<!-- RecoveringC&#45;&gt;FaultsDeclared -->
<g id="edge6" class="edge">
<title>RecoveringC&#45;&gt;FaultsDeclared</title>
<path fill="none" stroke="#0000ff" d="M253.3701,-698.7739C253.3701,-628.3601 253.3701,-378 253.3701,-378 253.3701,-378 136.8397,-378 136.8397,-378 136.8397,-378 136.8397,-360.373 136.8397,-346.0511"/>
</g>
<!-- RecoveringC&#45;&gt;FaultSpotted -->
<g id="edge17" class="edge">
<title>RecoveringC&#45;&gt;FaultSpotted</title>
<path fill="none" stroke="#ff00ff" d="M277.1199,-701.7507C277.1199,-642.4725 277.1199,-427.0082 277.1199,-353.0907"/>
</g>
<!-- FirstPoSt&#45;&gt;ActiveC -->
<g id="edge5" class="edge">
<title>FirstPoSt&#45;&gt;ActiveC</title>
<path fill="none" stroke="#006400" d="M124.9044,-561.9401C124.9044,-561.9401 124.9044,-450.1447 124.9044,-450.1447"/>
<polygon fill="#006400" stroke="#006400" points="128.4045,-450.1447 124.9044,-440.1447 121.4045,-450.1447 128.4045,-450.1447"/>
</g>
<!-- ActiveC&#45;&gt;ExpireByPost -->
<g id="edge11" class="edge">
<title>ActiveC&#45;&gt;ExpireByPost</title>
<path fill="none" stroke="#ffa500" d="M149.3341,-413C157.7644,-413 164.7263,-413 164.7263,-413 164.7263,-413 164.7263,-285.4113 164.7263,-230.0897"/>
</g>
<!-- ActiveC&#45;&gt;FaultsDeclared -->
<g id="edge8" class="edge">
<title>ActiveC&#45;&gt;FaultsDeclared</title>
<path fill="none" stroke="#0000ff" d="M103.1603,-406.0542C103.1603,-389.5021 103.1603,-363.649 103.1603,-346.2809"/>
</g>
<!-- ActiveC&#45;&gt;FaultsDeclared -->
<!-- ActiveC&#45;&gt;FaultSpotted -->
<g id="edge16" class="edge">
<title>ActiveC&#45;&gt;FaultSpotted</title>
<path fill="none" stroke="#ff00ff" d="M149.3665,-431C173.1181,-431 202.6346,-431 202.6346,-431 202.6346,-431 202.6346,-383.6896 202.6346,-353.1966"/>
</g>
<!-- ActiveC&#45;&gt;FaultSpotted -->
<!-- FaultedC -->
<g id="node5" class="node">
<title>FaultedC</title>
<ellipse fill="none" stroke="#000000" cx="254" cy="-205" rx="36.7663" ry="18"/>
<text text-anchor="middle" x="254" y="-200.8" font-family="Times,serif" font-size="14.00" fill="#000000">Faulted</text>
</g>
<!-- FaultedC&#45;&gt;RecoveringC -->
<g id="edge10" class="edge">
<title>FaultedC&#45;&gt;RecoveringC</title>
<path fill="none" stroke="#000000" d="M291.0301,-205C310.2809,-205 329.8374,-205 329.8374,-205 329.8374,-205 329.8374,-717 329.8374,-717 329.8374,-717 311.0143,-717 311.0143,-717"/>
<polygon fill="#000000" stroke="#000000" points="311.0143,-713.5001 301.0143,-717 311.0142,-720.5001 311.0143,-713.5001"/>
<text text-anchor="middle" x="320.3535" y="-507.8" font-family="Times,serif" font-size="14.00" fill="#000000">sm.RecoverFaults</text>
</g>
<!-- ExpiredC -->
<g id="node6" class="node">
<title>ExpiredC</title>
<ellipse fill="none" stroke="#000000" cx="273" cy="-42" rx="37.7092" ry="18"/>
<text text-anchor="middle" x="273" y="-37.8" font-family="Times,serif" font-size="14.00" fill="#000000">Cleared</text>
</g>
<!-- FaultedC&#45;&gt;ExpiredC -->
<g id="edge1" class="edge">
<title>FaultedC&#45;&gt;ExpiredC</title>
<path fill="none" stroke="#ff00ff" d="M257.4905,-186.9334C257.4905,-186.9334 257.4905,-68.6778 257.4905,-68.6778"/>
<polygon fill="#ff00ff" stroke="#ff00ff" points="260.9906,-68.6778 257.4905,-58.6778 253.9906,-68.6779 260.9906,-68.6778"/>
<text text-anchor="middle" x="282.0244" y="-125.8" font-family="Times,serif" font-size="14.00" fill="#ff00ff">Expiry epoch reached</text>
<text text-anchor="middle" x="282.0244" y="-111.8" font-family="Times,serif" font-size="14.00" fill="#ff00ff">(sma.CronTick </text>
<text text-anchor="middle" x="282.0244" y="-97.8" font-family="Times,serif" font-size="14.00" fill="#ff00ff">&#45;&gt; sm.ExpireSectors)</text>
</g>
<!-- FaultedC&#45;&gt;ExpiredC -->
<g id="edge2" class="edge">
<title>FaultedC&#45;&gt;ExpiredC</title>
<path fill="none" stroke="#ff00ff" d="M268.538,-188.4737C268.538,-188.4737 268.538,-70.0544 268.538,-70.0544"/>
<polygon fill="#ff00ff" stroke="#ff00ff" points="272.0381,-70.0544 268.538,-60.0544 265.0381,-70.0544 272.0381,-70.0544"/>
<text text-anchor="middle" x="123.4893" y="-125.8" font-family="Times,serif" font-size="14.00" fill="#ff00ff">Faulted 3+ times</text>
<text text-anchor="middle" x="123.4893" y="-111.8" font-family="Times,serif" font-size="14.00" fill="#ff00ff">(sma.CronTick </text>
<text text-anchor="middle" x="123.4893" y="-97.8" font-family="Times,serif" font-size="14.00" fill="#ff00ff">&#45;&gt; sm.SectorCleanup)</text>
</g>
<!-- FaultedC&#45;&gt;ExpiredC -->
<!-- FaultedC&#45;&gt;ExpiredC -->
<!-- ExpireByPost&#45;&gt;ExpiredC -->
<g id="edge14" class="edge">
<title>ExpireByPost&#45;&gt;ExpiredC</title>
<path fill="none" stroke="#ffa500" d="M183.6969,-183C236.387,-183 300.6187,-183 300.6187,-183 300.6187,-183 300.6187,-64.5128 300.6187,-64.5128"/>
<polygon fill="#ffa500" stroke="#ffa500" points="304.1188,-64.5128 300.6187,-54.5128 297.1188,-64.5128 304.1188,-64.5128"/>
</g>
<!-- FaultsDeclared&#45;&gt;FaultedC -->
<g id="edge9" class="edge">
<title>FaultsDeclared&#45;&gt;FaultedC</title>
<path fill="none" stroke="#0000ff" d="M158.4784,-334C176.7338,-334 191.9565,-334 191.9565,-334 191.9565,-334 191.9565,-211 191.9565,-211 191.9565,-211 209.3503,-211 209.3503,-211"/>
<polygon fill="#0000ff" stroke="#0000ff" points="209.3503,-214.5001 219.3503,-211 209.3503,-207.5001 209.3503,-214.5001"/>
</g>
<!-- FaultsDeclared&#45;&gt;FaultedC -->
<!-- FaultSpotted&#45;&gt;FaultedC -->
<g id="edge18" class="edge">
<title>FaultSpotted&#45;&gt;FaultedC</title>
<path fill="none" stroke="#ff00ff" d="M266.211,-302.8123C266.211,-302.8123 266.211,-232.2392 266.211,-232.2392"/>
<polygon fill="#ff00ff" stroke="#ff00ff" points="269.7111,-232.2392 266.211,-222.2392 262.7111,-232.2393 269.7111,-232.2392"/>
</g>
<!-- FaultSpotted&#45;&gt;FaultedC -->
</g>
</svg>
