<?xml version="1.0" encoding="UTF-8" standalone="no"?>
<!DOCTYPE svg PUBLIC "-//W3C//DTD SVG 1.1//EN"
 "http://www.w3.org/Graphics/SVG/1.1/DTD/svg11.dtd">
<!-- Generated by graphviz version 2.40.1 (20161225.0304)
 -->
<!-- Title: Actors Pages: 1 -->
<svg width="892pt" height="453pt"
 viewBox="0.00 0.00 891.62 453.36" xmlns="http://www.w3.org/2000/svg" xmlns:xlink="http://www.w3.org/1999/xlink">
<g id="graph0" class="graph" transform="scale(1 1) rotate(0) translate(4 449.3584)">
<title>Actors</title>
<polygon fill="#ffffff" stroke="transparent" points="-4,4 -4,-449.3584 887.6191,-449.3584 887.6191,4 -4,4"/>
<!-- Actor -->
<g id="node1" class="node">
<title>Actor</title>
<path fill="none" stroke="#000000" d="M338.8027,-362.1895C338.8027,-362.1895 372.8096,-362.1895 372.8096,-362.1895 378.8096,-362.1895 384.8096,-368.1895 384.8096,-374.1895 384.8096,-374.1895 384.8096,-432.8584 384.8096,-432.8584 384.8096,-438.8584 378.8096,-444.8584 372.8096,-444.8584 372.8096,-444.8584 338.8027,-444.8584 338.8027,-444.8584 332.8027,-444.8584 326.8027,-438.8584 326.8027,-432.8584 326.8027,-432.8584 326.8027,-374.1895 326.8027,-374.1895 326.8027,-368.1895 332.8027,-362.1895 338.8027,-362.1895"/>
<text text-anchor="middle" x="355.8062" y="-429.6584" font-family="monaco" font-size="14.00" fill="#000000">Actor</text>
<polyline fill="none" stroke="#000000" points="326.8027,-418.1895 384.8096,-418.1895 "/>
</g>
<!-- ActorState -->
<g id="node2" class="node">
<title>ActorState</title>
<path fill="none" stroke="#000000" d="M279.9932,-234.5137C279.9932,-234.5137 431.6191,-234.5137 431.6191,-234.5137 437.6191,-234.5137 443.6191,-240.5137 443.6191,-246.5137 443.6191,-246.5137 443.6191,-313.1895 443.6191,-313.1895 443.6191,-319.1895 437.6191,-325.1895 431.6191,-325.1895 431.6191,-325.1895 279.9932,-325.1895 279.9932,-325.1895 273.9932,-325.1895 267.9932,-319.1895 267.9932,-313.1895 267.9932,-313.1895 267.9932,-246.5137 267.9932,-246.5137 267.9932,-240.5137 273.9932,-234.5137 279.9932,-234.5137"/>
<text text-anchor="middle" x="355.8062" y="-309.9895" font-family="monaco" font-size="14.00" fill="#000000">ActorState</text>
<polyline fill="none" stroke="#000000" points="267.9932,-298.5205 443.6191,-298.5205 "/>
<text text-anchor="middle" x="355.8062" y="-283.3205" font-family="monaco" font-size="14.00" fill="#000000">Balance TokenAmount</text>
<text text-anchor="middle" x="355.8062" y="-264.6516" font-family="monaco" font-size="14.00" fill="#000000"> SeqNo CallSeqNo</text>
<text text-anchor="middle" x="355.8062" y="-245.9826" font-family="monaco" font-size="14.00" fill="#000000">State ActorSubstate</text>
</g>
<!-- Actor&#45;&gt;ActorState -->
<g id="edge7" class="edge">
<title>Actor&#45;&gt;ActorState</title>
<path fill="none" stroke="#000000" d="M355.8062,-361.9988C355.8062,-353.4334 355.8062,-344.2831 355.8062,-335.3136"/>
<polygon fill="#000000" stroke="#000000" points="359.3063,-335.3044 355.8062,-325.3045 352.3063,-335.3045 359.3063,-335.3044"/>
</g>
<!-- ActorSubstate -->
<g id="node3" class="node">
<title>ActorSubstate</title>
<path fill="none" stroke="#000000" d="M305.1973,-146.8447C305.1973,-146.8447 406.415,-146.8447 406.415,-146.8447 412.415,-146.8447 418.415,-152.8447 418.415,-158.8447 418.415,-158.8447 418.415,-185.5137 418.415,-185.5137 418.415,-191.5137 412.415,-197.5137 406.415,-197.5137 406.415,-197.5137 305.1973,-197.5137 305.1973,-197.5137 299.1973,-197.5137 293.1973,-191.5137 293.1973,-185.5137 293.1973,-185.5137 293.1973,-158.8447 293.1973,-158.8447 293.1973,-152.8447 299.1973,-146.8447 305.1973,-146.8447"/>
<text text-anchor="middle" x="355.8062" y="-182.3137" font-family="monaco" font-size="14.00" fill="#000000">ActorSubstate</text>
<polyline fill="none" stroke="#000000" points="293.1973,-170.8447 418.415,-170.8447 "/>
</g>
<!-- ActorState&#45;&gt;ActorSubstate -->
<g id="edge8" class="edge">
<title>ActorState&#45;&gt;ActorSubstate</title>
<path fill="none" stroke="#000000" d="M355.8062,-234.5009C355.8062,-225.5117 355.8062,-216.1989 355.8062,-207.5989"/>
<polygon fill="#000000" stroke="#000000" points="359.3063,-207.532 355.8062,-197.532 352.3063,-207.5321 359.3063,-207.532"/>
</g>
<!-- InitActorState -->
<g id="node4" class="node">
<title>InitActorState</title>
<path fill="none" stroke="#000000" d="M12,-.5C12,-.5 79.6123,-.5 79.6123,-.5 85.6123,-.5 91.6123,-6.5 91.6123,-12.5 91.6123,-12.5 91.6123,-97.8447 91.6123,-97.8447 91.6123,-103.8447 85.6123,-109.8447 79.6123,-109.8447 79.6123,-109.8447 12,-109.8447 12,-109.8447 6,-109.8447 0,-103.8447 0,-97.8447 0,-97.8447 0,-12.5 0,-12.5 0,-6.5 6,-.5 12,-.5"/>
<text text-anchor="middle" x="45.8062" y="-94.6447" font-family="monaco" font-size="14.00" fill="#000000">InitActor</text>
<polyline fill="none" stroke="#000000" points="0,-83.1758 91.6123,-83.1758 "/>
<text text-anchor="middle" x="45.8062" y="-67.9758" font-family="monaco" font-size="14.00" fill="#000000">...</text>
<text text-anchor="middle" x="45.8062" y="-49.3068" font-family="monaco" font-size="14.00" fill="#000000">...</text>
<text text-anchor="middle" x="45.8062" y="-30.6379" font-family="monaco" font-size="14.00" fill="#000000">...</text>
<text text-anchor="middle" x="45.8062" y="-11.9689" font-family="monaco" font-size="14.00" fill="#000000">...</text>
</g>
<!-- ActorSubstate&#45;&gt;InitActorState -->
<g id="edge1" class="edge">
<title>ActorSubstate&#45;&gt;InitActorState</title>
<path fill="none" stroke="#000000" stroke-dasharray="5,2" d="M293.0921,-166.5955C239.2197,-159.6256 160.9557,-144.182 100.8062,-110.3447 100.6146,-110.237 100.4233,-110.1284 100.2322,-110.0189"/>
<polygon fill="#000000" stroke="#000000" points="102.0983,-107.0577 91.7978,-104.5779 98.3037,-112.94 102.0983,-107.0577"/>
</g>
<!-- CronActorState -->
<g id="node5" class="node">
<title>CronActorState</title>
<path fill="none" stroke="#000000" d="M122,-.5C122,-.5 189.6123,-.5 189.6123,-.5 195.6123,-.5 201.6123,-6.5 201.6123,-12.5 201.6123,-12.5 201.6123,-97.8447 201.6123,-97.8447 201.6123,-103.8447 195.6123,-109.8447 189.6123,-109.8447 189.6123,-109.8447 122,-109.8447 122,-109.8447 116,-109.8447 110,-103.8447 110,-97.8447 110,-97.8447 110,-12.5 110,-12.5 110,-6.5 116,-.5 122,-.5"/>
<text text-anchor="middle" x="155.8062" y="-94.6447" font-family="monaco" font-size="14.00" fill="#000000">CronActor</text>
<polyline fill="none" stroke="#000000" points="110,-83.1758 201.6123,-83.1758 "/>
<text text-anchor="middle" x="155.8062" y="-67.9758" font-family="monaco" font-size="14.00" fill="#000000">...</text>
<text text-anchor="middle" x="155.8062" y="-49.3068" font-family="monaco" font-size="14.00" fill="#000000">...</text>
<text text-anchor="middle" x="155.8062" y="-30.6379" font-family="monaco" font-size="14.00" fill="#000000">...</text>
<text text-anchor="middle" x="155.8062" y="-11.9689" font-family="monaco" font-size="14.00" fill="#000000">...</text>
</g>
<!-- ActorSubstate&#45;&gt;CronActorState -->
<g id="edge2" class="edge">
<title>ActorSubstate&#45;&gt;CronActorState</title>
<path fill="none" stroke="#000000" stroke-dasharray="5,2" d="M293.1596,-151.527C266.5643,-141.2588 235.9627,-127.3722 210.8062,-110.3447 210.5226,-110.1528 210.2394,-109.9593 209.9563,-109.7643"/>
<polygon fill="#000000" stroke="#000000" points="211.9508,-106.8857 201.8402,-103.7193 207.7695,-112.4997 211.9508,-106.8857"/>
</g>
<!-- AccountActorState -->
<g id="node6" class="node">
<title>AccountActorState</title>
<path fill="none" stroke="#000000" d="M231.3979,-.5C231.3979,-.5 324.2144,-.5 324.2144,-.5 330.2144,-.5 336.2144,-6.5 336.2144,-12.5 336.2144,-12.5 336.2144,-97.8447 336.2144,-97.8447 336.2144,-103.8447 330.2144,-109.8447 324.2144,-109.8447 324.2144,-109.8447 231.3979,-109.8447 231.3979,-109.8447 225.3979,-109.8447 219.3979,-103.8447 219.3979,-97.8447 219.3979,-97.8447 219.3979,-12.5 219.3979,-12.5 219.3979,-6.5 225.3979,-.5 231.3979,-.5"/>
<text text-anchor="middle" x="277.8062" y="-94.6447" font-family="monaco" font-size="14.00" fill="#000000">AccountActor</text>
<polyline fill="none" stroke="#000000" points="219.3979,-83.1758 336.2144,-83.1758 "/>
<text text-anchor="middle" x="277.8062" y="-67.9758" font-family="monaco" font-size="14.00" fill="#000000">...</text>
<text text-anchor="middle" x="277.8062" y="-49.3068" font-family="monaco" font-size="14.00" fill="#000000">...</text>
<text text-anchor="middle" x="277.8062" y="-30.6379" font-family="monaco" font-size="14.00" fill="#000000">...</text>
<text text-anchor="middle" x="277.8062" y="-11.9689" font-family="monaco" font-size="14.00" fill="#000000">...</text>
</g>
<!-- ActorSubstate&#45;&gt;AccountActorState -->
<g id="edge3" class="edge">
<title>ActorSubstate&#45;&gt;AccountActorState</title>
<path fill="none" stroke="#000000" stroke-dasharray="5,2" d="M338.8813,-146.7905C333.2806,-138.3889 326.7743,-128.6289 320.1383,-118.6743"/>
<polygon fill="#000000" stroke="#000000" points="323.0097,-116.6717 314.5507,-110.2924 317.1853,-120.5544 323.0097,-116.6717"/>
</g>
<!-- StorageMinerActorState -->
<g id="node7" class="node">
<title>StorageMinerActorState</title>
<path fill="none" stroke="#000000" d="M366.3945,-.5C366.3945,-.5 501.2178,-.5 501.2178,-.5 507.2178,-.5 513.2178,-6.5 513.2178,-12.5 513.2178,-12.5 513.2178,-97.8447 513.2178,-97.8447 513.2178,-103.8447 507.2178,-109.8447 501.2178,-109.8447 501.2178,-109.8447 366.3945,-109.8447 366.3945,-109.8447 360.3945,-109.8447 354.3945,-103.8447 354.3945,-97.8447 354.3945,-97.8447 354.3945,-12.5 354.3945,-12.5 354.3945,-6.5 360.3945,-.5 366.3945,-.5"/>
<text text-anchor="middle" x="433.8062" y="-94.6447" font-family="monaco" font-size="14.00" fill="#000000">StorageMinerActor</text>
<polyline fill="none" stroke="#000000" points="354.3945,-83.1758 513.2178,-83.1758 "/>
<text text-anchor="middle" x="433.8062" y="-67.9758" font-family="monaco" font-size="14.00" fill="#000000">...</text>
<text text-anchor="middle" x="433.8062" y="-49.3068" font-family="monaco" font-size="14.00" fill="#000000">...</text>
<text text-anchor="middle" x="433.8062" y="-30.6379" font-family="monaco" font-size="14.00" fill="#000000">...</text>
<text text-anchor="middle" x="433.8062" y="-11.9689" font-family="monaco" font-size="14.00" fill="#000000">...</text>
</g>
<!-- ActorSubstate&#45;&gt;StorageMinerActorState -->
<g id="edge4" class="edge">
<title>ActorSubstate&#45;&gt;StorageMinerActorState</title>
<path fill="none" stroke="#000000" stroke-dasharray="5,2" d="M372.731,-146.7905C378.3317,-138.3889 384.838,-128.6289 391.474,-118.6743"/>
<polygon fill="#000000" stroke="#000000" points="394.427,-120.5544 397.0616,-110.2924 388.6026,-116.6717 394.427,-120.5544"/>
</g>
<!-- StoragePowerActorState -->
<g id="node8" class="node">
<title>StoragePowerActorState</title>
<path fill="none" stroke="#000000" d="M543.3945,-.5C543.3945,-.5 678.2178,-.5 678.2178,-.5 684.2178,-.5 690.2178,-6.5 690.2178,-12.5 690.2178,-12.5 690.2178,-97.8447 690.2178,-97.8447 690.2178,-103.8447 684.2178,-109.8447 678.2178,-109.8447 678.2178,-109.8447 543.3945,-109.8447 543.3945,-109.8447 537.3945,-109.8447 531.3945,-103.8447 531.3945,-97.8447 531.3945,-97.8447 531.3945,-12.5 531.3945,-12.5 531.3945,-6.5 537.3945,-.5 543.3945,-.5"/>
<text text-anchor="middle" x="610.8062" y="-94.6447" font-family="monaco" font-size="14.00" fill="#000000">StoragePowerActor</text>
<polyline fill="none" stroke="#000000" points="531.3945,-83.1758 690.2178,-83.1758 "/>
<text text-anchor="middle" x="610.8062" y="-67.9758" font-family="monaco" font-size="14.00" fill="#000000">...</text>
<text text-anchor="middle" x="610.8062" y="-49.3068" font-family="monaco" font-size="14.00" fill="#000000">...</text>
<text text-anchor="middle" x="610.8062" y="-30.6379" font-family="monaco" font-size="14.00" fill="#000000">...</text>
<text text-anchor="middle" x="610.8062" y="-11.9689" font-family="monaco" font-size="14.00" fill="#000000">...</text>
</g>
<!-- ActorSubstate&#45;&gt;StoragePowerActorState -->
<g id="edge5" class="edge">
<title>ActorSubstate&#45;&gt;StoragePowerActorState</title>
<path fill="none" stroke="#000000" stroke-dasharray="5,2" d="M418.5201,-152.1201C450.1226,-141.1898 488.6683,-126.5879 521.8062,-110.3447 521.9031,-110.2972 522,-110.2496 522.097,-110.202"/>
<polygon fill="#000000" stroke="#000000" points="523.8614,-113.2311 531.1788,-105.5691 520.6805,-106.9955 523.8614,-113.2311"/>
</g>
<!-- PaymentChannelActorState -->
<g id="node9" class="node">
<title>PaymentChannelActorState</title>
<path fill="none" stroke="#000000" d="M719.9932,-.5C719.9932,-.5 871.6191,-.5 871.6191,-.5 877.6191,-.5 883.6191,-6.5 883.6191,-12.5 883.6191,-12.5 883.6191,-97.8447 883.6191,-97.8447 883.6191,-103.8447 877.6191,-109.8447 871.6191,-109.8447 871.6191,-109.8447 719.9932,-109.8447 719.9932,-109.8447 713.9932,-109.8447 707.9932,-103.8447 707.9932,-97.8447 707.9932,-97.8447 707.9932,-12.5 707.9932,-12.5 707.9932,-6.5 713.9932,-.5 719.9932,-.5"/>
<text text-anchor="middle" x="795.8062" y="-94.6447" font-family="monaco" font-size="14.00" fill="#000000">PaymentChannelActor</text>
<polyline fill="none" stroke="#000000" points="707.9932,-83.1758 883.6191,-83.1758 "/>
<text text-anchor="middle" x="795.8062" y="-67.9758" font-family="monaco" font-size="14.00" fill="#000000">...</text>
<text text-anchor="middle" x="795.8062" y="-49.3068" font-family="monaco" font-size="14.00" fill="#000000">...</text>
<text text-anchor="middle" x="795.8062" y="-30.6379" font-family="monaco" font-size="14.00" fill="#000000">...</text>
<text text-anchor="middle" x="795.8062" y="-11.9689" font-family="monaco" font-size="14.00" fill="#000000">...</text>
</g>
<!-- ActorSubstate&#45;&gt;PaymentChannelActorState -->
<g id="edge6" class="edge">
<title>ActorSubstate&#45;&gt;PaymentChannelActorState</title>
<path fill="none" stroke="#000000" stroke-dasharray="5,2" d="M418.4813,-167.2863C486.4164,-160.5743 597.5367,-145.4744 698.436,-110.1902"/>
<polygon fill="#000000" stroke="#000000" points="699.6142,-113.486 707.8543,-106.8262 697.2597,-106.8938 699.6142,-113.486"/>
</g>
</g>
</svg>
