<?xml version="1.0" encoding="UTF-8" standalone="no"?>
<!DOCTYPE svg PUBLIC "-//W3C//DTD SVG 1.1//EN"
 "http://www.w3.org/Graphics/SVG/1.1/DTD/svg11.dtd">
<!-- Generated by graphviz version 2.40.1 (20161225.0304)
 -->
<!-- Title: sector Pages: 1 -->
<svg width="378pt" height="648pt"
 viewBox="0.00 0.00 377.82 648.00" xmlns="http://www.w3.org/2000/svg" xmlns:xlink="http://www.w3.org/1999/xlink">
<g id="graph0" class="graph" transform="scale(1 1) rotate(0) translate(4 644)">
<title>sector</title>
<polygon fill="#ffffff" stroke="transparent" points="-4,4 -4,-644 373.8154,-644 373.8154,4 -4,4"/>
<!-- INIT -->
<g id="node1" class="node">
<title>INIT</title>
<polygon fill="#d6d6d6" stroke="#d6d6d6" points="260.2344,-640 206.2344,-640 206.2344,-604 260.2344,-604 260.2344,-640"/>
<text text-anchor="middle" x="233.2344" y="-617.8" font-family="monospace" font-size="14.00" fill="#000000">INIT</text>
</g>
<!-- init2boot -->
<g id="node6" class="node">
<title>init2boot</title>
<text text-anchor="start" x="108.1807" y="-553.8" font-family="Times,serif" font-size="14.00" fill="#000000"> </text>
<text text-anchor="start" x="111.6807" y="-553.8" font-family="Times,serif" font-style="italic" font-size="14.00" fill="#000000">prepare and verify</text>
<text text-anchor="start" x="114.7808" y="-539.8" font-family="Times,serif" font-style="italic" font-size="14.00" fill="#000000">all internal state</text>
<text text-anchor="start" x="204.188" y="-539.8" font-family="Times,serif" font-size="14.00" fill="#000000"> </text>
</g>
<!-- INIT&#45;&gt;init2boot -->
<g id="edge1" class="edge">
<title>INIT&#45;&gt;init2boot</title>
<path fill="none" stroke="#000000" d="M215.0657,-603.8314C204.2344,-593 190.522,-579.2876 179.6476,-568.4133"/>
</g>
<!-- follow2init -->
<g id="node12" class="node">
<title>follow2init</title>
<text text-anchor="start" x="248.6533" y="-546.8" font-family="Times,serif" font-size="14.00" fill="#ff0000"> </text>
<text text-anchor="start" x="252.1533" y="-546.8" font-family="Times,serif" font-style="italic" font-size="14.00" fill="#ff0000">on shut down node</text>
<text text-anchor="start" x="358.3154" y="-546.8" font-family="Times,serif" font-size="14.00" fill="#ff0000"> </text>
</g>
<!-- INIT&#45;&gt;follow2init -->
<g id="edge12" class="edge">
<title>INIT&#45;&gt;follow2init</title>
<path fill="none" stroke="#ff0000" d="M258.5881,-596.6463C267.893,-587.3414 278.2406,-576.9938 286.8211,-568.4133"/>
<polygon fill="#ff0000" stroke="#ff0000" points="255.9992,-594.2854 251.403,-603.8314 260.949,-599.2351 255.9992,-594.2854"/>
</g>
<!-- BOOTSTRAP -->
<g id="node2" class="node">
<title>BOOTSTRAP</title>
<polygon fill="#d6d6d6" stroke="#d6d6d6" points="212.5797,-496 109.8891,-496 109.8891,-460 212.5797,-460 212.5797,-496"/>
<text text-anchor="middle" x="161.2344" y="-473.8" font-family="monospace" font-size="14.00" fill="#000000">BOOTSTRAP</text>
</g>
<!-- boot2check -->
<g id="node7" class="node">
<title>boot2check</title>
<text text-anchor="start" x="51.8809" y="-409.8" font-family="Times,serif" font-size="14.00" fill="#000000"> </text>
<text text-anchor="start" x="55.3809" y="-409.8" font-family="Times,serif" font-style="italic" font-size="14.00" fill="#000000">done bootstrapping.</text>
<text text-anchor="start" x="40.0342" y="-395.8" font-family="Times,serif" font-weight="bold" font-style="italic" font-size="14.00" fill="#000000">DO NOT</text>
<text text-anchor="start" x="92.5273" y="-395.8" font-family="Times,serif" font-style="italic" font-size="14.00" fill="#000000"> &#160;&#160;have state for</text>
<text text-anchor="start" x="42.02" y="-381.8" font-family="Times,serif" font-style="italic" text-decoration="underline" font-size="14.00" fill="#000000">LastTrustedCheckpoint</text>
<text text-anchor="start" x="172.9487" y="-381.8" font-family="Times,serif" font-size="14.00" fill="#000000"> </text>
</g>
<!-- BOOTSTRAP&#45;&gt;boot2check -->
<g id="edge2" class="edge">
<title>BOOTSTRAP&#45;&gt;boot2check</title>
<path fill="none" stroke="#000000" d="M149.1738,-459.6772C142.2132,-449.1025 133.3602,-435.6527 125.7589,-424.1046"/>
</g>
<!-- boot2catch -->
<g id="node8" class="node">
<title>boot2catch</title>
<text text-anchor="start" x="189.8809" y="-323.8" font-family="Times,serif" font-size="14.00" fill="#000000"> </text>
<text text-anchor="start" x="193.3809" y="-323.8" font-family="Times,serif" font-style="italic" font-size="14.00" fill="#000000">done bootstrapping.</text>
<text text-anchor="start" x="194.1704" y="-309.8" font-family="Times,serif" font-weight="bold" font-style="italic" font-size="14.00" fill="#000000">DO</text>
<text text-anchor="start" x="214.3911" y="-309.8" font-family="Times,serif" font-style="italic" font-size="14.00" fill="#000000"> &#160;&#160;have state for</text>
<text text-anchor="start" x="180.02" y="-295.8" font-family="Times,serif" font-style="italic" text-decoration="underline" font-size="14.00" fill="#000000">LastTrustedCheckpoint</text>
<text text-anchor="start" x="310.9487" y="-295.8" font-family="Times,serif" font-size="14.00" fill="#000000"> </text>
</g>
<!-- BOOTSTRAP&#45;&gt;boot2catch -->
<g id="edge3" class="edge">
<title>BOOTSTRAP&#45;&gt;boot2catch</title>
<path fill="none" stroke="#000000" d="M173.4554,-459.8441C180.2009,-449.5228 188.5419,-436.25 195.2344,-424 210.9466,-395.2399 226.5727,-360.9134 236.5304,-338.1252"/>
</g>
<!-- SYNC_CHECKPOINT -->
<g id="node3" class="node">
<title>SYNC_CHECKPOINT</title>
<polygon fill="#d6d6d6" stroke="#d6d6d6" points="154.7038,-331 -.2351,-331 -.2351,-295 154.7038,-295 154.7038,-331"/>
<text text-anchor="middle" x="77.2344" y="-308.8" font-family="monospace" font-size="14.00" fill="#000000">SYNC_CHECKPOINT</text>
</g>
<!-- check2catch -->
<g id="node9" class="node">
<title>check2catch</title>
<text text-anchor="start" x="49.1963" y="-237.8" font-family="Times,serif" font-size="14.00" fill="#000000"> </text>
<text text-anchor="start" x="52.6963" y="-237.8" font-family="Times,serif" font-style="italic" font-size="14.00" fill="#000000">done getting state for</text>
<text text-anchor="start" x="43.02" y="-223.8" font-family="Times,serif" font-style="italic" text-decoration="underline" font-size="14.00" fill="#000000">LastTrustedCheckpoint</text>
<text text-anchor="start" x="173.9487" y="-223.8" font-family="Times,serif" font-size="14.00" fill="#000000"> </text>
</g>
<!-- SYNC_CHECKPOINT&#45;&gt;check2catch -->
<g id="edge4" class="edge">
<title>SYNC_CHECKPOINT&#45;&gt;check2catch</title>
<path fill="none" stroke="#000000" d="M84.8882,-294.6772C90.2194,-281.9146 97.3,-264.9642 102.6221,-252.2234"/>
</g>
<!-- CHAIN_CATCHUP -->
<g id="node4" class="node">
<title>CHAIN_CATCHUP</title>
<polygon fill="#d6d6d6" stroke="#d6d6d6" points="228.2158,-180 94.2529,-180 94.2529,-144 228.2158,-144 228.2158,-180"/>
<text text-anchor="middle" x="161.2344" y="-157.8" font-family="monospace" font-size="14.00" fill="#000000">CHAIN_CATCHUP</text>
</g>
<!-- catch2follow -->
<g id="node10" class="node">
<title>catch2follow</title>
<text text-anchor="start" x="26.1343" y="-93.8" font-family="Times,serif" font-size="14.00" fill="#000000"> </text>
<text text-anchor="start" x="29.6343" y="-93.8" font-family="Times,serif" font-style="italic" font-size="14.00" fill="#000000">done validating</text>
<text text-anchor="start" x="8.6719" y="-79.8" font-family="Times,serif" font-style="italic" font-size="14.00" fill="#000000">up to </text>
<text text-anchor="start" x="40.5615" y="-79.8" font-family="Times,serif" font-style="italic" text-decoration="underline" font-size="14.00" fill="#000000">BestTargetHead</text>
<text text-anchor="start" x="130.2969" y="-79.8" font-family="Times,serif" font-size="14.00" fill="#000000"> </text>
</g>
<!-- CHAIN_CATCHUP&#45;&gt;catch2follow -->
<g id="edge5" class="edge">
<title>CHAIN_CATCHUP&#45;&gt;catch2follow</title>
<path fill="none" stroke="#000000" d="M138.5236,-143.8314C124.8803,-132.9167 107.5799,-119.0764 93.9379,-108.1628"/>
</g>
<!-- follow2catch -->
<g id="node11" class="node">
<title>follow2catch</title>
<text text-anchor="start" x="167.4893" y="-93.8" font-family="Times,serif" font-size="14.00" fill="#ff0000"> </text>
<text text-anchor="start" x="170.9893" y="-93.8" font-family="Times,serif" font-style="italic" font-size="14.00" fill="#ff0000">new unvalidated gap between</text>
<text text-anchor="start" x="168.6787" y="-79.8" font-family="Times,serif" font-style="italic" text-decoration="underline" font-size="14.00" fill="#ff0000">ValidG</text>
<text text-anchor="start" x="208.3408" y="-79.8" font-family="Times,serif" font-style="italic" font-size="14.00" fill="#ff0000"> &#160;&#160;and </text>
<text text-anchor="start" x="242.5547" y="-79.8" font-family="Times,serif" font-style="italic" text-decoration="underline" font-size="14.00" fill="#ff0000">BestTargetHead</text>
<text text-anchor="start" x="332.29" y="-79.8" font-family="Times,serif" font-size="14.00" fill="#ff0000"> </text>
</g>
<!-- CHAIN_CATCHUP&#45;&gt;follow2catch -->
<g id="edge11" class="edge">
<title>CHAIN_CATCHUP&#45;&gt;follow2catch</title>
<path fill="none" stroke="#ff0000" d="M192.2984,-137.4219C204.4221,-127.8295 218.0713,-117.0301 229.2786,-108.1628"/>
<polygon fill="#ff0000" stroke="#ff0000" points="189.868,-134.8817 184.1975,-143.8314 194.2114,-140.3713 189.868,-134.8817"/>
</g>
<!-- CHAIN_FOLLOW -->
<g id="node5" class="node">
<title>CHAIN_FOLLOW</title>
<polygon fill="#43cd80" stroke="#43cd80" points="134.6971,-36 7.7716,-36 7.7716,0 134.6971,0 134.6971,-36"/>
<text text-anchor="middle" x="71.2344" y="-13.8" font-family="monospace" font-size="14.00" fill="#000000">CHAIN_FOLLOW</text>
</g>
<!-- init2boot&#45;&gt;BOOTSTRAP -->
<g id="edge6" class="edge">
<title>init2boot&#45;&gt;BOOTSTRAP</title>
<path fill="none" stroke="#000000" d="M161.2344,-531.8314C161.2344,-524.131 161.2344,-514.9743 161.2344,-506.4166"/>
<polygon fill="#000000" stroke="#000000" points="164.7345,-506.4132 161.2344,-496.4133 157.7345,-506.4133 164.7345,-506.4132"/>
</g>
<!-- boot2check&#45;&gt;SYNC_CHECKPOINT -->
<g id="edge7" class="edge">
<title>boot2check&#45;&gt;SYNC_CHECKPOINT</title>
<path fill="none" stroke="#000000" d="M99.8064,-373.6623C95.9504,-363.2993 91.478,-351.2798 87.5363,-340.6865"/>
<polygon fill="#000000" stroke="#000000" points="90.7249,-339.2194 83.9572,-331.0677 84.1644,-341.6605 90.7249,-339.2194"/>
</g>
<!-- boot2catch&#45;&gt;CHAIN_CATCHUP -->
<g id="edge8" class="edge">
<title>boot2catch&#45;&gt;CHAIN_CATCHUP</title>
<path fill="none" stroke="#000000" d="M233.8393,-287.6911C223.3175,-268.0078 208.1643,-240.0878 194.2344,-216 189.0908,-207.1056 183.3015,-197.5036 178.0246,-188.8978"/>
<polygon fill="#000000" stroke="#000000" points="180.9883,-187.0355 172.7596,-180.3617 175.0304,-190.7103 180.9883,-187.0355"/>
</g>
<!-- check2catch&#45;&gt;CHAIN_CATCHUP -->
<g id="edge9" class="edge">
<title>check2catch&#45;&gt;CHAIN_CATCHUP</title>
<path fill="none" stroke="#000000" d="M123.1038,-215.8314C128.9179,-207.6232 135.904,-197.7606 142.299,-188.7323"/>
<polygon fill="#000000" stroke="#000000" points="145.2675,-190.5966 148.1916,-180.4133 139.5553,-186.5505 145.2675,-190.5966"/>
</g>
<!-- catch2follow&#45;&gt;CHAIN_FOLLOW -->
<g id="edge10" class="edge">
<title>catch2follow&#45;&gt;CHAIN_FOLLOW</title>
<path fill="none" stroke="#000000" d="M71.2344,-71.8314C71.2344,-64.131 71.2344,-54.9743 71.2344,-46.4166"/>
<polygon fill="#000000" stroke="#000000" points="74.7345,-46.4132 71.2344,-36.4133 67.7345,-46.4133 74.7345,-46.4132"/>
</g>
<!-- follow2catch&#45;&gt;CHAIN_FOLLOW -->
<g id="edge13" class="edge">
<title>follow2catch&#45;&gt;CHAIN_FOLLOW</title>
<path fill="none" stroke="#ff0000" d="M206.5604,-71.8314C179.0175,-60.875 144.0636,-46.9708 116.5799,-36.038"/>
</g>
</g>
</svg>
