<?xml version="1.0" encoding="UTF-8" standalone="no"?>
<!DOCTYPE svg PUBLIC "-//W3C//DTD SVG 1.1//EN"
 "http://www.w3.org/Graphics/SVG/1.1/DTD/svg11.dtd">
<!-- Generated by graphviz version 2.40.1 (20161225.0304)
 -->
<!-- Title: sector Pages: 1 -->
<svg width="501pt" height="519pt"
 viewBox="0.00 0.00 500.67 519.00" xmlns="http://www.w3.org/2000/svg" xmlns:xlink="http://www.w3.org/1999/xlink">
<g id="graph0" class="graph" transform="scale(1 1) rotate(0) translate(4 515)">
<title>sector</title>
<polygon fill="#ffffff" stroke="transparent" points="-4,4 -4,-515 496.6689,-515 496.6689,4 -4,4"/>
<!-- INIT -->
<g id="node1" class="node">
<title>INIT</title>
<path fill="none" stroke="#000000" d="M106.5068,-474.5C106.5068,-474.5 136.5068,-474.5 136.5068,-474.5 142.5068,-474.5 148.5068,-480.5 148.5068,-486.5 148.5068,-486.5 148.5068,-498.5 148.5068,-498.5 148.5068,-504.5 142.5068,-510.5 136.5068,-510.5 136.5068,-510.5 106.5068,-510.5 106.5068,-510.5 100.5068,-510.5 94.5068,-504.5 94.5068,-498.5 94.5068,-498.5 94.5068,-486.5 94.5068,-486.5 94.5068,-480.5 100.5068,-474.5 106.5068,-474.5"/>
<text text-anchor="middle" x="121.5" y="-488.3" font-family="Times,serif" font-size="14.00" fill="#000000">INIT</text>
</g>
<!-- BOOTSTRAP -->
<g id="node2" class="node">
<title>BOOTSTRAP</title>
<path fill="none" stroke="#000000" d="M84.6655,-373.5C84.6655,-373.5 158.3481,-373.5 158.3481,-373.5 164.3481,-373.5 170.3481,-379.5 170.3481,-385.5 170.3481,-385.5 170.3481,-397.5 170.3481,-397.5 170.3481,-403.5 164.3481,-409.5 158.3481,-409.5 158.3481,-409.5 84.6655,-409.5 84.6655,-409.5 78.6655,-409.5 72.6655,-403.5 72.6655,-397.5 72.6655,-397.5 72.6655,-385.5 72.6655,-385.5 72.6655,-379.5 78.6655,-373.5 84.6655,-373.5"/>
<text text-anchor="middle" x="121.5068" y="-387.3" font-family="Times,serif" font-size="14.00" fill="#000000">BOOTSTRAP</text>
</g>
<!-- INIT&#45;&gt;BOOTSTRAP -->
<g id="edge1" class="edge">
<title>INIT&#45;&gt;BOOTSTRAP</title>
<path fill="none" stroke="#000000" d="M121.5068,-474.4432C121.5068,-459.313 121.5068,-437.4448 121.5068,-419.961"/>
<polygon fill="#000000" stroke="#000000" points="125.0069,-419.7409 121.5068,-409.741 118.0069,-419.741 125.0069,-419.7409"/>
<text text-anchor="middle" x="172.8105" y="-444.8" font-family="Times,serif" font-size="14.00" fill="#000000">prepare and verify</text>
<text text-anchor="middle" x="172.8105" y="-430.8" font-family="Times,serif" font-size="14.00" fill="#000000">all internal state</text>
</g>
<!-- SYNC_CHECKPOINT -->
<g id="node3" class="node">
<title>SYNC_CHECKPOINT</title>
<path fill="none" stroke="#000000" d="M12,-244.5C12,-244.5 137.0137,-244.5 137.0137,-244.5 143.0137,-244.5 149.0137,-250.5 149.0137,-256.5 149.0137,-256.5 149.0137,-268.5 149.0137,-268.5 149.0137,-274.5 143.0137,-280.5 137.0137,-280.5 137.0137,-280.5 12,-280.5 12,-280.5 6,-280.5 0,-274.5 0,-268.5 0,-268.5 0,-256.5 0,-256.5 0,-250.5 6,-244.5 12,-244.5"/>
<text text-anchor="middle" x="74.5068" y="-258.3" font-family="Times,serif" font-size="14.00" fill="#000000">SYNC_CHECKPOINT</text>
</g>
<!-- BOOTSTRAP&#45;&gt;SYNC_CHECKPOINT -->
<g id="edge2" class="edge">
<title>BOOTSTRAP&#45;&gt;SYNC_CHECKPOINT</title>
<path fill="none" stroke="#000000" d="M90.8393,-373.4484C84.7012,-368.31 79.0725,-362.1346 75.5781,-355 65.8032,-335.042 66.2825,-309.634 68.7866,-290.4989"/>
<polygon fill="#000000" stroke="#000000" points="72.2494,-291.0082 70.3338,-280.588 65.3332,-289.9285 72.2494,-291.0082"/>
<text text-anchor="middle" x="141.9712" y="-343.8" font-family="Times,serif" font-size="14.00" fill="#000000">done bootstrapping.</text>
<text text-anchor="middle" x="141.9712" y="-329.8" font-family="Times,serif" font-size="14.00" fill="#000000">do not have</text>
<text text-anchor="middle" x="141.9712" y="-315.8" font-family="Times,serif" font-size="14.00" fill="#000000">LastTrustedCheckpoint</text>
<text text-anchor="middle" x="141.9712" y="-301.8" font-family="Times,serif" font-size="14.00" fill="#000000">state</text>
</g>
<!-- CHAIN_CATCHUP -->
<g id="node4" class="node">
<title>CHAIN_CATCHUP</title>
<path fill="none" stroke="#000000" d="M58.9448,-129.5C58.9448,-129.5 166.0688,-129.5 166.0688,-129.5 172.0688,-129.5 178.0688,-135.5 178.0688,-141.5 178.0688,-141.5 178.0688,-153.5 178.0688,-153.5 178.0688,-159.5 172.0688,-165.5 166.0688,-165.5 166.0688,-165.5 58.9448,-165.5 58.9448,-165.5 52.9448,-165.5 46.9448,-159.5 46.9448,-153.5 46.9448,-153.5 46.9448,-141.5 46.9448,-141.5 46.9448,-135.5 52.9448,-129.5 58.9448,-129.5"/>
<text text-anchor="middle" x="112.5068" y="-143.3" font-family="Times,serif" font-size="14.00" fill="#000000">CHAIN_CATCHUP</text>
</g>
<!-- BOOTSTRAP&#45;&gt;CHAIN_CATCHUP -->
<g id="edge3" class="edge">
<title>BOOTSTRAP&#45;&gt;CHAIN_CATCHUP</title>
<path fill="none" stroke="#000000" d="M170.5638,-381.2938C184.5344,-375.8757 198.2009,-367.606 206.5068,-355 227.4142,-323.2686 227.9698,-215.3583 206.5068,-184 203.0692,-178.9775 194.5646,-173.9907 183.999,-169.3907"/>
<polygon fill="#000000" stroke="#000000" points="185.2876,-166.1365 174.7051,-165.6254 182.6591,-172.6243 185.2876,-166.1365"/>
<text text-anchor="middle" x="301.5488" y="-265.3" font-family="Times,serif" font-size="14.00" fill="#000000">done bootstrapping. have</text>
<text text-anchor="middle" x="301.5488" y="-251.3" font-family="Times,serif" font-size="14.00" fill="#000000">LastTrustedCheckpoint state</text>
</g>
<!-- SYNC_CHECKPOINT&#45;&gt;CHAIN_CATCHUP -->
<g id="edge4" class="edge">
<title>SYNC_CHECKPOINT&#45;&gt;CHAIN_CATCHUP</title>
<path fill="none" stroke="#000000" d="M70.9662,-244.2424C68.6394,-227.7973 67.3571,-203.3129 75.5781,-184 77.1614,-180.2806 79.3231,-176.7442 81.8121,-173.4409"/>
<polygon fill="#000000" stroke="#000000" points="84.5947,-175.5753 88.5299,-165.7384 79.3193,-170.9742 84.5947,-175.5753"/>
<text text-anchor="middle" x="141.9712" y="-214.8" font-family="Times,serif" font-size="14.00" fill="#000000">done getting</text>
<text text-anchor="middle" x="141.9712" y="-200.8" font-family="Times,serif" font-size="14.00" fill="#000000">LastTrustedCheckpoint</text>
<text text-anchor="middle" x="141.9712" y="-186.8" font-family="Times,serif" font-size="14.00" fill="#000000">state</text>
</g>
<!-- CHAIN_FOLLOW -->
<g id="node5" class="node">
<title>CHAIN_FOLLOW</title>
<path fill="#43cd80" stroke="#43cd80" d="M61.6792,-.5C61.6792,-.5 163.3345,-.5 163.3345,-.5 169.3345,-.5 175.3345,-6.5 175.3345,-12.5 175.3345,-12.5 175.3345,-24.5 175.3345,-24.5 175.3345,-30.5 169.3345,-36.5 163.3345,-36.5 163.3345,-36.5 61.6792,-36.5 61.6792,-36.5 55.6792,-36.5 49.6792,-30.5 49.6792,-24.5 49.6792,-24.5 49.6792,-12.5 49.6792,-12.5 49.6792,-6.5 55.6792,-.5 61.6792,-.5"/>
<text text-anchor="middle" x="112.5068" y="-14.3" font-family="Times,serif" font-size="14.00" fill="#000000">CHAIN_FOLLOW</text>
</g>
<!-- CHAIN_CATCHUP&#45;&gt;CHAIN_FOLLOW -->
<g id="edge5" class="edge">
<title>CHAIN_CATCHUP&#45;&gt;CHAIN_FOLLOW</title>
<path fill="none" stroke="#000000" d="M112.5068,-129.2911C112.5068,-107.7786 112.5068,-71.7457 112.5068,-46.6351"/>
<polygon fill="#000000" stroke="#000000" points="116.0069,-46.6163 112.5068,-36.6163 109.0069,-46.6164 116.0069,-46.6163"/>
<text text-anchor="middle" x="173.3193" y="-85.8" font-family="Times,serif" font-size="14.00" fill="#000000">done validating</text>
<text text-anchor="middle" x="173.3193" y="-71.8" font-family="Times,serif" font-size="14.00" fill="#000000">up to BestTargetHead</text>
</g>
<!-- CHAIN_FOLLOW&#45;&gt;INIT -->
<g id="edge7" class="edge">
<title>CHAIN_FOLLOW&#45;&gt;INIT</title>
<path fill="none" stroke="#ff0000" d="M175.5799,-20.8194C234.9023,-24.3308 318.0163,-33.1136 341.5068,-55 404.6086,-113.7928 375.6648,-158.3171 385.5068,-244 398.9776,-361.2738 323.9981,-390.9301 225.5068,-456 205.2006,-469.4156 179.4008,-478.5103 158.5783,-484.2661"/>
<polygon fill="#ff0000" stroke="#ff0000" points="157.5884,-480.9073 148.8021,-486.8278 159.3627,-487.6787 157.5884,-480.9073"/>
<text text-anchor="middle" x="439.5879" y="-258.3" font-family="Times,serif" font-size="14.00" fill="#ff0000">on shut down node</text>
</g>
<!-- CHAIN_FOLLOW&#45;&gt;CHAIN_CATCHUP -->
<g id="edge6" class="edge">
<title>CHAIN_FOLLOW&#45;&gt;CHAIN_CATCHUP</title>
<path fill="none" stroke="#ff0000" d="M175.3593,-29.94C201.5761,-36.1087 227.7462,-44.6019 235.5068,-55 250.3936,-74.946 250.3936,-91.054 235.5068,-111 229.0368,-119.6688 209.7716,-127.0136 188.3512,-132.7913"/>
<polygon fill="#ff0000" stroke="#ff0000" points="187.2184,-129.4682 178.396,-135.3348 188.9512,-136.2504 187.2184,-129.4682"/>
<text text-anchor="middle" x="291.7915" y="-99.8" font-family="Times,serif" font-size="14.00" fill="#ff0000">unvalidated gap</text>
<text text-anchor="middle" x="291.7915" y="-85.8" font-family="Times,serif" font-size="14.00" fill="#ff0000">formed between</text>
<text text-anchor="middle" x="291.7915" y="-71.8" font-family="Times,serif" font-size="14.00" fill="#ff0000">ValidG and</text>
<text text-anchor="middle" x="291.7915" y="-57.8" font-family="Times,serif" font-size="14.00" fill="#ff0000">BestTargetHead</text>
</g>
</g>
</svg>
