<?xml version="1.0" encoding="UTF-8" standalone="no"?>
<!DOCTYPE svg PUBLIC "-//W3C//DTD SVG 1.1//EN"
 "http://www.w3.org/Graphics/SVG/1.1/DTD/svg11.dtd">
<!-- Generated by graphviz version 5.0.0 (20220707.1540)
 -->
<!-- Title: miner_post Pages: 1 -->
<svg width="183pt" height="345pt"
 viewBox="0.00 0.00 183.00 344.80" xmlns="http://www.w3.org/2000/svg" xmlns:xlink="http://www.w3.org/1999/xlink">
<g id="graph0" class="graph" transform="scale(1 1) rotate(0) translate(4 340.8)">
<title>miner_post</title>
<polygon fill="white" stroke="transparent" points="-4,4 -4,-340.8 179,-340.8 179,4 -4,4"/>
<g id="clust1" class="cluster">
<title>cluster_0</title>
<polygon fill="#e5e5e5" stroke="#e5e5e5" points="8,-8 8,-134.8 167,-134.8 167,-8 8,-8"/>
<text text-anchor="middle" x="87.5" y="-118.2" font-family="Times,serif" font-size="14.00">Lose power on all sectors</text>
</g>
<!-- OK -->
<g id="node1" class="node">
<title>OK</title>
<ellipse fill="none" stroke="black" cx="87" cy="-289.8" rx="43" ry="43"/>
<ellipse fill="none" stroke="black" cx="87" cy="-289.8" rx="47" ry="47"/>
<text text-anchor="middle" x="87" y="-285.6" font-family="Times,serif" font-size="14.00">OK</text>
</g>
<!-- Challenged -->
<g id="node2" class="node">
<title>Challenged</title>
<ellipse fill="none" stroke="black" cx="87" cy="-185.8" rx="43" ry="43"/>
<text text-anchor="middle" x="87" y="-181.6" font-family="Times,serif" font-size="14.00">Challenged</text>
</g>
<!-- OK&#45;&gt;Challenged -->
<g id="edge4" class="edge">
<title>OK&#45;&gt;Challenged</title>
<path fill="none" stroke="black" stroke-width="2" d="M72.67,-244.79C72.67,-244.79 72.67,-236.62 72.67,-236.62"/>
<polygon fill="black" stroke="black" stroke-width="2" points="76.17,-236.62 72.67,-226.62 69.17,-236.62 76.17,-236.62"/>
</g>
<!-- Challenged&#45;&gt;OK -->
<g id="edge5" class="edge">
<title>Challenged&#45;&gt;OK</title>
<path fill="none" stroke="blue" stroke-width="2" d="M101.33,-226.61C101.33,-226.61 101.33,-234.99 101.33,-234.99"/>
<polygon fill="blue" stroke="blue" stroke-width="2" points="97.83,-234.99 101.33,-244.99 104.83,-234.99 97.83,-234.99"/>
</g>
<!-- DetectedFault -->
<g id="node3" class="node">
<title>DetectedFault</title>
<ellipse fill="none" stroke="black" cx="87" cy="-59" rx="43" ry="43"/>
<text text-anchor="middle" x="87" y="-54.8" font-family="Times,serif" font-size="14.00">DetectedFault</text>
</g>
<!-- Challenged&#45;&gt;DetectedFault -->
<g id="edge1" class="edge">
<title>Challenged&#45;&gt;DetectedFault</title>
<path fill="none" stroke="red" stroke-width="2" d="M72.67,-144.98C72.67,-144.98 72.67,-109.74 72.67,-109.74"/>
<polygon fill="red" stroke="red" stroke-width="2" points="76.17,-109.74 72.67,-99.74 69.17,-109.74 76.17,-109.74"/>
</g>
<!-- Challenged&#45;&gt;DetectedFault -->
<!-- DetectedFault&#45;&gt;OK -->
<g id="edge3" class="edge">
<title>DetectedFault&#45;&gt;OK</title>
<path fill="none" stroke="green" stroke-width="2" d="M43.64,-59C31.72,-59 22,-59 22,-59 22,-59 22,-289 22,-289 22,-289 29.76,-289 29.76,-289"/>
<polygon fill="green" stroke="green" stroke-width="2" points="29.76,-292.5 39.76,-289 29.76,-285.5 29.76,-292.5"/>
</g>
</g>
</svg>
