<?xml version="1.0" encoding="UTF-8" standalone="no"?>
<!DOCTYPE svg PUBLIC "-//W3C//DTD SVG 1.1//EN"
 "http://www.w3.org/Graphics/SVG/1.1/DTD/svg11.dtd">
<!-- Generated by graphviz version 5.0.0 (20220707.1540)
 -->
<!-- Pages: 1 -->
<svg width="184pt" height="101pt"
 viewBox="0.00 0.00 184.00 101.00" xmlns="http://www.w3.org/2000/svg" xmlns:xlink="http://www.w3.org/1999/xlink">
<g id="graph0" class="graph" transform="scale(1 1) rotate(0) translate(4 97)">
<polygon fill="white" stroke="transparent" points="-4,4 -4,-97 180,-97 180,4 -4,4"/>
<g id="clust1" class="cluster">
<title>cluster_01</title>
<polygon fill="none" stroke="black" points="8,-8 8,-85 168,-85 168,-8 8,-8"/>
<text text-anchor="middle" x="88" y="-68.4" font-family="Times,serif" font-size="14.00">Legend</text>
</g>
<!-- key -->
<g id="node1" class="node">
<title>key</title>
<text text-anchor="middle" x="43" y="-29.8" font-family="Times,serif" font-size="14.00">key</text>
</g>
<!-- key2 -->
<g id="node2" class="node">
<title>key2</title>
<text text-anchor="middle" x="133" y="-29.8" font-family="Times,serif" font-size="14.00">key2</text>
</g>
<!-- key&#45;&gt;key2 -->
<g id="edge1" class="edge">
<title>key:e&#45;&gt;key2:w</title>
<path fill="none" stroke="black" d="M67.12,-15.93C76.82,-13.74 88.29,-13.2 98.86,-14.31"/>
<polygon fill="black" stroke="black" points="98.6,-17.81 109.03,-15.97 99.73,-10.9 98.6,-17.81"/>
</g>
<!-- key&#45;&gt;key2 -->
<g id="edge2" class="edge">
<title>key:e&#45;&gt;key2:w</title>
<path fill="none" stroke="blue" d="M70.4,-27.75C78.39,-27.27 87.31,-27.14 95.82,-27.35"/>
<polygon fill="blue" stroke="blue" points="95.78,-30.85 105.92,-27.77 96.08,-23.85 95.78,-30.85"/>
</g>
<!-- key&#45;&gt;key2 -->
<g id="edge3" class="edge">
<title>key:e&#45;&gt;key2:w</title>
<path fill="none" stroke="green" d="M70.4,-40.25C78.39,-40.73 87.31,-40.86 95.82,-40.65"/>
<polygon fill="green" stroke="green" points="96.08,-44.15 105.92,-40.23 95.78,-37.15 96.08,-44.15"/>
</g>
<!-- key&#45;&gt;key2 -->
<g id="edge4" class="edge">
<title>key:e&#45;&gt;key2:w</title>
<path fill="none" stroke="red" d="M67.12,-52.07C76.82,-54.26 88.29,-54.8 98.86,-53.69"/>
<polygon fill="red" stroke="red" points="99.73,-57.1 109.03,-52.03 98.6,-50.19 99.73,-57.1"/>
</g>
</g>
</svg>
