<?xml version="1.0" encoding="UTF-8" standalone="no"?>
<!DOCTYPE svg PUBLIC "-//W3C//DTD SVG 1.1//EN"
 "http://www.w3.org/Graphics/SVG/1.1/DTD/svg11.dtd">
<!-- Generated by graphviz version 5.0.0 (20220707.1540)
 -->
<!-- Title: mining_cycle Pages: 1 -->
<svg width="497pt" height="476pt"
 viewBox="0.00 0.00 497.15 475.60" xmlns="http://www.w3.org/2000/svg" xmlns:xlink="http://www.w3.org/1999/xlink">
<g id="graph0" class="graph" transform="scale(1 1) rotate(0) translate(4 471.6)">
<title>mining_cycle</title>
<polygon fill="white" stroke="transparent" points="-4,4 -4,-471.6 493.15,-471.6 493.15,4 -4,4"/>
<g id="clust1" class="cluster">
<title>cluster_local</title>
<polygon fill="none" stroke="black" points="60.92,-8 60.92,-228 245.92,-228 245.92,-8 60.92,-8"/>
<text text-anchor="middle" x="153.42" y="-211.4" font-family="Times,serif" font-size="14.00">Storage Miner</text>
<text text-anchor="middle" x="153.42" y="-194.6" font-family="Times,serif" font-size="14.00">(off chain)</text>
</g>
<g id="clust2" class="cluster">
<title>cluster_local_mining</title>
<polygon fill="lightblue" stroke="lightblue" points="68.92,-16 68.92,-178.4 237.92,-178.4 237.92,-16 68.92,-16"/>
<text text-anchor="middle" x="153.42" y="-161.8" font-family="Times,serif" font-size="14.00">Mining</text>
</g>
<g id="clust5" class="cluster">
<title>cluster_chain</title>
<polygon fill="none" stroke="blue" points="178.92,-277.6 178.92,-459.6 346.92,-459.6 346.92,-277.6 178.92,-277.6"/>
<text text-anchor="middle" x="262.92" y="-443" font-family="Times,serif" font-size="14.00">Storage Miner Actor</text>
<text text-anchor="middle" x="262.92" y="-426.2" font-family="Times,serif" font-size="14.00">(on chain)</text>
</g>
<!-- ActiveL -->
<g id="node1" class="node">
<title>ActiveL</title>
<ellipse fill="none" stroke="black" cx="119.92" cy="-127.6" rx="42.85" ry="18"/>
<text text-anchor="middle" x="119.92" y="-123.4" font-family="Times,serif" font-size="14.00">ActiveL</text>
</g>
<!-- ChallengedL -->
<g id="node2" class="node">
<title>ChallengedL</title>
<ellipse fill="none" stroke="black" cx="137.92" cy="-42" rx="60.83" ry="18"/>
<text text-anchor="middle" x="137.92" y="-37.8" font-family="Times,serif" font-size="14.00">ChallengedL</text>
</g>
<!-- ActiveL&#45;&gt;ChallengedL -->
<!-- ActiveL&#45;&gt;ChallengedL -->
<g id="edge2" class="edge">
<title>ActiveL&#45;&gt;ChallengedL</title>
<path fill="none" stroke="red" d="M123.65,-109.28C126.11,-97.88 129.37,-82.74 132.15,-69.8"/>
<polygon fill="red" stroke="red" points="135.58,-70.53 134.26,-60.01 128.73,-69.05 135.58,-70.53"/>
<text text-anchor="middle" x="195.68" y="-89" font-family="Times,serif" font-size="14.00" fill="red">Chain issues challenge</text>
<text text-anchor="middle" x="195.68" y="-72.2" font-family="Times,serif" font-size="14.00" fill="red">(implicit)</text>
</g>
<!-- ActiveC -->
<g id="node4" class="node">
<title>ActiveC</title>
<ellipse fill="none" stroke="black" cx="233.92" cy="-303.6" rx="43.44" ry="18"/>
<text text-anchor="middle" x="233.92" y="-299.4" font-family="Times,serif" font-size="14.00">ActiveC</text>
</g>
<!-- ActiveL&#45;&gt;ActiveC -->
<g id="edge6" class="edge">
<title>ActiveL&#45;&gt;ActiveC</title>
<path fill="none" stroke="blue" d="M111.53,-145.71C98.59,-174.86 78.2,-234.4 108.1,-269.6 115.22,-277.98 146.24,-275.01 156.92,-277.6 168.65,-280.45 181.17,-284.2 192.63,-287.92"/>
<polygon fill="blue" stroke="blue" points="191.8,-291.33 202.39,-291.17 194,-284.69 191.8,-291.33"/>
<text text-anchor="middle" x="163.33" y="-257" font-family="Times,serif" font-size="14.00" fill="blue">Add Sectors</text>
<text text-anchor="middle" x="163.33" y="-240.2" font-family="Times,serif" font-size="14.00" fill="blue">(sm.CommitSector)</text>
</g>
<!-- ProducePost -->
<g id="node6" class="node">
<title>ProducePost</title>
<text text-anchor="middle" x="73.92" y="-307.8" font-family="Times,serif" font-size="14.00" fill="blue">Produce &amp; submit PoSt</text>
<text text-anchor="middle" x="73.92" y="-291" font-family="Times,serif" font-size="14.00" fill="blue">(sm.SubmitPost)</text>
</g>
<!-- ChallengedL&#45;&gt;ProducePost -->
<g id="edge7" class="edge">
<title>ChallengedL&#45;&gt;ProducePost</title>
<path fill="none" stroke="blue" d="M91.93,-54C85.04,-57.47 78.67,-62.02 73.92,-68 23.29,-131.81 51.77,-239.1 66.65,-282.99"/>
</g>
<!-- OwnerAccountC -->
<g id="node3" class="node">
<title>OwnerAccountC</title>
<ellipse fill="none" stroke="black" cx="262.92" cy="-392" rx="76.44" ry="18"/>
<text text-anchor="middle" x="262.92" y="-387.8" font-family="Times,serif" font-size="14.00">OwnerAccountC</text>
</g>
<!-- OwnerAccountC&#45;&gt;ActiveC -->
<!-- OwnerAccountC&#45;&gt;ActiveC -->
<g id="edge4" class="edge">
<title>OwnerAccountC&#45;&gt;ActiveC</title>
<path fill="none" stroke="blue" d="M257.19,-373.93C253.1,-361.74 247.52,-345.11 242.85,-331.19"/>
<polygon fill="blue" stroke="blue" points="246.14,-330 239.64,-321.63 239.5,-332.23 246.14,-330"/>
<text text-anchor="middle" x="305.04" y="-353.4" font-family="Times,serif" font-size="14.00" fill="blue">Create Miner</text>
<text text-anchor="middle" x="305.04" y="-336.6" font-family="Times,serif" font-size="14.00" fill="blue">(spa.CreateMiner)</text>
</g>
<!-- ActiveC&#45;&gt;ActiveL -->
<g id="edge10" class="edge">
<title>ActiveC&#45;&gt;ActiveL</title>
<path fill="none" stroke="black" d="M232.52,-285.34C230.81,-271.37 227.07,-251.53 218.92,-236 201.01,-201.85 169.44,-170.37 146.77,-150.45"/>
<polygon fill="black" stroke="black" points="149.02,-147.76 139.15,-143.89 144.45,-153.07 149.02,-147.76"/>
<text text-anchor="middle" x="270.54" y="-248.6" font-family="Times,serif" font-size="14.00">Miner Created</text>
</g>
<!-- OwnerAccL -->
<g id="node5" class="node">
<title>OwnerAccL</title>
<text text-anchor="middle" x="399.92" y="-387.8" font-family="Times,serif" font-size="14.00" fill="blue">OwnerAccL</text>
</g>
<!-- OwnerAccL&#45;&gt;ActiveC -->
<g id="edge5" class="edge">
<title>OwnerAccL&#45;&gt;ActiveC</title>
<path fill="none" stroke="blue" d="M392.34,-373.97C385.51,-360.61 374.2,-342.62 358.92,-332.4 337.76,-318.24 310.5,-311.19 286.85,-307.71"/>
<polygon fill="blue" stroke="blue" points="286.98,-304.2 276.62,-306.4 286.09,-311.15 286.98,-304.2"/>
<text text-anchor="middle" x="438.04" y="-353.4" font-family="Times,serif" font-size="14.00" fill="blue">Create Miner</text>
<text text-anchor="middle" x="438.04" y="-336.6" font-family="Times,serif" font-size="14.00" fill="blue">(spa.CreateMiner)</text>
</g>
<!-- ProducePost&#45;&gt;ActiveL -->
<g id="edge8" class="edge">
<title>ProducePost&#45;&gt;ActiveL</title>
<path fill="none" stroke="blue" d="M77.61,-282.98C80.21,-269.66 83.94,-251.69 87.92,-236 94.95,-208.29 104.45,-177 111.28,-155.37"/>
<polygon fill="blue" stroke="blue" points="114.69,-156.18 114.39,-145.59 108.02,-154.06 114.69,-156.18"/>
</g>
<!-- ProducePost&#45;&gt;ActiveC -->
<g id="edge9" class="edge">
<title>ProducePost&#45;&gt;ActiveC</title>
<path fill="none" stroke="blue" d="M147.98,-303.6C158.75,-303.6 169.52,-303.6 180.29,-303.6"/>
<polygon fill="blue" stroke="blue" points="180.62,-307.1 190.62,-303.6 180.62,-300.1 180.62,-307.1"/>
</g>
</g>
</svg>
