<?xml version="1.0" encoding="UTF-8" standalone="no"?>
<!DOCTYPE svg PUBLIC "-//W3C//DTD SVG 1.1//EN"
 "http://www.w3.org/Graphics/SVG/1.1/DTD/svg11.dtd">
<!-- Generated by graphviz version 5.0.0 (20220707.1540)
 -->
<!-- Title: sector Pages: 1 -->
<svg width="400pt" height="645pt"
 viewBox="0.00 0.00 400.00 644.80" xmlns="http://www.w3.org/2000/svg" xmlns:xlink="http://www.w3.org/1999/xlink">
<g id="graph0" class="graph" transform="scale(1 1) rotate(0) translate(4 640.8)">
<title>sector</title>
<polygon fill="white" stroke="transparent" points="-4,4 -4,-640.8 396,-640.8 396,4 -4,4"/>
<g id="clust1" class="cluster">
<title>cluster_local</title>
<polygon fill="none" stroke="gray" stroke-width="2" points="8,-8 8,-628.8 384,-628.8 384,-8 8,-8"/>
<text text-anchor="middle" x="196" y="-612.2" font-family="Times,serif" font-size="14.00">Sector States in Storage Miner</text>
<text text-anchor="middle" x="196" y="-595.4" font-family="Times,serif" font-size="14.00">(off chain)</text>
</g>
<g id="clust2" class="cluster">
<title>cluster_power</title>
<polygon fill="#43cd80" stroke="#43cd80" points="82,-235.2 82,-287.2 293,-287.2 293,-235.2 82,-235.2"/>
</g>
<!-- Empty -->
<g id="node1" class="node">
<title>Empty</title>
<ellipse fill="none" stroke="black" cx="70" cy="-561.2" rx="36.57" ry="18"/>
<text text-anchor="middle" x="70" y="-557" font-family="Times,serif" font-size="14.00">Empty</text>
</g>
<!-- Packing -->
<g id="node2" class="node">
<title>Packing</title>
<ellipse fill="none" stroke="black" cx="70" cy="-492.4" rx="42.3" ry="18"/>
<text text-anchor="middle" x="70" y="-488.2" font-family="Times,serif" font-size="14.00">Packing</text>
</g>
<!-- Empty&#45;&gt;Packing -->
<!-- Empty&#45;&gt;Packing -->
<g id="edge6" class="edge">
<title>Empty&#45;&gt;Packing</title>
<path fill="none" stroke="black" d="M70,-543C70,-536.27 70,-528.39 70,-520.91"/>
<polygon fill="black" stroke="black" points="73.5,-520.78 70,-510.78 66.5,-520.78 73.5,-520.78"/>
<text text-anchor="middle" x="97.02" y="-522.6" font-family="Times,serif" font-size="14.00">Add Deal</text>
</g>
<!-- Packing&#45;&gt;Packing -->
<g id="edge11" class="edge">
<title>Packing&#45;&gt;Packing</title>
<path fill="none" stroke="black" d="M109.62,-498.76C121.19,-498.54 130.15,-496.42 130.15,-492.4 130.15,-489.7 126.1,-487.86 119.94,-486.87"/>
<polygon fill="black" stroke="black" points="119.87,-483.36 109.62,-486.04 119.31,-490.33 119.87,-483.36"/>
<text text-anchor="middle" x="157.17" y="-488.2" font-family="Times,serif" font-size="14.00">Add Deal</text>
</g>
<!-- Unsealed -->
<g id="node3" class="node">
<title>Unsealed</title>
<ellipse fill="none" stroke="black" cx="70" cy="-423.6" rx="46.93" ry="18"/>
<text text-anchor="middle" x="70" y="-419.4" font-family="Times,serif" font-size="14.00">Unsealed</text>
</g>
<!-- Packing&#45;&gt;Unsealed -->
<!-- Packing&#45;&gt;Unsealed -->
<g id="edge7" class="edge">
<title>Packing&#45;&gt;Unsealed</title>
<path fill="none" stroke="black" d="M70,-474.2C70,-467.47 70,-459.59 70,-452.11"/>
<polygon fill="black" stroke="black" points="73.5,-451.98 70,-441.98 66.5,-451.98 73.5,-451.98"/>
<text text-anchor="middle" x="105.77" y="-453.8" font-family="Times,serif" font-size="14.00">Sector is full</text>
</g>
<!-- Sealed -->
<g id="node4" class="node">
<title>Sealed</title>
<ellipse fill="none" stroke="black" cx="74" cy="-354.8" rx="36.56" ry="18"/>
<text text-anchor="middle" x="74" y="-350.6" font-family="Times,serif" font-size="14.00">Sealed</text>
</g>
<!-- Unsealed&#45;&gt;Sealed -->
<!-- Unsealed&#45;&gt;Sealed -->
<g id="edge8" class="edge">
<title>Unsealed&#45;&gt;Sealed</title>
<path fill="none" stroke="black" d="M71.03,-405.4C71.43,-398.67 71.9,-390.79 72.35,-383.31"/>
<polygon fill="black" stroke="black" points="75.86,-383.37 72.96,-373.18 68.87,-382.95 75.86,-383.37"/>
<text text-anchor="middle" x="84.05" y="-385" font-family="Times,serif" font-size="14.00">Seal</text>
</g>
<!-- NotProving -->
<g id="node5" class="node">
<title>NotProving</title>
<ellipse fill="none" stroke="black" cx="75" cy="-143.6" rx="58.54" ry="18"/>
<text text-anchor="middle" x="75" y="-139.4" font-family="Times,serif" font-size="14.00">Not Proving</text>
</g>
<!-- Sealed&#45;&gt;NotProving -->
<!-- Proving -->
<g id="node7" class="node">
<title>Proving</title>
<ellipse fill="none" stroke="black" cx="132" cy="-261.2" rx="41.74" ry="18"/>
<text text-anchor="middle" x="132" y="-257" font-family="Times,serif" font-size="14.00">Proving</text>
</g>
<!-- Sealed&#45;&gt;Proving -->
<g id="edge14" class="edge">
<title>Sealed&#45;&gt;Proving</title>
<path fill="none" stroke="blue" d="M84.37,-337.42C93.14,-323.57 105.85,-303.49 115.94,-287.56"/>
<polygon fill="blue" stroke="blue" points="119.13,-289.06 121.52,-278.74 113.22,-285.32 119.13,-289.06"/>
<text text-anchor="middle" x="164.41" y="-316.2" font-family="Times,serif" font-size="14.00" fill="blue">Commit Sector</text>
<text text-anchor="middle" x="164.41" y="-299.4" font-family="Times,serif" font-size="14.00" fill="blue">(sm.CommitSector)</text>
</g>
<!-- NotProving&#45;&gt;NotProving -->
<g id="edge15" class="edge">
<title>NotProving&#45;&gt;NotProving</title>
<path fill="none" stroke="blue" d="M131.05,-148.86C142.94,-148.33 151.52,-146.57 151.52,-143.6 151.52,-141.56 147.46,-140.09 141.07,-139.2"/>
<polygon fill="blue" stroke="blue" points="141.32,-135.7 131.05,-138.34 140.72,-142.68 141.32,-135.7"/>
<text text-anchor="middle" x="204.97" y="-147.8" font-family="Times,serif" font-size="14.00" fill="blue">Fault Declared</text>
<text text-anchor="middle" x="204.97" y="-131" font-family="Times,serif" font-size="14.00" fill="blue">(sm.DeclareFaults)</text>
</g>
<!-- NotProving&#45;&gt;NotProving -->
<g id="edge16" class="edge">
<title>NotProving&#45;&gt;NotProving</title>
<path fill="none" stroke="magenta" d="M125.93,-152.54C181.64,-156.89 258.43,-153.91 258.43,-143.6 258.43,-133.9 190.38,-130.69 135.92,-133.97"/>
<polygon fill="magenta" stroke="magenta" points="135.66,-130.48 125.93,-134.66 136.15,-137.46 135.66,-130.48"/>
<text text-anchor="middle" x="308.26" y="-156.2" font-family="Times,serif" font-size="14.00" fill="magenta">Fault Spotted</text>
<text text-anchor="middle" x="308.26" y="-139.4" font-family="Times,serif" font-size="14.00" fill="magenta">(sma.CronTick </text>
<text text-anchor="middle" x="308.26" y="-122.6" font-family="Times,serif" font-size="14.00" fill="magenta">&#45;&gt; sm.PostFailed)</text>
</g>
<!-- Deleted -->
<g id="node6" class="node">
<title>Deleted</title>
<ellipse fill="none" stroke="black" cx="78" cy="-34" rx="41.13" ry="18"/>
<text text-anchor="middle" x="78" y="-29.8" font-family="Times,serif" font-size="14.00">Deleted</text>
</g>
<!-- NotProving&#45;&gt;Deleted -->
<!-- NotProving&#45;&gt;Deleted -->
<g id="edge10" class="edge">
<title>NotProving&#45;&gt;Deleted</title>
<path fill="none" stroke="black" d="M75.48,-125.31C75.95,-108.37 76.68,-82.28 77.23,-62.49"/>
<polygon fill="black" stroke="black" points="80.74,-62.34 77.52,-52.24 73.74,-62.14 80.74,-62.34"/>
<text text-anchor="middle" x="134.34" y="-97.8" font-family="Times,serif" font-size="14.00">Give up on recovery</text>
<text text-anchor="middle" x="134.34" y="-81" font-family="Times,serif" font-size="14.00">or</text>
<text text-anchor="middle" x="134.34" y="-64.2" font-family="Times,serif" font-size="14.00">Expiry</text>
</g>
<!-- NotProving&#45;&gt;Proving -->
<g id="edge13" class="edge">
<title>NotProving&#45;&gt;Proving</title>
<path fill="none" stroke="blue" d="M60.35,-161.25C57.05,-165.97 54,-171.32 52.26,-176.8 45.48,-198.15 38.37,-209.63 52.26,-227.2 61.82,-239.29 71.61,-229.69 86,-235.2 90.54,-236.94 95.18,-239.04 99.7,-241.27"/>
<polygon fill="blue" stroke="blue" points="98.21,-244.45 108.7,-245.98 101.46,-238.24 98.21,-244.45"/>
<text text-anchor="middle" x="98.87" y="-206.2" font-family="Times,serif" font-size="14.00" fill="blue">Recover</text>
<text text-anchor="middle" x="98.87" y="-189.4" font-family="Times,serif" font-size="14.00" fill="blue">(sm.SubmitPost)</text>
</g>
<!-- Proving&#45;&gt;NotProving -->
<g id="edge9" class="edge">
<title>Proving&#45;&gt;NotProving</title>
<path fill="none" stroke="black" d="M142.48,-243.49C152.22,-225.61 163.37,-197.08 150,-176.8 145.18,-169.49 138.32,-163.83 130.67,-159.45"/>
<polygon fill="black" stroke="black" points="131.94,-156.17 121.42,-154.88 128.84,-162.45 131.94,-156.17"/>
<text text-anchor="middle" x="202.86" y="-214.6" font-family="Times,serif" font-size="14.00">Lost data</text>
<text text-anchor="middle" x="202.86" y="-197.8" font-family="Times,serif" font-size="14.00">or</text>
<text text-anchor="middle" x="202.86" y="-181" font-family="Times,serif" font-size="14.00">Stopped Proving</text>
</g>
<!-- Proving&#45;&gt;Proving -->
<g id="edge12" class="edge">
<title>Proving&#45;&gt;Proving</title>
<path fill="none" stroke="blue" d="M167.8,-270.56C180.89,-270.81 191.62,-267.69 191.62,-261.2 191.62,-256.48 185.96,-253.54 177.84,-252.39"/>
<polygon fill="blue" stroke="blue" points="177.97,-248.89 167.8,-251.84 177.59,-255.88 177.97,-248.89"/>
<text text-anchor="middle" x="238.49" y="-265.4" font-family="Times,serif" font-size="14.00" fill="blue">Produce Post</text>
<text text-anchor="middle" x="238.49" y="-248.6" font-family="Times,serif" font-size="14.00" fill="blue">(sm.SubmitPost)</text>
</g>
</g>
</svg>
