<?xml version="1.0" encoding="UTF-8" standalone="no"?>
<!DOCTYPE svg PUBLIC "-//W3C//DTD SVG 1.1//EN"
 "http://www.w3.org/Graphics/SVG/1.1/DTD/svg11.dtd">
<!-- Generated by graphviz version 5.0.0 (20220707.1540)
 -->
<!-- Pages: 1 -->
<svg width="184pt" height="108pt"
 viewBox="0.00 0.00 184.00 107.95" xmlns="http://www.w3.org/2000/svg" xmlns:xlink="http://www.w3.org/1999/xlink">
<g id="graph0" class="graph" transform="scale(1 1) rotate(0) translate(4 103.95)">
<polygon fill="white" stroke="transparent" points="-4,4 -4,-103.95 180,-103.95 180,4 -4,4"/>
<g id="clust1" class="cluster">
<title>cluster_01</title>
<polygon fill="none" stroke="black" points="8,-14.95 8,-91.95 168,-91.95 168,-14.95 8,-14.95"/>
<text text-anchor="middle" x="88" y="-75.35" font-family="Times,serif" font-size="14.00">Legend</text>
</g>
<!-- key -->
<g id="node1" class="node">
<title>key</title>
<text text-anchor="middle" x="43" y="-36.75" font-family="Times,serif" font-size="14.00">key</text>
</g>
<!-- key2 -->
<g id="node2" class="node">
<title>key2</title>
<text text-anchor="middle" x="133" y="-36.75" font-family="Times,serif" font-size="14.00">key2</text>
</g>
<!-- key&#45;&gt;key2 -->
<g id="edge1" class="edge">
<title>key:e&#45;&gt;key2:w</title>
<path fill="none" stroke="black" d="M48.01,-22.76C61.12,3.83 102.99,6.65 122.2,-14.31"/>
<polygon fill="black" stroke="black" points="119.42,-16.45 127.97,-22.72 125.2,-12.49 119.42,-16.45"/>
</g>
<!-- key&#45;&gt;key2 -->
<g id="edge2" class="edge">
<title>key:e&#45;&gt;key2:w</title>
<path fill="none" stroke="gray" d="M54.44,-22.74C68.81,-12.8 94.93,-11.3 112.85,-18.22"/>
<polygon fill="gray" stroke="gray" points="111.36,-21.39 121.84,-22.94 114.61,-15.19 111.36,-21.39"/>
</g>
<!-- key&#45;&gt;key2 -->
<g id="edge3" class="edge">
<title>key:e&#45;&gt;key2:w</title>
<path fill="none" stroke="green" d="M70.4,-28.46C78.39,-27.5 87.31,-27.22 95.82,-27.65"/>
<polygon fill="green" stroke="green" points="95.66,-31.14 105.92,-28.5 96.25,-24.17 95.66,-31.14"/>
</g>
<!-- key&#45;&gt;key2 -->
<g id="edge4" class="edge">
<title>key:e&#45;&gt;key2:w</title>
<path fill="none" stroke="orange" d="M70.4,-40.95C78.39,-40.95 87.31,-40.95 95.82,-40.95"/>
<polygon fill="orange" stroke="orange" points="95.92,-44.45 105.92,-40.95 95.92,-37.45 95.92,-44.45"/>
</g>
<!-- key&#45;&gt;key2 -->
<g id="edge5" class="edge">
<title>key:e&#45;&gt;key2:w</title>
<path fill="none" stroke="cyan" d="M70.4,-53.44C78.39,-54.41 87.31,-54.68 95.82,-54.26"/>
<polygon fill="cyan" stroke="cyan" points="96.25,-57.74 105.92,-53.41 95.66,-50.76 96.25,-57.74"/>
</g>
<!-- key&#45;&gt;key2 -->
<g id="edge6" class="edge">
<title>key:e&#45;&gt;key2:w</title>
<path fill="none" stroke="blue" d="M54.44,-59.17C68.81,-69.11 94.93,-70.61 112.85,-63.69"/>
<polygon fill="blue" stroke="blue" points="114.61,-66.72 121.84,-58.97 111.36,-60.52 114.61,-66.72"/>
</g>
<!-- key&#45;&gt;key2 -->
<g id="edge7" class="edge">
<title>key:e&#45;&gt;key2:w</title>
<path fill="none" stroke="purple" d="M48.01,-59.14C61.12,-85.74 102.99,-88.56 122.2,-67.6"/>
<polygon fill="purple" stroke="purple" points="125.2,-69.42 127.97,-59.19 119.42,-65.46 125.2,-69.42"/>
</g>
</g>
</svg>
