<?xml version="1.0" encoding="UTF-8" standalone="no"?>
<!DOCTYPE svg PUBLIC "-//W3C//DTD SVG 1.1//EN"
 "http://www.w3.org/Graphics/SVG/1.1/DTD/svg11.dtd">
<!-- Generated by graphviz version 5.0.0 (20220707.1540)
 -->
<!-- Title: sector Pages: 1 -->
<svg width="390pt" height="694pt"
 viewBox="0.00 0.00 390.00 694.40" xmlns="http://www.w3.org/2000/svg" xmlns:xlink="http://www.w3.org/1999/xlink">
<g id="graph0" class="graph" transform="scale(1 1) rotate(0) translate(4 690.4)">
<title>sector</title>
<polygon fill="white" stroke="transparent" points="-4,4 -4,-690.4 386,-690.4 386,4 -4,4"/>
<g id="clust1" class="cluster">
<title>cluster_chain</title>
<polygon fill="none" stroke="gray" stroke-width="2" points="8,-8 8,-678.4 374,-678.4 374,-8 8,-8"/>
<text text-anchor="middle" x="191" y="-661.8" font-family="Times,serif" font-size="14.00">Sector States in StorageMinerActor</text>
<text text-anchor="middle" x="191" y="-645" font-family="Times,serif" font-size="14.00">(on chain)</text>
</g>
<g id="clust2" class="cluster">
<title>cluster_postproving</title>
<polygon fill="#e0eeee" stroke="#e0eeee" points="16,-326 16,-628.8 358,-628.8 358,-326 16,-326"/>
<text text-anchor="middle" x="187" y="-612.2" font-family="Times,serif" font-size="14.00">Proving Set</text>
</g>
<g id="clust3" class="cluster">
<title>cluster_nopowerC1</title>
<polygon fill="lightgray" stroke="lightgray" points="24,-519.2 24,-596 183,-596 183,-519.2 24,-519.2"/>
<text text-anchor="middle" x="103.5" y="-579.4" font-family="Times,serif" font-size="14.00">Does not count for power</text>
</g>
<g id="clust4" class="cluster">
<title>cluster_nopowerC2</title>
<polygon fill="lightgray" stroke="lightgray" points="191,-519.2 191,-596 350,-596 350,-519.2 191,-519.2"/>
<text text-anchor="middle" x="270.5" y="-579.4" font-family="Times,serif" font-size="14.00">Does not count for power</text>
</g>
<g id="clust5" class="cluster">
<title>cluster_activate</title>
<polygon fill="#e0eeee" stroke="#e0eeee" points="88,-427.8 88,-502.2 214,-502.2 214,-427.8 88,-427.8"/>
</g>
<g id="clust6" class="cluster">
<title>cluster_powerC</title>
<polygon fill="#43cd80" stroke="#43cd80" points="66,-334 66,-410.8 179,-410.8 179,-334 66,-334"/>
<text text-anchor="middle" x="122.5" y="-394.2" font-family="Times,serif" font-size="14.00">Counts for power</text>
</g>
<g id="clust7" class="cluster">
<title>cluster_nopowerC2</title>
<polygon fill="lightgray" stroke="lightgray" points="23,-16 23,-233.6 339,-233.6 339,-16 23,-16"/>
<text text-anchor="middle" x="181" y="-217" font-family="Times,serif" font-size="14.00">Does not count for power</text>
</g>
<g id="clust8" class="cluster">
<title>cluster_expire_by_post</title>
<polygon fill="lightgray" stroke="lightgray" points="45,-126.4 45,-200.8 197,-200.8 197,-126.4 45,-126.4"/>
</g>
<!-- CommittedC -->
<g id="node1" class="node">
<title>CommittedC</title>
<ellipse fill="none" stroke="black" cx="86" cy="-545.2" rx="54.49" ry="18"/>
<text text-anchor="middle" x="86" y="-541" font-family="Times,serif" font-size="14.00">Committed</text>
</g>
<!-- FirstPoSt -->
<g id="node3" class="node">
<title>FirstPoSt</title>
<polygon fill="none" stroke="darkgreen" points="205.74,-494.4 96.26,-494.4 96.26,-435.6 205.74,-435.6 205.74,-494.4"/>
<text text-anchor="middle" x="151" y="-477.6" font-family="Times,serif" font-size="14.00" fill="darkgreen">1st PoSt</text>
<text text-anchor="middle" x="151" y="-460.8" font-family="Times,serif" font-size="14.00" fill="darkgreen">(sm.SubmitPost)</text>
<text text-anchor="middle" x="151" y="-444" font-family="Times,serif" font-size="14.00" fill="darkgreen">ActivateSectors</text>
</g>
<!-- CommittedC&#45;&gt;FirstPoSt -->
<g id="edge3" class="edge">
<title>CommittedC&#45;&gt;FirstPoSt</title>
<path fill="none" stroke="darkgreen" d="M118.31,-530.49C118.31,-520.36 118.31,-506.56 118.31,-494.24"/>
</g>
<!-- ActiveC -->
<g id="node4" class="node">
<title>ActiveC</title>
<ellipse fill="none" stroke="black" cx="123" cy="-360" rx="36.56" ry="18"/>
<text text-anchor="middle" x="123" y="-355.8" font-family="Times,serif" font-size="14.00">Active</text>
</g>
<!-- CommittedC&#45;&gt;ActiveC -->
<!-- CommittedC&#45;&gt;ActiveC -->
<!-- ExpireByPost -->
<g id="node7" class="node">
<title>ExpireByPost</title>
<polygon fill="none" stroke="orange" points="188.59,-193 53.41,-193 53.41,-134.2 188.59,-134.2 188.59,-193"/>
<text text-anchor="middle" x="121" y="-176.2" font-family="Times,serif" font-size="14.00" fill="orange">Expiration Reached</text>
<text text-anchor="middle" x="121" y="-159.4" font-family="Times,serif" font-size="14.00" fill="orange">(sma.CronTick </text>
<text text-anchor="middle" x="121" y="-142.6" font-family="Times,serif" font-size="14.00" fill="orange">&#45;&gt; sm.ExpireSectors)</text>
</g>
<!-- CommittedC&#45;&gt;ExpireByPost -->
<g id="edge13" class="edge">
<title>CommittedC&#45;&gt;ExpireByPost</title>
<path fill="none" stroke="orange" d="M93.65,-527.29C93.65,-489.69 93.65,-406 93.65,-406 93.65,-406 174.16,-406 174.16,-406 174.16,-406 174.16,-257.31 174.16,-192.84"/>
</g>
<!-- FaultsDeclared -->
<g id="node8" class="node">
<title>FaultsDeclared</title>
<polygon fill="none" stroke="blue" points="158.41,-300.4 35.59,-300.4 35.59,-259.2 158.41,-259.2 158.41,-300.4"/>
<text text-anchor="middle" x="97" y="-284" font-family="Times,serif" font-size="14.00" fill="blue">Fault Declared</text>
<text text-anchor="middle" x="97" y="-267.2" font-family="Times,serif" font-size="14.00" fill="blue">(sm.DeclareFaults)</text>
</g>
<!-- CommittedC&#45;&gt;FaultsDeclared -->
<g id="edge7" class="edge">
<title>CommittedC&#45;&gt;FaultsDeclared</title>
<path fill="none" stroke="blue" d="M52.44,-530.93C52.44,-486.79 52.44,-352.3 52.44,-300.47"/>
</g>
<!-- FaultSpotted -->
<g id="node9" class="node">
<title>FaultSpotted</title>
<polygon fill="none" stroke="magenta" points="311.68,-309.2 196.32,-309.2 196.32,-250.4 311.68,-250.4 311.68,-309.2"/>
<text text-anchor="middle" x="254" y="-292.4" font-family="Times,serif" font-size="14.00" fill="magenta">Fault Spotted</text>
<text text-anchor="middle" x="254" y="-275.6" font-family="Times,serif" font-size="14.00" fill="magenta">(ca.CronTick </text>
<text text-anchor="middle" x="254" y="-258.8" font-family="Times,serif" font-size="14.00" fill="magenta">&#45;&gt; sm.PostFailed)</text>
</g>
<!-- CommittedC&#45;&gt;FaultSpotted -->
<g id="edge15" class="edge">
<title>CommittedC&#45;&gt;FaultSpotted</title>
<path fill="none" stroke="magenta" d="M69.33,-527.85C69.33,-472.55 69.33,-304 69.33,-304 69.33,-304 141.92,-304 196.08,-304"/>
</g>
<!-- RecoveringC -->
<g id="node2" class="node">
<title>RecoveringC</title>
<ellipse fill="none" stroke="black" cx="255" cy="-545.2" rx="55.6" ry="18"/>
<text text-anchor="middle" x="255" y="-541" font-family="Times,serif" font-size="14.00">Recovering</text>
</g>
<!-- RecoveringC&#45;&gt;FirstPoSt -->
<g id="edge4" class="edge">
<title>RecoveringC&#45;&gt;FirstPoSt</title>
<path fill="none" stroke="darkgreen" d="M199.23,-545C183.21,-545 169.97,-545 169.97,-545 169.97,-545 169.97,-517.17 169.97,-494.33"/>
</g>
<!-- RecoveringC&#45;&gt;ExpireByPost -->
<g id="edge12" class="edge">
<title>RecoveringC&#45;&gt;ExpireByPost</title>
<path fill="none" stroke="orange" d="M258.21,-527.15C258.21,-473.71 258.21,-320 258.21,-320 258.21,-320 181.35,-320 181.35,-320 181.35,-320 181.35,-238.32 181.35,-193.02"/>
</g>
<!-- RecoveringC&#45;&gt;FaultsDeclared -->
<g id="edge6" class="edge">
<title>RecoveringC&#45;&gt;FaultsDeclared</title>
<path fill="none" stroke="blue" d="M232.04,-528.75C232.04,-478.59 232.04,-331 232.04,-331 232.04,-331 140.4,-331 140.4,-331 140.4,-331 140.4,-314.8 140.4,-300.62"/>
</g>
<!-- RecoveringC&#45;&gt;FaultSpotted -->
<g id="edge17" class="edge">
<title>RecoveringC&#45;&gt;FaultSpotted</title>
<path fill="none" stroke="magenta" d="M284.38,-529.78C284.38,-486.86 284.38,-365.43 284.38,-309.13"/>
</g>
<!-- FirstPoSt&#45;&gt;ActiveC -->
<g id="edge5" class="edge">
<title>FirstPoSt&#45;&gt;ActiveC</title>
<path fill="none" stroke="darkgreen" d="M127.95,-435.75C127.95,-435.75 127.95,-387.9 127.95,-387.9"/>
<polygon fill="darkgreen" stroke="darkgreen" points="131.45,-387.9 127.95,-377.9 124.45,-387.9 131.45,-387.9"/>
</g>
<!-- ActiveC&#45;&gt;ExpireByPost -->
<g id="edge11" class="edge">
<title>ActiveC&#45;&gt;ExpireByPost</title>
<path fill="none" stroke="orange" d="M154.95,-369C161.77,-369 166.97,-369 166.97,-369 166.97,-369 166.97,-249.82 166.97,-193.03"/>
</g>
<!-- ActiveC&#45;&gt;FaultsDeclared -->
<g id="edge8" class="edge">
<title>ActiveC&#45;&gt;FaultsDeclared</title>
<path fill="none" stroke="blue" d="M104.28,-344.16C104.28,-331.65 104.28,-314.1 104.28,-300.48"/>
</g>
<!-- ActiveC&#45;&gt;FaultsDeclared -->
<!-- ActiveC&#45;&gt;FaultSpotted -->
<g id="edge16" class="edge">
<title>ActiveC&#45;&gt;FaultSpotted</title>
<path fill="none" stroke="magenta" d="M160.02,-360C180.82,-360 202.63,-360 202.63,-360 202.63,-360 202.63,-332.1 202.63,-309.21"/>
</g>
<!-- ActiveC&#45;&gt;FaultSpotted -->
<!-- FaultedC -->
<g id="node5" class="node">
<title>FaultedC</title>
<ellipse fill="none" stroke="black" cx="254" cy="-163.6" rx="40.01" ry="18"/>
<text text-anchor="middle" x="254" y="-159.4" font-family="Times,serif" font-size="14.00">Faulted</text>
</g>
<!-- FaultedC&#45;&gt;RecoveringC -->
<g id="edge10" class="edge">
<title>FaultedC&#45;&gt;RecoveringC</title>
<path fill="none" stroke="black" d="M294.14,-163C312.33,-163 329.84,-163 329.84,-163 329.84,-163 329.84,-545 329.84,-545 329.84,-545 320.56,-545 320.56,-545"/>
<polygon fill="black" stroke="black" points="320.56,-541.5 310.56,-545 320.56,-548.5 320.56,-541.5"/>
<text text-anchor="middle" x="315.35" y="-355.8" font-family="Times,serif" font-size="14.00">sm.RecoverFaults</text>
</g>
<!-- ExpiredC -->
<g id="node6" class="node">
<title>ExpiredC</title>
<ellipse fill="none" stroke="black" cx="246" cy="-42" rx="41.13" ry="18"/>
<text text-anchor="middle" x="246" y="-37.8" font-family="Times,serif" font-size="14.00">Cleared</text>
</g>
<!-- FaultedC&#45;&gt;ExpiredC -->
<g id="edge1" class="edge">
<title>FaultedC&#45;&gt;ExpiredC</title>
<path fill="none" stroke="magenta" d="M228.61,-149.65C228.61,-149.65 228.61,-68.49 228.61,-68.49"/>
<polygon fill="magenta" stroke="magenta" points="232.11,-68.49 228.61,-58.49 225.11,-68.49 232.11,-68.49"/>
<text text-anchor="middle" x="263.02" y="-105.8" font-family="Times,serif" font-size="14.00" fill="magenta">Expiry epoch reached</text>
<text text-anchor="middle" x="263.02" y="-89" font-family="Times,serif" font-size="14.00" fill="magenta">(sma.CronTick </text>
<text text-anchor="middle" x="263.02" y="-72.2" font-family="Times,serif" font-size="14.00" fill="magenta">&#45;&gt; sm.ExpireSectors)</text>
</g>
<!-- FaultedC&#45;&gt;ExpiredC -->
<g id="edge2" class="edge">
<title>FaultedC&#45;&gt;ExpiredC</title>
<path fill="none" stroke="magenta" d="M243.22,-146.18C243.22,-146.18 243.22,-70.18 243.22,-70.18"/>
<polygon fill="magenta" stroke="magenta" points="246.72,-70.18 243.22,-60.18 239.72,-70.18 246.72,-70.18"/>
<text text-anchor="middle" x="117.49" y="-105.8" font-family="Times,serif" font-size="14.00" fill="magenta">Faulted 3+ times</text>
<text text-anchor="middle" x="117.49" y="-89" font-family="Times,serif" font-size="14.00" fill="magenta">(sma.CronTick </text>
<text text-anchor="middle" x="117.49" y="-72.2" font-family="Times,serif" font-size="14.00" fill="magenta">&#45;&gt; sm.SectorCleanup)</text>
</g>
<!-- FaultedC&#45;&gt;ExpiredC -->
<!-- FaultedC&#45;&gt;ExpiredC -->
<!-- ExpireByPost&#45;&gt;ExpiredC -->
<g id="edge14" class="edge">
<title>ExpireByPost&#45;&gt;ExpiredC</title>
<path fill="none" stroke="orange" d="M188.95,-140C200.83,-140 209.47,-140 209.47,-140 209.47,-140 209.47,-60.36 209.47,-60.36"/>
<polygon fill="orange" stroke="orange" points="212.97,-60.36 209.47,-50.36 205.97,-60.36 212.97,-60.36"/>
</g>
<!-- FaultsDeclared&#45;&gt;FaultedC -->
<g id="edge9" class="edge">
<title>FaultsDeclared&#45;&gt;FaultedC</title>
<path fill="none" stroke="blue" d="M158.44,-272C176.29,-272 191.08,-272 191.08,-272 191.08,-272 191.08,-157 191.08,-157 191.08,-157 206.67,-157 206.67,-157"/>
<polygon fill="blue" stroke="blue" points="206.67,-160.5 216.67,-157 206.67,-153.5 206.67,-160.5"/>
</g>
<!-- FaultsDeclared&#45;&gt;FaultedC -->
<!-- FaultSpotted&#45;&gt;FaultedC -->
<g id="edge18" class="edge">
<title>FaultSpotted&#45;&gt;FaultedC</title>
<path fill="none" stroke="magenta" d="M240.67,-250.48C240.67,-250.48 240.67,-190.65 240.67,-190.65"/>
<polygon fill="magenta" stroke="magenta" points="244.17,-190.65 240.67,-180.65 237.17,-190.65 244.17,-190.65"/>
</g>
<!-- FaultSpotted&#45;&gt;FaultedC -->
</g>
</svg>
