<?xml version="1.0" encoding="UTF-8" standalone="no"?>
<!DOCTYPE svg PUBLIC "-//W3C//DTD SVG 1.1//EN"
 "http://www.w3.org/Graphics/SVG/1.1/DTD/svg11.dtd">
<!-- Generated by graphviz version 5.0.0 (20220707.1540)
 -->
<!-- Title: sectoRecovering Pages: 1 -->
<svg width="374pt" height="566pt"
 viewBox="0.00 0.00 374.00 565.60" xmlns="http://www.w3.org/2000/svg" xmlns:xlink="http://www.w3.org/1999/xlink">
<g id="graph0" class="graph" transform="scale(1 1) rotate(0) translate(4 561.6)">
<title>sectoRecovering</title>
<polygon fill="white" stroke="transparent" points="-4,4 -4,-561.6 370,-561.6 370,4 -4,4"/>
<g id="clust1" class="cluster">
<title>cluster_0</title>
<polygon fill="#e5e5e5" stroke="#e5e5e5" points="8,-94 8,-355.6 356,-355.6 356,-94 8,-94"/>
<text text-anchor="middle" x="182" y="-339" font-family="Times,serif" font-size="14.00">Proving Set</text>
</g>
<g id="clust2" class="cluster">
<title>cluster_1</title>
<polygon fill="#cccccc" stroke="#cccccc" points="16,-196 16,-322.8 348,-322.8 348,-196 16,-196"/>
<text text-anchor="middle" x="182" y="-306.2" font-family="Times,serif" font-size="14.00">Not Counted for Power</text>
</g>
<!-- Cleared -->
<g id="node1" class="node">
<title>Cleared</title>
<ellipse fill="none" stroke="black" cx="67" cy="-510.6" rx="43" ry="43"/>
<ellipse fill="none" stroke="black" cx="67" cy="-510.6" rx="47" ry="47"/>
<text text-anchor="middle" x="67" y="-506.4" font-family="Times,serif" font-size="14.00">Cleared</text>
</g>
<!-- Precommitted -->
<g id="node2" class="node">
<title>Precommitted</title>
<ellipse fill="none" stroke="black" cx="67" cy="-406.6" rx="43" ry="43"/>
<text text-anchor="middle" x="67" y="-402.4" font-family="Times,serif" font-size="14.00">Precommitted</text>
</g>
<!-- Cleared&#45;&gt;Precommitted -->
<g id="edge1" class="edge">
<title>Cleared&#45;&gt;Precommitted</title>
<path fill="none" stroke="gray" stroke-width="2" d="M81.33,-465.59C81.33,-465.59 81.33,-457.42 81.33,-457.42"/>
<polygon fill="gray" stroke="gray" stroke-width="2" points="84.83,-457.42 81.33,-447.42 77.83,-457.42 84.83,-457.42"/>
</g>
<!-- Precommitted&#45;&gt;Cleared -->
<g id="edge5" class="edge">
<title>Precommitted&#45;&gt;Cleared</title>
<path fill="none" stroke="blue" stroke-width="2" d="M52.67,-447.41C54.67,-447.41 54.67,-455.79 52.67,-455.79"/>
<path fill="none" stroke="white" stroke-width="2" d="M52.67,-447.41C52.67,-447.41 52.67,-455.79 52.67,-455.79"/>
<path fill="none" stroke="purple" stroke-width="2" d="M52.67,-447.41C50.67,-447.41 50.67,-455.79 52.67,-455.79"/>
<polygon fill="blue" stroke="blue" stroke-width="2" points="49.17,-455.79 52.67,-465.79 56.17,-455.79 49.17,-455.79"/>
</g>
<!-- Committed -->
<g id="node3" class="node">
<title>Committed</title>
<ellipse fill="none" stroke="black" cx="67" cy="-247" rx="43" ry="43"/>
<text text-anchor="middle" x="67" y="-242.8" font-family="Times,serif" font-size="14.00">Committed</text>
</g>
<!-- Precommitted&#45;&gt;Committed -->
<g id="edge2" class="edge">
<title>Precommitted&#45;&gt;Committed</title>
<path fill="none" stroke="black" stroke-width="2" d="M67,-363.41C67,-363.41 67,-300.22 67,-300.22"/>
<polygon fill="black" stroke="black" stroke-width="2" points="70.5,-300.22 67,-290.22 63.5,-300.22 70.5,-300.22"/>
</g>
<!-- Active -->
<g id="node4" class="node">
<title>Active</title>
<ellipse fill="none" stroke="black" cx="63" cy="-145" rx="43" ry="43"/>
<text text-anchor="middle" x="63" y="-157.6" font-family="Times,serif" font-size="14.00">Active</text>
<text text-anchor="middle" x="63" y="-140.8" font-family="Times,serif" font-size="14.00">(Counted</text>
<text text-anchor="middle" x="63" y="-124" font-family="Times,serif" font-size="14.00">for Power)</text>
</g>
<!-- Committed&#45;&gt;Active -->
<g id="edge3" class="edge">
<title>Committed&#45;&gt;Active</title>
<path fill="none" stroke="green" stroke-width="2" d="M51.33,-206.69C51.33,-206.69 51.33,-196.69 51.33,-196.69"/>
<polygon fill="green" stroke="green" stroke-width="2" points="54.83,-196.69 51.33,-186.69 47.83,-196.69 54.83,-196.69"/>
</g>
<!-- Failing -->
<g id="node6" class="node">
<title>Failing</title>
<ellipse fill="none" stroke="black" cx="323" cy="-43" rx="43" ry="43"/>
<text text-anchor="middle" x="323" y="-38.8" font-family="Times,serif" font-size="14.00">Failing</text>
</g>
<!-- Committed&#45;&gt;Failing -->
<g id="edge10" class="edge">
<title>Committed&#45;&gt;Failing</title>
<path fill="none" stroke="red" stroke-width="2" d="M76.67,-205.35C76.67,-199.81 76.67,-196 78.67,-196 78.67,-194 304,-194 304,-196 302,-196 302,-91.61 304,-91.61"/>
<path fill="none" stroke="#e5e5e5" stroke-width="2" d="M78.67,-205.35C78.67,-199.81 78.67,-196 78.67,-196 78.67,-196 304,-196 304,-196 304,-196 304,-91.61 304,-91.61"/>
<path fill="none" stroke="orange" stroke-width="2" d="M80.67,-205.35C80.67,-199.81 80.67,-196 78.67,-196 78.67,-198 304,-198 304,-196 306,-196 306,-91.61 304,-91.61"/>
<polygon fill="red" stroke="red" stroke-width="2" points="307.5,-91.61 304,-81.61 300.5,-91.61 307.5,-91.61"/>
</g>
<!-- Active&#45;&gt;Cleared -->
<g id="edge8" class="edge">
<title>Active&#45;&gt;Cleared</title>
<path fill="none" stroke="blue" stroke-width="2" d="M19.97,-145C9.88,-145 2,-145 2,-145 2,-145 2,-510 2,-510 2,-510 9.76,-510 9.76,-510"/>
<polygon fill="blue" stroke="blue" stroke-width="2" points="9.76,-513.5 19.76,-510 9.76,-506.5 9.76,-513.5"/>
</g>
<!-- Active&#45;&gt;Failing -->
<g id="edge6" class="edge">
<title>Active&#45;&gt;Failing</title>
<path fill="none" stroke="red" stroke-width="2" d="M103.41,-128C169.15,-128 292,-128 292,-130 290,-130 290,-82.94 292,-82.94"/>
<path fill="none" stroke="#e5e5e5" stroke-width="2" d="M103.41,-130C169.15,-130 292,-130 292,-130 292,-130 292,-82.94 292,-82.94"/>
<path fill="none" stroke="orange" stroke-width="2" d="M103.41,-132C169.15,-132 292,-132 292,-130 294,-130 294,-82.94 292,-82.94"/>
<polygon fill="red" stroke="red" stroke-width="2" points="295.5,-82.94 292,-72.94 288.5,-82.94 295.5,-82.94"/>
</g>
<!-- Recovering -->
<g id="node5" class="node">
<title>Recovering</title>
<ellipse fill="none" stroke="black" cx="297" cy="-247" rx="43" ry="43"/>
<text text-anchor="middle" x="297" y="-242.8" font-family="Times,serif" font-size="14.00">Recovering</text>
</g>
<!-- Recovering&#45;&gt;Active -->
<g id="edge4" class="edge">
<title>Recovering&#45;&gt;Active</title>
<path fill="none" stroke="green" stroke-width="2" d="M267,-215.73C267,-190.43 267,-159 267,-159 267,-159 113.79,-159 113.79,-159"/>
<polygon fill="green" stroke="green" stroke-width="2" points="113.79,-155.5 103.79,-159 113.79,-162.5 113.79,-155.5"/>
</g>
<!-- Recovering&#45;&gt;Failing -->
<g id="edge11" class="edge">
<title>Recovering&#45;&gt;Failing</title>
<path fill="none" stroke="red" stroke-width="2" d="M328,-216.9C326,-216.9 326,-96.05 328,-96.05"/>
<path fill="none" stroke="#e5e5e5" stroke-width="2" d="M328,-216.9C328,-216.9 328,-96.05 328,-96.05"/>
<path fill="none" stroke="orange" stroke-width="2" d="M328,-216.9C330,-216.9 330,-96.05 328,-96.05"/>
<polygon fill="red" stroke="red" stroke-width="2" points="331.5,-96.04 328,-86.05 324.5,-96.05 331.5,-96.04"/>
</g>
<!-- Failing&#45;&gt;Cleared -->
<g id="edge9" class="edge">
<title>Failing&#45;&gt;Cleared</title>
<path fill="none" stroke="magenta" stroke-width="2" d="M357,-74C357,-178.31 357,-510 353,-510 353,-514 124.23,-514 124.23,-510"/>
<path fill="none" stroke="white" stroke-width="2" d="M355,-74C355,-178.31 355,-510 353,-510 353,-512 124.23,-512 124.23,-510"/>
<path fill="none" stroke="purple" stroke-width="2" d="M353,-74C353,-178.31 353,-510 353,-510 353,-510 124.23,-510 124.23,-510"/>
<path fill="none" stroke="white" stroke-width="2" d="M351,-74C351,-178.31 351,-510 353,-510 353,-508 124.23,-508 124.23,-510"/>
<path fill="none" stroke="blue" stroke-width="2" d="M349,-74C349,-178.31 349,-510 353,-510 353,-506 124.23,-506 124.23,-510"/>
<polygon fill="magenta" stroke="magenta" stroke-width="2" points="124.23,-506.5 114.23,-510 124.23,-513.5 124.23,-506.5"/>
</g>
<!-- Failing&#45;&gt;Recovering -->
<g id="edge7" class="edge">
<title>Failing&#45;&gt;Recovering</title>
<path fill="none" stroke="cyan" stroke-width="2" d="M316,-85.77C316,-85.77 316,-198.42 316,-198.42"/>
<polygon fill="cyan" stroke="cyan" stroke-width="2" points="312.5,-198.42 316,-208.42 319.5,-198.42 312.5,-198.42"/>
</g>
</g>
</svg>
