<?xml version="1.0" encoding="UTF-8" standalone="no"?>
<!DOCTYPE svg PUBLIC "-//W3C//DTD SVG 1.1//EN"
 "http://www.w3.org/Graphics/SVG/1.1/DTD/svg11.dtd">
<!-- Generated by graphviz version 5.0.0 (20220707.1540)
 -->
<!-- Pages: 1 -->
<svg width="184pt" height="121pt"
 viewBox="0.00 0.00 184.00 121.21" xmlns="http://www.w3.org/2000/svg" xmlns:xlink="http://www.w3.org/1999/xlink">
<g id="graph0" class="graph" transform="scale(1 1) rotate(0) translate(4 117.21)">
<polygon fill="white" stroke="transparent" points="-4,4 -4,-117.21 180,-117.21 180,4 -4,4"/>
<g id="clust1" class="cluster">
<title>cluster_01</title>
<polygon fill="none" stroke="black" points="8,-28.21 8,-105.21 168,-105.21 168,-28.21 8,-28.21"/>
<text text-anchor="middle" x="88" y="-88.61" font-family="Times,serif" font-size="14.00">Legend</text>
</g>
<!-- key -->
<g id="node1" class="node">
<title>key</title>
<text text-anchor="middle" x="43" y="-50.01" font-family="Times,serif" font-size="14.00">key</text>
</g>
<!-- key2 -->
<g id="node2" class="node">
<title>key2</title>
<text text-anchor="middle" x="133" y="-50.01" font-family="Times,serif" font-size="14.00">key2</text>
</g>
<!-- key&#45;&gt;key2 -->
<g id="edge1" class="edge">
<title>key:e&#45;&gt;key2:w</title>
<path fill="none" stroke="gray" d="M46.09,-36.21C57.17,8.2 109.25,11.52 126.46,-26.25"/>
<polygon fill="gray" stroke="gray" points="123.31,-27.83 129.89,-36.13 129.92,-25.53 123.31,-27.83"/>
</g>
<!-- key&#45;&gt;key2 -->
<g id="edge2" class="edge">
<title>key:e&#45;&gt;key2:w</title>
<path fill="none" stroke="black" d="M48.01,-36.02C61.12,-9.43 102.99,-6.61 122.2,-27.57"/>
<polygon fill="black" stroke="black" points="119.42,-29.71 127.97,-35.98 125.2,-25.75 119.42,-29.71"/>
</g>
<!-- key&#45;&gt;key2 -->
<g id="edge3" class="edge">
<title>key:e&#45;&gt;key2:w</title>
<path fill="none" stroke="green" d="M54.44,-36C68.81,-26.06 94.93,-24.56 112.85,-31.48"/>
<polygon fill="green" stroke="green" points="111.36,-34.65 121.84,-36.2 114.61,-28.45 111.36,-34.65"/>
</g>
<!-- key&#45;&gt;key2 -->
<g id="edge4" class="edge">
<title>key:e&#45;&gt;key2:w</title>
<path fill="none" stroke="orange" d="M70.4,-41.72C78.39,-40.76 87.31,-40.48 95.82,-40.91"/>
<polygon fill="orange" stroke="orange" points="95.66,-44.4 105.92,-41.76 96.25,-37.43 95.66,-44.4"/>
</g>
<!-- key&#45;&gt;key2 -->
<g id="edge5" class="edge">
<title>key:e&#45;&gt;key2:w</title>
<path fill="none" stroke="red" d="M70.4,-54.21C78.39,-54.21 87.31,-54.21 95.82,-54.21"/>
<polygon fill="red" stroke="red" points="95.92,-57.71 105.92,-54.21 95.92,-50.71 95.92,-57.71"/>
</g>
<!-- key&#45;&gt;key2 -->
<g id="edge6" class="edge">
<title>key:e&#45;&gt;key2:w</title>
<path fill="none" stroke="cyan" d="M70.4,-66.7C78.39,-67.67 87.31,-67.94 95.82,-67.52"/>
<polygon fill="cyan" stroke="cyan" points="96.25,-71 105.92,-66.67 95.66,-64.02 96.25,-71"/>
</g>
<!-- key&#45;&gt;key2 -->
<g id="edge7" class="edge">
<title>key:e&#45;&gt;key2:w</title>
<path fill="none" stroke="blue" d="M54.44,-72.43C68.81,-82.37 94.93,-83.87 112.85,-76.95"/>
<polygon fill="blue" stroke="blue" points="114.61,-79.98 121.84,-72.23 111.36,-73.78 114.61,-79.98"/>
</g>
<!-- key&#45;&gt;key2 -->
<g id="edge8" class="edge">
<title>key:e&#45;&gt;key2:w</title>
<path fill="none" stroke="magenta" d="M48.01,-72.4C61.12,-99 102.99,-101.82 122.2,-80.86"/>
<polygon fill="magenta" stroke="magenta" points="125.2,-82.68 127.97,-72.45 119.42,-78.72 125.2,-82.68"/>
</g>
<!-- key&#45;&gt;key2 -->
<g id="edge9" class="edge">
<title>key:e&#45;&gt;key2:w</title>
<path fill="none" stroke="purple" d="M46.09,-72.22C57.17,-116.63 109.25,-119.94 126.46,-82.18"/>
<polygon fill="purple" stroke="purple" points="129.92,-82.89 129.89,-72.3 123.31,-80.6 129.92,-82.89"/>
</g>
</g>
</svg>
