<?xml version="1.0" encoding="UTF-8" standalone="no"?>
<!DOCTYPE svg PUBLIC "-//W3C//DTD SVG 1.1//EN"
 "http://www.w3.org/Graphics/SVG/1.1/DTD/svg11.dtd">
<!-- Generated by graphviz version 5.0.0 (20220707.1540)
 -->
<!-- Title: sector Pages: 1 -->
<svg width="1149pt" height="1077pt"
 viewBox="0.00 0.00 1148.58 1076.80" xmlns="http://www.w3.org/2000/svg" xmlns:xlink="http://www.w3.org/1999/xlink">
<g id="graph0" class="graph" transform="scale(1 1) rotate(0) translate(4 1072.8)">
<title>sector</title>
<polygon fill="white" stroke="transparent" points="-4,4 -4,-1072.8 1144.58,-1072.8 1144.58,4 -4,4"/>
<g id="clust1" class="cluster">
<title>cluster_local</title>
<polygon fill="none" stroke="gray" stroke-width="2" points="580,-264.8 580,-1060.8 832,-1060.8 832,-264.8 580,-264.8"/>
<text text-anchor="middle" x="706" y="-1044.2" font-family="Times,serif" font-size="14.00">Sector States in Storage Miner</text>
<text text-anchor="middle" x="706" y="-1027.4" font-family="Times,serif" font-size="14.00">(off chain)</text>
</g>
<g id="clust2" class="cluster">
<title>cluster_power</title>
<polygon fill="#43cd80" stroke="#43cd80" points="588,-540.8 588,-592.8 799,-592.8 799,-540.8 588,-540.8"/>
</g>
<g id="clust3" class="cluster">
<title>cluster_chain</title>
<polygon fill="none" stroke="gray" stroke-width="2" points="8,-8 8,-804.8 333,-804.8 333,-8 8,-8"/>
<text text-anchor="middle" x="170.5" y="-788.2" font-family="Times,serif" font-size="14.00">Sector States in StorageMinerActor</text>
<text text-anchor="middle" x="170.5" y="-771.4" font-family="Times,serif" font-size="14.00">(on chain)</text>
</g>
<g id="clust4" class="cluster">
<title>cluster_postproving</title>
<polygon fill="#e0eeee" stroke="#e0eeee" points="16,-386.4 16,-755.2 191,-755.2 191,-386.4 16,-386.4"/>
<text text-anchor="middle" x="103.5" y="-738.6" font-family="Times,serif" font-size="14.00">must be proved in post</text>
</g>
<g id="clust5" class="cluster">
<title>cluster_nopowerC1</title>
<polygon fill="lightgray" stroke="lightgray" points="24,-645.6 24,-722.4 183,-722.4 183,-645.6 24,-645.6"/>
<text text-anchor="middle" x="103.5" y="-705.8" font-family="Times,serif" font-size="14.00">Does not count for power</text>
</g>
<g id="clust6" class="cluster">
<title>cluster_powerC</title>
<polygon fill="#43cd80" stroke="#43cd80" points="46,-394.4 46,-471.2 159,-471.2 159,-394.4 46,-394.4"/>
<text text-anchor="middle" x="102.5" y="-454.6" font-family="Times,serif" font-size="14.00">Counts for power</text>
</g>
<g id="clust8" class="cluster">
<title>cluster_nopowerC2</title>
<polygon fill="lightgray" stroke="lightgray" points="16,-16 16,-195.2 325,-195.2 325,-16 16,-16"/>
<text text-anchor="middle" x="170.5" y="-178.6" font-family="Times,serif" font-size="14.00">Does not count for power</text>
</g>
<!-- Empty -->
<g id="node1" class="node">
<title>Empty</title>
<ellipse fill="none" stroke="black" cx="627" cy="-993.2" rx="36.57" ry="18"/>
<text text-anchor="middle" x="627" y="-989" font-family="Times,serif" font-size="14.00">Empty</text>
</g>
<!-- Packing -->
<g id="node2" class="node">
<title>Packing</title>
<ellipse fill="none" stroke="black" cx="632" cy="-924.4" rx="42.3" ry="18"/>
<text text-anchor="middle" x="632" y="-920.2" font-family="Times,serif" font-size="14.00">Packing</text>
</g>
<!-- Empty&#45;&gt;Packing -->
<!-- Empty&#45;&gt;Packing -->
<g id="edge6" class="edge">
<title>Empty&#45;&gt;Packing</title>
<path fill="none" stroke="black" d="M614.74,-976.19C614.74,-976.19 614.74,-951.21 614.74,-951.21"/>
<polygon fill="black" stroke="black" points="618.24,-951.21 614.74,-941.21 611.24,-951.21 618.24,-951.21"/>
<text text-anchor="middle" x="668.02" y="-954.6" font-family="Times,serif" font-size="14.00">Add Deal</text>
</g>
<!-- Packing&#45;&gt;Packing -->
<g id="edge28" class="edge">
<title>Packing&#45;&gt;Packing</title>
<path fill="none" stroke="black" d="M668.97,-933.23C668.97,-943.18 668.97,-958 668.97,-958 668.97,-958 683.06,-958 683.06,-958 683.06,-958 683.06,-890 683.06,-890 683.06,-890 655.12,-890 655.12,-890 655.12,-890 655.12,-899.21 655.12,-899.21"/>
<polygon fill="black" stroke="black" points="651.62,-899.21 655.12,-909.21 658.62,-899.21 651.62,-899.21"/>
</g>
<!-- Unsealed -->
<g id="node3" class="node">
<title>Unsealed</title>
<ellipse fill="none" stroke="black" cx="645" cy="-855.6" rx="46.93" ry="18"/>
<text text-anchor="middle" x="645" y="-851.4" font-family="Times,serif" font-size="14.00">Unsealed</text>
</g>
<!-- Packing&#45;&gt;Unsealed -->
<!-- Packing&#45;&gt;Unsealed -->
<g id="edge7" class="edge">
<title>Packing&#45;&gt;Unsealed</title>
<path fill="none" stroke="black" d="M636.09,-906.32C636.09,-906.32 636.09,-883.32 636.09,-883.32"/>
<polygon fill="black" stroke="black" points="639.59,-883.32 636.09,-873.32 632.59,-883.32 639.59,-883.32"/>
<text text-anchor="middle" x="685.77" y="-885.8" font-family="Times,serif" font-size="14.00">Sector is full</text>
</g>
<!-- Sealed -->
<g id="node4" class="node">
<title>Sealed</title>
<ellipse fill="none" stroke="black" cx="657" cy="-671.6" rx="36.56" ry="18"/>
<text text-anchor="middle" x="657" y="-667.4" font-family="Times,serif" font-size="14.00">Sealed</text>
</g>
<!-- Unsealed&#45;&gt;Sealed -->
<!-- Unsealed&#45;&gt;Sealed -->
<g id="edge8" class="edge">
<title>Unsealed&#45;&gt;Sealed</title>
<path fill="none" stroke="black" d="M644.14,-837.28C644.14,-837.28 644.14,-698.5 644.14,-698.5"/>
<polygon fill="black" stroke="black" points="647.64,-698.5 644.14,-688.5 640.64,-698.5 647.64,-698.5"/>
<text text-anchor="middle" x="673.05" y="-817" font-family="Times,serif" font-size="14.00">Seal</text>
</g>
<!-- NotProving -->
<g id="node5" class="node">
<title>NotProving</title>
<ellipse fill="none" stroke="black" cx="666" cy="-420.4" rx="58.54" ry="18"/>
<text text-anchor="middle" x="666" y="-416.2" font-family="Times,serif" font-size="14.00">Not Proving</text>
</g>
<!-- Sealed&#45;&gt;NotProving -->
<!-- Proving -->
<g id="node7" class="node">
<title>Proving</title>
<ellipse fill="none" stroke="black" cx="638" cy="-566.8" rx="41.74" ry="18"/>
<text text-anchor="middle" x="638" y="-562.6" font-family="Times,serif" font-size="14.00">Proving</text>
</g>
<!-- Sealed&#45;&gt;Proving -->
<g id="edge9" class="edge">
<title>Sealed&#45;&gt;Proving</title>
<path fill="none" stroke="black" d="M649.92,-653.82C649.92,-653.82 649.92,-594.32 649.92,-594.32"/>
<polygon fill="black" stroke="black" points="653.42,-594.32 649.92,-584.32 646.42,-594.32 653.42,-594.32"/>
<text text-anchor="middle" x="697.41" y="-625" font-family="Times,serif" font-size="14.00">Commit</text>
<text text-anchor="middle" x="697.41" y="-608.2" font-family="Times,serif" font-size="14.00">(sm.CommitSector)</text>
</g>
<!-- CommittedC -->
<g id="node8" class="node">
<title>CommittedC</title>
<ellipse fill="none" stroke="black" cx="109" cy="-671.6" rx="49.81" ry="18"/>
<text text-anchor="middle" x="109" y="-667.4" font-family="Times,serif" font-size="14.00">Unproven</text>
</g>
<!-- Sealed&#45;&gt;CommittedC -->
<g id="edge31" class="edge">
<title>Sealed&#45;&gt;CommittedC</title>
<path fill="none" stroke="blue" stroke-dasharray="5,2" d="M628.31,-683C628.31,-683 157.64,-683 157.64,-683"/>
<polygon fill="blue" stroke="blue" points="157.64,-679.5 147.64,-683 157.64,-686.5 157.64,-679.5"/>
</g>
<!-- Deleted -->
<g id="node6" class="node">
<title>Deleted</title>
<ellipse fill="none" stroke="black" cx="690" cy="-290.8" rx="41.13" ry="18"/>
<text text-anchor="middle" x="690" y="-286.6" font-family="Times,serif" font-size="14.00">Deleted</text>
</g>
<!-- NotProving&#45;&gt;Deleted -->
<!-- NotProving&#45;&gt;Deleted -->
<g id="edge11" class="edge">
<title>NotProving&#45;&gt;Deleted</title>
<path fill="none" stroke="black" d="M699.33,-405.53C699.33,-405.53 699.33,-318.38 699.33,-318.38"/>
<polygon fill="black" stroke="black" points="702.83,-318.38 699.33,-308.38 695.83,-318.38 702.83,-318.38"/>
<text text-anchor="middle" x="747.34" y="-365.8" font-family="Times,serif" font-size="14.00">Give up on recovery</text>
<text text-anchor="middle" x="747.34" y="-349" font-family="Times,serif" font-size="14.00">or</text>
<text text-anchor="middle" x="747.34" y="-332.2" font-family="Times,serif" font-size="14.00">Expiry</text>
</g>
<!-- NotProving&#45;&gt;Proving -->
<g id="edge30" class="edge">
<title>NotProving&#45;&gt;Proving</title>
<path fill="none" stroke="blue" d="M631.53,-434.97C631.53,-434.97 631.53,-538.66 631.53,-538.66"/>
<polygon fill="blue" stroke="blue" points="628.03,-538.66 631.53,-548.66 635.03,-538.66 628.03,-538.66"/>
<text text-anchor="middle" x="769.87" y="-508.6" font-family="Times,serif" font-size="14.00" fill="blue">Recover</text>
<text text-anchor="middle" x="769.87" y="-491.8" font-family="Times,serif" font-size="14.00" fill="blue">(sm.SubmitPost)</text>
</g>
<!-- FaultsDeclared -->
<g id="node13" class="node">
<title>FaultsDeclared</title>
<polygon fill="none" stroke="blue" points="305.41,-311.4 182.59,-311.4 182.59,-270.2 305.41,-270.2 305.41,-311.4"/>
<text text-anchor="middle" x="244" y="-295" font-family="Times,serif" font-size="14.00" fill="blue">Fault Declared</text>
<text text-anchor="middle" x="244" y="-278.2" font-family="Times,serif" font-size="14.00" fill="blue">(sm.DeclareFaults)</text>
</g>
<!-- NotProving&#45;&gt;FaultsDeclared -->
<g id="edge37" class="edge">
<title>NotProving&#45;&gt;FaultsDeclared</title>
<path fill="none" stroke="blue" stroke-dasharray="5,2" d="M635.12,-404.93C635.12,-370.39 635.12,-290 635.12,-290 635.12,-290 415.69,-290 305.54,-290"/>
</g>
<!-- FaultSpotted -->
<g id="node14" class="node">
<title>FaultSpotted</title>
<polygon fill="none" stroke="magenta" points="164.68,-320.2 49.32,-320.2 49.32,-261.4 164.68,-261.4 164.68,-320.2"/>
<text text-anchor="middle" x="107" y="-303.4" font-family="Times,serif" font-size="14.00" fill="magenta">Fault Spotted</text>
<text text-anchor="middle" x="107" y="-286.6" font-family="Times,serif" font-size="14.00" fill="magenta">(sma.CronTick </text>
<text text-anchor="middle" x="107" y="-269.8" font-family="Times,serif" font-size="14.00" fill="magenta">&#45;&gt; sm.PostFailed)</text>
</g>
<!-- NotProving&#45;&gt;FaultSpotted -->
<g id="edge41" class="edge">
<title>NotProving&#45;&gt;FaultSpotted</title>
<path fill="none" stroke="magenta" stroke-dasharray="5,2" d="M621.3,-408.61C621.3,-380.9 621.3,-314 621.3,-314 621.3,-314 299.5,-314 165,-314"/>
</g>
<!-- split_________________3 -->
<!-- NotProving&#45;&gt;split_________________3 -->
<!-- Proving&#45;&gt;NotProving -->
<g id="edge10" class="edge">
<title>Proving&#45;&gt;NotProving</title>
<path fill="none" stroke="black" d="M655.57,-550.29C655.57,-550.29 655.57,-448.45 655.57,-448.45"/>
<polygon fill="black" stroke="black" points="659.07,-448.45 655.57,-438.45 652.07,-448.45 659.07,-448.45"/>
<text text-anchor="middle" x="652.86" y="-517" font-family="Times,serif" font-size="14.00">Lost data</text>
<text text-anchor="middle" x="652.86" y="-500.2" font-family="Times,serif" font-size="14.00">or</text>
<text text-anchor="middle" x="652.86" y="-483.4" font-family="Times,serif" font-size="14.00">Stopped Proving</text>
</g>
<!-- Proving&#45;&gt;Proving -->
<g id="edge29" class="edge">
<title>Proving&#45;&gt;Proving</title>
<path fill="none" stroke="blue" d="M605.43,-578.13C605.43,-584.02 605.43,-590 605.43,-590 605.43,-590 580.72,-590 580.72,-590 580.72,-590 580.72,-543 580.72,-543 580.72,-543 603.78,-543 603.78,-543 603.78,-543 603.78,-546.29 603.78,-546.29"/>
<polygon fill="blue" stroke="blue" points="600.28,-546.29 603.78,-556.29 607.28,-546.29 600.28,-546.29"/>
</g>
<!-- FirstPost -->
<g id="node10" class="node">
<title>FirstPost</title>
<text text-anchor="middle" x="92" y="-579.4" font-family="Times,serif" font-size="14.00" fill="blue">1st PoSt</text>
<text text-anchor="middle" x="92" y="-562.6" font-family="Times,serif" font-size="14.00" fill="blue">(sm.SubmitPost </text>
<text text-anchor="middle" x="92" y="-545.8" font-family="Times,serif" font-size="14.00" fill="blue">&#45;&gt;sm.ActivateSector)</text>
</g>
<!-- Proving&#45;&gt;FirstPost -->
<g id="edge33" class="edge">
<title>Proving&#45;&gt;FirstPost</title>
<path fill="none" stroke="blue" stroke-dasharray="5,2" d="M596.06,-566C502.3,-566 274.94,-566 160.38,-566"/>
</g>
<!-- split_________________2 -->
<!-- Proving&#45;&gt;split_________________2 -->
<!-- CommittedC&#45;&gt;Proving -->
<g id="edge34" class="edge">
<title>CommittedC&#45;&gt;Proving</title>
<path fill="none" stroke="blue" stroke-dasharray="5,2" d="M156.4,-677C281.82,-677 612.83,-677 612.83,-677 612.83,-677 612.83,-591.21 612.83,-591.21"/>
<polygon fill="blue" stroke="blue" points="616.33,-591.21 612.83,-581.21 609.33,-591.21 616.33,-591.21"/>
<text text-anchor="middle" x="435.76" y="-625" font-family="Times,serif" font-size="14.00" fill="blue">Commit Sector</text>
<text text-anchor="middle" x="435.76" y="-608.2" font-family="Times,serif" font-size="14.00" fill="blue">(wait for commit)</text>
</g>
<!-- CommittedC&#45;&gt;FirstPost -->
<!-- CommittedC&#45;&gt;FirstPost -->
<!-- CommittedC&#45;&gt;FirstPost -->
<g id="edge32" class="edge">
<title>CommittedC&#45;&gt;FirstPost</title>
<path fill="none" stroke="blue" d="M109,-653.35C109,-637.63 109,-614.65 109,-596.32"/>
</g>
<!-- CommittedC&#45;&gt;FaultsDeclared -->
<g id="edge38" class="edge">
<title>CommittedC&#45;&gt;FaultsDeclared</title>
<path fill="none" stroke="blue" d="M158.72,-671C207.54,-671 274.73,-671 274.73,-671 274.73,-671 274.73,-390.85 274.73,-311.51"/>
</g>
<!-- CommittedC&#45;&gt;FaultSpotted -->
<g id="edge15" class="edge">
<title>CommittedC&#45;&gt;FaultSpotted</title>
<path fill="none" stroke="magenta" d="M144.67,-659C158.44,-659 170.93,-659 170.93,-659 170.93,-659 170.93,-317 170.93,-317 170.93,-317 168.69,-317 165.03,-317"/>
</g>
<!-- ActiveC -->
<g id="node9" class="node">
<title>ActiveC</title>
<ellipse fill="none" stroke="black" cx="107" cy="-420.4" rx="36.56" ry="18"/>
<text text-anchor="middle" x="107" y="-416.2" font-family="Times,serif" font-size="14.00">Active</text>
</g>
<!-- ExpiredC -->
<g id="node12" class="node">
<title>ExpiredC</title>
<ellipse fill="none" stroke="black" cx="126" cy="-42" rx="41.13" ry="18"/>
<text text-anchor="middle" x="126" y="-37.8" font-family="Times,serif" font-size="14.00">Deleted</text>
</g>
<!-- ActiveC&#45;&gt;ExpiredC -->
<g id="edge35" class="edge">
<title>ActiveC&#45;&gt;ExpiredC</title>
<path fill="none" stroke="blue" d="M135.76,-409C154.24,-409 174.8,-409 174.8,-409 174.8,-409 174.8,-54 174.8,-54 174.8,-54 166.63,-54 166.63,-54"/>
<polygon fill="blue" stroke="blue" points="166.63,-50.5 156.63,-54 166.63,-57.5 166.63,-50.5"/>
<text text-anchor="middle" x="95.02" y="-241" font-family="Times,serif" font-size="14.00" fill="blue">Expiry epoch reached</text>
<text text-anchor="middle" x="95.02" y="-224.2" font-family="Times,serif" font-size="14.00" fill="blue">(sm.SubmitPost </text>
<text text-anchor="middle" x="95.02" y="-207.4" font-family="Times,serif" font-size="14.00" fill="blue">&#45;&gt; sm.ExpireSectors)</text>
</g>
<!-- ActiveC&#45;&gt;FaultsDeclared -->
<!-- ActiveC&#45;&gt;FaultsDeclared -->
<g id="edge39" class="edge">
<title>ActiveC&#45;&gt;FaultsDeclared</title>
<path fill="none" stroke="blue" d="M142.68,-416C173.56,-416 213.27,-416 213.27,-416 213.27,-416 213.27,-347.03 213.27,-311.47"/>
</g>
<!-- ActiveC&#45;&gt;FaultSpotted -->
<g id="edge16" class="edge">
<title>ActiveC&#45;&gt;FaultSpotted</title>
<path fill="none" stroke="magenta" d="M94.74,-403.19C94.74,-381.98 94.74,-345.62 94.74,-320.01"/>
</g>
<!-- ActiveC&#45;&gt;FaultSpotted -->
<!-- FirstPost&#45;&gt;ActiveC -->
<g id="edge14" class="edge">
<title>FirstPost&#45;&gt;ActiveC</title>
<path fill="none" stroke="blue" d="M125.39,-537.53C125.39,-537.53 125.39,-446.09 125.39,-446.09"/>
<polygon fill="blue" stroke="blue" points="128.89,-446.09 125.39,-436.09 121.89,-446.09 128.89,-446.09"/>
</g>
<!-- FirstPost&#45;&gt;ActiveC -->
<!-- FirstPost&#45;&gt;ActiveC -->
<!-- FaultedC -->
<g id="node11" class="node">
<title>FaultedC</title>
<ellipse fill="none" stroke="black" cx="244" cy="-144.4" rx="40.01" ry="18"/>
<text text-anchor="middle" x="244" y="-140.2" font-family="Times,serif" font-size="14.00">Faulted</text>
</g>
<!-- FaultedC&#45;&gt;CommittedC -->
<g id="edge36" class="edge">
<title>FaultedC&#45;&gt;CommittedC</title>
<path fill="none" stroke="blue" d="M205.62,-150C191.4,-150 178.68,-150 178.68,-150 178.68,-150 178.68,-665 178.68,-665 178.68,-665 165.47,-665 165.47,-665"/>
<polygon fill="blue" stroke="blue" points="165.47,-661.5 155.47,-665 165.47,-668.5 165.47,-661.5"/>
<text text-anchor="middle" x="277.87" y="-424.6" font-family="Times,serif" font-size="14.00" fill="blue">Recover</text>
<text text-anchor="middle" x="277.87" y="-407.8" font-family="Times,serif" font-size="14.00" fill="blue">(sm.SubmitPost)</text>
</g>
<!-- FaultedC&#45;&gt;ExpiredC -->
<g id="edge12" class="edge">
<title>FaultedC&#45;&gt;ExpiredC</title>
<path fill="none" stroke="magenta" d="M236,-126.56C236,-97.22 236,-42 236,-42 236,-42 177.27,-42 177.27,-42"/>
<polygon fill="magenta" stroke="magenta" points="177.27,-38.5 167.27,-42 177.27,-45.5 177.27,-38.5"/>
<text text-anchor="middle" x="103.02" y="-105.8" font-family="Times,serif" font-size="14.00" fill="magenta">Expiry epoch reached</text>
<text text-anchor="middle" x="103.02" y="-89" font-family="Times,serif" font-size="14.00" fill="magenta">(sma.CronTick </text>
<text text-anchor="middle" x="103.02" y="-72.2" font-family="Times,serif" font-size="14.00" fill="magenta">&#45;&gt; sm.ExpireSectors)</text>
</g>
<!-- FaultedC&#45;&gt;ExpiredC -->
<g id="edge13" class="edge">
<title>FaultedC&#45;&gt;ExpiredC</title>
<path fill="none" stroke="magenta" d="M268,-129.91C268,-99.13 268,-30 268,-30 268,-30 166.81,-30 166.81,-30"/>
<polygon fill="magenta" stroke="magenta" points="166.81,-26.5 156.81,-30 166.81,-33.5 166.81,-26.5"/>
<text text-anchor="middle" x="248.49" y="-105.8" font-family="Times,serif" font-size="14.00" fill="magenta">Faulted 3+ times</text>
<text text-anchor="middle" x="248.49" y="-89" font-family="Times,serif" font-size="14.00" fill="magenta">(sma.CronTick </text>
<text text-anchor="middle" x="248.49" y="-72.2" font-family="Times,serif" font-size="14.00" fill="magenta">&#45;&gt; sm.SectorCleanup)</text>
</g>
<!-- FaultedC&#45;&gt;ExpiredC -->
<!-- FaultedC&#45;&gt;ExpiredC -->
<!-- split_________________4 -->
<!-- FaultedC&#45;&gt;split_________________4 -->
<!-- FaultsDeclared&#45;&gt;FaultedC -->
<!-- FaultsDeclared&#45;&gt;FaultedC -->
<g id="edge40" class="edge">
<title>FaultsDeclared&#45;&gt;FaultedC</title>
<path fill="none" stroke="blue" d="M244,-270.13C244,-270.13 244,-172.65 244,-172.65"/>
<polygon fill="blue" stroke="blue" points="247.5,-172.65 244,-162.65 240.5,-172.65 247.5,-172.65"/>
</g>
<!-- FaultSpotted&#45;&gt;FaultedC -->
<g id="edge17" class="edge">
<title>FaultSpotted&#45;&gt;FaultedC</title>
<path fill="none" stroke="magenta" d="M124.89,-261.34C124.89,-216.94 124.89,-138 124.89,-138 124.89,-138 196.31,-138 196.31,-138"/>
<polygon fill="magenta" stroke="magenta" points="196.31,-141.5 206.31,-138 196.31,-134.5 196.31,-141.5"/>
</g>
<!-- FaultSpotted&#45;&gt;FaultedC -->
<!-- split_________________2&#45;&gt;ActiveC -->
<!-- split_________________3&#45;&gt;FaultedC -->
<!-- split_________________4&#45;&gt;Deleted -->
</g>
</svg>
