<?xml version="1.0" encoding="UTF-8" standalone="no"?>
<!DOCTYPE svg PUBLIC "-//W3C//DTD SVG 1.1//EN"
 "http://www.w3.org/Graphics/SVG/1.1/DTD/svg11.dtd">
<!-- Generated by graphviz version 5.0.0 (20220707.1540)
 -->
<!-- Title: sector_state Pages: 1 -->
<svg width="225pt" height="431pt"
 viewBox="0.00 0.00 225.00 430.80" xmlns="http://www.w3.org/2000/svg" xmlns:xlink="http://www.w3.org/1999/xlink">
<g id="graph0" class="graph" transform="scale(1 1) rotate(0) translate(4 426.8)">
<title>sector_state</title>
<polygon fill="white" stroke="transparent" points="-4,4 -4,-426.8 221,-426.8 221,4 -4,4"/>
<g id="clust1" class="cluster">
<title>cluster_0</title>
<polygon fill="#e5e5e5" stroke="#e5e5e5" points="8,-94 8,-220.8 209,-220.8 209,-94 8,-94"/>
<text text-anchor="middle" x="108.5" y="-204.2" font-family="Times,serif" font-size="14.00">Proving Set (Counted for Power)</text>
</g>
<!-- Cleared -->
<g id="node1" class="node">
<title>Cleared</title>
<ellipse fill="none" stroke="black" cx="108" cy="-375.8" rx="43" ry="43"/>
<ellipse fill="none" stroke="black" cx="108" cy="-375.8" rx="47" ry="47"/>
<text text-anchor="middle" x="108" y="-371.6" font-family="Times,serif" font-size="14.00">Cleared</text>
</g>
<!-- PreCommit -->
<g id="node2" class="node">
<title>PreCommit</title>
<ellipse fill="none" stroke="black" cx="108" cy="-271.8" rx="43" ry="43"/>
<text text-anchor="middle" x="108" y="-267.6" font-family="Times,serif" font-size="14.00">PreCommit</text>
</g>
<!-- Cleared&#45;&gt;PreCommit -->
<g id="edge1" class="edge">
<title>Cleared&#45;&gt;PreCommit</title>
<path fill="none" stroke="black" stroke-width="2" d="M122.33,-330.79C122.33,-330.79 122.33,-322.62 122.33,-322.62"/>
<polygon fill="black" stroke="black" stroke-width="2" points="125.83,-322.62 122.33,-312.62 118.83,-322.62 125.83,-322.62"/>
</g>
<!-- PreCommit&#45;&gt;Cleared -->
<g id="edge3" class="edge">
<title>PreCommit&#45;&gt;Cleared</title>
<path fill="none" stroke="gray" stroke-width="2" d="M93.67,-312.61C93.67,-312.61 93.67,-320.99 93.67,-320.99"/>
<polygon fill="gray" stroke="gray" stroke-width="2" points="90.17,-320.99 93.67,-330.99 97.17,-320.99 90.17,-320.99"/>
</g>
<!-- Active -->
<g id="node3" class="node">
<title>Active</title>
<ellipse fill="none" stroke="black" cx="108" cy="-145" rx="43" ry="43"/>
<text text-anchor="middle" x="108" y="-140.8" font-family="Times,serif" font-size="14.00">Active</text>
</g>
<!-- PreCommit&#45;&gt;Active -->
<g id="edge2" class="edge">
<title>PreCommit&#45;&gt;Active</title>
<path fill="none" stroke="green" stroke-width="2" d="M122.33,-230.98C122.33,-230.98 122.33,-195.74 122.33,-195.74"/>
<polygon fill="green" stroke="green" stroke-width="2" points="125.83,-195.74 122.33,-185.74 118.83,-195.74 125.83,-195.74"/>
</g>
<!-- PreCommit&#45;&gt;Active -->
<!-- Active&#45;&gt;Cleared -->
<g id="edge7" class="edge">
<title>Active&#45;&gt;Cleared</title>
<path fill="none" stroke="blue" stroke-width="2" d="M64.64,-147C52.72,-147 43,-147 43,-145 45,-145 45,-375 43,-375 43,-373 50.76,-373 50.76,-375"/>
<path fill="none" stroke="white" stroke-width="2" d="M64.64,-145C52.72,-145 43,-145 43,-145 43,-145 43,-375 43,-375 43,-375 50.76,-375 50.76,-375"/>
<path fill="none" stroke="purple" stroke-width="2" d="M64.64,-143C52.72,-143 43,-143 43,-145 41,-145 41,-375 43,-375 43,-377 50.76,-377 50.76,-375"/>
<polygon fill="blue" stroke="blue" stroke-width="2" points="50.76,-378.5 60.76,-375 50.76,-371.5 50.76,-378.5"/>
</g>
<!-- TempFault -->
<g id="node4" class="node">
<title>TempFault</title>
<ellipse fill="none" stroke="black" cx="108" cy="-43" rx="43" ry="43"/>
<text text-anchor="middle" x="108" y="-38.8" font-family="Times,serif" font-size="14.00">TempFault</text>
</g>
<!-- Active&#45;&gt;TempFault -->
<g id="edge4" class="edge">
<title>Active&#45;&gt;TempFault</title>
<path fill="none" stroke="orange" stroke-width="2" d="M93.67,-104.39C93.67,-104.39 93.67,-93.8 93.67,-93.8"/>
<polygon fill="orange" stroke="orange" stroke-width="2" points="97.17,-93.8 93.67,-83.8 90.17,-93.8 97.17,-93.8"/>
</g>
<!-- TempFault&#45;&gt;Active -->
<g id="edge5" class="edge">
<title>TempFault&#45;&gt;Active</title>
<path fill="none" stroke="cyan" stroke-width="2" d="M122.33,-83.61C122.33,-83.61 122.33,-94.2 122.33,-94.2"/>
<polygon fill="cyan" stroke="cyan" stroke-width="2" points="118.83,-94.2 122.33,-104.2 125.83,-94.2 118.83,-94.2"/>
</g>
</g>
</svg>
