<?xml version="1.0" encoding="UTF-8" standalone="no"?>
<!DOCTYPE svg PUBLIC "-//W3C//DTD SVG 1.1//EN"
 "http://www.w3.org/Graphics/SVG/1.1/DTD/svg11.dtd">
<!-- Generated by graphviz version 5.0.0 (20220707.1540)
 -->
<!-- Title: Filecoin Pages: 1 -->
<svg width="1929pt" height="1487pt"
 viewBox="0.00 0.00 1929.00 1487.07" xmlns="http://www.w3.org/2000/svg" xmlns:xlink="http://www.w3.org/1999/xlink">
<g id="graph0" class="graph" transform="scale(1 1) rotate(0) translate(4 1483.07)">
<title>Filecoin</title>
<polygon fill="white" stroke="transparent" points="-4,4 -4,-1483.07 1925,-1483.07 1925,4 -4,4"/>
<g id="clust1" class="cluster">
<title>cluster_blockchain_subgroup</title>
<polygon fill="#e0ffff" stroke="#e0ffff" points="911,-376.85 911,-1037.16 1379,-1037.16 1379,-376.85 911,-376.85"/>
</g>
<g id="clust2" class="cluster">
<title>cluster_blockchain</title>
<polygon fill="lightgrey" stroke="lightgrey" points="919,-775.46 919,-998.46 1099,-998.46 1099,-775.46 919,-775.46"/>
<text text-anchor="middle" x="1009" y="-981.86" font-family="Times,serif" font-size="14.00">Blockchain</text>
</g>
<g id="clust4" class="cluster">
<title>cluster_vm</title>
<polygon fill="lightgrey" stroke="lightgrey" points="1055,-477.65 1055,-684.77 1371,-684.77 1371,-477.65 1055,-477.65"/>
<text text-anchor="middle" x="1213" y="-668.17" font-family="Times,serif" font-size="14.00">Filecoin VM</text>
</g>
<g id="clust7" class="cluster">
<title>cluster_messagepool</title>
<polygon fill="lightgrey" stroke="lightgrey" points="919,-384.85 919,-572.29 1047,-572.29 1047,-384.85 919,-384.85"/>
<text text-anchor="middle" x="983" y="-555.69" font-family="Times,serif" font-size="14.00">Message Pool</text>
</g>
<g id="clust9" class="cluster">
<title>cluster_storagepowerconsensus</title>
<polygon fill="lightgrey" stroke="lightgrey" points="1195,-775.46 1195,-1029.16 1356,-1029.16 1356,-775.46 1195,-775.46"/>
<text text-anchor="middle" x="1275.5" y="-1012.56" font-family="Times,serif" font-size="14.00">Storage Power Consensus</text>
</g>
<g id="clust12" class="cluster">
<title>cluster_markets</title>
<polygon fill="lavender" stroke="lavender" points="327,-1063.16 327,-1307.87 843,-1307.87 843,-1063.16 327,-1063.16"/>
</g>
<g id="clust13" class="cluster">
<title>cluster_storagemarket</title>
<polygon fill="lightgrey" stroke="lightgrey" points="597,-1071.16 597,-1299.87 835,-1299.87 835,-1071.16 597,-1071.16"/>
<text text-anchor="middle" x="716" y="-1283.27" font-family="Times,serif" font-size="14.00">Storage Market</text>
</g>
<g id="clust18" class="cluster">
<title>cluster_retrievalmarket</title>
<polygon fill="lightgrey" stroke="lightgrey" points="335,-1176.72 335,-1284.83 589,-1284.83 589,-1176.72 335,-1176.72"/>
<text text-anchor="middle" x="462" y="-1268.23" font-family="Times,serif" font-size="14.00">Retrieval Market</text>
</g>
<g id="clust21" class="cluster">
<title>cluster_filesdata</title>
<polygon fill="lavender" stroke="lavender" points="480,-366.25 480,-1026.78 881,-1026.78 881,-366.25 480,-366.25"/>
</g>
<g id="clust22" class="cluster">
<title>cluster_pieces</title>
<polygon fill="lightgrey" stroke="lightgrey" points="488,-901.34 488,-1018.78 873,-1018.78 873,-901.34 488,-901.34"/>
<text text-anchor="middle" x="680.5" y="-1002.18" font-family="Times,serif" font-size="14.00">Data Transfers</text>
</g>
<g id="clust28" class="cluster">
<title>cluster_files</title>
<polygon fill="lightgrey" stroke="lightgrey" points="723,-374.25 723,-666.93 873,-666.93 873,-374.25 723,-374.25"/>
<text text-anchor="middle" x="798" y="-650.33" font-family="Times,serif" font-size="14.00">Local File Storage</text>
</g>
<g id="clust30" class="cluster">
<title>cluster_storageminerprocess</title>
<polygon fill="#bfefff" stroke="#bfefff" points="873,-1076.88 873,-1471.07 1442,-1471.07 1442,-1076.88 873,-1076.88"/>
</g>
<g id="clust31" class="cluster">
<title>cluster_storagemining</title>
<polygon fill="lightgrey" stroke="lightgrey" points="989,-1324.87 989,-1463.07 1237,-1463.07 1237,-1324.87 989,-1324.87"/>
<text text-anchor="middle" x="1113" y="-1446.47" font-family="Times,serif" font-size="14.00">Storage Mining</text>
</g>
<g id="clust34" class="cluster">
<title>cluster_sectorindexer</title>
<polygon fill="lightgrey" stroke="lightgrey" points="881,-1084.88 881,-1161.68 1097,-1161.68 1097,-1084.88 881,-1084.88"/>
<text text-anchor="middle" x="989" y="-1145.08" font-family="Times,serif" font-size="14.00">Sector Indexer</text>
</g>
<g id="clust36" class="cluster">
<title>cluster_filproofs_subsystem</title>
<polygon fill="lightgrey" stroke="lightgrey" points="1105,-1084.88 1105,-1161.68 1434,-1161.68 1434,-1084.88 1105,-1084.88"/>
<text text-anchor="middle" x="1269.5" y="-1145.08" font-family="Times,serif" font-size="14.00">Storage Proving</text>
</g>
<g id="clust38" class="cluster">
<title>cluster_systems</title>
<polygon fill="none" stroke="black" points="1387,-366.25 1387,-890.96 1913,-890.96 1913,-366.25 1387,-366.25"/>
</g>
<g id="clust39" class="cluster">
<title>cluster_repository</title>
<polygon fill="lightgrey" stroke="lightgrey" points="1395,-374.25 1395,-572.29 1674,-572.29 1674,-374.25 1395,-374.25"/>
<text text-anchor="middle" x="1534.5" y="-555.69" font-family="Times,serif" font-size="14.00">Repository</text>
</g>
<g id="clust41" class="cluster">
<title>cluster_filproofs_lib</title>
<polygon fill="lightgrey" stroke="lightgrey" points="1395,-692.77 1395,-863.46 1701,-863.46 1701,-692.77 1395,-692.77"/>
<text text-anchor="middle" x="1548" y="-846.86" font-family="Times,serif" font-size="14.00">Filecoin Proofs</text>
</g>
<g id="clust43" class="cluster">
<title>cluster_payments</title>
<polygon fill="lightgrey" stroke="lightgrey" points="1709,-744.77 1709,-882.96 1905,-882.96 1905,-744.77 1709,-744.77"/>
<text text-anchor="middle" x="1807" y="-866.36" font-family="Times,serif" font-size="14.00">Payments</text>
</g>
<g id="clust46" class="cluster">
<title>cluster_net</title>
<polygon fill="#e0ffff" stroke="#e0ffff" points="8,-8 8,-469.65 472,-469.65 472,-8 8,-8"/>
</g>
<g id="clust47" class="cluster">
<title>cluster_clock</title>
<polygon fill="lightgrey" stroke="lightgrey" points="196,-281.45 196,-461.65 292,-461.65 292,-281.45 196,-281.45"/>
<text text-anchor="middle" x="244" y="-445.05" font-family="Times,serif" font-size="14.00">Clock</text>
</g>
<g id="clust50" class="cluster">
<title>cluster_network</title>
<polygon fill="lightgrey" stroke="lightgrey" points="300,-281.45 300,-358.25 464,-358.25 464,-281.45 300,-281.45"/>
<text text-anchor="middle" x="382" y="-341.65" font-family="Times,serif" font-size="14.00">Network Interface</text>
</g>
<g id="clust53" class="cluster">
<title>cluster_ipfs</title>
<polygon fill="lightgrey" stroke="lightgrey" points="16,-156 16,-273.45 188,-273.45 188,-156 16,-156"/>
<text text-anchor="middle" x="102" y="-256.85" font-family="Times,serif" font-size="14.00">IPFS</text>
</g>
<g id="clust55" class="cluster">
<title>cluster_libp2p</title>
<polygon fill="lightgrey" stroke="lightgrey" points="196,-16 196,-272.3 452,-272.3 452,-16 196,-16"/>
<text text-anchor="middle" x="324" y="-255.7" font-family="Times,serif" font-size="14.00">libp2p</text>
</g>
<!-- Chain -->
<g id="node1" class="node">
<title>Chain</title>
<polygon fill="none" stroke="black" points="1091,-965.66 1037,-965.66 1037,-929.66 1091,-929.66 1091,-965.66"/>
<text text-anchor="middle" x="1064" y="-943.46" font-family="Times,serif" font-size="14.00">Chain</text>
</g>
<!-- Block Producer -->
<g id="node2" class="node">
<title>Block Producer</title>
<polygon fill="none" stroke="black" points="1076.98,-819.46 973.02,-819.46 973.02,-783.46 1076.98,-783.46 1076.98,-819.46"/>
<text text-anchor="middle" x="1025" y="-797.26" font-family="Times,serif" font-size="14.00">Block Producer</text>
</g>
<!-- Chain&#45;&gt;Block Producer -->
<!-- VM Interpreter -->
<g id="node4" class="node">
<title>VM Interpreter</title>
<polygon fill="none" stroke="black" points="1164.63,-634.13 1063.37,-634.13 1063.37,-598.13 1164.63,-598.13 1164.63,-634.13"/>
<text text-anchor="middle" x="1114" y="-611.93" font-family="Times,serif" font-size="14.00">VM Interpreter</text>
</g>
<!-- Chain&#45;&gt;VM Interpreter -->
<g id="edge27" class="edge">
<title>Chain&#45;&gt;VM Interpreter</title>
<path fill="none" stroke="black" d="M1099,-823.83C1105.98,-777.93 1109.72,-731.83 1111.72,-694.85"/>
<polygon fill="black" stroke="black" points="1115.22,-694.93 1112.23,-684.77 1108.23,-694.57 1115.22,-694.93"/>
</g>
<!-- IPLD DagStore -->
<g id="node35" class="node">
<title>IPLD DagStore</title>
<polygon fill="none" stroke="black" points="1506.99,-539.49 1403.01,-539.49 1403.01,-503.49 1506.99,-503.49 1506.99,-539.49"/>
<text text-anchor="middle" x="1455" y="-517.29" font-family="Times,serif" font-size="14.00">IPLD DagStore</text>
</g>
<!-- Chain&#45;&gt;IPLD DagStore -->
<g id="edge34" class="edge">
<title>Chain&#45;&gt;IPLD DagStore</title>
<path fill="none" stroke="black" d="M1099,-930.13C1124.02,-919.15 1158.83,-905.59 1191,-898.96 1209.41,-895.17 1346.01,-903.52 1360,-890.96 1393.18,-861.18 1379.65,-735.88 1391,-692.77 1400.95,-654.97 1416.24,-613.91 1429.38,-581.59"/>
<polygon fill="black" stroke="black" points="1432.64,-582.86 1433.2,-572.28 1426.16,-580.21 1432.64,-582.86"/>
</g>
<!-- Message Storage -->
<g id="node9" class="node">
<title>Message Storage</title>
<polygon fill="none" stroke="black" points="1038.75,-539.49 927.25,-539.49 927.25,-503.49 1038.75,-503.49 1038.75,-539.49"/>
<text text-anchor="middle" x="983" y="-517.29" font-family="Times,serif" font-size="14.00">Message Storage</text>
</g>
<!-- Block Producer&#45;&gt;Message Storage -->
<g id="edge42" class="edge">
<title>Block Producer&#45;&gt;Message Storage</title>
<path fill="none" stroke="black" d="M1022.37,-783.08C1016.42,-743.7 1001.69,-646.18 992.03,-582.24"/>
<polygon fill="black" stroke="black" points="995.48,-581.65 990.52,-572.28 988.56,-582.69 995.48,-581.65"/>
</g>
<!-- Block Syncer -->
<g id="node3" class="node">
<title>Block Syncer</title>
<polygon fill="none" stroke="black" points="1018.82,-965.66 927.18,-965.66 927.18,-929.66 1018.82,-929.66 1018.82,-965.66"/>
<text text-anchor="middle" x="973" y="-943.46" font-family="Times,serif" font-size="14.00">Block Syncer</text>
</g>
<!-- Gossipsub -->
<g id="node53" class="node">
<title>Gossipsub</title>
<polygon fill="none" stroke="black" points="444.35,-239.67 369.65,-239.67 369.65,-164.98 444.35,-164.98 444.35,-239.67"/>
<polyline fill="none" stroke="black" points="381.65,-239.67 369.65,-227.67 "/>
<polyline fill="none" stroke="black" points="369.65,-176.98 381.65,-164.98 "/>
<polyline fill="none" stroke="black" points="432.35,-164.98 444.35,-176.98 "/>
<polyline fill="none" stroke="black" points="444.35,-227.67 432.35,-239.67 "/>
<text text-anchor="middle" x="407" y="-198.12" font-family="Times,serif" font-size="14.00">Gossipsub</text>
</g>
<!-- Block Syncer&#45;&gt;Gossipsub -->
<g id="edge38" class="edge">
<title>Block Syncer&#45;&gt;Gossipsub</title>
<path fill="none" stroke="black" d="M945.21,-775.47C917.46,-604.99 878.68,-368.25 877,-366.25 767.94,-236.9 550.56,-210.11 454.51,-204.66"/>
<polygon fill="black" stroke="black" points="462.51,-202.77 452,-204.13 461.07,-209.62 462.51,-202.77"/>
</g>
<!-- Messages -->
<g id="node5" class="node">
<title>Messages</title>
<polygon fill="none" stroke="black" points="1149.44,-539.49 1078.56,-539.49 1078.56,-503.49 1149.44,-503.49 1149.44,-539.49"/>
<text text-anchor="middle" x="1114" y="-517.29" font-family="Times,serif" font-size="14.00">Messages</text>
</g>
<!-- VM Interpreter&#45;&gt;Messages -->
<!-- Init Actor -->
<g id="node6" class="node">
<title>Init Actor</title>
<polygon fill="none" stroke="black" points="1259.77,-603 1259.77,-629.26 1238.23,-647.82 1207.77,-647.82 1186.23,-629.26 1186.23,-603 1207.77,-584.43 1238.23,-584.43 1259.77,-603"/>
<polygon fill="none" stroke="black" points="1263.79,-601.18 1263.79,-631.07 1239.73,-651.81 1206.27,-651.81 1182.21,-631.07 1182.21,-601.18 1206.27,-580.45 1239.73,-580.45 1263.79,-601.18"/>
<text text-anchor="middle" x="1223" y="-620.33" font-family="Times,serif" font-size="14.00">Init</text>
<text text-anchor="middle" x="1223" y="-603.53" font-family="Times,serif" font-size="14.00">Actor</text>
</g>
<!-- Account Actor -->
<g id="node7" class="node">
<title>Account Actor</title>
<polygon fill="none" stroke="black" points="1271.59,-508.36 1271.59,-534.62 1243.13,-553.18 1202.87,-553.18 1174.41,-534.62 1174.41,-508.36 1202.87,-489.79 1243.13,-489.79 1271.59,-508.36"/>
<polygon fill="none" stroke="black" points="1275.59,-506.21 1275.59,-536.77 1244.32,-557.17 1201.68,-557.17 1170.41,-536.77 1170.41,-506.21 1201.68,-485.81 1244.32,-485.81 1275.59,-506.21"/>
<text text-anchor="middle" x="1223" y="-525.69" font-family="Times,serif" font-size="14.00">Account</text>
<text text-anchor="middle" x="1223" y="-508.89" font-family="Times,serif" font-size="14.00">Actor</text>
</g>
<!-- Init Actor&#45;&gt;Account Actor -->
<!-- Cron Actor -->
<g id="node8" class="node">
<title>Cron Actor</title>
<polygon fill="none" stroke="black" points="1358.77,-603 1358.77,-629.26 1337.23,-647.82 1306.77,-647.82 1285.23,-629.26 1285.23,-603 1306.77,-584.43 1337.23,-584.43 1358.77,-603"/>
<polygon fill="none" stroke="black" points="1362.79,-601.18 1362.79,-631.07 1338.73,-651.81 1305.27,-651.81 1281.21,-631.07 1281.21,-601.18 1305.27,-580.45 1338.73,-580.45 1362.79,-601.18"/>
<text text-anchor="middle" x="1322" y="-620.33" font-family="Times,serif" font-size="14.00">Cron</text>
<text text-anchor="middle" x="1322" y="-603.53" font-family="Times,serif" font-size="14.00">Actor</text>
</g>
<!-- Message Syncer -->
<g id="node10" class="node">
<title>Message Syncer</title>
<polygon fill="none" stroke="black" points="1034.86,-428.85 927.14,-428.85 927.14,-392.85 1034.86,-392.85 1034.86,-428.85"/>
<text text-anchor="middle" x="981" y="-406.65" font-family="Times,serif" font-size="14.00">Message Syncer</text>
</g>
<!-- Message Storage&#45;&gt;Message Syncer -->
<!-- Filecoin Network Node -->
<g id="node46" class="node">
<title>Filecoin Network Node</title>
<polygon fill="none" stroke="black" points="456.19,-325.45 307.81,-325.45 307.81,-289.45 456.19,-289.45 456.19,-325.45"/>
<text text-anchor="middle" x="382" y="-303.25" font-family="Times,serif" font-size="14.00">Filecoin Network Node</text>
</g>
<!-- Message Syncer&#45;&gt;Filecoin Network Node -->
<!-- Message Syncer&#45;&gt;Gossipsub -->
<g id="edge39" class="edge">
<title>Message Syncer&#45;&gt;Gossipsub</title>
<path fill="none" stroke="black" d="M975.05,-384.85C966.59,-355.12 948.06,-306.4 913,-281.45 839.68,-229.28 565.83,-210.76 454.5,-205.3"/>
<polygon fill="black" stroke="black" points="462.49,-203.29 452,-204.81 461.15,-210.16 462.49,-203.29"/>
</g>
<!-- Expected Consensus -->
<g id="node11" class="node">
<title>Expected Consensus</title>
<polygon fill="none" stroke="black" points="1345.98,-819.46 1214.02,-819.46 1214.02,-783.46 1345.98,-783.46 1345.98,-819.46"/>
<text text-anchor="middle" x="1280" y="-797.26" font-family="Times,serif" font-size="14.00">Expected Consensus</text>
</g>
<!-- Storage Power Actor -->
<g id="node12" class="node">
<title>Storage Power Actor</title>
<polygon fill="none" stroke="black" points="1324.96,-929.07 1324.96,-966.25 1298.62,-992.54 1261.38,-992.54 1235.04,-966.25 1235.04,-929.07 1261.38,-902.78 1298.62,-902.78 1324.96,-929.07"/>
<polygon fill="none" stroke="black" points="1328.95,-927.4 1328.95,-967.92 1300.27,-996.55 1259.73,-996.55 1231.05,-967.92 1231.05,-927.4 1259.73,-898.76 1300.27,-898.76 1328.95,-927.4"/>
<text text-anchor="middle" x="1280" y="-960.26" font-family="Times,serif" font-size="14.00">Storage</text>
<text text-anchor="middle" x="1280" y="-943.46" font-family="Times,serif" font-size="14.00">Power</text>
<text text-anchor="middle" x="1280" y="-926.66" font-family="Times,serif" font-size="14.00">Actor</text>
</g>
<!-- Storage Power Actor&#45;&gt;Expected Consensus -->
<!-- Storage Provider -->
<g id="node13" class="node">
<title>Storage Provider</title>
<polygon fill="none" stroke="black" points="751.21,-1131.48 686.79,-1131.48 686.79,-1090.27 751.21,-1090.27 751.21,-1131.48"/>
<text text-anchor="middle" x="719" y="-1115.08" font-family="Times,serif" font-size="14.00">Storage</text>
<text text-anchor="middle" x="719" y="-1098.28" font-family="Times,serif" font-size="14.00">Provider</text>
</g>
<!-- Storage Provider&#45;&gt;Chain -->
<g id="edge29" class="edge">
<title>Storage Provider&#45;&gt;Chain</title>
<path fill="none" stroke="black" d="M749.1,-1071.16C752.54,-1068.15 756.18,-1065.42 760,-1063.16 791.73,-1044.37 804.44,-1049.96 841,-1045.16 861.62,-1042.45 1011,-1049.13 1028,-1037.16 1038.26,-1029.93 1045.6,-1019.24 1050.85,-1007.77"/>
<polygon fill="black" stroke="black" points="1054.12,-1009.04 1054.63,-998.45 1047.63,-1006.41 1054.12,-1009.04"/>
</g>
<!-- Data Transfers -->
<g id="node20" class="node">
<title>Data Transfers</title>
<polygon fill="none" stroke="black" points="865.29,-965.66 766.71,-965.66 766.71,-929.66 865.29,-929.66 865.29,-965.66"/>
<text text-anchor="middle" x="816" y="-943.46" font-family="Times,serif" font-size="14.00">Data Transfers</text>
</g>
<!-- Storage Provider&#45;&gt;Data Transfers -->
<g id="edge36" class="edge">
<title>Storage Provider&#45;&gt;Data Transfers</title>
<path fill="none" stroke="black" d="M742.3,-1071.16C760.2,-1041.41 784.44,-1001.11 800.15,-975"/>
<polygon fill="black" stroke="black" points="803.34,-976.5 805.49,-966.12 797.34,-972.89 803.34,-976.5"/>
</g>
<!-- Storage Client -->
<g id="node14" class="node">
<title>Storage Client</title>
<polygon fill="none" stroke="black" points="827.27,-1131.48 768.73,-1131.48 768.73,-1090.27 827.27,-1090.27 827.27,-1131.48"/>
<text text-anchor="middle" x="798" y="-1115.08" font-family="Times,serif" font-size="14.00">Storage</text>
<text text-anchor="middle" x="798" y="-1098.28" font-family="Times,serif" font-size="14.00">Client</text>
</g>
<!-- Storage Deal Protocol -->
<g id="node15" class="node">
<title>Storage Deal Protocol</title>
<polygon fill="none" stroke="black" points="668.94,-1142.82 605.06,-1142.82 605.06,-1078.93 668.94,-1078.93 668.94,-1142.82"/>
<polyline fill="none" stroke="black" points="617.06,-1142.82 605.06,-1130.82 "/>
<polyline fill="none" stroke="black" points="605.06,-1090.93 617.06,-1078.93 "/>
<polyline fill="none" stroke="black" points="656.94,-1078.93 668.94,-1090.93 "/>
<polyline fill="none" stroke="black" points="668.94,-1130.82 656.94,-1142.82 "/>
<text text-anchor="middle" x="637" y="-1123.48" font-family="Times,serif" font-size="14.00">Storage</text>
<text text-anchor="middle" x="637" y="-1106.68" font-family="Times,serif" font-size="14.00">Deal</text>
<text text-anchor="middle" x="637" y="-1089.88" font-family="Times,serif" font-size="14.00">Protocol</text>
</g>
<!-- Storage Market Actor -->
<g id="node16" class="node">
<title>Storage Market Actor</title>
<polygon fill="none" stroke="black" points="763.96,-1199.78 763.96,-1236.96 737.62,-1263.25 700.38,-1263.25 674.04,-1236.96 674.04,-1199.78 700.38,-1173.49 737.62,-1173.49 763.96,-1199.78"/>
<polygon fill="none" stroke="black" points="767.95,-1198.11 767.95,-1238.63 739.27,-1267.27 698.73,-1267.27 670.05,-1238.63 670.05,-1198.11 698.73,-1169.48 739.27,-1169.48 767.95,-1198.11"/>
<text text-anchor="middle" x="719" y="-1230.97" font-family="Times,serif" font-size="14.00">Storage</text>
<text text-anchor="middle" x="719" y="-1214.17" font-family="Times,serif" font-size="14.00">Market</text>
<text text-anchor="middle" x="719" y="-1197.37" font-family="Times,serif" font-size="14.00">Actor</text>
</g>
<!-- Storage Market Actor&#45;&gt;Storage Provider -->
<!-- Storage Market Actor&#45;&gt;Storage Client -->
<!-- Storage Market Actor&#45;&gt;Storage Deal Protocol -->
<!-- Retrieval Provider -->
<g id="node17" class="node">
<title>Retrieval Provider</title>
<polygon fill="none" stroke="black" points="580.81,-1238.98 513.19,-1238.98 513.19,-1197.77 580.81,-1197.77 580.81,-1238.98"/>
<text text-anchor="middle" x="547" y="-1222.57" font-family="Times,serif" font-size="14.00">Retrieval</text>
<text text-anchor="middle" x="547" y="-1205.77" font-family="Times,serif" font-size="14.00">Provider</text>
</g>
<!-- Retrieval Provider&#45;&gt;Chain -->
<g id="edge30" class="edge">
<title>Retrieval Provider&#45;&gt;Chain</title>
<path fill="none" stroke="black" d="M581.1,-1176.72C584.85,-1173.95 588.83,-1171.53 593,-1169.68 617.99,-1158.57 816.7,-1177.51 839,-1161.68 877.26,-1134.5 840.7,-1092.91 877,-1063.16 929.67,-1019.99 974.94,-1079.84 1028,-1037.16 1037.47,-1029.53 1044.47,-1019.02 1049.64,-1007.9"/>
<polygon fill="black" stroke="black" points="1052.96,-1009.03 1053.56,-998.46 1046.49,-1006.35 1052.96,-1009.03"/>
</g>
<!-- Retrieval Provider&#45;&gt;Data Transfers -->
<g id="edge37" class="edge">
<title>Retrieval Provider&#45;&gt;Data Transfers</title>
<path fill="none" stroke="black" d="M547.69,-1176.72C550.6,-1141.35 560.69,-1091.44 593,-1063.16 648.53,-1014.55 694.87,-1076.98 757,-1037.16 779.85,-1022.51 795.9,-995.52 805.44,-975.18"/>
<polygon fill="black" stroke="black" points="808.74,-976.37 809.6,-965.81 802.34,-973.53 808.74,-976.37"/>
</g>
<!-- Retrieval Client -->
<g id="node18" class="node">
<title>Retrieval Client</title>
<polygon fill="none" stroke="black" points="495.81,-1238.98 428.19,-1238.98 428.19,-1197.77 495.81,-1197.77 495.81,-1238.98"/>
<text text-anchor="middle" x="462" y="-1222.57" font-family="Times,serif" font-size="14.00">Retrieval</text>
<text text-anchor="middle" x="462" y="-1205.77" font-family="Times,serif" font-size="14.00">Client</text>
</g>
<!-- Retrieval Deal Protocol -->
<g id="node19" class="node">
<title>Retrieval Deal Protocol</title>
<polygon fill="none" stroke="black" points="410.81,-1252.19 343.19,-1252.19 343.19,-1184.56 410.81,-1184.56 410.81,-1252.19"/>
<polyline fill="none" stroke="black" points="355.19,-1252.19 343.19,-1240.19 "/>
<polyline fill="none" stroke="black" points="343.19,-1196.56 355.19,-1184.56 "/>
<polyline fill="none" stroke="black" points="398.81,-1184.56 410.81,-1196.56 "/>
<polyline fill="none" stroke="black" points="410.81,-1240.19 398.81,-1252.19 "/>
<text text-anchor="middle" x="377" y="-1230.97" font-family="Times,serif" font-size="14.00">Retrieval</text>
<text text-anchor="middle" x="377" y="-1214.17" font-family="Times,serif" font-size="14.00">Deal</text>
<text text-anchor="middle" x="377" y="-1197.37" font-family="Times,serif" font-size="14.00">Protocol</text>
</g>
<!-- PieceStore -->
<g id="node24" class="node">
<title>PieceStore</title>
<polygon fill="none" stroke="black" points="853.87,-634.13 778.13,-634.13 778.13,-598.13 853.87,-598.13 853.87,-634.13"/>
<text text-anchor="middle" x="816" y="-611.93" font-family="Times,serif" font-size="14.00">PieceStore</text>
</g>
<!-- Data Transfers&#45;&gt;PieceStore -->
<g id="edge45" class="edge">
<title>Data Transfers&#45;&gt;PieceStore</title>
<path fill="none" stroke="black" d="M816,-929.41C816,-875.58 816,-710.39 816,-644.59"/>
<polygon fill="black" stroke="black" points="819.5,-644.21 816,-634.21 812.5,-644.21 819.5,-644.21"/>
</g>
<!-- Data Transfers Scheduler -->
<g id="node21" class="node">
<title>Data Transfers Scheduler</title>
<polygon fill="none" stroke="black" points="748.27,-965.66 589.73,-965.66 589.73,-929.66 748.27,-929.66 748.27,-965.66"/>
<text text-anchor="middle" x="669" y="-943.46" font-family="Times,serif" font-size="14.00">Data Transfers Scheduler</text>
</g>
<!-- AuthSwap -->
<g id="node22" class="node">
<title>AuthSwap</title>
<polygon fill="none" stroke="black" points="572.14,-985.8 495.86,-985.8 495.86,-909.52 572.14,-909.52 572.14,-985.8"/>
<polyline fill="none" stroke="black" points="507.86,-985.8 495.86,-973.8 "/>
<polyline fill="none" stroke="black" points="495.86,-921.52 507.86,-909.52 "/>
<polyline fill="none" stroke="black" points="560.14,-909.52 572.14,-921.52 "/>
<polyline fill="none" stroke="black" points="572.14,-973.8 560.14,-985.8 "/>
<text text-anchor="middle" x="534" y="-968.66" font-family="Times,serif" font-size="14.00">data</text>
<text text-anchor="middle" x="534" y="-951.86" font-family="Times,serif" font-size="14.00">transfer</text>
<text text-anchor="middle" x="534" y="-935.06" font-family="Times,serif" font-size="14.00">protocol</text>
<text text-anchor="middle" x="534" y="-918.26" font-family="Times,serif" font-size="14.00">(unnamed)</text>
</g>
<!-- Graphsync -->
<g id="node47" class="node">
<title>Graphsync</title>
<polygon fill="none" stroke="black" points="180.15,-240.47 103.85,-240.47 103.85,-164.17 180.15,-164.17 180.15,-240.47"/>
<polyline fill="none" stroke="black" points="115.85,-240.47 103.85,-228.47 "/>
<polyline fill="none" stroke="black" points="103.85,-176.17 115.85,-164.17 "/>
<polyline fill="none" stroke="black" points="168.15,-164.17 180.15,-176.17 "/>
<polyline fill="none" stroke="black" points="180.15,-228.47 168.15,-240.47 "/>
<text text-anchor="middle" x="142" y="-198.12" font-family="Times,serif" font-size="14.00">Graphsync</text>
</g>
<!-- AuthSwap&#45;&gt;Graphsync -->
<g id="edge35" class="edge">
<title>AuthSwap&#45;&gt;Graphsync</title>
<path fill="none" stroke="black" d="M495.63,-941.86C400.06,-927.54 159,-875.95 159,-719.77 159,-719.77 159,-719.77 159,-409.85 159,-355.13 153,-292.52 148.13,-250.72"/>
<polygon fill="black" stroke="black" points="151.57,-250.07 146.92,-240.56 144.62,-250.9 151.57,-250.07"/>
</g>
<!-- FileStore -->
<g id="node23" class="node">
<title>FileStore</title>
<polygon fill="none" stroke="black" points="840.83,-539.49 773.17,-539.49 773.17,-503.49 840.83,-503.49 840.83,-539.49"/>
<text text-anchor="middle" x="807" y="-517.29" font-family="Times,serif" font-size="14.00">FileStore</text>
</g>
<!-- Disk2 -->
<g id="node25" class="node">
<title>Disk2</title>
<path fill="none" stroke="black" d="M864.92,-434.33C864.92,-437.21 834.93,-439.55 798,-439.55 761.07,-439.55 731.08,-437.21 731.08,-434.33 731.08,-434.33 731.08,-387.37 731.08,-387.37 731.08,-384.49 761.07,-382.15 798,-382.15 834.93,-382.15 864.92,-384.49 864.92,-387.37 864.92,-387.37 864.92,-434.33 864.92,-434.33"/>
<path fill="none" stroke="black" d="M864.92,-434.33C864.92,-431.45 834.93,-429.11 798,-429.11 761.07,-429.11 731.08,-431.45 731.08,-434.33"/>
<text text-anchor="middle" x="798" y="-415.05" font-family="Times,serif" font-size="14.00">Data Storage System</text>
<text text-anchor="middle" x="798" y="-398.25" font-family="Times,serif" font-size="14.00">(Disks, etc)</text>
</g>
<!-- FileStore&#45;&gt;Disk2 -->
<g id="edge10" class="edge">
<title>FileStore&#45;&gt;Disk2</title>
<path fill="none" stroke="black" d="M805.55,-503.03C804.37,-488.73 802.65,-467.96 801.15,-449.86"/>
<polygon fill="black" stroke="black" points="804.63,-449.53 800.32,-439.86 797.66,-450.11 804.63,-449.53"/>
</g>
<!-- PieceStore&#45;&gt;FileStore -->
<g id="edge9" class="edge">
<title>PieceStore&#45;&gt;FileStore</title>
<path fill="none" stroke="black" d="M814.31,-597.7C812.99,-584.16 811.14,-565.13 809.63,-549.6"/>
<polygon fill="black" stroke="black" points="813.11,-549.14 808.65,-539.52 806.14,-549.81 813.11,-549.14"/>
</g>
<!-- Mining Scheduler -->
<g id="node26" class="node">
<title>Mining Scheduler</title>
<polygon fill="none" stroke="black" points="1229.21,-1399.57 1112.79,-1399.57 1112.79,-1363.57 1229.21,-1363.57 1229.21,-1399.57"/>
<text text-anchor="middle" x="1171" y="-1377.37" font-family="Times,serif" font-size="14.00">Mining Scheduler</text>
</g>
<!-- Sector Builder -->
<g id="node29" class="node">
<title>Sector Builder</title>
<polygon fill="none" stroke="black" points="986.76,-1128.88 889.24,-1128.88 889.24,-1092.88 986.76,-1092.88 986.76,-1128.88"/>
<text text-anchor="middle" x="938" y="-1106.68" font-family="Times,serif" font-size="14.00">Sector Builder</text>
</g>
<!-- Mining Scheduler&#45;&gt;Sector Builder -->
<g id="edge32" class="edge">
<title>Mining Scheduler&#45;&gt;Sector Builder</title>
<path fill="none" stroke="black" d="M1122.7,-1324.87C1083.27,-1279.39 1027.73,-1215.35 987.87,-1169.39"/>
<polygon fill="black" stroke="black" points="990.38,-1166.93 981.18,-1161.67 985.09,-1171.52 990.38,-1166.93"/>
</g>
<!-- Pledge Prover -->
<g id="node32" class="node">
<title>Pledge Prover</title>
<polygon fill="none" stroke="black" points="1327.43,-1128.88 1232.57,-1128.88 1232.57,-1092.88 1327.43,-1092.88 1327.43,-1128.88"/>
<text text-anchor="middle" x="1280" y="-1106.68" font-family="Times,serif" font-size="14.00">Pledge Prover</text>
</g>
<!-- Mining Scheduler&#45;&gt;Pledge Prover -->
<g id="edge31" class="edge">
<title>Mining Scheduler&#45;&gt;Pledge Prover</title>
<path fill="none" stroke="black" d="M1193.59,-1324.87C1211.79,-1280.01 1237.32,-1217.1 1255.9,-1171.28"/>
<polygon fill="black" stroke="black" points="1259.28,-1172.26 1259.8,-1161.67 1252.8,-1169.62 1259.28,-1172.26"/>
</g>
<!-- Storage Miner Actor -->
<g id="node27" class="node">
<title>Storage Miner Actor</title>
<polygon fill="none" stroke="black" points="1090.96,-1362.98 1090.96,-1400.16 1064.62,-1426.45 1027.38,-1426.45 1001.04,-1400.16 1001.04,-1362.98 1027.38,-1336.69 1064.62,-1336.69 1090.96,-1362.98"/>
<polygon fill="none" stroke="black" points="1094.95,-1361.31 1094.95,-1401.83 1066.27,-1430.46 1025.73,-1430.46 997.05,-1401.83 997.05,-1361.31 1025.73,-1332.67 1066.27,-1332.67 1094.95,-1361.31"/>
<text text-anchor="middle" x="1046" y="-1394.17" font-family="Times,serif" font-size="14.00">Storage</text>
<text text-anchor="middle" x="1046" y="-1377.37" font-family="Times,serif" font-size="14.00">Miner</text>
<text text-anchor="middle" x="1046" y="-1360.57" font-family="Times,serif" font-size="14.00">Actor</text>
</g>
<!-- Sector Store -->
<g id="node28" class="node">
<title>Sector Store</title>
<polygon fill="none" stroke="black" points="1089.32,-1128.88 1004.68,-1128.88 1004.68,-1092.88 1089.32,-1092.88 1089.32,-1128.88"/>
<text text-anchor="middle" x="1047" y="-1106.68" font-family="Times,serif" font-size="14.00">Sector Store</text>
</g>
<!-- Sector Store&#45;&gt;PieceStore -->
<g id="edge46" class="edge">
<title>Sector Store&#45;&gt;PieceStore</title>
<path fill="none" stroke="black" d="M1031.91,-1092.76C1022.44,-1082.92 1009.5,-1071 996,-1063.16 963.3,-1044.17 940.66,-1064.93 915,-1037.16 901.31,-1022.33 840.52,-734.85 821.62,-644.24"/>
<polygon fill="black" stroke="black" points="825,-643.27 819.53,-634.19 818.14,-644.7 825,-643.27"/>
</g>
<!-- Seal Prover -->
<g id="node30" class="node">
<title>Seal Prover</title>
<polygon fill="none" stroke="black" points="1426.43,-1128.88 1345.57,-1128.88 1345.57,-1092.88 1426.43,-1092.88 1426.43,-1128.88"/>
<text text-anchor="middle" x="1386" y="-1106.68" font-family="Times,serif" font-size="14.00">Seal Prover</text>
</g>
<!-- PoSt Generator -->
<g id="node31" class="node">
<title>PoSt Generator</title>
<polygon fill="none" stroke="black" points="1214.93,-1128.88 1113.07,-1128.88 1113.07,-1092.88 1214.93,-1092.88 1214.93,-1128.88"/>
<text text-anchor="middle" x="1164" y="-1106.68" font-family="Times,serif" font-size="14.00">PoSt Generator</text>
</g>
<!-- PoSt Generator&#45;&gt;Chain -->
<g id="edge33" class="edge">
<title>PoSt Generator&#45;&gt;Chain</title>
<path fill="none" stroke="black" d="M1148.5,-1084.88C1135.67,-1064.2 1116.93,-1033.99 1100.36,-1007.28"/>
<polygon fill="black" stroke="black" points="1103.13,-1005.11 1094.89,-998.46 1097.19,-1008.8 1103.13,-1005.11"/>
</g>
<!-- Pledge Prover&#45;&gt;Storage Power Actor -->
<g id="edge28" class="edge">
<title>Pledge Prover&#45;&gt;Storage Power Actor</title>
<path fill="none" stroke="black" d="M1280,-1084.88C1280,-1072.23 1280,-1056.03 1280,-1039.24"/>
<polygon fill="black" stroke="black" points="1283.5,-1039.15 1280,-1029.15 1276.5,-1039.15 1283.5,-1039.15"/>
</g>
<!-- Stacked&#45;DRG&#45;Porep -->
<g id="node37" class="node">
<title>Stacked&#45;DRG&#45;Porep</title>
<polygon fill="none" stroke="black" points="1692.86,-819.46 1561.14,-819.46 1561.14,-783.46 1692.86,-783.46 1692.86,-819.46"/>
<text text-anchor="middle" x="1627" y="-797.26" font-family="Times,serif" font-size="14.00">Stacked&#45;DRG&#45;Porep</text>
</g>
<!-- Pledge Prover&#45;&gt;Stacked&#45;DRG&#45;Porep -->
<g id="edge43" class="edge">
<title>Pledge Prover&#45;&gt;Stacked&#45;DRG&#45;Porep</title>
<path fill="none" stroke="black" d="M1310.37,-1084.88C1318.96,-1077.84 1328.33,-1070.18 1337,-1063.16 1432.12,-986.09 1464.24,-976.32 1552,-890.96 1558.45,-884.69 1564.93,-877.91 1571.23,-871"/>
<polygon fill="black" stroke="black" points="1573.93,-873.24 1578,-863.46 1568.72,-868.57 1573.93,-873.24"/>
</g>
<!-- Config -->
<g id="node33" class="node">
<title>Config</title>
<polygon fill="none" stroke="black" points="1579.39,-539.49 1524.61,-539.49 1524.61,-503.49 1579.39,-503.49 1579.39,-539.49"/>
<text text-anchor="middle" x="1552" y="-517.29" font-family="Times,serif" font-size="14.00">Config</text>
</g>
<!-- Local Storage -->
<g id="node36" class="node">
<title>Local Storage</title>
<path fill="none" stroke="black" d="M1599.13,-434.33C1599.13,-437.21 1578.01,-439.55 1552,-439.55 1525.99,-439.55 1504.87,-437.21 1504.87,-434.33 1504.87,-434.33 1504.87,-387.37 1504.87,-387.37 1504.87,-384.49 1525.99,-382.15 1552,-382.15 1578.01,-382.15 1599.13,-384.49 1599.13,-387.37 1599.13,-387.37 1599.13,-434.33 1599.13,-434.33"/>
<path fill="none" stroke="black" d="M1599.13,-434.33C1599.13,-431.45 1578.01,-429.11 1552,-429.11 1525.99,-429.11 1504.87,-431.45 1504.87,-434.33"/>
<text text-anchor="middle" x="1552" y="-415.05" font-family="Times,serif" font-size="14.00">Local Storage</text>
<text text-anchor="middle" x="1552" y="-398.25" font-family="Times,serif" font-size="14.00">(Disk)</text>
</g>
<!-- Config&#45;&gt;Local Storage -->
<g id="edge12" class="edge">
<title>Config&#45;&gt;Local Storage</title>
<path fill="none" stroke="black" d="M1552,-503.03C1552,-488.73 1552,-467.96 1552,-449.86"/>
<polygon fill="black" stroke="black" points="1555.5,-449.86 1552,-439.86 1548.5,-449.86 1555.5,-449.86"/>
</g>
<!-- KeyStore -->
<g id="node34" class="node">
<title>KeyStore</title>
<polygon fill="none" stroke="black" points="1666.38,-539.49 1597.62,-539.49 1597.62,-503.49 1666.38,-503.49 1666.38,-539.49"/>
<text text-anchor="middle" x="1632" y="-517.29" font-family="Times,serif" font-size="14.00">KeyStore</text>
</g>
<!-- KeyStore&#45;&gt;Local Storage -->
<g id="edge13" class="edge">
<title>KeyStore&#45;&gt;Local Storage</title>
<path fill="none" stroke="black" d="M1619.15,-503.03C1608.27,-488.26 1592.32,-466.6 1578.69,-448.1"/>
<polygon fill="black" stroke="black" points="1581.37,-445.83 1572.62,-439.86 1575.74,-449.98 1581.37,-445.83"/>
</g>
<!-- IPLD DagStore&#45;&gt;Local Storage -->
<g id="edge11" class="edge">
<title>IPLD DagStore&#45;&gt;Local Storage</title>
<path fill="none" stroke="black" d="M1470.58,-503.03C1483.89,-488.13 1503.46,-466.21 1520.08,-447.6"/>
<polygon fill="black" stroke="black" points="1522.94,-449.65 1526.99,-439.86 1517.72,-444.98 1522.94,-449.65"/>
</g>
<!-- Rational PoSt -->
<g id="node38" class="node">
<title>Rational PoSt</title>
<polygon fill="none" stroke="black" points="1673.9,-736.77 1580.1,-736.77 1580.1,-700.77 1673.9,-700.77 1673.9,-736.77"/>
<text text-anchor="middle" x="1627" y="-714.57" font-family="Times,serif" font-size="14.00">Rational PoSt</text>
</g>
<!-- Stacked&#45;DRG&#45;Porep&#45;&gt;Rational PoSt -->
<!-- Piece Inclusion Proofs -->
<g id="node39" class="node">
<title>Piece Inclusion Proofs</title>
<polygon fill="none" stroke="black" points="1543.1,-830.87 1474.9,-830.87 1474.9,-772.06 1543.1,-772.06 1543.1,-830.87"/>
<text text-anchor="middle" x="1509" y="-814.06" font-family="Times,serif" font-size="14.00">Piece</text>
<text text-anchor="middle" x="1509" y="-797.26" font-family="Times,serif" font-size="14.00">Inclusion</text>
<text text-anchor="middle" x="1509" y="-780.46" font-family="Times,serif" font-size="14.00">Proofs</text>
</g>
<!-- VRFs -->
<g id="node40" class="node">
<title>VRFs</title>
<polygon fill="none" stroke="black" points="1457,-819.46 1403,-819.46 1403,-783.46 1457,-783.46 1457,-819.46"/>
<text text-anchor="middle" x="1430" y="-797.26" font-family="Times,serif" font-size="14.00">VRFs</text>
</g>
<!-- VDFs -->
<g id="node41" class="node">
<title>VDFs</title>
<polygon fill="none" stroke="black" points="1457,-736.77 1403,-736.77 1403,-700.77 1457,-700.77 1457,-736.77"/>
<text text-anchor="middle" x="1430" y="-714.57" font-family="Times,serif" font-size="14.00">VDFs</text>
</g>
<!-- VRFs&#45;&gt;VDFs -->
<!-- VDFs&#45;&gt;Cron Actor -->
<!-- Wallet -->
<g id="node42" class="node">
<title>Wallet</title>
<polygon fill="none" stroke="black" points="1897,-819.46 1843,-819.46 1843,-783.46 1897,-783.46 1897,-819.46"/>
<text text-anchor="middle" x="1870" y="-797.26" font-family="Times,serif" font-size="14.00">Wallet</text>
</g>
<!-- Wallet&#45;&gt;KeyStore -->
<g id="edge44" class="edge">
<title>Wallet&#45;&gt;KeyStore</title>
<path fill="none" stroke="black" d="M1859.98,-783.4C1853.11,-772.12 1843.55,-757.18 1834,-744.77 1775.28,-668.43 1696.15,-586.55 1656.62,-546.85"/>
<polygon fill="black" stroke="black" points="1658.81,-544.09 1649.26,-539.49 1653.86,-549.04 1658.81,-544.09"/>
</g>
<!-- Payment Channel Actor -->
<g id="node43" class="node">
<title>Payment Channel Actor</title>
<polygon fill="none" stroke="black" points="1820.97,-782.87 1820.97,-820.05 1791.7,-846.34 1750.3,-846.34 1721.03,-820.05 1721.03,-782.87 1750.3,-756.58 1791.7,-756.58 1820.97,-782.87"/>
<polygon fill="none" stroke="black" points="1824.99,-781.08 1824.99,-821.84 1793.24,-850.36 1748.76,-850.36 1717.01,-821.84 1717.01,-781.08 1748.76,-752.57 1793.24,-752.57 1824.99,-781.08"/>
<text text-anchor="middle" x="1771" y="-814.06" font-family="Times,serif" font-size="14.00">Payment</text>
<text text-anchor="middle" x="1771" y="-797.26" font-family="Times,serif" font-size="14.00">Channel</text>
<text text-anchor="middle" x="1771" y="-780.46" font-family="Times,serif" font-size="14.00">Actor</text>
</g>
<!-- Wall Clock -->
<g id="node44" class="node">
<title>Wall Clock</title>
<polygon fill="none" stroke="black" points="284.15,-428.85 203.85,-428.85 203.85,-392.85 284.15,-392.85 284.15,-428.85"/>
<text text-anchor="middle" x="244" y="-406.65" font-family="Times,serif" font-size="14.00">Wall Clock</text>
</g>
<!-- NTP -->
<g id="node45" class="node">
<title>NTP</title>
<polygon fill="none" stroke="black" points="277,-325.45 223,-325.45 223,-289.45 277,-289.45 277,-325.45"/>
<text text-anchor="middle" x="250" y="-303.25" font-family="Times,serif" font-size="14.00">NTP</text>
</g>
<!-- Wall Clock&#45;&gt;NTP -->
<g id="edge17" class="edge">
<title>Wall Clock&#45;&gt;NTP</title>
<path fill="none" stroke="black" d="M245.02,-392.65C245.94,-377.13 247.3,-354.04 248.37,-335.97"/>
<polygon fill="black" stroke="black" points="251.88,-335.92 248.98,-325.73 244.89,-335.51 251.88,-335.92"/>
</g>
<!-- Switch -->
<g id="node50" class="node">
<title>Switch</title>
<polygon fill="none" stroke="black" points="444.39,-104 389.61,-104 389.61,-68 444.39,-68 444.39,-104"/>
<text text-anchor="middle" x="417" y="-81.8" font-family="Times,serif" font-size="14.00">Switch</text>
</g>
<!-- NTP&#45;&gt;Switch -->
<g id="edge41" class="edge">
<title>NTP&#45;&gt;Switch</title>
<path fill="none" stroke="black" d="M292,-282.7C293.33,-282.24 294.67,-281.82 296,-281.45 312.81,-276.72 440.97,-286.11 453,-273.45 482.47,-242.44 472.82,-194.97 456.13,-155.69"/>
<polygon fill="black" stroke="black" points="459.26,-154.12 452,-146.41 452.87,-156.97 459.26,-154.12"/>
</g>
<!-- Filecoin Network Node&#45;&gt;Gossipsub -->
<!-- p2p.Node -->
<g id="node49" class="node">
<title>p2p.Node</title>
<polygon fill="none" stroke="black" points="313.32,-148 242.68,-148 242.68,-112 313.32,-112 313.32,-148"/>
<text text-anchor="middle" x="278" y="-125.8" font-family="Times,serif" font-size="14.00">p2p.Node</text>
</g>
<!-- Graphsync&#45;&gt;p2p.Node -->
<g id="edge20" class="edge">
<title>Graphsync&#45;&gt;p2p.Node</title>
<path fill="none" stroke="black" d="M179.69,-164.07C183.67,-161.1 187.81,-158.34 192,-156 204.33,-149.11 218.74,-143.96 232.2,-140.19"/>
<polygon fill="black" stroke="black" points="233.46,-143.47 242.26,-137.56 231.7,-136.7 233.46,-143.47"/>
</g>
<!-- Bitswap -->
<g id="node48" class="node">
<title>Bitswap</title>
<polygon fill="none" stroke="black" points="85.89,-233.21 24.11,-233.21 24.11,-171.43 85.89,-171.43 85.89,-233.21"/>
<polyline fill="none" stroke="black" points="36.11,-233.21 24.11,-221.21 "/>
<polyline fill="none" stroke="black" points="24.11,-183.43 36.11,-171.43 "/>
<polyline fill="none" stroke="black" points="73.89,-171.43 85.89,-183.43 "/>
<polyline fill="none" stroke="black" points="85.89,-221.21 73.89,-233.21 "/>
<text text-anchor="middle" x="55" y="-198.12" font-family="Times,serif" font-size="14.00">Bitswap</text>
</g>
<!-- Bitswap&#45;&gt;p2p.Node -->
<g id="edge21" class="edge">
<title>Bitswap&#45;&gt;p2p.Node</title>
<path fill="none" stroke="black" d="M76.09,-171.2C81.59,-165.29 87.97,-159.77 95,-156 118.06,-143.65 186.06,-136.89 232.35,-133.61"/>
<polygon fill="black" stroke="black" points="232.71,-137.09 242.45,-132.92 232.24,-130.11 232.71,-137.09"/>
</g>
<!-- p2p.Node&#45;&gt;Switch -->
<g id="edge23" class="edge">
<title>p2p.Node&#45;&gt;Switch</title>
<path fill="none" stroke="black" d="M313.44,-118.29C333.76,-112.15 359.24,-104.45 379.85,-98.23"/>
<polygon fill="black" stroke="black" points="380.96,-101.55 389.52,-95.3 378.94,-94.84 380.96,-101.55"/>
</g>
<!-- Switch&#45;&gt;KeyStore -->
<g id="edge40" class="edge">
<title>Switch&#45;&gt;KeyStore</title>
<path fill="none" stroke="black" d="M444.59,-88.11C625,-95.56 1629,-139.77 1629,-201.32 1629,-308.45 1629,-308.45 1629,-308.45 1629,-374.88 1630.49,-453.02 1631.37,-493.35"/>
<polygon fill="black" stroke="black" points="1627.87,-493.53 1631.6,-503.45 1634.87,-493.37 1627.87,-493.53"/>
</g>
<!-- Conn -->
<g id="node51" class="node">
<title>Conn</title>
<polygon fill="none" stroke="black" points="444,-60 390,-60 390,-24 444,-24 444,-60"/>
<text text-anchor="middle" x="417" y="-37.8" font-family="Times,serif" font-size="14.00">Conn</text>
</g>
<!-- Switch&#45;&gt;Conn -->
<g id="edge24" class="edge">
<title>Switch&#45;&gt;Conn</title>
<path fill="none" stroke="black" d="M417,-67.92C417,-67.76 417,-67.6 417,-67.44"/>
<polygon fill="black" stroke="black" points="420.5,-70.2 417,-60.2 413.5,-70.2 420.5,-70.2"/>
</g>
<!-- Identify -->
<g id="node52" class="node">
<title>Identify</title>
<polygon fill="none" stroke="black" points="264.32,-232.64 203.68,-232.64 203.68,-172.01 264.32,-172.01 264.32,-232.64"/>
<polyline fill="none" stroke="black" points="215.68,-232.64 203.68,-220.64 "/>
<polyline fill="none" stroke="black" points="203.68,-184.01 215.68,-172.01 "/>
<polyline fill="none" stroke="black" points="252.32,-172.01 264.32,-184.01 "/>
<polyline fill="none" stroke="black" points="264.32,-220.64 252.32,-232.64 "/>
<text text-anchor="middle" x="234" y="-198.12" font-family="Times,serif" font-size="14.00">Identify</text>
</g>
<!-- Identify&#45;&gt;p2p.Node -->
<g id="edge18" class="edge">
<title>Identify&#45;&gt;p2p.Node</title>
<path fill="none" stroke="black" d="M252.41,-171.91C255.58,-166.83 258.87,-161.58 261.98,-156.61"/>
<polygon fill="black" stroke="black" points="264.99,-158.39 267.33,-148.06 259.06,-154.68 264.99,-158.39"/>
</g>
<!-- Gossipsub&#45;&gt;p2p.Node -->
<g id="edge19" class="edge">
<title>Gossipsub&#45;&gt;p2p.Node</title>
<path fill="none" stroke="black" d="M373.61,-164.95C369.57,-161.64 365.34,-158.57 361,-156 349.56,-149.22 336.13,-144.14 323.44,-140.39"/>
<polygon fill="black" stroke="black" points="324.05,-136.93 313.48,-137.67 322.2,-143.68 324.05,-136.93"/>
</g>
<!-- Bootstrap List -->
<g id="node54" class="node">
<title>Bootstrap List</title>
<polygon fill="none" stroke="black" points="352.44,-237.77 281.56,-237.77 281.56,-166.88 352.44,-166.88 352.44,-237.77"/>
<polyline fill="none" stroke="black" points="293.56,-237.77 281.56,-225.77 "/>
<polyline fill="none" stroke="black" points="281.56,-178.88 293.56,-166.88 "/>
<polyline fill="none" stroke="black" points="340.44,-166.88 352.44,-178.88 "/>
<polyline fill="none" stroke="black" points="352.44,-225.77 340.44,-237.77 "/>
<text text-anchor="middle" x="317" y="-206.52" font-family="Times,serif" font-size="14.00">Bootstrap</text>
<text text-anchor="middle" x="317" y="-189.72" font-family="Times,serif" font-size="14.00">List</text>
</g>
<!-- Bootstrap List&#45;&gt;p2p.Node -->
<g id="edge22" class="edge">
<title>Bootstrap List&#45;&gt;p2p.Node</title>
<path fill="none" stroke="black" d="M297.96,-166.99C296.08,-163.61 294.2,-160.22 292.39,-156.94"/>
<polygon fill="black" stroke="black" points="295.4,-155.17 287.49,-148.12 289.28,-158.56 295.4,-155.17"/>
</g>
</g>
</svg>
