<?xml version="1.0" encoding="UTF-8" standalone="no"?>
<!DOCTYPE svg PUBLIC "-//W3C//DTD SVG 1.1//EN"
 "http://www.w3.org/Graphics/SVG/1.1/DTD/svg11.dtd">
<!-- Generated by graphviz version 2.40.1 (20161225.0304)
 -->
<!-- Title: %3 Pages: 1 -->
<svg width="2751pt" height="980pt"
 viewBox="0.00 0.00 2750.83 980.00" xmlns="http://www.w3.org/2000/svg" xmlns:xlink="http://www.w3.org/1999/xlink">
<g id="graph0" class="graph" transform="scale(1 1) rotate(0) translate(4 976)">
<title>%3</title>
<polygon fill="#ffffff" stroke="transparent" points="-4,4 -4,-976 2746.8282,-976 2746.8282,4 -4,4"/>
<!-- 69 -->
<g id="node1" class="node">
<title>69</title>
<ellipse fill="none" stroke="#000000" cx="588.1449" cy="-18" rx="141.2965" ry="18"/>
<text text-anchor="middle" x="588.1449" y="-13.8" font-family="Times,serif" font-size="14.00" fill="#000000">ACTORS&#45;MESSAGES&#45;FRACTION</text>
</g>
<!-- 68 -->
<g id="node2" class="node">
<title>68</title>
<ellipse fill="none" stroke="#000000" cx="496.1449" cy="-90" rx="146.1243" ry="18"/>
<text text-anchor="middle" x="496.1449" y="-85.8" font-family="Times,serif" font-size="14.00" fill="#000000">ACTORS&#45;MESSAGES&#45;PER&#45;BLOCK</text>
</g>
<!-- 68&#45;&gt;69 -->
<g id="edge1" class="edge">
<title>68&#45;&gt;69</title>
<path fill="none" stroke="#000000" d="M518.8865,-72.2022C530.4972,-63.1156 544.7907,-51.9294 557.3715,-42.0836"/>
<polygon fill="#000000" stroke="#000000" points="559.6281,-44.7619 565.3461,-35.8425 555.314,-39.2494 559.6281,-44.7619"/>
</g>
<!-- 62 -->
<g id="node3" class="node">
<title>62</title>
<ellipse fill="none" stroke="#000000" cx="748.1449" cy="-162" rx="56.1044" ry="18"/>
<text text-anchor="middle" x="748.1449" y="-157.8" font-family="Times,serif" font-size="14.00" fill="#000000">MESSAGES</text>
</g>
<!-- 62&#45;&gt;69 -->
<g id="edge2" class="edge">
<title>62&#45;&gt;69</title>
<path fill="none" stroke="#000000" d="M729.2035,-144.8155C717.5947,-134.2459 702.4572,-120.3962 689.1449,-108 672.1191,-92.1458 668.4266,-87.575 651.1449,-72 640.3153,-62.2398 628.2023,-51.7573 617.5132,-42.6489"/>
<polygon fill="#000000" stroke="#000000" points="619.5509,-39.7878 609.6615,-35.9863 615.0218,-45.1251 619.5509,-39.7878"/>
</g>
<!-- 62&#45;&gt;68 -->
<g id="edge3" class="edge">
<title>62&#45;&gt;68</title>
<path fill="none" stroke="#000000" d="M705.9658,-149.9488C667.1967,-138.8719 609.0512,-122.2589 563.795,-109.3286"/>
<polygon fill="#000000" stroke="#000000" points="564.6307,-105.9274 554.0539,-106.5454 562.7076,-112.658 564.6307,-105.9274"/>
</g>
<!-- 66 -->
<g id="node5" class="node">
<title>66</title>
<ellipse fill="none" stroke="#000000" cx="941.1449" cy="-90" rx="123.2317" ry="18"/>
<text text-anchor="middle" x="941.1449" y="-85.8" font-family="Times,serif" font-size="14.00" fill="#000000">TX&#45;MESSAGES&#45;PER&#45;BLOCK</text>
</g>
<!-- 62&#45;&gt;66 -->
<g id="edge7" class="edge">
<title>62&#45;&gt;66</title>
<path fill="none" stroke="#000000" d="M781.6527,-147.4297C809.143,-136.6587 848.6121,-121.8638 881.4478,-109.9882"/>
<polygon fill="#000000" stroke="#000000" points="882.7368,-113.2441 890.9598,-106.5634 880.3654,-106.658 882.7368,-113.2441"/>
</g>
<!-- 64 -->
<g id="node7" class="node">
<title>64</title>
<ellipse fill="none" stroke="#000000" cx="749.1449" cy="-90" rx="50.7828" ry="18"/>
<text text-anchor="middle" x="749.1449" y="-85.8" font-family="Times,serif" font-size="14.00" fill="#000000">RECEIPTS</text>
</g>
<!-- 62&#45;&gt;64 -->
<g id="edge10" class="edge">
<title>62&#45;&gt;64</title>
<path fill="none" stroke="#000000" d="M748.3973,-143.8314C748.5042,-136.131 748.6314,-126.9743 748.7503,-118.4166"/>
<polygon fill="#000000" stroke="#000000" points="752.2499,-118.4609 748.8892,-108.4133 745.2506,-118.3637 752.2499,-118.4609"/>
</g>
<!-- 63 -->
<g id="node8" class="node">
<title>63</title>
<ellipse fill="none" stroke="#000000" cx="1394.1449" cy="-90" rx="77.8279" ry="18"/>
<text text-anchor="middle" x="1394.1449" y="-85.8" font-family="Times,serif" font-size="14.00" fill="#000000">MESSAGES&#45;SIZE</text>
</g>
<!-- 62&#45;&gt;63 -->
<g id="edge12" class="edge">
<title>62&#45;&gt;63</title>
<path fill="none" stroke="#000000" d="M789.4381,-149.5607C797.5703,-147.4457 806.0817,-145.4635 814.1449,-144 987.2809,-112.5761 1193.0032,-98.9225 1307.032,-93.3997"/>
<polygon fill="#000000" stroke="#000000" points="1307.2798,-96.8919 1317.1025,-92.9216 1306.9478,-89.8998 1307.2798,-96.8919"/>
</g>
<!-- 67 -->
<g id="node4" class="node">
<title>67</title>
<ellipse fill="none" stroke="#000000" cx="941.1449" cy="-162" rx="118.4039" ry="18"/>
<text text-anchor="middle" x="941.1449" y="-157.8" font-family="Times,serif" font-size="14.00" fill="#000000">TX&#45;MESSAGES&#45;FRACTION</text>
</g>
<!-- 67&#45;&gt;66 -->
<g id="edge6" class="edge">
<title>67&#45;&gt;66</title>
<path fill="none" stroke="#000000" d="M941.1449,-143.8314C941.1449,-136.131 941.1449,-126.9743 941.1449,-118.4166"/>
<polygon fill="#000000" stroke="#000000" points="944.645,-118.4132 941.1449,-108.4133 937.645,-118.4133 944.645,-118.4132"/>
</g>
<!-- 66&#45;&gt;62 -->
<g id="edge5" class="edge">
<title>66&#45;&gt;62</title>
<path fill="none" stroke="#000000" d="M901.1694,-107.0929C871.0848,-118.7777 829.7889,-134.1728 797.6299,-145.6874"/>
<polygon fill="#000000" stroke="#000000" points="796.2124,-142.4767 787.9653,-149.1278 798.56,-149.0713 796.2124,-142.4767"/>
</g>
<!-- 65 -->
<g id="node6" class="node">
<title>65</title>
<ellipse fill="none" stroke="#000000" cx="830.1449" cy="-18" rx="72.5067" ry="18"/>
<text text-anchor="middle" x="830.1449" y="-13.8" font-family="Times,serif" font-size="14.00" fill="#000000">RECEIPTS&#45;SIZE</text>
</g>
<!-- 64&#45;&gt;65 -->
<g id="edge9" class="edge">
<title>64&#45;&gt;65</title>
<path fill="none" stroke="#000000" d="M768.3408,-72.937C778.6798,-63.7468 791.6083,-52.2548 802.9645,-42.1604"/>
<polygon fill="#000000" stroke="#000000" points="805.3753,-44.7003 810.5242,-35.4407 800.7248,-39.4684 805.3753,-44.7003"/>
</g>
<!-- 61 -->
<g id="node9" class="node">
<title>61</title>
<ellipse fill="none" stroke="#000000" cx="748.1449" cy="-234" rx="134.843" ry="18"/>
<text text-anchor="middle" x="748.1449" y="-229.8" font-family="Times,serif" font-size="14.00" fill="#000000">PROOF&#45;MESSAGES&#45;FRACTION</text>
</g>
<!-- 61&#45;&gt;62 -->
<g id="edge13" class="edge">
<title>61&#45;&gt;62</title>
<path fill="none" stroke="#000000" d="M748.1449,-215.8314C748.1449,-208.131 748.1449,-198.9743 748.1449,-190.4166"/>
<polygon fill="#000000" stroke="#000000" points="751.645,-190.4132 748.1449,-180.4133 744.645,-190.4133 751.645,-190.4132"/>
</g>
<!-- 60 -->
<g id="node10" class="node">
<title>60</title>
<ellipse fill="none" stroke="#000000" cx="429.1449" cy="-234" rx="165.9366" ry="18"/>
<text text-anchor="middle" x="429.1449" y="-229.8" font-family="Times,serif" font-size="14.00" fill="#000000">AVG&#45;PROOFS&#45;MESSAGES&#45;PER&#45;BLOCK</text>
</g>
<!-- 60&#45;&gt;62 -->
<g id="edge4" class="edge">
<title>60&#45;&gt;62</title>
<path fill="none" stroke="#000000" d="M501.1325,-217.752C558.9653,-204.6989 639.03,-186.6278 692.1445,-174.6396"/>
<polygon fill="#000000" stroke="#000000" points="693.081,-178.0163 702.0651,-172.4005 691.5398,-171.1881 693.081,-178.0163"/>
</g>
<!-- 59 -->
<g id="node11" class="node">
<title>59</title>
<ellipse fill="none" stroke="#000000" cx="753.1449" cy="-306" rx="158.6704" ry="18"/>
<text text-anchor="middle" x="753.1449" y="-301.8" font-family="Times,serif" font-size="14.00" fill="#000000">AVG&#45;POSTS&#45;MESSAGES&#45;PER&#45;BLOCK</text>
</g>
<!-- 59&#45;&gt;60 -->
<g id="edge15" class="edge">
<title>59&#45;&gt;60</title>
<path fill="none" stroke="#000000" d="M680.8363,-289.9314C630.8133,-278.8152 564.1297,-263.9966 511.9685,-252.4052"/>
<polygon fill="#000000" stroke="#000000" points="512.5937,-248.9589 502.0726,-250.2061 511.0752,-255.7922 512.5937,-248.9589"/>
</g>
<!-- 58 -->
<g id="node12" class="node">
<title>58</title>
<ellipse fill="none" stroke="#000000" cx="417.1449" cy="-306" rx="159.1377" ry="18"/>
<text text-anchor="middle" x="417.1449" y="-301.8" font-family="Times,serif" font-size="14.00" fill="#000000">AVG&#45;SEALS&#45;MESSAGES&#45;PER&#45;BLOCK</text>
</g>
<!-- 58&#45;&gt;60 -->
<g id="edge14" class="edge">
<title>58&#45;&gt;60</title>
<path fill="none" stroke="#000000" d="M420.173,-287.8314C421.4564,-280.131 422.9825,-270.9743 424.4088,-262.4166"/>
<polygon fill="#000000" stroke="#000000" points="427.8844,-262.8526 426.0761,-252.4133 420.9796,-261.7018 427.8844,-262.8526"/>
</g>
<!-- 56 -->
<g id="node13" class="node">
<title>56</title>
<ellipse fill="none" stroke="#000000" cx="648.1449" cy="-378" rx="146.2549" ry="18"/>
<text text-anchor="middle" x="648.1449" y="-373.8" font-family="Times,serif" font-size="14.00" fill="#000000">ALL&#45;POST&#45;MESSAGES&#45;PER&#45;YEAR</text>
</g>
<!-- 56&#45;&gt;59 -->
<g id="edge16" class="edge">
<title>56&#45;&gt;59</title>
<path fill="none" stroke="#000000" d="M674.1,-360.2022C687.6038,-350.9425 704.2872,-339.5025 718.8414,-329.5224"/>
<polygon fill="#000000" stroke="#000000" points="720.8566,-332.3844 727.1245,-323.8425 716.8979,-326.6113 720.8566,-332.3844"/>
</g>
<!-- 57 -->
<g id="node14" class="node">
<title>57</title>
<ellipse fill="none" stroke="#000000" cx="548.1449" cy="-450" rx="43.5405" ry="18"/>
<text text-anchor="middle" x="548.1449" y="-445.8" font-family="Times,serif" font-size="14.00" fill="#000000">MINERS</text>
</g>
<!-- 57&#45;&gt;56 -->
<g id="edge20" class="edge">
<title>57&#45;&gt;56</title>
<path fill="none" stroke="#000000" d="M569.8434,-434.3771C583.0006,-424.9039 600.0562,-412.6239 614.8891,-401.9442"/>
<polygon fill="#000000" stroke="#000000" points="617.2492,-404.5578 623.3194,-395.8744 613.159,-398.8771 617.2492,-404.5578"/>
</g>
<!-- 55 -->
<g id="node15" class="node">
<title>55</title>
<ellipse fill="none" stroke="#000000" cx="120.1449" cy="-306" rx="120.29" ry="18"/>
<text text-anchor="middle" x="120.1449" y="-301.8" font-family="Times,serif" font-size="14.00" fill="#000000">ALL&#45;SEAL&#45;SIZE&#45;PER&#45;YEAR</text>
</g>
<!-- 54 -->
<g id="node16" class="node">
<title>54</title>
<ellipse fill="none" stroke="#000000" cx="200.1449" cy="-378" rx="147.8458" ry="18"/>
<text text-anchor="middle" x="200.1449" y="-373.8" font-family="Times,serif" font-size="14.00" fill="#000000">ALL&#45;SEAL&#45;MESSAGES&#45;PER&#45;YEAR</text>
</g>
<!-- 54&#45;&gt;58 -->
<g id="edge18" class="edge">
<title>54&#45;&gt;58</title>
<path fill="none" stroke="#000000" d="M251.2961,-361.0282C282.6584,-350.6223 322.9917,-337.2398 356.0301,-326.2777"/>
<polygon fill="#000000" stroke="#000000" points="357.1962,-329.5785 365.5852,-323.1074 354.9917,-322.9347 357.1962,-329.5785"/>
</g>
<!-- 54&#45;&gt;55 -->
<g id="edge23" class="edge">
<title>54&#45;&gt;55</title>
<path fill="none" stroke="#000000" d="M179.9576,-359.8314C170.1243,-350.9814 158.1539,-340.2081 147.5127,-330.631"/>
<polygon fill="#000000" stroke="#000000" points="149.8231,-328.0016 140.0487,-323.9134 145.1403,-333.2046 149.8231,-328.0016"/>
</g>
<!-- 53 -->
<g id="node17" class="node">
<title>53</title>
<ellipse fill="none" stroke="#000000" cx="404.1449" cy="-450" rx="82.3608" ry="18"/>
<text text-anchor="middle" x="404.1449" y="-445.8" font-family="Times,serif" font-size="14.00" fill="#000000">SECTORS&#45;COUNT</text>
</g>
<!-- 53&#45;&gt;56 -->
<g id="edge22" class="edge">
<title>53&#45;&gt;56</title>
<path fill="none" stroke="#000000" d="M453.2285,-435.5163C490.1262,-424.6285 541.0793,-409.5931 581.6359,-397.6256"/>
<polygon fill="#000000" stroke="#000000" points="582.8415,-400.9191 591.4421,-394.732 580.8604,-394.2053 582.8415,-400.9191"/>
</g>
<!-- 53&#45;&gt;54 -->
<g id="edge25" class="edge">
<title>53&#45;&gt;54</title>
<path fill="none" stroke="#000000" d="M360.632,-434.6425C330.833,-424.1252 290.9749,-410.0576 258.4358,-398.5732"/>
<polygon fill="#000000" stroke="#000000" points="259.1864,-395.1266 248.5916,-395.0988 256.8566,-401.7276 259.1864,-395.1266"/>
</g>
<!-- 52 -->
<g id="node18" class="node">
<title>52</title>
<ellipse fill="none" stroke="#000000" cx="388.1449" cy="-522" rx="144.4802" ry="18"/>
<text text-anchor="middle" x="388.1449" y="-517.8" font-family="Times,serif" font-size="14.00" fill="#000000">STORAGE&#45;NETWORK&#45;CAPACITY</text>
</g>
<!-- 52&#45;&gt;53 -->
<g id="edge26" class="edge">
<title>52&#45;&gt;53</title>
<path fill="none" stroke="#000000" d="M392.1824,-503.8314C393.8936,-496.131 395.9284,-486.9743 397.8301,-478.4166"/>
<polygon fill="#000000" stroke="#000000" points="401.3004,-478.9344 400.0531,-468.4133 394.4671,-477.4159 401.3004,-478.9344"/>
</g>
<!-- 48 -->
<g id="node19" class="node">
<title>48</title>
<ellipse fill="none" stroke="#000000" cx="748.1449" cy="-522" rx="127.575" ry="18"/>
<text text-anchor="middle" x="748.1449" y="-517.8" font-family="Times,serif" font-size="14.00" fill="#000000">PROVING&#45;PERIOD&#45;SECONDS</text>
</g>
<!-- 51 -->
<g id="node20" class="node">
<title>51</title>
<ellipse fill="none" stroke="#000000" cx="748.1449" cy="-450" rx="138.8826" ry="18"/>
<text text-anchor="middle" x="748.1449" y="-445.8" font-family="Times,serif" font-size="14.00" fill="#000000">POSTS&#45;PER&#45;SECTOR&#45;PER&#45;YEAR</text>
</g>
<!-- 48&#45;&gt;51 -->
<g id="edge29" class="edge">
<title>48&#45;&gt;51</title>
<path fill="none" stroke="#000000" d="M748.1449,-503.8314C748.1449,-496.131 748.1449,-486.9743 748.1449,-478.4166"/>
<polygon fill="#000000" stroke="#000000" points="751.645,-478.4132 748.1449,-468.4133 744.645,-478.4133 751.645,-478.4132"/>
</g>
<!-- 51&#45;&gt;56 -->
<g id="edge21" class="edge">
<title>51&#45;&gt;56</title>
<path fill="none" stroke="#000000" d="M723.4258,-432.2022C710.6853,-423.0291 694.9729,-411.7161 681.2041,-401.8026"/>
<polygon fill="#000000" stroke="#000000" points="683.0867,-398.8453 672.9262,-395.8425 678.9965,-404.526 683.0867,-398.8453"/>
</g>
<!-- 50 -->
<g id="node21" class="node">
<title>50</title>
<ellipse fill="none" stroke="#000000" cx="165.1449" cy="-450" rx="139.3498" ry="18"/>
<text text-anchor="middle" x="165.1449" y="-445.8" font-family="Times,serif" font-size="14.00" fill="#000000">SEALS&#45;PER&#45;SECTOR&#45;PER&#45;YEAR</text>
</g>
<!-- 50&#45;&gt;54 -->
<g id="edge24" class="edge">
<title>50&#45;&gt;54</title>
<path fill="none" stroke="#000000" d="M173.9769,-431.8314C177.8436,-423.8771 182.4655,-414.369 186.7417,-405.5723"/>
<polygon fill="#000000" stroke="#000000" points="189.9698,-406.9371 191.194,-396.4133 183.6743,-403.8768 189.9698,-406.9371"/>
</g>
<!-- 49 -->
<g id="node22" class="node">
<title>49</title>
<ellipse fill="none" stroke="#000000" cx="165.1449" cy="-522" rx="43.5319" ry="18"/>
<text text-anchor="middle" x="165.1449" y="-517.8" font-family="Times,serif" font-size="14.00" fill="#000000">RESEAL</text>
</g>
<!-- 49&#45;&gt;50 -->
<g id="edge31" class="edge">
<title>49&#45;&gt;50</title>
<path fill="none" stroke="#000000" d="M165.1449,-503.8314C165.1449,-496.131 165.1449,-486.9743 165.1449,-478.4166"/>
<polygon fill="#000000" stroke="#000000" points="168.645,-478.4132 165.1449,-468.4133 161.645,-478.4133 168.645,-478.4132"/>
</g>
<!-- 47 -->
<g id="node23" class="node">
<title>47</title>
<ellipse fill="none" stroke="#000000" cx="748.1449" cy="-594" rx="117.4349" ry="18"/>
<text text-anchor="middle" x="748.1449" y="-589.8" font-family="Times,serif" font-size="14.00" fill="#000000">PROVING&#45;PERIOD&#45;HOURS</text>
</g>
<!-- 47&#45;&gt;48 -->
<g id="edge32" class="edge">
<title>47&#45;&gt;48</title>
<path fill="none" stroke="#000000" d="M748.1449,-575.8314C748.1449,-568.131 748.1449,-558.9743 748.1449,-550.4166"/>
<polygon fill="#000000" stroke="#000000" points="751.645,-550.4132 748.1449,-540.4133 744.645,-550.4133 751.645,-550.4132"/>
</g>
<!-- 46 -->
<g id="node24" class="node">
<title>46</title>
<ellipse fill="none" stroke="#000000" cx="1147.1449" cy="-162" rx="70.0841" ry="18"/>
<text text-anchor="middle" x="1147.1449" y="-157.8" font-family="Times,serif" font-size="14.00" fill="#000000">MAX&#45;TICKETS</text>
</g>
<!-- 45 -->
<g id="node25" class="node">
<title>45</title>
<ellipse fill="none" stroke="#000000" cx="1026.1449" cy="-234" rx="125.5938" ry="18"/>
<text text-anchor="middle" x="1026.1449" y="-229.8" font-family="Times,serif" font-size="14.00" fill="#000000">ONE&#45;BLOCK&#45;IN&#45;TEN&#45;YEARS</text>
</g>
<!-- 45&#45;&gt;46 -->
<g id="edge33" class="edge">
<title>45&#45;&gt;46</title>
<path fill="none" stroke="#000000" d="M1055.7449,-216.3868C1072.1887,-206.602 1092.7957,-194.34 1110.2786,-183.937"/>
<polygon fill="#000000" stroke="#000000" points="1112.2937,-186.8107 1119.0976,-178.6893 1108.7142,-180.7952 1112.2937,-186.8107"/>
</g>
<!-- 44 -->
<g id="node26" class="node">
<title>44</title>
<ellipse fill="none" stroke="#000000" cx="1039.1449" cy="-306" rx="109.1909" ry="18"/>
<text text-anchor="middle" x="1039.1449" y="-301.8" font-family="Times,serif" font-size="14.00" fill="#000000">BLOCKS&#45;IN&#45;TEN&#45;YEARS</text>
</g>
<!-- 44&#45;&gt;45 -->
<g id="edge34" class="edge">
<title>44&#45;&gt;45</title>
<path fill="none" stroke="#000000" d="M1035.8645,-287.8314C1034.4741,-280.131 1032.8209,-270.9743 1031.2757,-262.4166"/>
<polygon fill="#000000" stroke="#000000" points="1034.6908,-261.6322 1029.4695,-252.4133 1027.8021,-262.8761 1034.6908,-261.6322"/>
</g>
<!-- 41 -->
<g id="node27" class="node">
<title>41</title>
<ellipse fill="none" stroke="#000000" cx="1039.1449" cy="-378" rx="93.7465" ry="18"/>
<text text-anchor="middle" x="1039.1449" y="-373.8" font-family="Times,serif" font-size="14.00" fill="#000000">BLOCKS&#45;IN&#45;A&#45;YEAR</text>
</g>
<!-- 41&#45;&gt;59 -->
<g id="edge17" class="edge">
<title>41&#45;&gt;59</title>
<path fill="none" stroke="#000000" d="M982.2986,-363.689C938.1017,-352.5625 876.3997,-337.0292 828.1548,-324.8836"/>
<polygon fill="#000000" stroke="#000000" points="828.9371,-321.4714 818.3852,-322.4241 827.2282,-328.2596 828.9371,-321.4714"/>
</g>
<!-- 41&#45;&gt;58 -->
<g id="edge19" class="edge">
<title>41&#45;&gt;58</title>
<path fill="none" stroke="#000000" d="M958.7851,-368.6979C852.0685,-356.3449 662.6366,-334.417 538.4688,-320.0439"/>
<polygon fill="#000000" stroke="#000000" points="538.8636,-316.5663 528.5274,-318.8932 538.0586,-323.5199 538.8636,-316.5663"/>
</g>
<!-- 41&#45;&gt;44 -->
<g id="edge35" class="edge">
<title>41&#45;&gt;44</title>
<path fill="none" stroke="#000000" d="M1039.1449,-359.8314C1039.1449,-352.131 1039.1449,-342.9743 1039.1449,-334.4166"/>
<polygon fill="#000000" stroke="#000000" points="1042.645,-334.4132 1039.1449,-324.4133 1035.645,-334.4133 1042.645,-334.4132"/>
</g>
<!-- 43 -->
<g id="node28" class="node">
<title>43</title>
<ellipse fill="none" stroke="#000000" cx="1039.1449" cy="-450" rx="134.2808" ry="18"/>
<text text-anchor="middle" x="1039.1449" y="-445.8" font-family="Times,serif" font-size="14.00" fill="#000000">EXPECTED&#45;WINNING&#45;MINERS</text>
</g>
<!-- 43&#45;&gt;41 -->
<g id="edge36" class="edge">
<title>43&#45;&gt;41</title>
<path fill="none" stroke="#000000" d="M1039.1449,-431.8314C1039.1449,-424.131 1039.1449,-414.9743 1039.1449,-406.4166"/>
<polygon fill="#000000" stroke="#000000" points="1042.645,-406.4132 1039.1449,-396.4133 1035.645,-406.4133 1042.645,-406.4132"/>
</g>
<!-- 42 -->
<g id="node29" class="node">
<title>42</title>
<ellipse fill="none" stroke="#000000" cx="1092.1449" cy="-522" rx="89.8965" ry="18"/>
<text text-anchor="middle" x="1092.1449" y="-517.8" font-family="Times,serif" font-size="14.00" fill="#000000">YEAR&#45;IN&#45;SECONDS</text>
</g>
<!-- 42&#45;&gt;51 -->
<g id="edge30" class="edge">
<title>42&#45;&gt;51</title>
<path fill="none" stroke="#000000" d="M1029.8491,-508.9613C974.2772,-497.33 892.483,-480.2103 831.3303,-467.4109"/>
<polygon fill="#000000" stroke="#000000" points="831.8221,-463.9381 821.3172,-465.3151 830.388,-470.7896 831.8221,-463.9381"/>
</g>
<!-- 42&#45;&gt;41 -->
<g id="edge37" class="edge">
<title>42&#45;&gt;41</title>
<path fill="none" stroke="#000000" d="M1136.9382,-506.3618C1154.2637,-497.8651 1172.2693,-485.4422 1182.1449,-468 1190.0281,-454.0768 1191.2433,-445.1613 1182.1449,-432 1172.7023,-418.3408 1138.318,-405.1314 1105.6342,-395.1964"/>
<polygon fill="#000000" stroke="#000000" points="1106.6129,-391.8361 1096.0306,-392.3527 1104.6254,-398.548 1106.6129,-391.8361"/>
</g>
<!-- 40 -->
<g id="node30" class="node">
<title>40</title>
<ellipse fill="none" stroke="#000000" cx="1094.1449" cy="-882" rx="46.4218" ry="18"/>
<text text-anchor="middle" x="1094.1449" y="-877.8" font-family="Times,serif" font-size="14.00" fill="#000000">TICKETS</text>
</g>
<!-- 39 -->
<g id="node31" class="node">
<title>39</title>
<ellipse fill="none" stroke="#000000" cx="1094.1449" cy="-954" rx="67.3506" ry="18"/>
<text text-anchor="middle" x="1094.1449" y="-949.8" font-family="Times,serif" font-size="14.00" fill="#000000">AVG&#45;TICKETS</text>
</g>
<!-- 39&#45;&gt;40 -->
<g id="edge39" class="edge">
<title>39&#45;&gt;40</title>
<path fill="none" stroke="#000000" d="M1094.1449,-935.8314C1094.1449,-928.131 1094.1449,-918.9743 1094.1449,-910.4166"/>
<polygon fill="#000000" stroke="#000000" points="1097.645,-910.4132 1094.1449,-900.4133 1090.645,-910.4133 1097.645,-910.4132"/>
</g>
<!-- 36 -->
<g id="node32" class="node">
<title>36</title>
<ellipse fill="none" stroke="#000000" cx="2429.1449" cy="-450" rx="111.4484" ry="18"/>
<text text-anchor="middle" x="2429.1449" y="-445.8" font-family="Times,serif" font-size="14.00" fill="#000000">POST&#45;CHALLENGE&#45;TIME</text>
</g>
<!-- 38 -->
<g id="node33" class="node">
<title>38</title>
<ellipse fill="none" stroke="#000000" cx="2429.1449" cy="-378" rx="124.5052" ry="18"/>
<text text-anchor="middle" x="2429.1449" y="-373.8" font-family="Times,serif" font-size="14.00" fill="#000000">POST&#45;CHALLENGE&#45;BLOCKS</text>
</g>
<!-- 36&#45;&gt;38 -->
<g id="edge40" class="edge">
<title>36&#45;&gt;38</title>
<path fill="none" stroke="#000000" d="M2429.1449,-431.8314C2429.1449,-424.131 2429.1449,-414.9743 2429.1449,-406.4166"/>
<polygon fill="#000000" stroke="#000000" points="2432.645,-406.4132 2429.1449,-396.4133 2425.645,-406.4133 2432.645,-406.4132"/>
</g>
<!-- 37 -->
<g id="node34" class="node">
<title>37</title>
<ellipse fill="none" stroke="#000000" cx="1856.1449" cy="-450" rx="64.7718" ry="18"/>
<text text-anchor="middle" x="1856.1449" y="-445.8" font-family="Times,serif" font-size="14.00" fill="#000000">BLOCK&#45;TIME</text>
</g>
<!-- 37&#45;&gt;41 -->
<g id="edge38" class="edge">
<title>37&#45;&gt;41</title>
<path fill="none" stroke="#000000" d="M1794.4022,-444.5588C1652.8721,-432.0861 1304.2142,-401.3598 1134.7257,-386.4233"/>
<polygon fill="#000000" stroke="#000000" points="1134.8349,-382.9194 1124.5662,-385.5279 1134.2203,-389.8924 1134.8349,-382.9194"/>
</g>
<!-- 37&#45;&gt;38 -->
<g id="edge41" class="edge">
<title>37&#45;&gt;38</title>
<path fill="none" stroke="#000000" d="M1915.8171,-442.8735C2000.2944,-432.7359 2159.5768,-413.4427 2295.1449,-396 2305.7505,-394.6355 2316.8247,-393.1866 2327.8651,-391.7266"/>
<polygon fill="#000000" stroke="#000000" points="2328.5273,-395.1695 2337.9802,-390.3847 2327.6067,-388.2302 2328.5273,-395.1695"/>
</g>
<!-- 35 -->
<g id="node35" class="node">
<title>35</title>
<ellipse fill="none" stroke="#000000" cx="2429.1449" cy="-522" rx="119.6769" ry="18"/>
<text text-anchor="middle" x="2429.1449" y="-517.8" font-family="Times,serif" font-size="14.00" fill="#000000">POST&#45;CHALLENGE&#45;HOURS</text>
</g>
<!-- 35&#45;&gt;36 -->
<g id="edge42" class="edge">
<title>35&#45;&gt;36</title>
<path fill="none" stroke="#000000" d="M2429.1449,-503.8314C2429.1449,-496.131 2429.1449,-486.9743 2429.1449,-478.4166"/>
<polygon fill="#000000" stroke="#000000" points="2432.645,-478.4132 2429.1449,-468.4133 2425.645,-478.4133 2432.645,-478.4132"/>
</g>
<!-- 33 -->
<g id="node36" class="node">
<title>33</title>
<ellipse fill="none" stroke="#000000" cx="844.1449" cy="-666" rx="80.6835" ry="18"/>
<text text-anchor="middle" x="844.1449" y="-661.8" font-family="Times,serif" font-size="14.00" fill="#000000">ENCODING&#45;TIME</text>
</g>
<!-- 34 -->
<g id="node37" class="node">
<title>34</title>
<ellipse fill="none" stroke="#000000" cx="1010.1449" cy="-738" rx="76.3657" ry="18"/>
<text text-anchor="middle" x="1010.1449" y="-733.8" font-family="Times,serif" font-size="14.00" fill="#000000">KDF&#45;HASH&#45;SIZE</text>
</g>
<!-- 34&#45;&gt;33 -->
<g id="edge43" class="edge">
<title>34&#45;&gt;33</title>
<path fill="none" stroke="#000000" d="M973.3041,-722.0209C948.889,-711.4312 916.6604,-697.4525 890.5051,-686.108"/>
<polygon fill="#000000" stroke="#000000" points="891.7363,-682.8271 881.1694,-682.0588 888.9509,-689.249 891.7363,-682.8271"/>
</g>
<!-- 32 -->
<g id="node38" class="node">
<title>32</title>
<ellipse fill="none" stroke="#000000" cx="844.1449" cy="-738" rx="72.0135" ry="18"/>
<text text-anchor="middle" x="844.1449" y="-733.8" font-family="Times,serif" font-size="14.00" fill="#000000">KDF&#45;CONTENT</text>
</g>
<!-- 32&#45;&gt;33 -->
<g id="edge45" class="edge">
<title>32&#45;&gt;33</title>
<path fill="none" stroke="#000000" d="M844.1449,-719.8314C844.1449,-712.131 844.1449,-702.9743 844.1449,-694.4166"/>
<polygon fill="#000000" stroke="#000000" points="847.645,-694.4132 844.1449,-684.4133 840.645,-694.4133 847.645,-694.4132"/>
</g>
<!-- 31 -->
<g id="node39" class="node">
<title>31</title>
<ellipse fill="none" stroke="#000000" cx="664.1449" cy="-666" rx="39.6731" ry="18"/>
<text text-anchor="middle" x="664.1449" y="-661.8" font-family="Times,serif" font-size="14.00" fill="#000000">NODES</text>
</g>
<!-- 30 -->
<g id="node40" class="node">
<title>30</title>
<ellipse fill="none" stroke="#000000" cx="698.1449" cy="-738" rx="56.0614" ry="18"/>
<text text-anchor="middle" x="698.1449" y="-733.8" font-family="Times,serif" font-size="14.00" fill="#000000">NODE&#45;SIZE</text>
</g>
<!-- 30&#45;&gt;33 -->
<g id="edge44" class="edge">
<title>30&#45;&gt;33</title>
<path fill="none" stroke="#000000" d="M729.1078,-722.7307C750.1485,-712.3544 778.257,-698.4927 801.422,-687.0688"/>
<polygon fill="#000000" stroke="#000000" points="803.2632,-690.0634 810.6839,-682.5013 800.1672,-683.7852 803.2632,-690.0634"/>
</g>
<!-- 30&#45;&gt;31 -->
<g id="edge48" class="edge">
<title>30&#45;&gt;31</title>
<path fill="none" stroke="#000000" d="M689.5653,-719.8314C685.7513,-711.7547 681.1809,-702.0761 676.9737,-693.1668"/>
<polygon fill="#000000" stroke="#000000" points="680.039,-691.4614 672.604,-683.9134 673.7093,-694.4504 680.039,-691.4614"/>
</g>
<!-- 29 -->
<g id="node41" class="node">
<title>29</title>
<ellipse fill="none" stroke="#000000" cx="558.1449" cy="-810" rx="83.7883" ry="18"/>
<text text-anchor="middle" x="558.1449" y="-805.8" font-family="Times,serif" font-size="14.00" fill="#000000">SECTOR&#45;SIZE&#45;GIB</text>
</g>
<!-- 28 -->
<g id="node42" class="node">
<title>28</title>
<ellipse fill="none" stroke="#000000" cx="558.1449" cy="-738" rx="65.4383" ry="18"/>
<text text-anchor="middle" x="558.1449" y="-733.8" font-family="Times,serif" font-size="14.00" fill="#000000">SECTOR&#45;SIZE</text>
</g>
<!-- 29&#45;&gt;28 -->
<g id="edge49" class="edge">
<title>29&#45;&gt;28</title>
<path fill="none" stroke="#000000" d="M558.1449,-791.8314C558.1449,-784.131 558.1449,-774.9743 558.1449,-766.4166"/>
<polygon fill="#000000" stroke="#000000" points="561.645,-766.4132 558.1449,-756.4133 554.645,-766.4133 561.645,-766.4132"/>
</g>
<!-- 28&#45;&gt;53 -->
<g id="edge27" class="edge">
<title>28&#45;&gt;53</title>
<path fill="none" stroke="#000000" d="M562.7001,-720.0062C572.2895,-677.6602 589.8798,-570.2926 541.1449,-504 526.5699,-484.174 503.5885,-471.6229 480.5822,-463.6788"/>
<polygon fill="#000000" stroke="#000000" points="481.3358,-460.2457 470.7453,-460.5485 479.2131,-466.9162 481.3358,-460.2457"/>
</g>
<!-- 28&#45;&gt;31 -->
<g id="edge47" class="edge">
<title>28&#45;&gt;31</title>
<path fill="none" stroke="#000000" d="M582.7299,-721.3008C597.798,-711.0659 617.2165,-697.8759 633.3096,-686.9448"/>
<polygon fill="#000000" stroke="#000000" points="635.5537,-689.6516 641.8592,-681.1374 631.6205,-683.8611 635.5537,-689.6516"/>
</g>
<!-- 27 -->
<g id="node43" class="node">
<title>27</title>
<ellipse fill="none" stroke="#000000" cx="935.1449" cy="-882" rx="94.0682" ry="18"/>
<text text-anchor="middle" x="935.1449" y="-877.8" font-family="Times,serif" font-size="14.00" fill="#000000">DEGREE&#45;EXPANDER</text>
</g>
<!-- 26 -->
<g id="node44" class="node">
<title>26</title>
<ellipse fill="none" stroke="#000000" cx="844.1449" cy="-810" rx="44.9682" ry="18"/>
<text text-anchor="middle" x="844.1449" y="-805.8" font-family="Times,serif" font-size="14.00" fill="#000000">DEGREE</text>
</g>
<!-- 27&#45;&gt;26 -->
<g id="edge51" class="edge">
<title>27&#45;&gt;26</title>
<path fill="none" stroke="#000000" d="M912.6505,-864.2022C900.5616,-854.6373 885.5323,-842.7461 872.6337,-832.5406"/>
<polygon fill="#000000" stroke="#000000" points="874.5315,-829.5791 864.5175,-826.119 870.1881,-835.0686 874.5315,-829.5791"/>
</g>
<!-- 26&#45;&gt;32 -->
<g id="edge46" class="edge">
<title>26&#45;&gt;32</title>
<path fill="none" stroke="#000000" d="M844.1449,-791.8314C844.1449,-784.131 844.1449,-774.9743 844.1449,-766.4166"/>
<polygon fill="#000000" stroke="#000000" points="847.645,-766.4132 844.1449,-756.4133 840.645,-766.4133 847.645,-766.4132"/>
</g>
<!-- 25 -->
<g id="node45" class="node">
<title>25</title>
<ellipse fill="none" stroke="#000000" cx="752.1449" cy="-882" rx="70.5686" ry="18"/>
<text text-anchor="middle" x="752.1449" y="-877.8" font-family="Times,serif" font-size="14.00" fill="#000000">DEGREE&#45;BASE</text>
</g>
<!-- 25&#45;&gt;26 -->
<g id="edge52" class="edge">
<title>25&#45;&gt;26</title>
<path fill="none" stroke="#000000" d="M774.4156,-864.5708C786.8345,-854.8516 802.4311,-842.6456 815.723,-832.2433"/>
<polygon fill="#000000" stroke="#000000" points="817.9342,-834.9572 823.6522,-826.0378 813.62,-829.4447 817.9342,-834.9572"/>
</g>
<!-- 23 -->
<g id="node46" class="node">
<title>23</title>
<ellipse fill="none" stroke="#000000" cx="2076.1449" cy="-162" rx="90.3896" ry="18"/>
<text text-anchor="middle" x="2076.1449" y="-157.8" font-family="Times,serif" font-size="14.00" fill="#000000">MESSAGE&#45;RECEIPT</text>
</g>
<!-- 23&#45;&gt;65 -->
<g id="edge8" class="edge">
<title>23&#45;&gt;65</title>
<path fill="none" stroke="#000000" d="M2008.0809,-150.177C1897.7463,-131.3561 1672.853,-94.4241 1481.1449,-72 1276.2659,-48.0352 1033.8911,-30.8648 910.7252,-22.9315"/>
<polygon fill="#000000" stroke="#000000" points="910.8271,-19.4309 900.6238,-22.2844 910.3796,-26.4166 910.8271,-19.4309"/>
</g>
<!-- 24 -->
<g id="node47" class="node">
<title>24</title>
<ellipse fill="none" stroke="#000000" cx="1757.1449" cy="-234" rx="53.6729" ry="18"/>
<text text-anchor="middle" x="1757.1449" y="-229.8" font-family="Times,serif" font-size="14.00" fill="#000000">GAS&#45;USED</text>
</g>
<!-- 24&#45;&gt;23 -->
<g id="edge53" class="edge">
<title>24&#45;&gt;23</title>
<path fill="none" stroke="#000000" d="M1797.7,-221.9587C1805.141,-219.8789 1812.8581,-217.8071 1820.1449,-216 1880.5922,-201.0091 1949.7239,-186.5861 2000.8982,-176.4228"/>
<polygon fill="#000000" stroke="#000000" points="2001.7546,-179.8213 2010.8858,-174.448 2000.3968,-172.9542 2001.7546,-179.8213"/>
</g>
<!-- 22 -->
<g id="node48" class="node">
<title>22</title>
<ellipse fill="none" stroke="#000000" cx="2515.1449" cy="-234" rx="45.4614" ry="18"/>
<text text-anchor="middle" x="2515.1449" y="-229.8" font-family="Times,serif" font-size="14.00" fill="#000000">RETURN</text>
</g>
<!-- 22&#45;&gt;23 -->
<g id="edge56" class="edge">
<title>22&#45;&gt;23</title>
<path fill="none" stroke="#000000" d="M2481.3766,-221.9117C2474.4186,-219.7149 2467.0937,-217.6123 2460.1449,-216 2361.9217,-193.2091 2247.19,-178.6023 2168.8881,-170.4045"/>
<polygon fill="#000000" stroke="#000000" points="2168.8731,-166.8844 2158.5665,-169.3389 2168.1541,-173.8474 2168.8731,-166.8844"/>
</g>
<!-- 21 -->
<g id="node49" class="node">
<title>21</title>
<ellipse fill="none" stroke="#000000" cx="2395.1449" cy="-234" rx="56.3974" ry="18"/>
<text text-anchor="middle" x="2395.1449" y="-229.8" font-family="Times,serif" font-size="14.00" fill="#000000">EXIT&#45;CODE</text>
</g>
<!-- 21&#45;&gt;23 -->
<g id="edge55" class="edge">
<title>21&#45;&gt;23</title>
<path fill="none" stroke="#000000" d="M2352.9349,-221.911C2345.3676,-219.858 2337.5382,-217.8078 2330.1449,-216 2270.1012,-201.318 2201.5145,-186.873 2150.7593,-176.6226"/>
<polygon fill="#000000" stroke="#000000" points="2151.3478,-173.171 2140.8539,-174.6297 2149.967,-180.0334 2151.3478,-173.171"/>
</g>
<!-- 20 -->
<g id="node50" class="node">
<title>20</title>
<ellipse fill="none" stroke="#000000" cx="2410.1449" cy="-306" rx="113.076" ry="18"/>
<text text-anchor="middle" x="2410.1449" y="-301.8" font-family="Times,serif" font-size="14.00" fill="#000000">MESSAGE&#45;RECEIPTS&#45;CID</text>
</g>
<!-- 12 -->
<g id="node51" class="node">
<title>12</title>
<ellipse fill="none" stroke="#000000" cx="1564.1449" cy="-162" rx="72.9912" ry="18"/>
<text text-anchor="middle" x="1564.1449" y="-157.8" font-family="Times,serif" font-size="14.00" fill="#000000">MESSAGE&#45;SIZE</text>
</g>
<!-- 12&#45;&gt;63 -->
<g id="edge11" class="edge">
<title>12&#45;&gt;63</title>
<path fill="none" stroke="#000000" d="M1527.2575,-146.3771C1501.9249,-135.648 1468.0911,-121.3184 1440.8738,-109.7911"/>
<polygon fill="#000000" stroke="#000000" points="1442.1206,-106.5182 1431.5475,-105.8411 1439.3907,-112.9639 1442.1206,-106.5182"/>
</g>
<!-- 19 -->
<g id="node52" class="node">
<title>19</title>
<ellipse fill="none" stroke="#000000" cx="1346.1449" cy="-234" rx="80.89" ry="18"/>
<text text-anchor="middle" x="1346.1449" y="-229.8" font-family="Times,serif" font-size="14.00" fill="#000000">ACTOR&#45;METHOD</text>
</g>
<!-- 19&#45;&gt;12 -->
<g id="edge60" class="edge">
<title>19&#45;&gt;12</title>
<path fill="none" stroke="#000000" d="M1391.3147,-219.0816C1426.0032,-207.6248 1474.0085,-191.7698 1510.6246,-179.6764"/>
<polygon fill="#000000" stroke="#000000" points="1511.7525,-182.99 1520.1503,-176.5303 1509.5571,-176.3431 1511.7525,-182.99"/>
</g>
<!-- 18 -->
<g id="node53" class="node">
<title>18</title>
<ellipse fill="none" stroke="#000000" cx="1500.1449" cy="-234" rx="55.1008" ry="18"/>
<text text-anchor="middle" x="1500.1449" y="-229.8" font-family="Times,serif" font-size="14.00" fill="#000000">GAS&#45;LIMIT</text>
</g>
<!-- 18&#45;&gt;12 -->
<g id="edge62" class="edge">
<title>18&#45;&gt;12</title>
<path fill="none" stroke="#000000" d="M1515.6375,-216.5708C1523.3832,-207.857 1532.9057,-197.1441 1541.4565,-187.5244"/>
<polygon fill="#000000" stroke="#000000" points="1544.3226,-189.5683 1548.3504,-179.7689 1539.0908,-184.9177 1544.3226,-189.5683"/>
</g>
<!-- 17 -->
<g id="node54" class="node">
<title>17</title>
<ellipse fill="none" stroke="#000000" cx="1629.1449" cy="-234" rx="55.6112" ry="18"/>
<text text-anchor="middle" x="1629.1449" y="-229.8" font-family="Times,serif" font-size="14.00" fill="#000000">GAS&#45;PRICE</text>
</g>
<!-- 17&#45;&gt;12 -->
<g id="edge64" class="edge">
<title>17&#45;&gt;12</title>
<path fill="none" stroke="#000000" d="M1613.4102,-216.5708C1605.4649,-207.7698 1595.6787,-196.9297 1586.9276,-187.2362"/>
<polygon fill="#000000" stroke="#000000" points="1589.4853,-184.8462 1580.1863,-179.7689 1584.2894,-189.537 1589.4853,-184.8462"/>
</g>
<!-- 16 -->
<g id="node55" class="node">
<title>16</title>
<ellipse fill="none" stroke="#000000" cx="1208.1449" cy="-234" rx="38.8604" ry="18"/>
<text text-anchor="middle" x="1208.1449" y="-229.8" font-family="Times,serif" font-size="14.00" fill="#000000">VALUE</text>
</g>
<!-- 16&#45;&gt;12 -->
<g id="edge66" class="edge">
<title>16&#45;&gt;12</title>
<path fill="none" stroke="#000000" d="M1237.5652,-221.9897C1243.6415,-219.7868 1250.0484,-217.6621 1256.1449,-216 1334.0391,-194.7634 1425.377,-179.9766 1488.2499,-171.3129"/>
<polygon fill="#000000" stroke="#000000" points="1489.0409,-174.7377 1498.4785,-169.9229 1488.0982,-167.8015 1489.0409,-174.7377"/>
</g>
<!-- 15 -->
<g id="node56" class="node">
<title>15</title>
<ellipse fill="none" stroke="#000000" cx="1500.1449" cy="-306" rx="27" ry="18"/>
<text text-anchor="middle" x="1500.1449" y="-301.8" font-family="Times,serif" font-size="14.00" fill="#000000">U64</text>
</g>
<!-- 15&#45;&gt;24 -->
<g id="edge54" class="edge">
<title>15&#45;&gt;24</title>
<path fill="none" stroke="#000000" d="M1525.2731,-299.0645C1562.2726,-288.839 1633.5778,-269.0817 1694.1449,-252 1698.1478,-250.8711 1702.2924,-249.6974 1706.4565,-248.5149"/>
<polygon fill="#000000" stroke="#000000" points="1707.4906,-251.8597 1716.1509,-245.7564 1705.5748,-245.1269 1707.4906,-251.8597"/>
</g>
<!-- 15&#45;&gt;19 -->
<g id="edge61" class="edge">
<title>15&#45;&gt;19</title>
<path fill="none" stroke="#000000" d="M1477.752,-295.5306C1454.9677,-284.8782 1419.0409,-268.0812 1390.477,-254.7267"/>
<polygon fill="#000000" stroke="#000000" points="1391.6432,-251.4083 1381.1019,-250.3435 1388.6784,-257.7495 1391.6432,-251.4083"/>
</g>
<!-- 15&#45;&gt;18 -->
<g id="edge63" class="edge">
<title>15&#45;&gt;18</title>
<path fill="none" stroke="#000000" d="M1500.1449,-287.8314C1500.1449,-280.131 1500.1449,-270.9743 1500.1449,-262.4166"/>
<polygon fill="#000000" stroke="#000000" points="1503.645,-262.4132 1500.1449,-252.4133 1496.645,-262.4133 1503.645,-262.4132"/>
</g>
<!-- 15&#45;&gt;17 -->
<g id="edge65" class="edge">
<title>15&#45;&gt;17</title>
<path fill="none" stroke="#000000" d="M1520.871,-294.432C1539.985,-283.7637 1568.8098,-267.6754 1591.9134,-254.7804"/>
<polygon fill="#000000" stroke="#000000" points="1593.7493,-257.764 1600.7755,-249.8341 1590.3377,-251.6516 1593.7493,-257.764"/>
</g>
<!-- 15&#45;&gt;16 -->
<g id="edge67" class="edge">
<title>15&#45;&gt;16</title>
<path fill="none" stroke="#000000" d="M1473.8365,-301.438C1428.7746,-293.3451 1334.1368,-275.1283 1256.1449,-252 1253.2105,-251.1298 1250.1982,-250.1686 1247.1819,-249.1564"/>
<polygon fill="#000000" stroke="#000000" points="1248.2199,-245.8114 1237.6251,-245.7997 1245.9001,-252.4159 1248.2199,-245.8114"/>
</g>
<!-- 14 -->
<g id="node57" class="node">
<title>14</title>
<ellipse fill="none" stroke="#000000" cx="2236.1449" cy="-234" rx="84.5772" ry="18"/>
<text text-anchor="middle" x="2236.1449" y="-229.8" font-family="Times,serif" font-size="14.00" fill="#000000">MESSAGE&#45;NONCE</text>
</g>
<!-- 14&#45;&gt;12 -->
<g id="edge68" class="edge">
<title>14&#45;&gt;12</title>
<path fill="none" stroke="#000000" d="M2175.1045,-221.4299C2164.1608,-219.4281 2152.8378,-217.5197 2142.1449,-216 1965.7984,-190.9372 1757.4632,-174.7428 1645.3535,-167.1169"/>
<polygon fill="#000000" stroke="#000000" points="1645.352,-163.609 1635.139,-166.4278 1644.8807,-170.5931 1645.352,-163.609"/>
</g>
<!-- 13 -->
<g id="node58" class="node">
<title>13</title>
<ellipse fill="none" stroke="#000000" cx="2236.1449" cy="-306" rx="42.2437" ry="18"/>
<text text-anchor="middle" x="2236.1449" y="-301.8" font-family="Times,serif" font-size="14.00" fill="#000000">VARINT</text>
</g>
<!-- 13&#45;&gt;22 -->
<g id="edge57" class="edge">
<title>13&#45;&gt;22</title>
<path fill="none" stroke="#000000" d="M2268.3998,-294.1241C2274.8909,-291.9358 2281.6995,-289.7823 2288.1449,-288 2363.4208,-267.1843 2384.6953,-272.1767 2460.1449,-252 2463.7028,-251.0486 2467.3694,-250.0006 2471.0407,-248.9031"/>
<polygon fill="#000000" stroke="#000000" points="2472.1795,-252.2145 2480.6982,-245.9151 2470.1105,-245.5273 2472.1795,-252.2145"/>
</g>
<!-- 13&#45;&gt;21 -->
<g id="edge58" class="edge">
<title>13&#45;&gt;21</title>
<path fill="none" stroke="#000000" d="M2265.308,-292.7941C2289.9284,-281.6452 2325.4906,-265.5416 2353.1738,-253.0058"/>
<polygon fill="#000000" stroke="#000000" points="2354.9405,-256.048 2362.6062,-248.7345 2352.0529,-249.6713 2354.9405,-256.048"/>
</g>
<!-- 13&#45;&gt;14 -->
<g id="edge69" class="edge">
<title>13&#45;&gt;14</title>
<path fill="none" stroke="#000000" d="M2236.1449,-287.8314C2236.1449,-280.131 2236.1449,-270.9743 2236.1449,-262.4166"/>
<polygon fill="#000000" stroke="#000000" points="2239.645,-262.4132 2236.1449,-252.4133 2232.645,-262.4133 2239.645,-262.4132"/>
</g>
<!-- 11 -->
<g id="node59" class="node">
<title>11</title>
<ellipse fill="none" stroke="#000000" cx="1907.1449" cy="-234" rx="78.3297" ry="18"/>
<text text-anchor="middle" x="1907.1449" y="-229.8" font-family="Times,serif" font-size="14.00" fill="#000000">FROM&#45;ADDRESS</text>
</g>
<!-- 11&#45;&gt;12 -->
<g id="edge70" class="edge">
<title>11&#45;&gt;12</title>
<path fill="none" stroke="#000000" d="M1848.9597,-221.7862C1788.182,-209.0282 1693.0375,-189.0562 1629.6584,-175.7521"/>
<polygon fill="#000000" stroke="#000000" points="1630.275,-172.3053 1619.7693,-173.6762 1628.8369,-179.156 1630.275,-172.3053"/>
</g>
<!-- 10 -->
<g id="node60" class="node">
<title>10</title>
<ellipse fill="none" stroke="#000000" cx="2068.1449" cy="-234" rx="64.9624" ry="18"/>
<text text-anchor="middle" x="2068.1449" y="-229.8" font-family="Times,serif" font-size="14.00" fill="#000000">TO&#45;ADDRESS</text>
</g>
<!-- 10&#45;&gt;12 -->
<g id="edge71" class="edge">
<title>10&#45;&gt;12</title>
<path fill="none" stroke="#000000" d="M2020.5476,-221.5791C2011.8034,-219.538 2002.7276,-217.5775 1994.1449,-216 1872.425,-193.6282 1729.5996,-177.7119 1643.0418,-169.1915"/>
<polygon fill="#000000" stroke="#000000" points="1643.3225,-165.7024 1633.0297,-168.2143 1642.6424,-172.6692 1643.3225,-165.7024"/>
</g>
<!-- 9 -->
<g id="node61" class="node">
<title>9</title>
<ellipse fill="none" stroke="#000000" cx="2642.1449" cy="-306" rx="100.8669" ry="18"/>
<text text-anchor="middle" x="2642.1449" y="-301.8" font-family="Times,serif" font-size="14.00" fill="#000000">MESSAGES&#45;ROOT&#45;CID</text>
</g>
<!-- 8 -->
<g id="node62" class="node">
<title>8</title>
<ellipse fill="none" stroke="#000000" cx="2068.1449" cy="-306" rx="72.0308" ry="18"/>
<text text-anchor="middle" x="2068.1449" y="-301.8" font-family="Times,serif" font-size="14.00" fill="#000000">ADDRESS&#45;SIZE</text>
</g>
<!-- 8&#45;&gt;11 -->
<g id="edge72" class="edge">
<title>8&#45;&gt;11</title>
<path fill="none" stroke="#000000" d="M2032.8128,-290.1993C2009.2562,-279.6647 1978.0701,-265.7181 1952.6587,-254.354"/>
<polygon fill="#000000" stroke="#000000" points="1953.7879,-251.025 1943.2303,-250.1375 1950.9301,-257.4151 1953.7879,-251.025"/>
</g>
<!-- 8&#45;&gt;10 -->
<g id="edge73" class="edge">
<title>8&#45;&gt;10</title>
<path fill="none" stroke="#000000" d="M2068.1449,-287.8314C2068.1449,-280.131 2068.1449,-270.9743 2068.1449,-262.4166"/>
<polygon fill="#000000" stroke="#000000" points="2071.645,-262.4132 2068.1449,-252.4133 2064.645,-262.4133 2071.645,-262.4132"/>
</g>
<!-- 7 -->
<g id="node63" class="node">
<title>7</title>
<ellipse fill="none" stroke="#000000" cx="2239.1449" cy="-378" rx="46.8977" ry="18"/>
<text text-anchor="middle" x="2239.1449" y="-373.8" font-family="Times,serif" font-size="14.00" fill="#000000">CID&#45;SIZE</text>
</g>
<!-- 7&#45;&gt;20 -->
<g id="edge59" class="edge">
<title>7&#45;&gt;20</title>
<path fill="none" stroke="#000000" d="M2270.908,-364.6261C2296.0731,-354.0302 2331.6829,-339.0367 2360.5904,-326.8651"/>
<polygon fill="#000000" stroke="#000000" points="2362.2539,-329.9623 2370.1121,-322.8559 2359.5375,-323.5108 2362.2539,-329.9623"/>
</g>
<!-- 7&#45;&gt;9 -->
<g id="edge74" class="edge">
<title>7&#45;&gt;9</title>
<path fill="none" stroke="#000000" d="M2274.153,-365.7991C2281.0555,-363.6633 2288.2855,-361.6124 2295.1449,-360 2398.8597,-335.6204 2426.9049,-340.6029 2532.1449,-324 2540.6167,-322.6635 2549.452,-321.2502 2558.2712,-319.8269"/>
<polygon fill="#000000" stroke="#000000" points="2558.8892,-323.2725 2568.2012,-318.2191 2557.7704,-316.3625 2558.8892,-323.2725"/>
</g>
<!-- 7&#45;&gt;8 -->
<g id="edge75" class="edge">
<title>7&#45;&gt;8</title>
<path fill="none" stroke="#000000" d="M2207.3819,-364.6261C2181.2358,-353.6172 2143.815,-337.8611 2114.3506,-325.455"/>
<polygon fill="#000000" stroke="#000000" points="2115.6627,-322.2099 2105.0882,-321.555 2112.9463,-328.6614 2115.6627,-322.2099"/>
</g>
<!-- 6 -->
<g id="node64" class="node">
<title>6</title>
<ellipse fill="none" stroke="#000000" cx="391.1449" cy="-594" rx="27" ry="18"/>
<text text-anchor="middle" x="391.1449" y="-589.8" font-family="Times,serif" font-size="14.00" fill="#000000">EIX</text>
</g>
<!-- 6&#45;&gt;52 -->
<g id="edge28" class="edge">
<title>6&#45;&gt;52</title>
<path fill="none" stroke="#000000" d="M390.3879,-575.8314C390.0671,-568.131 389.6855,-558.9743 389.329,-550.4166"/>
<polygon fill="#000000" stroke="#000000" points="392.8255,-550.2589 388.9121,-540.4133 385.8316,-550.5503 392.8255,-550.2589"/>
</g>
<!-- 5 -->
<g id="node65" class="node">
<title>5</title>
<ellipse fill="none" stroke="#000000" cx="396.1449" cy="-666" rx="27" ry="18"/>
<text text-anchor="middle" x="396.1449" y="-661.8" font-family="Times,serif" font-size="14.00" fill="#000000">PIB</text>
</g>
<!-- 5&#45;&gt;6 -->
<g id="edge76" class="edge">
<title>5&#45;&gt;6</title>
<path fill="none" stroke="#000000" d="M394.8832,-647.8314C394.3485,-640.131 393.7126,-630.9743 393.1183,-622.4166"/>
<polygon fill="#000000" stroke="#000000" points="396.6081,-622.1467 392.4236,-612.4133 389.6249,-622.6317 396.6081,-622.1467"/>
</g>
<!-- 4 -->
<g id="node66" class="node">
<title>4</title>
<ellipse fill="none" stroke="#000000" cx="407.1449" cy="-738" rx="27" ry="18"/>
<text text-anchor="middle" x="407.1449" y="-733.8" font-family="Times,serif" font-size="14.00" fill="#000000">TIB</text>
</g>
<!-- 4&#45;&gt;5 -->
<g id="edge77" class="edge">
<title>4&#45;&gt;5</title>
<path fill="none" stroke="#000000" d="M404.3692,-719.8314C403.1746,-712.0125 401.7507,-702.6923 400.4261,-694.0221"/>
<polygon fill="#000000" stroke="#000000" points="403.8519,-693.2701 398.8817,-683.9134 396.9322,-694.3273 403.8519,-693.2701"/>
</g>
<!-- 3 -->
<g id="node67" class="node">
<title>3</title>
<ellipse fill="none" stroke="#000000" cx="428.1449" cy="-810" rx="27" ry="18"/>
<text text-anchor="middle" x="428.1449" y="-805.8" font-family="Times,serif" font-size="14.00" fill="#000000">GIB</text>
</g>
<!-- 3&#45;&gt;28 -->
<g id="edge50" class="edge">
<title>3&#45;&gt;28</title>
<path fill="none" stroke="#000000" d="M449.0317,-798.432C468.0404,-787.904 496.5793,-772.0979 519.7028,-759.291"/>
<polygon fill="#000000" stroke="#000000" points="521.5379,-762.2757 528.59,-754.3689 518.1463,-756.1521 521.5379,-762.2757"/>
</g>
<!-- 3&#45;&gt;4 -->
<g id="edge78" class="edge">
<title>3&#45;&gt;4</title>
<path fill="none" stroke="#000000" d="M422.9539,-792.2022C420.6065,-784.1541 417.7787,-774.4588 415.1677,-765.5067"/>
<polygon fill="#000000" stroke="#000000" points="418.5091,-764.4625 412.349,-755.8425 411.7891,-766.4226 418.5091,-764.4625"/>
</g>
<!-- 2 -->
<g id="node68" class="node">
<title>2</title>
<ellipse fill="none" stroke="#000000" cx="428.1449" cy="-882" rx="27" ry="18"/>
<text text-anchor="middle" x="428.1449" y="-877.8" font-family="Times,serif" font-size="14.00" fill="#000000">MIB</text>
</g>
<!-- 2&#45;&gt;3 -->
<g id="edge79" class="edge">
<title>2&#45;&gt;3</title>
<path fill="none" stroke="#000000" d="M428.1449,-863.8314C428.1449,-856.131 428.1449,-846.9743 428.1449,-838.4166"/>
<polygon fill="#000000" stroke="#000000" points="431.645,-838.4132 428.1449,-828.4133 424.645,-838.4133 431.645,-838.4132"/>
</g>
<!-- 1 -->
<g id="node69" class="node">
<title>1</title>
<ellipse fill="none" stroke="#000000" cx="428.1449" cy="-954" rx="27" ry="18"/>
<text text-anchor="middle" x="428.1449" y="-949.8" font-family="Times,serif" font-size="14.00" fill="#000000">KIB</text>
</g>
<!-- 1&#45;&gt;2 -->
<g id="edge80" class="edge">
<title>1&#45;&gt;2</title>
<path fill="none" stroke="#000000" d="M428.1449,-935.8314C428.1449,-928.131 428.1449,-918.9743 428.1449,-910.4166"/>
<polygon fill="#000000" stroke="#000000" points="431.645,-910.4132 428.1449,-900.4133 424.645,-910.4133 431.645,-910.4132"/>
</g>
</g>
</svg>
