<?xml version="1.0" encoding="UTF-8" standalone="no"?>
<!DOCTYPE svg PUBLIC "-//W3C//DTD SVG 1.1//EN"
 "http://www.w3.org/Graphics/SVG/1.1/DTD/svg11.dtd">
<!-- Generated by graphviz version 5.0.0 (20220707.1540)
 -->
<!-- Title: G Pages: 1 -->
<svg width="625pt" height="800pt"
 viewBox="0.00 0.00 625.24 800.00" xmlns="http://www.w3.org/2000/svg" xmlns:xlink="http://www.w3.org/1999/xlink">
<g id="graph0" class="graph" transform="scale(1 1) rotate(0) translate(4 796)">
<title>G</title>
<polygon fill="white" stroke="transparent" points="-4,4 -4,-796 621.24,-796 621.24,4 -4,4"/>
<!-- .md -->
<g id="node1" class="node">
<title>.md</title>
<polygon fill="lightyellow" stroke="black" points="65.24,-468 11.24,-468 11.24,-432 65.24,-432 65.24,-468"/>
<text text-anchor="middle" x="38.24" y="-445.8" font-family="Times,serif" font-size="14.00">.md</text>
</g>
<!-- make pdf -->
<g id="node16" class="node">
<title>make pdf</title>
<text text-anchor="middle" x="34.24" y="-229.8" font-family="Times,serif" font-size="14.00">make pdf</text>
</g>
<!-- .md&#45;&gt;make pdf -->
<g id="edge19" class="edge">
<title>.md&#45;&gt;make pdf</title>
<path fill="none" stroke="black" d="M37.92,-431.85C37.23,-394.83 35.59,-307.18 34.75,-262.39"/>
<polygon fill="black" stroke="black" points="38.25,-262.17 34.56,-252.23 31.25,-262.3 38.25,-262.17"/>
</g>
<!-- hugo build -->
<g id="node18" class="node">
<title>hugo build</title>
<polygon fill="none" stroke="black" points="491.52,-360 414.96,-360 414.96,-324 491.52,-324 491.52,-360"/>
<text text-anchor="middle" x="453.24" y="-337.8" font-family="Times,serif" font-size="14.00">hugo build</text>
</g>
<!-- .md&#45;&gt;hugo build -->
<g id="edge3" class="edge">
<title>.md&#45;&gt;hugo build</title>
<path fill="none" stroke="black" d="M65.47,-442.05C134.58,-424.39 317.48,-377.68 405.11,-355.29"/>
<polygon fill="black" stroke="black" points="405.98,-358.68 414.8,-352.82 404.25,-351.9 405.98,-358.68"/>
</g>
<!-- .ipld -->
<g id="node2" class="node">
<title>.ipld</title>
<polygon fill="lightyellow" stroke="black" points="551.24,-684 497.24,-684 497.24,-648 551.24,-648 551.24,-684"/>
<text text-anchor="middle" x="524.24" y="-661.8" font-family="Times,serif" font-size="14.00">.ipld</text>
</g>
<!-- bin/codeGen -->
<g id="node12" class="node">
<title>bin/codeGen</title>
<text text-anchor="middle" x="524.24" y="-553.8" font-family="Times,serif" font-size="14.00">bin/codeGen</text>
</g>
<!-- .ipld&#45;&gt;bin/codeGen -->
<g id="edge11" class="edge">
<title>.ipld&#45;&gt;bin/codeGen</title>
<path fill="none" stroke="black" d="M524.24,-647.97C524.24,-631.38 524.24,-605.88 524.24,-586.43"/>
<polygon fill="black" stroke="black" points="527.74,-586.34 524.24,-576.34 520.74,-586.34 527.74,-586.34"/>
</g>
<!-- .go -->
<g id="node3" class="node">
<title>.go</title>
<polygon fill="lightyellow" stroke="black" points="551.24,-468 497.24,-468 497.24,-432 551.24,-432 551.24,-468"/>
<text text-anchor="middle" x="524.24" y="-445.8" font-family="Times,serif" font-size="14.00">.go</text>
</g>
<!-- go test -->
<g id="node14" class="node">
<title>go test</title>
<text text-anchor="middle" x="590.24" y="-337.8" font-family="Times,serif" font-size="14.00">go test</text>
</g>
<!-- .go&#45;&gt;go test -->
<g id="edge13" class="edge">
<title>.go&#45;&gt;go test</title>
<path fill="none" stroke="black" d="M534.84,-431.97C545.41,-414.99 561.79,-388.7 574,-369.09"/>
<polygon fill="black" stroke="black" points="577.13,-370.68 579.44,-360.34 571.19,-366.98 577.13,-370.68"/>
</g>
<!-- .go&#45;&gt;hugo build -->
<g id="edge15" class="edge">
<title>.go&#45;&gt;hugo build</title>
<path fill="none" stroke="black" d="M512.83,-431.97C501.41,-414.92 483.69,-388.46 470.54,-368.82"/>
<polygon fill="black" stroke="black" points="473.33,-366.7 464.85,-360.34 467.51,-370.6 473.33,-366.7"/>
</g>
<!-- .orient -->
<g id="node4" class="node">
<title>.orient</title>
<polygon fill="lightyellow" stroke="black" points="197.24,-792 143.24,-792 143.24,-756 197.24,-756 197.24,-792"/>
<text text-anchor="middle" x="170.24" y="-769.8" font-family="Times,serif" font-size="14.00">.orient</text>
</g>
<!-- orient -->
<g id="node11" class="node">
<title>orient</title>
<text text-anchor="middle" x="170.24" y="-661.8" font-family="Times,serif" font-size="14.00">orient</text>
</g>
<!-- .orient&#45;&gt;orient -->
<g id="edge5" class="edge">
<title>.orient&#45;&gt;orient</title>
<path fill="none" stroke="black" d="M170.24,-755.97C170.24,-739.38 170.24,-713.88 170.24,-694.43"/>
<polygon fill="black" stroke="black" points="173.74,-694.34 170.24,-684.34 166.74,-694.34 173.74,-694.34"/>
</g>
<!-- .org -->
<g id="node5" class="node">
<title>.org</title>
<polygon fill="lightyellow" stroke="black" points="65.24,-684 11.24,-684 11.24,-648 65.24,-648 65.24,-684"/>
<text text-anchor="middle" x="38.24" y="-661.8" font-family="Times,serif" font-size="14.00">.org</text>
</g>
<!-- &lt;emacs&gt; -->
<g id="node17" class="node">
<title>&lt;emacs&gt;</title>
<polygon fill="none" stroke="black" points="71.51,-576 4.97,-576 4.97,-540 71.51,-540 71.51,-576"/>
<text text-anchor="middle" x="38.24" y="-553.8" font-family="Times,serif" font-size="14.00">&lt;emacs&gt;</text>
</g>
<!-- .org&#45;&gt;&lt;emacs&gt; -->
<g id="edge1" class="edge">
<title>.org&#45;&gt;&lt;emacs&gt;</title>
<path fill="none" stroke="black" d="M38.24,-647.97C38.24,-631.38 38.24,-605.88 38.24,-586.43"/>
<polygon fill="black" stroke="black" points="41.74,-586.34 38.24,-576.34 34.74,-586.34 41.74,-586.34"/>
</g>
<!-- .dot -->
<g id="node6" class="node">
<title>.dot</title>
<polygon fill="lightyellow" stroke="black" points="197.24,-576 143.24,-576 143.24,-540 197.24,-540 197.24,-576"/>
<text text-anchor="middle" x="170.24" y="-553.8" font-family="Times,serif" font-size="14.00">.dot</text>
</g>
<!-- dot -->
<g id="node10" class="node">
<title>dot</title>
<text text-anchor="middle" x="170.24" y="-445.8" font-family="Times,serif" font-size="14.00">dot</text>
</g>
<!-- .dot&#45;&gt;dot -->
<g id="edge9" class="edge">
<title>.dot&#45;&gt;dot</title>
<path fill="none" stroke="black" d="M170.24,-539.97C170.24,-523.38 170.24,-497.88 170.24,-478.43"/>
<polygon fill="black" stroke="black" points="173.74,-478.34 170.24,-468.34 166.74,-478.34 173.74,-478.34"/>
</g>
<!-- [website] -->
<g id="node7" class="node">
<title>[website]</title>
<polygon fill="lightgreen" stroke="black" points="282.33,-36 214.15,-36 214.15,0 282.33,0 282.33,-36"/>
<text text-anchor="middle" x="248.24" y="-13.8" font-family="Times,serif" font-size="14.00">[website]</text>
</g>
<!-- spec.pdf -->
<g id="node8" class="node">
<title>spec.pdf</title>
<polygon fill="lightgreen" stroke="black" points="65.78,-144 2.7,-144 2.7,-108 65.78,-108 65.78,-144"/>
<text text-anchor="middle" x="34.24" y="-121.8" font-family="Times,serif" font-size="14.00">spec.pdf</text>
</g>
<!-- emacs -->
<g id="node9" class="node">
<title>emacs</title>
<text text-anchor="middle" x="296.24" y="-769.8" font-family="Times,serif" font-size="14.00">emacs</text>
</g>
<!-- .svg -->
<g id="node20" class="node">
<title>.svg</title>
<polygon fill="none" stroke="black" points="197.24,-360 143.24,-360 143.24,-324 197.24,-324 197.24,-360"/>
<text text-anchor="middle" x="170.24" y="-337.8" font-family="Times,serif" font-size="14.00">.svg</text>
</g>
<!-- dot&#45;&gt;.svg -->
<g id="edge10" class="edge">
<title>dot&#45;&gt;.svg</title>
<path fill="none" stroke="black" d="M170.24,-431.97C170.24,-415.38 170.24,-389.88 170.24,-370.43"/>
<polygon fill="black" stroke="black" points="173.74,-370.34 170.24,-360.34 166.74,-370.34 173.74,-370.34"/>
</g>
<!-- orient&#45;&gt;.dot -->
<g id="edge7" class="edge">
<title>orient&#45;&gt;.dot</title>
<path fill="none" stroke="black" d="M170.24,-647.97C170.24,-631.38 170.24,-605.88 170.24,-586.43"/>
<polygon fill="black" stroke="black" points="173.74,-586.34 170.24,-576.34 166.74,-586.34 173.74,-586.34"/>
</g>
<!-- orient&#45;&gt;&lt;emacs&gt; -->
<g id="edge6" class="edge">
<title>orient&#45;&gt;&lt;emacs&gt;</title>
<path fill="none" stroke="black" d="M149.03,-647.97C127.03,-630.3 92.46,-602.54 67.79,-582.73"/>
<polygon fill="black" stroke="black" points="69.82,-579.87 59.83,-576.34 65.44,-585.33 69.82,-579.87"/>
</g>
<!-- .html -->
<g id="node19" class="node">
<title>.html</title>
<polygon fill="none" stroke="black" points="340.24,-252 286.24,-252 286.24,-216 340.24,-216 340.24,-252"/>
<text text-anchor="middle" x="313.24" y="-229.8" font-family="Times,serif" font-size="14.00">.html</text>
</g>
<!-- orient&#45;&gt;.html -->
<g id="edge8" class="edge">
<title>orient&#45;&gt;.html</title>
<path fill="none" stroke="black" d="M185.47,-647.85C199.84,-630.78 220.96,-603.27 233.24,-576 282.85,-465.87 303.64,-321.34 310.46,-262.1"/>
<polygon fill="black" stroke="black" points="313.95,-262.39 311.58,-252.06 306.99,-261.61 313.95,-262.39"/>
</g>
<!-- bin/codeGen&#45;&gt;.go -->
<g id="edge12" class="edge">
<title>bin/codeGen&#45;&gt;.go</title>
<path fill="none" stroke="black" d="M524.24,-539.97C524.24,-523.38 524.24,-497.88 524.24,-478.43"/>
<polygon fill="black" stroke="black" points="527.74,-478.34 524.24,-468.34 520.74,-478.34 527.74,-478.34"/>
</g>
<!-- hugo -->
<g id="node13" class="node">
<title>hugo</title>
<text text-anchor="middle" x="422.24" y="-769.8" font-family="Times,serif" font-size="14.00">hugo</text>
</g>
<!-- [ok] -->
<g id="node21" class="node">
<title>[ok]</title>
<polygon fill="none" stroke="black" points="617.24,-252 563.24,-252 563.24,-216 617.24,-216 617.24,-252"/>
<text text-anchor="middle" x="590.24" y="-229.8" font-family="Times,serif" font-size="14.00">[ok]</text>
</g>
<!-- go test&#45;&gt;[ok] -->
<g id="edge14" class="edge">
<title>go test&#45;&gt;[ok]</title>
<path fill="none" stroke="black" d="M590.24,-323.97C590.24,-307.38 590.24,-281.88 590.24,-262.43"/>
<polygon fill="black" stroke="black" points="593.74,-262.34 590.24,-252.34 586.74,-262.34 593.74,-262.34"/>
</g>
<!-- make website -->
<g id="node15" class="node">
<title>make website</title>
<text text-anchor="middle" x="248.24" y="-121.8" font-family="Times,serif" font-size="14.00">make website</text>
</g>
<!-- make website&#45;&gt;[website] -->
<g id="edge17" class="edge">
<title>make website&#45;&gt;[website]</title>
<path fill="none" stroke="black" d="M248.24,-107.97C248.24,-91.38 248.24,-65.88 248.24,-46.43"/>
<polygon fill="black" stroke="black" points="251.74,-46.34 248.24,-36.34 244.74,-46.34 251.74,-46.34"/>
</g>
<!-- make pdf&#45;&gt;spec.pdf -->
<g id="edge20" class="edge">
<title>make pdf&#45;&gt;spec.pdf</title>
<path fill="none" stroke="black" d="M34.24,-215.97C34.24,-199.38 34.24,-173.88 34.24,-154.43"/>
<polygon fill="black" stroke="black" points="37.74,-154.34 34.24,-144.34 30.74,-154.34 37.74,-154.34"/>
</g>
<!-- &lt;emacs&gt;&#45;&gt;.md -->
<g id="edge2" class="edge">
<title>&lt;emacs&gt;&#45;&gt;.md</title>
<path fill="none" stroke="black" d="M38.24,-539.97C38.24,-523.38 38.24,-497.88 38.24,-478.43"/>
<polygon fill="black" stroke="black" points="41.74,-478.34 38.24,-468.34 34.74,-478.34 41.74,-478.34"/>
</g>
<!-- hugo build&#45;&gt;.html -->
<g id="edge4" class="edge">
<title>hugo build&#45;&gt;.html</title>
<path fill="none" stroke="black" d="M430.75,-323.97C407.31,-306.23 370.43,-278.3 344.24,-258.47"/>
<polygon fill="black" stroke="black" points="346.23,-255.59 336.14,-252.34 342,-261.17 346.23,-255.59"/>
</g>
<!-- .html&#45;&gt;make website -->
<g id="edge16" class="edge">
<title>.html&#45;&gt;make website</title>
<path fill="none" stroke="black" d="M302.8,-215.97C292.39,-198.99 276.26,-172.7 264.24,-153.09"/>
<polygon fill="black" stroke="black" points="267.08,-151.04 258.87,-144.34 261.12,-154.7 267.08,-151.04"/>
</g>
<!-- .svg&#45;&gt;make website -->
<g id="edge18" class="edge">
<title>.svg&#45;&gt;make website</title>
<path fill="none" stroke="black" d="M176.49,-323.85C190.04,-286.68 222.2,-198.44 238.46,-153.82"/>
<polygon fill="black" stroke="black" points="241.82,-154.83 241.96,-144.23 235.25,-152.43 241.82,-154.83"/>
</g>
<!-- .svg&#45;&gt;make pdf -->
<g id="edge21" class="edge">
<title>.svg&#45;&gt;make pdf</title>
<path fill="none" stroke="black" d="M148.39,-323.97C125.72,-306.3 90.1,-278.54 64.68,-258.73"/>
<polygon fill="black" stroke="black" points="66.53,-255.73 56.49,-252.34 62.22,-261.25 66.53,-255.73"/>
</g>
</g>
</svg>
