<?xml version="1.0" encoding="UTF-8" standalone="no"?>
<!DOCTYPE svg PUBLIC "-//W3C//DTD SVG 1.1//EN"
 "http://www.w3.org/Graphics/SVG/1.1/DTD/svg11.dtd">
<!-- Generated by graphviz version 2.40.1 (20161225.0304)
 -->
<!-- Title: Actors Pages: 1 -->
<svg width="892pt" height="347pt"
 viewBox="0.00 0.00 891.62 347.02" xmlns="http://www.w3.org/2000/svg" xmlns:xlink="http://www.w3.org/1999/xlink">
<g id="graph0" class="graph" transform="scale(1 1) rotate(0) translate(4 343.0205)">
<title>Actors</title>
<polygon fill="#ffffff" stroke="transparent" points="-4,4 -4,-343.0205 887.6191,-343.0205 887.6191,4 -4,4"/>
<!-- Actor -->
<g id="node1" class="node">
<title>Actor</title>
<path fill="none" stroke="#000000" d="M254.8027,-255.8516C254.8027,-255.8516 288.8096,-255.8516 288.8096,-255.8516 294.8096,-255.8516 300.8096,-261.8516 300.8096,-267.8516 300.8096,-267.8516 300.8096,-326.5205 300.8096,-326.5205 300.8096,-332.5205 294.8096,-338.5205 288.8096,-338.5205 288.8096,-338.5205 254.8027,-338.5205 254.8027,-338.5205 248.8027,-338.5205 242.8027,-332.5205 242.8027,-326.5205 242.8027,-326.5205 242.8027,-267.8516 242.8027,-267.8516 242.8027,-261.8516 248.8027,-255.8516 254.8027,-255.8516"/>
<text text-anchor="middle" x="271.8062" y="-323.3205" font-family="monaco" font-size="14.00" fill="#000000">Actor</text>
<polyline fill="none" stroke="#000000" points="242.8027,-311.8516 300.8096,-311.8516 "/>
</g>
<!-- ActorState -->
<g id="node2" class="node">
<title>ActorState</title>
<path fill="none" stroke="#000000" d="M111.9932,-146.8447C111.9932,-146.8447 263.6191,-146.8447 263.6191,-146.8447 269.6191,-146.8447 275.6191,-152.8447 275.6191,-158.8447 275.6191,-158.8447 275.6191,-206.8516 275.6191,-206.8516 275.6191,-212.8516 269.6191,-218.8516 263.6191,-218.8516 263.6191,-218.8516 111.9932,-218.8516 111.9932,-218.8516 105.9932,-218.8516 99.9932,-212.8516 99.9932,-206.8516 99.9932,-206.8516 99.9932,-158.8447 99.9932,-158.8447 99.9932,-152.8447 105.9932,-146.8447 111.9932,-146.8447"/>
<text text-anchor="middle" x="187.8062" y="-203.6516" font-family="monaco" font-size="14.00" fill="#000000">ActorState</text>
<polyline fill="none" stroke="#000000" points="99.9932,-192.1826 275.6191,-192.1826 "/>
<text text-anchor="middle" x="187.8062" y="-176.9826" font-family="monaco" font-size="14.00" fill="#000000">Balance TokenAmount</text>
<text text-anchor="middle" x="187.8062" y="-158.3137" font-family="monaco" font-size="14.00" fill="#000000"> SeqNo CallSeqNo</text>
</g>
<!-- Actor&#45;&gt;ActorState -->
<g id="edge8" class="edge">
<title>Actor&#45;&gt;ActorState</title>
<path fill="none" stroke="#000000" d="M242.6628,-257.5171C235.481,-247.7414 227.7441,-237.2103 220.4101,-227.2275"/>
<polygon fill="#000000" stroke="#000000" points="223.1066,-224.9863 214.3654,-218.9996 217.4654,-229.1308 223.1066,-224.9863"/>
</g>
<!-- ConcreteActor -->
<g id="node3" class="node">
<title>ConcreteActor</title>
<path fill="none" stroke="#000000" d="M305.1973,-157.5137C305.1973,-157.5137 406.415,-157.5137 406.415,-157.5137 412.415,-157.5137 418.415,-163.5137 418.415,-169.5137 418.415,-169.5137 418.415,-196.1826 418.415,-196.1826 418.415,-202.1826 412.415,-208.1826 406.415,-208.1826 406.415,-208.1826 305.1973,-208.1826 305.1973,-208.1826 299.1973,-208.1826 293.1973,-202.1826 293.1973,-196.1826 293.1973,-196.1826 293.1973,-169.5137 293.1973,-169.5137 293.1973,-163.5137 299.1973,-157.5137 305.1973,-157.5137"/>
<text text-anchor="middle" x="355.8062" y="-192.9826" font-family="monaco" font-size="14.00" fill="#000000">ConcreteActor</text>
<polyline fill="none" stroke="#000000" points="293.1973,-181.5137 418.415,-181.5137 "/>
</g>
<!-- Actor&#45;&gt;ConcreteActor -->
<g id="edge7" class="edge">
<title>Actor&#45;&gt;ConcreteActor</title>
<path fill="none" stroke="#000000" stroke-dasharray="5,2" d="M300.9495,-257.5171C310.7449,-244.1839 321.5729,-229.4453 331.0028,-216.6095"/>
<polygon fill="#000000" stroke="#000000" points="333.8729,-218.6145 336.9729,-208.4833 328.2316,-214.47 333.8729,-218.6145"/>
</g>
<!-- InitActor -->
<g id="node4" class="node">
<title>InitActor</title>
<path fill="none" stroke="#000000" d="M12,-.5C12,-.5 79.6123,-.5 79.6123,-.5 85.6123,-.5 91.6123,-6.5 91.6123,-12.5 91.6123,-12.5 91.6123,-97.8447 91.6123,-97.8447 91.6123,-103.8447 85.6123,-109.8447 79.6123,-109.8447 79.6123,-109.8447 12,-109.8447 12,-109.8447 6,-109.8447 0,-103.8447 0,-97.8447 0,-97.8447 0,-12.5 0,-12.5 0,-6.5 6,-.5 12,-.5"/>
<text text-anchor="middle" x="45.8062" y="-94.6447" font-family="monaco" font-size="14.00" fill="#000000">InitActor</text>
<polyline fill="none" stroke="#000000" points="0,-83.1758 91.6123,-83.1758 "/>
<text text-anchor="middle" x="45.8062" y="-67.9758" font-family="monaco" font-size="14.00" fill="#000000">...</text>
<text text-anchor="middle" x="45.8062" y="-49.3068" font-family="monaco" font-size="14.00" fill="#000000">...</text>
<text text-anchor="middle" x="45.8062" y="-30.6379" font-family="monaco" font-size="14.00" fill="#000000">...</text>
<text text-anchor="middle" x="45.8062" y="-11.9689" font-family="monaco" font-size="14.00" fill="#000000">...</text>
</g>
<!-- ConcreteActor&#45;&gt;InitActor -->
<g id="edge1" class="edge">
<title>ConcreteActor&#45;&gt;InitActor</title>
<path fill="none" stroke="#000000" stroke-dasharray="5,2" d="M310.8115,-157.3289C302.3533,-153.223 293.4482,-149.344 284.8062,-146.3447 206.0841,-119.0237 174.326,-149.5676 100.8062,-110.3447 100.6122,-110.2413 100.4186,-110.1369 100.2252,-110.0317"/>
<polygon fill="#000000" stroke="#000000" points="102.0487,-107.0441 91.7063,-104.7448 98.3574,-112.9918 102.0487,-107.0441"/>
</g>
<!-- CronActor -->
<g id="node5" class="node">
<title>CronActor</title>
<path fill="none" stroke="#000000" d="M122,-.5C122,-.5 189.6123,-.5 189.6123,-.5 195.6123,-.5 201.6123,-6.5 201.6123,-12.5 201.6123,-12.5 201.6123,-97.8447 201.6123,-97.8447 201.6123,-103.8447 195.6123,-109.8447 189.6123,-109.8447 189.6123,-109.8447 122,-109.8447 122,-109.8447 116,-109.8447 110,-103.8447 110,-97.8447 110,-97.8447 110,-12.5 110,-12.5 110,-6.5 116,-.5 122,-.5"/>
<text text-anchor="middle" x="155.8062" y="-94.6447" font-family="monaco" font-size="14.00" fill="#000000">CronActor</text>
<polyline fill="none" stroke="#000000" points="110,-83.1758 201.6123,-83.1758 "/>
<text text-anchor="middle" x="155.8062" y="-67.9758" font-family="monaco" font-size="14.00" fill="#000000">...</text>
<text text-anchor="middle" x="155.8062" y="-49.3068" font-family="monaco" font-size="14.00" fill="#000000">...</text>
<text text-anchor="middle" x="155.8062" y="-30.6379" font-family="monaco" font-size="14.00" fill="#000000">...</text>
<text text-anchor="middle" x="155.8062" y="-11.9689" font-family="monaco" font-size="14.00" fill="#000000">...</text>
</g>
<!-- ConcreteActor&#45;&gt;CronActor -->
<g id="edge2" class="edge">
<title>ConcreteActor&#45;&gt;CronActor</title>
<path fill="none" stroke="#000000" stroke-dasharray="5,2" d="M306.6067,-157.3751C299.3108,-153.6493 291.8717,-149.8791 284.8062,-146.3447 252.0962,-129.9821 240.5759,-131.5918 210.8062,-110.3447 210.4208,-110.0697 210.0358,-109.7919 209.6511,-109.5115"/>
<polygon fill="#000000" stroke="#000000" points="211.6815,-106.6566 201.6411,-103.2739 207.3806,-112.1795 211.6815,-106.6566"/>
</g>
<!-- AccountActor -->
<g id="node6" class="node">
<title>AccountActor</title>
<path fill="none" stroke="#000000" d="M231.3979,-.5C231.3979,-.5 324.2144,-.5 324.2144,-.5 330.2144,-.5 336.2144,-6.5 336.2144,-12.5 336.2144,-12.5 336.2144,-97.8447 336.2144,-97.8447 336.2144,-103.8447 330.2144,-109.8447 324.2144,-109.8447 324.2144,-109.8447 231.3979,-109.8447 231.3979,-109.8447 225.3979,-109.8447 219.3979,-103.8447 219.3979,-97.8447 219.3979,-97.8447 219.3979,-12.5 219.3979,-12.5 219.3979,-6.5 225.3979,-.5 231.3979,-.5"/>
<text text-anchor="middle" x="277.8062" y="-94.6447" font-family="monaco" font-size="14.00" fill="#000000">AccountActor</text>
<polyline fill="none" stroke="#000000" points="219.3979,-83.1758 336.2144,-83.1758 "/>
<text text-anchor="middle" x="277.8062" y="-67.9758" font-family="monaco" font-size="14.00" fill="#000000">...</text>
<text text-anchor="middle" x="277.8062" y="-49.3068" font-family="monaco" font-size="14.00" fill="#000000">...</text>
<text text-anchor="middle" x="277.8062" y="-30.6379" font-family="monaco" font-size="14.00" fill="#000000">...</text>
<text text-anchor="middle" x="277.8062" y="-11.9689" font-family="monaco" font-size="14.00" fill="#000000">...</text>
</g>
<!-- ConcreteActor&#45;&gt;AccountActor -->
<g id="edge3" class="edge">
<title>ConcreteActor&#45;&gt;AccountActor</title>
<path fill="none" stroke="#000000" stroke-dasharray="5,2" d="M340.2092,-157.3179C333.3245,-146.0485 324.8957,-132.2518 316.4867,-118.4874"/>
<polygon fill="#000000" stroke="#000000" points="319.4676,-116.6531 311.2675,-109.9442 313.4941,-120.3025 319.4676,-116.6531"/>
</g>
<!-- StorageMinerActor -->
<g id="node7" class="node">
<title>StorageMinerActor</title>
<path fill="none" stroke="#000000" d="M366.3945,-.5C366.3945,-.5 501.2178,-.5 501.2178,-.5 507.2178,-.5 513.2178,-6.5 513.2178,-12.5 513.2178,-12.5 513.2178,-97.8447 513.2178,-97.8447 513.2178,-103.8447 507.2178,-109.8447 501.2178,-109.8447 501.2178,-109.8447 366.3945,-109.8447 366.3945,-109.8447 360.3945,-109.8447 354.3945,-103.8447 354.3945,-97.8447 354.3945,-97.8447 354.3945,-12.5 354.3945,-12.5 354.3945,-6.5 360.3945,-.5 366.3945,-.5"/>
<text text-anchor="middle" x="433.8062" y="-94.6447" font-family="monaco" font-size="14.00" fill="#000000">StorageMinerActor</text>
<polyline fill="none" stroke="#000000" points="354.3945,-83.1758 513.2178,-83.1758 "/>
<text text-anchor="middle" x="433.8062" y="-67.9758" font-family="monaco" font-size="14.00" fill="#000000">...</text>
<text text-anchor="middle" x="433.8062" y="-49.3068" font-family="monaco" font-size="14.00" fill="#000000">...</text>
<text text-anchor="middle" x="433.8062" y="-30.6379" font-family="monaco" font-size="14.00" fill="#000000">...</text>
<text text-anchor="middle" x="433.8062" y="-11.9689" font-family="monaco" font-size="14.00" fill="#000000">...</text>
</g>
<!-- ConcreteActor&#45;&gt;StorageMinerActor -->
<g id="edge4" class="edge">
<title>ConcreteActor&#45;&gt;StorageMinerActor</title>
<path fill="none" stroke="#000000" stroke-dasharray="5,2" d="M371.4031,-157.3179C378.2879,-146.0485 386.7166,-132.2518 395.1256,-118.4874"/>
<polygon fill="#000000" stroke="#000000" points="398.1182,-120.3025 400.3448,-109.9442 392.1447,-116.6531 398.1182,-120.3025"/>
</g>
<!-- StoragePowerActor -->
<g id="node8" class="node">
<title>StoragePowerActor</title>
<path fill="none" stroke="#000000" d="M543.3945,-.5C543.3945,-.5 678.2178,-.5 678.2178,-.5 684.2178,-.5 690.2178,-6.5 690.2178,-12.5 690.2178,-12.5 690.2178,-97.8447 690.2178,-97.8447 690.2178,-103.8447 684.2178,-109.8447 678.2178,-109.8447 678.2178,-109.8447 543.3945,-109.8447 543.3945,-109.8447 537.3945,-109.8447 531.3945,-103.8447 531.3945,-97.8447 531.3945,-97.8447 531.3945,-12.5 531.3945,-12.5 531.3945,-6.5 537.3945,-.5 543.3945,-.5"/>
<text text-anchor="middle" x="610.8062" y="-94.6447" font-family="monaco" font-size="14.00" fill="#000000">StoragePowerActor</text>
<polyline fill="none" stroke="#000000" points="531.3945,-83.1758 690.2178,-83.1758 "/>
<text text-anchor="middle" x="610.8062" y="-67.9758" font-family="monaco" font-size="14.00" fill="#000000">...</text>
<text text-anchor="middle" x="610.8062" y="-49.3068" font-family="monaco" font-size="14.00" fill="#000000">...</text>
<text text-anchor="middle" x="610.8062" y="-30.6379" font-family="monaco" font-size="14.00" fill="#000000">...</text>
<text text-anchor="middle" x="610.8062" y="-11.9689" font-family="monaco" font-size="14.00" fill="#000000">...</text>
</g>
<!-- ConcreteActor&#45;&gt;StoragePowerActor -->
<g id="edge5" class="edge">
<title>ConcreteActor&#45;&gt;StoragePowerActor</title>
<path fill="none" stroke="#000000" stroke-dasharray="5,2" d="M418.6804,-157.8879C450.1497,-144.7691 488.5307,-127.8108 521.8062,-110.3447 521.9017,-110.2946 521.9973,-110.2443 522.093,-110.194"/>
<polygon fill="#000000" stroke="#000000" points="523.9299,-113.1799 531.0679,-105.3505 520.6054,-107.0197 523.9299,-113.1799"/>
</g>
<!-- PaymentChannelActor -->
<g id="node9" class="node">
<title>PaymentChannelActor</title>
<path fill="none" stroke="#000000" d="M719.9932,-.5C719.9932,-.5 871.6191,-.5 871.6191,-.5 877.6191,-.5 883.6191,-6.5 883.6191,-12.5 883.6191,-12.5 883.6191,-97.8447 883.6191,-97.8447 883.6191,-103.8447 877.6191,-109.8447 871.6191,-109.8447 871.6191,-109.8447 719.9932,-109.8447 719.9932,-109.8447 713.9932,-109.8447 707.9932,-103.8447 707.9932,-97.8447 707.9932,-97.8447 707.9932,-12.5 707.9932,-12.5 707.9932,-6.5 713.9932,-.5 719.9932,-.5"/>
<text text-anchor="middle" x="795.8062" y="-94.6447" font-family="monaco" font-size="14.00" fill="#000000">PaymentChannelActor</text>
<polyline fill="none" stroke="#000000" points="707.9932,-83.1758 883.6191,-83.1758 "/>
<text text-anchor="middle" x="795.8062" y="-67.9758" font-family="monaco" font-size="14.00" fill="#000000">...</text>
<text text-anchor="middle" x="795.8062" y="-49.3068" font-family="monaco" font-size="14.00" fill="#000000">...</text>
<text text-anchor="middle" x="795.8062" y="-30.6379" font-family="monaco" font-size="14.00" fill="#000000">...</text>
<text text-anchor="middle" x="795.8062" y="-11.9689" font-family="monaco" font-size="14.00" fill="#000000">...</text>
</g>
<!-- ConcreteActor&#45;&gt;PaymentChannelActor -->
<g id="edge6" class="edge">
<title>ConcreteActor&#45;&gt;PaymentChannelActor</title>
<path fill="none" stroke="#000000" stroke-dasharray="5,2" d="M418.4704,-175.5153C486.3962,-166.2665 597.5082,-147.3327 698.3936,-110.236"/>
<polygon fill="#000000" stroke="#000000" points="699.6739,-113.494 707.8106,-106.7084 697.2182,-106.9389 699.6739,-113.494"/>
</g>
</g>
</svg>
