<?xml version="1.0" encoding="UTF-8" standalone="no"?>
<!DOCTYPE svg PUBLIC "-//W3C//DTD SVG 1.1//EN"
 "http://www.w3.org/Graphics/SVG/1.1/DTD/svg11.dtd">
<!-- Generated by graphviz version 2.40.1 (20161225.0304)
 -->
<!-- Title: Actors1 Pages: 1 -->
<svg width="892pt" height="421pt"
 viewBox="0.00 0.00 891.62 420.74" xmlns="http://www.w3.org/2000/svg" xmlns:xlink="http://www.w3.org/1999/xlink">
<g id="graph0" class="graph" transform="scale(1 1) rotate(0) translate(4 416.7361)">
<title>Actors1</title>
<polygon fill="#ffffff" stroke="transparent" points="-4,4 -4,-416.7361 887.6191,-416.7361 887.6191,4 -4,4"/>
<!-- Actor -->
<g id="node1" class="node">
<title>Actor</title>
<path fill="none" stroke="#000000" d="M338.8027,-329.5671C338.8027,-329.5671 372.8096,-329.5671 372.8096,-329.5671 378.8096,-329.5671 384.8096,-335.5671 384.8096,-341.5671 384.8096,-341.5671 384.8096,-400.2361 384.8096,-400.2361 384.8096,-406.2361 378.8096,-412.2361 372.8096,-412.2361 372.8096,-412.2361 338.8027,-412.2361 338.8027,-412.2361 332.8027,-412.2361 326.8027,-406.2361 326.8027,-400.2361 326.8027,-400.2361 326.8027,-341.5671 326.8027,-341.5671 326.8027,-335.5671 332.8027,-329.5671 338.8027,-329.5671"/>
<text text-anchor="middle" x="355.8062" y="-397.0361" font-family="monaco" font-size="14.00" fill="#000000">Actor</text>
<polyline fill="none" stroke="#000000" points="326.8027,-385.5671 384.8096,-385.5671 "/>
</g>
<!-- ActorState -->
<g id="node2" class="node">
<title>ActorState</title>
<path fill="none" stroke="#000000" d="M279.9932,-220.5603C279.9932,-220.5603 431.6191,-220.5603 431.6191,-220.5603 437.6191,-220.5603 443.6191,-226.5603 443.6191,-232.5603 443.6191,-232.5603 443.6191,-280.5671 443.6191,-280.5671 443.6191,-286.5671 437.6191,-292.5671 431.6191,-292.5671 431.6191,-292.5671 279.9932,-292.5671 279.9932,-292.5671 273.9932,-292.5671 267.9932,-286.5671 267.9932,-280.5671 267.9932,-280.5671 267.9932,-232.5603 267.9932,-232.5603 267.9932,-226.5603 273.9932,-220.5603 279.9932,-220.5603"/>
<text text-anchor="middle" x="355.8062" y="-277.3671" font-family="monaco" font-size="14.00" fill="#000000">ActorState</text>
<polyline fill="none" stroke="#000000" points="267.9932,-265.8982 443.6191,-265.8982 "/>
<text text-anchor="middle" x="355.8062" y="-250.6982" font-family="monaco" font-size="14.00" fill="#000000">Balance TokenAmount</text>
<text text-anchor="middle" x="355.8062" y="-232.0293" font-family="monaco" font-size="14.00" fill="#000000"> SeqNo CallSeqNo</text>
</g>
<!-- Actor&#45;&gt;ActorState -->
<g id="edge7" class="edge">
<title>Actor&#45;&gt;ActorState</title>
<path fill="none" stroke="#000000" d="M355.8062,-329.2996C355.8062,-320.6716 355.8062,-311.5316 355.8062,-302.7508"/>
<polygon fill="#000000" stroke="#000000" points="359.3063,-302.66 355.8062,-292.66 352.3063,-302.66 359.3063,-302.66"/>
</g>
<!-- ActorSubstate -->
<g id="node10" class="node">
<title>ActorSubstate</title>
<ellipse fill="none" stroke="#000000" cx="355.8062" cy="-165.2025" rx="88.5847" ry="18.7166"/>
<text text-anchor="middle" x="355.8062" y="-163.337" font-family="monaco" font-size="14.00" fill="#000000">ActorSubstate</text>
</g>
<!-- ActorState&#45;&gt;ActorSubstate -->
<g id="edge8" class="edge">
<title>ActorState&#45;&gt;ActorSubstate</title>
<path fill="none" stroke="#000000" d="M355.8062,-220.4554C355.8062,-211.8547 355.8062,-202.78 355.8062,-194.5262"/>
<polygon fill="#000000" stroke="#000000" points="359.3062,-194.2575 355.8062,-184.2575 352.3062,-194.2575 359.3062,-194.2575"/>
</g>
<!-- ActorSubState -->
<g id="node3" class="node">
<title>ActorSubState</title>
<path fill="none" stroke="#000000" d="M415.1973,-345.5671C415.1973,-345.5671 516.415,-345.5671 516.415,-345.5671 522.415,-345.5671 528.415,-351.5671 528.415,-357.5671 528.415,-357.5671 528.415,-384.2361 528.415,-384.2361 528.415,-390.2361 522.415,-396.2361 516.415,-396.2361 516.415,-396.2361 415.1973,-396.2361 415.1973,-396.2361 409.1973,-396.2361 403.1973,-390.2361 403.1973,-384.2361 403.1973,-384.2361 403.1973,-357.5671 403.1973,-357.5671 403.1973,-351.5671 409.1973,-345.5671 415.1973,-345.5671"/>
<text text-anchor="middle" x="465.8062" y="-381.0361" font-family="monaco" font-size="14.00" fill="#000000">ActorSubState</text>
<polyline fill="none" stroke="#000000" points="403.1973,-369.5671 528.415,-369.5671 "/>
</g>
<!-- InitActor -->
<g id="node4" class="node">
<title>InitActor</title>
<path fill="none" stroke="#000000" d="M12,-.5C12,-.5 79.6123,-.5 79.6123,-.5 85.6123,-.5 91.6123,-6.5 91.6123,-12.5 91.6123,-12.5 91.6123,-97.8447 91.6123,-97.8447 91.6123,-103.8447 85.6123,-109.8447 79.6123,-109.8447 79.6123,-109.8447 12,-109.8447 12,-109.8447 6,-109.8447 0,-103.8447 0,-97.8447 0,-97.8447 0,-12.5 0,-12.5 0,-6.5 6,-.5 12,-.5"/>
<text text-anchor="middle" x="45.8062" y="-94.6447" font-family="monaco" font-size="14.00" fill="#000000">InitActor</text>
<polyline fill="none" stroke="#000000" points="0,-83.1758 91.6123,-83.1758 "/>
<text text-anchor="middle" x="45.8062" y="-67.9758" font-family="monaco" font-size="14.00" fill="#000000">...</text>
<text text-anchor="middle" x="45.8062" y="-49.3068" font-family="monaco" font-size="14.00" fill="#000000">...</text>
<text text-anchor="middle" x="45.8062" y="-30.6379" font-family="monaco" font-size="14.00" fill="#000000">...</text>
<text text-anchor="middle" x="45.8062" y="-11.9689" font-family="monaco" font-size="14.00" fill="#000000">...</text>
</g>
<!-- CronActor -->
<g id="node5" class="node">
<title>CronActor</title>
<path fill="none" stroke="#000000" d="M122,-.5C122,-.5 189.6123,-.5 189.6123,-.5 195.6123,-.5 201.6123,-6.5 201.6123,-12.5 201.6123,-12.5 201.6123,-97.8447 201.6123,-97.8447 201.6123,-103.8447 195.6123,-109.8447 189.6123,-109.8447 189.6123,-109.8447 122,-109.8447 122,-109.8447 116,-109.8447 110,-103.8447 110,-97.8447 110,-97.8447 110,-12.5 110,-12.5 110,-6.5 116,-.5 122,-.5"/>
<text text-anchor="middle" x="155.8062" y="-94.6447" font-family="monaco" font-size="14.00" fill="#000000">CronActor</text>
<polyline fill="none" stroke="#000000" points="110,-83.1758 201.6123,-83.1758 "/>
<text text-anchor="middle" x="155.8062" y="-67.9758" font-family="monaco" font-size="14.00" fill="#000000">...</text>
<text text-anchor="middle" x="155.8062" y="-49.3068" font-family="monaco" font-size="14.00" fill="#000000">...</text>
<text text-anchor="middle" x="155.8062" y="-30.6379" font-family="monaco" font-size="14.00" fill="#000000">...</text>
<text text-anchor="middle" x="155.8062" y="-11.9689" font-family="monaco" font-size="14.00" fill="#000000">...</text>
</g>
<!-- AccountActor -->
<g id="node6" class="node">
<title>AccountActor</title>
<path fill="none" stroke="#000000" d="M231.3979,-.5C231.3979,-.5 324.2144,-.5 324.2144,-.5 330.2144,-.5 336.2144,-6.5 336.2144,-12.5 336.2144,-12.5 336.2144,-97.8447 336.2144,-97.8447 336.2144,-103.8447 330.2144,-109.8447 324.2144,-109.8447 324.2144,-109.8447 231.3979,-109.8447 231.3979,-109.8447 225.3979,-109.8447 219.3979,-103.8447 219.3979,-97.8447 219.3979,-97.8447 219.3979,-12.5 219.3979,-12.5 219.3979,-6.5 225.3979,-.5 231.3979,-.5"/>
<text text-anchor="middle" x="277.8062" y="-94.6447" font-family="monaco" font-size="14.00" fill="#000000">AccountActor</text>
<polyline fill="none" stroke="#000000" points="219.3979,-83.1758 336.2144,-83.1758 "/>
<text text-anchor="middle" x="277.8062" y="-67.9758" font-family="monaco" font-size="14.00" fill="#000000">...</text>
<text text-anchor="middle" x="277.8062" y="-49.3068" font-family="monaco" font-size="14.00" fill="#000000">...</text>
<text text-anchor="middle" x="277.8062" y="-30.6379" font-family="monaco" font-size="14.00" fill="#000000">...</text>
<text text-anchor="middle" x="277.8062" y="-11.9689" font-family="monaco" font-size="14.00" fill="#000000">...</text>
</g>
<!-- StorageMinerActor -->
<g id="node7" class="node">
<title>StorageMinerActor</title>
<path fill="none" stroke="#000000" d="M366.3945,-.5C366.3945,-.5 501.2178,-.5 501.2178,-.5 507.2178,-.5 513.2178,-6.5 513.2178,-12.5 513.2178,-12.5 513.2178,-97.8447 513.2178,-97.8447 513.2178,-103.8447 507.2178,-109.8447 501.2178,-109.8447 501.2178,-109.8447 366.3945,-109.8447 366.3945,-109.8447 360.3945,-109.8447 354.3945,-103.8447 354.3945,-97.8447 354.3945,-97.8447 354.3945,-12.5 354.3945,-12.5 354.3945,-6.5 360.3945,-.5 366.3945,-.5"/>
<text text-anchor="middle" x="433.8062" y="-94.6447" font-family="monaco" font-size="14.00" fill="#000000">StorageMinerActor</text>
<polyline fill="none" stroke="#000000" points="354.3945,-83.1758 513.2178,-83.1758 "/>
<text text-anchor="middle" x="433.8062" y="-67.9758" font-family="monaco" font-size="14.00" fill="#000000">...</text>
<text text-anchor="middle" x="433.8062" y="-49.3068" font-family="monaco" font-size="14.00" fill="#000000">...</text>
<text text-anchor="middle" x="433.8062" y="-30.6379" font-family="monaco" font-size="14.00" fill="#000000">...</text>
<text text-anchor="middle" x="433.8062" y="-11.9689" font-family="monaco" font-size="14.00" fill="#000000">...</text>
</g>
<!-- StoragePowerActor -->
<g id="node8" class="node">
<title>StoragePowerActor</title>
<path fill="none" stroke="#000000" d="M543.3945,-.5C543.3945,-.5 678.2178,-.5 678.2178,-.5 684.2178,-.5 690.2178,-6.5 690.2178,-12.5 690.2178,-12.5 690.2178,-97.8447 690.2178,-97.8447 690.2178,-103.8447 684.2178,-109.8447 678.2178,-109.8447 678.2178,-109.8447 543.3945,-109.8447 543.3945,-109.8447 537.3945,-109.8447 531.3945,-103.8447 531.3945,-97.8447 531.3945,-97.8447 531.3945,-12.5 531.3945,-12.5 531.3945,-6.5 537.3945,-.5 543.3945,-.5"/>
<text text-anchor="middle" x="610.8062" y="-94.6447" font-family="monaco" font-size="14.00" fill="#000000">StoragePowerActor</text>
<polyline fill="none" stroke="#000000" points="531.3945,-83.1758 690.2178,-83.1758 "/>
<text text-anchor="middle" x="610.8062" y="-67.9758" font-family="monaco" font-size="14.00" fill="#000000">...</text>
<text text-anchor="middle" x="610.8062" y="-49.3068" font-family="monaco" font-size="14.00" fill="#000000">...</text>
<text text-anchor="middle" x="610.8062" y="-30.6379" font-family="monaco" font-size="14.00" fill="#000000">...</text>
<text text-anchor="middle" x="610.8062" y="-11.9689" font-family="monaco" font-size="14.00" fill="#000000">...</text>
</g>
<!-- PaymentChannelActor -->
<g id="node9" class="node">
<title>PaymentChannelActor</title>
<path fill="none" stroke="#000000" d="M719.9932,-.5C719.9932,-.5 871.6191,-.5 871.6191,-.5 877.6191,-.5 883.6191,-6.5 883.6191,-12.5 883.6191,-12.5 883.6191,-97.8447 883.6191,-97.8447 883.6191,-103.8447 877.6191,-109.8447 871.6191,-109.8447 871.6191,-109.8447 719.9932,-109.8447 719.9932,-109.8447 713.9932,-109.8447 707.9932,-103.8447 707.9932,-97.8447 707.9932,-97.8447 707.9932,-12.5 707.9932,-12.5 707.9932,-6.5 713.9932,-.5 719.9932,-.5"/>
<text text-anchor="middle" x="795.8062" y="-94.6447" font-family="monaco" font-size="14.00" fill="#000000">PaymentChannelActor</text>
<polyline fill="none" stroke="#000000" points="707.9932,-83.1758 883.6191,-83.1758 "/>
<text text-anchor="middle" x="795.8062" y="-67.9758" font-family="monaco" font-size="14.00" fill="#000000">...</text>
<text text-anchor="middle" x="795.8062" y="-49.3068" font-family="monaco" font-size="14.00" fill="#000000">...</text>
<text text-anchor="middle" x="795.8062" y="-30.6379" font-family="monaco" font-size="14.00" fill="#000000">...</text>
<text text-anchor="middle" x="795.8062" y="-11.9689" font-family="monaco" font-size="14.00" fill="#000000">...</text>
</g>
<!-- ActorSubstate&#45;&gt;InitActor -->
<g id="edge1" class="edge">
<title>ActorSubstate&#45;&gt;InitActor</title>
<path fill="none" stroke="#000000" stroke-dasharray="5,2" d="M283.361,-154.3236C219.4399,-143.8779 131.7634,-127.2339 100.8062,-110.3447 100.6132,-110.2395 100.4205,-110.1333 100.2281,-110.0263"/>
<polygon fill="#000000" stroke="#000000" points="102.0694,-107.0497 91.7441,-104.6748 98.3347,-112.9702 102.0694,-107.0497"/>
</g>
<!-- ActorSubstate&#45;&gt;CronActor -->
<g id="edge2" class="edge">
<title>ActorSubstate&#45;&gt;CronActor</title>
<path fill="none" stroke="#000000" stroke-dasharray="5,2" d="M300.5241,-150.3981C272.3172,-141.3696 238.2612,-128.1105 210.8062,-110.3447 210.5187,-110.1587 210.2316,-109.971 209.9448,-109.7817"/>
<polygon fill="#000000" stroke="#000000" points="211.8996,-106.8763 201.74,-103.8706 207.8078,-112.5558 211.8996,-106.8763"/>
</g>
<!-- ActorSubstate&#45;&gt;AccountActor -->
<g id="edge3" class="edge">
<title>ActorSubstate&#45;&gt;AccountActor</title>
<path fill="none" stroke="#000000" stroke-dasharray="5,2" d="M342.5745,-146.5374C336.8814,-138.5064 329.8622,-128.6048 322.568,-118.3154"/>
<polygon fill="#000000" stroke="#000000" points="325.318,-116.1426 316.6794,-110.0086 319.6073,-120.1909 325.318,-116.1426"/>
</g>
<!-- ActorSubstate&#45;&gt;StorageMinerActor -->
<g id="edge4" class="edge">
<title>ActorSubstate&#45;&gt;StorageMinerActor</title>
<path fill="none" stroke="#000000" stroke-dasharray="5,2" d="M369.0378,-146.5374C374.7309,-138.5064 381.7501,-128.6048 389.0443,-118.3154"/>
<polygon fill="#000000" stroke="#000000" points="392.005,-120.1909 394.9329,-110.0086 386.2943,-116.1426 392.005,-120.1909"/>
</g>
<!-- ActorSubstate&#45;&gt;StoragePowerActor -->
<g id="edge5" class="edge">
<title>ActorSubstate&#45;&gt;StoragePowerActor</title>
<path fill="none" stroke="#000000" stroke-dasharray="5,2" d="M411.2608,-150.4429C444.1335,-140.8247 486.1945,-126.9819 521.8062,-110.3447 521.9039,-110.299 522.0018,-110.2533 522.0996,-110.2074"/>
<polygon fill="#000000" stroke="#000000" points="523.8137,-113.2651 531.2506,-105.7189 520.7311,-106.9804 523.8137,-113.2651"/>
</g>
<!-- ActorSubstate&#45;&gt;PaymentChannelActor -->
<g id="edge6" class="edge">
<title>ActorSubstate&#45;&gt;PaymentChannelActor</title>
<path fill="none" stroke="#000000" stroke-dasharray="5,2" d="M441.0498,-160.0734C509.3285,-154.0404 607.076,-141.0575 698.2308,-110.2433"/>
<polygon fill="#000000" stroke="#000000" points="699.5761,-113.4815 707.8822,-106.9043 697.2874,-106.8662 699.5761,-113.4815"/>
</g>
</g>
</svg>
<?xml version="1.0" encoding="UTF-8" standalone="no"?>
<!DOCTYPE svg PUBLIC "-//W3C//DTD SVG 1.1//EN"
 "http://www.w3.org/Graphics/SVG/1.1/DTD/svg11.dtd">
<!-- Generated by graphviz version 2.40.1 (20161225.0304)
 -->
<!-- Title: Actors2 Pages: 1 -->
<svg width="1086pt" height="238pt"
 viewBox="0.00 0.00 1085.63 238.01" xmlns="http://www.w3.org/2000/svg" xmlns:xlink="http://www.w3.org/1999/xlink">
<g id="page0,1_graph0" class="graph" transform="scale(1 1) rotate(0) translate(4 234.0137)">
<title>Actors2</title>
<polygon fill="#ffffff" stroke="transparent" points="-4,4 -4,-234.0137 1081.626,-234.0137 1081.626,4 -4,4"/>
<!-- Actor -->
<g id="node1" class="node">
<title>Actor</title>
<path fill="none" stroke="#000000" d="M454.8096,-146.8447C454.8096,-146.8447 488.8164,-146.8447 488.8164,-146.8447 494.8164,-146.8447 500.8164,-152.8447 500.8164,-158.8447 500.8164,-158.8447 500.8164,-217.5137 500.8164,-217.5137 500.8164,-223.5137 494.8164,-229.5137 488.8164,-229.5137 488.8164,-229.5137 454.8096,-229.5137 454.8096,-229.5137 448.8096,-229.5137 442.8096,-223.5137 442.8096,-217.5137 442.8096,-217.5137 442.8096,-158.8447 442.8096,-158.8447 442.8096,-152.8447 448.8096,-146.8447 454.8096,-146.8447"/>
<text text-anchor="middle" x="471.813" y="-214.3137" font-family="monaco" font-size="14.00" fill="#000000">Actor</text>
<polyline fill="none" stroke="#000000" points="442.8096,-202.8447 500.8164,-202.8447 "/>
</g>
<!-- ActorState -->
<g id="node2" class="node">
<title>ActorState</title>
<path fill="none" stroke="#000000" d="M12,-19.1689C12,-19.1689 163.626,-19.1689 163.626,-19.1689 169.626,-19.1689 175.626,-25.1689 175.626,-31.1689 175.626,-31.1689 175.626,-79.1758 175.626,-79.1758 175.626,-85.1758 169.626,-91.1758 163.626,-91.1758 163.626,-91.1758 12,-91.1758 12,-91.1758 6,-91.1758 0,-85.1758 0,-79.1758 0,-79.1758 0,-31.1689 0,-31.1689 0,-25.1689 6,-19.1689 12,-19.1689"/>
<text text-anchor="middle" x="87.813" y="-75.9758" font-family="monaco" font-size="14.00" fill="#000000">ActorState</text>
<polyline fill="none" stroke="#000000" points="0,-64.5068 175.626,-64.5068 "/>
<text text-anchor="middle" x="87.813" y="-49.3068" font-family="monaco" font-size="14.00" fill="#000000">Balance TokenAmount</text>
<text text-anchor="middle" x="87.813" y="-30.6379" font-family="monaco" font-size="14.00" fill="#000000"> SeqNo CallSeqNo</text>
</g>
<!-- Actor&#45;&gt;ActorState -->
<g id="edge7" class="edge">
<title>Actor&#45;&gt;ActorState</title>
<path fill="none" stroke="#000000" d="M442.504,-182.7806C389.6653,-172.4946 275.5002,-147.7273 184.813,-110.3447 174.802,-106.2181 164.5388,-101.2635 154.6107,-96.0393"/>
<polygon fill="#000000" stroke="#000000" points="156.067,-92.8482 145.6041,-91.1817 152.7441,-99.0092 156.067,-92.8482"/>
</g>
<!-- InitActor -->
<g id="node3" class="node">
<title>InitActor</title>
<path fill="none" stroke="#000000" d="M206.0068,-.5C206.0068,-.5 273.6191,-.5 273.6191,-.5 279.6191,-.5 285.6191,-6.5 285.6191,-12.5 285.6191,-12.5 285.6191,-97.8447 285.6191,-97.8447 285.6191,-103.8447 279.6191,-109.8447 273.6191,-109.8447 273.6191,-109.8447 206.0068,-109.8447 206.0068,-109.8447 200.0068,-109.8447 194.0068,-103.8447 194.0068,-97.8447 194.0068,-97.8447 194.0068,-12.5 194.0068,-12.5 194.0068,-6.5 200.0068,-.5 206.0068,-.5"/>
<text text-anchor="middle" x="239.813" y="-94.6447" font-family="monaco" font-size="14.00" fill="#000000">InitActor</text>
<polyline fill="none" stroke="#000000" points="194.0068,-83.1758 285.6191,-83.1758 "/>
<text text-anchor="middle" x="239.813" y="-67.9758" font-family="monaco" font-size="14.00" fill="#000000">...</text>
<text text-anchor="middle" x="239.813" y="-49.3068" font-family="monaco" font-size="14.00" fill="#000000">...</text>
<text text-anchor="middle" x="239.813" y="-30.6379" font-family="monaco" font-size="14.00" fill="#000000">...</text>
<text text-anchor="middle" x="239.813" y="-11.9689" font-family="monaco" font-size="14.00" fill="#000000">...</text>
</g>
<!-- Actor&#45;&gt;InitActor -->
<g id="edge1" class="edge">
<title>Actor&#45;&gt;InitActor</title>
<path fill="none" stroke="#000000" stroke-dasharray="5,2" d="M442.5339,-179.0782C405.973,-166.895 342.4464,-142.9764 294.813,-110.3447 294.5306,-110.1512 294.2483,-109.9562 293.9663,-109.7596"/>
<polygon fill="#000000" stroke="#000000" points="295.9716,-106.8885 285.8747,-103.6787 291.7662,-112.4844 295.9716,-106.8885"/>
</g>
<!-- CronActor -->
<g id="node4" class="node">
<title>CronActor</title>
<path fill="none" stroke="#000000" d="M316.0068,-.5C316.0068,-.5 383.6191,-.5 383.6191,-.5 389.6191,-.5 395.6191,-6.5 395.6191,-12.5 395.6191,-12.5 395.6191,-97.8447 395.6191,-97.8447 395.6191,-103.8447 389.6191,-109.8447 383.6191,-109.8447 383.6191,-109.8447 316.0068,-109.8447 316.0068,-109.8447 310.0068,-109.8447 304.0068,-103.8447 304.0068,-97.8447 304.0068,-97.8447 304.0068,-12.5 304.0068,-12.5 304.0068,-6.5 310.0068,-.5 316.0068,-.5"/>
<text text-anchor="middle" x="349.813" y="-94.6447" font-family="monaco" font-size="14.00" fill="#000000">CronActor</text>
<polyline fill="none" stroke="#000000" points="304.0068,-83.1758 395.6191,-83.1758 "/>
<text text-anchor="middle" x="349.813" y="-67.9758" font-family="monaco" font-size="14.00" fill="#000000">...</text>
<text text-anchor="middle" x="349.813" y="-49.3068" font-family="monaco" font-size="14.00" fill="#000000">...</text>
<text text-anchor="middle" x="349.813" y="-30.6379" font-family="monaco" font-size="14.00" fill="#000000">...</text>
<text text-anchor="middle" x="349.813" y="-11.9689" font-family="monaco" font-size="14.00" fill="#000000">...</text>
</g>
<!-- Actor&#45;&gt;CronActor -->
<g id="edge2" class="edge">
<title>Actor&#45;&gt;CronActor</title>
<path fill="none" stroke="#000000" stroke-dasharray="5,2" d="M442.5909,-156.3207C430.6451,-143.2971 416.4433,-127.8141 402.7876,-112.9264"/>
<polygon fill="#000000" stroke="#000000" points="405.0501,-110.2151 395.7112,-105.2115 399.8915,-114.9468 405.0501,-110.2151"/>
</g>
<!-- AccountActor -->
<g id="node5" class="node">
<title>AccountActor</title>
<path fill="none" stroke="#000000" d="M425.4048,-.5C425.4048,-.5 518.2212,-.5 518.2212,-.5 524.2212,-.5 530.2212,-6.5 530.2212,-12.5 530.2212,-12.5 530.2212,-97.8447 530.2212,-97.8447 530.2212,-103.8447 524.2212,-109.8447 518.2212,-109.8447 518.2212,-109.8447 425.4048,-109.8447 425.4048,-109.8447 419.4048,-109.8447 413.4048,-103.8447 413.4048,-97.8447 413.4048,-97.8447 413.4048,-12.5 413.4048,-12.5 413.4048,-6.5 419.4048,-.5 425.4048,-.5"/>
<text text-anchor="middle" x="471.813" y="-94.6447" font-family="monaco" font-size="14.00" fill="#000000">AccountActor</text>
<polyline fill="none" stroke="#000000" points="413.4048,-83.1758 530.2212,-83.1758 "/>
<text text-anchor="middle" x="471.813" y="-67.9758" font-family="monaco" font-size="14.00" fill="#000000">...</text>
<text text-anchor="middle" x="471.813" y="-49.3068" font-family="monaco" font-size="14.00" fill="#000000">...</text>
<text text-anchor="middle" x="471.813" y="-30.6379" font-family="monaco" font-size="14.00" fill="#000000">...</text>
<text text-anchor="middle" x="471.813" y="-11.9689" font-family="monaco" font-size="14.00" fill="#000000">...</text>
</g>
<!-- Actor&#45;&gt;AccountActor -->
<g id="edge3" class="edge">
<title>Actor&#45;&gt;AccountActor</title>
<path fill="none" stroke="#000000" stroke-dasharray="5,2" d="M471.813,-146.8241C471.813,-138.4023 471.813,-129.3494 471.813,-120.3296"/>
<polygon fill="#000000" stroke="#000000" points="475.3131,-120.1954 471.813,-110.1954 468.3131,-120.1954 475.3131,-120.1954"/>
</g>
<!-- StorageMinerActor -->
<g id="node6" class="node">
<title>StorageMinerActor</title>
<path fill="none" stroke="#000000" d="M560.4014,-.5C560.4014,-.5 695.2246,-.5 695.2246,-.5 701.2246,-.5 707.2246,-6.5 707.2246,-12.5 707.2246,-12.5 707.2246,-97.8447 707.2246,-97.8447 707.2246,-103.8447 701.2246,-109.8447 695.2246,-109.8447 695.2246,-109.8447 560.4014,-109.8447 560.4014,-109.8447 554.4014,-109.8447 548.4014,-103.8447 548.4014,-97.8447 548.4014,-97.8447 548.4014,-12.5 548.4014,-12.5 548.4014,-6.5 554.4014,-.5 560.4014,-.5"/>
<text text-anchor="middle" x="627.813" y="-94.6447" font-family="monaco" font-size="14.00" fill="#000000">StorageMinerActor</text>
<polyline fill="none" stroke="#000000" points="548.4014,-83.1758 707.2246,-83.1758 "/>
<text text-anchor="middle" x="627.813" y="-67.9758" font-family="monaco" font-size="14.00" fill="#000000">...</text>
<text text-anchor="middle" x="627.813" y="-49.3068" font-family="monaco" font-size="14.00" fill="#000000">...</text>
<text text-anchor="middle" x="627.813" y="-30.6379" font-family="monaco" font-size="14.00" fill="#000000">...</text>
<text text-anchor="middle" x="627.813" y="-11.9689" font-family="monaco" font-size="14.00" fill="#000000">...</text>
</g>
<!-- Actor&#45;&gt;StorageMinerActor -->
<g id="edge4" class="edge">
<title>Actor&#45;&gt;StorageMinerActor</title>
<path fill="none" stroke="#000000" stroke-dasharray="5,2" d="M501.1554,-163.1616C516.661,-149.9414 536.4378,-133.0796 555.7292,-116.6315"/>
<polygon fill="#000000" stroke="#000000" points="558.0361,-119.2642 563.3749,-110.1128 553.4945,-113.9375 558.0361,-119.2642"/>
</g>
<!-- StoragePowerActor -->
<g id="node7" class="node">
<title>StoragePowerActor</title>
<path fill="none" stroke="#000000" d="M737.4014,-.5C737.4014,-.5 872.2246,-.5 872.2246,-.5 878.2246,-.5 884.2246,-6.5 884.2246,-12.5 884.2246,-12.5 884.2246,-97.8447 884.2246,-97.8447 884.2246,-103.8447 878.2246,-109.8447 872.2246,-109.8447 872.2246,-109.8447 737.4014,-109.8447 737.4014,-109.8447 731.4014,-109.8447 725.4014,-103.8447 725.4014,-97.8447 725.4014,-97.8447 725.4014,-12.5 725.4014,-12.5 725.4014,-6.5 731.4014,-.5 737.4014,-.5"/>
<text text-anchor="middle" x="804.813" y="-94.6447" font-family="monaco" font-size="14.00" fill="#000000">StoragePowerActor</text>
<polyline fill="none" stroke="#000000" points="725.4014,-83.1758 884.2246,-83.1758 "/>
<text text-anchor="middle" x="804.813" y="-67.9758" font-family="monaco" font-size="14.00" fill="#000000">...</text>
<text text-anchor="middle" x="804.813" y="-49.3068" font-family="monaco" font-size="14.00" fill="#000000">...</text>
<text text-anchor="middle" x="804.813" y="-30.6379" font-family="monaco" font-size="14.00" fill="#000000">...</text>
<text text-anchor="middle" x="804.813" y="-11.9689" font-family="monaco" font-size="14.00" fill="#000000">...</text>
</g>
<!-- Actor&#45;&gt;StoragePowerActor -->
<g id="edge5" class="edge">
<title>Actor&#45;&gt;StoragePowerActor</title>
<path fill="none" stroke="#000000" stroke-dasharray="5,2" d="M500.8463,-181.3916C547.4585,-169.9536 641.3085,-144.6821 715.813,-110.3447 715.911,-110.2995 716.0091,-110.2543 716.1072,-110.2089"/>
<polygon fill="#000000" stroke="#000000" points="717.8071,-113.2744 725.2768,-105.7608 714.7519,-106.9763 717.8071,-113.2744"/>
</g>
<!-- PaymentChannelActor -->
<g id="node8" class="node">
<title>PaymentChannelActor</title>
<path fill="none" stroke="#000000" d="M914,-.5C914,-.5 1065.626,-.5 1065.626,-.5 1071.626,-.5 1077.626,-6.5 1077.626,-12.5 1077.626,-12.5 1077.626,-97.8447 1077.626,-97.8447 1077.626,-103.8447 1071.626,-109.8447 1065.626,-109.8447 1065.626,-109.8447 914,-109.8447 914,-109.8447 908,-109.8447 902,-103.8447 902,-97.8447 902,-97.8447 902,-12.5 902,-12.5 902,-6.5 908,-.5 914,-.5"/>
<text text-anchor="middle" x="989.813" y="-94.6447" font-family="monaco" font-size="14.00" fill="#000000">PaymentChannelActor</text>
<polyline fill="none" stroke="#000000" points="902,-83.1758 1077.626,-83.1758 "/>
<text text-anchor="middle" x="989.813" y="-67.9758" font-family="monaco" font-size="14.00" fill="#000000">...</text>
<text text-anchor="middle" x="989.813" y="-49.3068" font-family="monaco" font-size="14.00" fill="#000000">...</text>
<text text-anchor="middle" x="989.813" y="-30.6379" font-family="monaco" font-size="14.00" fill="#000000">...</text>
<text text-anchor="middle" x="989.813" y="-11.9689" font-family="monaco" font-size="14.00" fill="#000000">...</text>
</g>
<!-- Actor&#45;&gt;PaymentChannelActor -->
<g id="edge6" class="edge">
<title>Actor&#45;&gt;PaymentChannelActor</title>
<path fill="none" stroke="#000000" stroke-dasharray="5,2" d="M501.0211,-186.1433C569.2429,-180.6909 743.8762,-162.687 892.1291,-110.3087"/>
<polygon fill="#000000" stroke="#000000" points="893.6307,-113.4881 901.8547,-106.8086 891.2603,-106.9016 893.6307,-113.4881"/>
</g>
</g>
</svg>
