<?xml version="1.0" encoding="UTF-8" standalone="no"?>
<!DOCTYPE svg PUBLIC "-//W3C//DTD SVG 1.1//EN"
 "http://www.w3.org/Graphics/SVG/1.1/DTD/svg11.dtd">
<!-- Generated by graphviz version 2.40.1 (20161225.0304)
 -->
<!-- Title: Actors2 Pages: 1 -->
<svg width="1086pt" height="238pt"
 viewBox="0.00 0.00 1085.63 238.01" xmlns="http://www.w3.org/2000/svg" xmlns:xlink="http://www.w3.org/1999/xlink">
<g id="graph0" class="graph" transform="scale(1 1) rotate(0) translate(4 234.0137)">
<title>Actors2</title>
<polygon fill="#ffffff" stroke="transparent" points="-4,4 -4,-234.0137 1081.626,-234.0137 1081.626,4 -4,4"/>
<!-- Actor -->
<g id="node1" class="node">
<title>Actor</title>
<path fill="none" stroke="#000000" d="M454.8096,-146.8447C454.8096,-146.8447 488.8164,-146.8447 488.8164,-146.8447 494.8164,-146.8447 500.8164,-152.8447 500.8164,-158.8447 500.8164,-158.8447 500.8164,-217.5137 500.8164,-217.5137 500.8164,-223.5137 494.8164,-229.5137 488.8164,-229.5137 488.8164,-229.5137 454.8096,-229.5137 454.8096,-229.5137 448.8096,-229.5137 442.8096,-223.5137 442.8096,-217.5137 442.8096,-217.5137 442.8096,-158.8447 442.8096,-158.8447 442.8096,-152.8447 448.8096,-146.8447 454.8096,-146.8447"/>
<text text-anchor="middle" x="471.813" y="-214.3137" font-family="monaco" font-size="14.00" fill="#000000">Actor</text>
<polyline fill="none" stroke="#000000" points="442.8096,-202.8447 500.8164,-202.8447 "/>
</g>
<!-- ActorState -->
<g id="node2" class="node">
<title>ActorState</title>
<path fill="none" stroke="#000000" d="M12,-19.1689C12,-19.1689 163.626,-19.1689 163.626,-19.1689 169.626,-19.1689 175.626,-25.1689 175.626,-31.1689 175.626,-31.1689 175.626,-79.1758 175.626,-79.1758 175.626,-85.1758 169.626,-91.1758 163.626,-91.1758 163.626,-91.1758 12,-91.1758 12,-91.1758 6,-91.1758 0,-85.1758 0,-79.1758 0,-79.1758 0,-31.1689 0,-31.1689 0,-25.1689 6,-19.1689 12,-19.1689"/>
<text text-anchor="middle" x="87.813" y="-75.9758" font-family="monaco" font-size="14.00" fill="#000000">ActorState</text>
<polyline fill="none" stroke="#000000" points="0,-64.5068 175.626,-64.5068 "/>
<text text-anchor="middle" x="87.813" y="-49.3068" font-family="monaco" font-size="14.00" fill="#000000">Balance TokenAmount</text>
<text text-anchor="middle" x="87.813" y="-30.6379" font-family="monaco" font-size="14.00" fill="#000000"> SeqNo CallSeqNo</text>
</g>
<!-- Actor&#45;&gt;ActorState -->
<g id="edge7" class="edge">
<title>Actor&#45;&gt;ActorState</title>
<path fill="none" stroke="#000000" d="M442.504,-182.7806C389.6653,-172.4946 275.5002,-147.7273 184.813,-110.3447 174.802,-106.2181 164.5388,-101.2635 154.6107,-96.0393"/>
<polygon fill="#000000" stroke="#000000" points="156.067,-92.8482 145.6041,-91.1817 152.7441,-99.0092 156.067,-92.8482"/>
</g>
<!-- InitActor -->
<g id="node3" class="node">
<title>InitActor</title>
<path fill="none" stroke="#000000" d="M206.0068,-.5C206.0068,-.5 273.6191,-.5 273.6191,-.5 279.6191,-.5 285.6191,-6.5 285.6191,-12.5 285.6191,-12.5 285.6191,-97.8447 285.6191,-97.8447 285.6191,-103.8447 279.6191,-109.8447 273.6191,-109.8447 273.6191,-109.8447 206.0068,-109.8447 206.0068,-109.8447 200.0068,-109.8447 194.0068,-103.8447 194.0068,-97.8447 194.0068,-97.8447 194.0068,-12.5 194.0068,-12.5 194.0068,-6.5 200.0068,-.5 206.0068,-.5"/>
<text text-anchor="middle" x="239.813" y="-94.6447" font-family="monaco" font-size="14.00" fill="#000000">InitActor</text>
<polyline fill="none" stroke="#000000" points="194.0068,-83.1758 285.6191,-83.1758 "/>
<text text-anchor="middle" x="239.813" y="-67.9758" font-family="monaco" font-size="14.00" fill="#000000">...</text>
<text text-anchor="middle" x="239.813" y="-49.3068" font-family="monaco" font-size="14.00" fill="#000000">...</text>
<text text-anchor="middle" x="239.813" y="-30.6379" font-family="monaco" font-size="14.00" fill="#000000">...</text>
<text text-anchor="middle" x="239.813" y="-11.9689" font-family="monaco" font-size="14.00" fill="#000000">...</text>
</g>
<!-- Actor&#45;&gt;InitActor -->
<g id="edge1" class="edge">
<title>Actor&#45;&gt;InitActor</title>
<path fill="none" stroke="#000000" stroke-dasharray="5,2" d="M442.5339,-179.0782C405.973,-166.895 342.4464,-142.9764 294.813,-110.3447 294.5306,-110.1512 294.2483,-109.9562 293.9663,-109.7596"/>
<polygon fill="#000000" stroke="#000000" points="295.9716,-106.8885 285.8747,-103.6787 291.7662,-112.4844 295.9716,-106.8885"/>
</g>
<!-- CronActor -->
<g id="node4" class="node">
<title>CronActor</title>
<path fill="none" stroke="#000000" d="M316.0068,-.5C316.0068,-.5 383.6191,-.5 383.6191,-.5 389.6191,-.5 395.6191,-6.5 395.6191,-12.5 395.6191,-12.5 395.6191,-97.8447 395.6191,-97.8447 395.6191,-103.8447 389.6191,-109.8447 383.6191,-109.8447 383.6191,-109.8447 316.0068,-109.8447 316.0068,-109.8447 310.0068,-109.8447 304.0068,-103.8447 304.0068,-97.8447 304.0068,-97.8447 304.0068,-12.5 304.0068,-12.5 304.0068,-6.5 310.0068,-.5 316.0068,-.5"/>
<text text-anchor="middle" x="349.813" y="-94.6447" font-family="monaco" font-size="14.00" fill="#000000">CronActor</text>
<polyline fill="none" stroke="#000000" points="304.0068,-83.1758 395.6191,-83.1758 "/>
<text text-anchor="middle" x="349.813" y="-67.9758" font-family="monaco" font-size="14.00" fill="#000000">...</text>
<text text-anchor="middle" x="349.813" y="-49.3068" font-family="monaco" font-size="14.00" fill="#000000">...</text>
<text text-anchor="middle" x="349.813" y="-30.6379" font-family="monaco" font-size="14.00" fill="#000000">...</text>
<text text-anchor="middle" x="349.813" y="-11.9689" font-family="monaco" font-size="14.00" fill="#000000">...</text>
</g>
<!-- Actor&#45;&gt;CronActor -->
<g id="edge2" class="edge">
<title>Actor&#45;&gt;CronActor</title>
<path fill="none" stroke="#000000" stroke-dasharray="5,2" d="M442.5909,-156.3207C430.6451,-143.2971 416.4433,-127.8141 402.7876,-112.9264"/>
<polygon fill="#000000" stroke="#000000" points="405.0501,-110.2151 395.7112,-105.2115 399.8915,-114.9468 405.0501,-110.2151"/>
</g>
<!-- AccountActor -->
<g id="node5" class="node">
<title>AccountActor</title>
<path fill="none" stroke="#000000" d="M425.4048,-.5C425.4048,-.5 518.2212,-.5 518.2212,-.5 524.2212,-.5 530.2212,-6.5 530.2212,-12.5 530.2212,-12.5 530.2212,-97.8447 530.2212,-97.8447 530.2212,-103.8447 524.2212,-109.8447 518.2212,-109.8447 518.2212,-109.8447 425.4048,-109.8447 425.4048,-109.8447 419.4048,-109.8447 413.4048,-103.8447 413.4048,-97.8447 413.4048,-97.8447 413.4048,-12.5 413.4048,-12.5 413.4048,-6.5 419.4048,-.5 425.4048,-.5"/>
<text text-anchor="middle" x="471.813" y="-94.6447" font-family="monaco" font-size="14.00" fill="#000000">AccountActor</text>
<polyline fill="none" stroke="#000000" points="413.4048,-83.1758 530.2212,-83.1758 "/>
<text text-anchor="middle" x="471.813" y="-67.9758" font-family="monaco" font-size="14.00" fill="#000000">...</text>
<text text-anchor="middle" x="471.813" y="-49.3068" font-family="monaco" font-size="14.00" fill="#000000">...</text>
<text text-anchor="middle" x="471.813" y="-30.6379" font-family="monaco" font-size="14.00" fill="#000000">...</text>
<text text-anchor="middle" x="471.813" y="-11.9689" font-family="monaco" font-size="14.00" fill="#000000">...</text>
</g>
<!-- Actor&#45;&gt;AccountActor -->
<g id="edge3" class="edge">
<title>Actor&#45;&gt;AccountActor</title>
<path fill="none" stroke="#000000" stroke-dasharray="5,2" d="M471.813,-146.8241C471.813,-138.4023 471.813,-129.3494 471.813,-120.3296"/>
<polygon fill="#000000" stroke="#000000" points="475.3131,-120.1954 471.813,-110.1954 468.3131,-120.1954 475.3131,-120.1954"/>
</g>
<!-- StorageMinerActor -->
<g id="node6" class="node">
<title>StorageMinerActor</title>
<path fill="none" stroke="#000000" d="M560.4014,-.5C560.4014,-.5 695.2246,-.5 695.2246,-.5 701.2246,-.5 707.2246,-6.5 707.2246,-12.5 707.2246,-12.5 707.2246,-97.8447 707.2246,-97.8447 707.2246,-103.8447 701.2246,-109.8447 695.2246,-109.8447 695.2246,-109.8447 560.4014,-109.8447 560.4014,-109.8447 554.4014,-109.8447 548.4014,-103.8447 548.4014,-97.8447 548.4014,-97.8447 548.4014,-12.5 548.4014,-12.5 548.4014,-6.5 554.4014,-.5 560.4014,-.5"/>
<text text-anchor="middle" x="627.813" y="-94.6447" font-family="monaco" font-size="14.00" fill="#000000">StorageMinerActor</text>
<polyline fill="none" stroke="#000000" points="548.4014,-83.1758 707.2246,-83.1758 "/>
<text text-anchor="middle" x="627.813" y="-67.9758" font-family="monaco" font-size="14.00" fill="#000000">...</text>
<text text-anchor="middle" x="627.813" y="-49.3068" font-family="monaco" font-size="14.00" fill="#000000">...</text>
<text text-anchor="middle" x="627.813" y="-30.6379" font-family="monaco" font-size="14.00" fill="#000000">...</text>
<text text-anchor="middle" x="627.813" y="-11.9689" font-family="monaco" font-size="14.00" fill="#000000">...</text>
</g>
<!-- Actor&#45;&gt;StorageMinerActor -->
<g id="edge4" class="edge">
<title>Actor&#45;&gt;StorageMinerActor</title>
<path fill="none" stroke="#000000" stroke-dasharray="5,2" d="M501.1554,-163.1616C516.661,-149.9414 536.4378,-133.0796 555.7292,-116.6315"/>
<polygon fill="#000000" stroke="#000000" points="558.0361,-119.2642 563.3749,-110.1128 553.4945,-113.9375 558.0361,-119.2642"/>
</g>
<!-- StoragePowerActor -->
<g id="node7" class="node">
<title>StoragePowerActor</title>
<path fill="none" stroke="#000000" d="M737.4014,-.5C737.4014,-.5 872.2246,-.5 872.2246,-.5 878.2246,-.5 884.2246,-6.5 884.2246,-12.5 884.2246,-12.5 884.2246,-97.8447 884.2246,-97.8447 884.2246,-103.8447 878.2246,-109.8447 872.2246,-109.8447 872.2246,-109.8447 737.4014,-109.8447 737.4014,-109.8447 731.4014,-109.8447 725.4014,-103.8447 725.4014,-97.8447 725.4014,-97.8447 725.4014,-12.5 725.4014,-12.5 725.4014,-6.5 731.4014,-.5 737.4014,-.5"/>
<text text-anchor="middle" x="804.813" y="-94.6447" font-family="monaco" font-size="14.00" fill="#000000">StoragePowerActor</text>
<polyline fill="none" stroke="#000000" points="725.4014,-83.1758 884.2246,-83.1758 "/>
<text text-anchor="middle" x="804.813" y="-67.9758" font-family="monaco" font-size="14.00" fill="#000000">...</text>
<text text-anchor="middle" x="804.813" y="-49.3068" font-family="monaco" font-size="14.00" fill="#000000">...</text>
<text text-anchor="middle" x="804.813" y="-30.6379" font-family="monaco" font-size="14.00" fill="#000000">...</text>
<text text-anchor="middle" x="804.813" y="-11.9689" font-family="monaco" font-size="14.00" fill="#000000">...</text>
</g>
<!-- Actor&#45;&gt;StoragePowerActor -->
<g id="edge5" class="edge">
<title>Actor&#45;&gt;StoragePowerActor</title>
<path fill="none" stroke="#000000" stroke-dasharray="5,2" d="M500.8463,-181.3916C547.4585,-169.9536 641.3085,-144.6821 715.813,-110.3447 715.911,-110.2995 716.0091,-110.2543 716.1072,-110.2089"/>
<polygon fill="#000000" stroke="#000000" points="717.8071,-113.2744 725.2768,-105.7608 714.7519,-106.9763 717.8071,-113.2744"/>
</g>
<!-- PaymentChannelActor -->
<g id="node8" class="node">
<title>PaymentChannelActor</title>
<path fill="none" stroke="#000000" d="M914,-.5C914,-.5 1065.626,-.5 1065.626,-.5 1071.626,-.5 1077.626,-6.5 1077.626,-12.5 1077.626,-12.5 1077.626,-97.8447 1077.626,-97.8447 1077.626,-103.8447 1071.626,-109.8447 1065.626,-109.8447 1065.626,-109.8447 914,-109.8447 914,-109.8447 908,-109.8447 902,-103.8447 902,-97.8447 902,-97.8447 902,-12.5 902,-12.5 902,-6.5 908,-.5 914,-.5"/>
<text text-anchor="middle" x="989.813" y="-94.6447" font-family="monaco" font-size="14.00" fill="#000000">PaymentChannelActor</text>
<polyline fill="none" stroke="#000000" points="902,-83.1758 1077.626,-83.1758 "/>
<text text-anchor="middle" x="989.813" y="-67.9758" font-family="monaco" font-size="14.00" fill="#000000">...</text>
<text text-anchor="middle" x="989.813" y="-49.3068" font-family="monaco" font-size="14.00" fill="#000000">...</text>
<text text-anchor="middle" x="989.813" y="-30.6379" font-family="monaco" font-size="14.00" fill="#000000">...</text>
<text text-anchor="middle" x="989.813" y="-11.9689" font-family="monaco" font-size="14.00" fill="#000000">...</text>
</g>
<!-- Actor&#45;&gt;PaymentChannelActor -->
<g id="edge6" class="edge">
<title>Actor&#45;&gt;PaymentChannelActor</title>
<path fill="none" stroke="#000000" stroke-dasharray="5,2" d="M501.0211,-186.1433C569.2429,-180.6909 743.8762,-162.687 892.1291,-110.3087"/>
<polygon fill="#000000" stroke="#000000" points="893.6307,-113.4881 901.8547,-106.8086 891.2603,-106.9016 893.6307,-113.4881"/>
</g>
</g>
</svg>
